G04*
G04 #@! TF.GenerationSoftware,Altium Limited,Altium Designer,23.3.1 (30)*
G04*
G04 Layer_Color=2752767*
%FSLAX25Y25*%
%MOIN*%
G70*
G04*
G04 #@! TF.SameCoordinates,97A15D6B-2EEB-42C3-8D6F-FEDD3E2C4342*
G04*
G04*
G04 #@! TF.FilePolarity,Positive*
G04*
G01*
G75*
%ADD12C,0.01000*%
%ADD14C,0.00600*%
%ADD83C,0.00200*%
%ADD84C,0.01500*%
%ADD85C,0.00100*%
%ADD86C,0.01600*%
G36*
X154313Y-149238D02*
X153829D01*
Y-148790D01*
X154313D01*
Y-149238D01*
D02*
G37*
G36*
X141796D02*
X141312D01*
Y-148790D01*
X141796D01*
Y-149238D01*
D02*
G37*
G36*
X148648Y-149445D02*
X148664Y-149448D01*
X148705Y-149454D01*
X148754Y-149465D01*
X148809Y-149481D01*
X148866Y-149506D01*
X148924Y-149536D01*
X148773Y-149956D01*
X148768Y-149953D01*
X148751Y-149942D01*
X148730Y-149932D01*
X148700Y-149915D01*
X148664Y-149901D01*
X148626Y-149888D01*
X148588Y-149880D01*
X148547Y-149877D01*
X148530D01*
X148511Y-149880D01*
X148487Y-149885D01*
X148459Y-149890D01*
X148432Y-149901D01*
X148402Y-149915D01*
X148375Y-149934D01*
X148372Y-149937D01*
X148364Y-149945D01*
X148350Y-149959D01*
X148334Y-149981D01*
X148318Y-150008D01*
X148298Y-150043D01*
X148279Y-150084D01*
X148263Y-150136D01*
Y-150139D01*
X148260Y-150144D01*
Y-150153D01*
X148257Y-150166D01*
X148255Y-150183D01*
X148252Y-150207D01*
X148247Y-150234D01*
X148244Y-150267D01*
X148241Y-150305D01*
X148236Y-150349D01*
X148233Y-150398D01*
X148230Y-150456D01*
X148227Y-150518D01*
Y-150587D01*
X148225Y-150663D01*
Y-150748D01*
Y-151310D01*
X147741D01*
Y-149484D01*
X148189D01*
Y-149746D01*
X148192Y-149743D01*
X148195Y-149738D01*
X148200Y-149730D01*
X148208Y-149716D01*
X148230Y-149683D01*
X148257Y-149645D01*
X148290Y-149604D01*
X148323Y-149566D01*
X148358Y-149530D01*
X148378Y-149514D01*
X148394Y-149503D01*
X148399Y-149500D01*
X148410Y-149495D01*
X148429Y-149484D01*
X148454Y-149473D01*
X148487Y-149462D01*
X148522Y-149451D01*
X148560Y-149445D01*
X148604Y-149443D01*
X148631D01*
X148648Y-149445D01*
D02*
G37*
G36*
X140826D02*
X140843Y-149448D01*
X140884Y-149454D01*
X140933Y-149465D01*
X140987Y-149481D01*
X141045Y-149506D01*
X141102Y-149536D01*
X140952Y-149956D01*
X140946Y-149953D01*
X140930Y-149942D01*
X140908Y-149932D01*
X140878Y-149915D01*
X140843Y-149901D01*
X140805Y-149888D01*
X140766Y-149880D01*
X140725Y-149877D01*
X140709D01*
X140690Y-149880D01*
X140665Y-149885D01*
X140638Y-149890D01*
X140611Y-149901D01*
X140581Y-149915D01*
X140553Y-149934D01*
X140551Y-149937D01*
X140542Y-149945D01*
X140529Y-149959D01*
X140512Y-149981D01*
X140496Y-150008D01*
X140477Y-150043D01*
X140458Y-150084D01*
X140441Y-150136D01*
Y-150139D01*
X140439Y-150144D01*
Y-150153D01*
X140436Y-150166D01*
X140433Y-150183D01*
X140430Y-150207D01*
X140425Y-150234D01*
X140422Y-150267D01*
X140420Y-150305D01*
X140414Y-150349D01*
X140411Y-150398D01*
X140409Y-150456D01*
X140406Y-150518D01*
Y-150587D01*
X140403Y-150663D01*
Y-150748D01*
Y-151310D01*
X139920D01*
Y-149484D01*
X140368D01*
Y-149746D01*
X140371Y-149743D01*
X140373Y-149738D01*
X140379Y-149730D01*
X140387Y-149716D01*
X140409Y-149683D01*
X140436Y-149645D01*
X140469Y-149604D01*
X140501Y-149566D01*
X140537Y-149530D01*
X140556Y-149514D01*
X140573Y-149503D01*
X140578Y-149500D01*
X140589Y-149495D01*
X140608Y-149484D01*
X140632Y-149473D01*
X140665Y-149462D01*
X140701Y-149451D01*
X140739Y-149445D01*
X140783Y-149443D01*
X140810D01*
X140826Y-149445D01*
D02*
G37*
G36*
X155904D02*
X155945Y-149451D01*
X155989Y-149457D01*
X156038Y-149467D01*
X156090Y-149484D01*
X156139Y-149503D01*
X156142D01*
X156144Y-149506D01*
X156161Y-149514D01*
X156185Y-149525D01*
X156213Y-149544D01*
X156245Y-149563D01*
X156278Y-149590D01*
X156311Y-149618D01*
X156338Y-149650D01*
X156341Y-149653D01*
X156349Y-149667D01*
X156360Y-149683D01*
X156376Y-149708D01*
X156393Y-149738D01*
X156406Y-149773D01*
X156423Y-149811D01*
X156434Y-149852D01*
Y-149858D01*
X156439Y-149874D01*
X156442Y-149899D01*
X156447Y-149934D01*
X156453Y-149981D01*
X156456Y-150035D01*
X156461Y-150101D01*
Y-150177D01*
Y-151310D01*
X155978D01*
Y-150379D01*
Y-150376D01*
Y-150366D01*
Y-150352D01*
Y-150330D01*
Y-150308D01*
X155975Y-150281D01*
Y-150221D01*
X155970Y-150155D01*
X155964Y-150093D01*
X155962Y-150063D01*
X155956Y-150038D01*
X155951Y-150016D01*
X155945Y-149997D01*
Y-149994D01*
X155940Y-149983D01*
X155931Y-149967D01*
X155921Y-149948D01*
X155907Y-149926D01*
X155891Y-149901D01*
X155869Y-149880D01*
X155844Y-149861D01*
X155841Y-149858D01*
X155833Y-149852D01*
X155817Y-149844D01*
X155798Y-149836D01*
X155773Y-149828D01*
X155746Y-149820D01*
X155716Y-149814D01*
X155680Y-149811D01*
X155658D01*
X155637Y-149814D01*
X155604Y-149820D01*
X155571Y-149828D01*
X155533Y-149841D01*
X155492Y-149858D01*
X155454Y-149882D01*
X155448Y-149885D01*
X155437Y-149896D01*
X155421Y-149910D01*
X155399Y-149932D01*
X155377Y-149956D01*
X155355Y-149989D01*
X155336Y-150024D01*
X155320Y-150065D01*
X155317Y-150071D01*
Y-150076D01*
X155315Y-150087D01*
X155312Y-150101D01*
X155309Y-150117D01*
X155306Y-150136D01*
X155304Y-150158D01*
X155298Y-150185D01*
X155295Y-150215D01*
X155293Y-150251D01*
X155290Y-150289D01*
X155287Y-150330D01*
Y-150376D01*
X155284Y-150428D01*
Y-150483D01*
Y-151310D01*
X154801D01*
Y-149484D01*
X155249D01*
Y-149754D01*
X155252Y-149751D01*
X155260Y-149740D01*
X155273Y-149724D01*
X155293Y-149705D01*
X155315Y-149683D01*
X155344Y-149656D01*
X155375Y-149628D01*
X155413Y-149598D01*
X155454Y-149568D01*
X155500Y-149541D01*
X155549Y-149514D01*
X155601Y-149492D01*
X155658Y-149470D01*
X155719Y-149457D01*
X155781Y-149445D01*
X155847Y-149443D01*
X155874D01*
X155904Y-149445D01*
D02*
G37*
G36*
X152994Y-151310D02*
X152527D01*
X152213Y-150136D01*
X151902Y-151310D01*
X151432D01*
X150856Y-149484D01*
X151326D01*
X151667Y-150682D01*
X151981Y-149484D01*
X152448D01*
X152754Y-150682D01*
X153103Y-149484D01*
X153581D01*
X152994Y-151310D01*
D02*
G37*
G36*
X154313D02*
X153829D01*
Y-149484D01*
X154313D01*
Y-151310D01*
D02*
G37*
G36*
X149925Y-149445D02*
X149958D01*
X149991Y-149448D01*
X150029Y-149454D01*
X150108Y-149462D01*
X150188Y-149476D01*
X150264Y-149495D01*
X150297Y-149508D01*
X150329Y-149522D01*
X150332D01*
X150338Y-149525D01*
X150346Y-149530D01*
X150354Y-149536D01*
X150384Y-149552D01*
X150417Y-149574D01*
X150455Y-149604D01*
X150491Y-149637D01*
X150526Y-149675D01*
X150553Y-149716D01*
X150556Y-149721D01*
X150559Y-149730D01*
X150564Y-149738D01*
X150570Y-149751D01*
X150575Y-149770D01*
X150581Y-149790D01*
X150586Y-149814D01*
X150592Y-149841D01*
X150597Y-149871D01*
X150602Y-149907D01*
X150608Y-149948D01*
X150613Y-149992D01*
X150616Y-150038D01*
X150619Y-150090D01*
Y-150147D01*
X150611Y-150712D01*
Y-150715D01*
Y-150723D01*
Y-150734D01*
Y-150751D01*
Y-150772D01*
Y-150794D01*
X150613Y-150846D01*
X150616Y-150903D01*
X150619Y-150963D01*
X150624Y-151018D01*
X150630Y-151045D01*
X150633Y-151067D01*
Y-151073D01*
X150638Y-151086D01*
X150643Y-151111D01*
X150652Y-151141D01*
X150663Y-151176D01*
X150679Y-151217D01*
X150698Y-151264D01*
X150720Y-151310D01*
X150242D01*
Y-151307D01*
X150239Y-151302D01*
X150234Y-151291D01*
X150229Y-151275D01*
X150223Y-151256D01*
X150212Y-151231D01*
X150204Y-151201D01*
X150193Y-151168D01*
Y-151165D01*
X150190Y-151160D01*
X150188Y-151144D01*
X150182Y-151125D01*
X150179Y-151116D01*
X150177Y-151111D01*
X150171Y-151116D01*
X150155Y-151130D01*
X150130Y-151152D01*
X150097Y-151179D01*
X150059Y-151206D01*
X150013Y-151236D01*
X149964Y-151267D01*
X149912Y-151291D01*
X149909D01*
X149906Y-151294D01*
X149898Y-151296D01*
X149887Y-151299D01*
X149860Y-151310D01*
X149822Y-151321D01*
X149778Y-151332D01*
X149726Y-151343D01*
X149672Y-151348D01*
X149611Y-151351D01*
X149584D01*
X149565Y-151348D01*
X149540Y-151346D01*
X149513Y-151343D01*
X149483Y-151337D01*
X149450Y-151332D01*
X149379Y-151316D01*
X149306Y-151288D01*
X149267Y-151269D01*
X149232Y-151250D01*
X149199Y-151228D01*
X149167Y-151201D01*
X149164Y-151198D01*
X149158Y-151193D01*
X149153Y-151184D01*
X149142Y-151174D01*
X149128Y-151157D01*
X149115Y-151141D01*
X149101Y-151119D01*
X149087Y-151094D01*
X149071Y-151067D01*
X149057Y-151040D01*
X149030Y-150972D01*
X149019Y-150936D01*
X149014Y-150898D01*
X149008Y-150857D01*
X149005Y-150813D01*
Y-150811D01*
Y-150805D01*
Y-150797D01*
Y-150786D01*
X149008Y-150759D01*
X149014Y-150721D01*
X149024Y-150677D01*
X149036Y-150630D01*
X149055Y-150584D01*
X149079Y-150538D01*
Y-150535D01*
X149082Y-150532D01*
X149093Y-150518D01*
X149109Y-150497D01*
X149134Y-150469D01*
X149161Y-150439D01*
X149197Y-150409D01*
X149238Y-150379D01*
X149284Y-150355D01*
X149287D01*
X149289Y-150352D01*
X149298Y-150349D01*
X149309Y-150344D01*
X149322Y-150338D01*
X149338Y-150330D01*
X149360Y-150325D01*
X149382Y-150316D01*
X149407Y-150308D01*
X149437Y-150297D01*
X149469Y-150289D01*
X149502Y-150278D01*
X149540Y-150270D01*
X149582Y-150259D01*
X149622Y-150248D01*
X149669Y-150240D01*
X149672D01*
X149682Y-150237D01*
X149702Y-150234D01*
X149723Y-150229D01*
X149751Y-150224D01*
X149784Y-150218D01*
X149819Y-150210D01*
X149857Y-150202D01*
X149934Y-150183D01*
X150013Y-150163D01*
X150048Y-150153D01*
X150084Y-150142D01*
X150114Y-150131D01*
X150141Y-150120D01*
Y-150073D01*
Y-150071D01*
Y-150068D01*
Y-150049D01*
X150138Y-150024D01*
X150133Y-149994D01*
X150125Y-149961D01*
X150111Y-149929D01*
X150095Y-149896D01*
X150070Y-149871D01*
X150067Y-149869D01*
X150057Y-149863D01*
X150037Y-149852D01*
X150013Y-149841D01*
X149977Y-149830D01*
X149931Y-149820D01*
X149904Y-149817D01*
X149876Y-149814D01*
X149844Y-149811D01*
X149786D01*
X149762Y-149814D01*
X149734Y-149817D01*
X149702Y-149825D01*
X149666Y-149833D01*
X149633Y-149847D01*
X149603Y-149863D01*
X149601Y-149866D01*
X149592Y-149874D01*
X149579Y-149885D01*
X149562Y-149904D01*
X149543Y-149929D01*
X149524Y-149961D01*
X149505Y-150000D01*
X149489Y-150043D01*
X149055Y-149964D01*
Y-149961D01*
X149057Y-149953D01*
X149063Y-149940D01*
X149068Y-149921D01*
X149076Y-149899D01*
X149087Y-149874D01*
X149115Y-149817D01*
X149150Y-149751D01*
X149194Y-149686D01*
X149246Y-149626D01*
X149276Y-149596D01*
X149309Y-149571D01*
X149311Y-149568D01*
X149317Y-149566D01*
X149328Y-149560D01*
X149341Y-149552D01*
X149360Y-149541D01*
X149385Y-149530D01*
X149412Y-149519D01*
X149442Y-149506D01*
X149480Y-149495D01*
X149519Y-149484D01*
X149562Y-149473D01*
X149611Y-149462D01*
X149663Y-149454D01*
X149721Y-149448D01*
X149781Y-149443D01*
X149901D01*
X149925Y-149445D01*
D02*
G37*
G36*
X146232Y-148793D02*
X146295D01*
X146330Y-148796D01*
X146406Y-148801D01*
X146486Y-148812D01*
X146562Y-148823D01*
X146598Y-148831D01*
X146630Y-148839D01*
X146633D01*
X146641Y-148842D01*
X146652Y-148848D01*
X146669Y-148853D01*
X146688Y-148859D01*
X146710Y-148870D01*
X146761Y-148894D01*
X146821Y-148924D01*
X146884Y-148965D01*
X146947Y-149014D01*
X147010Y-149072D01*
X147012Y-149074D01*
X147018Y-149080D01*
X147026Y-149088D01*
X147037Y-149102D01*
X147048Y-149118D01*
X147064Y-149137D01*
X147081Y-149159D01*
X147100Y-149186D01*
X147119Y-149214D01*
X147138Y-149243D01*
X147179Y-149314D01*
X147217Y-149394D01*
X147250Y-149481D01*
Y-149484D01*
X147253Y-149492D01*
X147258Y-149506D01*
X147264Y-149525D01*
X147269Y-149547D01*
X147277Y-149577D01*
X147285Y-149609D01*
X147294Y-149645D01*
X147299Y-149686D01*
X147307Y-149732D01*
X147316Y-149781D01*
X147321Y-149833D01*
X147327Y-149890D01*
X147332Y-149948D01*
X147335Y-150011D01*
Y-150076D01*
Y-150079D01*
Y-150090D01*
Y-150106D01*
Y-150128D01*
X147332Y-150155D01*
Y-150185D01*
X147329Y-150221D01*
X147324Y-150259D01*
X147316Y-150344D01*
X147302Y-150434D01*
X147283Y-150524D01*
X147256Y-150611D01*
Y-150614D01*
X147250Y-150622D01*
X147245Y-150639D01*
X147239Y-150658D01*
X147228Y-150680D01*
X147217Y-150707D01*
X147204Y-150737D01*
X147187Y-150770D01*
X147149Y-150841D01*
X147103Y-150914D01*
X147048Y-150988D01*
X146985Y-151056D01*
X146983Y-151059D01*
X146980Y-151062D01*
X146972Y-151070D01*
X146961Y-151078D01*
X146947Y-151089D01*
X146933Y-151103D01*
X146914Y-151116D01*
X146892Y-151130D01*
X146841Y-151163D01*
X146781Y-151196D01*
X146710Y-151228D01*
X146630Y-151258D01*
X146628D01*
X146622Y-151261D01*
X146614Y-151264D01*
X146600Y-151267D01*
X146584Y-151269D01*
X146562Y-151275D01*
X146537Y-151280D01*
X146510Y-151283D01*
X146480Y-151288D01*
X146447Y-151294D01*
X146409Y-151299D01*
X146368Y-151302D01*
X146327Y-151305D01*
X146281Y-151307D01*
X146232Y-151310D01*
X145224D01*
Y-148790D01*
X146204D01*
X146232Y-148793D01*
D02*
G37*
G36*
X143750Y-151310D02*
X143267D01*
Y-148790D01*
X143750D01*
Y-151310D01*
D02*
G37*
G36*
X142773D02*
X142290D01*
Y-148790D01*
X142773D01*
Y-151310D01*
D02*
G37*
G36*
X141796D02*
X141312D01*
Y-149484D01*
X141796D01*
Y-151310D01*
D02*
G37*
G36*
X138410Y-148793D02*
X138473D01*
X138509Y-148796D01*
X138585Y-148801D01*
X138664Y-148812D01*
X138741Y-148823D01*
X138776Y-148831D01*
X138809Y-148839D01*
X138812D01*
X138820Y-148842D01*
X138831Y-148848D01*
X138847Y-148853D01*
X138866Y-148859D01*
X138888Y-148870D01*
X138940Y-148894D01*
X139000Y-148924D01*
X139063Y-148965D01*
X139126Y-149014D01*
X139188Y-149072D01*
X139191Y-149074D01*
X139197Y-149080D01*
X139205Y-149088D01*
X139216Y-149102D01*
X139227Y-149118D01*
X139243Y-149137D01*
X139259Y-149159D01*
X139278Y-149186D01*
X139298Y-149214D01*
X139317Y-149243D01*
X139358Y-149314D01*
X139396Y-149394D01*
X139429Y-149481D01*
Y-149484D01*
X139431Y-149492D01*
X139437Y-149506D01*
X139442Y-149525D01*
X139448Y-149547D01*
X139456Y-149577D01*
X139464Y-149609D01*
X139472Y-149645D01*
X139478Y-149686D01*
X139486Y-149732D01*
X139494Y-149781D01*
X139500Y-149833D01*
X139505Y-149890D01*
X139511Y-149948D01*
X139513Y-150011D01*
Y-150076D01*
Y-150079D01*
Y-150090D01*
Y-150106D01*
Y-150128D01*
X139511Y-150155D01*
Y-150185D01*
X139508Y-150221D01*
X139502Y-150259D01*
X139494Y-150344D01*
X139480Y-150434D01*
X139461Y-150524D01*
X139434Y-150611D01*
Y-150614D01*
X139429Y-150622D01*
X139423Y-150639D01*
X139418Y-150658D01*
X139407Y-150680D01*
X139396Y-150707D01*
X139382Y-150737D01*
X139366Y-150770D01*
X139328Y-150841D01*
X139281Y-150914D01*
X139227Y-150988D01*
X139164Y-151056D01*
X139161Y-151059D01*
X139158Y-151062D01*
X139150Y-151070D01*
X139139Y-151078D01*
X139126Y-151089D01*
X139112Y-151103D01*
X139093Y-151116D01*
X139071Y-151130D01*
X139019Y-151163D01*
X138959Y-151196D01*
X138888Y-151228D01*
X138809Y-151258D01*
X138806D01*
X138801Y-151261D01*
X138793Y-151264D01*
X138779Y-151267D01*
X138762Y-151269D01*
X138741Y-151275D01*
X138716Y-151280D01*
X138689Y-151283D01*
X138659Y-151288D01*
X138626Y-151294D01*
X138588Y-151299D01*
X138547Y-151302D01*
X138506Y-151305D01*
X138459Y-151307D01*
X138410Y-151310D01*
X137403D01*
Y-148790D01*
X138383D01*
X138410Y-148793D01*
D02*
G37*
G36*
X157646Y-149445D02*
X157670Y-149448D01*
X157698Y-149451D01*
X157733Y-149459D01*
X157769Y-149467D01*
X157810Y-149481D01*
X157853Y-149495D01*
X157900Y-149516D01*
X157946Y-149538D01*
X157993Y-149568D01*
X158039Y-149601D01*
X158085Y-149642D01*
X158129Y-149688D01*
X158173Y-149740D01*
Y-149484D01*
X158626D01*
Y-151125D01*
Y-151127D01*
Y-151138D01*
Y-151154D01*
Y-151176D01*
X158623Y-151204D01*
Y-151234D01*
X158621Y-151267D01*
Y-151305D01*
X158612Y-151381D01*
X158604Y-151460D01*
X158590Y-151537D01*
X158582Y-151569D01*
X158571Y-151602D01*
Y-151605D01*
X158569Y-151610D01*
X158566Y-151619D01*
X158560Y-151629D01*
X158549Y-151657D01*
X158533Y-151695D01*
X158511Y-151733D01*
X158484Y-151777D01*
X158454Y-151818D01*
X158421Y-151853D01*
X158416Y-151856D01*
X158405Y-151870D01*
X158383Y-151886D01*
X158353Y-151905D01*
X158317Y-151930D01*
X158274Y-151954D01*
X158222Y-151976D01*
X158165Y-151998D01*
X158162D01*
X158156Y-152001D01*
X158148Y-152004D01*
X158135Y-152006D01*
X158121Y-152009D01*
X158102Y-152015D01*
X158077Y-152020D01*
X158053Y-152023D01*
X158025Y-152028D01*
X157995Y-152034D01*
X157924Y-152042D01*
X157845Y-152047D01*
X157758Y-152050D01*
X157714D01*
X157681Y-152047D01*
X157643Y-152044D01*
X157599Y-152042D01*
X157553Y-152036D01*
X157501Y-152031D01*
X157392Y-152012D01*
X157337Y-151998D01*
X157285Y-151982D01*
X157234Y-151963D01*
X157185Y-151941D01*
X157138Y-151916D01*
X157100Y-151889D01*
X157097Y-151886D01*
X157092Y-151881D01*
X157081Y-151873D01*
X157070Y-151859D01*
X157056Y-151845D01*
X157040Y-151826D01*
X157021Y-151804D01*
X157004Y-151780D01*
X156985Y-151752D01*
X156966Y-151720D01*
X156936Y-151651D01*
X156925Y-151613D01*
X156914Y-151572D01*
X156909Y-151529D01*
X156906Y-151485D01*
Y-151479D01*
Y-151469D01*
Y-151449D01*
X156909Y-151427D01*
X157460Y-151496D01*
Y-151498D01*
X157463Y-151512D01*
X157468Y-151529D01*
X157474Y-151548D01*
X157482Y-151569D01*
X157493Y-151591D01*
X157507Y-151610D01*
X157523Y-151627D01*
X157526Y-151629D01*
X157537Y-151635D01*
X157553Y-151643D01*
X157575Y-151654D01*
X157605Y-151665D01*
X157643Y-151673D01*
X157687Y-151679D01*
X157739Y-151681D01*
X157769D01*
X157785Y-151679D01*
X157804D01*
X157845Y-151673D01*
X157892Y-151668D01*
X157938Y-151657D01*
X157984Y-151643D01*
X158023Y-151624D01*
X158025Y-151621D01*
X158034Y-151616D01*
X158045Y-151608D01*
X158058Y-151594D01*
X158074Y-151578D01*
X158091Y-151556D01*
X158105Y-151531D01*
X158118Y-151501D01*
Y-151498D01*
X158121Y-151488D01*
X158126Y-151474D01*
X158132Y-151449D01*
X158135Y-151419D01*
X158140Y-151381D01*
X158143Y-151335D01*
Y-151280D01*
Y-151010D01*
X158140Y-151013D01*
X158132Y-151023D01*
X158121Y-151037D01*
X158105Y-151056D01*
X158083Y-151078D01*
X158055Y-151105D01*
X158025Y-151133D01*
X157993Y-151160D01*
X157954Y-151187D01*
X157913Y-151215D01*
X157867Y-151239D01*
X157818Y-151264D01*
X157769Y-151283D01*
X157711Y-151296D01*
X157654Y-151307D01*
X157594Y-151310D01*
X157578D01*
X157559Y-151307D01*
X157534Y-151305D01*
X157504Y-151299D01*
X157466Y-151294D01*
X157428Y-151283D01*
X157384Y-151272D01*
X157337Y-151256D01*
X157291Y-151234D01*
X157242Y-151209D01*
X157195Y-151179D01*
X157146Y-151144D01*
X157100Y-151103D01*
X157053Y-151054D01*
X157012Y-150999D01*
X157010Y-150996D01*
X157004Y-150988D01*
X156996Y-150974D01*
X156988Y-150955D01*
X156974Y-150931D01*
X156961Y-150901D01*
X156944Y-150868D01*
X156931Y-150830D01*
X156914Y-150789D01*
X156898Y-150742D01*
X156884Y-150690D01*
X156873Y-150636D01*
X156862Y-150578D01*
X156854Y-150518D01*
X156849Y-150456D01*
X156846Y-150387D01*
Y-150382D01*
Y-150368D01*
X156849Y-150344D01*
Y-150311D01*
X156851Y-150273D01*
X156857Y-150229D01*
X156865Y-150180D01*
X156873Y-150128D01*
X156884Y-150071D01*
X156901Y-150013D01*
X156917Y-149956D01*
X156939Y-149899D01*
X156963Y-149841D01*
X156993Y-149787D01*
X157026Y-149735D01*
X157064Y-149686D01*
X157067Y-149683D01*
X157075Y-149675D01*
X157086Y-149664D01*
X157105Y-149648D01*
X157124Y-149628D01*
X157152Y-149609D01*
X157182Y-149588D01*
X157217Y-149563D01*
X157253Y-149541D01*
X157297Y-149519D01*
X157340Y-149500D01*
X157389Y-149481D01*
X157441Y-149465D01*
X157496Y-149454D01*
X157553Y-149445D01*
X157613Y-149443D01*
X157630D01*
X157646Y-149445D01*
D02*
G37*
%LPC*%
G36*
X150141Y-150434D02*
X150136Y-150436D01*
X150122Y-150439D01*
X150100Y-150447D01*
X150067Y-150456D01*
X150027Y-150467D01*
X149975Y-150480D01*
X149915Y-150494D01*
X149844Y-150510D01*
X149841D01*
X149835Y-150513D01*
X149824D01*
X149811Y-150518D01*
X149778Y-150527D01*
X149737Y-150535D01*
X149693Y-150549D01*
X149650Y-150562D01*
X149611Y-150576D01*
X149595Y-150584D01*
X149582Y-150592D01*
X149579Y-150595D01*
X149568Y-150603D01*
X149551Y-150619D01*
X149535Y-150639D01*
X149519Y-150663D01*
X149502Y-150693D01*
X149491Y-150726D01*
X149489Y-150761D01*
Y-150767D01*
Y-150778D01*
X149491Y-150797D01*
X149497Y-150821D01*
X149508Y-150849D01*
X149519Y-150879D01*
X149538Y-150906D01*
X149562Y-150936D01*
X149565Y-150939D01*
X149576Y-150947D01*
X149592Y-150961D01*
X149614Y-150972D01*
X149644Y-150985D01*
X149677Y-150999D01*
X149715Y-151007D01*
X149756Y-151010D01*
X149762D01*
X149778Y-151007D01*
X149803Y-151004D01*
X149835Y-150999D01*
X149874Y-150988D01*
X149917Y-150974D01*
X149961Y-150952D01*
X150005Y-150925D01*
X150007Y-150923D01*
X150018Y-150914D01*
X150035Y-150901D01*
X150051Y-150882D01*
X150073Y-150857D01*
X150092Y-150830D01*
X150108Y-150800D01*
X150122Y-150767D01*
Y-150764D01*
X150125Y-150753D01*
X150127Y-150737D01*
X150133Y-150715D01*
X150136Y-150682D01*
X150138Y-150641D01*
X150141Y-150592D01*
Y-150532D01*
Y-150434D01*
D02*
G37*
G36*
X146065Y-149216D02*
X145732D01*
Y-150884D01*
X146185D01*
X146229Y-150882D01*
X146281Y-150879D01*
X146333Y-150876D01*
X146379Y-150871D01*
X146401Y-150865D01*
X146420Y-150862D01*
X146423D01*
X146426Y-150860D01*
X146442Y-150857D01*
X146464Y-150849D01*
X146491Y-150838D01*
X146524Y-150821D01*
X146559Y-150802D01*
X146592Y-150780D01*
X146625Y-150756D01*
X146628Y-150753D01*
X146639Y-150742D01*
X146655Y-150723D01*
X146671Y-150699D01*
X146693Y-150663D01*
X146715Y-150622D01*
X146737Y-150573D01*
X146759Y-150513D01*
Y-150510D01*
X146761Y-150505D01*
X146764Y-150497D01*
X146767Y-150483D01*
X146770Y-150464D01*
X146775Y-150445D01*
X146781Y-150420D01*
X146786Y-150393D01*
X146789Y-150360D01*
X146794Y-150325D01*
X146800Y-150289D01*
X146802Y-150248D01*
X146805Y-150202D01*
X146808Y-150155D01*
X146810Y-150103D01*
Y-150052D01*
Y-150049D01*
Y-150038D01*
Y-150024D01*
Y-150003D01*
X146808Y-149978D01*
Y-149951D01*
X146805Y-149921D01*
Y-149885D01*
X146797Y-149814D01*
X146789Y-149740D01*
X146775Y-149667D01*
X146767Y-149634D01*
X146759Y-149604D01*
Y-149601D01*
X146756Y-149596D01*
X146753Y-149588D01*
X146750Y-149579D01*
X146737Y-149549D01*
X146720Y-149514D01*
X146701Y-149476D01*
X146677Y-149435D01*
X146647Y-149396D01*
X146614Y-149361D01*
X146608Y-149358D01*
X146598Y-149347D01*
X146576Y-149331D01*
X146548Y-149312D01*
X146516Y-149293D01*
X146475Y-149274D01*
X146428Y-149254D01*
X146376Y-149241D01*
X146371D01*
X146365Y-149238D01*
X146355D01*
X146344Y-149235D01*
X146327Y-149233D01*
X146308Y-149230D01*
X146284Y-149227D01*
X146259D01*
X146229Y-149224D01*
X146194Y-149222D01*
X146155Y-149219D01*
X146112D01*
X146065Y-149216D01*
D02*
G37*
G36*
X138244D02*
X137911D01*
Y-150884D01*
X138364D01*
X138408Y-150882D01*
X138459Y-150879D01*
X138511Y-150876D01*
X138558Y-150871D01*
X138580Y-150865D01*
X138599Y-150862D01*
X138601D01*
X138604Y-150860D01*
X138620Y-150857D01*
X138642Y-150849D01*
X138670Y-150838D01*
X138702Y-150821D01*
X138738Y-150802D01*
X138771Y-150780D01*
X138803Y-150756D01*
X138806Y-150753D01*
X138817Y-150742D01*
X138833Y-150723D01*
X138850Y-150699D01*
X138872Y-150663D01*
X138893Y-150622D01*
X138915Y-150573D01*
X138937Y-150513D01*
Y-150510D01*
X138940Y-150505D01*
X138943Y-150497D01*
X138945Y-150483D01*
X138948Y-150464D01*
X138954Y-150445D01*
X138959Y-150420D01*
X138964Y-150393D01*
X138967Y-150360D01*
X138973Y-150325D01*
X138978Y-150289D01*
X138981Y-150248D01*
X138984Y-150202D01*
X138986Y-150155D01*
X138989Y-150103D01*
Y-150052D01*
Y-150049D01*
Y-150038D01*
Y-150024D01*
Y-150003D01*
X138986Y-149978D01*
Y-149951D01*
X138984Y-149921D01*
Y-149885D01*
X138975Y-149814D01*
X138967Y-149740D01*
X138954Y-149667D01*
X138945Y-149634D01*
X138937Y-149604D01*
Y-149601D01*
X138935Y-149596D01*
X138932Y-149588D01*
X138929Y-149579D01*
X138915Y-149549D01*
X138899Y-149514D01*
X138880Y-149476D01*
X138855Y-149435D01*
X138825Y-149396D01*
X138793Y-149361D01*
X138787Y-149358D01*
X138776Y-149347D01*
X138754Y-149331D01*
X138727Y-149312D01*
X138694Y-149293D01*
X138653Y-149274D01*
X138607Y-149254D01*
X138555Y-149241D01*
X138549D01*
X138544Y-149238D01*
X138533D01*
X138522Y-149235D01*
X138506Y-149233D01*
X138487Y-149230D01*
X138462Y-149227D01*
X138438D01*
X138408Y-149224D01*
X138372Y-149222D01*
X138334Y-149219D01*
X138290D01*
X138244Y-149216D01*
D02*
G37*
G36*
X157736Y-149811D02*
X157720D01*
X157709Y-149814D01*
X157676Y-149820D01*
X157635Y-149828D01*
X157591Y-149844D01*
X157545Y-149869D01*
X157520Y-149885D01*
X157496Y-149901D01*
X157474Y-149923D01*
X157452Y-149948D01*
Y-149951D01*
X157447Y-149953D01*
X157441Y-149961D01*
X157436Y-149972D01*
X157428Y-149986D01*
X157417Y-150005D01*
X157406Y-150024D01*
X157397Y-150049D01*
X157387Y-150076D01*
X157376Y-150106D01*
X157367Y-150142D01*
X157357Y-150177D01*
X157351Y-150218D01*
X157346Y-150262D01*
X157340Y-150308D01*
Y-150360D01*
Y-150363D01*
Y-150374D01*
Y-150387D01*
X157343Y-150407D01*
Y-150431D01*
X157346Y-150458D01*
X157348Y-150491D01*
X157354Y-150524D01*
X157367Y-150592D01*
X157387Y-150663D01*
X157414Y-150729D01*
X157433Y-150759D01*
X157452Y-150786D01*
X157455Y-150789D01*
X157457Y-150791D01*
X157471Y-150808D01*
X157496Y-150827D01*
X157528Y-150852D01*
X157570Y-150876D01*
X157616Y-150898D01*
X157668Y-150914D01*
X157698Y-150917D01*
X157728Y-150920D01*
X157744D01*
X157758Y-150917D01*
X157772Y-150914D01*
X157791Y-150912D01*
X157832Y-150903D01*
X157878Y-150887D01*
X157930Y-150862D01*
X157954Y-150846D01*
X157979Y-150827D01*
X158003Y-150808D01*
X158028Y-150783D01*
X158031Y-150780D01*
X158034Y-150778D01*
X158039Y-150770D01*
X158047Y-150756D01*
X158055Y-150742D01*
X158066Y-150726D01*
X158077Y-150704D01*
X158091Y-150680D01*
X158102Y-150652D01*
X158113Y-150622D01*
X158124Y-150587D01*
X158132Y-150551D01*
X158140Y-150510D01*
X158145Y-150467D01*
X158151Y-150420D01*
Y-150371D01*
Y-150368D01*
Y-150357D01*
Y-150344D01*
X158148Y-150325D01*
Y-150300D01*
X158145Y-150273D01*
X158140Y-150243D01*
X158137Y-150213D01*
X158124Y-150144D01*
X158102Y-150073D01*
X158072Y-150008D01*
X158055Y-149978D01*
X158034Y-149951D01*
Y-149948D01*
X158028Y-149945D01*
X158012Y-149929D01*
X157987Y-149907D01*
X157952Y-149880D01*
X157911Y-149855D01*
X157859Y-149833D01*
X157801Y-149817D01*
X157769Y-149814D01*
X157736Y-149811D01*
D02*
G37*
%LPD*%
D12*
X221939Y-10810D02*
G03*
X221939Y-10810I-3333J0D01*
G01*
X215273Y17523D02*
X216939D01*
X215273D02*
Y20856D01*
X216939D01*
Y22523D01*
X220273D01*
Y20856D02*
Y22523D01*
Y20856D02*
X221939D01*
Y17523D02*
Y20856D01*
X220273Y17523D02*
X221939D01*
X220273Y15856D02*
Y17523D01*
X216939Y15856D02*
X220273D01*
X216939D02*
Y17523D01*
X215273Y856D02*
Y2523D01*
X216939Y4190D01*
X215273Y5856D02*
X216939Y4190D01*
X215273Y5856D02*
Y7523D01*
X216939D01*
X218606Y5856D01*
X220273Y7523D01*
X221939D01*
Y5856D02*
Y7523D01*
X220273Y4190D02*
X221939Y5856D01*
X220273Y4190D02*
X221939Y2523D01*
Y856D02*
Y2523D01*
X220273Y856D02*
X221939D01*
X218606Y2523D02*
X220273Y856D01*
X216939D02*
X218606Y2523D01*
X215273Y856D02*
X216939D01*
X218606Y-29144D02*
X221939Y-22477D01*
X215273D02*
X221939D01*
X215273D02*
X218606Y-29144D01*
X215273Y-44144D02*
X221939D01*
Y-37477D01*
X215273D02*
X221939D01*
X215273Y-44144D02*
Y-37477D01*
X216939Y-57477D02*
X218606Y-59144D01*
X215273Y-57477D02*
X216939D01*
X215273D02*
X216939Y-55810D01*
X215273Y-54144D02*
X216939Y-55810D01*
X215273Y-54144D02*
X216939D01*
X218606Y-52477D01*
X220273Y-54144D01*
X221939D01*
X220273Y-55810D02*
X221939Y-54144D01*
X220273Y-55810D02*
X221939Y-57477D01*
X220273D02*
X221939D01*
X218606Y-59144D02*
X220273Y-57477D01*
X115500Y-99500D02*
X117500Y-105500D01*
X119500Y-99500D01*
X117500Y113173D02*
X119500Y107173D01*
X115500D02*
X117500Y113173D01*
Y-105500D02*
Y-18857D01*
Y23330D02*
Y113173D01*
X88598Y-105500D02*
X118500D01*
X88598Y113173D02*
X118500D01*
X-95276Y-113000D02*
X-89276Y-111000D01*
X-95276Y-113000D02*
X-89276Y-115000D01*
X89276D02*
X95276Y-113000D01*
X89276Y-111000D02*
X95276Y-113000D01*
X-95276D02*
X-22694D01*
X19494D02*
X95276D01*
X-95276Y-114000D02*
Y-98823D01*
X95276Y-114000D02*
Y-98823D01*
X617787Y15856D02*
Y21855D01*
X620786D01*
X621786Y20855D01*
Y18856D01*
X620786Y17856D01*
X617787D01*
X619787D02*
X621786Y15856D01*
X624785D02*
X626784D01*
X627784Y16856D01*
Y18856D01*
X626784Y19855D01*
X624785D01*
X623785Y18856D01*
Y16856D01*
X624785Y15856D01*
X629783Y19855D02*
Y16856D01*
X630783Y15856D01*
X633782D01*
Y19855D01*
X635781Y15856D02*
Y19855D01*
X638780D01*
X639780Y18856D01*
Y15856D01*
X645778Y21855D02*
Y15856D01*
X642779D01*
X641779Y16856D01*
Y18856D01*
X642779Y19855D01*
X645778D01*
X650776Y15856D02*
X648777D01*
X647777Y16856D01*
Y18856D01*
X648777Y19855D01*
X650776D01*
X651776Y18856D01*
Y17856D01*
X647777D01*
X657774Y21855D02*
Y15856D01*
X654775D01*
X653776Y16856D01*
Y18856D01*
X654775Y19855D01*
X657774D01*
X617787Y856D02*
Y6854D01*
X620786D01*
X621786Y5855D01*
Y3855D01*
X620786Y2856D01*
X617787D01*
X619787D02*
X621786Y856D01*
X624785D02*
X626784D01*
X627784Y1856D01*
Y3855D01*
X626784Y4855D01*
X624785D01*
X623785Y3855D01*
Y1856D01*
X624785Y856D01*
X629783Y4855D02*
Y1856D01*
X630783Y856D01*
X633782D01*
Y4855D01*
X635781Y856D02*
Y4855D01*
X638780D01*
X639780Y3855D01*
Y856D01*
X645778Y6854D02*
Y856D01*
X642779D01*
X641779Y1856D01*
Y3855D01*
X642779Y4855D01*
X645778D01*
X650776Y856D02*
X648777D01*
X647777Y1856D01*
Y3855D01*
X648777Y4855D01*
X650776D01*
X651776Y3855D01*
Y2856D01*
X647777D01*
X657774Y6854D02*
Y856D01*
X654775D01*
X653776Y1856D01*
Y3855D01*
X654775Y4855D01*
X657774D01*
X617787Y-14144D02*
Y-8145D01*
X620786D01*
X621786Y-9145D01*
Y-11145D01*
X620786Y-12144D01*
X617787D01*
X619787D02*
X621786Y-14144D01*
X624785D02*
X626784D01*
X627784Y-13144D01*
Y-11145D01*
X626784Y-10145D01*
X624785D01*
X623785Y-11145D01*
Y-13144D01*
X624785Y-14144D01*
X629783Y-10145D02*
Y-13144D01*
X630783Y-14144D01*
X633782D01*
Y-10145D01*
X635781Y-14144D02*
Y-10145D01*
X638780D01*
X639780Y-11145D01*
Y-14144D01*
X645778Y-8145D02*
Y-14144D01*
X642779D01*
X641779Y-13144D01*
Y-11145D01*
X642779Y-10145D01*
X645778D01*
X650776Y-14144D02*
X648777D01*
X647777Y-13144D01*
Y-11145D01*
X648777Y-10145D01*
X650776D01*
X651776Y-11145D01*
Y-12144D01*
X647777D01*
X657774Y-8145D02*
Y-14144D01*
X654775D01*
X653776Y-13144D01*
Y-11145D01*
X654775Y-10145D01*
X657774D01*
X619787Y-29144D02*
X617787Y-27144D01*
Y-25145D01*
X619787Y-23145D01*
X622786Y-29144D02*
Y-23145D01*
X624785Y-25145D01*
X626784Y-23145D01*
Y-29144D01*
X628784D02*
X630783D01*
X629783D01*
Y-25145D01*
X628784D01*
X633782D02*
X637781Y-29144D01*
X635781Y-27144D01*
X637781Y-25145D01*
X633782Y-29144D01*
X642779D02*
X640780D01*
X639780Y-28144D01*
Y-26144D01*
X640780Y-25145D01*
X642779D01*
X643779Y-26144D01*
Y-27144D01*
X639780D01*
X649777Y-23145D02*
Y-29144D01*
X646778D01*
X645778Y-28144D01*
Y-26144D01*
X646778Y-25145D01*
X649777D01*
X651776Y-29144D02*
X653776Y-27144D01*
Y-25145D01*
X651776Y-23145D01*
X619787Y-44144D02*
X617787Y-42144D01*
Y-40145D01*
X619787Y-38146D01*
X622786Y-44144D02*
Y-38146D01*
X624785Y-40145D01*
X626784Y-38146D01*
Y-44144D01*
X628784D02*
X630783D01*
X629783D01*
Y-40145D01*
X628784D01*
X633782D02*
X637781Y-44144D01*
X635781Y-42144D01*
X637781Y-40145D01*
X633782Y-44144D01*
X642779D02*
X640780D01*
X639780Y-43144D01*
Y-41144D01*
X640780Y-40145D01*
X642779D01*
X643779Y-41144D01*
Y-42144D01*
X639780D01*
X649777Y-38146D02*
Y-44144D01*
X646778D01*
X645778Y-43144D01*
Y-41144D01*
X646778Y-40145D01*
X649777D01*
X651776Y-44144D02*
X653776Y-42144D01*
Y-40145D01*
X651776Y-38146D01*
X617787Y-59144D02*
Y-53145D01*
X620786D01*
X621786Y-54145D01*
Y-56144D01*
X620786Y-57144D01*
X617787D01*
X619787D02*
X621786Y-59144D01*
X624785D02*
X626784D01*
X627784Y-58144D01*
Y-56144D01*
X626784Y-55145D01*
X624785D01*
X623785Y-56144D01*
Y-58144D01*
X624785Y-59144D01*
X629783Y-55145D02*
Y-58144D01*
X630783Y-59144D01*
X633782D01*
Y-55145D01*
X635781Y-59144D02*
Y-55145D01*
X638780D01*
X639780Y-56144D01*
Y-59144D01*
X645778Y-53145D02*
Y-59144D01*
X642779D01*
X641779Y-58144D01*
Y-56144D01*
X642779Y-55145D01*
X645778D01*
X650776Y-59144D02*
X648777D01*
X647777Y-58144D01*
Y-56144D01*
X648777Y-55145D01*
X650776D01*
X651776Y-56144D01*
Y-57144D01*
X647777D01*
X657774Y-53145D02*
Y-59144D01*
X654775D01*
X653776Y-58144D01*
Y-56144D01*
X654775Y-55145D01*
X657774D01*
X558802Y21855D02*
Y17856D01*
X560802Y15856D01*
X562801Y17856D01*
Y21855D01*
X564800Y15856D02*
X566800D01*
X565800D01*
Y19855D01*
X564800D01*
X570798D02*
X572798D01*
X573797Y18856D01*
Y15856D01*
X570798D01*
X569799Y16856D01*
X570798Y17856D01*
X573797D01*
X558802Y6854D02*
Y2856D01*
X560802Y856D01*
X562801Y2856D01*
Y6854D01*
X564800Y856D02*
X566800D01*
X565800D01*
Y4855D01*
X564800D01*
X570798D02*
X572798D01*
X573797Y3855D01*
Y856D01*
X570798D01*
X569799Y1856D01*
X570798Y2856D01*
X573797D01*
X558802Y-14144D02*
Y-8145D01*
X561801D01*
X562801Y-9145D01*
Y-11145D01*
X561801Y-12144D01*
X558802D01*
X565800Y-10145D02*
X567799D01*
X568799Y-11145D01*
Y-14144D01*
X565800D01*
X564800Y-13144D01*
X565800Y-12144D01*
X568799D01*
X574797Y-8145D02*
Y-14144D01*
X571798D01*
X570798Y-13144D01*
Y-11145D01*
X571798Y-10145D01*
X574797D01*
X558802Y-29144D02*
Y-23145D01*
X561801D01*
X562801Y-24145D01*
Y-26144D01*
X561801Y-27144D01*
X558802D01*
X565800Y-25145D02*
X567799D01*
X568799Y-26144D01*
Y-29144D01*
X565800D01*
X564800Y-28144D01*
X565800Y-27144D01*
X568799D01*
X574797Y-23145D02*
Y-29144D01*
X571798D01*
X570798Y-28144D01*
Y-26144D01*
X571798Y-25145D01*
X574797D01*
X558802Y-44144D02*
Y-38146D01*
X561801D01*
X562801Y-39145D01*
Y-41144D01*
X561801Y-42144D01*
X558802D01*
X565800Y-40145D02*
X567799D01*
X568799Y-41144D01*
Y-44144D01*
X565800D01*
X564800Y-43144D01*
X565800Y-42144D01*
X568799D01*
X574797Y-38146D02*
Y-44144D01*
X571798D01*
X570798Y-43144D01*
Y-41144D01*
X571798Y-40145D01*
X574797D01*
X558802Y-59144D02*
Y-53145D01*
X561801D01*
X562801Y-54145D01*
Y-56144D01*
X561801Y-57144D01*
X558802D01*
X565800Y-55145D02*
X567799D01*
X568799Y-56144D01*
Y-59144D01*
X565800D01*
X564800Y-58144D01*
X565800Y-57144D01*
X568799D01*
X574797Y-53145D02*
Y-59144D01*
X571798D01*
X570798Y-58144D01*
Y-56144D01*
X571798Y-55145D01*
X574797D01*
X485422Y15856D02*
Y21855D01*
X488421D01*
X489421Y20855D01*
Y18856D01*
X488421Y17856D01*
X485422D01*
X487421D02*
X489421Y15856D01*
X492420D02*
X494419D01*
X495419Y16856D01*
Y18856D01*
X494419Y19855D01*
X492420D01*
X491420Y18856D01*
Y16856D01*
X492420Y15856D01*
X497418Y19855D02*
Y16856D01*
X498418Y15856D01*
X501417D01*
Y19855D01*
X503416Y15856D02*
Y19855D01*
X506415D01*
X507415Y18856D01*
Y15856D01*
X513413Y21855D02*
Y15856D01*
X510414D01*
X509414Y16856D01*
Y18856D01*
X510414Y19855D01*
X513413D01*
X485422Y856D02*
Y6854D01*
X488421D01*
X489421Y5855D01*
Y3855D01*
X488421Y2856D01*
X485422D01*
X487421D02*
X489421Y856D01*
X492420D02*
X494419D01*
X495419Y1856D01*
Y3855D01*
X494419Y4855D01*
X492420D01*
X491420Y3855D01*
Y1856D01*
X492420Y856D01*
X497418Y4855D02*
Y1856D01*
X498418Y856D01*
X501417D01*
Y4855D01*
X503416Y856D02*
Y4855D01*
X506415D01*
X507415Y3855D01*
Y856D01*
X513413Y6854D02*
Y856D01*
X510414D01*
X509414Y1856D01*
Y3855D01*
X510414Y4855D01*
X513413D01*
X485422Y-14144D02*
Y-8145D01*
X488421D01*
X489421Y-9145D01*
Y-11145D01*
X488421Y-12144D01*
X485422D01*
X487421D02*
X489421Y-14144D01*
X492420D02*
X494419D01*
X495419Y-13144D01*
Y-11145D01*
X494419Y-10145D01*
X492420D01*
X491420Y-11145D01*
Y-13144D01*
X492420Y-14144D01*
X497418Y-10145D02*
Y-13144D01*
X498418Y-14144D01*
X501417D01*
Y-10145D01*
X503416Y-14144D02*
Y-10145D01*
X506415D01*
X507415Y-11145D01*
Y-14144D01*
X513413Y-8145D02*
Y-14144D01*
X510414D01*
X509414Y-13144D01*
Y-11145D01*
X510414Y-10145D01*
X513413D01*
X485422Y-29144D02*
Y-23145D01*
X488421D01*
X489421Y-24145D01*
Y-26144D01*
X488421Y-27144D01*
X485422D01*
X487421D02*
X489421Y-29144D01*
X492420D02*
X494419D01*
X495419Y-28144D01*
Y-26144D01*
X494419Y-25145D01*
X492420D01*
X491420Y-26144D01*
Y-28144D01*
X492420Y-29144D01*
X497418Y-25145D02*
Y-28144D01*
X498418Y-29144D01*
X501417D01*
Y-25145D01*
X503416Y-29144D02*
Y-25145D01*
X506415D01*
X507415Y-26144D01*
Y-29144D01*
X513413Y-23145D02*
Y-29144D01*
X510414D01*
X509414Y-28144D01*
Y-26144D01*
X510414Y-25145D01*
X513413D01*
X485422Y-44144D02*
Y-38146D01*
X488421D01*
X489421Y-39145D01*
Y-41144D01*
X488421Y-42144D01*
X485422D01*
X487421D02*
X489421Y-44144D01*
X492420D02*
X494419D01*
X495419Y-43144D01*
Y-41144D01*
X494419Y-40145D01*
X492420D01*
X491420Y-41144D01*
Y-43144D01*
X492420Y-44144D01*
X497418Y-40145D02*
Y-43144D01*
X498418Y-44144D01*
X501417D01*
Y-40145D01*
X503416Y-44144D02*
Y-40145D01*
X506415D01*
X507415Y-41144D01*
Y-44144D01*
X513413Y-38146D02*
Y-44144D01*
X510414D01*
X509414Y-43144D01*
Y-41144D01*
X510414Y-40145D01*
X513413D01*
X485422Y-59144D02*
Y-53145D01*
X488421D01*
X489421Y-54145D01*
Y-56144D01*
X488421Y-57144D01*
X485422D01*
X487421D02*
X489421Y-59144D01*
X492420D02*
X494419D01*
X495419Y-58144D01*
Y-56144D01*
X494419Y-55145D01*
X492420D01*
X491420Y-56144D01*
Y-58144D01*
X492420Y-59144D01*
X497418Y-55145D02*
Y-58144D01*
X498418Y-59144D01*
X501417D01*
Y-55145D01*
X503416Y-59144D02*
Y-55145D01*
X506415D01*
X507415Y-56144D01*
Y-59144D01*
X513413Y-53145D02*
Y-59144D01*
X510414D01*
X509414Y-58144D01*
Y-56144D01*
X510414Y-55145D01*
X513413D01*
X434834Y15856D02*
Y21855D01*
X437833D01*
X438833Y20855D01*
Y18856D01*
X437833Y17856D01*
X434834D01*
X440833Y21855D02*
X444831D01*
X442832D01*
Y15856D01*
X446831Y21855D02*
Y15856D01*
Y18856D01*
X450829D01*
Y21855D01*
Y15856D01*
X434834Y856D02*
Y6854D01*
X437833D01*
X438833Y5855D01*
Y3855D01*
X437833Y2856D01*
X434834D01*
X440833Y6854D02*
X444831D01*
X442832D01*
Y856D01*
X446831Y6854D02*
Y856D01*
Y3855D01*
X450829D01*
Y6854D01*
Y856D01*
X434834Y-14144D02*
Y-8145D01*
X437833D01*
X438833Y-9145D01*
Y-11145D01*
X437833Y-12144D01*
X434834D01*
X440833Y-8145D02*
X444831D01*
X442832D01*
Y-14144D01*
X446831Y-8145D02*
Y-14144D01*
Y-11145D01*
X450829D01*
Y-8145D01*
Y-14144D01*
X434834Y-29144D02*
Y-23145D01*
X437833D01*
X438833Y-24145D01*
Y-26144D01*
X437833Y-27144D01*
X434834D01*
X440833Y-23145D02*
X444831D01*
X442832D01*
Y-29144D01*
X446831Y-23145D02*
Y-29144D01*
Y-26144D01*
X450829D01*
Y-23145D01*
Y-29144D01*
X434834Y-44144D02*
Y-38146D01*
X437833D01*
X438833Y-39145D01*
Y-41144D01*
X437833Y-42144D01*
X434834D01*
X440833Y-38146D02*
X444831D01*
X442832D01*
Y-44144D01*
X446831Y-38146D02*
Y-44144D01*
Y-41144D01*
X450829D01*
Y-38146D01*
Y-44144D01*
X434834Y-59144D02*
Y-53145D01*
X438833Y-59144D01*
Y-53145D01*
X440833Y-59144D02*
Y-53145D01*
X443832D01*
X444831Y-54145D01*
Y-56144D01*
X443832Y-57144D01*
X440833D01*
X446831Y-53145D02*
X450829D01*
X448830D01*
Y-59144D01*
X452829Y-53145D02*
Y-59144D01*
Y-56144D01*
X456827D01*
Y-53145D01*
Y-59144D01*
X322867Y20855D02*
X323867Y21855D01*
X325866D01*
X326866Y20855D01*
Y16856D01*
X325866Y15856D01*
X323867D01*
X322867Y16856D01*
Y20855D01*
X328865Y15856D02*
Y16856D01*
X329865D01*
Y15856D01*
X328865D01*
X336863D02*
Y21855D01*
X333864Y18856D01*
X337862D01*
X339862Y20855D02*
X340861Y21855D01*
X342861D01*
X343860Y20855D01*
Y16856D01*
X342861Y15856D01*
X340861D01*
X339862Y16856D01*
Y20855D01*
X345860D02*
X346859Y21855D01*
X348859D01*
X349858Y20855D01*
Y16856D01*
X348859Y15856D01*
X346859D01*
X345860Y16856D01*
Y20855D01*
X351858Y15856D02*
Y19855D01*
X352857D01*
X353857Y18856D01*
Y15856D01*
Y18856D01*
X354857Y19855D01*
X355856Y18856D01*
Y15856D01*
X357856D02*
Y19855D01*
X358856D01*
X359855Y18856D01*
Y15856D01*
Y18856D01*
X360855Y19855D01*
X361855Y18856D01*
Y15856D01*
X371851D02*
X369852Y17856D01*
Y19855D01*
X371851Y21855D01*
X374850Y15856D02*
X376850D01*
X375850D01*
Y21855D01*
X374850Y20855D01*
X383847Y21855D02*
X379849D01*
Y18856D01*
X381848Y19855D01*
X382848D01*
X383847Y18856D01*
Y16856D01*
X382848Y15856D01*
X380848D01*
X379849Y16856D01*
X385847Y15856D02*
Y16856D01*
X386846D01*
Y15856D01*
X385847D01*
X390845Y21855D02*
X394844D01*
Y20855D01*
X390845Y16856D01*
Y15856D01*
X400842Y21855D02*
X396843D01*
Y18856D01*
X398843Y19855D01*
X399842D01*
X400842Y18856D01*
Y16856D01*
X399842Y15856D01*
X397843D01*
X396843Y16856D01*
X402841Y15856D02*
Y19855D01*
X403841D01*
X404841Y18856D01*
Y15856D01*
Y18856D01*
X405840Y19855D01*
X406840Y18856D01*
Y15856D01*
X408839D02*
X410839D01*
X409839D01*
Y19855D01*
X408839D01*
X413838Y15856D02*
X415837D01*
X414837D01*
Y21855D01*
X413838D01*
X418836Y15856D02*
X420835Y17856D01*
Y19855D01*
X418836Y21855D01*
X322867Y5855D02*
X323867Y6854D01*
X325866D01*
X326866Y5855D01*
Y1856D01*
X325866Y856D01*
X323867D01*
X322867Y1856D01*
Y5855D01*
X328865Y856D02*
Y1856D01*
X329865D01*
Y856D01*
X328865D01*
X337862Y6854D02*
X335863Y5855D01*
X333864Y3855D01*
Y1856D01*
X334863Y856D01*
X336863D01*
X337862Y1856D01*
Y2856D01*
X336863Y3855D01*
X333864D01*
X339862Y5855D02*
X340861Y6854D01*
X342861D01*
X343860Y5855D01*
Y1856D01*
X342861Y856D01*
X340861D01*
X339862Y1856D01*
Y5855D01*
X345860D02*
X346859Y6854D01*
X348859D01*
X349858Y5855D01*
Y1856D01*
X348859Y856D01*
X346859D01*
X345860Y1856D01*
Y5855D01*
X351858Y856D02*
Y4855D01*
X352857D01*
X353857Y3855D01*
Y856D01*
Y3855D01*
X354857Y4855D01*
X355856Y3855D01*
Y856D01*
X357856D02*
Y4855D01*
X358856D01*
X359855Y3855D01*
Y856D01*
Y3855D01*
X360855Y4855D01*
X361855Y3855D01*
Y856D01*
X371851D02*
X369852Y2856D01*
Y4855D01*
X371851Y6854D01*
X378849Y856D02*
X374850D01*
X378849Y4855D01*
Y5855D01*
X377849Y6854D01*
X375850D01*
X374850Y5855D01*
X380848D02*
X381848Y6854D01*
X383847D01*
X384847Y5855D01*
Y4855D01*
X383847Y3855D01*
X382848D01*
X383847D01*
X384847Y2856D01*
Y1856D01*
X383847Y856D01*
X381848D01*
X380848Y1856D01*
X386846Y856D02*
Y1856D01*
X387846D01*
Y856D01*
X386846D01*
X395844Y6854D02*
X393844Y5855D01*
X391845Y3855D01*
Y1856D01*
X392845Y856D01*
X394844D01*
X395844Y1856D01*
Y2856D01*
X394844Y3855D01*
X391845D01*
X401842Y856D02*
X397843D01*
X401842Y4855D01*
Y5855D01*
X400842Y6854D01*
X398843D01*
X397843Y5855D01*
X403841Y856D02*
Y4855D01*
X404841D01*
X405840Y3855D01*
Y856D01*
Y3855D01*
X406840Y4855D01*
X407840Y3855D01*
Y856D01*
X409839D02*
X411838D01*
X410839D01*
Y4855D01*
X409839D01*
X414837Y856D02*
X416837D01*
X415837D01*
Y6854D01*
X414837D01*
X419836Y856D02*
X421835Y2856D01*
Y4855D01*
X419836Y6854D01*
X322867Y-9145D02*
X323867Y-8145D01*
X325866D01*
X326866Y-9145D01*
Y-13144D01*
X325866Y-14144D01*
X323867D01*
X322867Y-13144D01*
Y-9145D01*
X328865Y-14144D02*
Y-13144D01*
X329865D01*
Y-14144D01*
X328865D01*
X333864Y-8145D02*
X337862D01*
Y-9145D01*
X333864Y-13144D01*
Y-14144D01*
X343860Y-8145D02*
X341861Y-9145D01*
X339862Y-11145D01*
Y-13144D01*
X340861Y-14144D01*
X342861D01*
X343860Y-13144D01*
Y-12144D01*
X342861Y-11145D01*
X339862D01*
X349858Y-14144D02*
X345860D01*
X349858Y-10145D01*
Y-9145D01*
X348859Y-8145D01*
X346859D01*
X345860Y-9145D01*
X351858Y-14144D02*
Y-10145D01*
X352857D01*
X353857Y-11145D01*
Y-14144D01*
Y-11145D01*
X354857Y-10145D01*
X355856Y-11145D01*
Y-14144D01*
X357856D02*
Y-10145D01*
X358856D01*
X359855Y-11145D01*
Y-14144D01*
Y-11145D01*
X360855Y-10145D01*
X361855Y-11145D01*
Y-14144D01*
X371851D02*
X369852Y-12144D01*
Y-10145D01*
X371851Y-8145D01*
X374850Y-9145D02*
X375850Y-8145D01*
X377849D01*
X378849Y-9145D01*
Y-10145D01*
X377849Y-11145D01*
X376850D01*
X377849D01*
X378849Y-12144D01*
Y-13144D01*
X377849Y-14144D01*
X375850D01*
X374850Y-13144D01*
X380848Y-9145D02*
X381848Y-8145D01*
X383847D01*
X384847Y-9145D01*
Y-13144D01*
X383847Y-14144D01*
X381848D01*
X380848Y-13144D01*
Y-9145D01*
X386846Y-14144D02*
Y-13144D01*
X387846D01*
Y-14144D01*
X386846D01*
X391845Y-9145D02*
X392845Y-8145D01*
X394844D01*
X395844Y-9145D01*
Y-13144D01*
X394844Y-14144D01*
X392845D01*
X391845Y-13144D01*
Y-9145D01*
X397843D02*
X398843Y-8145D01*
X400842D01*
X401842Y-9145D01*
Y-13144D01*
X400842Y-14144D01*
X398843D01*
X397843Y-13144D01*
Y-9145D01*
X403841Y-14144D02*
Y-10145D01*
X404841D01*
X405840Y-11145D01*
Y-14144D01*
Y-11145D01*
X406840Y-10145D01*
X407840Y-11145D01*
Y-14144D01*
X409839D02*
X411838D01*
X410839D01*
Y-10145D01*
X409839D01*
X414837Y-14144D02*
X416837D01*
X415837D01*
Y-8145D01*
X414837D01*
X419836Y-14144D02*
X421835Y-12144D01*
Y-10145D01*
X419836Y-8145D01*
X322867Y-24145D02*
X323867Y-23145D01*
X325866D01*
X326866Y-24145D01*
Y-28144D01*
X325866Y-29144D01*
X323867D01*
X322867Y-28144D01*
Y-24145D01*
X328865Y-29144D02*
Y-28144D01*
X329865D01*
Y-29144D01*
X328865D01*
X333864Y-24145D02*
X334863Y-23145D01*
X336863D01*
X337862Y-24145D01*
Y-25145D01*
X336863Y-26144D01*
X337862Y-27144D01*
Y-28144D01*
X336863Y-29144D01*
X334863D01*
X333864Y-28144D01*
Y-27144D01*
X334863Y-26144D01*
X333864Y-25145D01*
Y-24145D01*
X334863Y-26144D02*
X336863D01*
X339862Y-24145D02*
X340861Y-23145D01*
X342861D01*
X343860Y-24145D01*
Y-28144D01*
X342861Y-29144D01*
X340861D01*
X339862Y-28144D01*
Y-24145D01*
X345860D02*
X346859Y-23145D01*
X348859D01*
X349858Y-24145D01*
Y-28144D01*
X348859Y-29144D01*
X346859D01*
X345860Y-28144D01*
Y-24145D01*
X351858Y-29144D02*
Y-25145D01*
X352857D01*
X353857Y-26144D01*
Y-29144D01*
Y-26144D01*
X354857Y-25145D01*
X355856Y-26144D01*
Y-29144D01*
X357856D02*
Y-25145D01*
X358856D01*
X359855Y-26144D01*
Y-29144D01*
Y-26144D01*
X360855Y-25145D01*
X361855Y-26144D01*
Y-29144D01*
X371851D02*
X369852Y-27144D01*
Y-25145D01*
X371851Y-23145D01*
X374850Y-24145D02*
X375850Y-23145D01*
X377849D01*
X378849Y-24145D01*
Y-25145D01*
X377849Y-26144D01*
X376850D01*
X377849D01*
X378849Y-27144D01*
Y-28144D01*
X377849Y-29144D01*
X375850D01*
X374850Y-28144D01*
X380848Y-29144D02*
X382848D01*
X381848D01*
Y-23145D01*
X380848Y-24145D01*
X385847Y-29144D02*
Y-28144D01*
X386846D01*
Y-29144D01*
X385847D01*
X394844Y-23145D02*
X390845D01*
Y-26144D01*
X392845Y-25145D01*
X393844D01*
X394844Y-26144D01*
Y-28144D01*
X393844Y-29144D01*
X391845D01*
X390845Y-28144D01*
X396843Y-24145D02*
X397843Y-23145D01*
X399842D01*
X400842Y-24145D01*
Y-28144D01*
X399842Y-29144D01*
X397843D01*
X396843Y-28144D01*
Y-24145D01*
X402841Y-29144D02*
Y-25145D01*
X403841D01*
X404841Y-26144D01*
Y-29144D01*
Y-26144D01*
X405840Y-25145D01*
X406840Y-26144D01*
Y-29144D01*
X408839D02*
X410839D01*
X409839D01*
Y-25145D01*
X408839D01*
X413838Y-29144D02*
X415837D01*
X414837D01*
Y-23145D01*
X413838D01*
X418836Y-29144D02*
X420835Y-27144D01*
Y-25145D01*
X418836Y-23145D01*
X322867Y-39145D02*
X323867Y-38146D01*
X325866D01*
X326866Y-39145D01*
Y-43144D01*
X325866Y-44144D01*
X323867D01*
X322867Y-43144D01*
Y-39145D01*
X328865Y-44144D02*
Y-43144D01*
X329865D01*
Y-44144D01*
X328865D01*
X333864Y-43144D02*
X334863Y-44144D01*
X336863D01*
X337862Y-43144D01*
Y-39145D01*
X336863Y-38146D01*
X334863D01*
X333864Y-39145D01*
Y-40145D01*
X334863Y-41144D01*
X337862D01*
X339862Y-39145D02*
X340861Y-38146D01*
X342861D01*
X343860Y-39145D01*
Y-43144D01*
X342861Y-44144D01*
X340861D01*
X339862Y-43144D01*
Y-39145D01*
X345860D02*
X346859Y-38146D01*
X348859D01*
X349858Y-39145D01*
Y-43144D01*
X348859Y-44144D01*
X346859D01*
X345860Y-43144D01*
Y-39145D01*
X351858Y-44144D02*
Y-40145D01*
X352857D01*
X353857Y-41144D01*
Y-44144D01*
Y-41144D01*
X354857Y-40145D01*
X355856Y-41144D01*
Y-44144D01*
X357856D02*
Y-40145D01*
X358856D01*
X359855Y-41144D01*
Y-44144D01*
Y-41144D01*
X360855Y-40145D01*
X361855Y-41144D01*
Y-44144D01*
X371851D02*
X369852Y-42144D01*
Y-40145D01*
X371851Y-38146D01*
X374850Y-39145D02*
X375850Y-38146D01*
X377849D01*
X378849Y-39145D01*
Y-40145D01*
X377849Y-41144D01*
X376850D01*
X377849D01*
X378849Y-42144D01*
Y-43144D01*
X377849Y-44144D01*
X375850D01*
X374850Y-43144D01*
X384847Y-38146D02*
X380848D01*
Y-41144D01*
X382848Y-40145D01*
X383847D01*
X384847Y-41144D01*
Y-43144D01*
X383847Y-44144D01*
X381848D01*
X380848Y-43144D01*
X386846Y-44144D02*
Y-43144D01*
X387846D01*
Y-44144D01*
X386846D01*
X394844D02*
Y-38146D01*
X391845Y-41144D01*
X395844D01*
X397843Y-39145D02*
X398843Y-38146D01*
X400842D01*
X401842Y-39145D01*
Y-40145D01*
X400842Y-41144D01*
X399842D01*
X400842D01*
X401842Y-42144D01*
Y-43144D01*
X400842Y-44144D01*
X398843D01*
X397843Y-43144D01*
X403841Y-44144D02*
Y-40145D01*
X404841D01*
X405840Y-41144D01*
Y-44144D01*
Y-41144D01*
X406840Y-40145D01*
X407840Y-41144D01*
Y-44144D01*
X409839D02*
X411838D01*
X410839D01*
Y-40145D01*
X409839D01*
X414837Y-44144D02*
X416837D01*
X415837D01*
Y-38146D01*
X414837D01*
X419836Y-44144D02*
X421835Y-42144D01*
Y-40145D01*
X419836Y-38146D01*
X322867Y-54145D02*
X323867Y-53145D01*
X325866D01*
X326866Y-54145D01*
Y-55145D01*
X325866Y-56144D01*
X324867D01*
X325866D01*
X326866Y-57144D01*
Y-58144D01*
X325866Y-59144D01*
X323867D01*
X322867Y-58144D01*
X328865Y-59144D02*
Y-58144D01*
X329865D01*
Y-59144D01*
X328865D01*
X333864Y-54145D02*
X334863Y-53145D01*
X336863D01*
X337862Y-54145D01*
Y-58144D01*
X336863Y-59144D01*
X334863D01*
X333864Y-58144D01*
Y-54145D01*
X339862D02*
X340861Y-53145D01*
X342861D01*
X343860Y-54145D01*
Y-58144D01*
X342861Y-59144D01*
X340861D01*
X339862Y-58144D01*
Y-54145D01*
X345860D02*
X346859Y-53145D01*
X348859D01*
X349858Y-54145D01*
Y-58144D01*
X348859Y-59144D01*
X346859D01*
X345860Y-58144D01*
Y-54145D01*
X351858Y-59144D02*
Y-55145D01*
X352857D01*
X353857Y-56144D01*
Y-59144D01*
Y-56144D01*
X354857Y-55145D01*
X355856Y-56144D01*
Y-59144D01*
X357856D02*
Y-55145D01*
X358856D01*
X359855Y-56144D01*
Y-59144D01*
Y-56144D01*
X360855Y-55145D01*
X361855Y-56144D01*
Y-59144D01*
X371851D02*
X369852Y-57144D01*
Y-55145D01*
X371851Y-53145D01*
X374850Y-59144D02*
X376850D01*
X375850D01*
Y-53145D01*
X374850Y-54145D01*
X379849Y-59144D02*
X381848D01*
X380848D01*
Y-53145D01*
X379849Y-54145D01*
X384847D02*
X385847Y-53145D01*
X387846D01*
X388846Y-54145D01*
Y-55145D01*
X387846Y-56144D01*
X388846Y-57144D01*
Y-58144D01*
X387846Y-59144D01*
X385847D01*
X384847Y-58144D01*
Y-57144D01*
X385847Y-56144D01*
X384847Y-55145D01*
Y-54145D01*
X385847Y-56144D02*
X387846D01*
X390845Y-59144D02*
Y-58144D01*
X391845D01*
Y-59144D01*
X390845D01*
X395844D02*
X397843D01*
X396843D01*
Y-53145D01*
X395844Y-54145D01*
X400842Y-59144D02*
X402841D01*
X401842D01*
Y-53145D01*
X400842Y-54145D01*
X405840Y-59144D02*
Y-55145D01*
X406840D01*
X407840Y-56144D01*
Y-59144D01*
Y-56144D01*
X408839Y-55145D01*
X409839Y-56144D01*
Y-59144D01*
X411838D02*
X413838D01*
X412838D01*
Y-55145D01*
X411838D01*
X416837Y-59144D02*
X418836D01*
X417836D01*
Y-53145D01*
X416837D01*
X421835Y-59144D02*
X423835Y-57144D01*
Y-55145D01*
X421835Y-53145D01*
X268881Y-68146D02*
X272880D01*
Y-69145D01*
X268881Y-73144D01*
Y-74144D01*
X278878Y-68146D02*
X274879D01*
Y-71144D01*
X276878Y-70145D01*
X277878D01*
X278878Y-71144D01*
Y-73144D01*
X277878Y-74144D01*
X275879D01*
X274879Y-73144D01*
X286875Y-68146D02*
X290874D01*
X288875D01*
Y-74144D01*
X293873D02*
X295872D01*
X296872Y-73144D01*
Y-71144D01*
X295872Y-70145D01*
X293873D01*
X292873Y-71144D01*
Y-73144D01*
X293873Y-74144D01*
X299871Y-69145D02*
Y-70145D01*
X298871D01*
X300871D01*
X299871D01*
Y-73144D01*
X300871Y-74144D01*
X304869Y-70145D02*
X306869D01*
X307869Y-71144D01*
Y-74144D01*
X304869D01*
X303870Y-73144D01*
X304869Y-72144D01*
X307869D01*
X309868Y-74144D02*
X311867D01*
X310868D01*
Y-68146D01*
X309868D01*
X268881Y20855D02*
X269881Y21855D01*
X271880D01*
X272880Y20855D01*
Y19855D01*
X271880Y18856D01*
X270880D01*
X271880D01*
X272880Y17856D01*
Y16856D01*
X271880Y15856D01*
X269881D01*
X268881Y16856D01*
X277878Y15856D02*
Y21855D01*
X274879Y18856D01*
X278878D01*
X272880Y6854D02*
X270880Y5855D01*
X268881Y3855D01*
Y1856D01*
X269881Y856D01*
X271880D01*
X272880Y1856D01*
Y2856D01*
X271880Y3855D01*
X268881D01*
X272880Y-14144D02*
X268881D01*
X272880Y-10145D01*
Y-9145D01*
X271880Y-8145D01*
X269881D01*
X268881Y-9145D01*
X271880Y-29144D02*
Y-23145D01*
X268881Y-26144D01*
X272880D01*
Y-44144D02*
X268881D01*
X272880Y-40145D01*
Y-39145D01*
X271880Y-38146D01*
X269881D01*
X268881Y-39145D01*
X278878Y-38146D02*
X274879D01*
Y-41144D01*
X276878Y-40145D01*
X277878D01*
X278878Y-41144D01*
Y-43144D01*
X277878Y-44144D01*
X275879D01*
X274879Y-43144D01*
X271880Y-59144D02*
Y-53145D01*
X268881Y-56144D01*
X272880D01*
X215558Y138998D02*
Y133000D01*
X219556D01*
X222555Y136999D02*
X224555D01*
X225554Y135999D01*
Y133000D01*
X222555D01*
X221556Y134000D01*
X222555Y134999D01*
X225554D01*
X227554Y136999D02*
Y134000D01*
X228553Y133000D01*
X231552D01*
Y132000D01*
X230553Y131001D01*
X229553D01*
X231552Y133000D02*
Y136999D01*
X236551Y133000D02*
X234551D01*
X233552Y134000D01*
Y135999D01*
X234551Y136999D01*
X236551D01*
X237550Y135999D01*
Y134999D01*
X233552D01*
X239550Y136999D02*
Y133000D01*
Y134999D01*
X240549Y135999D01*
X241549Y136999D01*
X242549D01*
X219556Y73000D02*
X215558D01*
X219556Y76999D01*
Y77998D01*
X218557Y78998D01*
X216557D01*
X215558Y77998D01*
Y97000D02*
X217557D01*
X216557D01*
Y102998D01*
X215558Y101998D01*
X256549Y133000D02*
Y138998D01*
X260548Y133000D01*
Y138998D01*
X263547Y136999D02*
X265546D01*
X266546Y135999D01*
Y133000D01*
X263547D01*
X262547Y134000D01*
X263547Y134999D01*
X266546D01*
X268545Y133000D02*
Y136999D01*
X269545D01*
X270544Y135999D01*
Y133000D01*
Y135999D01*
X271544Y136999D01*
X272544Y135999D01*
Y133000D01*
X277542D02*
X275543D01*
X274543Y134000D01*
Y135999D01*
X275543Y136999D01*
X277542D01*
X278542Y135999D01*
Y134999D01*
X274543D01*
X256549Y54998D02*
Y49000D01*
X259548D01*
X260548Y50000D01*
Y50999D01*
X259548Y51999D01*
X256549D01*
X259548D01*
X260548Y52999D01*
Y53998D01*
X259548Y54998D01*
X256549D01*
X263547Y49000D02*
X265546D01*
X266546Y50000D01*
Y51999D01*
X265546Y52999D01*
X263547D01*
X262547Y51999D01*
Y50000D01*
X263547Y49000D01*
X269545Y53998D02*
Y52999D01*
X268545D01*
X270544D01*
X269545D01*
Y50000D01*
X270544Y49000D01*
X274543Y53998D02*
Y52999D01*
X273543D01*
X275543D01*
X274543D01*
Y50000D01*
X275543Y49000D01*
X279541D02*
X281541D01*
X282540Y50000D01*
Y51999D01*
X281541Y52999D01*
X279541D01*
X278542Y51999D01*
Y50000D01*
X279541Y49000D01*
X284540D02*
Y52999D01*
X285540D01*
X286539Y51999D01*
Y49000D01*
Y51999D01*
X287539Y52999D01*
X288539Y51999D01*
Y49000D01*
X299535Y54998D02*
X297536D01*
X296536Y53998D01*
Y50000D01*
X297536Y49000D01*
X299535D01*
X300535Y50000D01*
Y53998D01*
X299535Y54998D01*
X302534Y52999D02*
X304533Y49000D01*
X306533Y52999D01*
X311531Y49000D02*
X309532D01*
X308532Y50000D01*
Y51999D01*
X309532Y52999D01*
X311531D01*
X312531Y51999D01*
Y50999D01*
X308532D01*
X314530Y52999D02*
Y49000D01*
Y50999D01*
X315530Y51999D01*
X316529Y52999D01*
X317529D01*
X320528Y49000D02*
X322528D01*
X321528D01*
Y54998D01*
X320528D01*
X326526Y52999D02*
X328526D01*
X329525Y51999D01*
Y49000D01*
X326526D01*
X325526Y50000D01*
X326526Y50999D01*
X329525D01*
X331525Y52999D02*
Y50000D01*
X332524Y49000D01*
X335523D01*
Y48000D01*
X334524Y47001D01*
X333524D01*
X335523Y49000D02*
Y52999D01*
X256549Y66998D02*
Y61000D01*
X259548D01*
X260548Y62000D01*
Y62999D01*
X259548Y63999D01*
X256549D01*
X259548D01*
X260548Y64999D01*
Y65998D01*
X259548Y66998D01*
X256549D01*
X263547Y61000D02*
X265546D01*
X266546Y62000D01*
Y63999D01*
X265546Y64999D01*
X263547D01*
X262547Y63999D01*
Y62000D01*
X263547Y61000D01*
X269545Y65998D02*
Y64999D01*
X268545D01*
X270544D01*
X269545D01*
Y62000D01*
X270544Y61000D01*
X274543Y65998D02*
Y64999D01*
X273543D01*
X275543D01*
X274543D01*
Y62000D01*
X275543Y61000D01*
X279541D02*
X281541D01*
X282540Y62000D01*
Y63999D01*
X281541Y64999D01*
X279541D01*
X278542Y63999D01*
Y62000D01*
X279541Y61000D01*
X284540D02*
Y64999D01*
X285540D01*
X286539Y63999D01*
Y61000D01*
Y63999D01*
X287539Y64999D01*
X288539Y63999D01*
Y61000D01*
X300535Y65998D02*
X299535Y66998D01*
X297536D01*
X296536Y65998D01*
Y64999D01*
X297536Y63999D01*
X299535D01*
X300535Y62999D01*
Y62000D01*
X299535Y61000D01*
X297536D01*
X296536Y62000D01*
X303534Y61000D02*
X305533D01*
X306533Y62000D01*
Y63999D01*
X305533Y64999D01*
X303534D01*
X302534Y63999D01*
Y62000D01*
X303534Y61000D01*
X308532D02*
X310531D01*
X309532D01*
Y66998D01*
X308532D01*
X317529D02*
Y61000D01*
X314530D01*
X313530Y62000D01*
Y63999D01*
X314530Y64999D01*
X317529D01*
X322528Y61000D02*
X320528D01*
X319529Y62000D01*
Y63999D01*
X320528Y64999D01*
X322528D01*
X323527Y63999D01*
Y62999D01*
X319529D01*
X325526Y64999D02*
Y61000D01*
Y62999D01*
X326526Y63999D01*
X327526Y64999D01*
X328526D01*
X256549Y78998D02*
Y73000D01*
X259548D01*
X260548Y74000D01*
Y74999D01*
X259548Y75999D01*
X256549D01*
X259548D01*
X260548Y76999D01*
Y77998D01*
X259548Y78998D01*
X256549D01*
X263547Y73000D02*
X265546D01*
X266546Y74000D01*
Y75999D01*
X265546Y76999D01*
X263547D01*
X262547Y75999D01*
Y74000D01*
X263547Y73000D01*
X269545Y77998D02*
Y76999D01*
X268545D01*
X270544D01*
X269545D01*
Y74000D01*
X270544Y73000D01*
X274543Y77998D02*
Y76999D01*
X273543D01*
X275543D01*
X274543D01*
Y74000D01*
X275543Y73000D01*
X279541D02*
X281541D01*
X282540Y74000D01*
Y75999D01*
X281541Y76999D01*
X279541D01*
X278542Y75999D01*
Y74000D01*
X279541Y73000D01*
X284540D02*
Y76999D01*
X285540D01*
X286539Y75999D01*
Y73000D01*
Y75999D01*
X287539Y76999D01*
X288539Y75999D01*
Y73000D01*
X296536Y78998D02*
Y73000D01*
X300535D01*
X303534Y76999D02*
X305533D01*
X306533Y75999D01*
Y73000D01*
X303534D01*
X302534Y74000D01*
X303534Y74999D01*
X306533D01*
X308532Y76999D02*
Y74000D01*
X309532Y73000D01*
X312531D01*
Y72000D01*
X311531Y71001D01*
X310531D01*
X312531Y73000D02*
Y76999D01*
X317529Y73000D02*
X315530D01*
X314530Y74000D01*
Y75999D01*
X315530Y76999D01*
X317529D01*
X318529Y75999D01*
Y74999D01*
X314530D01*
X320528Y76999D02*
Y73000D01*
Y74999D01*
X321528Y75999D01*
X322528Y76999D01*
X323527D01*
X256549Y90998D02*
Y85000D01*
X259548D01*
X260548Y86000D01*
Y89998D01*
X259548Y90998D01*
X256549D01*
X262547Y85000D02*
X264546D01*
X263547D01*
Y88999D01*
X262547D01*
X270544Y85000D02*
X268545D01*
X267545Y86000D01*
Y87999D01*
X268545Y88999D01*
X270544D01*
X271544Y87999D01*
Y86999D01*
X267545D01*
X273543Y85000D02*
X275543D01*
X274543D01*
Y90998D01*
X273543D01*
X281541Y85000D02*
X279541D01*
X278542Y86000D01*
Y87999D01*
X279541Y88999D01*
X281541D01*
X282540Y87999D01*
Y86999D01*
X278542D01*
X288539Y88999D02*
X285540D01*
X284540Y87999D01*
Y86000D01*
X285540Y85000D01*
X288539D01*
X291537Y89998D02*
Y88999D01*
X290538D01*
X292537D01*
X291537D01*
Y86000D01*
X292537Y85000D01*
X295536Y88999D02*
Y85000D01*
Y86999D01*
X296536Y87999D01*
X297536Y88999D01*
X298535D01*
X301534Y85000D02*
X303534D01*
X302534D01*
Y88999D01*
X301534D01*
X310531D02*
X307532D01*
X306533Y87999D01*
Y86000D01*
X307532Y85000D01*
X310531D01*
X318529D02*
X320528D01*
X319529D01*
Y90998D01*
X318529Y89998D01*
X256549Y102998D02*
X260548D01*
X258548D01*
Y97000D01*
X263547D02*
X265546D01*
X266546Y98000D01*
Y99999D01*
X265546Y100999D01*
X263547D01*
X262547Y99999D01*
Y98000D01*
X263547Y97000D01*
X268545Y95001D02*
Y100999D01*
X271544D01*
X272544Y99999D01*
Y98000D01*
X271544Y97000D01*
X268545D01*
X280541Y102998D02*
Y97000D01*
X284540D01*
X287539Y100999D02*
X289538D01*
X290538Y99999D01*
Y97000D01*
X287539D01*
X286539Y98000D01*
X287539Y98999D01*
X290538D01*
X292537Y100999D02*
Y98000D01*
X293537Y97000D01*
X296536D01*
Y96000D01*
X295536Y95001D01*
X294536D01*
X296536Y97000D02*
Y100999D01*
X301534Y97000D02*
X299535D01*
X298535Y98000D01*
Y99999D01*
X299535Y100999D01*
X301534D01*
X302534Y99999D01*
Y98999D01*
X298535D01*
X304533Y100999D02*
Y97000D01*
Y98999D01*
X305533Y99999D01*
X306533Y100999D01*
X307532D01*
X256549Y114998D02*
X260548D01*
X258548D01*
Y109000D01*
X263547D02*
X265546D01*
X266546Y110000D01*
Y111999D01*
X265546Y112999D01*
X263547D01*
X262547Y111999D01*
Y110000D01*
X263547Y109000D01*
X268545Y107001D02*
Y112999D01*
X271544D01*
X272544Y111999D01*
Y110000D01*
X271544Y109000D01*
X268545D01*
X284540Y113998D02*
X283540Y114998D01*
X281541D01*
X280541Y113998D01*
Y112999D01*
X281541Y111999D01*
X283540D01*
X284540Y110999D01*
Y110000D01*
X283540Y109000D01*
X281541D01*
X280541Y110000D01*
X287539Y109000D02*
X289538D01*
X290538Y110000D01*
Y111999D01*
X289538Y112999D01*
X287539D01*
X286539Y111999D01*
Y110000D01*
X287539Y109000D01*
X292537D02*
X294536D01*
X293537D01*
Y114998D01*
X292537D01*
X301534D02*
Y109000D01*
X298535D01*
X297536Y110000D01*
Y111999D01*
X298535Y112999D01*
X301534D01*
X306533Y109000D02*
X304533D01*
X303534Y110000D01*
Y111999D01*
X304533Y112999D01*
X306533D01*
X307532Y111999D01*
Y110999D01*
X303534D01*
X309532Y112999D02*
Y109000D01*
Y110999D01*
X310531Y111999D01*
X311531Y112999D01*
X312531D01*
X256549Y126998D02*
X260548D01*
X258548D01*
Y121000D01*
X263547D02*
X265546D01*
X266546Y122000D01*
Y123999D01*
X265546Y124999D01*
X263547D01*
X262547Y123999D01*
Y122000D01*
X263547Y121000D01*
X268545Y119001D02*
Y124999D01*
X271544D01*
X272544Y123999D01*
Y122000D01*
X271544Y121000D01*
X268545D01*
X283540Y126998D02*
X281541D01*
X280541Y125998D01*
Y122000D01*
X281541Y121000D01*
X283540D01*
X284540Y122000D01*
Y125998D01*
X283540Y126998D01*
X286539Y124999D02*
X288539Y121000D01*
X290538Y124999D01*
X295536Y121000D02*
X293537D01*
X292537Y122000D01*
Y123999D01*
X293537Y124999D01*
X295536D01*
X296536Y123999D01*
Y122999D01*
X292537D01*
X298535Y124999D02*
Y121000D01*
Y122999D01*
X299535Y123999D01*
X300535Y124999D01*
X301534D01*
X304533Y121000D02*
X306533D01*
X305533D01*
Y126998D01*
X304533D01*
X310531Y124999D02*
X312531D01*
X313530Y123999D01*
Y121000D01*
X310531D01*
X309532Y122000D01*
X310531Y122999D01*
X313530D01*
X315530Y124999D02*
Y122000D01*
X316529Y121000D01*
X319529D01*
Y120000D01*
X318529Y119001D01*
X317529D01*
X319529Y121000D02*
Y124999D01*
X349523Y133000D02*
Y138998D01*
X351523Y136999D01*
X353522Y138998D01*
Y133000D01*
X356521Y136999D02*
X358520D01*
X359520Y135999D01*
Y133000D01*
X356521D01*
X355521Y134000D01*
X356521Y134999D01*
X359520D01*
X362519Y137998D02*
Y136999D01*
X361519D01*
X363519D01*
X362519D01*
Y134000D01*
X363519Y133000D01*
X369517D02*
X367517D01*
X366518Y134000D01*
Y135999D01*
X367517Y136999D01*
X369517D01*
X370516Y135999D01*
Y134999D01*
X366518D01*
X372516Y136999D02*
Y133000D01*
Y134999D01*
X373516Y135999D01*
X374515Y136999D01*
X375515D01*
X378514Y133000D02*
X380513D01*
X379514D01*
Y136999D01*
X378514D01*
X384512D02*
X386511D01*
X387511Y135999D01*
Y133000D01*
X384512D01*
X383512Y134000D01*
X384512Y134999D01*
X387511D01*
X389510Y133000D02*
X391510D01*
X390510D01*
Y138998D01*
X389510D01*
X353522Y65998D02*
X352522Y66998D01*
X350523D01*
X349523Y65998D01*
Y64999D01*
X350523Y63999D01*
X352522D01*
X353522Y62999D01*
Y62000D01*
X352522Y61000D01*
X350523D01*
X349523Y62000D01*
X356521Y61000D02*
X358520D01*
X359520Y62000D01*
Y63999D01*
X358520Y64999D01*
X356521D01*
X355521Y63999D01*
Y62000D01*
X356521Y61000D01*
X361519D02*
X363519D01*
X362519D01*
Y66998D01*
X361519D01*
X370516D02*
Y61000D01*
X367517D01*
X366518Y62000D01*
Y63999D01*
X367517Y64999D01*
X370516D01*
X375515Y61000D02*
X373516D01*
X372516Y62000D01*
Y63999D01*
X373516Y64999D01*
X375515D01*
X376515Y63999D01*
Y62999D01*
X372516D01*
X378514Y64999D02*
Y61000D01*
Y62999D01*
X379514Y63999D01*
X380513Y64999D01*
X381513D01*
X390510Y61000D02*
Y66998D01*
X393509D01*
X394509Y65998D01*
Y63999D01*
X393509Y62999D01*
X390510D01*
X392509D02*
X394509Y61000D01*
X399507D02*
X397508D01*
X396508Y62000D01*
Y63999D01*
X397508Y64999D01*
X399507D01*
X400507Y63999D01*
Y62999D01*
X396508D01*
X402506Y61000D02*
X405505D01*
X406505Y62000D01*
X405505Y62999D01*
X403506D01*
X402506Y63999D01*
X403506Y64999D01*
X406505D01*
X408504Y61000D02*
X410504D01*
X409504D01*
Y64999D01*
X408504D01*
X413503Y61000D02*
X416502D01*
X417501Y62000D01*
X416502Y62999D01*
X414502D01*
X413503Y63999D01*
X414502Y64999D01*
X417501D01*
X420500Y65998D02*
Y64999D01*
X419501D01*
X421500D01*
X420500D01*
Y62000D01*
X421500Y61000D01*
X353522Y90998D02*
X349523D01*
Y87999D01*
X351523D01*
X349523D01*
Y85000D01*
X355521D02*
Y90998D01*
X358520D01*
X359520Y89998D01*
Y87999D01*
X358520Y86999D01*
X355521D01*
X357521D02*
X359520Y85000D01*
X361519Y87999D02*
X365518D01*
X370516Y85000D02*
Y90998D01*
X367517Y87999D01*
X371516D01*
X353522Y113998D02*
X352522Y114998D01*
X350523D01*
X349523Y113998D01*
Y112999D01*
X350523Y111999D01*
X352522D01*
X353522Y110999D01*
Y110000D01*
X352522Y109000D01*
X350523D01*
X349523Y110000D01*
X356521Y109000D02*
X358520D01*
X359520Y110000D01*
Y111999D01*
X358520Y112999D01*
X356521D01*
X355521Y111999D01*
Y110000D01*
X356521Y109000D01*
X361519D02*
X363519D01*
X362519D01*
Y114998D01*
X361519D01*
X370516D02*
Y109000D01*
X367517D01*
X366518Y110000D01*
Y111999D01*
X367517Y112999D01*
X370516D01*
X375515Y109000D02*
X373516D01*
X372516Y110000D01*
Y111999D01*
X373516Y112999D01*
X375515D01*
X376515Y111999D01*
Y110999D01*
X372516D01*
X378514Y112999D02*
Y109000D01*
Y110999D01*
X379514Y111999D01*
X380513Y112999D01*
X381513D01*
X390510Y109000D02*
Y114998D01*
X393509D01*
X394509Y113998D01*
Y111999D01*
X393509Y110999D01*
X390510D01*
X392509D02*
X394509Y109000D01*
X399507D02*
X397508D01*
X396508Y110000D01*
Y111999D01*
X397508Y112999D01*
X399507D01*
X400507Y111999D01*
Y110999D01*
X396508D01*
X402506Y109000D02*
X405505D01*
X406505Y110000D01*
X405505Y110999D01*
X403506D01*
X402506Y111999D01*
X403506Y112999D01*
X406505D01*
X408504Y109000D02*
X410504D01*
X409504D01*
Y112999D01*
X408504D01*
X413503Y109000D02*
X416502D01*
X417501Y110000D01*
X416502Y110999D01*
X414502D01*
X413503Y111999D01*
X414502Y112999D01*
X417501D01*
X420500Y113998D02*
Y112999D01*
X419501D01*
X421500D01*
X420500D01*
Y110000D01*
X421500Y109000D01*
X435500Y138998D02*
X439499D01*
X437499D01*
Y133000D01*
X441498Y138998D02*
Y133000D01*
Y135999D01*
X442498Y136999D01*
X444497D01*
X445497Y135999D01*
Y133000D01*
X447496D02*
X449496D01*
X448496D01*
Y136999D01*
X447496D01*
X456493D02*
X453494D01*
X452494Y135999D01*
Y134000D01*
X453494Y133000D01*
X456493D01*
X458493D02*
Y138998D01*
Y134999D02*
X461492Y136999D01*
X458493Y134999D02*
X461492Y133000D01*
X464491D02*
Y136999D01*
X467490D01*
X468489Y135999D01*
Y133000D01*
X473488D02*
X471488D01*
X470489Y134000D01*
Y135999D01*
X471488Y136999D01*
X473488D01*
X474487Y135999D01*
Y134999D01*
X470489D01*
X476487Y133000D02*
X479486D01*
X480485Y134000D01*
X479486Y134999D01*
X477486D01*
X476487Y135999D01*
X477486Y136999D01*
X480485D01*
X482485Y133000D02*
X485484D01*
X486483Y134000D01*
X485484Y134999D01*
X483485D01*
X482485Y135999D01*
X483485Y136999D01*
X486483D01*
X435500Y65998D02*
X436500Y66998D01*
X438499D01*
X439499Y65998D01*
Y62000D01*
X438499Y61000D01*
X436500D01*
X435500Y62000D01*
Y65998D01*
X441498Y61000D02*
Y62000D01*
X442498D01*
Y61000D01*
X441498D01*
X446496Y65998D02*
X447496Y66998D01*
X449496D01*
X450495Y65998D01*
Y62000D01*
X449496Y61000D01*
X447496D01*
X446496Y62000D01*
Y65998D01*
X452494Y61000D02*
X454494D01*
X453494D01*
Y66998D01*
X452494Y65998D01*
X457493D02*
X458493Y66998D01*
X460492D01*
X461492Y65998D01*
Y62000D01*
X460492Y61000D01*
X458493D01*
X457493Y62000D01*
Y65998D01*
X463491Y61000D02*
Y64999D01*
X464491D01*
X465490Y63999D01*
Y61000D01*
Y63999D01*
X466490Y64999D01*
X467490Y63999D01*
Y61000D01*
X469489D02*
Y64999D01*
X470489D01*
X471488Y63999D01*
Y61000D01*
Y63999D01*
X472488Y64999D01*
X473488Y63999D01*
Y61000D01*
X435500Y77998D02*
X436500Y78998D01*
X438499D01*
X439499Y77998D01*
Y74000D01*
X438499Y73000D01*
X436500D01*
X435500Y74000D01*
Y77998D01*
X441498Y73000D02*
Y74000D01*
X442498D01*
Y73000D01*
X441498D01*
X446496Y77998D02*
X447496Y78998D01*
X449496D01*
X450495Y77998D01*
Y74000D01*
X449496Y73000D01*
X447496D01*
X446496Y74000D01*
Y77998D01*
X452494D02*
X453494Y78998D01*
X455493D01*
X456493Y77998D01*
Y76999D01*
X455493Y75999D01*
X454494D01*
X455493D01*
X456493Y74999D01*
Y74000D01*
X455493Y73000D01*
X453494D01*
X452494Y74000D01*
X462491Y78998D02*
X460492Y77998D01*
X458493Y75999D01*
Y74000D01*
X459492Y73000D01*
X461492D01*
X462491Y74000D01*
Y74999D01*
X461492Y75999D01*
X458493D01*
X464491Y73000D02*
Y76999D01*
X465490D01*
X466490Y75999D01*
Y73000D01*
Y75999D01*
X467490Y76999D01*
X468489Y75999D01*
Y73000D01*
X470489D02*
Y76999D01*
X471488D01*
X472488Y75999D01*
Y73000D01*
Y75999D01*
X473488Y76999D01*
X474487Y75999D01*
Y73000D01*
X435500Y89998D02*
X436500Y90998D01*
X438499D01*
X439499Y89998D01*
Y86000D01*
X438499Y85000D01*
X436500D01*
X435500Y86000D01*
Y89998D01*
X441498Y85000D02*
Y86000D01*
X442498D01*
Y85000D01*
X441498D01*
X446496Y89998D02*
X447496Y90998D01*
X449496D01*
X450495Y89998D01*
Y88999D01*
X449496Y87999D01*
X448496D01*
X449496D01*
X450495Y86999D01*
Y86000D01*
X449496Y85000D01*
X447496D01*
X446496Y86000D01*
X456493Y85000D02*
X452494D01*
X456493Y88999D01*
Y89998D01*
X455493Y90998D01*
X453494D01*
X452494Y89998D01*
X458493D02*
X459492Y90998D01*
X461492D01*
X462491Y89998D01*
Y86000D01*
X461492Y85000D01*
X459492D01*
X458493Y86000D01*
Y89998D01*
X464491Y85000D02*
Y88999D01*
X465490D01*
X466490Y87999D01*
Y85000D01*
Y87999D01*
X467490Y88999D01*
X468489Y87999D01*
Y85000D01*
X470489D02*
Y88999D01*
X471488D01*
X472488Y87999D01*
Y85000D01*
Y87999D01*
X473488Y88999D01*
X474487Y87999D01*
Y85000D01*
X435500Y101998D02*
X436500Y102998D01*
X438499D01*
X439499Y101998D01*
Y98000D01*
X438499Y97000D01*
X436500D01*
X435500Y98000D01*
Y101998D01*
X441498Y97000D02*
Y98000D01*
X442498D01*
Y97000D01*
X441498D01*
X446496Y101998D02*
X447496Y102998D01*
X449496D01*
X450495Y101998D01*
Y98000D01*
X449496Y97000D01*
X447496D01*
X446496Y98000D01*
Y101998D01*
X452494D02*
X453494Y102998D01*
X455493D01*
X456493Y101998D01*
Y100999D01*
X455493Y99999D01*
X454494D01*
X455493D01*
X456493Y98999D01*
Y98000D01*
X455493Y97000D01*
X453494D01*
X452494Y98000D01*
X462491Y102998D02*
X460492Y101998D01*
X458493Y99999D01*
Y98000D01*
X459492Y97000D01*
X461492D01*
X462491Y98000D01*
Y98999D01*
X461492Y99999D01*
X458493D01*
X464491Y97000D02*
Y100999D01*
X465490D01*
X466490Y99999D01*
Y97000D01*
Y99999D01*
X467490Y100999D01*
X468489Y99999D01*
Y97000D01*
X470489D02*
Y100999D01*
X471488D01*
X472488Y99999D01*
Y97000D01*
Y99999D01*
X473488Y100999D01*
X474487Y99999D01*
Y97000D01*
X435500Y113998D02*
X436500Y114998D01*
X438499D01*
X439499Y113998D01*
Y110000D01*
X438499Y109000D01*
X436500D01*
X435500Y110000D01*
Y113998D01*
X441498Y109000D02*
Y110000D01*
X442498D01*
Y109000D01*
X441498D01*
X446496Y113998D02*
X447496Y114998D01*
X449496D01*
X450495Y113998D01*
Y110000D01*
X449496Y109000D01*
X447496D01*
X446496Y110000D01*
Y113998D01*
X452494Y109000D02*
X454494D01*
X453494D01*
Y114998D01*
X452494Y113998D01*
X457493D02*
X458493Y114998D01*
X460492D01*
X461492Y113998D01*
Y110000D01*
X460492Y109000D01*
X458493D01*
X457493Y110000D01*
Y113998D01*
X463491Y109000D02*
Y112999D01*
X464491D01*
X465490Y111999D01*
Y109000D01*
Y111999D01*
X466490Y112999D01*
X467490Y111999D01*
Y109000D01*
X469489D02*
Y112999D01*
X470489D01*
X471488Y111999D01*
Y109000D01*
Y111999D01*
X472488Y112999D01*
X473488Y111999D01*
Y109000D01*
X504482Y137998D02*
X503482Y138998D01*
X501483D01*
X500484Y137998D01*
Y134000D01*
X501483Y133000D01*
X503482D01*
X504482Y134000D01*
X507481Y133000D02*
X509481D01*
X510480Y134000D01*
Y135999D01*
X509481Y136999D01*
X507481D01*
X506482Y135999D01*
Y134000D01*
X507481Y133000D01*
X512480D02*
Y136999D01*
X515479D01*
X516478Y135999D01*
Y133000D01*
X518478D02*
X521477D01*
X522476Y134000D01*
X521477Y134999D01*
X519477D01*
X518478Y135999D01*
X519477Y136999D01*
X522476D01*
X525475Y137998D02*
Y136999D01*
X524476D01*
X526475D01*
X525475D01*
Y134000D01*
X526475Y133000D01*
X530474Y136999D02*
X532473D01*
X533473Y135999D01*
Y133000D01*
X530474D01*
X529474Y134000D01*
X530474Y134999D01*
X533473D01*
X535472Y133000D02*
Y136999D01*
X538471D01*
X539471Y135999D01*
Y133000D01*
X542470Y137998D02*
Y136999D01*
X541470D01*
X543470D01*
X542470D01*
Y134000D01*
X543470Y133000D01*
X500484Y65998D02*
X501483Y66998D01*
X503482D01*
X504482Y65998D01*
Y64999D01*
X503482Y63999D01*
X502483D01*
X503482D01*
X504482Y62999D01*
Y62000D01*
X503482Y61000D01*
X501483D01*
X500484Y62000D01*
X506482Y61000D02*
Y62000D01*
X507481D01*
Y61000D01*
X506482D01*
X515479Y66998D02*
X511480D01*
Y63999D01*
X513479Y64999D01*
X514479D01*
X515479Y63999D01*
Y62000D01*
X514479Y61000D01*
X512480D01*
X511480Y62000D01*
X503482Y85000D02*
Y90998D01*
X500484Y87999D01*
X504482D01*
X506482Y85000D02*
Y86000D01*
X507481D01*
Y85000D01*
X506482D01*
X511480Y89998D02*
X512480Y90998D01*
X514479D01*
X515479Y89998D01*
Y88999D01*
X514479Y87999D01*
X515479Y86999D01*
Y86000D01*
X514479Y85000D01*
X512480D01*
X511480Y86000D01*
Y86999D01*
X512480Y87999D01*
X511480Y88999D01*
Y89998D01*
X512480Y87999D02*
X514479D01*
X500484Y113998D02*
X501483Y114998D01*
X503482D01*
X504482Y113998D01*
Y112999D01*
X503482Y111999D01*
X502483D01*
X503482D01*
X504482Y110999D01*
Y110000D01*
X503482Y109000D01*
X501483D01*
X500484Y110000D01*
X506482Y109000D02*
Y110000D01*
X507481D01*
Y109000D01*
X506482D01*
X515479Y114998D02*
X511480D01*
Y111999D01*
X513479Y112999D01*
X514479D01*
X515479Y111999D01*
Y110000D01*
X514479Y109000D01*
X512480D01*
X511480Y110000D01*
X557470Y138998D02*
Y133000D01*
X560469D01*
X561468Y134000D01*
Y134999D01*
X560469Y135999D01*
X557470D01*
X560469D01*
X561468Y136999D01*
Y137998D01*
X560469Y138998D01*
X557470D01*
X564467Y133000D02*
X566467D01*
X567466Y134000D01*
Y135999D01*
X566467Y136999D01*
X564467D01*
X563468Y135999D01*
Y134000D01*
X564467Y133000D01*
X570465Y136999D02*
X572465D01*
X573464Y135999D01*
Y133000D01*
X570465D01*
X569466Y134000D01*
X570465Y134999D01*
X573464D01*
X575464Y136999D02*
Y133000D01*
Y134999D01*
X576464Y135999D01*
X577463Y136999D01*
X578463D01*
X585461Y138998D02*
Y133000D01*
X582462D01*
X581462Y134000D01*
Y135999D01*
X582462Y136999D01*
X585461D01*
X593458Y138998D02*
Y133000D01*
X597457D01*
X600456Y136999D02*
X602455D01*
X603455Y135999D01*
Y133000D01*
X600456D01*
X599456Y134000D01*
X600456Y134999D01*
X603455D01*
X605454Y136999D02*
Y134000D01*
X606454Y133000D01*
X609453D01*
Y132000D01*
X608453Y131001D01*
X607453D01*
X609453Y133000D02*
Y136999D01*
X614451Y133000D02*
X612452D01*
X611452Y134000D01*
Y135999D01*
X612452Y136999D01*
X614451D01*
X615451Y135999D01*
Y134999D01*
X611452D01*
X617450Y136999D02*
Y133000D01*
Y134999D01*
X618450Y135999D01*
X619450Y136999D01*
X620449D01*
X633445Y137998D02*
X632445Y138998D01*
X630446D01*
X629446Y137998D01*
Y136999D01*
X630446Y135999D01*
X632445D01*
X633445Y134999D01*
Y134000D01*
X632445Y133000D01*
X630446D01*
X629446Y134000D01*
X636444Y137998D02*
Y136999D01*
X635444D01*
X637444D01*
X636444D01*
Y134000D01*
X637444Y133000D01*
X641442Y136999D02*
X643442D01*
X644442Y135999D01*
Y133000D01*
X641442D01*
X640443Y134000D01*
X641442Y134999D01*
X644442D01*
X650440Y136999D02*
X647440D01*
X646441Y135999D01*
Y134000D01*
X647440Y133000D01*
X650440D01*
X652439D02*
Y138998D01*
Y134999D02*
X655438Y136999D01*
X652439Y134999D02*
X655438Y133000D01*
D14*
X115101Y-13258D02*
Y-17257D01*
X118100D01*
X117100Y-15258D01*
Y-14258D01*
X118100Y-13258D01*
X120099D01*
X121099Y-14258D01*
Y-16257D01*
X120099Y-17257D01*
X115101Y-7260D02*
Y-11259D01*
X118100D01*
X117100Y-9260D01*
Y-8260D01*
X118100Y-7260D01*
X120099D01*
X121099Y-8260D01*
Y-10259D01*
X120099Y-11259D01*
X121099Y-5261D02*
X120099D01*
Y-4261D01*
X121099D01*
Y-5261D01*
X115101Y3736D02*
Y-263D01*
X118100D01*
X117100Y1737D01*
Y2736D01*
X118100Y3736D01*
X120099D01*
X121099Y2736D01*
Y737D01*
X120099Y-263D01*
X121099Y8734D02*
X115101D01*
X118100Y5736D01*
Y9734D01*
X121099Y11733D02*
X117100D01*
Y12733D01*
X118100Y13733D01*
X121099D01*
X118100D01*
X117100Y14733D01*
X118100Y15732D01*
X121099D01*
Y17732D02*
X117100D01*
Y18731D01*
X118100Y19731D01*
X121099D01*
X118100D01*
X117100Y20731D01*
X118100Y21730D01*
X121099D01*
X-18095Y-116599D02*
Y-110601D01*
X-21094Y-113600D01*
X-17095D01*
X-15096Y-111601D02*
X-14096Y-110601D01*
X-12097D01*
X-11097Y-111601D01*
Y-112600D01*
X-12097Y-113600D01*
X-11097Y-114600D01*
Y-115599D01*
X-12097Y-116599D01*
X-14096D01*
X-15096Y-115599D01*
Y-114600D01*
X-14096Y-113600D01*
X-15096Y-112600D01*
Y-111601D01*
X-14096Y-113600D02*
X-12097D01*
X-9098Y-116599D02*
Y-115599D01*
X-8098D01*
Y-116599D01*
X-9098D01*
X-1100D02*
Y-110601D01*
X-4099Y-113600D01*
X-100D01*
X1899Y-111601D02*
X2898Y-110601D01*
X4898D01*
X5898Y-111601D01*
Y-115599D01*
X4898Y-116599D01*
X2898D01*
X1899Y-115599D01*
Y-111601D01*
X7897Y-116599D02*
Y-112600D01*
X8897D01*
X9896Y-113600D01*
Y-116599D01*
Y-113600D01*
X10896Y-112600D01*
X11896Y-113600D01*
Y-116599D01*
X13895D02*
Y-112600D01*
X14895D01*
X15894Y-113600D01*
Y-116599D01*
Y-113600D01*
X16894Y-112600D01*
X17894Y-113600D01*
Y-116599D01*
D83*
X-8000Y-14000D02*
G03*
X-8000Y-14000I-1000J0D01*
G01*
Y-34000D02*
G03*
X-8000Y-34000I-1000J0D01*
G01*
X-19400Y-47100D02*
Y-46600D01*
X-18900Y-46100D01*
X-19400Y-45600D02*
X-18900Y-46100D01*
X-19400Y-45600D02*
Y-45100D01*
X-18900D01*
X-18400Y-45600D01*
X-17900Y-45100D01*
X-17400D01*
Y-45600D02*
Y-45100D01*
X-17900Y-46100D02*
X-17400Y-45600D01*
X-17900Y-46100D02*
X-17400Y-46600D01*
Y-47100D02*
Y-46600D01*
X-17900Y-47100D02*
X-17400D01*
X-18400Y-46600D02*
X-17900Y-47100D01*
X-18900D02*
X-18400Y-46600D01*
X-19400Y-47100D02*
X-18900D01*
X-14900D02*
Y-46600D01*
X-14400Y-46100D01*
X-14900Y-45600D02*
X-14400Y-46100D01*
X-14900Y-45600D02*
Y-45100D01*
X-14400D01*
X-13900Y-45600D01*
X-13400Y-45100D01*
X-12900D01*
Y-45600D02*
Y-45100D01*
X-13400Y-46100D02*
X-12900Y-45600D01*
X-13400Y-46100D02*
X-12900Y-46600D01*
Y-47100D02*
Y-46600D01*
X-13400Y-47100D02*
X-12900D01*
X-13900Y-46600D02*
X-13400Y-47100D01*
X-14400D02*
X-13900Y-46600D01*
X-14900Y-47100D02*
X-14400D01*
X-10400D02*
Y-46600D01*
X-9900Y-46100D01*
X-10400Y-45600D02*
X-9900Y-46100D01*
X-10400Y-45600D02*
Y-45100D01*
X-9900D01*
X-9400Y-45600D01*
X-8900Y-45100D01*
X-8400D01*
Y-45600D02*
Y-45100D01*
X-8900Y-46100D02*
X-8400Y-45600D01*
X-8900Y-46100D02*
X-8400Y-46600D01*
Y-47100D02*
Y-46600D01*
X-8900Y-47100D02*
X-8400D01*
X-9400Y-46600D02*
X-8900Y-47100D01*
X-9900D02*
X-9400Y-46600D01*
X-10400Y-47100D02*
X-9900D01*
X-4500Y-68000D02*
X-4000D01*
X-4500D02*
Y-67000D01*
X-4000D01*
Y-66500D01*
X-3000D01*
Y-67000D02*
Y-66500D01*
Y-67000D02*
X-2500D01*
Y-68000D02*
Y-67000D01*
X-3000Y-68000D02*
X-2500D01*
X-3000Y-68500D02*
Y-68000D01*
X-4000Y-68500D02*
X-3000D01*
X-4000D02*
Y-68000D01*
X25390Y-24500D02*
X25890D01*
X25390D02*
Y-23500D01*
X25890D01*
Y-23000D01*
X26890D01*
Y-23500D02*
Y-23000D01*
Y-23500D02*
X27390D01*
Y-24500D02*
Y-23500D01*
X26890Y-24500D02*
X27390D01*
X26890Y-25000D02*
Y-24500D01*
X25890Y-25000D02*
X26890D01*
X25890D02*
Y-24500D01*
X25390Y5500D02*
X25890D01*
X25390D02*
Y6500D01*
X25890D01*
Y7000D01*
X26890D01*
Y6500D02*
Y7000D01*
Y6500D02*
X27390D01*
Y5500D02*
Y6500D01*
X26890Y5500D02*
X27390D01*
X26890Y5000D02*
Y5500D01*
X25890Y5000D02*
X26890D01*
X25890D02*
Y5500D01*
X8000Y-71000D02*
X8500D01*
X8000D02*
Y-70000D01*
X8500D01*
Y-69500D01*
X9500D01*
Y-70000D02*
Y-69500D01*
Y-70000D02*
X10000D01*
Y-71000D02*
Y-70000D01*
X9500Y-71000D02*
X10000D01*
X9500Y-71500D02*
Y-71000D01*
X8500Y-71500D02*
X9500D01*
X8500D02*
Y-71000D01*
X-51000Y11000D02*
X-50500D01*
X-51000D02*
Y12000D01*
X-50500D01*
Y12500D01*
X-49500D01*
Y12000D02*
Y12500D01*
Y12000D02*
X-49000D01*
Y11000D02*
Y12000D01*
X-49500Y11000D02*
X-49000D01*
X-49500Y10500D02*
Y11000D01*
X-50500Y10500D02*
X-49500D01*
X-50500D02*
Y11000D01*
X-65500Y82000D02*
X-65000D01*
X-65500D02*
Y83000D01*
X-65000D01*
Y83500D01*
X-64000D01*
Y83000D02*
Y83500D01*
Y83000D02*
X-63500D01*
Y82000D02*
Y83000D01*
X-64000Y82000D02*
X-63500D01*
X-64000Y81500D02*
Y82000D01*
X-65000Y81500D02*
X-64000D01*
X-65000D02*
Y82000D01*
X28850Y-61850D02*
X29350D01*
X28850D02*
Y-60850D01*
X29350D01*
Y-60350D01*
X30350D01*
Y-60850D02*
Y-60350D01*
Y-60850D02*
X30850D01*
Y-61850D02*
Y-60850D01*
X30350Y-61850D02*
X30850D01*
X30350Y-62350D02*
Y-61850D01*
X29350Y-62350D02*
X30350D01*
X29350D02*
Y-61850D01*
X66150Y-76500D02*
X66650D01*
X66150D02*
Y-75500D01*
X66650D01*
Y-75000D01*
X67650D01*
Y-75500D02*
Y-75000D01*
Y-75500D02*
X68150D01*
Y-76500D02*
Y-75500D01*
X67650Y-76500D02*
X68150D01*
X67650Y-77000D02*
Y-76500D01*
X66650Y-77000D02*
X67650D01*
X66650D02*
Y-76500D01*
X37000Y7500D02*
X37500D01*
X37000D02*
Y8500D01*
X37500D01*
Y9000D01*
X38500D01*
Y8500D02*
Y9000D01*
Y8500D02*
X39000D01*
Y7500D02*
Y8500D01*
X38500Y7500D02*
X39000D01*
X38500Y7000D02*
Y7500D01*
X37500Y7000D02*
X38500D01*
X37500D02*
Y7500D01*
X-18500Y-24500D02*
X-18000D01*
X-18500D02*
Y-23500D01*
X-18000D01*
Y-23000D01*
X-17000D01*
Y-23500D02*
Y-23000D01*
Y-23500D02*
X-16500D01*
Y-24500D02*
Y-23500D01*
X-17000Y-24500D02*
X-16500D01*
X-17000Y-25000D02*
Y-24500D01*
X-18000Y-25000D02*
X-17000D01*
X-18000D02*
Y-24500D01*
X-14500D02*
X-14000D01*
X-14500D02*
Y-23500D01*
X-14000D01*
Y-23000D01*
X-13000D01*
Y-23500D02*
Y-23000D01*
Y-23500D02*
X-12500D01*
Y-24500D02*
Y-23500D01*
X-13000Y-24500D02*
X-12500D01*
X-13000Y-25000D02*
Y-24500D01*
X-14000Y-25000D02*
X-13000D01*
X-14000D02*
Y-24500D01*
X-10500D02*
X-10000D01*
X-10500D02*
Y-23500D01*
X-10000D01*
Y-23000D01*
X-9000D01*
Y-23500D02*
Y-23000D01*
Y-23500D02*
X-8500D01*
Y-24500D02*
Y-23500D01*
X-9000Y-24500D02*
X-8500D01*
X-9000Y-25000D02*
Y-24500D01*
X-10000Y-25000D02*
X-9000D01*
X-10000D02*
Y-24500D01*
X-6500D02*
X-6000D01*
X-6500D02*
Y-23500D01*
X-6000D01*
Y-23000D01*
X-5000D01*
Y-23500D02*
Y-23000D01*
Y-23500D02*
X-4500D01*
Y-24500D02*
Y-23500D01*
X-5000Y-24500D02*
X-4500D01*
X-5000Y-25000D02*
Y-24500D01*
X-6000Y-25000D02*
X-5000D01*
X-6000D02*
Y-24500D01*
X-2000D02*
X-1500D01*
X-2000D02*
Y-23500D01*
X-1500D01*
Y-23000D01*
X-500D01*
Y-23500D02*
Y-23000D01*
Y-23500D02*
X0D01*
Y-24500D02*
Y-23500D01*
X-500Y-24500D02*
X0D01*
X-500Y-25000D02*
Y-24500D01*
X-1500Y-25000D02*
X-500D01*
X-1500D02*
Y-24500D01*
X-25500Y-6500D02*
X-25000D01*
X-25500D02*
Y-5500D01*
X-25000D01*
Y-5000D01*
X-24000D01*
Y-5500D02*
Y-5000D01*
Y-5500D02*
X-23500D01*
Y-6500D02*
Y-5500D01*
X-24000Y-6500D02*
X-23500D01*
X-24000Y-7000D02*
Y-6500D01*
X-25000Y-7000D02*
X-24000D01*
X-25000D02*
Y-6500D01*
X-76748Y-20500D02*
X-76248D01*
X-76748D02*
Y-19500D01*
X-76248D01*
Y-19000D01*
X-75248D01*
Y-19500D02*
Y-19000D01*
Y-19500D02*
X-74748D01*
Y-20500D02*
Y-19500D01*
X-75248Y-20500D02*
X-74748D01*
X-75248Y-21000D02*
Y-20500D01*
X-76248Y-21000D02*
X-75248D01*
X-76248D02*
Y-20500D01*
X-76748Y-15500D02*
X-76248D01*
X-76748D02*
Y-14500D01*
X-76248D01*
Y-14000D01*
X-75248D01*
Y-14500D02*
Y-14000D01*
Y-14500D02*
X-74748D01*
Y-15500D02*
Y-14500D01*
X-75248Y-15500D02*
X-74748D01*
X-75248Y-16000D02*
Y-15500D01*
X-76248Y-16000D02*
X-75248D01*
X-76248D02*
Y-15500D01*
X-76748Y-25500D02*
X-76248D01*
X-76748D02*
Y-24500D01*
X-76248D01*
Y-24000D01*
X-75248D01*
Y-24500D02*
Y-24000D01*
Y-24500D02*
X-74748D01*
Y-25500D02*
Y-24500D01*
X-75248Y-25500D02*
X-74748D01*
X-75248Y-26000D02*
Y-25500D01*
X-76248Y-26000D02*
X-75248D01*
X-76248D02*
Y-25500D01*
X-71500D02*
X-71000D01*
X-71500D02*
Y-24500D01*
X-71000D01*
Y-24000D01*
X-70000D01*
Y-24500D02*
Y-24000D01*
Y-24500D02*
X-69500D01*
Y-25500D02*
Y-24500D01*
X-70000Y-25500D02*
X-69500D01*
X-70000Y-26000D02*
Y-25500D01*
X-71000Y-26000D02*
X-70000D01*
X-71000D02*
Y-25500D01*
X-71500Y-20500D02*
X-71000D01*
X-71500D02*
Y-19500D01*
X-71000D01*
Y-19000D01*
X-70000D01*
Y-19500D02*
Y-19000D01*
Y-19500D02*
X-69500D01*
Y-20500D02*
Y-19500D01*
X-70000Y-20500D02*
X-69500D01*
X-70000Y-21000D02*
Y-20500D01*
X-71000Y-21000D02*
X-70000D01*
X-71000D02*
Y-20500D01*
X-71500Y-15500D02*
X-71000D01*
X-71500D02*
Y-14500D01*
X-71000D01*
Y-14000D01*
X-70000D01*
Y-14500D02*
Y-14000D01*
Y-14500D02*
X-69500D01*
Y-15500D02*
Y-14500D01*
X-70000Y-15500D02*
X-69500D01*
X-70000Y-16000D02*
Y-15500D01*
X-71000Y-16000D02*
X-70000D01*
X-71000D02*
Y-15500D01*
X49000Y64500D02*
X49500D01*
X49000D02*
Y65500D01*
X49500D01*
Y66000D01*
X50500D01*
Y65500D02*
Y66000D01*
Y65500D02*
X51000D01*
Y64500D02*
Y65500D01*
X50500Y64500D02*
X51000D01*
X50500Y64000D02*
Y64500D01*
X49500Y64000D02*
X50500D01*
X49500D02*
Y64500D01*
X20000Y72000D02*
X20500D01*
X20000D02*
Y73000D01*
X20500D01*
Y73500D01*
X21500D01*
Y73000D02*
Y73500D01*
Y73000D02*
X22000D01*
Y72000D02*
Y73000D01*
X21500Y72000D02*
X22000D01*
X21500Y71500D02*
Y72000D01*
X20500Y71500D02*
X21500D01*
X20500D02*
Y72000D01*
X35226Y72274D02*
X35726D01*
X35226D02*
Y73274D01*
X35726D01*
Y73774D01*
X36726D01*
Y73274D02*
Y73774D01*
Y73274D02*
X37226D01*
Y72274D02*
Y73274D01*
X36726Y72274D02*
X37226D01*
X36726Y71774D02*
Y72274D01*
X35726Y71774D02*
X36726D01*
X35726D02*
Y72274D01*
X55500Y7500D02*
X56000D01*
X55500D02*
Y8500D01*
X56000D01*
Y9000D01*
X57000D01*
Y8500D02*
Y9000D01*
Y8500D02*
X57500D01*
Y7500D02*
Y8500D01*
X57000Y7500D02*
X57500D01*
X57000Y7000D02*
Y7500D01*
X56000Y7000D02*
X57000D01*
X56000D02*
Y7500D01*
X-85000Y74000D02*
X-84500D01*
X-85000D02*
Y75000D01*
X-84500D01*
Y75500D01*
X-83500D01*
Y75000D02*
Y75500D01*
Y75000D02*
X-83000D01*
Y74000D02*
Y75000D01*
X-83500Y74000D02*
X-83000D01*
X-83500Y73500D02*
Y74000D01*
X-84500Y73500D02*
X-83500D01*
X-84500D02*
Y74000D01*
X-84000Y56000D02*
X-83500D01*
X-84000D02*
Y57000D01*
X-83500D01*
Y57500D01*
X-82500D01*
Y57000D02*
Y57500D01*
Y57000D02*
X-82000D01*
Y56000D02*
Y57000D01*
X-82500Y56000D02*
X-82000D01*
X-82500Y55500D02*
Y56000D01*
X-83500Y55500D02*
X-82500D01*
X-83500D02*
Y56000D01*
X43000Y-43000D02*
X43500D01*
X43000D02*
Y-42000D01*
X43500D01*
Y-41500D01*
X44500D01*
Y-42000D02*
Y-41500D01*
Y-42000D02*
X45000D01*
Y-43000D02*
Y-42000D01*
X44500Y-43000D02*
X45000D01*
X44500Y-43500D02*
Y-43000D01*
X43500Y-43500D02*
X44500D01*
X43500D02*
Y-43000D01*
X16500D02*
X17000D01*
X16500D02*
Y-42000D01*
X17000D01*
Y-41500D01*
X18000D01*
Y-42000D02*
Y-41500D01*
Y-42000D02*
X18500D01*
Y-43000D02*
Y-42000D01*
X18000Y-43000D02*
X18500D01*
X18000Y-43500D02*
Y-43000D01*
X17000Y-43500D02*
X18000D01*
X17000D02*
Y-43000D01*
X-10500Y-53000D02*
Y-52500D01*
X-10000Y-52000D01*
X-10500Y-51500D02*
X-10000Y-52000D01*
X-10500Y-51500D02*
Y-51000D01*
X-10000D01*
X-9500Y-51500D01*
X-9000Y-51000D01*
X-8500D01*
Y-51500D02*
Y-51000D01*
X-9000Y-52000D02*
X-8500Y-51500D01*
X-9000Y-52000D02*
X-8500Y-52500D01*
Y-53000D02*
Y-52500D01*
X-9000Y-53000D02*
X-8500D01*
X-9500Y-52500D02*
X-9000Y-53000D01*
X-10000D02*
X-9500Y-52500D01*
X-10500Y-53000D02*
X-10000D01*
X-15000D02*
Y-52500D01*
X-14500Y-52000D01*
X-15000Y-51500D02*
X-14500Y-52000D01*
X-15000Y-51500D02*
Y-51000D01*
X-14500D01*
X-14000Y-51500D01*
X-13500Y-51000D01*
X-13000D01*
Y-51500D02*
Y-51000D01*
X-13500Y-52000D02*
X-13000Y-51500D01*
X-13500Y-52000D02*
X-13000Y-52500D01*
Y-53000D02*
Y-52500D01*
X-13500Y-53000D02*
X-13000D01*
X-14000Y-52500D02*
X-13500Y-53000D01*
X-14500D02*
X-14000Y-52500D01*
X-15000Y-53000D02*
X-14500D01*
X-19500D02*
Y-52500D01*
X-19000Y-52000D01*
X-19500Y-51500D02*
X-19000Y-52000D01*
X-19500Y-51500D02*
Y-51000D01*
X-19000D01*
X-18500Y-51500D01*
X-18000Y-51000D01*
X-17500D01*
Y-51500D02*
Y-51000D01*
X-18000Y-52000D02*
X-17500Y-51500D01*
X-18000Y-52000D02*
X-17500Y-52500D01*
Y-53000D02*
Y-52500D01*
X-18000Y-53000D02*
X-17500D01*
X-18500Y-52500D02*
X-18000Y-53000D01*
X-19000D02*
X-18500Y-52500D01*
X-19500Y-53000D02*
X-19000D01*
X-3500Y67500D02*
X-3000D01*
X-3500D02*
Y68500D01*
X-3000D01*
Y69000D01*
X-2000D01*
Y68500D02*
Y69000D01*
Y68500D02*
X-1500D01*
Y67500D02*
Y68500D01*
X-2000Y67500D02*
X-1500D01*
X-2000Y67000D02*
Y67500D01*
X-3000Y67000D02*
X-2000D01*
X-3000D02*
Y67500D01*
X-159Y71500D02*
X341D01*
X-159D02*
Y72500D01*
X341D01*
Y73000D01*
X1341D01*
Y72500D02*
Y73000D01*
Y72500D02*
X1841D01*
Y71500D02*
Y72500D01*
X1341Y71500D02*
X1841D01*
X1341Y71000D02*
Y71500D01*
X341Y71000D02*
X1341D01*
X341D02*
Y71500D01*
X4000Y76500D02*
X4500D01*
X4000D02*
Y77500D01*
X4500D01*
Y78000D01*
X5500D01*
Y77500D02*
Y78000D01*
Y77500D02*
X6000D01*
Y76500D02*
Y77500D01*
X5500Y76500D02*
X6000D01*
X5500Y76000D02*
Y76500D01*
X4500Y76000D02*
X5500D01*
X4500D02*
Y76500D01*
X75000Y-23000D02*
X75500D01*
X75000D02*
Y-22000D01*
X75500D01*
Y-21500D01*
X76500D01*
Y-22000D02*
Y-21500D01*
Y-22000D02*
X77000D01*
Y-23000D02*
Y-22000D01*
X76500Y-23000D02*
X77000D01*
X76500Y-23500D02*
Y-23000D01*
X75500Y-23500D02*
X76500D01*
X75500D02*
Y-23000D01*
X68000Y1000D02*
X68500D01*
X68000D02*
Y2000D01*
X68500D01*
Y2500D01*
X69500D01*
Y2000D02*
Y2500D01*
Y2000D02*
X70000D01*
Y1000D02*
Y2000D01*
X69500Y1000D02*
X70000D01*
X69500Y500D02*
Y1000D01*
X68500Y500D02*
X69500D01*
X68500D02*
Y1000D01*
X69000Y40000D02*
X71000D01*
Y42000D01*
X69000D02*
X71000D01*
X69000Y40000D02*
Y42000D01*
Y50000D02*
X71000D01*
Y52000D01*
X69000D02*
X71000D01*
X69000Y50000D02*
Y52000D01*
Y60000D02*
X71000D01*
Y62000D01*
X69000D02*
X71000D01*
X69000Y60000D02*
Y62000D01*
Y70000D02*
X71000D01*
Y72000D01*
X69000D02*
X71000D01*
X69000Y70000D02*
Y72000D01*
X-37000Y-71000D02*
X-36000Y-69000D01*
X-38000D02*
X-36000D01*
X-38000D02*
X-37000Y-71000D01*
X-47000D02*
X-46000Y-69000D01*
X-48000D02*
X-46000D01*
X-48000D02*
X-47000Y-71000D01*
X81500Y40000D02*
X83500D01*
Y42000D01*
X81500D02*
X83500D01*
X81500Y40000D02*
Y42000D01*
Y50000D02*
X83500D01*
Y52000D01*
X81500D02*
X83500D01*
X81500Y50000D02*
Y52000D01*
Y60000D02*
X83500D01*
Y62000D01*
X81500D02*
X83500D01*
X81500Y60000D02*
Y62000D01*
Y70000D02*
X83500D01*
Y72000D01*
X81500D02*
X83500D01*
X81500Y70000D02*
Y72000D01*
X30500Y-95500D02*
X32500D01*
Y-93500D01*
X30500D02*
X32500D01*
X30500Y-95500D02*
Y-93500D01*
X40500Y-95500D02*
X42500D01*
Y-93500D01*
X40500D02*
X42500D01*
X40500Y-95500D02*
Y-93500D01*
X50500Y-95500D02*
X52500D01*
Y-93500D01*
X50500D02*
X52500D01*
X50500Y-95500D02*
Y-93500D01*
X60500Y-95500D02*
X62500D01*
Y-93500D01*
X60500D02*
X62500D01*
X60500Y-95500D02*
Y-93500D01*
X-62500Y-95500D02*
X-60500D01*
Y-93500D01*
X-62500D02*
X-60500D01*
X-62500Y-95500D02*
Y-93500D01*
X-52500Y-95500D02*
X-50500D01*
Y-93500D01*
X-52500D02*
X-50500D01*
X-52500Y-95500D02*
Y-93500D01*
X-36500Y-95500D02*
X-34500D01*
Y-93500D01*
X-36500D02*
X-34500D01*
X-36500Y-95500D02*
Y-93500D01*
X-26500Y-95500D02*
X-24500D01*
Y-93500D01*
X-26500D02*
X-24500D01*
X-26500Y-95500D02*
Y-93500D01*
X81500Y7000D02*
X83500D01*
Y9000D01*
X81500D02*
X83500D01*
X81500Y7000D02*
Y9000D01*
Y17000D02*
X83500D01*
Y19000D01*
X81500D02*
X83500D01*
X81500Y17000D02*
Y19000D01*
Y27000D02*
X83500D01*
Y29000D01*
X81500D02*
X83500D01*
X81500Y27000D02*
Y29000D01*
X77500Y-73500D02*
X78500Y-71500D01*
X76500D02*
X78500D01*
X76500D02*
X77500Y-73500D01*
X87500D02*
X88500Y-71500D01*
X86500D02*
X88500D01*
X86500D02*
X87500Y-73500D01*
X26000Y97500D02*
X28000D01*
Y99500D01*
X26000D02*
X28000D01*
X26000Y97500D02*
Y99500D01*
Y87500D02*
X28000D01*
Y89500D01*
X26000D02*
X28000D01*
X26000Y87500D02*
Y89500D01*
X36000Y97500D02*
X38000D01*
Y99500D01*
X36000D02*
X38000D01*
X36000Y97500D02*
Y99500D01*
Y87500D02*
X38000D01*
Y89500D01*
X36000D02*
X38000D01*
X36000Y87500D02*
Y89500D01*
X46000Y97500D02*
X48000D01*
Y99500D01*
X46000D02*
X48000D01*
X46000Y97500D02*
Y99500D01*
Y87500D02*
X48000D01*
Y89500D01*
X46000D02*
X48000D01*
X46000Y87500D02*
Y89500D01*
X84146Y101862D02*
X84646Y101362D01*
X83646Y101862D02*
X84146D01*
X83646D02*
X84146Y102362D01*
X83646Y102862D02*
X84146Y102362D01*
X83646Y102862D02*
X84146D01*
X84646Y103362D01*
X85146Y102862D01*
X85646D01*
X85146Y102362D02*
X85646Y102862D01*
X85146Y102362D02*
X85646Y101862D01*
X85146D02*
X85646D01*
X84646Y101362D02*
X85146Y101862D01*
X84146Y-94988D02*
X84646Y-95488D01*
X83646Y-94988D02*
X84146D01*
X83646D02*
X84146Y-94488D01*
X83646Y-93988D02*
X84146Y-94488D01*
X83646Y-93988D02*
X84146D01*
X84646Y-93488D01*
X85146Y-93988D01*
X85646D01*
X85146Y-94488D02*
X85646Y-93988D01*
X85146Y-94488D02*
X85646Y-94988D01*
X85146D02*
X85646D01*
X84646Y-95488D02*
X85146Y-94988D01*
X-85146D02*
X-84646Y-95488D01*
X-85646Y-94988D02*
X-85146D01*
X-85646D02*
X-85146Y-94488D01*
X-85646Y-93988D02*
X-85146Y-94488D01*
X-85646Y-93988D02*
X-85146D01*
X-84646Y-93488D01*
X-84146Y-93988D01*
X-83646D01*
X-84146Y-94488D02*
X-83646Y-93988D01*
X-84146Y-94488D02*
X-83646Y-94988D01*
X-84146D02*
X-83646D01*
X-84646Y-95488D02*
X-84146Y-94988D01*
X-85146Y101862D02*
X-84646Y101362D01*
X-85646Y101862D02*
X-85146D01*
X-85646D02*
X-85146Y102362D01*
X-85646Y102862D02*
X-85146Y102362D01*
X-85646Y102862D02*
X-85146D01*
X-84646Y103362D01*
X-84146Y102862D01*
X-83646D01*
X-84146Y102362D02*
X-83646Y102862D01*
X-84146Y102362D02*
X-83646Y101862D01*
X-84146D02*
X-83646D01*
X-84646Y101362D02*
X-84146Y101862D01*
D84*
X209294Y26356D02*
X692367D01*
X209294Y-63644D02*
X692367D01*
X209294Y-78644D02*
X692367D01*
Y41356D01*
X209294D02*
X692367D01*
X209294Y-78644D02*
Y41356D01*
X613287Y-78644D02*
Y41356D01*
X554302Y-78644D02*
Y41356D01*
X480922Y-78644D02*
Y41356D01*
X430335Y-78644D02*
Y41356D01*
X318367Y-78644D02*
Y41356D01*
X264381Y-78644D02*
Y41356D01*
X208558Y130000D02*
X662438D01*
X208558Y142000D02*
X662438D01*
X208558Y46000D02*
Y142000D01*
Y46000D02*
X249549D01*
X208558Y58000D02*
X249549D01*
X208558Y70000D02*
X249549D01*
X208558Y82000D02*
X249549D01*
X208558Y94000D02*
X249549D01*
X208558Y106000D02*
X249549D01*
X208558Y118000D02*
X249549D01*
Y46000D02*
Y142000D01*
Y46000D02*
X342523D01*
X249549Y58000D02*
X342523D01*
X249549Y70000D02*
X342523D01*
X249549Y82000D02*
X342523D01*
X249549Y94000D02*
X342523D01*
X249549Y106000D02*
X342523D01*
X249549Y118000D02*
X342523D01*
Y46000D02*
Y142000D01*
Y46000D02*
X428500D01*
X342523Y58000D02*
X428500D01*
X342523Y70000D02*
X428500D01*
X342523Y82000D02*
X428500D01*
X342523Y94000D02*
X428500D01*
X342523Y106000D02*
X428500D01*
X342523Y118000D02*
X428500D01*
Y46000D02*
Y142000D01*
Y46000D02*
X493483D01*
X428500Y58000D02*
X493483D01*
X428500Y70000D02*
X493483D01*
X428500Y82000D02*
X493483D01*
X428500Y94000D02*
X493483D01*
X428500Y106000D02*
X493483D01*
X428500Y118000D02*
X493483D01*
Y46000D02*
Y142000D01*
Y46000D02*
X550470D01*
X493483Y58000D02*
X550470D01*
X493483Y70000D02*
X550470D01*
X493483Y82000D02*
X550470D01*
X493483Y94000D02*
X550470D01*
X493483Y106000D02*
X550470D01*
X493483Y118000D02*
X550470D01*
Y46000D02*
Y142000D01*
Y46000D02*
X662438D01*
X550470Y58000D02*
X662438D01*
X550470Y70000D02*
X662438D01*
X550470Y82000D02*
X662438D01*
X550470Y94000D02*
X662438D01*
X550470Y106000D02*
X662438D01*
X550470Y118000D02*
X662438D01*
Y46000D02*
Y142000D01*
D85*
X656438Y46000D02*
X662438Y52000D01*
X650438Y46000D02*
X662438Y58000D01*
X644438Y46000D02*
X656438Y58000D01*
X638438Y46000D02*
X650438Y58000D01*
X632438Y46000D02*
X644438Y58000D01*
X626438Y46000D02*
X638438Y58000D01*
X620438Y46000D02*
X632438Y58000D01*
X614438Y46000D02*
X626438Y58000D01*
X608438Y46000D02*
X620438Y58000D01*
X602438Y46000D02*
X614438Y58000D01*
X596438Y46000D02*
X608438Y58000D01*
X590438Y46000D02*
X602438Y58000D01*
X584438Y46000D02*
X596438Y58000D01*
X578438Y46000D02*
X590438Y58000D01*
X572438Y46000D02*
X584438Y58000D01*
X566438Y46000D02*
X578438Y58000D01*
X560438Y46000D02*
X572438Y58000D01*
X554438Y46000D02*
X566438Y58000D01*
X550470Y48032D02*
X560438Y58000D01*
X550470Y54032D02*
X554438Y58000D01*
X656438D02*
X662438Y64000D01*
X650438Y58000D02*
X662438Y70000D01*
X644438Y58000D02*
X656438Y70000D01*
X638438Y58000D02*
X650438Y70000D01*
X632438Y58000D02*
X644438Y70000D01*
X626438Y58000D02*
X638438Y70000D01*
X620438Y58000D02*
X632438Y70000D01*
X614438Y58000D02*
X626438Y70000D01*
X608438Y58000D02*
X620438Y70000D01*
X602438Y58000D02*
X614438Y70000D01*
X596438Y58000D02*
X608438Y70000D01*
X590438Y58000D02*
X602438Y70000D01*
X584438Y58000D02*
X596438Y70000D01*
X578438Y58000D02*
X590438Y70000D01*
X572438Y58000D02*
X584438Y70000D01*
X566438Y58000D02*
X578438Y70000D01*
X560438Y58000D02*
X572438Y70000D01*
X554438Y58000D02*
X566438Y70000D01*
X550470Y60032D02*
X560438Y70000D01*
X550470Y66032D02*
X554438Y70000D01*
X656438D02*
X662438Y76000D01*
X650438Y70000D02*
X662438Y82000D01*
X644438Y70000D02*
X656438Y82000D01*
X638438Y70000D02*
X650438Y82000D01*
X632438Y70000D02*
X644438Y82000D01*
X626438Y70000D02*
X638438Y82000D01*
X620438Y70000D02*
X632438Y82000D01*
X614438Y70000D02*
X626438Y82000D01*
X608438Y70000D02*
X620438Y82000D01*
X602438Y70000D02*
X614438Y82000D01*
X596438Y70000D02*
X608438Y82000D01*
X590438Y70000D02*
X602438Y82000D01*
X584438Y70000D02*
X596438Y82000D01*
X578438Y70000D02*
X590438Y82000D01*
X572438Y70000D02*
X584438Y82000D01*
X566438Y70000D02*
X578438Y82000D01*
X560438Y70000D02*
X572438Y82000D01*
X554438Y70000D02*
X566438Y82000D01*
X550470Y72032D02*
X560438Y82000D01*
X550470Y78032D02*
X554438Y82000D01*
X656438D02*
X662438Y88000D01*
X650438Y82000D02*
X662438Y94000D01*
X644438Y82000D02*
X656438Y94000D01*
X638438Y82000D02*
X650438Y94000D01*
X632438Y82000D02*
X644438Y94000D01*
X626438Y82000D02*
X638438Y94000D01*
X620438Y82000D02*
X632438Y94000D01*
X614438Y82000D02*
X626438Y94000D01*
X608438Y82000D02*
X620438Y94000D01*
X602438Y82000D02*
X614438Y94000D01*
X596438Y82000D02*
X608438Y94000D01*
X590438Y82000D02*
X602438Y94000D01*
X584438Y82000D02*
X596438Y94000D01*
X578438Y82000D02*
X590438Y94000D01*
X572438Y82000D02*
X584438Y94000D01*
X566438Y82000D02*
X578438Y94000D01*
X560438Y82000D02*
X572438Y94000D01*
X554438Y82000D02*
X566438Y94000D01*
X550470Y84032D02*
X560438Y94000D01*
X550470Y90032D02*
X554438Y94000D01*
X656438D02*
X662438Y100000D01*
X650438Y94000D02*
X662438Y106000D01*
X644438Y94000D02*
X656438Y106000D01*
X638438Y94000D02*
X650438Y106000D01*
X632438Y94000D02*
X644438Y106000D01*
X626438Y94000D02*
X638438Y106000D01*
X620438Y94000D02*
X632438Y106000D01*
X614438Y94000D02*
X626438Y106000D01*
X608438Y94000D02*
X620438Y106000D01*
X602438Y94000D02*
X614438Y106000D01*
X596438Y94000D02*
X608438Y106000D01*
X590438Y94000D02*
X602438Y106000D01*
X584438Y94000D02*
X596438Y106000D01*
X578438Y94000D02*
X590438Y106000D01*
X572438Y94000D02*
X584438Y106000D01*
X566438Y94000D02*
X578438Y106000D01*
X560438Y94000D02*
X572438Y106000D01*
X554438Y94000D02*
X566438Y106000D01*
X550470Y96032D02*
X560438Y106000D01*
X550470Y102032D02*
X554438Y106000D01*
X656438D02*
X662438Y112000D01*
X650438Y106000D02*
X662438Y118000D01*
X644438Y106000D02*
X656438Y118000D01*
X638438Y106000D02*
X650438Y118000D01*
X632438Y106000D02*
X644438Y118000D01*
X626438Y106000D02*
X638438Y118000D01*
X620438Y106000D02*
X632438Y118000D01*
X614438Y106000D02*
X626438Y118000D01*
X608438Y106000D02*
X620438Y118000D01*
X602438Y106000D02*
X614438Y118000D01*
X596438Y106000D02*
X608438Y118000D01*
X590438Y106000D02*
X602438Y118000D01*
X584438Y106000D02*
X596438Y118000D01*
X578438Y106000D02*
X590438Y118000D01*
X572438Y106000D02*
X584438Y118000D01*
X566438Y106000D02*
X578438Y118000D01*
X560438Y106000D02*
X572438Y118000D01*
X554438Y106000D02*
X566438Y118000D01*
X550470Y108032D02*
X560438Y118000D01*
X550470Y114032D02*
X554438Y118000D01*
X656438D02*
X662438Y124000D01*
X650438Y118000D02*
X662438Y130000D01*
X644438Y118000D02*
X656438Y130000D01*
X638438Y118000D02*
X650438Y130000D01*
X632438Y118000D02*
X644438Y130000D01*
X626438Y118000D02*
X638438Y130000D01*
X620438Y118000D02*
X632438Y130000D01*
X614438Y118000D02*
X626438Y130000D01*
X608438Y118000D02*
X620438Y130000D01*
X602438Y118000D02*
X614438Y130000D01*
X596438Y118000D02*
X608438Y130000D01*
X590438Y118000D02*
X602438Y130000D01*
X584438Y118000D02*
X596438Y130000D01*
X578438Y118000D02*
X590438Y130000D01*
X572438Y118000D02*
X584438Y130000D01*
X566438Y118000D02*
X578438Y130000D01*
X560438Y118000D02*
X572438Y130000D01*
X554438Y118000D02*
X566438Y130000D01*
X550470Y120032D02*
X560438Y130000D01*
X550470Y126032D02*
X554438Y130000D01*
D86*
X617787Y30856D02*
Y38054D01*
X621386D01*
X622586Y36854D01*
Y34455D01*
X621386Y33256D01*
X617787D01*
X626184Y35655D02*
X628584D01*
X629783Y34455D01*
Y30856D01*
X626184D01*
X624985Y32056D01*
X626184Y33256D01*
X629783D01*
X636981Y38054D02*
Y30856D01*
X633382D01*
X632183Y32056D01*
Y34455D01*
X633382Y35655D01*
X636981D01*
X651376Y36854D02*
X650177Y38054D01*
X647777D01*
X646578Y36854D01*
Y35655D01*
X647777Y34455D01*
X650177D01*
X651376Y33256D01*
Y32056D01*
X650177Y30856D01*
X647777D01*
X646578Y32056D01*
X653776Y38054D02*
Y30856D01*
Y34455D01*
X654975Y35655D01*
X657374D01*
X658574Y34455D01*
Y30856D01*
X662173Y35655D02*
X664572D01*
X665772Y34455D01*
Y30856D01*
X662173D01*
X660973Y32056D01*
X662173Y33256D01*
X665772D01*
X668171Y28457D02*
Y35655D01*
X671770D01*
X672969Y34455D01*
Y32056D01*
X671770Y30856D01*
X668171D01*
X678967D02*
X676568D01*
X675368Y32056D01*
Y34455D01*
X676568Y35655D01*
X678967D01*
X680167Y34455D01*
Y33256D01*
X675368D01*
X558802Y38054D02*
Y33256D01*
X561201Y30856D01*
X563601Y33256D01*
Y38054D01*
X566000Y30856D02*
X568399D01*
X567200D01*
Y35655D01*
X566000D01*
X573198D02*
X575597D01*
X576796Y34455D01*
Y30856D01*
X573198D01*
X571998Y32056D01*
X573198Y33256D01*
X576796D01*
X579196Y30856D02*
X583994Y35655D01*
X586393Y30856D02*
Y38054D01*
X589992D01*
X591192Y36854D01*
Y34455D01*
X589992Y33256D01*
X586393D01*
X594791Y35655D02*
X597190D01*
X598389Y34455D01*
Y30856D01*
X594791D01*
X593591Y32056D01*
X594791Y33256D01*
X598389D01*
X605587Y38054D02*
Y30856D01*
X601988D01*
X600789Y32056D01*
Y34455D01*
X601988Y35655D01*
X605587D01*
X485422Y38054D02*
Y30856D01*
Y34455D01*
X490220D01*
Y38054D01*
Y30856D01*
X493819D02*
X496219D01*
X497418Y32056D01*
Y34455D01*
X496219Y35655D01*
X493819D01*
X492620Y34455D01*
Y32056D01*
X493819Y30856D01*
X499817D02*
X502217D01*
X501017D01*
Y38054D01*
X499817D01*
X509414Y30856D02*
X507015D01*
X505816Y32056D01*
Y34455D01*
X507015Y35655D01*
X509414D01*
X510614Y34455D01*
Y33256D01*
X505816D01*
X520211Y38054D02*
X525009D01*
X522610D01*
Y30856D01*
X527409Y35655D02*
Y32056D01*
X528608Y30856D01*
X532207D01*
Y29657D01*
X531007Y28457D01*
X529808D01*
X532207Y30856D02*
Y35655D01*
X534606Y28457D02*
Y35655D01*
X538205D01*
X539405Y34455D01*
Y32056D01*
X538205Y30856D01*
X534606D01*
X545403D02*
X543003D01*
X541804Y32056D01*
Y34455D01*
X543003Y35655D01*
X545403D01*
X546602Y34455D01*
Y33256D01*
X541804D01*
X434834Y30856D02*
Y38054D01*
X438433D01*
X439633Y36854D01*
Y34455D01*
X438433Y33256D01*
X434834D01*
X442032Y30856D02*
X444431D01*
X443232D01*
Y38054D01*
X442032D01*
X449230Y35655D02*
X451629D01*
X452829Y34455D01*
Y30856D01*
X449230D01*
X448030Y32056D01*
X449230Y33256D01*
X452829D01*
X456427Y36854D02*
Y35655D01*
X455228D01*
X457627D01*
X456427D01*
Y32056D01*
X457627Y30856D01*
X464825D02*
X462426D01*
X461226Y32056D01*
Y34455D01*
X462426Y35655D01*
X464825D01*
X466024Y34455D01*
Y33256D01*
X461226D01*
X473222Y38054D02*
Y30856D01*
X469623D01*
X468424Y32056D01*
Y34455D01*
X469623Y35655D01*
X473222D01*
X322867Y38054D02*
Y30856D01*
Y34455D01*
X327666D01*
Y38054D01*
Y30856D01*
X331264D02*
X333664D01*
X334863Y32056D01*
Y34455D01*
X333664Y35655D01*
X331264D01*
X330065Y34455D01*
Y32056D01*
X331264Y30856D01*
X337263D02*
X339662D01*
X338462D01*
Y38054D01*
X337263D01*
X346859Y30856D02*
X344460D01*
X343261Y32056D01*
Y34455D01*
X344460Y35655D01*
X346859D01*
X348059Y34455D01*
Y33256D01*
X343261D01*
X362454Y36854D02*
X361255Y38054D01*
X358856D01*
X357656Y36854D01*
Y35655D01*
X358856Y34455D01*
X361255D01*
X362454Y33256D01*
Y32056D01*
X361255Y30856D01*
X358856D01*
X357656Y32056D01*
X364854Y30856D02*
X367253D01*
X366053D01*
Y35655D01*
X364854D01*
X370852D02*
X375650D01*
X370852Y30856D01*
X375650D01*
X381648D02*
X379249D01*
X378049Y32056D01*
Y34455D01*
X379249Y35655D01*
X381648D01*
X382848Y34455D01*
Y33256D01*
X378049D01*
X273679Y36854D02*
X272480Y38054D01*
X270081D01*
X268881Y36854D01*
Y32056D01*
X270081Y30856D01*
X272480D01*
X273679Y32056D01*
X277278Y30856D02*
X279678D01*
X280877Y32056D01*
Y34455D01*
X279678Y35655D01*
X277278D01*
X276079Y34455D01*
Y32056D01*
X277278Y30856D01*
X283276Y35655D02*
Y32056D01*
X284476Y30856D01*
X288075D01*
Y35655D01*
X290474Y30856D02*
Y35655D01*
X294073D01*
X295272Y34455D01*
Y30856D01*
X298871Y36854D02*
Y35655D01*
X297672D01*
X300071D01*
X298871D01*
Y32056D01*
X300071Y30856D01*
X223092Y36854D02*
X221892Y38054D01*
X219493D01*
X218293Y36854D01*
Y35655D01*
X219493Y34455D01*
X221892D01*
X223092Y33256D01*
Y32056D01*
X221892Y30856D01*
X219493D01*
X218293Y32056D01*
X225491Y35655D02*
Y32056D01*
X226691Y30856D01*
X230290D01*
Y29657D01*
X229090Y28457D01*
X227890D01*
X230290Y30856D02*
Y35655D01*
X232689Y30856D02*
Y35655D01*
X233889D01*
X235088Y34455D01*
Y30856D01*
Y34455D01*
X236288Y35655D01*
X237487Y34455D01*
Y30856D01*
X239886Y38054D02*
Y30856D01*
X243485D01*
X244685Y32056D01*
Y33256D01*
Y34455D01*
X243485Y35655D01*
X239886D01*
X248284Y30856D02*
X250683D01*
X251883Y32056D01*
Y34455D01*
X250683Y35655D01*
X248284D01*
X247084Y34455D01*
Y32056D01*
X248284Y30856D01*
X254282D02*
X256681D01*
X255482D01*
Y38054D01*
X254282D01*
M02*
