M48
;Layer_Color=9474304
;FILE_FORMAT=2:5
INCH,LZ
;TYPE=PLATED
T1F00S00C0.01575
T2F00S00C0.02362
T3F00S00C0.03000
T4F00S00C0.03150
T5F00S00C0.03543
;TYPE=NON_PLATED
T6F00S00C0.11811
%
T01
X006715Y-0076
X002985Y-006135
X0009Y-00705
X-00035Y-00675
X-00055Y-0024
X-00095
X-00135
X-00175
X-0001
X002639
X00175Y-00425
X0044
X0038Y0008
X002639Y0006
X00565Y0008
X005Y0065
X0036226Y0072774
X0021Y00725
X0005Y0077
X0000841Y0072
X-00025Y0068
X-00645Y00825
X-0084Y00745
X-0083Y00565
X-005Y00115
X-00245Y-0006
X-00705Y-0015
Y-002
Y-0025
X-0075748
Y-002
Y-0015
X0076Y-00225
X0069Y00015
T02
X-00185Y-0052
X-0014
X-00095
X-00094Y-00461
X-00139
X-00184
T03
X-0009Y-0034
Y-0014
T04
X00775Y-00725
X00875
X-0037Y-007
X-0047
T05
X-00615Y-00945
X-00515
X-00355
X-00255
X00315
X00415
X00515
X00615
X0047Y00885
Y00985
X0037
Y00885
X0027
Y00985
X007Y0071
Y0061
Y0051
Y0041
X00825
Y0051
Y0061
Y0071
Y0028
Y0018
Y0008
T06
X0084646Y-0094488
X-0084646
Y0102362
X0084646
M30
