G04*
G04 #@! TF.GenerationSoftware,Altium Limited,Altium Designer,23.3.1 (30)*
G04*
G04 Layer_Color=16711935*
%FSLAX25Y25*%
%MOIN*%
G70*
G04*
G04 #@! TF.SameCoordinates,97A15D6B-2EEB-42C3-8D6F-FEDD3E2C4342*
G04*
G04*
G04 #@! TF.FilePolarity,Negative*
G04*
G01*
G75*
%ADD55C,0.14580*%
%ADD56R,0.06706X0.06706*%
%ADD57C,0.06706*%
%ADD58C,0.05524*%
%ADD59R,0.05524X0.05524*%
%ADD61R,0.06706X0.06706*%
%ADD62R,0.06706X0.08674*%
%ADD63O,0.06706X0.08674*%
G36*
X151648Y-124874D02*
X151689Y-124876D01*
X151733Y-124882D01*
X151785Y-124887D01*
X151839Y-124898D01*
X151894Y-124909D01*
X151954Y-124923D01*
X152014Y-124939D01*
X152071Y-124958D01*
X152129Y-124983D01*
X152186Y-125013D01*
X152238Y-125043D01*
X152284Y-125081D01*
X152287Y-125084D01*
X152295Y-125089D01*
X152306Y-125103D01*
X152322Y-125119D01*
X152341Y-125138D01*
X152361Y-125166D01*
X152382Y-125196D01*
X152407Y-125229D01*
X152429Y-125267D01*
X152451Y-125308D01*
X152472Y-125354D01*
X152492Y-125403D01*
X152511Y-125455D01*
X152524Y-125512D01*
X152533Y-125573D01*
X152538Y-125635D01*
X152030Y-125654D01*
Y-125652D01*
X152027Y-125646D01*
Y-125635D01*
X152025Y-125624D01*
X152019Y-125608D01*
X152014Y-125589D01*
X152000Y-125548D01*
X151981Y-125504D01*
X151957Y-125458D01*
X151927Y-125414D01*
X151888Y-125379D01*
X151883Y-125376D01*
X151869Y-125365D01*
X151845Y-125351D01*
X151809Y-125335D01*
X151763Y-125319D01*
X151708Y-125305D01*
X151643Y-125294D01*
X151566Y-125291D01*
X151531D01*
X151512Y-125294D01*
X151490Y-125297D01*
X151438Y-125302D01*
X151383Y-125313D01*
X151323Y-125329D01*
X151269Y-125354D01*
X151217Y-125384D01*
X151214Y-125387D01*
X151206Y-125395D01*
X151192Y-125409D01*
X151179Y-125425D01*
X151162Y-125447D01*
X151151Y-125474D01*
X151140Y-125504D01*
X151138Y-125540D01*
Y-125542D01*
Y-125553D01*
X151140Y-125573D01*
X151146Y-125592D01*
X151157Y-125616D01*
X151168Y-125644D01*
X151187Y-125668D01*
X151211Y-125693D01*
X151217Y-125695D01*
X151222Y-125701D01*
X151233Y-125706D01*
X151244Y-125715D01*
X151260Y-125723D01*
X151282Y-125734D01*
X151307Y-125744D01*
X151334Y-125755D01*
X151367Y-125769D01*
X151405Y-125783D01*
X151449Y-125796D01*
X151498Y-125813D01*
X151552Y-125829D01*
X151613Y-125846D01*
X151678Y-125862D01*
X151684D01*
X151695Y-125865D01*
X151714Y-125870D01*
X151738Y-125875D01*
X151771Y-125884D01*
X151804Y-125895D01*
X151845Y-125906D01*
X151886Y-125917D01*
X151976Y-125944D01*
X152066Y-125974D01*
X152109Y-125990D01*
X152153Y-126007D01*
X152191Y-126026D01*
X152227Y-126042D01*
X152230D01*
X152235Y-126048D01*
X152243Y-126053D01*
X152257Y-126058D01*
X152290Y-126080D01*
X152331Y-126108D01*
X152374Y-126146D01*
X152421Y-126189D01*
X152467Y-126241D01*
X152508Y-126299D01*
Y-126301D01*
X152514Y-126307D01*
X152516Y-126315D01*
X152524Y-126329D01*
X152533Y-126345D01*
X152541Y-126364D01*
X152549Y-126386D01*
X152560Y-126411D01*
X152568Y-126438D01*
X152576Y-126468D01*
X152593Y-126536D01*
X152604Y-126615D01*
X152609Y-126700D01*
Y-126703D01*
Y-126708D01*
Y-126722D01*
X152606Y-126735D01*
Y-126755D01*
X152604Y-126779D01*
X152598Y-126804D01*
X152593Y-126831D01*
X152579Y-126894D01*
X152557Y-126962D01*
X152527Y-127033D01*
X152508Y-127071D01*
X152486Y-127107D01*
Y-127110D01*
X152481Y-127115D01*
X152472Y-127126D01*
X152464Y-127137D01*
X152451Y-127153D01*
X152437Y-127172D01*
X152399Y-127213D01*
X152350Y-127257D01*
X152292Y-127306D01*
X152224Y-127350D01*
X152145Y-127388D01*
X152142D01*
X152134Y-127391D01*
X152123Y-127396D01*
X152107Y-127402D01*
X152085Y-127410D01*
X152058Y-127415D01*
X152027Y-127423D01*
X151995Y-127432D01*
X151957Y-127443D01*
X151916Y-127451D01*
X151869Y-127456D01*
X151820Y-127464D01*
X151771Y-127470D01*
X151714Y-127475D01*
X151656Y-127478D01*
X151574D01*
X151550Y-127475D01*
X151517D01*
X151479Y-127473D01*
X151432Y-127467D01*
X151381Y-127459D01*
X151326Y-127451D01*
X151266Y-127440D01*
X151206Y-127423D01*
X151146Y-127407D01*
X151086Y-127385D01*
X151026Y-127361D01*
X150968Y-127331D01*
X150914Y-127298D01*
X150862Y-127260D01*
X150859Y-127257D01*
X150851Y-127249D01*
X150837Y-127235D01*
X150821Y-127219D01*
X150802Y-127194D01*
X150777Y-127167D01*
X150753Y-127134D01*
X150728Y-127096D01*
X150701Y-127052D01*
X150673Y-127006D01*
X150649Y-126951D01*
X150624Y-126894D01*
X150602Y-126831D01*
X150583Y-126766D01*
X150567Y-126692D01*
X150556Y-126615D01*
X151050Y-126566D01*
Y-126569D01*
X151053Y-126577D01*
X151056Y-126591D01*
X151058Y-126607D01*
X151064Y-126629D01*
X151072Y-126651D01*
X151088Y-126705D01*
X151113Y-126766D01*
X151146Y-126828D01*
X151184Y-126886D01*
X151206Y-126910D01*
X151230Y-126935D01*
X151233D01*
X151236Y-126940D01*
X151244Y-126946D01*
X151255Y-126954D01*
X151269Y-126962D01*
X151288Y-126970D01*
X151307Y-126981D01*
X151329Y-126992D01*
X151383Y-127014D01*
X151446Y-127030D01*
X151520Y-127044D01*
X151602Y-127049D01*
X151626D01*
X151643Y-127047D01*
X151664D01*
X151686Y-127044D01*
X151741Y-127036D01*
X151801Y-127025D01*
X151864Y-127006D01*
X151924Y-126981D01*
X151951Y-126965D01*
X151976Y-126946D01*
X151978D01*
X151981Y-126940D01*
X151995Y-126927D01*
X152017Y-126905D01*
X152039Y-126877D01*
X152060Y-126842D01*
X152082Y-126798D01*
X152096Y-126752D01*
X152101Y-126727D01*
Y-126703D01*
Y-126700D01*
Y-126686D01*
X152099Y-126670D01*
X152096Y-126651D01*
X152088Y-126626D01*
X152079Y-126599D01*
X152066Y-126574D01*
X152047Y-126550D01*
X152044Y-126547D01*
X152036Y-126539D01*
X152022Y-126528D01*
X152006Y-126512D01*
X151978Y-126495D01*
X151948Y-126476D01*
X151910Y-126460D01*
X151864Y-126441D01*
X151858Y-126438D01*
X151853D01*
X151845Y-126435D01*
X151834Y-126432D01*
X151817Y-126427D01*
X151801Y-126421D01*
X151779Y-126416D01*
X151754Y-126408D01*
X151725Y-126400D01*
X151692Y-126391D01*
X151654Y-126381D01*
X151613Y-126370D01*
X151566Y-126359D01*
X151514Y-126345D01*
X151457Y-126331D01*
X151452D01*
X151438Y-126326D01*
X151419Y-126321D01*
X151391Y-126312D01*
X151356Y-126304D01*
X151318Y-126291D01*
X151277Y-126277D01*
X151233Y-126263D01*
X151138Y-126225D01*
X151042Y-126184D01*
X150998Y-126159D01*
X150955Y-126135D01*
X150916Y-126110D01*
X150884Y-126083D01*
X150881Y-126080D01*
X150873Y-126072D01*
X150862Y-126061D01*
X150848Y-126045D01*
X150829Y-126026D01*
X150810Y-126001D01*
X150788Y-125974D01*
X150769Y-125941D01*
X150747Y-125906D01*
X150725Y-125867D01*
X150706Y-125824D01*
X150687Y-125780D01*
X150673Y-125734D01*
X150663Y-125682D01*
X150654Y-125630D01*
X150652Y-125575D01*
Y-125573D01*
Y-125567D01*
Y-125556D01*
X150654Y-125542D01*
Y-125526D01*
X150657Y-125504D01*
X150665Y-125458D01*
X150679Y-125403D01*
X150698Y-125340D01*
X150725Y-125278D01*
X150761Y-125215D01*
Y-125212D01*
X150766Y-125207D01*
X150772Y-125198D01*
X150780Y-125188D01*
X150807Y-125157D01*
X150840Y-125119D01*
X150886Y-125078D01*
X150938Y-125037D01*
X151004Y-124996D01*
X151075Y-124961D01*
X151077D01*
X151083Y-124958D01*
X151097Y-124953D01*
X151110Y-124947D01*
X151132Y-124939D01*
X151154Y-124934D01*
X151181Y-124925D01*
X151214Y-124915D01*
X151250Y-124906D01*
X151285Y-124898D01*
X151326Y-124893D01*
X151370Y-124884D01*
X151419Y-124879D01*
X151465Y-124874D01*
X151572Y-124871D01*
X151618D01*
X151648Y-124874D01*
D02*
G37*
G36*
X157832Y-127432D02*
X157384D01*
Y-127167D01*
X157378Y-127172D01*
X157373Y-127181D01*
X157365Y-127189D01*
X157340Y-127219D01*
X157310Y-127251D01*
X157269Y-127290D01*
X157226Y-127331D01*
X157174Y-127366D01*
X157119Y-127399D01*
X157116D01*
X157114Y-127402D01*
X157103Y-127404D01*
X157092Y-127410D01*
X157062Y-127423D01*
X157024Y-127434D01*
X156977Y-127448D01*
X156925Y-127462D01*
X156871Y-127470D01*
X156813Y-127473D01*
X156800D01*
X156783Y-127470D01*
X156761D01*
X156734Y-127464D01*
X156701Y-127459D01*
X156666Y-127451D01*
X156628Y-127440D01*
X156587Y-127429D01*
X156543Y-127412D01*
X156499Y-127391D01*
X156453Y-127366D01*
X156409Y-127339D01*
X156363Y-127303D01*
X156319Y-127265D01*
X156275Y-127221D01*
X156273Y-127219D01*
X156267Y-127210D01*
X156254Y-127194D01*
X156240Y-127175D01*
X156224Y-127148D01*
X156204Y-127118D01*
X156185Y-127079D01*
X156164Y-127039D01*
X156142Y-126989D01*
X156123Y-126937D01*
X156103Y-126877D01*
X156087Y-126815D01*
X156073Y-126746D01*
X156062Y-126673D01*
X156054Y-126593D01*
X156052Y-126512D01*
Y-126506D01*
Y-126490D01*
X156054Y-126468D01*
Y-126435D01*
X156057Y-126397D01*
X156062Y-126353D01*
X156071Y-126301D01*
X156079Y-126250D01*
X156090Y-126192D01*
X156103Y-126135D01*
X156123Y-126077D01*
X156142Y-126017D01*
X156166Y-125960D01*
X156196Y-125906D01*
X156229Y-125854D01*
X156267Y-125807D01*
X156270Y-125804D01*
X156278Y-125796D01*
X156289Y-125785D01*
X156306Y-125769D01*
X156327Y-125750D01*
X156355Y-125731D01*
X156385Y-125709D01*
X156417Y-125684D01*
X156456Y-125663D01*
X156499Y-125641D01*
X156543Y-125622D01*
X156592Y-125602D01*
X156644Y-125586D01*
X156699Y-125575D01*
X156759Y-125567D01*
X156819Y-125564D01*
X156832D01*
X156849Y-125567D01*
X156871D01*
X156898Y-125573D01*
X156928Y-125578D01*
X156961Y-125586D01*
X156999Y-125597D01*
X157040Y-125611D01*
X157083Y-125627D01*
X157127Y-125649D01*
X157171Y-125673D01*
X157217Y-125701D01*
X157261Y-125736D01*
X157305Y-125775D01*
X157348Y-125821D01*
Y-124912D01*
X157832D01*
Y-127432D01*
D02*
G37*
G36*
X148681Y-125567D02*
X148700Y-125570D01*
X148746Y-125575D01*
X148798Y-125583D01*
X148855Y-125600D01*
X148913Y-125619D01*
X148967Y-125646D01*
X148970D01*
X148973Y-125649D01*
X148989Y-125663D01*
X149014Y-125682D01*
X149046Y-125706D01*
X149079Y-125742D01*
X149115Y-125783D01*
X149147Y-125832D01*
X149175Y-125886D01*
X149177Y-125892D01*
X149180Y-125900D01*
X149183Y-125908D01*
X149186Y-125922D01*
X149191Y-125938D01*
X149197Y-125955D01*
X149202Y-125977D01*
X149205Y-126004D01*
X149210Y-126031D01*
X149216Y-126061D01*
X149218Y-126097D01*
X149221Y-126132D01*
X149224Y-126173D01*
X149227Y-126219D01*
Y-126266D01*
Y-127432D01*
X148743D01*
Y-126389D01*
Y-126386D01*
Y-126378D01*
Y-126364D01*
Y-126345D01*
X148741Y-126323D01*
Y-126299D01*
X148738Y-126241D01*
X148730Y-126184D01*
X148722Y-126124D01*
X148716Y-126099D01*
X148708Y-126075D01*
X148700Y-126053D01*
X148691Y-126037D01*
X148689Y-126031D01*
X148678Y-126020D01*
X148664Y-126004D01*
X148642Y-125985D01*
X148612Y-125966D01*
X148577Y-125949D01*
X148536Y-125938D01*
X148487Y-125933D01*
X148470D01*
X148451Y-125936D01*
X148424Y-125941D01*
X148397Y-125949D01*
X148364Y-125960D01*
X148331Y-125974D01*
X148296Y-125996D01*
X148293Y-125998D01*
X148282Y-126007D01*
X148266Y-126023D01*
X148247Y-126042D01*
X148225Y-126067D01*
X148203Y-126099D01*
X148184Y-126135D01*
X148167Y-126179D01*
X148165Y-126184D01*
Y-126192D01*
X148162Y-126200D01*
X148159Y-126214D01*
X148156Y-126230D01*
X148151Y-126247D01*
X148148Y-126269D01*
X148145Y-126293D01*
X148140Y-126323D01*
X148137Y-126353D01*
X148135Y-126386D01*
X148132Y-126424D01*
Y-126465D01*
X148129Y-126509D01*
Y-126555D01*
Y-127432D01*
X147646D01*
Y-126432D01*
Y-126430D01*
Y-126421D01*
Y-126408D01*
Y-126389D01*
Y-126367D01*
Y-126342D01*
X147643Y-126288D01*
X147640Y-126230D01*
X147635Y-126173D01*
X147632Y-126148D01*
X147627Y-126124D01*
X147624Y-126105D01*
X147619Y-126089D01*
Y-126086D01*
X147613Y-126075D01*
X147608Y-126061D01*
X147599Y-126045D01*
X147575Y-126007D01*
X147558Y-125988D01*
X147539Y-125971D01*
X147537Y-125968D01*
X147529Y-125966D01*
X147518Y-125960D01*
X147501Y-125952D01*
X147479Y-125944D01*
X147455Y-125938D01*
X147425Y-125936D01*
X147392Y-125933D01*
X147373D01*
X147351Y-125936D01*
X147324Y-125941D01*
X147294Y-125949D01*
X147261Y-125960D01*
X147225Y-125974D01*
X147190Y-125996D01*
X147187Y-125998D01*
X147176Y-126007D01*
X147160Y-126020D01*
X147141Y-126039D01*
X147122Y-126064D01*
X147100Y-126094D01*
X147081Y-126129D01*
X147064Y-126170D01*
X147062Y-126176D01*
Y-126181D01*
X147059Y-126192D01*
X147056Y-126203D01*
X147054Y-126219D01*
X147048Y-126239D01*
X147045Y-126258D01*
X147043Y-126282D01*
X147037Y-126310D01*
X147034Y-126342D01*
X147032Y-126375D01*
X147029Y-126413D01*
Y-126454D01*
X147026Y-126498D01*
Y-126544D01*
Y-127432D01*
X146543D01*
Y-125605D01*
X146988D01*
Y-125856D01*
X146991Y-125854D01*
X146999Y-125843D01*
X147012Y-125829D01*
X147032Y-125810D01*
X147054Y-125788D01*
X147081Y-125764D01*
X147114Y-125736D01*
X147149Y-125709D01*
X147187Y-125682D01*
X147231Y-125657D01*
X147277Y-125633D01*
X147327Y-125611D01*
X147381Y-125592D01*
X147436Y-125578D01*
X147496Y-125567D01*
X147556Y-125564D01*
X147586D01*
X147599Y-125567D01*
X147619D01*
X147660Y-125573D01*
X147706Y-125583D01*
X147758Y-125594D01*
X147810Y-125613D01*
X147859Y-125638D01*
X147862D01*
X147864Y-125641D01*
X147881Y-125652D01*
X147905Y-125668D01*
X147935Y-125693D01*
X147968Y-125723D01*
X148003Y-125761D01*
X148039Y-125804D01*
X148072Y-125856D01*
X148074Y-125854D01*
X148077Y-125851D01*
X148083Y-125843D01*
X148094Y-125832D01*
X148118Y-125807D01*
X148148Y-125775D01*
X148189Y-125739D01*
X148233Y-125701D01*
X148279Y-125668D01*
X148331Y-125638D01*
X148334D01*
X148337Y-125635D01*
X148345Y-125630D01*
X148356Y-125627D01*
X148383Y-125613D01*
X148421Y-125600D01*
X148465Y-125589D01*
X148517Y-125575D01*
X148571Y-125567D01*
X148629Y-125564D01*
X148661D01*
X148681Y-125567D01*
D02*
G37*
G36*
X161151D02*
X161168Y-125570D01*
X161208Y-125575D01*
X161258Y-125586D01*
X161312Y-125602D01*
X161370Y-125627D01*
X161427Y-125657D01*
X161277Y-126077D01*
X161271Y-126075D01*
X161255Y-126064D01*
X161233Y-126053D01*
X161203Y-126037D01*
X161168Y-126023D01*
X161129Y-126009D01*
X161091Y-126001D01*
X161050Y-125998D01*
X161034D01*
X161015Y-126001D01*
X160990Y-126007D01*
X160963Y-126012D01*
X160935Y-126023D01*
X160906Y-126037D01*
X160878Y-126056D01*
X160875Y-126058D01*
X160867Y-126067D01*
X160854Y-126080D01*
X160837Y-126102D01*
X160821Y-126129D01*
X160802Y-126165D01*
X160783Y-126206D01*
X160766Y-126258D01*
Y-126260D01*
X160764Y-126266D01*
Y-126274D01*
X160761Y-126288D01*
X160758Y-126304D01*
X160755Y-126329D01*
X160750Y-126356D01*
X160747Y-126389D01*
X160744Y-126427D01*
X160739Y-126471D01*
X160736Y-126520D01*
X160733Y-126577D01*
X160731Y-126640D01*
Y-126708D01*
X160728Y-126785D01*
Y-126869D01*
Y-127432D01*
X160245D01*
Y-125605D01*
X160693D01*
Y-125867D01*
X160695Y-125865D01*
X160698Y-125859D01*
X160704Y-125851D01*
X160712Y-125837D01*
X160733Y-125804D01*
X160761Y-125766D01*
X160794Y-125725D01*
X160826Y-125687D01*
X160862Y-125652D01*
X160881Y-125635D01*
X160897Y-125624D01*
X160903Y-125622D01*
X160914Y-125616D01*
X160933Y-125605D01*
X160957Y-125594D01*
X160990Y-125583D01*
X161026Y-125573D01*
X161064Y-125567D01*
X161108Y-125564D01*
X161135D01*
X161151Y-125567D01*
D02*
G37*
G36*
X155667Y-127432D02*
X155183D01*
Y-124912D01*
X155667D01*
Y-127432D01*
D02*
G37*
G36*
X138544Y-124915D02*
X138577D01*
X138651Y-124917D01*
X138724Y-124923D01*
X138795Y-124931D01*
X138825Y-124934D01*
X138855Y-124939D01*
X138861D01*
X138869Y-124942D01*
X138880Y-124945D01*
X138907Y-124950D01*
X138943Y-124961D01*
X138984Y-124975D01*
X139027Y-124994D01*
X139074Y-125016D01*
X139117Y-125043D01*
X139120D01*
X139123Y-125046D01*
X139137Y-125057D01*
X139158Y-125076D01*
X139186Y-125098D01*
X139216Y-125130D01*
X139248Y-125166D01*
X139281Y-125207D01*
X139311Y-125253D01*
Y-125256D01*
X139314Y-125259D01*
X139319Y-125267D01*
X139325Y-125275D01*
X139336Y-125302D01*
X139352Y-125338D01*
X139366Y-125381D01*
X139380Y-125433D01*
X139388Y-125488D01*
X139390Y-125548D01*
Y-125551D01*
Y-125556D01*
Y-125564D01*
X139388Y-125578D01*
Y-125594D01*
X139385Y-125611D01*
X139380Y-125654D01*
X139366Y-125706D01*
X139349Y-125761D01*
X139328Y-125815D01*
X139295Y-125873D01*
Y-125875D01*
X139289Y-125878D01*
X139284Y-125886D01*
X139278Y-125897D01*
X139257Y-125922D01*
X139227Y-125955D01*
X139188Y-125990D01*
X139145Y-126028D01*
X139093Y-126064D01*
X139035Y-126094D01*
X139038D01*
X139046Y-126097D01*
X139057Y-126102D01*
X139074Y-126108D01*
X139093Y-126116D01*
X139115Y-126124D01*
X139166Y-126148D01*
X139221Y-126179D01*
X139281Y-126219D01*
X139339Y-126266D01*
X139388Y-126323D01*
X139390Y-126326D01*
X139393Y-126331D01*
X139399Y-126340D01*
X139407Y-126350D01*
X139418Y-126367D01*
X139429Y-126386D01*
X139439Y-126408D01*
X139450Y-126430D01*
X139472Y-126487D01*
X139494Y-126550D01*
X139508Y-126624D01*
X139513Y-126662D01*
Y-126703D01*
Y-126705D01*
Y-126711D01*
Y-126719D01*
Y-126733D01*
X139511Y-126746D01*
X139508Y-126766D01*
X139502Y-126809D01*
X139494Y-126861D01*
X139478Y-126916D01*
X139459Y-126976D01*
X139431Y-127039D01*
Y-127041D01*
X139429Y-127047D01*
X139423Y-127055D01*
X139418Y-127066D01*
X139399Y-127096D01*
X139374Y-127131D01*
X139344Y-127172D01*
X139306Y-127216D01*
X139262Y-127260D01*
X139213Y-127298D01*
X139210D01*
X139207Y-127301D01*
X139199Y-127306D01*
X139188Y-127314D01*
X139175Y-127320D01*
X139158Y-127328D01*
X139120Y-127347D01*
X139071Y-127369D01*
X139011Y-127388D01*
X138945Y-127404D01*
X138872Y-127415D01*
X138858D01*
X138844Y-127418D01*
X138828D01*
X138806Y-127421D01*
X138779D01*
X138749Y-127423D01*
X138711D01*
X138667Y-127426D01*
X138618D01*
X138560Y-127429D01*
X138427D01*
X138347Y-127432D01*
X137403D01*
Y-124912D01*
X138511D01*
X138544Y-124915D01*
D02*
G37*
G36*
X159041Y-125567D02*
X159071Y-125570D01*
X159104Y-125573D01*
X159145Y-125578D01*
X159188Y-125586D01*
X159235Y-125597D01*
X159287Y-125613D01*
X159338Y-125630D01*
X159390Y-125652D01*
X159445Y-125679D01*
X159497Y-125709D01*
X159549Y-125744D01*
X159598Y-125788D01*
X159644Y-125835D01*
X159647Y-125837D01*
X159655Y-125848D01*
X159666Y-125862D01*
X159680Y-125884D01*
X159699Y-125914D01*
X159718Y-125949D01*
X159740Y-125990D01*
X159762Y-126037D01*
X159783Y-126091D01*
X159803Y-126154D01*
X159822Y-126219D01*
X159838Y-126293D01*
X159852Y-126375D01*
X159863Y-126462D01*
X159871Y-126555D01*
Y-126656D01*
X158661D01*
Y-126659D01*
Y-126664D01*
Y-126678D01*
X158664Y-126692D01*
X158667Y-126711D01*
X158670Y-126733D01*
X158678Y-126779D01*
X158692Y-126834D01*
X158711Y-126891D01*
X158738Y-126946D01*
X158776Y-126995D01*
X158779D01*
X158782Y-127000D01*
X158795Y-127014D01*
X158820Y-127033D01*
X158853Y-127052D01*
X158894Y-127074D01*
X158943Y-127093D01*
X158997Y-127107D01*
X159027Y-127110D01*
X159057Y-127112D01*
X159076D01*
X159096Y-127110D01*
X159123Y-127104D01*
X159153Y-127099D01*
X159183Y-127088D01*
X159216Y-127071D01*
X159246Y-127052D01*
X159248Y-127049D01*
X159259Y-127041D01*
X159273Y-127025D01*
X159289Y-127003D01*
X159311Y-126976D01*
X159330Y-126940D01*
X159349Y-126899D01*
X159366Y-126850D01*
X159846Y-126932D01*
Y-126935D01*
X159841Y-126943D01*
X159835Y-126957D01*
X159830Y-126976D01*
X159819Y-126998D01*
X159805Y-127022D01*
X159792Y-127052D01*
X159775Y-127082D01*
X159734Y-127148D01*
X159683Y-127213D01*
X159622Y-127279D01*
X159587Y-127309D01*
X159551Y-127336D01*
X159549Y-127339D01*
X159543Y-127341D01*
X159532Y-127350D01*
X159516Y-127358D01*
X159497Y-127369D01*
X159472Y-127380D01*
X159445Y-127391D01*
X159415Y-127404D01*
X159379Y-127418D01*
X159341Y-127429D01*
X159300Y-127440D01*
X159257Y-127451D01*
X159210Y-127459D01*
X159158Y-127467D01*
X159106Y-127470D01*
X159052Y-127473D01*
X159030D01*
X159005Y-127470D01*
X158973Y-127467D01*
X158934Y-127464D01*
X158888Y-127456D01*
X158839Y-127448D01*
X158784Y-127434D01*
X158727Y-127418D01*
X158670Y-127396D01*
X158612Y-127372D01*
X158552Y-127341D01*
X158498Y-127306D01*
X158443Y-127265D01*
X158394Y-127219D01*
X158347Y-127164D01*
X158345Y-127161D01*
X158339Y-127153D01*
X158331Y-127139D01*
X158320Y-127118D01*
X158307Y-127093D01*
X158290Y-127066D01*
X158274Y-127030D01*
X158257Y-126992D01*
X158241Y-126948D01*
X158225Y-126899D01*
X158208Y-126847D01*
X158195Y-126793D01*
X158184Y-126733D01*
X158176Y-126670D01*
X158170Y-126602D01*
X158167Y-126533D01*
Y-126528D01*
Y-126514D01*
X158170Y-126490D01*
Y-126460D01*
X158176Y-126421D01*
X158181Y-126375D01*
X158186Y-126329D01*
X158197Y-126274D01*
X158208Y-126219D01*
X158225Y-126162D01*
X158244Y-126102D01*
X158266Y-126042D01*
X158293Y-125985D01*
X158326Y-125927D01*
X158361Y-125873D01*
X158402Y-125824D01*
X158405Y-125821D01*
X158413Y-125813D01*
X158427Y-125799D01*
X158446Y-125783D01*
X158468Y-125764D01*
X158498Y-125742D01*
X158530Y-125717D01*
X158566Y-125693D01*
X158607Y-125671D01*
X158653Y-125646D01*
X158702Y-125624D01*
X158757Y-125605D01*
X158812Y-125589D01*
X158872Y-125575D01*
X158937Y-125567D01*
X159003Y-125564D01*
X159022D01*
X159041Y-125567D01*
D02*
G37*
G36*
X153900D02*
X153928Y-125570D01*
X153963Y-125573D01*
X154004Y-125578D01*
X154051Y-125586D01*
X154100Y-125597D01*
X154151Y-125613D01*
X154206Y-125630D01*
X154263Y-125652D01*
X154318Y-125679D01*
X154375Y-125709D01*
X154433Y-125744D01*
X154484Y-125788D01*
X154536Y-125835D01*
X154539Y-125837D01*
X154547Y-125848D01*
X154561Y-125862D01*
X154577Y-125884D01*
X154599Y-125911D01*
X154621Y-125941D01*
X154643Y-125979D01*
X154670Y-126020D01*
X154695Y-126067D01*
X154717Y-126119D01*
X154741Y-126176D01*
X154760Y-126236D01*
X154777Y-126299D01*
X154790Y-126367D01*
X154798Y-126438D01*
X154801Y-126514D01*
Y-126520D01*
Y-126533D01*
X154798Y-126555D01*
Y-126583D01*
X154793Y-126618D01*
X154788Y-126659D01*
X154779Y-126705D01*
X154769Y-126755D01*
X154755Y-126809D01*
X154736Y-126864D01*
X154714Y-126921D01*
X154689Y-126978D01*
X154657Y-127039D01*
X154621Y-127093D01*
X154580Y-127150D01*
X154534Y-127202D01*
X154531Y-127205D01*
X154523Y-127213D01*
X154506Y-127227D01*
X154484Y-127243D01*
X154460Y-127265D01*
X154427Y-127287D01*
X154392Y-127312D01*
X154351Y-127336D01*
X154304Y-127363D01*
X154253Y-127388D01*
X154198Y-127410D01*
X154138Y-127429D01*
X154075Y-127448D01*
X154007Y-127462D01*
X153936Y-127470D01*
X153862Y-127473D01*
X153838D01*
X153818Y-127470D01*
X153797D01*
X153772Y-127467D01*
X153742Y-127464D01*
X153709Y-127459D01*
X153636Y-127445D01*
X153554Y-127426D01*
X153469Y-127399D01*
X153384Y-127361D01*
X153382Y-127358D01*
X153373Y-127355D01*
X153363Y-127350D01*
X153346Y-127339D01*
X153327Y-127328D01*
X153308Y-127312D01*
X153256Y-127276D01*
X153201Y-127230D01*
X153144Y-127172D01*
X153089Y-127104D01*
X153040Y-127028D01*
Y-127025D01*
X153035Y-127017D01*
X153030Y-127006D01*
X153021Y-126989D01*
X153013Y-126968D01*
X153002Y-126943D01*
X152994Y-126913D01*
X152983Y-126880D01*
X152972Y-126842D01*
X152961Y-126801D01*
X152950Y-126757D01*
X152942Y-126711D01*
X152934Y-126662D01*
X152928Y-126607D01*
X152926Y-126553D01*
X152923Y-126495D01*
Y-126493D01*
Y-126484D01*
Y-126471D01*
X152926Y-126454D01*
Y-126432D01*
X152928Y-126405D01*
X152934Y-126378D01*
X152937Y-126345D01*
X152953Y-126274D01*
X152972Y-126195D01*
X153002Y-126113D01*
X153018Y-126069D01*
X153040Y-126028D01*
X153043Y-126026D01*
X153046Y-126017D01*
X153054Y-126007D01*
X153062Y-125990D01*
X153073Y-125971D01*
X153089Y-125949D01*
X153125Y-125900D01*
X153174Y-125846D01*
X153232Y-125788D01*
X153297Y-125734D01*
X153373Y-125684D01*
X153376Y-125682D01*
X153384Y-125679D01*
X153395Y-125673D01*
X153412Y-125665D01*
X153434Y-125657D01*
X153458Y-125646D01*
X153485Y-125635D01*
X153515Y-125624D01*
X153551Y-125613D01*
X153589Y-125602D01*
X153671Y-125583D01*
X153761Y-125570D01*
X153810Y-125564D01*
X153878D01*
X153900Y-125567D01*
D02*
G37*
G36*
X145298D02*
X145325Y-125570D01*
X145361Y-125573D01*
X145402Y-125578D01*
X145448Y-125586D01*
X145497Y-125597D01*
X145549Y-125613D01*
X145604Y-125630D01*
X145661Y-125652D01*
X145716Y-125679D01*
X145773Y-125709D01*
X145830Y-125744D01*
X145882Y-125788D01*
X145934Y-125835D01*
X145937Y-125837D01*
X145945Y-125848D01*
X145959Y-125862D01*
X145975Y-125884D01*
X145997Y-125911D01*
X146019Y-125941D01*
X146041Y-125979D01*
X146068Y-126020D01*
X146092Y-126067D01*
X146114Y-126119D01*
X146139Y-126176D01*
X146158Y-126236D01*
X146174Y-126299D01*
X146188Y-126367D01*
X146196Y-126438D01*
X146199Y-126514D01*
Y-126520D01*
Y-126533D01*
X146196Y-126555D01*
Y-126583D01*
X146191Y-126618D01*
X146185Y-126659D01*
X146177Y-126705D01*
X146166Y-126755D01*
X146153Y-126809D01*
X146133Y-126864D01*
X146112Y-126921D01*
X146087Y-126978D01*
X146054Y-127039D01*
X146019Y-127093D01*
X145978Y-127150D01*
X145931Y-127202D01*
X145929Y-127205D01*
X145921Y-127213D01*
X145904Y-127227D01*
X145882Y-127243D01*
X145858Y-127265D01*
X145825Y-127287D01*
X145790Y-127312D01*
X145749Y-127336D01*
X145702Y-127363D01*
X145650Y-127388D01*
X145596Y-127410D01*
X145536Y-127429D01*
X145473Y-127448D01*
X145405Y-127462D01*
X145334Y-127470D01*
X145260Y-127473D01*
X145235D01*
X145216Y-127470D01*
X145194D01*
X145170Y-127467D01*
X145140Y-127464D01*
X145107Y-127459D01*
X145033Y-127445D01*
X144951Y-127426D01*
X144867Y-127399D01*
X144782Y-127361D01*
X144779Y-127358D01*
X144771Y-127355D01*
X144760Y-127350D01*
X144744Y-127339D01*
X144725Y-127328D01*
X144706Y-127312D01*
X144654Y-127276D01*
X144599Y-127230D01*
X144542Y-127172D01*
X144487Y-127104D01*
X144438Y-127028D01*
Y-127025D01*
X144433Y-127017D01*
X144427Y-127006D01*
X144419Y-126989D01*
X144411Y-126968D01*
X144400Y-126943D01*
X144392Y-126913D01*
X144381Y-126880D01*
X144370Y-126842D01*
X144359Y-126801D01*
X144348Y-126757D01*
X144340Y-126711D01*
X144332Y-126662D01*
X144326Y-126607D01*
X144324Y-126553D01*
X144321Y-126495D01*
Y-126493D01*
Y-126484D01*
Y-126471D01*
X144324Y-126454D01*
Y-126432D01*
X144326Y-126405D01*
X144332Y-126378D01*
X144334Y-126345D01*
X144351Y-126274D01*
X144370Y-126195D01*
X144400Y-126113D01*
X144416Y-126069D01*
X144438Y-126028D01*
X144441Y-126026D01*
X144444Y-126017D01*
X144452Y-126007D01*
X144460Y-125990D01*
X144471Y-125971D01*
X144487Y-125949D01*
X144523Y-125900D01*
X144572Y-125846D01*
X144629Y-125788D01*
X144695Y-125734D01*
X144771Y-125684D01*
X144774Y-125682D01*
X144782Y-125679D01*
X144793Y-125673D01*
X144809Y-125665D01*
X144831Y-125657D01*
X144856Y-125646D01*
X144883Y-125635D01*
X144913Y-125624D01*
X144949Y-125613D01*
X144987Y-125602D01*
X145069Y-125583D01*
X145159Y-125570D01*
X145208Y-125564D01*
X145276D01*
X145298Y-125567D01*
D02*
G37*
G36*
X143767Y-125605D02*
X144097D01*
Y-125990D01*
X143767D01*
Y-126727D01*
Y-126730D01*
Y-126738D01*
Y-126749D01*
Y-126763D01*
Y-126779D01*
Y-126801D01*
Y-126845D01*
X143769Y-126888D01*
Y-126932D01*
X143772Y-126951D01*
Y-126968D01*
X143775Y-126981D01*
Y-126989D01*
Y-126992D01*
X143778Y-126995D01*
X143783Y-127011D01*
X143797Y-127030D01*
X143816Y-127049D01*
X143818D01*
X143821Y-127052D01*
X143829Y-127055D01*
X143840Y-127060D01*
X143865Y-127068D01*
X143898Y-127071D01*
X143911D01*
X143925Y-127068D01*
X143947Y-127066D01*
X143974Y-127060D01*
X144009Y-127052D01*
X144048Y-127041D01*
X144091Y-127028D01*
X144135Y-127402D01*
X144132D01*
X144127Y-127404D01*
X144119Y-127407D01*
X144105Y-127412D01*
X144089Y-127418D01*
X144070Y-127423D01*
X144048Y-127432D01*
X144023Y-127437D01*
X143969Y-127451D01*
X143903Y-127462D01*
X143829Y-127470D01*
X143753Y-127473D01*
X143731D01*
X143707Y-127470D01*
X143674Y-127467D01*
X143638Y-127462D01*
X143600Y-127453D01*
X143559Y-127443D01*
X143518Y-127429D01*
X143513Y-127426D01*
X143502Y-127421D01*
X143483Y-127412D01*
X143461Y-127399D01*
X143436Y-127383D01*
X143409Y-127363D01*
X143387Y-127341D01*
X143365Y-127317D01*
X143362Y-127314D01*
X143357Y-127303D01*
X143349Y-127287D01*
X143338Y-127268D01*
X143327Y-127241D01*
X143316Y-127208D01*
X143305Y-127170D01*
X143297Y-127129D01*
Y-127123D01*
X143294Y-127112D01*
Y-127101D01*
X143292Y-127088D01*
Y-127071D01*
Y-127055D01*
X143289Y-127033D01*
Y-127008D01*
X143286Y-126981D01*
Y-126948D01*
X143283Y-126913D01*
Y-126875D01*
Y-126834D01*
Y-126787D01*
Y-125990D01*
X143062D01*
Y-125605D01*
X143283D01*
Y-125242D01*
X143767Y-124958D01*
Y-125605D01*
D02*
G37*
G36*
X142595D02*
X142926D01*
Y-125990D01*
X142595D01*
Y-126727D01*
Y-126730D01*
Y-126738D01*
Y-126749D01*
Y-126763D01*
Y-126779D01*
Y-126801D01*
Y-126845D01*
X142598Y-126888D01*
Y-126932D01*
X142601Y-126951D01*
Y-126968D01*
X142604Y-126981D01*
Y-126989D01*
Y-126992D01*
X142606Y-126995D01*
X142612Y-127011D01*
X142625Y-127030D01*
X142645Y-127049D01*
X142647D01*
X142650Y-127052D01*
X142658Y-127055D01*
X142669Y-127060D01*
X142694Y-127068D01*
X142726Y-127071D01*
X142740D01*
X142754Y-127068D01*
X142776Y-127066D01*
X142803Y-127060D01*
X142838Y-127052D01*
X142877Y-127041D01*
X142920Y-127028D01*
X142964Y-127402D01*
X142961D01*
X142956Y-127404D01*
X142948Y-127407D01*
X142934Y-127412D01*
X142918Y-127418D01*
X142898Y-127423D01*
X142877Y-127432D01*
X142852Y-127437D01*
X142797Y-127451D01*
X142732Y-127462D01*
X142658Y-127470D01*
X142582Y-127473D01*
X142560D01*
X142535Y-127470D01*
X142503Y-127467D01*
X142467Y-127462D01*
X142429Y-127453D01*
X142388Y-127443D01*
X142347Y-127429D01*
X142341Y-127426D01*
X142331Y-127421D01*
X142312Y-127412D01*
X142290Y-127399D01*
X142265Y-127383D01*
X142238Y-127363D01*
X142216Y-127341D01*
X142194Y-127317D01*
X142191Y-127314D01*
X142186Y-127303D01*
X142178Y-127287D01*
X142167Y-127268D01*
X142156Y-127241D01*
X142145Y-127208D01*
X142134Y-127170D01*
X142126Y-127129D01*
Y-127123D01*
X142123Y-127112D01*
Y-127101D01*
X142120Y-127088D01*
Y-127071D01*
Y-127055D01*
X142118Y-127033D01*
Y-127008D01*
X142115Y-126981D01*
Y-126948D01*
X142112Y-126913D01*
Y-126875D01*
Y-126834D01*
Y-126787D01*
Y-125990D01*
X141891D01*
Y-125605D01*
X142112D01*
Y-125242D01*
X142595Y-124958D01*
Y-125605D01*
D02*
G37*
G36*
X140807Y-125567D02*
X140834Y-125570D01*
X140870Y-125573D01*
X140911Y-125578D01*
X140957Y-125586D01*
X141007Y-125597D01*
X141058Y-125613D01*
X141113Y-125630D01*
X141170Y-125652D01*
X141225Y-125679D01*
X141282Y-125709D01*
X141340Y-125744D01*
X141392Y-125788D01*
X141443Y-125835D01*
X141446Y-125837D01*
X141454Y-125848D01*
X141468Y-125862D01*
X141484Y-125884D01*
X141506Y-125911D01*
X141528Y-125941D01*
X141550Y-125979D01*
X141577Y-126020D01*
X141602Y-126067D01*
X141623Y-126119D01*
X141648Y-126176D01*
X141667Y-126236D01*
X141684Y-126299D01*
X141697Y-126367D01*
X141705Y-126438D01*
X141708Y-126514D01*
Y-126520D01*
Y-126533D01*
X141705Y-126555D01*
Y-126583D01*
X141700Y-126618D01*
X141694Y-126659D01*
X141686Y-126705D01*
X141675Y-126755D01*
X141662Y-126809D01*
X141643Y-126864D01*
X141621Y-126921D01*
X141596Y-126978D01*
X141563Y-127039D01*
X141528Y-127093D01*
X141487Y-127150D01*
X141441Y-127202D01*
X141438Y-127205D01*
X141430Y-127213D01*
X141413Y-127227D01*
X141392Y-127243D01*
X141367Y-127265D01*
X141334Y-127287D01*
X141299Y-127312D01*
X141258Y-127336D01*
X141211Y-127363D01*
X141159Y-127388D01*
X141105Y-127410D01*
X141045Y-127429D01*
X140982Y-127448D01*
X140914Y-127462D01*
X140843Y-127470D01*
X140769Y-127473D01*
X140744D01*
X140725Y-127470D01*
X140703D01*
X140679Y-127467D01*
X140649Y-127464D01*
X140616Y-127459D01*
X140542Y-127445D01*
X140461Y-127426D01*
X140376Y-127399D01*
X140291Y-127361D01*
X140289Y-127358D01*
X140280Y-127355D01*
X140269Y-127350D01*
X140253Y-127339D01*
X140234Y-127328D01*
X140215Y-127312D01*
X140163Y-127276D01*
X140108Y-127230D01*
X140051Y-127172D01*
X139996Y-127104D01*
X139947Y-127028D01*
Y-127025D01*
X139942Y-127017D01*
X139936Y-127006D01*
X139928Y-126989D01*
X139920Y-126968D01*
X139909Y-126943D01*
X139901Y-126913D01*
X139890Y-126880D01*
X139879Y-126842D01*
X139868Y-126801D01*
X139857Y-126757D01*
X139849Y-126711D01*
X139841Y-126662D01*
X139835Y-126607D01*
X139833Y-126553D01*
X139830Y-126495D01*
Y-126493D01*
Y-126484D01*
Y-126471D01*
X139833Y-126454D01*
Y-126432D01*
X139835Y-126405D01*
X139841Y-126378D01*
X139844Y-126345D01*
X139860Y-126274D01*
X139879Y-126195D01*
X139909Y-126113D01*
X139926Y-126069D01*
X139947Y-126028D01*
X139950Y-126026D01*
X139953Y-126017D01*
X139961Y-126007D01*
X139969Y-125990D01*
X139980Y-125971D01*
X139996Y-125949D01*
X140032Y-125900D01*
X140081Y-125846D01*
X140138Y-125788D01*
X140204Y-125734D01*
X140280Y-125684D01*
X140283Y-125682D01*
X140291Y-125679D01*
X140302Y-125673D01*
X140319Y-125665D01*
X140340Y-125657D01*
X140365Y-125646D01*
X140392Y-125635D01*
X140422Y-125624D01*
X140458Y-125613D01*
X140496Y-125602D01*
X140578Y-125583D01*
X140668Y-125570D01*
X140717Y-125564D01*
X140785D01*
X140807Y-125567D01*
D02*
G37*
%LPC*%
G36*
X156947Y-125933D02*
X156931D01*
X156920Y-125936D01*
X156887Y-125941D01*
X156846Y-125949D01*
X156802Y-125966D01*
X156753Y-125990D01*
X156729Y-126007D01*
X156707Y-126026D01*
X156682Y-126048D01*
X156660Y-126072D01*
Y-126075D01*
X156655Y-126077D01*
X156649Y-126086D01*
X156641Y-126097D01*
X156633Y-126113D01*
X156625Y-126129D01*
X156614Y-126151D01*
X156603Y-126173D01*
X156592Y-126200D01*
X156581Y-126230D01*
X156573Y-126266D01*
X156565Y-126301D01*
X156557Y-126340D01*
X156551Y-126383D01*
X156548Y-126430D01*
X156546Y-126479D01*
Y-126482D01*
Y-126493D01*
Y-126506D01*
Y-126525D01*
X156548Y-126550D01*
X156551Y-126577D01*
Y-126610D01*
X156557Y-126640D01*
X156565Y-126711D01*
X156579Y-126779D01*
X156598Y-126847D01*
X156611Y-126875D01*
X156625Y-126902D01*
X156628Y-126905D01*
X156630Y-126910D01*
X156639Y-126918D01*
X156647Y-126932D01*
X156674Y-126962D01*
X156710Y-126995D01*
X156756Y-127030D01*
X156810Y-127060D01*
X156843Y-127074D01*
X156876Y-127082D01*
X156912Y-127088D01*
X156950Y-127090D01*
X156966D01*
X156977Y-127088D01*
X157010Y-127082D01*
X157048Y-127074D01*
X157092Y-127058D01*
X157141Y-127030D01*
X157163Y-127017D01*
X157187Y-126998D01*
X157212Y-126976D01*
X157234Y-126951D01*
X157236Y-126948D01*
X157239Y-126946D01*
X157245Y-126935D01*
X157253Y-126924D01*
X157261Y-126910D01*
X157272Y-126891D01*
X157283Y-126869D01*
X157294Y-126845D01*
X157305Y-126817D01*
X157313Y-126785D01*
X157324Y-126749D01*
X157332Y-126711D01*
X157340Y-126670D01*
X157346Y-126626D01*
X157351Y-126577D01*
Y-126525D01*
Y-126523D01*
Y-126512D01*
Y-126495D01*
X157348Y-126473D01*
Y-126449D01*
X157346Y-126419D01*
X157343Y-126386D01*
X157337Y-126350D01*
X157324Y-126277D01*
X157302Y-126200D01*
X157275Y-126132D01*
X157255Y-126099D01*
X157236Y-126072D01*
Y-126069D01*
X157231Y-126067D01*
X157217Y-126050D01*
X157193Y-126028D01*
X157157Y-126001D01*
X157116Y-125977D01*
X157067Y-125955D01*
X157010Y-125938D01*
X156980Y-125936D01*
X156947Y-125933D01*
D02*
G37*
G36*
X138377Y-125332D02*
X137911D01*
Y-125914D01*
X138402D01*
X138465Y-125911D01*
X138525D01*
X138552Y-125908D01*
X138577D01*
X138599Y-125906D01*
X138620D01*
X138637Y-125903D01*
X138662Y-125897D01*
X138689Y-125889D01*
X138722Y-125878D01*
X138757Y-125862D01*
X138790Y-125843D01*
X138820Y-125818D01*
X138822Y-125815D01*
X138831Y-125804D01*
X138844Y-125788D01*
X138858Y-125764D01*
X138872Y-125736D01*
X138885Y-125701D01*
X138893Y-125663D01*
X138896Y-125619D01*
Y-125613D01*
Y-125600D01*
X138893Y-125578D01*
X138888Y-125553D01*
X138880Y-125523D01*
X138869Y-125491D01*
X138853Y-125461D01*
X138831Y-125431D01*
X138828Y-125428D01*
X138820Y-125420D01*
X138803Y-125406D01*
X138782Y-125392D01*
X138754Y-125376D01*
X138722Y-125362D01*
X138683Y-125351D01*
X138637Y-125343D01*
X138629D01*
X138620Y-125340D01*
X138596D01*
X138577Y-125338D01*
X138530D01*
X138498Y-125335D01*
X138424D01*
X138377Y-125332D01*
D02*
G37*
G36*
X138383Y-126334D02*
X137911D01*
Y-127006D01*
X138470D01*
X138528Y-127003D01*
X138588D01*
X138645Y-127000D01*
X138670Y-126998D01*
X138694D01*
X138713Y-126995D01*
X138730Y-126992D01*
X138735D01*
X138749Y-126987D01*
X138771Y-126981D01*
X138795Y-126970D01*
X138825Y-126957D01*
X138855Y-126940D01*
X138888Y-126918D01*
X138915Y-126891D01*
X138918Y-126888D01*
X138926Y-126877D01*
X138940Y-126858D01*
X138954Y-126834D01*
X138964Y-126804D01*
X138978Y-126768D01*
X138986Y-126725D01*
X138989Y-126678D01*
Y-126673D01*
Y-126659D01*
X138986Y-126637D01*
X138981Y-126613D01*
X138975Y-126583D01*
X138964Y-126550D01*
X138951Y-126517D01*
X138932Y-126487D01*
X138929Y-126484D01*
X138921Y-126473D01*
X138910Y-126460D01*
X138891Y-126443D01*
X138869Y-126424D01*
X138842Y-126405D01*
X138809Y-126389D01*
X138773Y-126372D01*
X138768Y-126370D01*
X138762D01*
X138752Y-126367D01*
X138738Y-126364D01*
X138722Y-126362D01*
X138702Y-126356D01*
X138678Y-126353D01*
X138651Y-126350D01*
X138618Y-126345D01*
X138580Y-126342D01*
X138539Y-126340D01*
X138492Y-126337D01*
X138440D01*
X138383Y-126334D01*
D02*
G37*
G36*
X159030Y-125933D02*
X159014D01*
X159003Y-125936D01*
X158975Y-125938D01*
X158937Y-125946D01*
X158896Y-125960D01*
X158853Y-125982D01*
X158812Y-126012D01*
X158790Y-126028D01*
X158771Y-126050D01*
X158765Y-126056D01*
X158754Y-126072D01*
X158738Y-126097D01*
X158719Y-126132D01*
X158700Y-126176D01*
X158683Y-126230D01*
X158672Y-126291D01*
X158670Y-126362D01*
X159390D01*
Y-126359D01*
Y-126353D01*
Y-126342D01*
X159388Y-126326D01*
X159385Y-126310D01*
X159382Y-126291D01*
X159374Y-126244D01*
X159360Y-126192D01*
X159341Y-126140D01*
X159317Y-126089D01*
X159281Y-126045D01*
X159276Y-126039D01*
X159262Y-126028D01*
X159240Y-126009D01*
X159210Y-125988D01*
X159175Y-125968D01*
X159131Y-125949D01*
X159082Y-125938D01*
X159030Y-125933D01*
D02*
G37*
G36*
X153859Y-125957D02*
X153840D01*
X153829Y-125960D01*
X153813Y-125963D01*
X153794Y-125966D01*
X153750Y-125977D01*
X153698Y-125993D01*
X153646Y-126017D01*
X153619Y-126034D01*
X153595Y-126053D01*
X153567Y-126077D01*
X153543Y-126102D01*
Y-126105D01*
X153537Y-126108D01*
X153532Y-126119D01*
X153524Y-126129D01*
X153513Y-126143D01*
X153502Y-126162D01*
X153491Y-126184D01*
X153480Y-126209D01*
X153469Y-126236D01*
X153458Y-126269D01*
X153447Y-126301D01*
X153436Y-126340D01*
X153428Y-126381D01*
X153423Y-126424D01*
X153420Y-126471D01*
X153417Y-126520D01*
Y-126523D01*
Y-126531D01*
Y-126547D01*
X153420Y-126564D01*
Y-126588D01*
X153423Y-126613D01*
X153428Y-126643D01*
X153434Y-126675D01*
X153447Y-126741D01*
X153469Y-126812D01*
X153502Y-126877D01*
X153521Y-126910D01*
X153543Y-126937D01*
X153545Y-126940D01*
X153548Y-126943D01*
X153556Y-126951D01*
X153565Y-126959D01*
X153595Y-126981D01*
X153630Y-127008D01*
X153676Y-127036D01*
X153731Y-127058D01*
X153791Y-127074D01*
X153824Y-127077D01*
X153859Y-127079D01*
X153878D01*
X153892Y-127077D01*
X153906Y-127074D01*
X153925Y-127071D01*
X153969Y-127060D01*
X154021Y-127044D01*
X154072Y-127019D01*
X154100Y-127003D01*
X154127Y-126984D01*
X154151Y-126962D01*
X154176Y-126937D01*
X154179Y-126935D01*
X154182Y-126929D01*
X154187Y-126921D01*
X154195Y-126910D01*
X154206Y-126897D01*
X154217Y-126877D01*
X154228Y-126856D01*
X154242Y-126831D01*
X154253Y-126804D01*
X154263Y-126771D01*
X154274Y-126735D01*
X154285Y-126700D01*
X154294Y-126659D01*
X154299Y-126615D01*
X154304Y-126566D01*
Y-126517D01*
Y-126514D01*
Y-126506D01*
Y-126490D01*
X154302Y-126473D01*
Y-126449D01*
X154299Y-126424D01*
X154294Y-126394D01*
X154288Y-126364D01*
X154274Y-126296D01*
X154250Y-126228D01*
X154220Y-126162D01*
X154198Y-126129D01*
X154176Y-126102D01*
X154173Y-126099D01*
X154171Y-126097D01*
X154162Y-126089D01*
X154154Y-126080D01*
X154127Y-126056D01*
X154089Y-126028D01*
X154042Y-126004D01*
X153988Y-125979D01*
X153928Y-125963D01*
X153895Y-125960D01*
X153859Y-125957D01*
D02*
G37*
G36*
X145257D02*
X145238D01*
X145227Y-125960D01*
X145211Y-125963D01*
X145192Y-125966D01*
X145148Y-125977D01*
X145096Y-125993D01*
X145044Y-126017D01*
X145017Y-126034D01*
X144992Y-126053D01*
X144965Y-126077D01*
X144940Y-126102D01*
Y-126105D01*
X144935Y-126108D01*
X144930Y-126119D01*
X144921Y-126129D01*
X144910Y-126143D01*
X144899Y-126162D01*
X144889Y-126184D01*
X144878Y-126209D01*
X144867Y-126236D01*
X144856Y-126269D01*
X144845Y-126301D01*
X144834Y-126340D01*
X144826Y-126381D01*
X144820Y-126424D01*
X144818Y-126471D01*
X144815Y-126520D01*
Y-126523D01*
Y-126531D01*
Y-126547D01*
X144818Y-126564D01*
Y-126588D01*
X144820Y-126613D01*
X144826Y-126643D01*
X144831Y-126675D01*
X144845Y-126741D01*
X144867Y-126812D01*
X144899Y-126877D01*
X144919Y-126910D01*
X144940Y-126937D01*
X144943Y-126940D01*
X144946Y-126943D01*
X144954Y-126951D01*
X144962Y-126959D01*
X144992Y-126981D01*
X145028Y-127008D01*
X145074Y-127036D01*
X145129Y-127058D01*
X145189Y-127074D01*
X145222Y-127077D01*
X145257Y-127079D01*
X145276D01*
X145290Y-127077D01*
X145304Y-127074D01*
X145323Y-127071D01*
X145366Y-127060D01*
X145418Y-127044D01*
X145470Y-127019D01*
X145497Y-127003D01*
X145525Y-126984D01*
X145549Y-126962D01*
X145574Y-126937D01*
X145577Y-126935D01*
X145579Y-126929D01*
X145585Y-126921D01*
X145593Y-126910D01*
X145604Y-126897D01*
X145615Y-126877D01*
X145626Y-126856D01*
X145639Y-126831D01*
X145650Y-126804D01*
X145661Y-126771D01*
X145672Y-126735D01*
X145683Y-126700D01*
X145691Y-126659D01*
X145697Y-126615D01*
X145702Y-126566D01*
Y-126517D01*
Y-126514D01*
Y-126506D01*
Y-126490D01*
X145699Y-126473D01*
Y-126449D01*
X145697Y-126424D01*
X145691Y-126394D01*
X145686Y-126364D01*
X145672Y-126296D01*
X145648Y-126228D01*
X145617Y-126162D01*
X145596Y-126129D01*
X145574Y-126102D01*
X145571Y-126099D01*
X145568Y-126097D01*
X145560Y-126089D01*
X145552Y-126080D01*
X145525Y-126056D01*
X145486Y-126028D01*
X145440Y-126004D01*
X145386Y-125979D01*
X145325Y-125963D01*
X145293Y-125960D01*
X145257Y-125957D01*
D02*
G37*
G36*
X140766D02*
X140747D01*
X140736Y-125960D01*
X140720Y-125963D01*
X140701Y-125966D01*
X140657Y-125977D01*
X140605Y-125993D01*
X140553Y-126017D01*
X140526Y-126034D01*
X140501Y-126053D01*
X140474Y-126077D01*
X140450Y-126102D01*
Y-126105D01*
X140444Y-126108D01*
X140439Y-126119D01*
X140430Y-126129D01*
X140420Y-126143D01*
X140409Y-126162D01*
X140398Y-126184D01*
X140387Y-126209D01*
X140376Y-126236D01*
X140365Y-126269D01*
X140354Y-126301D01*
X140343Y-126340D01*
X140335Y-126381D01*
X140330Y-126424D01*
X140327Y-126471D01*
X140324Y-126520D01*
Y-126523D01*
Y-126531D01*
Y-126547D01*
X140327Y-126564D01*
Y-126588D01*
X140330Y-126613D01*
X140335Y-126643D01*
X140340Y-126675D01*
X140354Y-126741D01*
X140376Y-126812D01*
X140409Y-126877D01*
X140428Y-126910D01*
X140450Y-126937D01*
X140452Y-126940D01*
X140455Y-126943D01*
X140463Y-126951D01*
X140471Y-126959D01*
X140501Y-126981D01*
X140537Y-127008D01*
X140583Y-127036D01*
X140638Y-127058D01*
X140698Y-127074D01*
X140731Y-127077D01*
X140766Y-127079D01*
X140785D01*
X140799Y-127077D01*
X140813Y-127074D01*
X140832Y-127071D01*
X140875Y-127060D01*
X140927Y-127044D01*
X140979Y-127019D01*
X141007Y-127003D01*
X141034Y-126984D01*
X141058Y-126962D01*
X141083Y-126937D01*
X141086Y-126935D01*
X141088Y-126929D01*
X141094Y-126921D01*
X141102Y-126910D01*
X141113Y-126897D01*
X141124Y-126877D01*
X141135Y-126856D01*
X141148Y-126831D01*
X141159Y-126804D01*
X141170Y-126771D01*
X141181Y-126735D01*
X141192Y-126700D01*
X141200Y-126659D01*
X141206Y-126615D01*
X141211Y-126566D01*
Y-126517D01*
Y-126514D01*
Y-126506D01*
Y-126490D01*
X141209Y-126473D01*
Y-126449D01*
X141206Y-126424D01*
X141200Y-126394D01*
X141195Y-126364D01*
X141181Y-126296D01*
X141157Y-126228D01*
X141127Y-126162D01*
X141105Y-126129D01*
X141083Y-126102D01*
X141080Y-126099D01*
X141077Y-126097D01*
X141069Y-126089D01*
X141061Y-126080D01*
X141034Y-126056D01*
X140996Y-126028D01*
X140949Y-126004D01*
X140895Y-125979D01*
X140834Y-125963D01*
X140802Y-125960D01*
X140766Y-125957D01*
D02*
G37*
%LPD*%
D55*
X-84646Y102362D02*
D03*
Y-94488D02*
D03*
X84646D02*
D03*
Y102362D02*
D03*
D56*
X47000Y88500D02*
D03*
X-35500Y-94500D02*
D03*
X-61500D02*
D03*
X61500D02*
D03*
D57*
X47000Y98500D02*
D03*
X37000Y88500D02*
D03*
Y98500D02*
D03*
X27000Y88500D02*
D03*
Y98500D02*
D03*
X82500Y28000D02*
D03*
Y18000D02*
D03*
X-25500Y-94500D02*
D03*
X-51500D02*
D03*
X51500D02*
D03*
X41500D02*
D03*
X31500D02*
D03*
X82500Y61000D02*
D03*
Y51000D02*
D03*
Y41000D02*
D03*
X70000Y61000D02*
D03*
Y51000D02*
D03*
Y41000D02*
D03*
D58*
X87500Y-72500D02*
D03*
D59*
X77500D02*
D03*
D61*
X82500Y8000D02*
D03*
Y71000D02*
D03*
X70000D02*
D03*
D62*
X-47000Y-70000D02*
D03*
D63*
X-37000D02*
D03*
M02*
