G04*
G04 #@! TF.GenerationSoftware,Altium Limited,Altium Designer,23.3.1 (30)*
G04*
G04 Layer_Color=8388736*
%FSLAX25Y25*%
%MOIN*%
G70*
G04*
G04 #@! TF.SameCoordinates,97A15D6B-2EEB-42C3-8D6F-FEDD3E2C4342*
G04*
G04*
G04 #@! TF.FilePolarity,Negative*
G04*
G01*
G75*
%ADD36R,0.04343X0.04599*%
%ADD37R,0.06902X0.05918*%
%ADD38R,0.03950X0.02965*%
%ADD39R,0.04599X0.04343*%
%ADD40R,0.03556X0.04343*%
%ADD41R,0.04737X0.02769*%
%ADD42O,0.04737X0.02769*%
%ADD43R,0.04343X0.03556*%
%ADD44R,0.06076X0.07887*%
%ADD45R,0.13398X0.06706*%
%ADD46R,0.07887X0.06076*%
%ADD47R,0.04343X0.03950*%
%ADD48R,0.06706X0.04343*%
%ADD49R,0.04343X0.06706*%
%ADD50R,0.18162X0.16942*%
%ADD51R,0.03162X0.05918*%
%ADD52R,0.24422X0.08674*%
%ADD53R,0.08674X0.04343*%
%ADD54R,0.32296X0.40170*%
%ADD55C,0.14580*%
%ADD56R,0.06706X0.06706*%
%ADD57C,0.06706*%
%ADD58C,0.05524*%
%ADD59R,0.05524X0.05524*%
%ADD60C,0.06800*%
%ADD61R,0.06706X0.06706*%
%ADD62R,0.06706X0.08674*%
%ADD63O,0.06706X0.08674*%
G36*
X145961Y-100990D02*
X146002Y-100992D01*
X146046Y-100998D01*
X146098Y-101003D01*
X146153Y-101014D01*
X146207Y-101025D01*
X146267Y-101039D01*
X146327Y-101055D01*
X146385Y-101074D01*
X146442Y-101099D01*
X146499Y-101129D01*
X146551Y-101159D01*
X146598Y-101197D01*
X146600Y-101200D01*
X146608Y-101205D01*
X146619Y-101219D01*
X146636Y-101235D01*
X146655Y-101254D01*
X146674Y-101282D01*
X146696Y-101312D01*
X146720Y-101345D01*
X146742Y-101383D01*
X146764Y-101424D01*
X146786Y-101470D01*
X146805Y-101519D01*
X146824Y-101571D01*
X146838Y-101628D01*
X146846Y-101689D01*
X146852Y-101751D01*
X146344Y-101770D01*
Y-101768D01*
X146341Y-101762D01*
Y-101751D01*
X146338Y-101740D01*
X146333Y-101724D01*
X146327Y-101705D01*
X146314Y-101664D01*
X146295Y-101620D01*
X146270Y-101574D01*
X146240Y-101530D01*
X146202Y-101495D01*
X146196Y-101492D01*
X146183Y-101481D01*
X146158Y-101467D01*
X146123Y-101451D01*
X146076Y-101435D01*
X146022Y-101421D01*
X145956Y-101410D01*
X145880Y-101407D01*
X145844D01*
X145825Y-101410D01*
X145803Y-101413D01*
X145751Y-101418D01*
X145697Y-101429D01*
X145637Y-101446D01*
X145582Y-101470D01*
X145530Y-101500D01*
X145527Y-101503D01*
X145519Y-101511D01*
X145506Y-101525D01*
X145492Y-101541D01*
X145475Y-101563D01*
X145465Y-101590D01*
X145454Y-101620D01*
X145451Y-101656D01*
Y-101658D01*
Y-101669D01*
X145454Y-101689D01*
X145459Y-101708D01*
X145470Y-101732D01*
X145481Y-101760D01*
X145500Y-101784D01*
X145525Y-101809D01*
X145530Y-101811D01*
X145536Y-101817D01*
X145546Y-101822D01*
X145557Y-101830D01*
X145574Y-101839D01*
X145596Y-101850D01*
X145620Y-101860D01*
X145648Y-101872D01*
X145680Y-101885D01*
X145719Y-101899D01*
X145762Y-101912D01*
X145811Y-101929D01*
X145866Y-101945D01*
X145926Y-101962D01*
X145992Y-101978D01*
X145997D01*
X146008Y-101981D01*
X146027Y-101986D01*
X146052Y-101992D01*
X146084Y-102000D01*
X146117Y-102011D01*
X146158Y-102022D01*
X146199Y-102032D01*
X146289Y-102060D01*
X146379Y-102090D01*
X146423Y-102106D01*
X146467Y-102123D01*
X146505Y-102142D01*
X146540Y-102158D01*
X146543D01*
X146548Y-102164D01*
X146557Y-102169D01*
X146570Y-102174D01*
X146603Y-102196D01*
X146644Y-102224D01*
X146688Y-102262D01*
X146734Y-102305D01*
X146781Y-102357D01*
X146821Y-102415D01*
Y-102418D01*
X146827Y-102423D01*
X146830Y-102431D01*
X146838Y-102445D01*
X146846Y-102461D01*
X146854Y-102480D01*
X146862Y-102502D01*
X146873Y-102527D01*
X146881Y-102554D01*
X146890Y-102584D01*
X146906Y-102652D01*
X146917Y-102731D01*
X146923Y-102816D01*
Y-102819D01*
Y-102824D01*
Y-102838D01*
X146920Y-102851D01*
Y-102871D01*
X146917Y-102895D01*
X146912Y-102920D01*
X146906Y-102947D01*
X146892Y-103010D01*
X146871Y-103078D01*
X146841Y-103149D01*
X146821Y-103187D01*
X146800Y-103223D01*
Y-103226D01*
X146794Y-103231D01*
X146786Y-103242D01*
X146778Y-103253D01*
X146764Y-103269D01*
X146750Y-103288D01*
X146712Y-103329D01*
X146663Y-103373D01*
X146606Y-103422D01*
X146537Y-103466D01*
X146458Y-103504D01*
X146456D01*
X146447Y-103507D01*
X146437Y-103512D01*
X146420Y-103518D01*
X146398Y-103526D01*
X146371Y-103531D01*
X146341Y-103540D01*
X146308Y-103548D01*
X146270Y-103559D01*
X146229Y-103567D01*
X146183Y-103572D01*
X146133Y-103580D01*
X146084Y-103586D01*
X146027Y-103591D01*
X145970Y-103594D01*
X145888D01*
X145863Y-103591D01*
X145830D01*
X145792Y-103589D01*
X145746Y-103583D01*
X145694Y-103575D01*
X145639Y-103567D01*
X145579Y-103556D01*
X145519Y-103540D01*
X145459Y-103523D01*
X145399Y-103501D01*
X145339Y-103477D01*
X145282Y-103447D01*
X145227Y-103414D01*
X145175Y-103376D01*
X145173Y-103373D01*
X145164Y-103365D01*
X145151Y-103351D01*
X145134Y-103335D01*
X145115Y-103310D01*
X145091Y-103283D01*
X145066Y-103250D01*
X145042Y-103212D01*
X145014Y-103168D01*
X144987Y-103122D01*
X144962Y-103067D01*
X144938Y-103010D01*
X144916Y-102947D01*
X144897Y-102882D01*
X144880Y-102808D01*
X144869Y-102731D01*
X145364Y-102682D01*
Y-102685D01*
X145366Y-102693D01*
X145369Y-102707D01*
X145372Y-102723D01*
X145377Y-102745D01*
X145386Y-102767D01*
X145402Y-102822D01*
X145426Y-102882D01*
X145459Y-102944D01*
X145497Y-103002D01*
X145519Y-103026D01*
X145544Y-103051D01*
X145546D01*
X145549Y-103056D01*
X145557Y-103062D01*
X145568Y-103070D01*
X145582Y-103078D01*
X145601Y-103086D01*
X145620Y-103097D01*
X145642Y-103108D01*
X145697Y-103130D01*
X145759Y-103146D01*
X145833Y-103160D01*
X145915Y-103165D01*
X145940D01*
X145956Y-103163D01*
X145978D01*
X146000Y-103160D01*
X146054Y-103152D01*
X146114Y-103141D01*
X146177Y-103122D01*
X146237Y-103097D01*
X146265Y-103081D01*
X146289Y-103062D01*
X146292D01*
X146295Y-103056D01*
X146308Y-103043D01*
X146330Y-103021D01*
X146352Y-102994D01*
X146374Y-102958D01*
X146396Y-102914D01*
X146409Y-102868D01*
X146415Y-102843D01*
Y-102819D01*
Y-102816D01*
Y-102802D01*
X146412Y-102786D01*
X146409Y-102767D01*
X146401Y-102742D01*
X146393Y-102715D01*
X146379Y-102690D01*
X146360Y-102666D01*
X146357Y-102663D01*
X146349Y-102655D01*
X146335Y-102644D01*
X146319Y-102628D01*
X146292Y-102611D01*
X146262Y-102592D01*
X146224Y-102576D01*
X146177Y-102557D01*
X146172Y-102554D01*
X146166D01*
X146158Y-102551D01*
X146147Y-102549D01*
X146131Y-102543D01*
X146114Y-102538D01*
X146092Y-102532D01*
X146068Y-102524D01*
X146038Y-102516D01*
X146005Y-102507D01*
X145967Y-102497D01*
X145926Y-102486D01*
X145880Y-102475D01*
X145828Y-102461D01*
X145770Y-102447D01*
X145765D01*
X145751Y-102442D01*
X145732Y-102437D01*
X145705Y-102428D01*
X145669Y-102420D01*
X145631Y-102407D01*
X145590Y-102393D01*
X145546Y-102379D01*
X145451Y-102341D01*
X145355Y-102300D01*
X145312Y-102276D01*
X145268Y-102251D01*
X145230Y-102226D01*
X145197Y-102199D01*
X145194Y-102196D01*
X145186Y-102188D01*
X145175Y-102177D01*
X145162Y-102161D01*
X145142Y-102142D01*
X145123Y-102117D01*
X145101Y-102090D01*
X145082Y-102057D01*
X145061Y-102022D01*
X145039Y-101983D01*
X145020Y-101940D01*
X145001Y-101896D01*
X144987Y-101850D01*
X144976Y-101798D01*
X144968Y-101746D01*
X144965Y-101691D01*
Y-101689D01*
Y-101683D01*
Y-101672D01*
X144968Y-101658D01*
Y-101642D01*
X144971Y-101620D01*
X144979Y-101574D01*
X144992Y-101519D01*
X145011Y-101456D01*
X145039Y-101394D01*
X145074Y-101331D01*
Y-101328D01*
X145080Y-101323D01*
X145085Y-101314D01*
X145093Y-101304D01*
X145121Y-101274D01*
X145153Y-101235D01*
X145200Y-101194D01*
X145252Y-101154D01*
X145317Y-101112D01*
X145388Y-101077D01*
X145391D01*
X145396Y-101074D01*
X145410Y-101069D01*
X145424Y-101063D01*
X145446Y-101055D01*
X145467Y-101050D01*
X145495Y-101041D01*
X145527Y-101031D01*
X145563Y-101022D01*
X145598Y-101014D01*
X145639Y-101009D01*
X145683Y-101001D01*
X145732Y-100995D01*
X145779Y-100990D01*
X145885Y-100987D01*
X145931D01*
X145961Y-100990D01*
D02*
G37*
G36*
X152145Y-103548D02*
X151697D01*
Y-103283D01*
X151692Y-103288D01*
X151686Y-103296D01*
X151678Y-103305D01*
X151654Y-103335D01*
X151623Y-103367D01*
X151583Y-103406D01*
X151539Y-103447D01*
X151487Y-103482D01*
X151432Y-103515D01*
X151430D01*
X151427Y-103518D01*
X151416Y-103520D01*
X151405Y-103526D01*
X151375Y-103540D01*
X151337Y-103550D01*
X151291Y-103564D01*
X151239Y-103578D01*
X151184Y-103586D01*
X151127Y-103589D01*
X151113D01*
X151097Y-103586D01*
X151075D01*
X151048Y-103580D01*
X151015Y-103575D01*
X150979Y-103567D01*
X150941Y-103556D01*
X150900Y-103545D01*
X150856Y-103529D01*
X150813Y-103507D01*
X150766Y-103482D01*
X150723Y-103455D01*
X150676Y-103419D01*
X150633Y-103381D01*
X150589Y-103338D01*
X150586Y-103335D01*
X150581Y-103326D01*
X150567Y-103310D01*
X150553Y-103291D01*
X150537Y-103264D01*
X150518Y-103234D01*
X150499Y-103196D01*
X150477Y-103155D01*
X150455Y-103105D01*
X150436Y-103053D01*
X150417Y-102994D01*
X150400Y-102931D01*
X150387Y-102862D01*
X150376Y-102789D01*
X150368Y-102710D01*
X150365Y-102628D01*
Y-102622D01*
Y-102606D01*
X150368Y-102584D01*
Y-102551D01*
X150370Y-102513D01*
X150376Y-102469D01*
X150384Y-102418D01*
X150392Y-102366D01*
X150403Y-102308D01*
X150417Y-102251D01*
X150436Y-102194D01*
X150455Y-102134D01*
X150480Y-102076D01*
X150510Y-102022D01*
X150542Y-101970D01*
X150581Y-101923D01*
X150583Y-101921D01*
X150592Y-101912D01*
X150602Y-101901D01*
X150619Y-101885D01*
X150641Y-101866D01*
X150668Y-101847D01*
X150698Y-101825D01*
X150731Y-101801D01*
X150769Y-101779D01*
X150813Y-101757D01*
X150856Y-101738D01*
X150906Y-101719D01*
X150957Y-101702D01*
X151012Y-101691D01*
X151072Y-101683D01*
X151132Y-101680D01*
X151146D01*
X151162Y-101683D01*
X151184D01*
X151211Y-101689D01*
X151241Y-101694D01*
X151274Y-101702D01*
X151312Y-101713D01*
X151353Y-101727D01*
X151397Y-101743D01*
X151441Y-101765D01*
X151484Y-101789D01*
X151531Y-101817D01*
X151574Y-101852D01*
X151618Y-101891D01*
X151662Y-101937D01*
Y-101028D01*
X152145D01*
Y-103548D01*
D02*
G37*
G36*
X155465Y-101683D02*
X155481Y-101686D01*
X155522Y-101691D01*
X155571Y-101702D01*
X155626Y-101719D01*
X155683Y-101743D01*
X155740Y-101773D01*
X155590Y-102194D01*
X155585Y-102191D01*
X155568Y-102180D01*
X155546Y-102169D01*
X155517Y-102153D01*
X155481Y-102139D01*
X155443Y-102125D01*
X155405Y-102117D01*
X155364Y-102114D01*
X155347D01*
X155328Y-102117D01*
X155304Y-102123D01*
X155276Y-102128D01*
X155249Y-102139D01*
X155219Y-102153D01*
X155192Y-102172D01*
X155189Y-102174D01*
X155181Y-102183D01*
X155167Y-102196D01*
X155151Y-102218D01*
X155134Y-102245D01*
X155115Y-102281D01*
X155096Y-102322D01*
X155080Y-102374D01*
Y-102376D01*
X155077Y-102382D01*
Y-102390D01*
X155074Y-102404D01*
X155071Y-102420D01*
X155069Y-102445D01*
X155063Y-102472D01*
X155061Y-102505D01*
X155058Y-102543D01*
X155052Y-102587D01*
X155050Y-102636D01*
X155047Y-102693D01*
X155044Y-102756D01*
Y-102824D01*
X155042Y-102901D01*
Y-102985D01*
Y-103548D01*
X154558D01*
Y-101721D01*
X155006D01*
Y-101983D01*
X155009Y-101981D01*
X155011Y-101975D01*
X155017Y-101967D01*
X155025Y-101953D01*
X155047Y-101921D01*
X155074Y-101882D01*
X155107Y-101841D01*
X155140Y-101803D01*
X155175Y-101768D01*
X155194Y-101751D01*
X155211Y-101740D01*
X155216Y-101738D01*
X155227Y-101732D01*
X155246Y-101721D01*
X155271Y-101710D01*
X155304Y-101699D01*
X155339Y-101689D01*
X155377Y-101683D01*
X155421Y-101680D01*
X155448D01*
X155465Y-101683D01*
D02*
G37*
G36*
X142907D02*
X142931D01*
X142958Y-101689D01*
X142989Y-101694D01*
X143024Y-101702D01*
X143065Y-101710D01*
X143106Y-101724D01*
X143150Y-101740D01*
X143193Y-101762D01*
X143240Y-101787D01*
X143286Y-101814D01*
X143330Y-101850D01*
X143374Y-101888D01*
X143417Y-101932D01*
X143420Y-101934D01*
X143428Y-101942D01*
X143439Y-101956D01*
X143453Y-101978D01*
X143469Y-102003D01*
X143488Y-102032D01*
X143507Y-102071D01*
X143529Y-102112D01*
X143551Y-102158D01*
X143570Y-102210D01*
X143589Y-102267D01*
X143605Y-102330D01*
X143619Y-102396D01*
X143633Y-102467D01*
X143638Y-102543D01*
X143641Y-102625D01*
Y-102630D01*
Y-102644D01*
X143638Y-102669D01*
Y-102701D01*
X143635Y-102740D01*
X143630Y-102783D01*
X143622Y-102832D01*
X143614Y-102887D01*
X143600Y-102942D01*
X143586Y-103002D01*
X143567Y-103059D01*
X143545Y-103119D01*
X143521Y-103176D01*
X143491Y-103234D01*
X143455Y-103288D01*
X143417Y-103338D01*
X143414Y-103340D01*
X143406Y-103348D01*
X143395Y-103359D01*
X143376Y-103376D01*
X143354Y-103395D01*
X143330Y-103417D01*
X143300Y-103438D01*
X143264Y-103463D01*
X143229Y-103488D01*
X143185Y-103509D01*
X143141Y-103531D01*
X143092Y-103550D01*
X143043Y-103564D01*
X142989Y-103578D01*
X142934Y-103586D01*
X142874Y-103589D01*
X142849D01*
X142819Y-103586D01*
X142781Y-103580D01*
X142740Y-103575D01*
X142694Y-103564D01*
X142645Y-103548D01*
X142598Y-103529D01*
X142593Y-103526D01*
X142576Y-103518D01*
X142552Y-103501D01*
X142519Y-103479D01*
X142481Y-103452D01*
X142437Y-103417D01*
X142391Y-103373D01*
X142341Y-103324D01*
Y-104241D01*
X141858D01*
Y-101721D01*
X142309D01*
Y-101989D01*
X142314Y-101986D01*
X142325Y-101970D01*
X142344Y-101942D01*
X142371Y-101912D01*
X142404Y-101877D01*
X142445Y-101839D01*
X142492Y-101801D01*
X142543Y-101768D01*
X142546D01*
X142552Y-101765D01*
X142560Y-101760D01*
X142571Y-101754D01*
X142585Y-101749D01*
X142601Y-101740D01*
X142642Y-101724D01*
X142691Y-101708D01*
X142748Y-101694D01*
X142811Y-101683D01*
X142877Y-101680D01*
X142890D01*
X142907Y-101683D01*
D02*
G37*
G36*
X149980Y-103548D02*
X149497D01*
Y-101028D01*
X149980D01*
Y-103548D01*
D02*
G37*
G36*
X139401Y-101454D02*
X138659D01*
Y-103548D01*
X138151D01*
Y-101454D01*
X137403D01*
Y-101028D01*
X139401D01*
Y-101454D01*
D02*
G37*
G36*
X153354Y-101683D02*
X153384Y-101686D01*
X153417Y-101689D01*
X153458Y-101694D01*
X153502Y-101702D01*
X153548Y-101713D01*
X153600Y-101730D01*
X153652Y-101746D01*
X153704Y-101768D01*
X153758Y-101795D01*
X153810Y-101825D01*
X153862Y-101860D01*
X153911Y-101904D01*
X153958Y-101951D01*
X153960Y-101953D01*
X153969Y-101964D01*
X153980Y-101978D01*
X153993Y-102000D01*
X154012Y-102030D01*
X154031Y-102065D01*
X154053Y-102106D01*
X154075Y-102153D01*
X154097Y-102207D01*
X154116Y-102270D01*
X154135Y-102336D01*
X154151Y-102409D01*
X154165Y-102491D01*
X154176Y-102578D01*
X154184Y-102671D01*
Y-102772D01*
X152975D01*
Y-102775D01*
Y-102780D01*
Y-102794D01*
X152978Y-102808D01*
X152980Y-102827D01*
X152983Y-102849D01*
X152991Y-102895D01*
X153005Y-102950D01*
X153024Y-103007D01*
X153051Y-103062D01*
X153089Y-103111D01*
X153092D01*
X153095Y-103116D01*
X153109Y-103130D01*
X153133Y-103149D01*
X153166Y-103168D01*
X153207Y-103190D01*
X153256Y-103209D01*
X153311Y-103223D01*
X153341Y-103226D01*
X153371Y-103228D01*
X153390D01*
X153409Y-103226D01*
X153436Y-103220D01*
X153466Y-103215D01*
X153496Y-103204D01*
X153529Y-103187D01*
X153559Y-103168D01*
X153562Y-103165D01*
X153573Y-103157D01*
X153586Y-103141D01*
X153603Y-103119D01*
X153625Y-103092D01*
X153644Y-103056D01*
X153663Y-103015D01*
X153679Y-102966D01*
X154160Y-103048D01*
Y-103051D01*
X154154Y-103059D01*
X154149Y-103073D01*
X154143Y-103092D01*
X154132Y-103114D01*
X154119Y-103138D01*
X154105Y-103168D01*
X154089Y-103198D01*
X154048Y-103264D01*
X153996Y-103329D01*
X153936Y-103395D01*
X153900Y-103425D01*
X153865Y-103452D01*
X153862Y-103455D01*
X153857Y-103458D01*
X153846Y-103466D01*
X153829Y-103474D01*
X153810Y-103485D01*
X153786Y-103496D01*
X153758Y-103507D01*
X153728Y-103520D01*
X153693Y-103534D01*
X153655Y-103545D01*
X153614Y-103556D01*
X153570Y-103567D01*
X153524Y-103575D01*
X153472Y-103583D01*
X153420Y-103586D01*
X153365Y-103589D01*
X153343D01*
X153319Y-103586D01*
X153286Y-103583D01*
X153248Y-103580D01*
X153201Y-103572D01*
X153152Y-103564D01*
X153098Y-103550D01*
X153040Y-103534D01*
X152983Y-103512D01*
X152926Y-103488D01*
X152866Y-103458D01*
X152811Y-103422D01*
X152757Y-103381D01*
X152707Y-103335D01*
X152661Y-103280D01*
X152658Y-103277D01*
X152653Y-103269D01*
X152645Y-103256D01*
X152634Y-103234D01*
X152620Y-103209D01*
X152604Y-103182D01*
X152587Y-103146D01*
X152571Y-103108D01*
X152554Y-103065D01*
X152538Y-103015D01*
X152522Y-102963D01*
X152508Y-102909D01*
X152497Y-102849D01*
X152489Y-102786D01*
X152483Y-102718D01*
X152481Y-102649D01*
Y-102644D01*
Y-102630D01*
X152483Y-102606D01*
Y-102576D01*
X152489Y-102538D01*
X152494Y-102491D01*
X152500Y-102445D01*
X152511Y-102390D01*
X152522Y-102336D01*
X152538Y-102278D01*
X152557Y-102218D01*
X152579Y-102158D01*
X152606Y-102101D01*
X152639Y-102043D01*
X152675Y-101989D01*
X152716Y-101940D01*
X152718Y-101937D01*
X152726Y-101929D01*
X152740Y-101915D01*
X152759Y-101899D01*
X152781Y-101880D01*
X152811Y-101858D01*
X152844Y-101833D01*
X152879Y-101809D01*
X152920Y-101787D01*
X152967Y-101762D01*
X153016Y-101740D01*
X153070Y-101721D01*
X153125Y-101705D01*
X153185Y-101691D01*
X153251Y-101683D01*
X153316Y-101680D01*
X153335D01*
X153354Y-101683D01*
D02*
G37*
G36*
X148214D02*
X148241Y-101686D01*
X148276Y-101689D01*
X148318Y-101694D01*
X148364Y-101702D01*
X148413Y-101713D01*
X148465Y-101730D01*
X148520Y-101746D01*
X148577Y-101768D01*
X148631Y-101795D01*
X148689Y-101825D01*
X148746Y-101860D01*
X148798Y-101904D01*
X148850Y-101951D01*
X148853Y-101953D01*
X148861Y-101964D01*
X148874Y-101978D01*
X148891Y-102000D01*
X148913Y-102027D01*
X148934Y-102057D01*
X148956Y-102095D01*
X148984Y-102136D01*
X149008Y-102183D01*
X149030Y-102234D01*
X149055Y-102292D01*
X149074Y-102352D01*
X149090Y-102415D01*
X149104Y-102483D01*
X149112Y-102554D01*
X149115Y-102630D01*
Y-102636D01*
Y-102649D01*
X149112Y-102671D01*
Y-102699D01*
X149106Y-102734D01*
X149101Y-102775D01*
X149093Y-102822D01*
X149082Y-102871D01*
X149068Y-102925D01*
X149049Y-102980D01*
X149027Y-103037D01*
X149003Y-103094D01*
X148970Y-103155D01*
X148934Y-103209D01*
X148893Y-103267D01*
X148847Y-103318D01*
X148844Y-103321D01*
X148836Y-103329D01*
X148820Y-103343D01*
X148798Y-103359D01*
X148773Y-103381D01*
X148741Y-103403D01*
X148705Y-103428D01*
X148664Y-103452D01*
X148618Y-103479D01*
X148566Y-103504D01*
X148511Y-103526D01*
X148451Y-103545D01*
X148389Y-103564D01*
X148320Y-103578D01*
X148249Y-103586D01*
X148176Y-103589D01*
X148151D01*
X148132Y-103586D01*
X148110D01*
X148085Y-103583D01*
X148055Y-103580D01*
X148023Y-103575D01*
X147949Y-103561D01*
X147867Y-103542D01*
X147782Y-103515D01*
X147698Y-103477D01*
X147695Y-103474D01*
X147687Y-103471D01*
X147676Y-103466D01*
X147660Y-103455D01*
X147640Y-103444D01*
X147621Y-103428D01*
X147570Y-103392D01*
X147515Y-103346D01*
X147458Y-103288D01*
X147403Y-103220D01*
X147354Y-103144D01*
Y-103141D01*
X147348Y-103133D01*
X147343Y-103122D01*
X147335Y-103105D01*
X147327Y-103084D01*
X147316Y-103059D01*
X147307Y-103029D01*
X147297Y-102996D01*
X147285Y-102958D01*
X147275Y-102917D01*
X147264Y-102873D01*
X147256Y-102827D01*
X147247Y-102778D01*
X147242Y-102723D01*
X147239Y-102669D01*
X147236Y-102611D01*
Y-102609D01*
Y-102600D01*
Y-102587D01*
X147239Y-102570D01*
Y-102549D01*
X147242Y-102521D01*
X147247Y-102494D01*
X147250Y-102461D01*
X147266Y-102390D01*
X147285Y-102311D01*
X147316Y-102229D01*
X147332Y-102185D01*
X147354Y-102144D01*
X147356Y-102142D01*
X147359Y-102134D01*
X147367Y-102123D01*
X147376Y-102106D01*
X147387Y-102087D01*
X147403Y-102065D01*
X147438Y-102016D01*
X147488Y-101962D01*
X147545Y-101904D01*
X147610Y-101850D01*
X147687Y-101801D01*
X147690Y-101798D01*
X147698Y-101795D01*
X147709Y-101789D01*
X147725Y-101781D01*
X147747Y-101773D01*
X147772Y-101762D01*
X147799Y-101751D01*
X147829Y-101740D01*
X147864Y-101730D01*
X147903Y-101719D01*
X147984Y-101699D01*
X148074Y-101686D01*
X148124Y-101680D01*
X148192D01*
X148214Y-101683D01*
D02*
G37*
G36*
X140592D02*
X140619Y-101686D01*
X140654Y-101689D01*
X140695Y-101694D01*
X140742Y-101702D01*
X140791Y-101713D01*
X140843Y-101730D01*
X140897Y-101746D01*
X140955Y-101768D01*
X141009Y-101795D01*
X141067Y-101825D01*
X141124Y-101860D01*
X141176Y-101904D01*
X141228Y-101951D01*
X141230Y-101953D01*
X141239Y-101964D01*
X141252Y-101978D01*
X141269Y-102000D01*
X141290Y-102027D01*
X141312Y-102057D01*
X141334Y-102095D01*
X141361Y-102136D01*
X141386Y-102183D01*
X141408Y-102234D01*
X141432Y-102292D01*
X141452Y-102352D01*
X141468Y-102415D01*
X141482Y-102483D01*
X141490Y-102554D01*
X141492Y-102630D01*
Y-102636D01*
Y-102649D01*
X141490Y-102671D01*
Y-102699D01*
X141484Y-102734D01*
X141479Y-102775D01*
X141471Y-102822D01*
X141460Y-102871D01*
X141446Y-102925D01*
X141427Y-102980D01*
X141405Y-103037D01*
X141381Y-103094D01*
X141348Y-103155D01*
X141312Y-103209D01*
X141271Y-103267D01*
X141225Y-103318D01*
X141222Y-103321D01*
X141214Y-103329D01*
X141198Y-103343D01*
X141176Y-103359D01*
X141151Y-103381D01*
X141119Y-103403D01*
X141083Y-103428D01*
X141042Y-103452D01*
X140996Y-103479D01*
X140944Y-103504D01*
X140889Y-103526D01*
X140829Y-103545D01*
X140766Y-103564D01*
X140698Y-103578D01*
X140627Y-103586D01*
X140553Y-103589D01*
X140529D01*
X140510Y-103586D01*
X140488D01*
X140463Y-103583D01*
X140433Y-103580D01*
X140401Y-103575D01*
X140327Y-103561D01*
X140245Y-103542D01*
X140160Y-103515D01*
X140076Y-103477D01*
X140073Y-103474D01*
X140065Y-103471D01*
X140054Y-103466D01*
X140037Y-103455D01*
X140018Y-103444D01*
X139999Y-103428D01*
X139947Y-103392D01*
X139893Y-103346D01*
X139835Y-103288D01*
X139781Y-103220D01*
X139732Y-103144D01*
Y-103141D01*
X139726Y-103133D01*
X139721Y-103122D01*
X139713Y-103105D01*
X139704Y-103084D01*
X139693Y-103059D01*
X139685Y-103029D01*
X139674Y-102996D01*
X139663Y-102958D01*
X139653Y-102917D01*
X139641Y-102873D01*
X139633Y-102827D01*
X139625Y-102778D01*
X139620Y-102723D01*
X139617Y-102669D01*
X139614Y-102611D01*
Y-102609D01*
Y-102600D01*
Y-102587D01*
X139617Y-102570D01*
Y-102549D01*
X139620Y-102521D01*
X139625Y-102494D01*
X139628Y-102461D01*
X139644Y-102390D01*
X139663Y-102311D01*
X139693Y-102229D01*
X139710Y-102185D01*
X139732Y-102144D01*
X139734Y-102142D01*
X139737Y-102134D01*
X139745Y-102123D01*
X139753Y-102106D01*
X139764Y-102087D01*
X139781Y-102065D01*
X139816Y-102016D01*
X139865Y-101962D01*
X139923Y-101904D01*
X139988Y-101850D01*
X140065Y-101801D01*
X140067Y-101798D01*
X140076Y-101795D01*
X140086Y-101789D01*
X140103Y-101781D01*
X140125Y-101773D01*
X140149Y-101762D01*
X140177Y-101751D01*
X140207Y-101740D01*
X140242Y-101730D01*
X140280Y-101719D01*
X140362Y-101699D01*
X140452Y-101686D01*
X140501Y-101680D01*
X140570D01*
X140592Y-101683D01*
D02*
G37*
%LPC*%
G36*
X151260Y-102049D02*
X151244D01*
X151233Y-102052D01*
X151200Y-102057D01*
X151159Y-102065D01*
X151116Y-102082D01*
X151067Y-102106D01*
X151042Y-102123D01*
X151020Y-102142D01*
X150996Y-102164D01*
X150974Y-102188D01*
Y-102191D01*
X150968Y-102194D01*
X150963Y-102202D01*
X150955Y-102213D01*
X150946Y-102229D01*
X150938Y-102245D01*
X150927Y-102267D01*
X150916Y-102289D01*
X150906Y-102316D01*
X150895Y-102347D01*
X150886Y-102382D01*
X150878Y-102418D01*
X150870Y-102456D01*
X150865Y-102499D01*
X150862Y-102546D01*
X150859Y-102595D01*
Y-102598D01*
Y-102609D01*
Y-102622D01*
Y-102641D01*
X150862Y-102666D01*
X150865Y-102693D01*
Y-102726D01*
X150870Y-102756D01*
X150878Y-102827D01*
X150892Y-102895D01*
X150911Y-102963D01*
X150925Y-102991D01*
X150938Y-103018D01*
X150941Y-103021D01*
X150944Y-103026D01*
X150952Y-103034D01*
X150960Y-103048D01*
X150987Y-103078D01*
X151023Y-103111D01*
X151069Y-103146D01*
X151124Y-103176D01*
X151157Y-103190D01*
X151189Y-103198D01*
X151225Y-103204D01*
X151263Y-103206D01*
X151279D01*
X151291Y-103204D01*
X151323Y-103198D01*
X151361Y-103190D01*
X151405Y-103174D01*
X151454Y-103146D01*
X151476Y-103133D01*
X151501Y-103114D01*
X151525Y-103092D01*
X151547Y-103067D01*
X151550Y-103065D01*
X151552Y-103062D01*
X151558Y-103051D01*
X151566Y-103040D01*
X151574Y-103026D01*
X151585Y-103007D01*
X151596Y-102985D01*
X151607Y-102961D01*
X151618Y-102933D01*
X151626Y-102901D01*
X151637Y-102865D01*
X151645Y-102827D01*
X151654Y-102786D01*
X151659Y-102742D01*
X151664Y-102693D01*
Y-102641D01*
Y-102639D01*
Y-102628D01*
Y-102611D01*
X151662Y-102589D01*
Y-102565D01*
X151659Y-102535D01*
X151656Y-102502D01*
X151651Y-102467D01*
X151637Y-102393D01*
X151615Y-102316D01*
X151588Y-102248D01*
X151569Y-102215D01*
X151550Y-102188D01*
Y-102185D01*
X151544Y-102183D01*
X151531Y-102166D01*
X151506Y-102144D01*
X151471Y-102117D01*
X151430Y-102093D01*
X151381Y-102071D01*
X151323Y-102054D01*
X151293Y-102052D01*
X151260Y-102049D01*
D02*
G37*
G36*
X142743Y-102062D02*
X142726D01*
X142713Y-102065D01*
X142699Y-102068D01*
X142680Y-102071D01*
X142639Y-102079D01*
X142593Y-102095D01*
X142543Y-102120D01*
X142519Y-102136D01*
X142494Y-102155D01*
X142470Y-102177D01*
X142448Y-102202D01*
Y-102205D01*
X142443Y-102207D01*
X142437Y-102215D01*
X142429Y-102226D01*
X142421Y-102243D01*
X142412Y-102259D01*
X142402Y-102281D01*
X142391Y-102303D01*
X142380Y-102330D01*
X142369Y-102360D01*
X142361Y-102393D01*
X142352Y-102428D01*
X142344Y-102469D01*
X142339Y-102510D01*
X142336Y-102557D01*
X142333Y-102606D01*
Y-102609D01*
Y-102620D01*
Y-102636D01*
X142336Y-102655D01*
Y-102682D01*
X142339Y-102712D01*
X142344Y-102742D01*
X142350Y-102778D01*
X142363Y-102851D01*
X142385Y-102928D01*
X142415Y-102999D01*
X142432Y-103032D01*
X142453Y-103062D01*
X142456Y-103065D01*
X142459Y-103067D01*
X142475Y-103084D01*
X142503Y-103108D01*
X142538Y-103133D01*
X142582Y-103160D01*
X142631Y-103185D01*
X142691Y-103201D01*
X142721Y-103204D01*
X142754Y-103206D01*
X142770D01*
X142781Y-103204D01*
X142811Y-103198D01*
X142852Y-103190D01*
X142896Y-103174D01*
X142942Y-103149D01*
X142964Y-103135D01*
X142989Y-103116D01*
X143010Y-103097D01*
X143032Y-103073D01*
X143035Y-103070D01*
X143038Y-103067D01*
X143043Y-103059D01*
X143051Y-103048D01*
X143060Y-103032D01*
X143068Y-103015D01*
X143079Y-102994D01*
X143089Y-102966D01*
X143101Y-102939D01*
X143111Y-102906D01*
X143120Y-102871D01*
X143128Y-102830D01*
X143136Y-102786D01*
X143141Y-102737D01*
X143147Y-102685D01*
Y-102630D01*
Y-102628D01*
Y-102617D01*
Y-102603D01*
X143144Y-102584D01*
Y-102559D01*
X143141Y-102532D01*
X143136Y-102502D01*
X143133Y-102469D01*
X143120Y-102401D01*
X143098Y-102330D01*
X143068Y-102262D01*
X143051Y-102232D01*
X143029Y-102205D01*
Y-102202D01*
X143024Y-102199D01*
X143008Y-102183D01*
X142983Y-102161D01*
X142950Y-102134D01*
X142909Y-102106D01*
X142860Y-102084D01*
X142806Y-102068D01*
X142776Y-102065D01*
X142743Y-102062D01*
D02*
G37*
G36*
X153343Y-102049D02*
X153327D01*
X153316Y-102052D01*
X153289Y-102054D01*
X153251Y-102062D01*
X153210Y-102076D01*
X153166Y-102098D01*
X153125Y-102128D01*
X153103Y-102144D01*
X153084Y-102166D01*
X153079Y-102172D01*
X153068Y-102188D01*
X153051Y-102213D01*
X153032Y-102248D01*
X153013Y-102292D01*
X152997Y-102347D01*
X152986Y-102407D01*
X152983Y-102478D01*
X153704D01*
Y-102475D01*
Y-102469D01*
Y-102458D01*
X153701Y-102442D01*
X153698Y-102426D01*
X153696Y-102407D01*
X153687Y-102360D01*
X153674Y-102308D01*
X153655Y-102256D01*
X153630Y-102205D01*
X153595Y-102161D01*
X153589Y-102155D01*
X153576Y-102144D01*
X153554Y-102125D01*
X153524Y-102103D01*
X153488Y-102084D01*
X153444Y-102065D01*
X153395Y-102054D01*
X153343Y-102049D01*
D02*
G37*
G36*
X148173Y-102074D02*
X148154D01*
X148143Y-102076D01*
X148126Y-102079D01*
X148107Y-102082D01*
X148064Y-102093D01*
X148012Y-102109D01*
X147960Y-102134D01*
X147933Y-102150D01*
X147908Y-102169D01*
X147881Y-102194D01*
X147856Y-102218D01*
Y-102221D01*
X147851Y-102224D01*
X147845Y-102234D01*
X147837Y-102245D01*
X147826Y-102259D01*
X147815Y-102278D01*
X147804Y-102300D01*
X147793Y-102325D01*
X147782Y-102352D01*
X147772Y-102385D01*
X147761Y-102418D01*
X147750Y-102456D01*
X147741Y-102497D01*
X147736Y-102540D01*
X147733Y-102587D01*
X147731Y-102636D01*
Y-102639D01*
Y-102647D01*
Y-102663D01*
X147733Y-102680D01*
Y-102704D01*
X147736Y-102729D01*
X147741Y-102759D01*
X147747Y-102792D01*
X147761Y-102857D01*
X147782Y-102928D01*
X147815Y-102994D01*
X147834Y-103026D01*
X147856Y-103053D01*
X147859Y-103056D01*
X147862Y-103059D01*
X147870Y-103067D01*
X147878Y-103075D01*
X147908Y-103097D01*
X147943Y-103124D01*
X147990Y-103152D01*
X148045Y-103174D01*
X148105Y-103190D01*
X148137Y-103193D01*
X148173Y-103196D01*
X148192D01*
X148205Y-103193D01*
X148219Y-103190D01*
X148238Y-103187D01*
X148282Y-103176D01*
X148334Y-103160D01*
X148386Y-103135D01*
X148413Y-103119D01*
X148440Y-103100D01*
X148465Y-103078D01*
X148489Y-103053D01*
X148492Y-103051D01*
X148495Y-103045D01*
X148500Y-103037D01*
X148509Y-103026D01*
X148520Y-103013D01*
X148530Y-102994D01*
X148541Y-102972D01*
X148555Y-102947D01*
X148566Y-102920D01*
X148577Y-102887D01*
X148588Y-102851D01*
X148599Y-102816D01*
X148607Y-102775D01*
X148612Y-102731D01*
X148618Y-102682D01*
Y-102633D01*
Y-102630D01*
Y-102622D01*
Y-102606D01*
X148615Y-102589D01*
Y-102565D01*
X148612Y-102540D01*
X148607Y-102510D01*
X148601Y-102480D01*
X148588Y-102412D01*
X148563Y-102344D01*
X148533Y-102278D01*
X148511Y-102245D01*
X148489Y-102218D01*
X148487Y-102215D01*
X148484Y-102213D01*
X148476Y-102205D01*
X148468Y-102196D01*
X148440Y-102172D01*
X148402Y-102144D01*
X148356Y-102120D01*
X148301Y-102095D01*
X148241Y-102079D01*
X148208Y-102076D01*
X148173Y-102074D01*
D02*
G37*
G36*
X140551D02*
X140532D01*
X140521Y-102076D01*
X140504Y-102079D01*
X140485Y-102082D01*
X140441Y-102093D01*
X140390Y-102109D01*
X140338Y-102134D01*
X140310Y-102150D01*
X140286Y-102169D01*
X140259Y-102194D01*
X140234Y-102218D01*
Y-102221D01*
X140228Y-102224D01*
X140223Y-102234D01*
X140215Y-102245D01*
X140204Y-102259D01*
X140193Y-102278D01*
X140182Y-102300D01*
X140171Y-102325D01*
X140160Y-102352D01*
X140149Y-102385D01*
X140138Y-102418D01*
X140128Y-102456D01*
X140119Y-102497D01*
X140114Y-102540D01*
X140111Y-102587D01*
X140108Y-102636D01*
Y-102639D01*
Y-102647D01*
Y-102663D01*
X140111Y-102680D01*
Y-102704D01*
X140114Y-102729D01*
X140119Y-102759D01*
X140125Y-102792D01*
X140138Y-102857D01*
X140160Y-102928D01*
X140193Y-102994D01*
X140212Y-103026D01*
X140234Y-103053D01*
X140237Y-103056D01*
X140239Y-103059D01*
X140248Y-103067D01*
X140256Y-103075D01*
X140286Y-103097D01*
X140321Y-103124D01*
X140368Y-103152D01*
X140422Y-103174D01*
X140482Y-103190D01*
X140515Y-103193D01*
X140551Y-103196D01*
X140570D01*
X140583Y-103193D01*
X140597Y-103190D01*
X140616Y-103187D01*
X140660Y-103176D01*
X140712Y-103160D01*
X140764Y-103135D01*
X140791Y-103119D01*
X140818Y-103100D01*
X140843Y-103078D01*
X140867Y-103053D01*
X140870Y-103051D01*
X140873Y-103045D01*
X140878Y-103037D01*
X140886Y-103026D01*
X140897Y-103013D01*
X140908Y-102994D01*
X140919Y-102972D01*
X140933Y-102947D01*
X140944Y-102920D01*
X140955Y-102887D01*
X140966Y-102851D01*
X140977Y-102816D01*
X140985Y-102775D01*
X140990Y-102731D01*
X140996Y-102682D01*
Y-102633D01*
Y-102630D01*
Y-102622D01*
Y-102606D01*
X140993Y-102589D01*
Y-102565D01*
X140990Y-102540D01*
X140985Y-102510D01*
X140979Y-102480D01*
X140966Y-102412D01*
X140941Y-102344D01*
X140911Y-102278D01*
X140889Y-102245D01*
X140867Y-102218D01*
X140865Y-102215D01*
X140862Y-102213D01*
X140854Y-102205D01*
X140846Y-102196D01*
X140818Y-102172D01*
X140780Y-102144D01*
X140734Y-102120D01*
X140679Y-102095D01*
X140619Y-102079D01*
X140586Y-102076D01*
X140551Y-102074D01*
D02*
G37*
%LPD*%
D36*
X62500Y4650D02*
D03*
Y-1650D02*
D03*
X-70500Y30350D02*
D03*
Y36650D02*
D03*
X-76500Y30350D02*
D03*
Y36650D02*
D03*
X-82500Y30350D02*
D03*
Y36650D02*
D03*
X56500Y18150D02*
D03*
Y11850D02*
D03*
Y4650D02*
D03*
Y-1650D02*
D03*
X59000Y64850D02*
D03*
Y71150D02*
D03*
X53000D02*
D03*
Y64850D02*
D03*
X47000Y71150D02*
D03*
Y64850D02*
D03*
X41000D02*
D03*
Y71150D02*
D03*
D37*
X62319Y-22390D02*
D03*
X89681Y-8610D02*
D03*
Y-22390D02*
D03*
X62319Y-8610D02*
D03*
D38*
X-71850Y46228D02*
D03*
Y49772D02*
D03*
X-78150D02*
D03*
Y46228D02*
D03*
D39*
X-78650Y56500D02*
D03*
X-72350D02*
D03*
X32650Y17500D02*
D03*
X26350D02*
D03*
X150Y-5000D02*
D03*
X-6150D02*
D03*
X-13350D02*
D03*
X-19650D02*
D03*
X3650Y-51000D02*
D03*
X-2650D02*
D03*
Y-57000D02*
D03*
X3650D02*
D03*
X-2650Y-63287D02*
D03*
X3650D02*
D03*
X-1150Y-85500D02*
D03*
X5150D02*
D03*
X-1150Y-91500D02*
D03*
X5150D02*
D03*
X-72350Y77500D02*
D03*
X-78650D02*
D03*
X-72350Y71500D02*
D03*
X-78650D02*
D03*
X-72350Y62500D02*
D03*
X-78650D02*
D03*
X29850Y-80000D02*
D03*
X36150D02*
D03*
Y-55500D02*
D03*
X29850D02*
D03*
X36150Y-49500D02*
D03*
X29850D02*
D03*
X60850Y-73000D02*
D03*
X67150D02*
D03*
X60850Y-79000D02*
D03*
X67150D02*
D03*
D40*
X32610Y9000D02*
D03*
X26390D02*
D03*
X32610Y3000D02*
D03*
X26390D02*
D03*
X32610Y-21000D02*
D03*
X26390D02*
D03*
X32610Y-27000D02*
D03*
X26390D02*
D03*
X-63390Y-46500D02*
D03*
X-69610D02*
D03*
X-63390Y-52500D02*
D03*
X-69610D02*
D03*
D41*
X25248Y-5000D02*
D03*
D42*
Y-8740D02*
D03*
Y-12480D02*
D03*
X34500Y-5000D02*
D03*
Y-12480D02*
D03*
D43*
X14500Y-5000D02*
D03*
Y-11220D02*
D03*
X8500Y-4890D02*
D03*
Y-11110D02*
D03*
D44*
X-24870Y-84500D02*
D03*
X-36130D02*
D03*
D45*
X-61500Y-62232D02*
D03*
Y-78768D02*
D03*
D46*
X10000Y-20870D02*
D03*
Y-32130D02*
D03*
X52500Y-67370D02*
D03*
Y-78630D02*
D03*
D47*
X5937Y-77543D02*
D03*
Y-70457D02*
D03*
X-1937Y-74000D02*
D03*
X30126Y-67543D02*
D03*
X38000Y-64000D02*
D03*
Y-71087D02*
D03*
D48*
X12827Y82500D02*
D03*
Y77500D02*
D03*
Y72500D02*
D03*
Y67500D02*
D03*
Y62500D02*
D03*
Y57500D02*
D03*
Y52500D02*
D03*
Y47500D02*
D03*
Y42500D02*
D03*
Y37500D02*
D03*
Y32500D02*
D03*
Y27500D02*
D03*
Y22500D02*
D03*
Y17500D02*
D03*
D03*
X-58000D02*
D03*
Y82500D02*
D03*
D03*
Y22500D02*
D03*
Y27500D02*
D03*
Y32500D02*
D03*
Y37500D02*
D03*
Y42500D02*
D03*
Y47500D02*
D03*
Y52500D02*
D03*
Y57500D02*
D03*
Y62500D02*
D03*
Y67500D02*
D03*
Y72500D02*
D03*
Y77500D02*
D03*
D49*
X-87Y11594D02*
D03*
X-5087D02*
D03*
X-10087D02*
D03*
X-15087D02*
D03*
X-20087D02*
D03*
X-25087D02*
D03*
X-30087D02*
D03*
X-35087D02*
D03*
X-40087D02*
D03*
X-45087D02*
D03*
D03*
D50*
X-16300Y-67600D02*
D03*
D51*
X-8800Y-51900D02*
D03*
X-13800D02*
D03*
X-18800D02*
D03*
X-23800D02*
D03*
D52*
X-9000Y-32268D02*
D03*
Y-15732D02*
D03*
D53*
X-31260Y-6713D02*
D03*
Y-13406D02*
D03*
Y-20098D02*
D03*
Y-26791D02*
D03*
X-31457Y-33386D02*
D03*
D54*
X-75748Y-20000D02*
D03*
D55*
X-84646Y102362D02*
D03*
Y-94488D02*
D03*
X84646D02*
D03*
Y102362D02*
D03*
D56*
X47000Y88500D02*
D03*
X-35500Y-94500D02*
D03*
X-61500D02*
D03*
X61500D02*
D03*
D57*
X47000Y98500D02*
D03*
X37000Y88500D02*
D03*
Y98500D02*
D03*
X27000Y88500D02*
D03*
Y98500D02*
D03*
X82500Y28000D02*
D03*
Y18000D02*
D03*
X-25500Y-94500D02*
D03*
X-51500D02*
D03*
X51500D02*
D03*
X41500D02*
D03*
X31500D02*
D03*
X82500Y61000D02*
D03*
Y51000D02*
D03*
Y41000D02*
D03*
X70000Y61000D02*
D03*
Y51000D02*
D03*
Y41000D02*
D03*
D58*
X87500Y-72500D02*
D03*
D59*
X77500D02*
D03*
D60*
X-9000Y-34000D02*
D03*
Y-14000D02*
D03*
D61*
X82500Y8000D02*
D03*
Y71000D02*
D03*
X70000D02*
D03*
D62*
X-47000Y-70000D02*
D03*
D63*
X-37000D02*
D03*
M02*
