G04*
G04 #@! TF.GenerationSoftware,Altium Limited,Altium Designer,23.3.1 (30)*
G04*
G04 Layer_Color=8421504*
%FSLAX25Y25*%
%MOIN*%
G70*
G04*
G04 #@! TF.SameCoordinates,97A15D6B-2EEB-42C3-8D6F-FEDD3E2C4342*
G04*
G04*
G04 #@! TF.FilePolarity,Positive*
G04*
G01*
G75*
%ADD17R,0.03543X0.03799*%
%ADD18R,0.06102X0.05118*%
%ADD19R,0.03150X0.02165*%
%ADD20R,0.03799X0.03543*%
%ADD21R,0.02756X0.03543*%
%ADD22R,0.03937X0.01968*%
%ADD23O,0.03937X0.01968*%
%ADD24R,0.03543X0.02756*%
%ADD25R,0.05276X0.07087*%
%ADD26R,0.12598X0.05906*%
%ADD27R,0.07087X0.05276*%
%ADD28R,0.03543X0.03150*%
%ADD29R,0.05906X0.03543*%
%ADD30R,0.03543X0.05906*%
%ADD31R,0.17362X0.16142*%
%ADD32R,0.02362X0.05118*%
%ADD33R,0.23622X0.07874*%
%ADD34R,0.07874X0.03543*%
%ADD35R,0.31496X0.39370*%
G36*
X142907Y-93510D02*
X142931D01*
X142958Y-93515D01*
X142989Y-93521D01*
X143024Y-93529D01*
X143065Y-93537D01*
X143106Y-93551D01*
X143150Y-93567D01*
X143193Y-93589D01*
X143240Y-93613D01*
X143286Y-93641D01*
X143330Y-93676D01*
X143374Y-93714D01*
X143417Y-93758D01*
X143420Y-93761D01*
X143428Y-93769D01*
X143439Y-93783D01*
X143453Y-93805D01*
X143469Y-93829D01*
X143488Y-93859D01*
X143507Y-93897D01*
X143529Y-93938D01*
X143551Y-93985D01*
X143570Y-94037D01*
X143589Y-94094D01*
X143605Y-94157D01*
X143619Y-94222D01*
X143633Y-94293D01*
X143638Y-94370D01*
X143641Y-94452D01*
Y-94457D01*
Y-94471D01*
X143638Y-94495D01*
Y-94528D01*
X143635Y-94566D01*
X143630Y-94610D01*
X143622Y-94659D01*
X143614Y-94714D01*
X143600Y-94768D01*
X143586Y-94828D01*
X143567Y-94886D01*
X143545Y-94946D01*
X143521Y-95003D01*
X143491Y-95060D01*
X143455Y-95115D01*
X143417Y-95164D01*
X143414Y-95167D01*
X143406Y-95175D01*
X143395Y-95186D01*
X143376Y-95202D01*
X143354Y-95221D01*
X143330Y-95243D01*
X143300Y-95265D01*
X143264Y-95290D01*
X143229Y-95314D01*
X143185Y-95336D01*
X143141Y-95358D01*
X143092Y-95377D01*
X143043Y-95391D01*
X142989Y-95404D01*
X142934Y-95412D01*
X142874Y-95415D01*
X142849D01*
X142819Y-95412D01*
X142781Y-95407D01*
X142740Y-95402D01*
X142694Y-95391D01*
X142645Y-95374D01*
X142598Y-95355D01*
X142593Y-95353D01*
X142576Y-95344D01*
X142552Y-95328D01*
X142519Y-95306D01*
X142481Y-95279D01*
X142437Y-95243D01*
X142391Y-95200D01*
X142341Y-95151D01*
Y-96068D01*
X141858D01*
Y-93548D01*
X142309D01*
Y-93815D01*
X142314Y-93813D01*
X142325Y-93796D01*
X142344Y-93769D01*
X142371Y-93739D01*
X142404Y-93704D01*
X142445Y-93665D01*
X142492Y-93627D01*
X142543Y-93594D01*
X142546D01*
X142552Y-93592D01*
X142560Y-93586D01*
X142571Y-93581D01*
X142585Y-93575D01*
X142601Y-93567D01*
X142642Y-93551D01*
X142691Y-93534D01*
X142748Y-93521D01*
X142811Y-93510D01*
X142877Y-93507D01*
X142890D01*
X142907Y-93510D01*
D02*
G37*
G36*
X150027D02*
X150059D01*
X150095Y-93512D01*
X150133Y-93518D01*
X150177Y-93523D01*
X150267Y-93537D01*
X150357Y-93559D01*
X150403Y-93572D01*
X150444Y-93589D01*
X150485Y-93608D01*
X150521Y-93630D01*
X150523D01*
X150529Y-93635D01*
X150537Y-93643D01*
X150551Y-93652D01*
X150564Y-93665D01*
X150583Y-93682D01*
X150600Y-93701D01*
X150622Y-93720D01*
X150641Y-93744D01*
X150663Y-93772D01*
X150684Y-93802D01*
X150706Y-93835D01*
X150725Y-93867D01*
X150744Y-93906D01*
X150775Y-93990D01*
X150319Y-94075D01*
Y-94069D01*
X150313Y-94059D01*
X150305Y-94039D01*
X150294Y-94015D01*
X150278Y-93988D01*
X150259Y-93960D01*
X150234Y-93936D01*
X150207Y-93911D01*
X150204Y-93908D01*
X150190Y-93903D01*
X150174Y-93892D01*
X150147Y-93881D01*
X150114Y-93873D01*
X150076Y-93862D01*
X150027Y-93856D01*
X149975Y-93854D01*
X149945D01*
X149912Y-93856D01*
X149871Y-93859D01*
X149827Y-93867D01*
X149781Y-93875D01*
X149740Y-93889D01*
X149704Y-93908D01*
X149702Y-93911D01*
X149696Y-93914D01*
X149688Y-93925D01*
X149677Y-93936D01*
X149666Y-93949D01*
X149658Y-93966D01*
X149652Y-93985D01*
X149650Y-94007D01*
Y-94009D01*
Y-94015D01*
X149652Y-94026D01*
X149655Y-94037D01*
X149661Y-94050D01*
X149669Y-94064D01*
X149680Y-94080D01*
X149696Y-94094D01*
X149699Y-94097D01*
X149704Y-94099D01*
X149713Y-94102D01*
X149723Y-94108D01*
X149737Y-94113D01*
X149756Y-94121D01*
X149778Y-94129D01*
X149803Y-94138D01*
X149835Y-94149D01*
X149871Y-94160D01*
X149915Y-94173D01*
X149961Y-94184D01*
X150015Y-94200D01*
X150078Y-94214D01*
X150147Y-94230D01*
X150152D01*
X150163Y-94233D01*
X150182Y-94239D01*
X150209Y-94247D01*
X150239Y-94255D01*
X150278Y-94266D01*
X150316Y-94277D01*
X150359Y-94291D01*
X150447Y-94320D01*
X150537Y-94359D01*
X150578Y-94378D01*
X150616Y-94400D01*
X150654Y-94422D01*
X150684Y-94446D01*
X150687Y-94449D01*
X150690Y-94452D01*
X150698Y-94460D01*
X150709Y-94471D01*
X150720Y-94482D01*
X150733Y-94498D01*
X150747Y-94517D01*
X150761Y-94539D01*
X150788Y-94591D01*
X150813Y-94651D01*
X150832Y-94722D01*
X150835Y-94763D01*
X150837Y-94804D01*
Y-94806D01*
Y-94815D01*
Y-94828D01*
X150835Y-94845D01*
X150832Y-94867D01*
X150826Y-94894D01*
X150821Y-94921D01*
X150810Y-94951D01*
X150799Y-94984D01*
X150785Y-95019D01*
X150769Y-95055D01*
X150750Y-95090D01*
X150725Y-95129D01*
X150695Y-95164D01*
X150665Y-95200D01*
X150627Y-95235D01*
X150624Y-95238D01*
X150616Y-95243D01*
X150605Y-95252D01*
X150589Y-95262D01*
X150567Y-95276D01*
X150540Y-95292D01*
X150507Y-95309D01*
X150471Y-95325D01*
X150431Y-95342D01*
X150384Y-95358D01*
X150332Y-95374D01*
X150278Y-95388D01*
X150218Y-95399D01*
X150152Y-95407D01*
X150081Y-95412D01*
X150007Y-95415D01*
X149972D01*
X149945Y-95412D01*
X149915Y-95410D01*
X149876Y-95407D01*
X149838Y-95402D01*
X149794Y-95396D01*
X149699Y-95380D01*
X149601Y-95353D01*
X149551Y-95333D01*
X149502Y-95314D01*
X149459Y-95292D01*
X149415Y-95265D01*
X149412Y-95262D01*
X149407Y-95257D01*
X149396Y-95249D01*
X149379Y-95238D01*
X149363Y-95221D01*
X149344Y-95205D01*
X149322Y-95183D01*
X149300Y-95159D01*
X149276Y-95129D01*
X149251Y-95099D01*
X149229Y-95066D01*
X149205Y-95028D01*
X149183Y-94989D01*
X149164Y-94948D01*
X149147Y-94902D01*
X149134Y-94856D01*
X149617Y-94782D01*
Y-94785D01*
X149620Y-94787D01*
X149622Y-94804D01*
X149631Y-94831D01*
X149644Y-94861D01*
X149661Y-94897D01*
X149682Y-94932D01*
X149707Y-94965D01*
X149740Y-94995D01*
X149745Y-94998D01*
X149756Y-95006D01*
X149778Y-95017D01*
X149808Y-95030D01*
X149846Y-95044D01*
X149893Y-95055D01*
X149945Y-95063D01*
X150005Y-95066D01*
X150035D01*
X150051Y-95063D01*
X150070D01*
X150111Y-95058D01*
X150157Y-95050D01*
X150204Y-95036D01*
X150248Y-95019D01*
X150286Y-94998D01*
X150288Y-94995D01*
X150297Y-94989D01*
X150308Y-94978D01*
X150319Y-94965D01*
X150329Y-94946D01*
X150340Y-94924D01*
X150349Y-94899D01*
X150351Y-94869D01*
Y-94867D01*
Y-94861D01*
X150349Y-94850D01*
X150346Y-94836D01*
X150338Y-94809D01*
X150327Y-94793D01*
X150316Y-94779D01*
X150313Y-94776D01*
X150308Y-94774D01*
X150297Y-94766D01*
X150283Y-94757D01*
X150261Y-94746D01*
X150234Y-94735D01*
X150198Y-94725D01*
X150155Y-94714D01*
X150152D01*
X150149Y-94711D01*
X150141D01*
X150130Y-94708D01*
X150100Y-94700D01*
X150062Y-94692D01*
X150015Y-94681D01*
X149964Y-94667D01*
X149906Y-94654D01*
X149844Y-94637D01*
X149721Y-94599D01*
X149658Y-94580D01*
X149598Y-94561D01*
X149543Y-94539D01*
X149494Y-94520D01*
X149450Y-94498D01*
X149418Y-94479D01*
X149415Y-94476D01*
X149409Y-94471D01*
X149399Y-94463D01*
X149385Y-94452D01*
X149369Y-94438D01*
X149349Y-94419D01*
X149330Y-94397D01*
X149311Y-94372D01*
X149289Y-94345D01*
X149270Y-94315D01*
X149251Y-94280D01*
X149235Y-94244D01*
X149221Y-94203D01*
X149210Y-94162D01*
X149205Y-94116D01*
X149202Y-94069D01*
Y-94067D01*
Y-94059D01*
Y-94047D01*
X149205Y-94028D01*
X149207Y-94009D01*
X149213Y-93985D01*
X149218Y-93960D01*
X149227Y-93930D01*
X149248Y-93867D01*
X149262Y-93835D01*
X149281Y-93802D01*
X149303Y-93766D01*
X149328Y-93734D01*
X149355Y-93701D01*
X149388Y-93671D01*
X149390Y-93668D01*
X149396Y-93663D01*
X149407Y-93654D01*
X149423Y-93646D01*
X149442Y-93633D01*
X149467Y-93619D01*
X149497Y-93605D01*
X149530Y-93589D01*
X149568Y-93572D01*
X149611Y-93559D01*
X149658Y-93545D01*
X149710Y-93532D01*
X149767Y-93523D01*
X149830Y-93515D01*
X149895Y-93510D01*
X149966Y-93507D01*
X150002D01*
X150027Y-93510D01*
D02*
G37*
G36*
X148140D02*
X148173D01*
X148205Y-93512D01*
X148244Y-93518D01*
X148323Y-93526D01*
X148402Y-93540D01*
X148478Y-93559D01*
X148511Y-93572D01*
X148544Y-93586D01*
X148547D01*
X148552Y-93589D01*
X148560Y-93594D01*
X148569Y-93600D01*
X148599Y-93616D01*
X148631Y-93638D01*
X148670Y-93668D01*
X148705Y-93701D01*
X148741Y-93739D01*
X148768Y-93780D01*
X148771Y-93786D01*
X148773Y-93794D01*
X148779Y-93802D01*
X148784Y-93815D01*
X148790Y-93835D01*
X148795Y-93854D01*
X148801Y-93878D01*
X148806Y-93906D01*
X148812Y-93936D01*
X148817Y-93971D01*
X148822Y-94012D01*
X148828Y-94056D01*
X148831Y-94102D01*
X148833Y-94154D01*
Y-94211D01*
X148825Y-94776D01*
Y-94779D01*
Y-94787D01*
Y-94798D01*
Y-94815D01*
Y-94836D01*
Y-94858D01*
X148828Y-94910D01*
X148831Y-94968D01*
X148833Y-95028D01*
X148839Y-95082D01*
X148844Y-95109D01*
X148847Y-95131D01*
Y-95137D01*
X148853Y-95151D01*
X148858Y-95175D01*
X148866Y-95205D01*
X148877Y-95240D01*
X148893Y-95281D01*
X148913Y-95328D01*
X148934Y-95374D01*
X148457D01*
Y-95372D01*
X148454Y-95366D01*
X148449Y-95355D01*
X148443Y-95339D01*
X148438Y-95320D01*
X148427Y-95295D01*
X148418Y-95265D01*
X148408Y-95232D01*
Y-95230D01*
X148405Y-95224D01*
X148402Y-95208D01*
X148397Y-95189D01*
X148394Y-95180D01*
X148391Y-95175D01*
X148386Y-95180D01*
X148369Y-95194D01*
X148345Y-95216D01*
X148312Y-95243D01*
X148274Y-95271D01*
X148227Y-95301D01*
X148178Y-95331D01*
X148126Y-95355D01*
X148124D01*
X148121Y-95358D01*
X148113Y-95361D01*
X148102Y-95363D01*
X148074Y-95374D01*
X148036Y-95385D01*
X147993Y-95396D01*
X147941Y-95407D01*
X147886Y-95412D01*
X147826Y-95415D01*
X147799D01*
X147780Y-95412D01*
X147755Y-95410D01*
X147728Y-95407D01*
X147698Y-95402D01*
X147665Y-95396D01*
X147594Y-95380D01*
X147520Y-95353D01*
X147482Y-95333D01*
X147447Y-95314D01*
X147414Y-95292D01*
X147381Y-95265D01*
X147378Y-95262D01*
X147373Y-95257D01*
X147367Y-95249D01*
X147356Y-95238D01*
X147343Y-95221D01*
X147329Y-95205D01*
X147316Y-95183D01*
X147302Y-95159D01*
X147285Y-95131D01*
X147272Y-95104D01*
X147245Y-95036D01*
X147234Y-95000D01*
X147228Y-94962D01*
X147223Y-94921D01*
X147220Y-94877D01*
Y-94875D01*
Y-94869D01*
Y-94861D01*
Y-94850D01*
X147223Y-94823D01*
X147228Y-94785D01*
X147239Y-94741D01*
X147250Y-94695D01*
X147269Y-94648D01*
X147294Y-94602D01*
Y-94599D01*
X147297Y-94596D01*
X147307Y-94583D01*
X147324Y-94561D01*
X147348Y-94533D01*
X147376Y-94503D01*
X147411Y-94473D01*
X147452Y-94443D01*
X147499Y-94419D01*
X147501D01*
X147504Y-94416D01*
X147512Y-94413D01*
X147523Y-94408D01*
X147537Y-94402D01*
X147553Y-94394D01*
X147575Y-94389D01*
X147597Y-94381D01*
X147621Y-94372D01*
X147651Y-94362D01*
X147684Y-94353D01*
X147717Y-94342D01*
X147755Y-94334D01*
X147796Y-94323D01*
X147837Y-94312D01*
X147883Y-94304D01*
X147886D01*
X147897Y-94301D01*
X147916Y-94299D01*
X147938Y-94293D01*
X147965Y-94288D01*
X147998Y-94282D01*
X148034Y-94274D01*
X148072Y-94266D01*
X148148Y-94247D01*
X148227Y-94228D01*
X148263Y-94217D01*
X148298Y-94206D01*
X148328Y-94195D01*
X148356Y-94184D01*
Y-94138D01*
Y-94135D01*
Y-94132D01*
Y-94113D01*
X148353Y-94089D01*
X148347Y-94059D01*
X148339Y-94026D01*
X148326Y-93993D01*
X148309Y-93960D01*
X148285Y-93936D01*
X148282Y-93933D01*
X148271Y-93927D01*
X148252Y-93916D01*
X148227Y-93906D01*
X148192Y-93895D01*
X148145Y-93884D01*
X148118Y-93881D01*
X148091Y-93878D01*
X148058Y-93875D01*
X148001D01*
X147976Y-93878D01*
X147949Y-93881D01*
X147916Y-93889D01*
X147881Y-93897D01*
X147848Y-93911D01*
X147818Y-93927D01*
X147815Y-93930D01*
X147807Y-93938D01*
X147793Y-93949D01*
X147777Y-93968D01*
X147758Y-93993D01*
X147739Y-94026D01*
X147720Y-94064D01*
X147703Y-94108D01*
X147269Y-94028D01*
Y-94026D01*
X147272Y-94017D01*
X147277Y-94004D01*
X147283Y-93985D01*
X147291Y-93963D01*
X147302Y-93938D01*
X147329Y-93881D01*
X147365Y-93815D01*
X147408Y-93750D01*
X147460Y-93690D01*
X147490Y-93660D01*
X147523Y-93635D01*
X147526Y-93633D01*
X147531Y-93630D01*
X147542Y-93624D01*
X147556Y-93616D01*
X147575Y-93605D01*
X147599Y-93594D01*
X147627Y-93583D01*
X147657Y-93570D01*
X147695Y-93559D01*
X147733Y-93548D01*
X147777Y-93537D01*
X147826Y-93526D01*
X147878Y-93518D01*
X147935Y-93512D01*
X147995Y-93507D01*
X148116D01*
X148140Y-93510D01*
D02*
G37*
G36*
X145975Y-92857D02*
X146019D01*
X146068Y-92860D01*
X146172Y-92863D01*
X146221Y-92868D01*
X146270Y-92871D01*
X146316Y-92874D01*
X146357Y-92879D01*
X146393Y-92887D01*
X146423Y-92893D01*
X146426D01*
X146434Y-92896D01*
X146445Y-92898D01*
X146458Y-92904D01*
X146477Y-92912D01*
X146499Y-92920D01*
X146548Y-92945D01*
X146606Y-92977D01*
X146666Y-93021D01*
X146699Y-93048D01*
X146729Y-93076D01*
X146759Y-93106D01*
X146786Y-93141D01*
X146789Y-93144D01*
X146791Y-93149D01*
X146800Y-93160D01*
X146808Y-93174D01*
X146821Y-93193D01*
X146832Y-93218D01*
X146846Y-93242D01*
X146860Y-93272D01*
X146873Y-93308D01*
X146887Y-93343D01*
X146901Y-93384D01*
X146912Y-93428D01*
X146920Y-93474D01*
X146928Y-93523D01*
X146931Y-93578D01*
X146933Y-93633D01*
Y-93635D01*
Y-93643D01*
Y-93654D01*
Y-93671D01*
X146931Y-93690D01*
X146928Y-93714D01*
X146925Y-93739D01*
X146923Y-93769D01*
X146912Y-93829D01*
X146898Y-93895D01*
X146876Y-93960D01*
X146849Y-94023D01*
Y-94026D01*
X146846Y-94028D01*
X146841Y-94037D01*
X146832Y-94047D01*
X146816Y-94078D01*
X146791Y-94113D01*
X146759Y-94151D01*
X146723Y-94192D01*
X146679Y-94233D01*
X146633Y-94271D01*
X146630D01*
X146628Y-94274D01*
X146611Y-94285D01*
X146587Y-94301D01*
X146551Y-94320D01*
X146513Y-94340D01*
X146469Y-94359D01*
X146420Y-94375D01*
X146371Y-94389D01*
X146368D01*
X146363Y-94392D01*
X146352D01*
X146338Y-94394D01*
X146319Y-94397D01*
X146295Y-94400D01*
X146267Y-94402D01*
X146237Y-94405D01*
X146202Y-94411D01*
X146161Y-94413D01*
X146117Y-94416D01*
X146071Y-94419D01*
X146019Y-94422D01*
X145964D01*
X145904Y-94424D01*
X145511D01*
Y-95374D01*
X145003D01*
Y-92854D01*
X145931D01*
X145975Y-92857D01*
D02*
G37*
G36*
X139401Y-93280D02*
X138659D01*
Y-95374D01*
X138151D01*
Y-93280D01*
X137403D01*
Y-92854D01*
X139401D01*
Y-93280D01*
D02*
G37*
G36*
X153166Y-93510D02*
X153196Y-93512D01*
X153229Y-93515D01*
X153270Y-93521D01*
X153313Y-93529D01*
X153360Y-93540D01*
X153412Y-93556D01*
X153463Y-93572D01*
X153515Y-93594D01*
X153570Y-93622D01*
X153622Y-93652D01*
X153674Y-93687D01*
X153723Y-93731D01*
X153769Y-93777D01*
X153772Y-93780D01*
X153780Y-93791D01*
X153791Y-93805D01*
X153805Y-93826D01*
X153824Y-93856D01*
X153843Y-93892D01*
X153865Y-93933D01*
X153887Y-93979D01*
X153909Y-94034D01*
X153928Y-94097D01*
X153947Y-94162D01*
X153963Y-94236D01*
X153977Y-94318D01*
X153988Y-94405D01*
X153996Y-94498D01*
Y-94599D01*
X152787D01*
Y-94602D01*
Y-94607D01*
Y-94621D01*
X152789Y-94634D01*
X152792Y-94654D01*
X152795Y-94675D01*
X152803Y-94722D01*
X152816Y-94776D01*
X152836Y-94834D01*
X152863Y-94888D01*
X152901Y-94937D01*
X152904D01*
X152907Y-94943D01*
X152920Y-94957D01*
X152945Y-94976D01*
X152978Y-94995D01*
X153018Y-95017D01*
X153068Y-95036D01*
X153122Y-95050D01*
X153152Y-95052D01*
X153182Y-95055D01*
X153201D01*
X153221Y-95052D01*
X153248Y-95047D01*
X153278Y-95041D01*
X153308Y-95030D01*
X153341Y-95014D01*
X153371Y-94995D01*
X153373Y-94992D01*
X153384Y-94984D01*
X153398Y-94968D01*
X153414Y-94946D01*
X153436Y-94918D01*
X153455Y-94883D01*
X153474Y-94842D01*
X153491Y-94793D01*
X153971Y-94875D01*
Y-94877D01*
X153966Y-94886D01*
X153960Y-94899D01*
X153955Y-94918D01*
X153944Y-94940D01*
X153930Y-94965D01*
X153917Y-94995D01*
X153900Y-95025D01*
X153859Y-95090D01*
X153807Y-95156D01*
X153747Y-95221D01*
X153712Y-95252D01*
X153676Y-95279D01*
X153674Y-95281D01*
X153668Y-95284D01*
X153657Y-95292D01*
X153641Y-95301D01*
X153622Y-95311D01*
X153597Y-95323D01*
X153570Y-95333D01*
X153540Y-95347D01*
X153505Y-95361D01*
X153466Y-95372D01*
X153425Y-95382D01*
X153382Y-95393D01*
X153335Y-95402D01*
X153283Y-95410D01*
X153232Y-95412D01*
X153177Y-95415D01*
X153155D01*
X153130Y-95412D01*
X153098Y-95410D01*
X153059Y-95407D01*
X153013Y-95399D01*
X152964Y-95391D01*
X152909Y-95377D01*
X152852Y-95361D01*
X152795Y-95339D01*
X152737Y-95314D01*
X152677Y-95284D01*
X152623Y-95249D01*
X152568Y-95208D01*
X152519Y-95161D01*
X152472Y-95107D01*
X152470Y-95104D01*
X152464Y-95096D01*
X152456Y-95082D01*
X152445Y-95060D01*
X152432Y-95036D01*
X152415Y-95008D01*
X152399Y-94973D01*
X152382Y-94935D01*
X152366Y-94891D01*
X152350Y-94842D01*
X152333Y-94790D01*
X152320Y-94735D01*
X152309Y-94675D01*
X152301Y-94613D01*
X152295Y-94544D01*
X152292Y-94476D01*
Y-94471D01*
Y-94457D01*
X152295Y-94432D01*
Y-94402D01*
X152301Y-94364D01*
X152306Y-94318D01*
X152312Y-94271D01*
X152322Y-94217D01*
X152333Y-94162D01*
X152350Y-94105D01*
X152369Y-94045D01*
X152391Y-93985D01*
X152418Y-93927D01*
X152451Y-93870D01*
X152486Y-93815D01*
X152527Y-93766D01*
X152530Y-93764D01*
X152538Y-93755D01*
X152552Y-93742D01*
X152571Y-93725D01*
X152593Y-93706D01*
X152623Y-93685D01*
X152655Y-93660D01*
X152691Y-93635D01*
X152732Y-93613D01*
X152778Y-93589D01*
X152827Y-93567D01*
X152882Y-93548D01*
X152937Y-93532D01*
X152997Y-93518D01*
X153062Y-93510D01*
X153128Y-93507D01*
X153147D01*
X153166Y-93510D01*
D02*
G37*
G36*
X151768Y-93548D02*
X152099D01*
Y-93933D01*
X151768D01*
Y-94670D01*
Y-94673D01*
Y-94681D01*
Y-94692D01*
Y-94705D01*
Y-94722D01*
Y-94744D01*
Y-94787D01*
X151771Y-94831D01*
Y-94875D01*
X151774Y-94894D01*
Y-94910D01*
X151776Y-94924D01*
Y-94932D01*
Y-94935D01*
X151779Y-94937D01*
X151785Y-94954D01*
X151798Y-94973D01*
X151817Y-94992D01*
X151820D01*
X151823Y-94995D01*
X151831Y-94998D01*
X151842Y-95003D01*
X151866Y-95011D01*
X151899Y-95014D01*
X151913D01*
X151927Y-95011D01*
X151948Y-95008D01*
X151976Y-95003D01*
X152011Y-94995D01*
X152049Y-94984D01*
X152093Y-94970D01*
X152137Y-95344D01*
X152134D01*
X152129Y-95347D01*
X152120Y-95350D01*
X152107Y-95355D01*
X152090Y-95361D01*
X152071Y-95366D01*
X152049Y-95374D01*
X152025Y-95380D01*
X151970Y-95393D01*
X151905Y-95404D01*
X151831Y-95412D01*
X151754Y-95415D01*
X151733D01*
X151708Y-95412D01*
X151675Y-95410D01*
X151640Y-95404D01*
X151602Y-95396D01*
X151561Y-95385D01*
X151520Y-95372D01*
X151514Y-95369D01*
X151503Y-95363D01*
X151484Y-95355D01*
X151462Y-95342D01*
X151438Y-95325D01*
X151411Y-95306D01*
X151389Y-95284D01*
X151367Y-95260D01*
X151364Y-95257D01*
X151359Y-95246D01*
X151350Y-95230D01*
X151340Y-95210D01*
X151329Y-95183D01*
X151318Y-95151D01*
X151307Y-95112D01*
X151299Y-95071D01*
Y-95066D01*
X151296Y-95055D01*
Y-95044D01*
X151293Y-95030D01*
Y-95014D01*
Y-94998D01*
X151291Y-94976D01*
Y-94951D01*
X151288Y-94924D01*
Y-94891D01*
X151285Y-94856D01*
Y-94817D01*
Y-94776D01*
Y-94730D01*
Y-93933D01*
X151064D01*
Y-93548D01*
X151285D01*
Y-93185D01*
X151768Y-92901D01*
Y-93548D01*
D02*
G37*
G36*
X140592Y-93510D02*
X140619Y-93512D01*
X140654Y-93515D01*
X140695Y-93521D01*
X140742Y-93529D01*
X140791Y-93540D01*
X140843Y-93556D01*
X140897Y-93572D01*
X140955Y-93594D01*
X141009Y-93622D01*
X141067Y-93652D01*
X141124Y-93687D01*
X141176Y-93731D01*
X141228Y-93777D01*
X141230Y-93780D01*
X141239Y-93791D01*
X141252Y-93805D01*
X141269Y-93826D01*
X141290Y-93854D01*
X141312Y-93884D01*
X141334Y-93922D01*
X141361Y-93963D01*
X141386Y-94009D01*
X141408Y-94061D01*
X141432Y-94118D01*
X141452Y-94179D01*
X141468Y-94241D01*
X141482Y-94310D01*
X141490Y-94381D01*
X141492Y-94457D01*
Y-94463D01*
Y-94476D01*
X141490Y-94498D01*
Y-94525D01*
X141484Y-94561D01*
X141479Y-94602D01*
X141471Y-94648D01*
X141460Y-94697D01*
X141446Y-94752D01*
X141427Y-94806D01*
X141405Y-94864D01*
X141381Y-94921D01*
X141348Y-94981D01*
X141312Y-95036D01*
X141271Y-95093D01*
X141225Y-95145D01*
X141222Y-95148D01*
X141214Y-95156D01*
X141198Y-95170D01*
X141176Y-95186D01*
X141151Y-95208D01*
X141119Y-95230D01*
X141083Y-95254D01*
X141042Y-95279D01*
X140996Y-95306D01*
X140944Y-95331D01*
X140889Y-95353D01*
X140829Y-95372D01*
X140766Y-95391D01*
X140698Y-95404D01*
X140627Y-95412D01*
X140553Y-95415D01*
X140529D01*
X140510Y-95412D01*
X140488D01*
X140463Y-95410D01*
X140433Y-95407D01*
X140401Y-95402D01*
X140327Y-95388D01*
X140245Y-95369D01*
X140160Y-95342D01*
X140076Y-95303D01*
X140073Y-95301D01*
X140065Y-95298D01*
X140054Y-95292D01*
X140037Y-95281D01*
X140018Y-95271D01*
X139999Y-95254D01*
X139947Y-95219D01*
X139893Y-95172D01*
X139835Y-95115D01*
X139781Y-95047D01*
X139732Y-94970D01*
Y-94968D01*
X139726Y-94959D01*
X139721Y-94948D01*
X139713Y-94932D01*
X139704Y-94910D01*
X139693Y-94886D01*
X139685Y-94856D01*
X139674Y-94823D01*
X139663Y-94785D01*
X139653Y-94744D01*
X139641Y-94700D01*
X139633Y-94654D01*
X139625Y-94604D01*
X139620Y-94550D01*
X139617Y-94495D01*
X139614Y-94438D01*
Y-94435D01*
Y-94427D01*
Y-94413D01*
X139617Y-94397D01*
Y-94375D01*
X139620Y-94348D01*
X139625Y-94320D01*
X139628Y-94288D01*
X139644Y-94217D01*
X139663Y-94138D01*
X139693Y-94056D01*
X139710Y-94012D01*
X139732Y-93971D01*
X139734Y-93968D01*
X139737Y-93960D01*
X139745Y-93949D01*
X139753Y-93933D01*
X139764Y-93914D01*
X139781Y-93892D01*
X139816Y-93843D01*
X139865Y-93788D01*
X139923Y-93731D01*
X139988Y-93676D01*
X140065Y-93627D01*
X140067Y-93624D01*
X140076Y-93622D01*
X140086Y-93616D01*
X140103Y-93608D01*
X140125Y-93600D01*
X140149Y-93589D01*
X140177Y-93578D01*
X140207Y-93567D01*
X140242Y-93556D01*
X140280Y-93545D01*
X140362Y-93526D01*
X140452Y-93512D01*
X140501Y-93507D01*
X140570D01*
X140592Y-93510D01*
D02*
G37*
%LPC*%
G36*
X142743Y-93889D02*
X142726D01*
X142713Y-93892D01*
X142699Y-93895D01*
X142680Y-93897D01*
X142639Y-93906D01*
X142593Y-93922D01*
X142543Y-93946D01*
X142519Y-93963D01*
X142494Y-93982D01*
X142470Y-94004D01*
X142448Y-94028D01*
Y-94031D01*
X142443Y-94034D01*
X142437Y-94042D01*
X142429Y-94053D01*
X142421Y-94069D01*
X142412Y-94086D01*
X142402Y-94108D01*
X142391Y-94129D01*
X142380Y-94157D01*
X142369Y-94187D01*
X142361Y-94219D01*
X142352Y-94255D01*
X142344Y-94296D01*
X142339Y-94337D01*
X142336Y-94383D01*
X142333Y-94432D01*
Y-94435D01*
Y-94446D01*
Y-94463D01*
X142336Y-94482D01*
Y-94509D01*
X142339Y-94539D01*
X142344Y-94569D01*
X142350Y-94604D01*
X142363Y-94678D01*
X142385Y-94755D01*
X142415Y-94826D01*
X142432Y-94858D01*
X142453Y-94888D01*
X142456Y-94891D01*
X142459Y-94894D01*
X142475Y-94910D01*
X142503Y-94935D01*
X142538Y-94959D01*
X142582Y-94987D01*
X142631Y-95011D01*
X142691Y-95028D01*
X142721Y-95030D01*
X142754Y-95033D01*
X142770D01*
X142781Y-95030D01*
X142811Y-95025D01*
X142852Y-95017D01*
X142896Y-95000D01*
X142942Y-94976D01*
X142964Y-94962D01*
X142989Y-94943D01*
X143010Y-94924D01*
X143032Y-94899D01*
X143035Y-94897D01*
X143038Y-94894D01*
X143043Y-94886D01*
X143051Y-94875D01*
X143060Y-94858D01*
X143068Y-94842D01*
X143079Y-94820D01*
X143089Y-94793D01*
X143101Y-94766D01*
X143111Y-94733D01*
X143120Y-94697D01*
X143128Y-94656D01*
X143136Y-94613D01*
X143141Y-94564D01*
X143147Y-94512D01*
Y-94457D01*
Y-94454D01*
Y-94443D01*
Y-94430D01*
X143144Y-94411D01*
Y-94386D01*
X143141Y-94359D01*
X143136Y-94329D01*
X143133Y-94296D01*
X143120Y-94228D01*
X143098Y-94157D01*
X143068Y-94089D01*
X143051Y-94059D01*
X143029Y-94031D01*
Y-94028D01*
X143024Y-94026D01*
X143008Y-94009D01*
X142983Y-93988D01*
X142950Y-93960D01*
X142909Y-93933D01*
X142860Y-93911D01*
X142806Y-93895D01*
X142776Y-93892D01*
X142743Y-93889D01*
D02*
G37*
G36*
X148356Y-94498D02*
X148350Y-94501D01*
X148337Y-94503D01*
X148315Y-94512D01*
X148282Y-94520D01*
X148241Y-94531D01*
X148189Y-94544D01*
X148129Y-94558D01*
X148058Y-94574D01*
X148055D01*
X148050Y-94577D01*
X148039D01*
X148025Y-94583D01*
X147993Y-94591D01*
X147952Y-94599D01*
X147908Y-94613D01*
X147864Y-94626D01*
X147826Y-94640D01*
X147810Y-94648D01*
X147796Y-94656D01*
X147793Y-94659D01*
X147782Y-94667D01*
X147766Y-94684D01*
X147750Y-94703D01*
X147733Y-94727D01*
X147717Y-94757D01*
X147706Y-94790D01*
X147703Y-94826D01*
Y-94831D01*
Y-94842D01*
X147706Y-94861D01*
X147711Y-94886D01*
X147722Y-94913D01*
X147733Y-94943D01*
X147752Y-94970D01*
X147777Y-95000D01*
X147780Y-95003D01*
X147791Y-95011D01*
X147807Y-95025D01*
X147829Y-95036D01*
X147859Y-95050D01*
X147892Y-95063D01*
X147930Y-95071D01*
X147971Y-95074D01*
X147976D01*
X147993Y-95071D01*
X148017Y-95069D01*
X148050Y-95063D01*
X148088Y-95052D01*
X148132Y-95038D01*
X148176Y-95017D01*
X148219Y-94989D01*
X148222Y-94987D01*
X148233Y-94978D01*
X148249Y-94965D01*
X148266Y-94946D01*
X148287Y-94921D01*
X148307Y-94894D01*
X148323Y-94864D01*
X148337Y-94831D01*
Y-94828D01*
X148339Y-94817D01*
X148342Y-94801D01*
X148347Y-94779D01*
X148350Y-94746D01*
X148353Y-94705D01*
X148356Y-94656D01*
Y-94596D01*
Y-94498D01*
D02*
G37*
G36*
X145852Y-93280D02*
X145511D01*
Y-93998D01*
X145863D01*
X145890Y-93996D01*
X145953Y-93993D01*
X146019Y-93990D01*
X146084Y-93982D01*
X146117Y-93977D01*
X146144Y-93974D01*
X146169Y-93966D01*
X146191Y-93960D01*
X146196Y-93957D01*
X146207Y-93952D01*
X146226Y-93944D01*
X146248Y-93930D01*
X146273Y-93911D01*
X146300Y-93889D01*
X146327Y-93865D01*
X146349Y-93835D01*
X146352Y-93832D01*
X146357Y-93818D01*
X146368Y-93802D01*
X146379Y-93777D01*
X146390Y-93750D01*
X146401Y-93717D01*
X146406Y-93679D01*
X146409Y-93638D01*
Y-93635D01*
Y-93633D01*
Y-93616D01*
X146404Y-93589D01*
X146398Y-93559D01*
X146390Y-93523D01*
X146374Y-93485D01*
X146355Y-93447D01*
X146327Y-93411D01*
X146325Y-93409D01*
X146314Y-93398D01*
X146295Y-93381D01*
X146270Y-93362D01*
X146243Y-93343D01*
X146207Y-93327D01*
X146166Y-93310D01*
X146123Y-93300D01*
X146117D01*
X146103Y-93297D01*
X146092Y-93294D01*
X146079D01*
X146063Y-93291D01*
X146043Y-93289D01*
X146019D01*
X145992Y-93286D01*
X145961D01*
X145929Y-93283D01*
X145893D01*
X145852Y-93280D01*
D02*
G37*
G36*
X153155Y-93875D02*
X153139D01*
X153128Y-93878D01*
X153100Y-93881D01*
X153062Y-93889D01*
X153021Y-93903D01*
X152978Y-93925D01*
X152937Y-93955D01*
X152915Y-93971D01*
X152896Y-93993D01*
X152890Y-93998D01*
X152879Y-94015D01*
X152863Y-94039D01*
X152844Y-94075D01*
X152825Y-94118D01*
X152808Y-94173D01*
X152797Y-94233D01*
X152795Y-94304D01*
X153515D01*
Y-94301D01*
Y-94296D01*
Y-94285D01*
X153513Y-94269D01*
X153510Y-94252D01*
X153507Y-94233D01*
X153499Y-94187D01*
X153485Y-94135D01*
X153466Y-94083D01*
X153442Y-94031D01*
X153406Y-93988D01*
X153401Y-93982D01*
X153387Y-93971D01*
X153365Y-93952D01*
X153335Y-93930D01*
X153300Y-93911D01*
X153256Y-93892D01*
X153207Y-93881D01*
X153155Y-93875D01*
D02*
G37*
G36*
X140551Y-93900D02*
X140532D01*
X140521Y-93903D01*
X140504Y-93906D01*
X140485Y-93908D01*
X140441Y-93919D01*
X140390Y-93936D01*
X140338Y-93960D01*
X140310Y-93977D01*
X140286Y-93996D01*
X140259Y-94020D01*
X140234Y-94045D01*
Y-94047D01*
X140228Y-94050D01*
X140223Y-94061D01*
X140215Y-94072D01*
X140204Y-94086D01*
X140193Y-94105D01*
X140182Y-94127D01*
X140171Y-94151D01*
X140160Y-94179D01*
X140149Y-94211D01*
X140138Y-94244D01*
X140128Y-94282D01*
X140119Y-94323D01*
X140114Y-94367D01*
X140111Y-94413D01*
X140108Y-94463D01*
Y-94465D01*
Y-94473D01*
Y-94490D01*
X140111Y-94506D01*
Y-94531D01*
X140114Y-94555D01*
X140119Y-94585D01*
X140125Y-94618D01*
X140138Y-94684D01*
X140160Y-94755D01*
X140193Y-94820D01*
X140212Y-94853D01*
X140234Y-94880D01*
X140237Y-94883D01*
X140239Y-94886D01*
X140248Y-94894D01*
X140256Y-94902D01*
X140286Y-94924D01*
X140321Y-94951D01*
X140368Y-94978D01*
X140422Y-95000D01*
X140482Y-95017D01*
X140515Y-95019D01*
X140551Y-95022D01*
X140570D01*
X140583Y-95019D01*
X140597Y-95017D01*
X140616Y-95014D01*
X140660Y-95003D01*
X140712Y-94987D01*
X140764Y-94962D01*
X140791Y-94946D01*
X140818Y-94927D01*
X140843Y-94905D01*
X140867Y-94880D01*
X140870Y-94877D01*
X140873Y-94872D01*
X140878Y-94864D01*
X140886Y-94853D01*
X140897Y-94839D01*
X140908Y-94820D01*
X140919Y-94798D01*
X140933Y-94774D01*
X140944Y-94746D01*
X140955Y-94714D01*
X140966Y-94678D01*
X140977Y-94643D01*
X140985Y-94602D01*
X140990Y-94558D01*
X140996Y-94509D01*
Y-94460D01*
Y-94457D01*
Y-94449D01*
Y-94432D01*
X140993Y-94416D01*
Y-94392D01*
X140990Y-94367D01*
X140985Y-94337D01*
X140979Y-94307D01*
X140966Y-94239D01*
X140941Y-94170D01*
X140911Y-94105D01*
X140889Y-94072D01*
X140867Y-94045D01*
X140865Y-94042D01*
X140862Y-94039D01*
X140854Y-94031D01*
X140846Y-94023D01*
X140818Y-93998D01*
X140780Y-93971D01*
X140734Y-93946D01*
X140679Y-93922D01*
X140619Y-93906D01*
X140586Y-93903D01*
X140551Y-93900D01*
D02*
G37*
%LPD*%
D17*
X62500Y4650D02*
D03*
Y-1650D02*
D03*
X-70500Y30350D02*
D03*
Y36650D02*
D03*
X-76500Y30350D02*
D03*
Y36650D02*
D03*
X-82500Y30350D02*
D03*
Y36650D02*
D03*
X56500Y18150D02*
D03*
Y11850D02*
D03*
Y4650D02*
D03*
Y-1650D02*
D03*
X59000Y64850D02*
D03*
Y71150D02*
D03*
X53000D02*
D03*
Y64850D02*
D03*
X47000Y71150D02*
D03*
Y64850D02*
D03*
X41000D02*
D03*
Y71150D02*
D03*
D18*
X62319Y-22390D02*
D03*
X89681Y-8610D02*
D03*
Y-22390D02*
D03*
X62319Y-8610D02*
D03*
D19*
X-71850Y46228D02*
D03*
Y49772D02*
D03*
X-78150D02*
D03*
Y46228D02*
D03*
D20*
X-78650Y56500D02*
D03*
X-72350D02*
D03*
X32650Y17500D02*
D03*
X26350D02*
D03*
X150Y-5000D02*
D03*
X-6150D02*
D03*
X-13350D02*
D03*
X-19650D02*
D03*
X3650Y-51000D02*
D03*
X-2650D02*
D03*
Y-57000D02*
D03*
X3650D02*
D03*
X-2650Y-63287D02*
D03*
X3650D02*
D03*
X-1150Y-85500D02*
D03*
X5150D02*
D03*
X-1150Y-91500D02*
D03*
X5150D02*
D03*
X-72350Y77500D02*
D03*
X-78650D02*
D03*
X-72350Y71500D02*
D03*
X-78650D02*
D03*
X-72350Y62500D02*
D03*
X-78650D02*
D03*
X29850Y-80000D02*
D03*
X36150D02*
D03*
Y-55500D02*
D03*
X29850D02*
D03*
X36150Y-49500D02*
D03*
X29850D02*
D03*
X60850Y-73000D02*
D03*
X67150D02*
D03*
X60850Y-79000D02*
D03*
X67150D02*
D03*
D21*
X32610Y9000D02*
D03*
X26390D02*
D03*
X32610Y3000D02*
D03*
X26390D02*
D03*
X32610Y-21000D02*
D03*
X26390D02*
D03*
X32610Y-27000D02*
D03*
X26390D02*
D03*
X-63390Y-46500D02*
D03*
X-69610D02*
D03*
X-63390Y-52500D02*
D03*
X-69610D02*
D03*
D22*
X25248Y-5000D02*
D03*
D23*
Y-8740D02*
D03*
Y-12480D02*
D03*
X34500Y-5000D02*
D03*
Y-12480D02*
D03*
D24*
X14500Y-5000D02*
D03*
Y-11220D02*
D03*
X8500Y-4890D02*
D03*
Y-11110D02*
D03*
D25*
X-24870Y-84500D02*
D03*
X-36130D02*
D03*
D26*
X-61500Y-62232D02*
D03*
Y-78768D02*
D03*
D27*
X10000Y-20870D02*
D03*
Y-32130D02*
D03*
X52500Y-67370D02*
D03*
Y-78630D02*
D03*
D28*
X5937Y-77543D02*
D03*
Y-70457D02*
D03*
X-1937Y-74000D02*
D03*
X30126Y-67543D02*
D03*
X38000Y-64000D02*
D03*
Y-71087D02*
D03*
D29*
X12827Y82500D02*
D03*
Y77500D02*
D03*
Y72500D02*
D03*
Y67500D02*
D03*
Y62500D02*
D03*
Y57500D02*
D03*
Y52500D02*
D03*
Y47500D02*
D03*
Y42500D02*
D03*
Y37500D02*
D03*
Y32500D02*
D03*
Y27500D02*
D03*
Y22500D02*
D03*
Y17500D02*
D03*
D03*
X-58000D02*
D03*
Y82500D02*
D03*
D03*
Y22500D02*
D03*
Y27500D02*
D03*
Y32500D02*
D03*
Y37500D02*
D03*
Y42500D02*
D03*
Y47500D02*
D03*
Y52500D02*
D03*
Y57500D02*
D03*
Y62500D02*
D03*
Y67500D02*
D03*
Y72500D02*
D03*
Y77500D02*
D03*
D30*
X-87Y11594D02*
D03*
X-5087D02*
D03*
X-10087D02*
D03*
X-15087D02*
D03*
X-20087D02*
D03*
X-25087D02*
D03*
X-30087D02*
D03*
X-35087D02*
D03*
X-40087D02*
D03*
X-45087D02*
D03*
D03*
D31*
X-16300Y-67600D02*
D03*
D32*
X-8800Y-51900D02*
D03*
X-13800D02*
D03*
X-18800D02*
D03*
X-23800D02*
D03*
D33*
X-9000Y-32268D02*
D03*
Y-15732D02*
D03*
D34*
X-31260Y-6713D02*
D03*
Y-13406D02*
D03*
Y-20098D02*
D03*
Y-26791D02*
D03*
X-31457Y-33386D02*
D03*
D35*
X-75748Y-20000D02*
D03*
M02*
