solid ASCII
  facet normal 4.553851e-01 -5.427068e-01 7.057576e-01
    outer loop
      vertex   2.726021e+01 -2.176021e+01 -1.130000e+01
      vertex   2.704807e+01 -2.154807e+01 -1.100000e+01
      vertex   2.722015e+01 -2.179382e+01 -1.130000e+01
    endloop
  endfacet
  facet normal -5.427068e-01 4.553851e-01 7.057576e-01
    outer loop
      vertex   2.683594e+01 -2.133594e+01 -1.130000e+01
      vertex   2.680233e+01 -2.137600e+01 -1.130000e+01
      vertex   2.704807e+01 -2.154807e+01 -1.100000e+01
    endloop
  endfacet
  facet normal -6.135387e-01 3.542267e-01 7.057576e-01
    outer loop
      vertex   2.680233e+01 -2.137600e+01 -1.130000e+01
      vertex   2.677618e+01 -2.142129e+01 -1.130000e+01
      vertex   2.704807e+01 -2.154807e+01 -1.100000e+01
    endloop
  endfacet
  facet normal -6.657285e-01 2.423053e-01 7.057576e-01
    outer loop
      vertex   2.677618e+01 -2.142129e+01 -1.130000e+01
      vertex   2.675830e+01 -2.147043e+01 -1.130000e+01
      vertex   2.704807e+01 -2.154807e+01 -1.100000e+01
    endloop
  endfacet
  facet normal -6.976904e-01 1.230216e-01 7.057576e-01
    outer loop
      vertex   2.675830e+01 -2.147043e+01 -1.130000e+01
      vertex   2.674922e+01 -2.152193e+01 -1.130000e+01
      vertex   2.704807e+01 -2.154807e+01 -1.100000e+01
    endloop
  endfacet
  facet normal -7.084534e-01 -4.813093e-14 7.057576e-01
    outer loop
      vertex   2.674922e+01 -2.152193e+01 -1.130000e+01
      vertex   2.674922e+01 -2.157422e+01 -1.130000e+01
      vertex   2.704807e+01 -2.154807e+01 -1.100000e+01
    endloop
  endfacet
  facet normal -6.976904e-01 -1.230216e-01 7.057576e-01
    outer loop
      vertex   2.674922e+01 -2.157422e+01 -1.130000e+01
      vertex   2.675830e+01 -2.162572e+01 -1.130000e+01
      vertex   2.704807e+01 -2.154807e+01 -1.100000e+01
    endloop
  endfacet
  facet normal -6.657285e-01 -2.423053e-01 7.057576e-01
    outer loop
      vertex   2.675830e+01 -2.162572e+01 -1.130000e+01
      vertex   2.677618e+01 -2.167486e+01 -1.130000e+01
      vertex   2.704807e+01 -2.154807e+01 -1.100000e+01
    endloop
  endfacet
  facet normal -6.135387e-01 -3.542267e-01 7.057576e-01
    outer loop
      vertex   2.677618e+01 -2.167486e+01 -1.130000e+01
      vertex   2.680233e+01 -2.172015e+01 -1.130000e+01
      vertex   2.704807e+01 -2.154807e+01 -1.100000e+01
    endloop
  endfacet
  facet normal -5.427068e-01 -4.553851e-01 7.057576e-01
    outer loop
      vertex   2.680233e+01 -2.172015e+01 -1.130000e+01
      vertex   2.683594e+01 -2.176021e+01 -1.130000e+01
      vertex   2.704807e+01 -2.154807e+01 -1.100000e+01
    endloop
  endfacet
  facet normal -4.553851e-01 -5.427068e-01 7.057576e-01
    outer loop
      vertex   2.683594e+01 -2.176021e+01 -1.130000e+01
      vertex   2.687600e+01 -2.179382e+01 -1.130000e+01
      vertex   2.704807e+01 -2.154807e+01 -1.100000e+01
    endloop
  endfacet
  facet normal -3.542267e-01 -6.135387e-01 7.057576e-01
    outer loop
      vertex   2.687600e+01 -2.179382e+01 -1.130000e+01
      vertex   2.692129e+01 -2.181997e+01 -1.130000e+01
      vertex   2.704807e+01 -2.154807e+01 -1.100000e+01
    endloop
  endfacet
  facet normal -2.423053e-01 -6.657285e-01 7.057576e-01
    outer loop
      vertex   2.692129e+01 -2.181997e+01 -1.130000e+01
      vertex   2.697043e+01 -2.183785e+01 -1.130000e+01
      vertex   2.704807e+01 -2.154807e+01 -1.100000e+01
    endloop
  endfacet
  facet normal -1.230216e-01 -6.976904e-01 7.057576e-01
    outer loop
      vertex   2.697043e+01 -2.183785e+01 -1.130000e+01
      vertex   2.702193e+01 -2.184693e+01 -1.130000e+01
      vertex   2.704807e+01 -2.154807e+01 -1.100000e+01
    endloop
  endfacet
  facet normal -4.813093e-14 -7.084534e-01 7.057576e-01
    outer loop
      vertex   2.702193e+01 -2.184693e+01 -1.130000e+01
      vertex   2.707422e+01 -2.184693e+01 -1.130000e+01
      vertex   2.704807e+01 -2.154807e+01 -1.100000e+01
    endloop
  endfacet
  facet normal 1.230216e-01 -6.976904e-01 7.057576e-01
    outer loop
      vertex   2.707422e+01 -2.184693e+01 -1.130000e+01
      vertex   2.712572e+01 -2.183785e+01 -1.130000e+01
      vertex   2.704807e+01 -2.154807e+01 -1.100000e+01
    endloop
  endfacet
  facet normal 2.423053e-01 -6.657285e-01 7.057576e-01
    outer loop
      vertex   2.712572e+01 -2.183785e+01 -1.130000e+01
      vertex   2.717486e+01 -2.181997e+01 -1.130000e+01
      vertex   2.704807e+01 -2.154807e+01 -1.100000e+01
    endloop
  endfacet
  facet normal 3.542267e-01 -6.135387e-01 7.057576e-01
    outer loop
      vertex   2.717486e+01 -2.181997e+01 -1.130000e+01
      vertex   2.722015e+01 -2.179382e+01 -1.130000e+01
      vertex   2.704807e+01 -2.154807e+01 -1.100000e+01
    endloop
  endfacet
  facet normal 4.553851e-01 -5.427068e-01 -7.057576e-01
    outer loop
      vertex   2.726021e+01 -2.176021e+01 -1.170000e+01
      vertex   2.722015e+01 -2.179382e+01 -1.170000e+01
      vertex   2.704807e+01 -2.154807e+01 -1.200000e+01
    endloop
  endfacet
  facet normal 3.542267e-01 -6.135387e-01 -7.057576e-01
    outer loop
      vertex   2.722015e+01 -2.179382e+01 -1.170000e+01
      vertex   2.717486e+01 -2.181997e+01 -1.170000e+01
      vertex   2.704807e+01 -2.154807e+01 -1.200000e+01
    endloop
  endfacet
  facet normal 2.423053e-01 -6.657285e-01 -7.057576e-01
    outer loop
      vertex   2.717486e+01 -2.181997e+01 -1.170000e+01
      vertex   2.712572e+01 -2.183785e+01 -1.170000e+01
      vertex   2.704807e+01 -2.154807e+01 -1.200000e+01
    endloop
  endfacet
  facet normal 1.230216e-01 -6.976904e-01 -7.057576e-01
    outer loop
      vertex   2.712572e+01 -2.183785e+01 -1.170000e+01
      vertex   2.707422e+01 -2.184693e+01 -1.170000e+01
      vertex   2.704807e+01 -2.154807e+01 -1.200000e+01
    endloop
  endfacet
  facet normal -4.813093e-14 -7.084534e-01 -7.057576e-01
    outer loop
      vertex   2.707422e+01 -2.184693e+01 -1.170000e+01
      vertex   2.702193e+01 -2.184693e+01 -1.170000e+01
      vertex   2.704807e+01 -2.154807e+01 -1.200000e+01
    endloop
  endfacet
  facet normal -1.230216e-01 -6.976904e-01 -7.057576e-01
    outer loop
      vertex   2.702193e+01 -2.184693e+01 -1.170000e+01
      vertex   2.697043e+01 -2.183785e+01 -1.170000e+01
      vertex   2.704807e+01 -2.154807e+01 -1.200000e+01
    endloop
  endfacet
  facet normal -2.423053e-01 -6.657285e-01 -7.057576e-01
    outer loop
      vertex   2.697043e+01 -2.183785e+01 -1.170000e+01
      vertex   2.692129e+01 -2.181997e+01 -1.170000e+01
      vertex   2.704807e+01 -2.154807e+01 -1.200000e+01
    endloop
  endfacet
  facet normal -3.542267e-01 -6.135387e-01 -7.057576e-01
    outer loop
      vertex   2.692129e+01 -2.181997e+01 -1.170000e+01
      vertex   2.687600e+01 -2.179382e+01 -1.170000e+01
      vertex   2.704807e+01 -2.154807e+01 -1.200000e+01
    endloop
  endfacet
  facet normal -4.553851e-01 -5.427068e-01 -7.057576e-01
    outer loop
      vertex   2.687600e+01 -2.179382e+01 -1.170000e+01
      vertex   2.683594e+01 -2.176021e+01 -1.170000e+01
      vertex   2.704807e+01 -2.154807e+01 -1.200000e+01
    endloop
  endfacet
  facet normal -5.427068e-01 -4.553851e-01 -7.057576e-01
    outer loop
      vertex   2.683594e+01 -2.176021e+01 -1.170000e+01
      vertex   2.680233e+01 -2.172015e+01 -1.170000e+01
      vertex   2.704807e+01 -2.154807e+01 -1.200000e+01
    endloop
  endfacet
  facet normal -6.135387e-01 -3.542267e-01 -7.057576e-01
    outer loop
      vertex   2.680233e+01 -2.172015e+01 -1.170000e+01
      vertex   2.677618e+01 -2.167486e+01 -1.170000e+01
      vertex   2.704807e+01 -2.154807e+01 -1.200000e+01
    endloop
  endfacet
  facet normal -6.657285e-01 -2.423053e-01 -7.057576e-01
    outer loop
      vertex   2.677618e+01 -2.167486e+01 -1.170000e+01
      vertex   2.675830e+01 -2.162572e+01 -1.170000e+01
      vertex   2.704807e+01 -2.154807e+01 -1.200000e+01
    endloop
  endfacet
  facet normal -6.976904e-01 -1.230216e-01 -7.057576e-01
    outer loop
      vertex   2.675830e+01 -2.162572e+01 -1.170000e+01
      vertex   2.674922e+01 -2.157422e+01 -1.170000e+01
      vertex   2.704807e+01 -2.154807e+01 -1.200000e+01
    endloop
  endfacet
  facet normal -7.084534e-01 -4.813093e-14 -7.057576e-01
    outer loop
      vertex   2.674922e+01 -2.157422e+01 -1.170000e+01
      vertex   2.674922e+01 -2.152193e+01 -1.170000e+01
      vertex   2.704807e+01 -2.154807e+01 -1.200000e+01
    endloop
  endfacet
  facet normal -6.976904e-01 1.230216e-01 -7.057576e-01
    outer loop
      vertex   2.674922e+01 -2.152193e+01 -1.170000e+01
      vertex   2.675830e+01 -2.147043e+01 -1.170000e+01
      vertex   2.704807e+01 -2.154807e+01 -1.200000e+01
    endloop
  endfacet
  facet normal -6.657285e-01 2.423053e-01 -7.057576e-01
    outer loop
      vertex   2.675830e+01 -2.147043e+01 -1.170000e+01
      vertex   2.677618e+01 -2.142129e+01 -1.170000e+01
      vertex   2.704807e+01 -2.154807e+01 -1.200000e+01
    endloop
  endfacet
  facet normal -6.135387e-01 3.542267e-01 -7.057576e-01
    outer loop
      vertex   2.677618e+01 -2.142129e+01 -1.170000e+01
      vertex   2.680233e+01 -2.137600e+01 -1.170000e+01
      vertex   2.704807e+01 -2.154807e+01 -1.200000e+01
    endloop
  endfacet
  facet normal -5.427068e-01 4.553851e-01 -7.057576e-01
    outer loop
      vertex   2.680233e+01 -2.137600e+01 -1.170000e+01
      vertex   2.683594e+01 -2.133594e+01 -1.170000e+01
      vertex   2.704807e+01 -2.154807e+01 -1.200000e+01
    endloop
  endfacet
  facet normal 6.427876e-01 -7.660444e-01 0.000000e+00
    outer loop
      vertex   2.726021e+01 -2.176021e+01 -1.170000e+01
      vertex   2.726021e+01 -2.176021e+01 -1.130000e+01
      vertex   2.722015e+01 -2.179382e+01 -1.170000e+01
    endloop
  endfacet
  facet normal 6.427876e-01 -7.660444e-01 0.000000e+00
    outer loop
      vertex   2.722015e+01 -2.179382e+01 -1.170000e+01
      vertex   2.726021e+01 -2.176021e+01 -1.130000e+01
      vertex   2.722015e+01 -2.179382e+01 -1.130000e+01
    endloop
  endfacet
  facet normal 5.000000e-01 -8.660254e-01 0.000000e+00
    outer loop
      vertex   2.722015e+01 -2.179382e+01 -1.170000e+01
      vertex   2.722015e+01 -2.179382e+01 -1.130000e+01
      vertex   2.717486e+01 -2.181997e+01 -1.170000e+01
    endloop
  endfacet
  facet normal 5.000000e-01 -8.660254e-01 0.000000e+00
    outer loop
      vertex   2.717486e+01 -2.181997e+01 -1.170000e+01
      vertex   2.722015e+01 -2.179382e+01 -1.130000e+01
      vertex   2.717486e+01 -2.181997e+01 -1.130000e+01
    endloop
  endfacet
  facet normal 3.420201e-01 -9.396926e-01 0.000000e+00
    outer loop
      vertex   2.717486e+01 -2.181997e+01 -1.170000e+01
      vertex   2.717486e+01 -2.181997e+01 -1.130000e+01
      vertex   2.712572e+01 -2.183785e+01 -1.170000e+01
    endloop
  endfacet
  facet normal 3.420201e-01 -9.396926e-01 0.000000e+00
    outer loop
      vertex   2.712572e+01 -2.183785e+01 -1.170000e+01
      vertex   2.717486e+01 -2.181997e+01 -1.130000e+01
      vertex   2.712572e+01 -2.183785e+01 -1.130000e+01
    endloop
  endfacet
  facet normal 1.736482e-01 -9.848078e-01 0.000000e+00
    outer loop
      vertex   2.712572e+01 -2.183785e+01 -1.170000e+01
      vertex   2.712572e+01 -2.183785e+01 -1.130000e+01
      vertex   2.707422e+01 -2.184693e+01 -1.170000e+01
    endloop
  endfacet
  facet normal 1.736482e-01 -9.848078e-01 0.000000e+00
    outer loop
      vertex   2.707422e+01 -2.184693e+01 -1.170000e+01
      vertex   2.712572e+01 -2.183785e+01 -1.130000e+01
      vertex   2.707422e+01 -2.184693e+01 -1.130000e+01
    endloop
  endfacet
  facet normal -6.793803e-14 -1.000000e+00 0.000000e+00
    outer loop
      vertex   2.707422e+01 -2.184693e+01 -1.170000e+01
      vertex   2.707422e+01 -2.184693e+01 -1.130000e+01
      vertex   2.702193e+01 -2.184693e+01 -1.170000e+01
    endloop
  endfacet
  facet normal -6.793803e-14 -1.000000e+00 0.000000e+00
    outer loop
      vertex   2.702193e+01 -2.184693e+01 -1.170000e+01
      vertex   2.707422e+01 -2.184693e+01 -1.130000e+01
      vertex   2.702193e+01 -2.184693e+01 -1.130000e+01
    endloop
  endfacet
  facet normal -1.736482e-01 -9.848078e-01 0.000000e+00
    outer loop
      vertex   2.702193e+01 -2.184693e+01 -1.170000e+01
      vertex   2.702193e+01 -2.184693e+01 -1.130000e+01
      vertex   2.697043e+01 -2.183785e+01 -1.170000e+01
    endloop
  endfacet
  facet normal -1.736482e-01 -9.848078e-01 0.000000e+00
    outer loop
      vertex   2.697043e+01 -2.183785e+01 -1.170000e+01
      vertex   2.702193e+01 -2.184693e+01 -1.130000e+01
      vertex   2.697043e+01 -2.183785e+01 -1.130000e+01
    endloop
  endfacet
  facet normal -3.420201e-01 -9.396926e-01 0.000000e+00
    outer loop
      vertex   2.697043e+01 -2.183785e+01 -1.170000e+01
      vertex   2.697043e+01 -2.183785e+01 -1.130000e+01
      vertex   2.692129e+01 -2.181997e+01 -1.170000e+01
    endloop
  endfacet
  facet normal -3.420201e-01 -9.396926e-01 0.000000e+00
    outer loop
      vertex   2.692129e+01 -2.181997e+01 -1.170000e+01
      vertex   2.697043e+01 -2.183785e+01 -1.130000e+01
      vertex   2.692129e+01 -2.181997e+01 -1.130000e+01
    endloop
  endfacet
  facet normal -5.000000e-01 -8.660254e-01 0.000000e+00
    outer loop
      vertex   2.692129e+01 -2.181997e+01 -1.170000e+01
      vertex   2.692129e+01 -2.181997e+01 -1.130000e+01
      vertex   2.687600e+01 -2.179382e+01 -1.170000e+01
    endloop
  endfacet
  facet normal -5.000000e-01 -8.660254e-01 0.000000e+00
    outer loop
      vertex   2.687600e+01 -2.179382e+01 -1.170000e+01
      vertex   2.692129e+01 -2.181997e+01 -1.130000e+01
      vertex   2.687600e+01 -2.179382e+01 -1.130000e+01
    endloop
  endfacet
  facet normal -6.427876e-01 -7.660444e-01 0.000000e+00
    outer loop
      vertex   2.687600e+01 -2.179382e+01 -1.170000e+01
      vertex   2.687600e+01 -2.179382e+01 -1.130000e+01
      vertex   2.683594e+01 -2.176021e+01 -1.170000e+01
    endloop
  endfacet
  facet normal -6.427876e-01 -7.660444e-01 0.000000e+00
    outer loop
      vertex   2.683594e+01 -2.176021e+01 -1.170000e+01
      vertex   2.687600e+01 -2.179382e+01 -1.130000e+01
      vertex   2.683594e+01 -2.176021e+01 -1.130000e+01
    endloop
  endfacet
  facet normal -7.660444e-01 -6.427876e-01 0.000000e+00
    outer loop
      vertex   2.683594e+01 -2.176021e+01 -1.170000e+01
      vertex   2.683594e+01 -2.176021e+01 -1.130000e+01
      vertex   2.680233e+01 -2.172015e+01 -1.170000e+01
    endloop
  endfacet
  facet normal -7.660444e-01 -6.427876e-01 0.000000e+00
    outer loop
      vertex   2.680233e+01 -2.172015e+01 -1.170000e+01
      vertex   2.683594e+01 -2.176021e+01 -1.130000e+01
      vertex   2.680233e+01 -2.172015e+01 -1.130000e+01
    endloop
  endfacet
  facet normal -8.660254e-01 -5.000000e-01 0.000000e+00
    outer loop
      vertex   2.680233e+01 -2.172015e+01 -1.170000e+01
      vertex   2.680233e+01 -2.172015e+01 -1.130000e+01
      vertex   2.677618e+01 -2.167486e+01 -1.170000e+01
    endloop
  endfacet
  facet normal -8.660254e-01 -5.000000e-01 0.000000e+00
    outer loop
      vertex   2.677618e+01 -2.167486e+01 -1.170000e+01
      vertex   2.680233e+01 -2.172015e+01 -1.130000e+01
      vertex   2.677618e+01 -2.167486e+01 -1.130000e+01
    endloop
  endfacet
  facet normal -9.396926e-01 -3.420201e-01 0.000000e+00
    outer loop
      vertex   2.677618e+01 -2.167486e+01 -1.170000e+01
      vertex   2.677618e+01 -2.167486e+01 -1.130000e+01
      vertex   2.675830e+01 -2.162572e+01 -1.170000e+01
    endloop
  endfacet
  facet normal -9.396926e-01 -3.420201e-01 0.000000e+00
    outer loop
      vertex   2.675830e+01 -2.162572e+01 -1.170000e+01
      vertex   2.677618e+01 -2.167486e+01 -1.130000e+01
      vertex   2.675830e+01 -2.162572e+01 -1.130000e+01
    endloop
  endfacet
  facet normal -9.848078e-01 -1.736482e-01 0.000000e+00
    outer loop
      vertex   2.675830e+01 -2.162572e+01 -1.170000e+01
      vertex   2.675830e+01 -2.162572e+01 -1.130000e+01
      vertex   2.674922e+01 -2.157422e+01 -1.170000e+01
    endloop
  endfacet
  facet normal -9.848078e-01 -1.736482e-01 0.000000e+00
    outer loop
      vertex   2.674922e+01 -2.157422e+01 -1.170000e+01
      vertex   2.675830e+01 -2.162572e+01 -1.130000e+01
      vertex   2.674922e+01 -2.157422e+01 -1.130000e+01
    endloop
  endfacet
  facet normal -1.000000e+00 -6.793803e-14 0.000000e+00
    outer loop
      vertex   2.674922e+01 -2.157422e+01 -1.170000e+01
      vertex   2.674922e+01 -2.157422e+01 -1.130000e+01
      vertex   2.674922e+01 -2.152193e+01 -1.170000e+01
    endloop
  endfacet
  facet normal -1.000000e+00 -6.793803e-14 0.000000e+00
    outer loop
      vertex   2.674922e+01 -2.152193e+01 -1.170000e+01
      vertex   2.674922e+01 -2.157422e+01 -1.130000e+01
      vertex   2.674922e+01 -2.152193e+01 -1.130000e+01
    endloop
  endfacet
  facet normal -9.848078e-01 1.736482e-01 0.000000e+00
    outer loop
      vertex   2.674922e+01 -2.152193e+01 -1.170000e+01
      vertex   2.674922e+01 -2.152193e+01 -1.130000e+01
      vertex   2.675830e+01 -2.147043e+01 -1.170000e+01
    endloop
  endfacet
  facet normal -9.848078e-01 1.736482e-01 0.000000e+00
    outer loop
      vertex   2.675830e+01 -2.147043e+01 -1.170000e+01
      vertex   2.674922e+01 -2.152193e+01 -1.130000e+01
      vertex   2.675830e+01 -2.147043e+01 -1.130000e+01
    endloop
  endfacet
  facet normal -9.396926e-01 3.420201e-01 0.000000e+00
    outer loop
      vertex   2.675830e+01 -2.147043e+01 -1.170000e+01
      vertex   2.675830e+01 -2.147043e+01 -1.130000e+01
      vertex   2.677618e+01 -2.142129e+01 -1.170000e+01
    endloop
  endfacet
  facet normal -9.396926e-01 3.420201e-01 0.000000e+00
    outer loop
      vertex   2.677618e+01 -2.142129e+01 -1.170000e+01
      vertex   2.675830e+01 -2.147043e+01 -1.130000e+01
      vertex   2.677618e+01 -2.142129e+01 -1.130000e+01
    endloop
  endfacet
  facet normal -8.660254e-01 5.000000e-01 0.000000e+00
    outer loop
      vertex   2.677618e+01 -2.142129e+01 -1.170000e+01
      vertex   2.677618e+01 -2.142129e+01 -1.130000e+01
      vertex   2.680233e+01 -2.137600e+01 -1.170000e+01
    endloop
  endfacet
  facet normal -8.660254e-01 5.000000e-01 0.000000e+00
    outer loop
      vertex   2.680233e+01 -2.137600e+01 -1.170000e+01
      vertex   2.677618e+01 -2.142129e+01 -1.130000e+01
      vertex   2.680233e+01 -2.137600e+01 -1.130000e+01
    endloop
  endfacet
  facet normal -7.660444e-01 6.427876e-01 0.000000e+00
    outer loop
      vertex   2.680233e+01 -2.137600e+01 -1.170000e+01
      vertex   2.680233e+01 -2.137600e+01 -1.130000e+01
      vertex   2.683594e+01 -2.133594e+01 -1.170000e+01
    endloop
  endfacet
  facet normal -7.660444e-01 6.427876e-01 0.000000e+00
    outer loop
      vertex   2.683594e+01 -2.133594e+01 -1.170000e+01
      vertex   2.680233e+01 -2.137600e+01 -1.130000e+01
      vertex   2.683594e+01 -2.133594e+01 -1.130000e+01
    endloop
  endfacet
  facet normal -4.553851e-01 -5.427068e-01 7.057576e-01
    outer loop
      vertex   -2.726021e+01 -2.176021e+01 -1.130000e+01
      vertex   -2.722015e+01 -2.179382e+01 -1.130000e+01
      vertex   -2.704807e+01 -2.154807e+01 -1.100000e+01
    endloop
  endfacet
  facet normal -3.542267e-01 -6.135387e-01 7.057576e-01
    outer loop
      vertex   -2.722015e+01 -2.179382e+01 -1.130000e+01
      vertex   -2.717486e+01 -2.181997e+01 -1.130000e+01
      vertex   -2.704807e+01 -2.154807e+01 -1.100000e+01
    endloop
  endfacet
  facet normal -2.423053e-01 -6.657285e-01 7.057576e-01
    outer loop
      vertex   -2.717486e+01 -2.181997e+01 -1.130000e+01
      vertex   -2.712572e+01 -2.183785e+01 -1.130000e+01
      vertex   -2.704807e+01 -2.154807e+01 -1.100000e+01
    endloop
  endfacet
  facet normal -1.230216e-01 -6.976904e-01 7.057576e-01
    outer loop
      vertex   -2.712572e+01 -2.183785e+01 -1.130000e+01
      vertex   -2.707422e+01 -2.184693e+01 -1.130000e+01
      vertex   -2.704807e+01 -2.154807e+01 -1.100000e+01
    endloop
  endfacet
  facet normal 4.813093e-14 -7.084534e-01 7.057576e-01
    outer loop
      vertex   -2.707422e+01 -2.184693e+01 -1.130000e+01
      vertex   -2.702193e+01 -2.184693e+01 -1.130000e+01
      vertex   -2.704807e+01 -2.154807e+01 -1.100000e+01
    endloop
  endfacet
  facet normal 1.230216e-01 -6.976904e-01 7.057576e-01
    outer loop
      vertex   -2.702193e+01 -2.184693e+01 -1.130000e+01
      vertex   -2.697043e+01 -2.183785e+01 -1.130000e+01
      vertex   -2.704807e+01 -2.154807e+01 -1.100000e+01
    endloop
  endfacet
  facet normal 2.423053e-01 -6.657285e-01 7.057576e-01
    outer loop
      vertex   -2.697043e+01 -2.183785e+01 -1.130000e+01
      vertex   -2.692129e+01 -2.181997e+01 -1.130000e+01
      vertex   -2.704807e+01 -2.154807e+01 -1.100000e+01
    endloop
  endfacet
  facet normal 3.542267e-01 -6.135387e-01 7.057576e-01
    outer loop
      vertex   -2.692129e+01 -2.181997e+01 -1.130000e+01
      vertex   -2.687600e+01 -2.179382e+01 -1.130000e+01
      vertex   -2.704807e+01 -2.154807e+01 -1.100000e+01
    endloop
  endfacet
  facet normal 4.553851e-01 -5.427068e-01 7.057576e-01
    outer loop
      vertex   -2.687600e+01 -2.179382e+01 -1.130000e+01
      vertex   -2.683594e+01 -2.176021e+01 -1.130000e+01
      vertex   -2.704807e+01 -2.154807e+01 -1.100000e+01
    endloop
  endfacet
  facet normal 5.427068e-01 -4.553851e-01 7.057576e-01
    outer loop
      vertex   -2.683594e+01 -2.176021e+01 -1.130000e+01
      vertex   -2.680233e+01 -2.172015e+01 -1.130000e+01
      vertex   -2.704807e+01 -2.154807e+01 -1.100000e+01
    endloop
  endfacet
  facet normal 6.135387e-01 -3.542267e-01 7.057576e-01
    outer loop
      vertex   -2.680233e+01 -2.172015e+01 -1.130000e+01
      vertex   -2.677618e+01 -2.167486e+01 -1.130000e+01
      vertex   -2.704807e+01 -2.154807e+01 -1.100000e+01
    endloop
  endfacet
  facet normal 6.657285e-01 -2.423053e-01 7.057576e-01
    outer loop
      vertex   -2.677618e+01 -2.167486e+01 -1.130000e+01
      vertex   -2.675830e+01 -2.162572e+01 -1.130000e+01
      vertex   -2.704807e+01 -2.154807e+01 -1.100000e+01
    endloop
  endfacet
  facet normal 6.976904e-01 -1.230216e-01 7.057576e-01
    outer loop
      vertex   -2.675830e+01 -2.162572e+01 -1.130000e+01
      vertex   -2.674922e+01 -2.157422e+01 -1.130000e+01
      vertex   -2.704807e+01 -2.154807e+01 -1.100000e+01
    endloop
  endfacet
  facet normal 7.084534e-01 -4.813093e-14 7.057576e-01
    outer loop
      vertex   -2.674922e+01 -2.157422e+01 -1.130000e+01
      vertex   -2.674922e+01 -2.152193e+01 -1.130000e+01
      vertex   -2.704807e+01 -2.154807e+01 -1.100000e+01
    endloop
  endfacet
  facet normal 6.976904e-01 1.230216e-01 7.057576e-01
    outer loop
      vertex   -2.674922e+01 -2.152193e+01 -1.130000e+01
      vertex   -2.675830e+01 -2.147043e+01 -1.130000e+01
      vertex   -2.704807e+01 -2.154807e+01 -1.100000e+01
    endloop
  endfacet
  facet normal 6.657285e-01 2.423053e-01 7.057576e-01
    outer loop
      vertex   -2.675830e+01 -2.147043e+01 -1.130000e+01
      vertex   -2.677618e+01 -2.142129e+01 -1.130000e+01
      vertex   -2.704807e+01 -2.154807e+01 -1.100000e+01
    endloop
  endfacet
  facet normal 6.135387e-01 3.542267e-01 7.057576e-01
    outer loop
      vertex   -2.677618e+01 -2.142129e+01 -1.130000e+01
      vertex   -2.680233e+01 -2.137600e+01 -1.130000e+01
      vertex   -2.704807e+01 -2.154807e+01 -1.100000e+01
    endloop
  endfacet
  facet normal 5.427068e-01 4.553851e-01 7.057576e-01
    outer loop
      vertex   -2.680233e+01 -2.137600e+01 -1.130000e+01
      vertex   -2.683594e+01 -2.133594e+01 -1.130000e+01
      vertex   -2.704807e+01 -2.154807e+01 -1.100000e+01
    endloop
  endfacet
  facet normal 7.660444e-01 6.427876e-01 -0.000000e+00
    outer loop
      vertex   -2.683594e+01 -2.133594e+01 -1.170000e+01
      vertex   -2.683594e+01 -2.133594e+01 -1.130000e+01
      vertex   -2.680233e+01 -2.137600e+01 -1.170000e+01
    endloop
  endfacet
  facet normal 7.660444e-01 6.427876e-01 -0.000000e+00
    outer loop
      vertex   -2.680233e+01 -2.137600e+01 -1.170000e+01
      vertex   -2.683594e+01 -2.133594e+01 -1.130000e+01
      vertex   -2.680233e+01 -2.137600e+01 -1.130000e+01
    endloop
  endfacet
  facet normal 8.660254e-01 5.000000e-01 -0.000000e+00
    outer loop
      vertex   -2.680233e+01 -2.137600e+01 -1.170000e+01
      vertex   -2.680233e+01 -2.137600e+01 -1.130000e+01
      vertex   -2.677618e+01 -2.142129e+01 -1.170000e+01
    endloop
  endfacet
  facet normal 8.660254e-01 5.000000e-01 -0.000000e+00
    outer loop
      vertex   -2.677618e+01 -2.142129e+01 -1.170000e+01
      vertex   -2.680233e+01 -2.137600e+01 -1.130000e+01
      vertex   -2.677618e+01 -2.142129e+01 -1.130000e+01
    endloop
  endfacet
  facet normal 9.396926e-01 3.420201e-01 -0.000000e+00
    outer loop
      vertex   -2.677618e+01 -2.142129e+01 -1.170000e+01
      vertex   -2.677618e+01 -2.142129e+01 -1.130000e+01
      vertex   -2.675830e+01 -2.147043e+01 -1.170000e+01
    endloop
  endfacet
  facet normal 9.396926e-01 3.420201e-01 -0.000000e+00
    outer loop
      vertex   -2.675830e+01 -2.147043e+01 -1.170000e+01
      vertex   -2.677618e+01 -2.142129e+01 -1.130000e+01
      vertex   -2.675830e+01 -2.147043e+01 -1.130000e+01
    endloop
  endfacet
  facet normal 9.848078e-01 1.736482e-01 -0.000000e+00
    outer loop
      vertex   -2.675830e+01 -2.147043e+01 -1.170000e+01
      vertex   -2.675830e+01 -2.147043e+01 -1.130000e+01
      vertex   -2.674922e+01 -2.152193e+01 -1.170000e+01
    endloop
  endfacet
  facet normal 9.848078e-01 1.736482e-01 -0.000000e+00
    outer loop
      vertex   -2.674922e+01 -2.152193e+01 -1.170000e+01
      vertex   -2.675830e+01 -2.147043e+01 -1.130000e+01
      vertex   -2.674922e+01 -2.152193e+01 -1.130000e+01
    endloop
  endfacet
  facet normal 1.000000e+00 -6.793803e-14 0.000000e+00
    outer loop
      vertex   -2.674922e+01 -2.152193e+01 -1.170000e+01
      vertex   -2.674922e+01 -2.152193e+01 -1.130000e+01
      vertex   -2.674922e+01 -2.157422e+01 -1.170000e+01
    endloop
  endfacet
  facet normal 1.000000e+00 -6.793803e-14 0.000000e+00
    outer loop
      vertex   -2.674922e+01 -2.157422e+01 -1.170000e+01
      vertex   -2.674922e+01 -2.152193e+01 -1.130000e+01
      vertex   -2.674922e+01 -2.157422e+01 -1.130000e+01
    endloop
  endfacet
  facet normal 9.848078e-01 -1.736482e-01 0.000000e+00
    outer loop
      vertex   -2.674922e+01 -2.157422e+01 -1.170000e+01
      vertex   -2.674922e+01 -2.157422e+01 -1.130000e+01
      vertex   -2.675830e+01 -2.162572e+01 -1.170000e+01
    endloop
  endfacet
  facet normal 9.848078e-01 -1.736482e-01 0.000000e+00
    outer loop
      vertex   -2.675830e+01 -2.162572e+01 -1.170000e+01
      vertex   -2.674922e+01 -2.157422e+01 -1.130000e+01
      vertex   -2.675830e+01 -2.162572e+01 -1.130000e+01
    endloop
  endfacet
  facet normal 9.396926e-01 -3.420201e-01 0.000000e+00
    outer loop
      vertex   -2.675830e+01 -2.162572e+01 -1.170000e+01
      vertex   -2.675830e+01 -2.162572e+01 -1.130000e+01
      vertex   -2.677618e+01 -2.167486e+01 -1.170000e+01
    endloop
  endfacet
  facet normal 9.396926e-01 -3.420201e-01 0.000000e+00
    outer loop
      vertex   -2.677618e+01 -2.167486e+01 -1.170000e+01
      vertex   -2.675830e+01 -2.162572e+01 -1.130000e+01
      vertex   -2.677618e+01 -2.167486e+01 -1.130000e+01
    endloop
  endfacet
  facet normal 8.660254e-01 -5.000000e-01 0.000000e+00
    outer loop
      vertex   -2.677618e+01 -2.167486e+01 -1.170000e+01
      vertex   -2.677618e+01 -2.167486e+01 -1.130000e+01
      vertex   -2.680233e+01 -2.172015e+01 -1.170000e+01
    endloop
  endfacet
  facet normal 8.660254e-01 -5.000000e-01 0.000000e+00
    outer loop
      vertex   -2.680233e+01 -2.172015e+01 -1.170000e+01
      vertex   -2.677618e+01 -2.167486e+01 -1.130000e+01
      vertex   -2.680233e+01 -2.172015e+01 -1.130000e+01
    endloop
  endfacet
  facet normal 7.660444e-01 -6.427876e-01 0.000000e+00
    outer loop
      vertex   -2.680233e+01 -2.172015e+01 -1.170000e+01
      vertex   -2.680233e+01 -2.172015e+01 -1.130000e+01
      vertex   -2.683594e+01 -2.176021e+01 -1.170000e+01
    endloop
  endfacet
  facet normal 7.660444e-01 -6.427876e-01 0.000000e+00
    outer loop
      vertex   -2.683594e+01 -2.176021e+01 -1.170000e+01
      vertex   -2.680233e+01 -2.172015e+01 -1.130000e+01
      vertex   -2.683594e+01 -2.176021e+01 -1.130000e+01
    endloop
  endfacet
  facet normal 6.427876e-01 -7.660444e-01 0.000000e+00
    outer loop
      vertex   -2.683594e+01 -2.176021e+01 -1.170000e+01
      vertex   -2.683594e+01 -2.176021e+01 -1.130000e+01
      vertex   -2.687600e+01 -2.179382e+01 -1.170000e+01
    endloop
  endfacet
  facet normal 6.427876e-01 -7.660444e-01 0.000000e+00
    outer loop
      vertex   -2.687600e+01 -2.179382e+01 -1.170000e+01
      vertex   -2.683594e+01 -2.176021e+01 -1.130000e+01
      vertex   -2.687600e+01 -2.179382e+01 -1.130000e+01
    endloop
  endfacet
  facet normal 5.000000e-01 -8.660254e-01 0.000000e+00
    outer loop
      vertex   -2.687600e+01 -2.179382e+01 -1.170000e+01
      vertex   -2.687600e+01 -2.179382e+01 -1.130000e+01
      vertex   -2.692129e+01 -2.181997e+01 -1.170000e+01
    endloop
  endfacet
  facet normal 5.000000e-01 -8.660254e-01 0.000000e+00
    outer loop
      vertex   -2.692129e+01 -2.181997e+01 -1.170000e+01
      vertex   -2.687600e+01 -2.179382e+01 -1.130000e+01
      vertex   -2.692129e+01 -2.181997e+01 -1.130000e+01
    endloop
  endfacet
  facet normal 3.420201e-01 -9.396926e-01 0.000000e+00
    outer loop
      vertex   -2.692129e+01 -2.181997e+01 -1.170000e+01
      vertex   -2.692129e+01 -2.181997e+01 -1.130000e+01
      vertex   -2.697043e+01 -2.183785e+01 -1.170000e+01
    endloop
  endfacet
  facet normal 3.420201e-01 -9.396926e-01 0.000000e+00
    outer loop
      vertex   -2.697043e+01 -2.183785e+01 -1.170000e+01
      vertex   -2.692129e+01 -2.181997e+01 -1.130000e+01
      vertex   -2.697043e+01 -2.183785e+01 -1.130000e+01
    endloop
  endfacet
  facet normal 1.736482e-01 -9.848078e-01 0.000000e+00
    outer loop
      vertex   -2.697043e+01 -2.183785e+01 -1.170000e+01
      vertex   -2.697043e+01 -2.183785e+01 -1.130000e+01
      vertex   -2.702193e+01 -2.184693e+01 -1.170000e+01
    endloop
  endfacet
  facet normal 1.736482e-01 -9.848078e-01 0.000000e+00
    outer loop
      vertex   -2.702193e+01 -2.184693e+01 -1.170000e+01
      vertex   -2.697043e+01 -2.183785e+01 -1.130000e+01
      vertex   -2.702193e+01 -2.184693e+01 -1.130000e+01
    endloop
  endfacet
  facet normal 6.793803e-14 -1.000000e+00 0.000000e+00
    outer loop
      vertex   -2.702193e+01 -2.184693e+01 -1.170000e+01
      vertex   -2.702193e+01 -2.184693e+01 -1.130000e+01
      vertex   -2.707422e+01 -2.184693e+01 -1.170000e+01
    endloop
  endfacet
  facet normal 6.793803e-14 -1.000000e+00 0.000000e+00
    outer loop
      vertex   -2.707422e+01 -2.184693e+01 -1.170000e+01
      vertex   -2.702193e+01 -2.184693e+01 -1.130000e+01
      vertex   -2.707422e+01 -2.184693e+01 -1.130000e+01
    endloop
  endfacet
  facet normal -1.736482e-01 -9.848078e-01 0.000000e+00
    outer loop
      vertex   -2.707422e+01 -2.184693e+01 -1.170000e+01
      vertex   -2.707422e+01 -2.184693e+01 -1.130000e+01
      vertex   -2.712572e+01 -2.183785e+01 -1.170000e+01
    endloop
  endfacet
  facet normal -1.736482e-01 -9.848078e-01 0.000000e+00
    outer loop
      vertex   -2.712572e+01 -2.183785e+01 -1.170000e+01
      vertex   -2.707422e+01 -2.184693e+01 -1.130000e+01
      vertex   -2.712572e+01 -2.183785e+01 -1.130000e+01
    endloop
  endfacet
  facet normal -3.420201e-01 -9.396926e-01 0.000000e+00
    outer loop
      vertex   -2.712572e+01 -2.183785e+01 -1.170000e+01
      vertex   -2.712572e+01 -2.183785e+01 -1.130000e+01
      vertex   -2.717486e+01 -2.181997e+01 -1.170000e+01
    endloop
  endfacet
  facet normal -3.420201e-01 -9.396926e-01 0.000000e+00
    outer loop
      vertex   -2.717486e+01 -2.181997e+01 -1.170000e+01
      vertex   -2.712572e+01 -2.183785e+01 -1.130000e+01
      vertex   -2.717486e+01 -2.181997e+01 -1.130000e+01
    endloop
  endfacet
  facet normal -5.000000e-01 -8.660254e-01 0.000000e+00
    outer loop
      vertex   -2.717486e+01 -2.181997e+01 -1.170000e+01
      vertex   -2.717486e+01 -2.181997e+01 -1.130000e+01
      vertex   -2.722015e+01 -2.179382e+01 -1.170000e+01
    endloop
  endfacet
  facet normal -5.000000e-01 -8.660254e-01 0.000000e+00
    outer loop
      vertex   -2.722015e+01 -2.179382e+01 -1.170000e+01
      vertex   -2.717486e+01 -2.181997e+01 -1.130000e+01
      vertex   -2.722015e+01 -2.179382e+01 -1.130000e+01
    endloop
  endfacet
  facet normal -6.427876e-01 -7.660444e-01 0.000000e+00
    outer loop
      vertex   -2.722015e+01 -2.179382e+01 -1.170000e+01
      vertex   -2.722015e+01 -2.179382e+01 -1.130000e+01
      vertex   -2.726021e+01 -2.176021e+01 -1.170000e+01
    endloop
  endfacet
  facet normal -6.427876e-01 -7.660444e-01 0.000000e+00
    outer loop
      vertex   -2.726021e+01 -2.176021e+01 -1.170000e+01
      vertex   -2.722015e+01 -2.179382e+01 -1.130000e+01
      vertex   -2.726021e+01 -2.176021e+01 -1.130000e+01
    endloop
  endfacet
  facet normal -4.553851e-01 -5.427068e-01 -7.057576e-01
    outer loop
      vertex   -2.726021e+01 -2.176021e+01 -1.170000e+01
      vertex   -2.704807e+01 -2.154807e+01 -1.200000e+01
      vertex   -2.722015e+01 -2.179382e+01 -1.170000e+01
    endloop
  endfacet
  facet normal 5.427068e-01 4.553851e-01 -7.057576e-01
    outer loop
      vertex   -2.683594e+01 -2.133594e+01 -1.170000e+01
      vertex   -2.680233e+01 -2.137600e+01 -1.170000e+01
      vertex   -2.704807e+01 -2.154807e+01 -1.200000e+01
    endloop
  endfacet
  facet normal 6.135387e-01 3.542267e-01 -7.057576e-01
    outer loop
      vertex   -2.680233e+01 -2.137600e+01 -1.170000e+01
      vertex   -2.677618e+01 -2.142129e+01 -1.170000e+01
      vertex   -2.704807e+01 -2.154807e+01 -1.200000e+01
    endloop
  endfacet
  facet normal 6.657285e-01 2.423053e-01 -7.057576e-01
    outer loop
      vertex   -2.677618e+01 -2.142129e+01 -1.170000e+01
      vertex   -2.675830e+01 -2.147043e+01 -1.170000e+01
      vertex   -2.704807e+01 -2.154807e+01 -1.200000e+01
    endloop
  endfacet
  facet normal 6.976904e-01 1.230216e-01 -7.057576e-01
    outer loop
      vertex   -2.675830e+01 -2.147043e+01 -1.170000e+01
      vertex   -2.674922e+01 -2.152193e+01 -1.170000e+01
      vertex   -2.704807e+01 -2.154807e+01 -1.200000e+01
    endloop
  endfacet
  facet normal 7.084534e-01 -4.813093e-14 -7.057576e-01
    outer loop
      vertex   -2.674922e+01 -2.152193e+01 -1.170000e+01
      vertex   -2.674922e+01 -2.157422e+01 -1.170000e+01
      vertex   -2.704807e+01 -2.154807e+01 -1.200000e+01
    endloop
  endfacet
  facet normal 6.976904e-01 -1.230216e-01 -7.057576e-01
    outer loop
      vertex   -2.674922e+01 -2.157422e+01 -1.170000e+01
      vertex   -2.675830e+01 -2.162572e+01 -1.170000e+01
      vertex   -2.704807e+01 -2.154807e+01 -1.200000e+01
    endloop
  endfacet
  facet normal 6.657285e-01 -2.423053e-01 -7.057576e-01
    outer loop
      vertex   -2.675830e+01 -2.162572e+01 -1.170000e+01
      vertex   -2.677618e+01 -2.167486e+01 -1.170000e+01
      vertex   -2.704807e+01 -2.154807e+01 -1.200000e+01
    endloop
  endfacet
  facet normal 6.135387e-01 -3.542267e-01 -7.057576e-01
    outer loop
      vertex   -2.677618e+01 -2.167486e+01 -1.170000e+01
      vertex   -2.680233e+01 -2.172015e+01 -1.170000e+01
      vertex   -2.704807e+01 -2.154807e+01 -1.200000e+01
    endloop
  endfacet
  facet normal 5.427068e-01 -4.553851e-01 -7.057576e-01
    outer loop
      vertex   -2.680233e+01 -2.172015e+01 -1.170000e+01
      vertex   -2.683594e+01 -2.176021e+01 -1.170000e+01
      vertex   -2.704807e+01 -2.154807e+01 -1.200000e+01
    endloop
  endfacet
  facet normal 4.553851e-01 -5.427068e-01 -7.057576e-01
    outer loop
      vertex   -2.683594e+01 -2.176021e+01 -1.170000e+01
      vertex   -2.687600e+01 -2.179382e+01 -1.170000e+01
      vertex   -2.704807e+01 -2.154807e+01 -1.200000e+01
    endloop
  endfacet
  facet normal 3.542267e-01 -6.135387e-01 -7.057576e-01
    outer loop
      vertex   -2.687600e+01 -2.179382e+01 -1.170000e+01
      vertex   -2.692129e+01 -2.181997e+01 -1.170000e+01
      vertex   -2.704807e+01 -2.154807e+01 -1.200000e+01
    endloop
  endfacet
  facet normal 2.423053e-01 -6.657285e-01 -7.057576e-01
    outer loop
      vertex   -2.692129e+01 -2.181997e+01 -1.170000e+01
      vertex   -2.697043e+01 -2.183785e+01 -1.170000e+01
      vertex   -2.704807e+01 -2.154807e+01 -1.200000e+01
    endloop
  endfacet
  facet normal 1.230216e-01 -6.976904e-01 -7.057576e-01
    outer loop
      vertex   -2.697043e+01 -2.183785e+01 -1.170000e+01
      vertex   -2.702193e+01 -2.184693e+01 -1.170000e+01
      vertex   -2.704807e+01 -2.154807e+01 -1.200000e+01
    endloop
  endfacet
  facet normal 4.813093e-14 -7.084534e-01 -7.057576e-01
    outer loop
      vertex   -2.702193e+01 -2.184693e+01 -1.170000e+01
      vertex   -2.707422e+01 -2.184693e+01 -1.170000e+01
      vertex   -2.704807e+01 -2.154807e+01 -1.200000e+01
    endloop
  endfacet
  facet normal -1.230216e-01 -6.976904e-01 -7.057576e-01
    outer loop
      vertex   -2.707422e+01 -2.184693e+01 -1.170000e+01
      vertex   -2.712572e+01 -2.183785e+01 -1.170000e+01
      vertex   -2.704807e+01 -2.154807e+01 -1.200000e+01
    endloop
  endfacet
  facet normal -2.423053e-01 -6.657285e-01 -7.057576e-01
    outer loop
      vertex   -2.712572e+01 -2.183785e+01 -1.170000e+01
      vertex   -2.717486e+01 -2.181997e+01 -1.170000e+01
      vertex   -2.704807e+01 -2.154807e+01 -1.200000e+01
    endloop
  endfacet
  facet normal -3.542267e-01 -6.135387e-01 -7.057576e-01
    outer loop
      vertex   -2.717486e+01 -2.181997e+01 -1.170000e+01
      vertex   -2.722015e+01 -2.179382e+01 -1.170000e+01
      vertex   -2.704807e+01 -2.154807e+01 -1.200000e+01
    endloop
  endfacet
  facet normal 0.000000e+00 0.000000e+00 1.000000e+00
    outer loop
      vertex   2.800000e+01 2.050000e+01 -1.300000e+01
      vertex   -2.800000e+01 2.050000e+01 -1.300000e+01
      vertex   2.800000e+01 -1.967157e+01 -1.300000e+01
    endloop
  endfacet
  facet normal 0.000000e+00 0.000000e+00 1.000000e+00
    outer loop
      vertex   2.800000e+01 -1.967157e+01 -1.300000e+01
      vertex   -2.800000e+01 2.050000e+01 -1.300000e+01
      vertex   -2.800000e+01 -1.967157e+01 -1.300000e+01
    endloop
  endfacet
  facet normal 0.000000e+00 -1.000000e+00 0.000000e+00
    outer loop
      vertex   -2.800000e+01 -1.967157e+01 -1.500000e+01
      vertex   2.800000e+01 -1.967157e+01 -1.500000e+01
      vertex   -2.800000e+01 -1.967157e+01 -1.300000e+01
    endloop
  endfacet
  facet normal 0.000000e+00 -1.000000e+00 0.000000e+00
    outer loop
      vertex   -2.800000e+01 -1.967157e+01 -1.300000e+01
      vertex   2.800000e+01 -1.967157e+01 -1.500000e+01
      vertex   2.800000e+01 -1.967157e+01 -1.300000e+01
    endloop
  endfacet
  facet normal 1.000000e+00 0.000000e+00 0.000000e+00
    outer loop
      vertex   3.000000e+01 2.250000e+01 2.000000e+00
      vertex   3.000000e+01 -2.250000e+01 2.000000e+00
      vertex   3.000000e+01 2.250000e+01 -1.500000e+01
    endloop
  endfacet
  facet normal 1.000000e+00 0.000000e+00 0.000000e+00
    outer loop
      vertex   3.000000e+01 2.250000e+01 -1.500000e+01
      vertex   3.000000e+01 -2.250000e+01 2.000000e+00
      vertex   3.000000e+01 -2.250000e+01 -1.500000e+01
    endloop
  endfacet
  facet normal 0.000000e+00 1.000000e+00 -2.089832e-16
    outer loop
      vertex   -3.000000e+01 2.250000e+01 2.000000e+00
      vertex   3.000000e+01 2.250000e+01 2.000000e+00
      vertex   -3.000000e+01 2.250000e+01 -1.500000e+01
    endloop
  endfacet
  facet normal -5.921189e-17 1.000000e+00 0.000000e+00
    outer loop
      vertex   -3.000000e+01 2.250000e+01 -1.500000e+01
      vertex   3.000000e+01 2.250000e+01 2.000000e+00
      vertex   3.000000e+01 2.250000e+01 -1.500000e+01
    endloop
  endfacet
  facet normal -1.000000e+00 0.000000e+00 2.089832e-16
    outer loop
      vertex   -3.000000e+01 -2.250000e+01 2.000000e+00
      vertex   -3.000000e+01 2.250000e+01 2.000000e+00
      vertex   -3.000000e+01 -2.250000e+01 -1.500000e+01
    endloop
  endfacet
  facet normal -1.000000e+00 7.894919e-17 0.000000e+00
    outer loop
      vertex   -3.000000e+01 -2.250000e+01 -1.500000e+01
      vertex   -3.000000e+01 2.250000e+01 2.000000e+00
      vertex   -3.000000e+01 2.250000e+01 -1.500000e+01
    endloop
  endfacet
  facet normal 8.881784e-15 -1.000000e+00 0.000000e+00
    outer loop
      vertex   2.800000e+01 -2.250000e+01 -1.500000e+01
      vertex   3.000000e+01 -2.250000e+01 -1.500000e+01
      vertex   2.800000e+01 -2.250000e+01 0.000000e+00
    endloop
  endfacet
  facet normal 8.881784e-15 -1.000000e+00 0.000000e+00
    outer loop
      vertex   2.800000e+01 -2.250000e+01 0.000000e+00
      vertex   3.000000e+01 -2.250000e+01 -1.500000e+01
      vertex   3.000000e+01 -2.250000e+01 2.000000e+00
    endloop
  endfacet
  facet normal 5.921189e-17 -1.000000e+00 8.822572e-15
    outer loop
      vertex   2.800000e+01 -2.250000e+01 0.000000e+00
      vertex   3.000000e+01 -2.250000e+01 2.000000e+00
      vertex   -3.000000e+01 -2.250000e+01 2.000000e+00
    endloop
  endfacet
  facet normal -1.903239e-16 -1.000000e+00 1.586033e-15
    outer loop
      vertex   2.800000e+01 -2.250000e+01 0.000000e+00
      vertex   -3.000000e+01 -2.250000e+01 2.000000e+00
      vertex   -2.800000e+01 -2.250000e+01 0.000000e+00
    endloop
  endfacet
  facet normal -1.776357e-15 -1.000000e+00 3.712287e-31
    outer loop
      vertex   -2.800000e+01 -2.250000e+01 0.000000e+00
      vertex   -3.000000e+01 -2.250000e+01 2.000000e+00
      vertex   -3.000000e+01 -2.250000e+01 -1.500000e+01
    endloop
  endfacet
  facet normal -1.776357e-15 -1.000000e+00 -0.000000e+00
    outer loop
      vertex   -2.800000e+01 -2.250000e+01 0.000000e+00
      vertex   -3.000000e+01 -2.250000e+01 -1.500000e+01
      vertex   -2.800000e+01 -2.250000e+01 -1.500000e+01
    endloop
  endfacet
  facet normal 7.071068e-01 -7.071068e-01 0.000000e+00
    outer loop
      vertex   -2.726021e+01 -2.176021e+01 -1.130000e+01
      vertex   -2.800000e+01 -2.250000e+01 -1.500000e+01
      vertex   -2.726021e+01 -2.176021e+01 -1.170000e+01
    endloop
  endfacet
  facet normal 7.071068e-01 -7.071068e-01 0.000000e+00
    outer loop
      vertex   -2.726021e+01 -2.176021e+01 -1.170000e+01
      vertex   -2.800000e+01 -2.250000e+01 -1.500000e+01
      vertex   -2.658579e+01 -2.108579e+01 -1.500000e+01
    endloop
  endfacet
  facet normal 7.071068e-01 -7.071068e-01 4.428317e-14
    outer loop
      vertex   -2.726021e+01 -2.176021e+01 -1.170000e+01
      vertex   -2.658579e+01 -2.108579e+01 -1.500000e+01
      vertex   -2.704807e+01 -2.154807e+01 -1.200000e+01
    endloop
  endfacet
  facet normal 7.071068e-01 -7.071068e-01 -1.204032e-14
    outer loop
      vertex   -2.704807e+01 -2.154807e+01 -1.200000e+01
      vertex   -2.658579e+01 -2.108579e+01 -1.500000e+01
      vertex   -2.683594e+01 -2.133594e+01 -1.170000e+01
    endloop
  endfacet
  facet normal 7.071068e-01 -7.071068e-01 0.000000e+00
    outer loop
      vertex   -2.683594e+01 -2.133594e+01 -1.170000e+01
      vertex   -2.658579e+01 -2.108579e+01 -1.500000e+01
      vertex   -2.683594e+01 -2.133594e+01 -1.130000e+01
    endloop
  endfacet
  facet normal 7.071068e-01 -7.071068e-01 0.000000e+00
    outer loop
      vertex   -2.683594e+01 -2.133594e+01 -1.130000e+01
      vertex   -2.658579e+01 -2.108579e+01 -1.500000e+01
      vertex   -2.658579e+01 -2.108579e+01 0.000000e+00
    endloop
  endfacet
  facet normal 7.071068e-01 -7.071068e-01 3.772980e-15
    outer loop
      vertex   -2.683594e+01 -2.133594e+01 -1.130000e+01
      vertex   -2.658579e+01 -2.108579e+01 0.000000e+00
      vertex   -2.704807e+01 -2.154807e+01 -1.100000e+01
    endloop
  endfacet
  facet normal 7.071068e-01 -7.071068e-01 -1.003768e-14
    outer loop
      vertex   -2.704807e+01 -2.154807e+01 -1.100000e+01
      vertex   -2.658579e+01 -2.108579e+01 0.000000e+00
      vertex   -2.726021e+01 -2.176021e+01 -1.130000e+01
    endloop
  endfacet
  facet normal 7.071068e-01 -7.071068e-01 0.000000e+00
    outer loop
      vertex   -2.726021e+01 -2.176021e+01 -1.130000e+01
      vertex   -2.658579e+01 -2.108579e+01 0.000000e+00
      vertex   -2.800000e+01 -2.250000e+01 0.000000e+00
    endloop
  endfacet
  facet normal 7.071068e-01 -7.071068e-01 0.000000e+00
    outer loop
      vertex   -2.726021e+01 -2.176021e+01 -1.130000e+01
      vertex   -2.800000e+01 -2.250000e+01 0.000000e+00
      vertex   -2.800000e+01 -2.250000e+01 -1.500000e+01
    endloop
  endfacet
  facet normal 1.000000e+00 0.000000e+00 0.000000e+00
    outer loop
      vertex   -2.800000e+01 -1.967157e+01 -1.300000e+01
      vertex   -2.800000e+01 2.050000e+01 -1.300000e+01
      vertex   -2.800000e+01 -1.967157e+01 0.000000e+00
    endloop
  endfacet
  facet normal 1.000000e+00 -0.000000e+00 0.000000e+00
    outer loop
      vertex   -2.800000e+01 -1.967157e+01 0.000000e+00
      vertex   -2.800000e+01 2.050000e+01 -1.300000e+01
      vertex   -2.800000e+01 2.050000e+01 0.000000e+00
    endloop
  endfacet
  facet normal 6.344132e-17 -1.000000e+00 0.000000e+00
    outer loop
      vertex   -2.800000e+01 2.050000e+01 -1.300000e+01
      vertex   2.800000e+01 2.050000e+01 -1.300000e+01
      vertex   -2.800000e+01 2.050000e+01 0.000000e+00
    endloop
  endfacet
  facet normal 6.344132e-17 -1.000000e+00 0.000000e+00
    outer loop
      vertex   -2.800000e+01 2.050000e+01 0.000000e+00
      vertex   2.800000e+01 2.050000e+01 -1.300000e+01
      vertex   2.800000e+01 2.050000e+01 0.000000e+00
    endloop
  endfacet
  facet normal -1.000000e+00 -1.768770e-16 0.000000e+00
    outer loop
      vertex   2.800000e+01 2.050000e+01 -1.300000e+01
      vertex   2.800000e+01 -1.967157e+01 -1.300000e+01
      vertex   2.800000e+01 2.050000e+01 0.000000e+00
    endloop
  endfacet
  facet normal -1.000000e+00 -1.768770e-16 0.000000e+00
    outer loop
      vertex   2.800000e+01 2.050000e+01 0.000000e+00
      vertex   2.800000e+01 -1.967157e+01 -1.300000e+01
      vertex   2.800000e+01 -1.967157e+01 0.000000e+00
    endloop
  endfacet
  facet normal -7.071068e-01 7.071068e-01 0.000000e+00
    outer loop
      vertex   2.800000e+01 -1.967157e+01 -1.500000e+01
      vertex   2.658579e+01 -2.108579e+01 -1.500000e+01
      vertex   2.800000e+01 -1.967157e+01 -1.300000e+01
    endloop
  endfacet
  facet normal -7.071068e-01 7.071068e-01 0.000000e+00
    outer loop
      vertex   2.800000e+01 -1.967157e+01 -1.300000e+01
      vertex   2.658579e+01 -2.108579e+01 -1.500000e+01
      vertex   2.658579e+01 -2.108579e+01 0.000000e+00
    endloop
  endfacet
  facet normal -7.071068e-01 7.071068e-01 0.000000e+00
    outer loop
      vertex   2.800000e+01 -1.967157e+01 -1.300000e+01
      vertex   2.658579e+01 -2.108579e+01 0.000000e+00
      vertex   2.800000e+01 -1.967157e+01 0.000000e+00
    endloop
  endfacet
  facet normal -7.071068e-01 -7.071068e-01 0.000000e+00
    outer loop
      vertex   2.726021e+01 -2.176021e+01 -1.170000e+01
      vertex   2.800000e+01 -2.250000e+01 -1.500000e+01
      vertex   2.726021e+01 -2.176021e+01 -1.130000e+01
    endloop
  endfacet
  facet normal -7.071068e-01 -7.071068e-01 0.000000e+00
    outer loop
      vertex   2.726021e+01 -2.176021e+01 -1.130000e+01
      vertex   2.800000e+01 -2.250000e+01 -1.500000e+01
      vertex   2.800000e+01 -2.250000e+01 0.000000e+00
    endloop
  endfacet
  facet normal -7.071068e-01 -7.071068e-01 -3.291369e-16
    outer loop
      vertex   2.726021e+01 -2.176021e+01 -1.130000e+01
      vertex   2.800000e+01 -2.250000e+01 0.000000e+00
      vertex   2.658579e+01 -2.108579e+01 0.000000e+00
    endloop
  endfacet
  facet normal -7.071068e-01 -7.071068e-01 1.110223e-15
    outer loop
      vertex   2.800000e+01 -2.250000e+01 -1.500000e+01
      vertex   2.726021e+01 -2.176021e+01 -1.170000e+01
      vertex   2.658579e+01 -2.108579e+01 -1.500000e+01
    endloop
  endfacet
  facet normal -7.071068e-01 -7.071068e-01 4.187776e-14
    outer loop
      vertex   2.658579e+01 -2.108579e+01 -1.500000e+01
      vertex   2.726021e+01 -2.176021e+01 -1.170000e+01
      vertex   2.704807e+01 -2.154807e+01 -1.200000e+01
    endloop
  endfacet
  facet normal -7.071068e-01 -7.071068e-01 -1.054636e-14
    outer loop
      vertex   2.658579e+01 -2.108579e+01 -1.500000e+01
      vertex   2.704807e+01 -2.154807e+01 -1.200000e+01
      vertex   2.683594e+01 -2.133594e+01 -1.170000e+01
    endloop
  endfacet
  facet normal -7.071068e-01 -7.071068e-01 0.000000e+00
    outer loop
      vertex   2.683594e+01 -2.133594e+01 -1.170000e+01
      vertex   2.683594e+01 -2.133594e+01 -1.130000e+01
      vertex   2.658579e+01 -2.108579e+01 -1.500000e+01
    endloop
  endfacet
  facet normal -7.071068e-01 -7.071068e-01 0.000000e+00
    outer loop
      vertex   2.658579e+01 -2.108579e+01 -1.500000e+01
      vertex   2.683594e+01 -2.133594e+01 -1.130000e+01
      vertex   2.658579e+01 -2.108579e+01 0.000000e+00
    endloop
  endfacet
  facet normal -7.071068e-01 -7.071068e-01 3.306568e-15
    outer loop
      vertex   2.658579e+01 -2.108579e+01 0.000000e+00
      vertex   2.683594e+01 -2.133594e+01 -1.130000e+01
      vertex   2.704807e+01 -2.154807e+01 -1.100000e+01
    endloop
  endfacet
  facet normal -7.071068e-01 -7.071068e-01 -9.496673e-15
    outer loop
      vertex   2.658579e+01 -2.108579e+01 0.000000e+00
      vertex   2.704807e+01 -2.154807e+01 -1.100000e+01
      vertex   2.726021e+01 -2.176021e+01 -1.130000e+01
    endloop
  endfacet
  facet normal 7.071068e-01 7.071068e-01 0.000000e+00
    outer loop
      vertex   -2.800000e+01 -1.967157e+01 0.000000e+00
      vertex   -2.658579e+01 -2.108579e+01 0.000000e+00
      vertex   -2.800000e+01 -1.967157e+01 -1.300000e+01
    endloop
  endfacet
  facet normal 7.071068e-01 7.071068e-01 0.000000e+00
    outer loop
      vertex   -2.800000e+01 -1.967157e+01 -1.300000e+01
      vertex   -2.658579e+01 -2.108579e+01 0.000000e+00
      vertex   -2.658579e+01 -2.108579e+01 -1.500000e+01
    endloop
  endfacet
  facet normal 7.071068e-01 7.071068e-01 0.000000e+00
    outer loop
      vertex   -2.800000e+01 -1.967157e+01 -1.300000e+01
      vertex   -2.658579e+01 -2.108579e+01 -1.500000e+01
      vertex   -2.800000e+01 -1.967157e+01 -1.500000e+01
    endloop
  endfacet
  facet normal 0.000000e+00 0.000000e+00 -1.000000e+00
    outer loop
      vertex   3.000000e+01 -2.250000e+01 -1.500000e+01
      vertex   2.800000e+01 -1.967157e+01 -1.500000e+01
      vertex   3.000000e+01 2.250000e+01 -1.500000e+01
    endloop
  endfacet
  facet normal 0.000000e+00 0.000000e+00 -1.000000e+00
    outer loop
      vertex   3.000000e+01 2.250000e+01 -1.500000e+01
      vertex   2.800000e+01 -1.967157e+01 -1.500000e+01
      vertex   -2.800000e+01 -1.967157e+01 -1.500000e+01
    endloop
  endfacet
  facet normal 0.000000e+00 0.000000e+00 -1.000000e+00
    outer loop
      vertex   3.000000e+01 2.250000e+01 -1.500000e+01
      vertex   -2.800000e+01 -1.967157e+01 -1.500000e+01
      vertex   -3.000000e+01 2.250000e+01 -1.500000e+01
    endloop
  endfacet
  facet normal 0.000000e+00 -0.000000e+00 -1.000000e+00
    outer loop
      vertex   -3.000000e+01 2.250000e+01 -1.500000e+01
      vertex   -2.800000e+01 -1.967157e+01 -1.500000e+01
      vertex   -3.000000e+01 -2.250000e+01 -1.500000e+01
    endloop
  endfacet
  facet normal 0.000000e+00 0.000000e+00 -1.000000e+00
    outer loop
      vertex   -3.000000e+01 -2.250000e+01 -1.500000e+01
      vertex   -2.800000e+01 -1.967157e+01 -1.500000e+01
      vertex   -2.800000e+01 -2.250000e+01 -1.500000e+01
    endloop
  endfacet
  facet normal 0.000000e+00 0.000000e+00 -1.000000e+00
    outer loop
      vertex   -2.800000e+01 -2.250000e+01 -1.500000e+01
      vertex   -2.800000e+01 -1.967157e+01 -1.500000e+01
      vertex   -2.658579e+01 -2.108579e+01 -1.500000e+01
    endloop
  endfacet
  facet normal -0.000000e+00 0.000000e+00 -1.000000e+00
    outer loop
      vertex   3.000000e+01 -2.250000e+01 -1.500000e+01
      vertex   2.800000e+01 -2.250000e+01 -1.500000e+01
      vertex   2.800000e+01 -1.967157e+01 -1.500000e+01
    endloop
  endfacet
  facet normal 0.000000e+00 -0.000000e+00 -1.000000e+00
    outer loop
      vertex   2.800000e+01 -1.967157e+01 -1.500000e+01
      vertex   2.800000e+01 -2.250000e+01 -1.500000e+01
      vertex   2.658579e+01 -2.108579e+01 -1.500000e+01
    endloop
  endfacet
  facet normal 0.000000e+00 0.000000e+00 1.000000e+00
    outer loop
      vertex   3.000000e+01 2.250000e+01 2.000000e+00
      vertex   -3.000000e+01 2.250000e+01 2.000000e+00
      vertex   3.000000e+01 -2.250000e+01 2.000000e+00
    endloop
  endfacet
  facet normal 0.000000e+00 0.000000e+00 1.000000e+00
    outer loop
      vertex   3.000000e+01 -2.250000e+01 2.000000e+00
      vertex   -3.000000e+01 2.250000e+01 2.000000e+00
      vertex   -3.000000e+01 -2.250000e+01 2.000000e+00
    endloop
  endfacet
  facet normal 0.000000e+00 0.000000e+00 -1.000000e+00
    outer loop
      vertex   2.800000e+01 -2.250000e+01 0.000000e+00
      vertex   -2.800000e+01 -2.250000e+01 0.000000e+00
      vertex   2.658579e+01 -2.108579e+01 0.000000e+00
    endloop
  endfacet
  facet normal -0.000000e+00 0.000000e+00 -1.000000e+00
    outer loop
      vertex   2.658579e+01 -2.108579e+01 0.000000e+00
      vertex   -2.800000e+01 -2.250000e+01 0.000000e+00
      vertex   -2.658579e+01 -2.108579e+01 0.000000e+00
    endloop
  endfacet
  facet normal 0.000000e+00 0.000000e+00 -1.000000e+00
    outer loop
      vertex   2.658579e+01 -2.108579e+01 0.000000e+00
      vertex   -2.658579e+01 -2.108579e+01 0.000000e+00
      vertex   2.800000e+01 -1.967157e+01 0.000000e+00
    endloop
  endfacet
  facet normal -0.000000e+00 0.000000e+00 -1.000000e+00
    outer loop
      vertex   2.800000e+01 -1.967157e+01 0.000000e+00
      vertex   -2.658579e+01 -2.108579e+01 0.000000e+00
      vertex   -2.800000e+01 -1.967157e+01 0.000000e+00
    endloop
  endfacet
  facet normal 0.000000e+00 0.000000e+00 -1.000000e+00
    outer loop
      vertex   2.800000e+01 -1.967157e+01 0.000000e+00
      vertex   -2.800000e+01 -1.967157e+01 0.000000e+00
      vertex   2.800000e+01 2.050000e+01 0.000000e+00
    endloop
  endfacet
  facet normal 0.000000e+00 0.000000e+00 -1.000000e+00
    outer loop
      vertex   2.800000e+01 2.050000e+01 0.000000e+00
      vertex   -2.800000e+01 -1.967157e+01 0.000000e+00
      vertex   -2.800000e+01 2.050000e+01 0.000000e+00
    endloop
  endfacet
endsolid
