solid ASCII
  facet normal 7.071068e-01 -7.071068e-01 0.000000e+00
    outer loop
      vertex   3.900000e+01 -1.950000e+01 -1.500000e+01
      vertex   3.900000e+01 -1.950000e+01 2.000000e+00
      vertex   3.400000e+01 -2.450000e+01 -1.500000e+01
    endloop
  endfacet
  facet normal 7.071068e-01 -7.071068e-01 0.000000e+00
    outer loop
      vertex   3.400000e+01 -2.450000e+01 -1.500000e+01
      vertex   3.900000e+01 -1.950000e+01 2.000000e+00
      vertex   3.400000e+01 -2.450000e+01 2.000000e+00
    endloop
  endfacet
  facet normal -0.000000e+00 -1.000000e+00 -0.000000e+00
    outer loop
      vertex   3.400000e+01 -2.450000e+01 2.000000e+00
      vertex   -3.400000e+01 -2.450000e+01 2.000000e+00
      vertex   3.400000e+01 -2.450000e+01 -1.500000e+01
    endloop
  endfacet
  facet normal 0.000000e+00 -1.000000e+00 0.000000e+00
    outer loop
      vertex   3.400000e+01 -2.450000e+01 -1.500000e+01
      vertex   -3.400000e+01 -2.450000e+01 2.000000e+00
      vertex   -3.400000e+01 -2.450000e+01 -1.500000e+01
    endloop
  endfacet
  facet normal 0.000000e+00 0.000000e+00 1.000000e+00
    outer loop
      vertex   2.900000e+01 -2.150000e+01 2.000000e+00
      vertex   3.900000e+01 -1.950000e+01 2.000000e+00
      vertex   2.900000e+01 2.150000e+01 2.000000e+00
    endloop
  endfacet
  facet normal -0.000000e+00 0.000000e+00 1.000000e+00
    outer loop
      vertex   2.900000e+01 2.150000e+01 2.000000e+00
      vertex   3.900000e+01 -1.950000e+01 2.000000e+00
      vertex   3.900000e+01 2.450000e+01 2.000000e+00
    endloop
  endfacet
  facet normal 0.000000e+00 -0.000000e+00 1.000000e+00
    outer loop
      vertex   2.900000e+01 2.150000e+01 2.000000e+00
      vertex   3.900000e+01 2.450000e+01 2.000000e+00
      vertex   -3.900000e+01 2.450000e+01 2.000000e+00
    endloop
  endfacet
  facet normal 0.000000e+00 0.000000e+00 1.000000e+00
    outer loop
      vertex   3.900000e+01 -1.950000e+01 2.000000e+00
      vertex   2.900000e+01 -2.150000e+01 2.000000e+00
      vertex   3.400000e+01 -2.450000e+01 2.000000e+00
    endloop
  endfacet
  facet normal 0.000000e+00 0.000000e+00 1.000000e+00
    outer loop
      vertex   3.400000e+01 -2.450000e+01 2.000000e+00
      vertex   2.900000e+01 -2.150000e+01 2.000000e+00
      vertex   -2.900000e+01 -2.150000e+01 2.000000e+00
    endloop
  endfacet
  facet normal 0.000000e+00 0.000000e+00 1.000000e+00
    outer loop
      vertex   3.400000e+01 -2.450000e+01 2.000000e+00
      vertex   -2.900000e+01 -2.150000e+01 2.000000e+00
      vertex   -3.400000e+01 -2.450000e+01 2.000000e+00
    endloop
  endfacet
  facet normal 0.000000e+00 -0.000000e+00 1.000000e+00
    outer loop
      vertex   -3.400000e+01 -2.450000e+01 2.000000e+00
      vertex   -2.900000e+01 -2.150000e+01 2.000000e+00
      vertex   -3.900000e+01 -1.950000e+01 2.000000e+00
    endloop
  endfacet
  facet normal -0.000000e+00 0.000000e+00 1.000000e+00
    outer loop
      vertex   -3.900000e+01 -1.950000e+01 2.000000e+00
      vertex   -2.900000e+01 -2.150000e+01 2.000000e+00
      vertex   -2.900000e+01 2.150000e+01 2.000000e+00
    endloop
  endfacet
  facet normal 0.000000e+00 0.000000e+00 1.000000e+00
    outer loop
      vertex   -3.900000e+01 -1.950000e+01 2.000000e+00
      vertex   -2.900000e+01 2.150000e+01 2.000000e+00
      vertex   -3.900000e+01 2.450000e+01 2.000000e+00
    endloop
  endfacet
  facet normal 0.000000e+00 0.000000e+00 1.000000e+00
    outer loop
      vertex   -3.900000e+01 2.450000e+01 2.000000e+00
      vertex   -2.900000e+01 2.150000e+01 2.000000e+00
      vertex   2.900000e+01 2.150000e+01 2.000000e+00
    endloop
  endfacet
  facet normal -7.071068e-01 -7.071068e-01 0.000000e+00
    outer loop
      vertex   -3.400000e+01 -2.450000e+01 -1.500000e+01
      vertex   -3.400000e+01 -2.450000e+01 2.000000e+00
      vertex   -3.900000e+01 -1.950000e+01 -1.500000e+01
    endloop
  endfacet
  facet normal -7.071068e-01 -7.071068e-01 0.000000e+00
    outer loop
      vertex   -3.900000e+01 -1.950000e+01 -1.500000e+01
      vertex   -3.400000e+01 -2.450000e+01 2.000000e+00
      vertex   -3.900000e+01 -1.950000e+01 2.000000e+00
    endloop
  endfacet
  facet normal -1.837611e-16 1.000000e+00 2.089832e-16
    outer loop
      vertex   -2.900000e+01 -2.150000e+01 2.000000e+00
      vertex   2.900000e+01 -2.150000e+01 2.000000e+00
      vertex   -2.900000e+01 -2.150000e+01 -1.500000e+01
    endloop
  endfacet
  facet normal -1.225074e-16 1.000000e+00 0.000000e+00
    outer loop
      vertex   -2.900000e+01 -2.150000e+01 -1.500000e+01
      vertex   2.900000e+01 -2.150000e+01 2.000000e+00
      vertex   2.900000e+01 -2.150000e+01 -1.500000e+01
    endloop
  endfacet
  facet normal 1.000000e+00 0.000000e+00 6.269495e-16
    outer loop
      vertex   -2.900000e+01 2.150000e+01 2.000000e+00
      vertex   -2.900000e+01 -2.150000e+01 2.000000e+00
      vertex   -2.900000e+01 2.150000e+01 -1.500000e+01
    endloop
  endfacet
  facet normal 1.000000e+00 -2.478637e-16 -1.381316e-31
    outer loop
      vertex   -2.900000e+01 2.150000e+01 -1.500000e+01
      vertex   -2.900000e+01 -2.150000e+01 2.000000e+00
      vertex   -2.900000e+01 -2.150000e+01 -1.500000e+01
    endloop
  endfacet
  facet normal 1.225074e-16 -1.000000e+00 0.000000e+00
    outer loop
      vertex   2.900000e+01 2.150000e+01 2.000000e+00
      vertex   -2.900000e+01 2.150000e+01 2.000000e+00
      vertex   2.900000e+01 2.150000e+01 -1.500000e+01
    endloop
  endfacet
  facet normal 1.225074e-16 -1.000000e+00 1.024079e-31
    outer loop
      vertex   2.900000e+01 2.150000e+01 -1.500000e+01
      vertex   -2.900000e+01 2.150000e+01 2.000000e+00
      vertex   -2.900000e+01 2.150000e+01 -1.500000e+01
    endloop
  endfacet
  facet normal -1.000000e+00 0.000000e+00 0.000000e+00
    outer loop
      vertex   2.900000e+01 -2.150000e+01 2.000000e+00
      vertex   2.900000e+01 2.150000e+01 2.000000e+00
      vertex   2.900000e+01 -2.150000e+01 -1.500000e+01
    endloop
  endfacet
  facet normal -1.000000e+00 0.000000e+00 0.000000e+00
    outer loop
      vertex   2.900000e+01 -2.150000e+01 -1.500000e+01
      vertex   2.900000e+01 2.150000e+01 2.000000e+00
      vertex   2.900000e+01 2.150000e+01 -1.500000e+01
    endloop
  endfacet
  facet normal -1.000000e+00 0.000000e+00 0.000000e+00
    outer loop
      vertex   -3.900000e+01 -1.950000e+01 2.000000e+00
      vertex   -3.900000e+01 2.450000e+01 2.000000e+00
      vertex   -3.900000e+01 -1.950000e+01 -1.500000e+01
    endloop
  endfacet
  facet normal -1.000000e+00 0.000000e+00 0.000000e+00
    outer loop
      vertex   -3.900000e+01 -1.950000e+01 -1.500000e+01
      vertex   -3.900000e+01 2.450000e+01 2.000000e+00
      vertex   -3.900000e+01 2.450000e+01 -1.500000e+01
    endloop
  endfacet
  facet normal 1.000000e+00 0.000000e+00 0.000000e+00
    outer loop
      vertex   3.900000e+01 -1.950000e+01 -1.500000e+01
      vertex   3.900000e+01 2.450000e+01 -1.500000e+01
      vertex   3.900000e+01 -1.950000e+01 2.000000e+00
    endloop
  endfacet
  facet normal 1.000000e+00 -0.000000e+00 0.000000e+00
    outer loop
      vertex   3.900000e+01 -1.950000e+01 2.000000e+00
      vertex   3.900000e+01 2.450000e+01 -1.500000e+01
      vertex   3.900000e+01 2.450000e+01 2.000000e+00
    endloop
  endfacet
  facet normal -0.000000e+00 1.000000e+00 0.000000e+00
    outer loop
      vertex   -3.900000e+01 2.450000e+01 2.000000e+00
      vertex   3.900000e+01 2.450000e+01 2.000000e+00
      vertex   -3.900000e+01 2.450000e+01 -1.500000e+01
    endloop
  endfacet
  facet normal 0.000000e+00 1.000000e+00 0.000000e+00
    outer loop
      vertex   -3.900000e+01 2.450000e+01 -1.500000e+01
      vertex   3.900000e+01 2.450000e+01 2.000000e+00
      vertex   3.900000e+01 2.450000e+01 -1.500000e+01
    endloop
  endfacet
  facet normal 0.000000e+00 0.000000e+00 -1.000000e+00
    outer loop
      vertex   3.400000e+01 -2.450000e+01 -1.500000e+01
      vertex   2.900000e+01 -2.150000e+01 -1.500000e+01
      vertex   3.900000e+01 -1.950000e+01 -1.500000e+01
    endloop
  endfacet
  facet normal -0.000000e+00 0.000000e+00 -1.000000e+00
    outer loop
      vertex   3.900000e+01 -1.950000e+01 -1.500000e+01
      vertex   2.900000e+01 -2.150000e+01 -1.500000e+01
      vertex   2.900000e+01 2.150000e+01 -1.500000e+01
    endloop
  endfacet
  facet normal 0.000000e+00 0.000000e+00 -1.000000e+00
    outer loop
      vertex   3.900000e+01 -1.950000e+01 -1.500000e+01
      vertex   2.900000e+01 2.150000e+01 -1.500000e+01
      vertex   3.900000e+01 2.450000e+01 -1.500000e+01
    endloop
  endfacet
  facet normal 0.000000e+00 0.000000e+00 -1.000000e+00
    outer loop
      vertex   3.900000e+01 2.450000e+01 -1.500000e+01
      vertex   2.900000e+01 2.150000e+01 -1.500000e+01
      vertex   -2.900000e+01 2.150000e+01 -1.500000e+01
    endloop
  endfacet
  facet normal -0.000000e+00 0.000000e+00 -1.000000e+00
    outer loop
      vertex   3.900000e+01 2.450000e+01 -1.500000e+01
      vertex   -2.900000e+01 2.150000e+01 -1.500000e+01
      vertex   -3.900000e+01 2.450000e+01 -1.500000e+01
    endloop
  endfacet
  facet normal 0.000000e+00 0.000000e+00 -1.000000e+00
    outer loop
      vertex   -3.900000e+01 2.450000e+01 -1.500000e+01
      vertex   -2.900000e+01 2.150000e+01 -1.500000e+01
      vertex   -3.900000e+01 -1.950000e+01 -1.500000e+01
    endloop
  endfacet
  facet normal 0.000000e+00 0.000000e+00 -1.000000e+00
    outer loop
      vertex   -3.900000e+01 -1.950000e+01 -1.500000e+01
      vertex   -2.900000e+01 2.150000e+01 -1.500000e+01
      vertex   -2.900000e+01 -2.150000e+01 -1.500000e+01
    endloop
  endfacet
  facet normal 0.000000e+00 0.000000e+00 -1.000000e+00
    outer loop
      vertex   -3.900000e+01 -1.950000e+01 -1.500000e+01
      vertex   -2.900000e+01 -2.150000e+01 -1.500000e+01
      vertex   -3.400000e+01 -2.450000e+01 -1.500000e+01
    endloop
  endfacet
  facet normal 0.000000e+00 0.000000e+00 -1.000000e+00
    outer loop
      vertex   -3.400000e+01 -2.450000e+01 -1.500000e+01
      vertex   -2.900000e+01 -2.150000e+01 -1.500000e+01
      vertex   2.900000e+01 -2.150000e+01 -1.500000e+01
    endloop
  endfacet
  facet normal 0.000000e+00 0.000000e+00 -1.000000e+00
    outer loop
      vertex   -3.400000e+01 -2.450000e+01 -1.500000e+01
      vertex   2.900000e+01 -2.150000e+01 -1.500000e+01
      vertex   3.400000e+01 -2.450000e+01 -1.500000e+01
    endloop
  endfacet
endsolid
