G04*
G04 #@! TF.GenerationSoftware,Altium Limited,Altium Designer,21.6.4 (81)*
G04*
G04 Layer_Color=2752767*
%FSLAX25Y25*%
%MOIN*%
G70*
G04*
G04 #@! TF.SameCoordinates,7C905695-A8D0-471C-AD1A-FFB52B7834A9*
G04*
G04*
G04 #@! TF.FilePolarity,Positive*
G04*
G01*
G75*
%ADD12C,0.01000*%
%ADD14C,0.00600*%
%ADD83C,0.00200*%
%ADD84C,0.01500*%
%ADD85C,0.00100*%
%ADD86C,0.01600*%
D12*
X221939Y-10810D02*
G03*
X221939Y-10810I-3333J0D01*
G01*
X215273Y17523D02*
X216939D01*
X215273D02*
Y20856D01*
X216939D01*
Y22523D01*
X220273D01*
Y20856D02*
Y22523D01*
Y20856D02*
X221939D01*
Y17523D02*
Y20856D01*
X220273Y17523D02*
X221939D01*
X220273Y15856D02*
Y17523D01*
X216939Y15856D02*
X220273D01*
X216939D02*
Y17523D01*
X215273Y856D02*
Y2523D01*
X216939Y4190D01*
X215273Y5856D02*
X216939Y4190D01*
X215273Y5856D02*
Y7523D01*
X216939D01*
X218606Y5856D01*
X220273Y7523D01*
X221939D01*
Y5856D02*
Y7523D01*
X220273Y4190D02*
X221939Y5856D01*
X220273Y4190D02*
X221939Y2523D01*
Y856D02*
Y2523D01*
X220273Y856D02*
X221939D01*
X218606Y2523D02*
X220273Y856D01*
X216939D02*
X218606Y2523D01*
X215273Y856D02*
X216939D01*
X218606Y-29144D02*
X221939Y-22477D01*
X215273D02*
X221939D01*
X215273D02*
X218606Y-29144D01*
X215273Y-44144D02*
X221939D01*
Y-37477D01*
X215273D02*
X221939D01*
X215273Y-44144D02*
Y-37477D01*
X216939Y-57477D02*
X218606Y-59144D01*
X215273Y-57477D02*
X216939D01*
X215273D02*
X216939Y-55810D01*
X215273Y-54144D02*
X216939Y-55810D01*
X215273Y-54144D02*
X216939D01*
X218606Y-52477D01*
X220273Y-54144D01*
X221939D01*
X220273Y-55810D02*
X221939Y-54144D01*
X220273Y-55810D02*
X221939Y-57477D01*
X220273D02*
X221939D01*
X218606Y-59144D02*
X220273Y-57477D01*
X88598Y113173D02*
X118500D01*
X88598Y-105500D02*
X118500D01*
X117500Y17332D02*
Y113173D01*
Y-105500D02*
Y-12859D01*
X115500Y107173D02*
X117500Y113173D01*
X119500Y107173D01*
X117500Y-105500D02*
X119500Y-99500D01*
X115500D02*
X117500Y-105500D01*
X95276Y-114000D02*
Y-98823D01*
X-95276Y-114000D02*
Y-98823D01*
X13496Y-113000D02*
X95276D01*
X-95276D02*
X-16696D01*
X89276Y-111000D02*
X95276Y-113000D01*
X89276Y-115000D02*
X95276Y-113000D01*
X-95276D02*
X-89276Y-115000D01*
X-95276Y-113000D02*
X-89276Y-111000D01*
X617787Y15856D02*
Y21855D01*
X620786D01*
X621786Y20855D01*
Y18856D01*
X620786Y17856D01*
X617787D01*
X619787D02*
X621786Y15856D01*
X624785D02*
X626784D01*
X627784Y16856D01*
Y18856D01*
X626784Y19855D01*
X624785D01*
X623785Y18856D01*
Y16856D01*
X624785Y15856D01*
X629783Y19855D02*
Y16856D01*
X630783Y15856D01*
X633782D01*
Y19855D01*
X635781Y15856D02*
Y19855D01*
X638780D01*
X639780Y18856D01*
Y15856D01*
X645778Y21855D02*
Y15856D01*
X642779D01*
X641779Y16856D01*
Y18856D01*
X642779Y19855D01*
X645778D01*
X650776Y15856D02*
X648777D01*
X647777Y16856D01*
Y18856D01*
X648777Y19855D01*
X650776D01*
X651776Y18856D01*
Y17856D01*
X647777D01*
X657774Y21855D02*
Y15856D01*
X654775D01*
X653776Y16856D01*
Y18856D01*
X654775Y19855D01*
X657774D01*
X617787Y856D02*
Y6854D01*
X620786D01*
X621786Y5855D01*
Y3855D01*
X620786Y2856D01*
X617787D01*
X619787D02*
X621786Y856D01*
X624785D02*
X626784D01*
X627784Y1856D01*
Y3855D01*
X626784Y4855D01*
X624785D01*
X623785Y3855D01*
Y1856D01*
X624785Y856D01*
X629783Y4855D02*
Y1856D01*
X630783Y856D01*
X633782D01*
Y4855D01*
X635781Y856D02*
Y4855D01*
X638780D01*
X639780Y3855D01*
Y856D01*
X645778Y6854D02*
Y856D01*
X642779D01*
X641779Y1856D01*
Y3855D01*
X642779Y4855D01*
X645778D01*
X650776Y856D02*
X648777D01*
X647777Y1856D01*
Y3855D01*
X648777Y4855D01*
X650776D01*
X651776Y3855D01*
Y2856D01*
X647777D01*
X657774Y6854D02*
Y856D01*
X654775D01*
X653776Y1856D01*
Y3855D01*
X654775Y4855D01*
X657774D01*
X617787Y-14144D02*
Y-8145D01*
X620786D01*
X621786Y-9145D01*
Y-11145D01*
X620786Y-12144D01*
X617787D01*
X619787D02*
X621786Y-14144D01*
X624785D02*
X626784D01*
X627784Y-13144D01*
Y-11145D01*
X626784Y-10145D01*
X624785D01*
X623785Y-11145D01*
Y-13144D01*
X624785Y-14144D01*
X629783Y-10145D02*
Y-13144D01*
X630783Y-14144D01*
X633782D01*
Y-10145D01*
X635781Y-14144D02*
Y-10145D01*
X638780D01*
X639780Y-11145D01*
Y-14144D01*
X645778Y-8145D02*
Y-14144D01*
X642779D01*
X641779Y-13144D01*
Y-11145D01*
X642779Y-10145D01*
X645778D01*
X650776Y-14144D02*
X648777D01*
X647777Y-13144D01*
Y-11145D01*
X648777Y-10145D01*
X650776D01*
X651776Y-11145D01*
Y-12144D01*
X647777D01*
X657774Y-8145D02*
Y-14144D01*
X654775D01*
X653776Y-13144D01*
Y-11145D01*
X654775Y-10145D01*
X657774D01*
X619787Y-29144D02*
X617787Y-27144D01*
Y-25145D01*
X619787Y-23145D01*
X622786Y-29144D02*
Y-23145D01*
X624785Y-25145D01*
X626784Y-23145D01*
Y-29144D01*
X628784D02*
X630783D01*
X629783D01*
Y-25145D01*
X628784D01*
X633782D02*
X637781Y-29144D01*
X635781Y-27144D01*
X637781Y-25145D01*
X633782Y-29144D01*
X642779D02*
X640780D01*
X639780Y-28144D01*
Y-26144D01*
X640780Y-25145D01*
X642779D01*
X643779Y-26144D01*
Y-27144D01*
X639780D01*
X649777Y-23145D02*
Y-29144D01*
X646778D01*
X645778Y-28144D01*
Y-26144D01*
X646778Y-25145D01*
X649777D01*
X651776Y-29144D02*
X653776Y-27144D01*
Y-25145D01*
X651776Y-23145D01*
X619787Y-44144D02*
X617787Y-42144D01*
Y-40145D01*
X619787Y-38146D01*
X622786Y-44144D02*
Y-38146D01*
X624785Y-40145D01*
X626784Y-38146D01*
Y-44144D01*
X628784D02*
X630783D01*
X629783D01*
Y-40145D01*
X628784D01*
X633782D02*
X637781Y-44144D01*
X635781Y-42144D01*
X637781Y-40145D01*
X633782Y-44144D01*
X642779D02*
X640780D01*
X639780Y-43144D01*
Y-41144D01*
X640780Y-40145D01*
X642779D01*
X643779Y-41144D01*
Y-42144D01*
X639780D01*
X649777Y-38146D02*
Y-44144D01*
X646778D01*
X645778Y-43144D01*
Y-41144D01*
X646778Y-40145D01*
X649777D01*
X651776Y-44144D02*
X653776Y-42144D01*
Y-40145D01*
X651776Y-38146D01*
X617787Y-59144D02*
Y-53145D01*
X620786D01*
X621786Y-54145D01*
Y-56144D01*
X620786Y-57144D01*
X617787D01*
X619787D02*
X621786Y-59144D01*
X624785D02*
X626784D01*
X627784Y-58144D01*
Y-56144D01*
X626784Y-55145D01*
X624785D01*
X623785Y-56144D01*
Y-58144D01*
X624785Y-59144D01*
X629783Y-55145D02*
Y-58144D01*
X630783Y-59144D01*
X633782D01*
Y-55145D01*
X635781Y-59144D02*
Y-55145D01*
X638780D01*
X639780Y-56144D01*
Y-59144D01*
X645778Y-53145D02*
Y-59144D01*
X642779D01*
X641779Y-58144D01*
Y-56144D01*
X642779Y-55145D01*
X645778D01*
X650776Y-59144D02*
X648777D01*
X647777Y-58144D01*
Y-56144D01*
X648777Y-55145D01*
X650776D01*
X651776Y-56144D01*
Y-57144D01*
X647777D01*
X657774Y-53145D02*
Y-59144D01*
X654775D01*
X653776Y-58144D01*
Y-56144D01*
X654775Y-55145D01*
X657774D01*
X558802Y21855D02*
Y17856D01*
X560802Y15856D01*
X562801Y17856D01*
Y21855D01*
X564800Y15856D02*
X566800D01*
X565800D01*
Y19855D01*
X564800D01*
X570798D02*
X572798D01*
X573797Y18856D01*
Y15856D01*
X570798D01*
X569799Y16856D01*
X570798Y17856D01*
X573797D01*
X558802Y6854D02*
Y2856D01*
X560802Y856D01*
X562801Y2856D01*
Y6854D01*
X564800Y856D02*
X566800D01*
X565800D01*
Y4855D01*
X564800D01*
X570798D02*
X572798D01*
X573797Y3855D01*
Y856D01*
X570798D01*
X569799Y1856D01*
X570798Y2856D01*
X573797D01*
X558802Y-14144D02*
Y-8145D01*
X561801D01*
X562801Y-9145D01*
Y-11145D01*
X561801Y-12144D01*
X558802D01*
X565800Y-10145D02*
X567799D01*
X568799Y-11145D01*
Y-14144D01*
X565800D01*
X564800Y-13144D01*
X565800Y-12144D01*
X568799D01*
X574797Y-8145D02*
Y-14144D01*
X571798D01*
X570798Y-13144D01*
Y-11145D01*
X571798Y-10145D01*
X574797D01*
X558802Y-29144D02*
Y-23145D01*
X561801D01*
X562801Y-24145D01*
Y-26144D01*
X561801Y-27144D01*
X558802D01*
X565800Y-25145D02*
X567799D01*
X568799Y-26144D01*
Y-29144D01*
X565800D01*
X564800Y-28144D01*
X565800Y-27144D01*
X568799D01*
X574797Y-23145D02*
Y-29144D01*
X571798D01*
X570798Y-28144D01*
Y-26144D01*
X571798Y-25145D01*
X574797D01*
X558802Y-44144D02*
Y-38146D01*
X561801D01*
X562801Y-39145D01*
Y-41144D01*
X561801Y-42144D01*
X558802D01*
X565800Y-40145D02*
X567799D01*
X568799Y-41144D01*
Y-44144D01*
X565800D01*
X564800Y-43144D01*
X565800Y-42144D01*
X568799D01*
X574797Y-38146D02*
Y-44144D01*
X571798D01*
X570798Y-43144D01*
Y-41144D01*
X571798Y-40145D01*
X574797D01*
X558802Y-59144D02*
Y-53145D01*
X561801D01*
X562801Y-54145D01*
Y-56144D01*
X561801Y-57144D01*
X558802D01*
X565800Y-55145D02*
X567799D01*
X568799Y-56144D01*
Y-59144D01*
X565800D01*
X564800Y-58144D01*
X565800Y-57144D01*
X568799D01*
X574797Y-53145D02*
Y-59144D01*
X571798D01*
X570798Y-58144D01*
Y-56144D01*
X571798Y-55145D01*
X574797D01*
X485422Y15856D02*
Y21855D01*
X488421D01*
X489421Y20855D01*
Y18856D01*
X488421Y17856D01*
X485422D01*
X487421D02*
X489421Y15856D01*
X492420D02*
X494419D01*
X495419Y16856D01*
Y18856D01*
X494419Y19855D01*
X492420D01*
X491420Y18856D01*
Y16856D01*
X492420Y15856D01*
X497418Y19855D02*
Y16856D01*
X498418Y15856D01*
X501417D01*
Y19855D01*
X503416Y15856D02*
Y19855D01*
X506415D01*
X507415Y18856D01*
Y15856D01*
X513413Y21855D02*
Y15856D01*
X510414D01*
X509414Y16856D01*
Y18856D01*
X510414Y19855D01*
X513413D01*
X485422Y856D02*
Y6854D01*
X488421D01*
X489421Y5855D01*
Y3855D01*
X488421Y2856D01*
X485422D01*
X487421D02*
X489421Y856D01*
X492420D02*
X494419D01*
X495419Y1856D01*
Y3855D01*
X494419Y4855D01*
X492420D01*
X491420Y3855D01*
Y1856D01*
X492420Y856D01*
X497418Y4855D02*
Y1856D01*
X498418Y856D01*
X501417D01*
Y4855D01*
X503416Y856D02*
Y4855D01*
X506415D01*
X507415Y3855D01*
Y856D01*
X513413Y6854D02*
Y856D01*
X510414D01*
X509414Y1856D01*
Y3855D01*
X510414Y4855D01*
X513413D01*
X485422Y-14144D02*
Y-8145D01*
X488421D01*
X489421Y-9145D01*
Y-11145D01*
X488421Y-12144D01*
X485422D01*
X487421D02*
X489421Y-14144D01*
X492420D02*
X494419D01*
X495419Y-13144D01*
Y-11145D01*
X494419Y-10145D01*
X492420D01*
X491420Y-11145D01*
Y-13144D01*
X492420Y-14144D01*
X497418Y-10145D02*
Y-13144D01*
X498418Y-14144D01*
X501417D01*
Y-10145D01*
X503416Y-14144D02*
Y-10145D01*
X506415D01*
X507415Y-11145D01*
Y-14144D01*
X513413Y-8145D02*
Y-14144D01*
X510414D01*
X509414Y-13144D01*
Y-11145D01*
X510414Y-10145D01*
X513413D01*
X485422Y-29144D02*
Y-23145D01*
X488421D01*
X489421Y-24145D01*
Y-26144D01*
X488421Y-27144D01*
X485422D01*
X487421D02*
X489421Y-29144D01*
X492420D02*
X494419D01*
X495419Y-28144D01*
Y-26144D01*
X494419Y-25145D01*
X492420D01*
X491420Y-26144D01*
Y-28144D01*
X492420Y-29144D01*
X497418Y-25145D02*
Y-28144D01*
X498418Y-29144D01*
X501417D01*
Y-25145D01*
X503416Y-29144D02*
Y-25145D01*
X506415D01*
X507415Y-26144D01*
Y-29144D01*
X513413Y-23145D02*
Y-29144D01*
X510414D01*
X509414Y-28144D01*
Y-26144D01*
X510414Y-25145D01*
X513413D01*
X485422Y-44144D02*
Y-38146D01*
X488421D01*
X489421Y-39145D01*
Y-41144D01*
X488421Y-42144D01*
X485422D01*
X487421D02*
X489421Y-44144D01*
X492420D02*
X494419D01*
X495419Y-43144D01*
Y-41144D01*
X494419Y-40145D01*
X492420D01*
X491420Y-41144D01*
Y-43144D01*
X492420Y-44144D01*
X497418Y-40145D02*
Y-43144D01*
X498418Y-44144D01*
X501417D01*
Y-40145D01*
X503416Y-44144D02*
Y-40145D01*
X506415D01*
X507415Y-41144D01*
Y-44144D01*
X513413Y-38146D02*
Y-44144D01*
X510414D01*
X509414Y-43144D01*
Y-41144D01*
X510414Y-40145D01*
X513413D01*
X485422Y-59144D02*
Y-53145D01*
X488421D01*
X489421Y-54145D01*
Y-56144D01*
X488421Y-57144D01*
X485422D01*
X487421D02*
X489421Y-59144D01*
X492420D02*
X494419D01*
X495419Y-58144D01*
Y-56144D01*
X494419Y-55145D01*
X492420D01*
X491420Y-56144D01*
Y-58144D01*
X492420Y-59144D01*
X497418Y-55145D02*
Y-58144D01*
X498418Y-59144D01*
X501417D01*
Y-55145D01*
X503416Y-59144D02*
Y-55145D01*
X506415D01*
X507415Y-56144D01*
Y-59144D01*
X513413Y-53145D02*
Y-59144D01*
X510414D01*
X509414Y-58144D01*
Y-56144D01*
X510414Y-55145D01*
X513413D01*
X434834Y15856D02*
Y21855D01*
X437833D01*
X438833Y20855D01*
Y18856D01*
X437833Y17856D01*
X434834D01*
X440833Y21855D02*
X444831D01*
X442832D01*
Y15856D01*
X446831Y21855D02*
Y15856D01*
Y18856D01*
X450829D01*
Y21855D01*
Y15856D01*
X434834Y856D02*
Y6854D01*
X437833D01*
X438833Y5855D01*
Y3855D01*
X437833Y2856D01*
X434834D01*
X440833Y6854D02*
X444831D01*
X442832D01*
Y856D01*
X446831Y6854D02*
Y856D01*
Y3855D01*
X450829D01*
Y6854D01*
Y856D01*
X434834Y-14144D02*
Y-8145D01*
X437833D01*
X438833Y-9145D01*
Y-11145D01*
X437833Y-12144D01*
X434834D01*
X440833Y-8145D02*
X444831D01*
X442832D01*
Y-14144D01*
X446831Y-8145D02*
Y-14144D01*
Y-11145D01*
X450829D01*
Y-8145D01*
Y-14144D01*
X434834Y-29144D02*
Y-23145D01*
X437833D01*
X438833Y-24145D01*
Y-26144D01*
X437833Y-27144D01*
X434834D01*
X440833Y-23145D02*
X444831D01*
X442832D01*
Y-29144D01*
X446831Y-23145D02*
Y-29144D01*
Y-26144D01*
X450829D01*
Y-23145D01*
Y-29144D01*
X434834Y-44144D02*
Y-38146D01*
X437833D01*
X438833Y-39145D01*
Y-41144D01*
X437833Y-42144D01*
X434834D01*
X440833Y-38146D02*
X444831D01*
X442832D01*
Y-44144D01*
X446831Y-38146D02*
Y-44144D01*
Y-41144D01*
X450829D01*
Y-38146D01*
Y-44144D01*
X434834Y-59144D02*
Y-53145D01*
X438833Y-59144D01*
Y-53145D01*
X440833Y-59144D02*
Y-53145D01*
X443832D01*
X444831Y-54145D01*
Y-56144D01*
X443832Y-57144D01*
X440833D01*
X446831Y-53145D02*
X450829D01*
X448830D01*
Y-59144D01*
X452829Y-53145D02*
Y-59144D01*
Y-56144D01*
X456827D01*
Y-53145D01*
Y-59144D01*
X322867Y20855D02*
X323867Y21855D01*
X325866D01*
X326866Y20855D01*
Y16856D01*
X325866Y15856D01*
X323867D01*
X322867Y16856D01*
Y20855D01*
X328865Y15856D02*
Y16856D01*
X329865D01*
Y15856D01*
X328865D01*
X336863D02*
Y21855D01*
X333864Y18856D01*
X337862D01*
X339862Y20855D02*
X340861Y21855D01*
X342861D01*
X343860Y20855D01*
Y16856D01*
X342861Y15856D01*
X340861D01*
X339862Y16856D01*
Y20855D01*
X345860D02*
X346859Y21855D01*
X348859D01*
X349858Y20855D01*
Y16856D01*
X348859Y15856D01*
X346859D01*
X345860Y16856D01*
Y20855D01*
X351858Y15856D02*
Y19855D01*
X352857D01*
X353857Y18856D01*
Y15856D01*
Y18856D01*
X354857Y19855D01*
X355856Y18856D01*
Y15856D01*
X357856D02*
Y19855D01*
X358856D01*
X359855Y18856D01*
Y15856D01*
Y18856D01*
X360855Y19855D01*
X361855Y18856D01*
Y15856D01*
X371851D02*
X369852Y17856D01*
Y19855D01*
X371851Y21855D01*
X374850Y15856D02*
X376850D01*
X375850D01*
Y21855D01*
X374850Y20855D01*
X383847Y21855D02*
X379849D01*
Y18856D01*
X381848Y19855D01*
X382848D01*
X383847Y18856D01*
Y16856D01*
X382848Y15856D01*
X380848D01*
X379849Y16856D01*
X385847Y15856D02*
Y16856D01*
X386846D01*
Y15856D01*
X385847D01*
X390845Y21855D02*
X394844D01*
Y20855D01*
X390845Y16856D01*
Y15856D01*
X400842Y21855D02*
X396843D01*
Y18856D01*
X398843Y19855D01*
X399842D01*
X400842Y18856D01*
Y16856D01*
X399842Y15856D01*
X397843D01*
X396843Y16856D01*
X402841Y15856D02*
Y19855D01*
X403841D01*
X404841Y18856D01*
Y15856D01*
Y18856D01*
X405840Y19855D01*
X406840Y18856D01*
Y15856D01*
X408839D02*
X410839D01*
X409839D01*
Y19855D01*
X408839D01*
X413838Y15856D02*
X415837D01*
X414837D01*
Y21855D01*
X413838D01*
X418836Y15856D02*
X420835Y17856D01*
Y19855D01*
X418836Y21855D01*
X322867Y5855D02*
X323867Y6854D01*
X325866D01*
X326866Y5855D01*
Y1856D01*
X325866Y856D01*
X323867D01*
X322867Y1856D01*
Y5855D01*
X328865Y856D02*
Y1856D01*
X329865D01*
Y856D01*
X328865D01*
X337862Y6854D02*
X335863Y5855D01*
X333864Y3855D01*
Y1856D01*
X334863Y856D01*
X336863D01*
X337862Y1856D01*
Y2856D01*
X336863Y3855D01*
X333864D01*
X339862Y5855D02*
X340861Y6854D01*
X342861D01*
X343860Y5855D01*
Y1856D01*
X342861Y856D01*
X340861D01*
X339862Y1856D01*
Y5855D01*
X345860D02*
X346859Y6854D01*
X348859D01*
X349858Y5855D01*
Y1856D01*
X348859Y856D01*
X346859D01*
X345860Y1856D01*
Y5855D01*
X351858Y856D02*
Y4855D01*
X352857D01*
X353857Y3855D01*
Y856D01*
Y3855D01*
X354857Y4855D01*
X355856Y3855D01*
Y856D01*
X357856D02*
Y4855D01*
X358856D01*
X359855Y3855D01*
Y856D01*
Y3855D01*
X360855Y4855D01*
X361855Y3855D01*
Y856D01*
X371851D02*
X369852Y2856D01*
Y4855D01*
X371851Y6854D01*
X378849Y856D02*
X374850D01*
X378849Y4855D01*
Y5855D01*
X377849Y6854D01*
X375850D01*
X374850Y5855D01*
X380848D02*
X381848Y6854D01*
X383847D01*
X384847Y5855D01*
Y4855D01*
X383847Y3855D01*
X382848D01*
X383847D01*
X384847Y2856D01*
Y1856D01*
X383847Y856D01*
X381848D01*
X380848Y1856D01*
X386846Y856D02*
Y1856D01*
X387846D01*
Y856D01*
X386846D01*
X395844Y6854D02*
X393844Y5855D01*
X391845Y3855D01*
Y1856D01*
X392845Y856D01*
X394844D01*
X395844Y1856D01*
Y2856D01*
X394844Y3855D01*
X391845D01*
X401842Y856D02*
X397843D01*
X401842Y4855D01*
Y5855D01*
X400842Y6854D01*
X398843D01*
X397843Y5855D01*
X403841Y856D02*
Y4855D01*
X404841D01*
X405840Y3855D01*
Y856D01*
Y3855D01*
X406840Y4855D01*
X407840Y3855D01*
Y856D01*
X409839D02*
X411838D01*
X410839D01*
Y4855D01*
X409839D01*
X414837Y856D02*
X416837D01*
X415837D01*
Y6854D01*
X414837D01*
X419836Y856D02*
X421835Y2856D01*
Y4855D01*
X419836Y6854D01*
X322867Y-9145D02*
X323867Y-8145D01*
X325866D01*
X326866Y-9145D01*
Y-13144D01*
X325866Y-14144D01*
X323867D01*
X322867Y-13144D01*
Y-9145D01*
X328865Y-14144D02*
Y-13144D01*
X329865D01*
Y-14144D01*
X328865D01*
X333864Y-8145D02*
X337862D01*
Y-9145D01*
X333864Y-13144D01*
Y-14144D01*
X343860Y-8145D02*
X341861Y-9145D01*
X339862Y-11145D01*
Y-13144D01*
X340861Y-14144D01*
X342861D01*
X343860Y-13144D01*
Y-12144D01*
X342861Y-11145D01*
X339862D01*
X349858Y-14144D02*
X345860D01*
X349858Y-10145D01*
Y-9145D01*
X348859Y-8145D01*
X346859D01*
X345860Y-9145D01*
X351858Y-14144D02*
Y-10145D01*
X352857D01*
X353857Y-11145D01*
Y-14144D01*
Y-11145D01*
X354857Y-10145D01*
X355856Y-11145D01*
Y-14144D01*
X357856D02*
Y-10145D01*
X358856D01*
X359855Y-11145D01*
Y-14144D01*
Y-11145D01*
X360855Y-10145D01*
X361855Y-11145D01*
Y-14144D01*
X371851D02*
X369852Y-12144D01*
Y-10145D01*
X371851Y-8145D01*
X374850Y-9145D02*
X375850Y-8145D01*
X377849D01*
X378849Y-9145D01*
Y-10145D01*
X377849Y-11145D01*
X376850D01*
X377849D01*
X378849Y-12144D01*
Y-13144D01*
X377849Y-14144D01*
X375850D01*
X374850Y-13144D01*
X380848Y-9145D02*
X381848Y-8145D01*
X383847D01*
X384847Y-9145D01*
Y-13144D01*
X383847Y-14144D01*
X381848D01*
X380848Y-13144D01*
Y-9145D01*
X386846Y-14144D02*
Y-13144D01*
X387846D01*
Y-14144D01*
X386846D01*
X391845Y-9145D02*
X392845Y-8145D01*
X394844D01*
X395844Y-9145D01*
Y-13144D01*
X394844Y-14144D01*
X392845D01*
X391845Y-13144D01*
Y-9145D01*
X397843D02*
X398843Y-8145D01*
X400842D01*
X401842Y-9145D01*
Y-13144D01*
X400842Y-14144D01*
X398843D01*
X397843Y-13144D01*
Y-9145D01*
X403841Y-14144D02*
Y-10145D01*
X404841D01*
X405840Y-11145D01*
Y-14144D01*
Y-11145D01*
X406840Y-10145D01*
X407840Y-11145D01*
Y-14144D01*
X409839D02*
X411838D01*
X410839D01*
Y-10145D01*
X409839D01*
X414837Y-14144D02*
X416837D01*
X415837D01*
Y-8145D01*
X414837D01*
X419836Y-14144D02*
X421835Y-12144D01*
Y-10145D01*
X419836Y-8145D01*
X322867Y-24145D02*
X323867Y-23145D01*
X325866D01*
X326866Y-24145D01*
Y-28144D01*
X325866Y-29144D01*
X323867D01*
X322867Y-28144D01*
Y-24145D01*
X328865Y-29144D02*
Y-28144D01*
X329865D01*
Y-29144D01*
X328865D01*
X333864Y-24145D02*
X334863Y-23145D01*
X336863D01*
X337862Y-24145D01*
Y-25145D01*
X336863Y-26144D01*
X337862Y-27144D01*
Y-28144D01*
X336863Y-29144D01*
X334863D01*
X333864Y-28144D01*
Y-27144D01*
X334863Y-26144D01*
X333864Y-25145D01*
Y-24145D01*
X334863Y-26144D02*
X336863D01*
X339862Y-24145D02*
X340861Y-23145D01*
X342861D01*
X343860Y-24145D01*
Y-28144D01*
X342861Y-29144D01*
X340861D01*
X339862Y-28144D01*
Y-24145D01*
X345860D02*
X346859Y-23145D01*
X348859D01*
X349858Y-24145D01*
Y-28144D01*
X348859Y-29144D01*
X346859D01*
X345860Y-28144D01*
Y-24145D01*
X351858Y-29144D02*
Y-25145D01*
X352857D01*
X353857Y-26144D01*
Y-29144D01*
Y-26144D01*
X354857Y-25145D01*
X355856Y-26144D01*
Y-29144D01*
X357856D02*
Y-25145D01*
X358856D01*
X359855Y-26144D01*
Y-29144D01*
Y-26144D01*
X360855Y-25145D01*
X361855Y-26144D01*
Y-29144D01*
X371851D02*
X369852Y-27144D01*
Y-25145D01*
X371851Y-23145D01*
X374850Y-24145D02*
X375850Y-23145D01*
X377849D01*
X378849Y-24145D01*
Y-25145D01*
X377849Y-26144D01*
X376850D01*
X377849D01*
X378849Y-27144D01*
Y-28144D01*
X377849Y-29144D01*
X375850D01*
X374850Y-28144D01*
X380848Y-29144D02*
X382848D01*
X381848D01*
Y-23145D01*
X380848Y-24145D01*
X385847Y-29144D02*
Y-28144D01*
X386846D01*
Y-29144D01*
X385847D01*
X394844Y-23145D02*
X390845D01*
Y-26144D01*
X392845Y-25145D01*
X393844D01*
X394844Y-26144D01*
Y-28144D01*
X393844Y-29144D01*
X391845D01*
X390845Y-28144D01*
X396843Y-24145D02*
X397843Y-23145D01*
X399842D01*
X400842Y-24145D01*
Y-28144D01*
X399842Y-29144D01*
X397843D01*
X396843Y-28144D01*
Y-24145D01*
X402841Y-29144D02*
Y-25145D01*
X403841D01*
X404841Y-26144D01*
Y-29144D01*
Y-26144D01*
X405840Y-25145D01*
X406840Y-26144D01*
Y-29144D01*
X408839D02*
X410839D01*
X409839D01*
Y-25145D01*
X408839D01*
X413838Y-29144D02*
X415837D01*
X414837D01*
Y-23145D01*
X413838D01*
X418836Y-29144D02*
X420835Y-27144D01*
Y-25145D01*
X418836Y-23145D01*
X322867Y-39145D02*
X323867Y-38146D01*
X325866D01*
X326866Y-39145D01*
Y-43144D01*
X325866Y-44144D01*
X323867D01*
X322867Y-43144D01*
Y-39145D01*
X328865Y-44144D02*
Y-43144D01*
X329865D01*
Y-44144D01*
X328865D01*
X333864Y-43144D02*
X334863Y-44144D01*
X336863D01*
X337862Y-43144D01*
Y-39145D01*
X336863Y-38146D01*
X334863D01*
X333864Y-39145D01*
Y-40145D01*
X334863Y-41144D01*
X337862D01*
X339862Y-39145D02*
X340861Y-38146D01*
X342861D01*
X343860Y-39145D01*
Y-43144D01*
X342861Y-44144D01*
X340861D01*
X339862Y-43144D01*
Y-39145D01*
X345860D02*
X346859Y-38146D01*
X348859D01*
X349858Y-39145D01*
Y-43144D01*
X348859Y-44144D01*
X346859D01*
X345860Y-43144D01*
Y-39145D01*
X351858Y-44144D02*
Y-40145D01*
X352857D01*
X353857Y-41144D01*
Y-44144D01*
Y-41144D01*
X354857Y-40145D01*
X355856Y-41144D01*
Y-44144D01*
X357856D02*
Y-40145D01*
X358856D01*
X359855Y-41144D01*
Y-44144D01*
Y-41144D01*
X360855Y-40145D01*
X361855Y-41144D01*
Y-44144D01*
X371851D02*
X369852Y-42144D01*
Y-40145D01*
X371851Y-38146D01*
X374850Y-39145D02*
X375850Y-38146D01*
X377849D01*
X378849Y-39145D01*
Y-40145D01*
X377849Y-41144D01*
X376850D01*
X377849D01*
X378849Y-42144D01*
Y-43144D01*
X377849Y-44144D01*
X375850D01*
X374850Y-43144D01*
X384847Y-38146D02*
X380848D01*
Y-41144D01*
X382848Y-40145D01*
X383847D01*
X384847Y-41144D01*
Y-43144D01*
X383847Y-44144D01*
X381848D01*
X380848Y-43144D01*
X386846Y-44144D02*
Y-43144D01*
X387846D01*
Y-44144D01*
X386846D01*
X394844D02*
Y-38146D01*
X391845Y-41144D01*
X395844D01*
X397843Y-39145D02*
X398843Y-38146D01*
X400842D01*
X401842Y-39145D01*
Y-40145D01*
X400842Y-41144D01*
X399842D01*
X400842D01*
X401842Y-42144D01*
Y-43144D01*
X400842Y-44144D01*
X398843D01*
X397843Y-43144D01*
X403841Y-44144D02*
Y-40145D01*
X404841D01*
X405840Y-41144D01*
Y-44144D01*
Y-41144D01*
X406840Y-40145D01*
X407840Y-41144D01*
Y-44144D01*
X409839D02*
X411838D01*
X410839D01*
Y-40145D01*
X409839D01*
X414837Y-44144D02*
X416837D01*
X415837D01*
Y-38146D01*
X414837D01*
X419836Y-44144D02*
X421835Y-42144D01*
Y-40145D01*
X419836Y-38146D01*
X322867Y-54145D02*
X323867Y-53145D01*
X325866D01*
X326866Y-54145D01*
Y-55145D01*
X325866Y-56144D01*
X324867D01*
X325866D01*
X326866Y-57144D01*
Y-58144D01*
X325866Y-59144D01*
X323867D01*
X322867Y-58144D01*
X328865Y-59144D02*
Y-58144D01*
X329865D01*
Y-59144D01*
X328865D01*
X333864Y-54145D02*
X334863Y-53145D01*
X336863D01*
X337862Y-54145D01*
Y-58144D01*
X336863Y-59144D01*
X334863D01*
X333864Y-58144D01*
Y-54145D01*
X339862D02*
X340861Y-53145D01*
X342861D01*
X343860Y-54145D01*
Y-58144D01*
X342861Y-59144D01*
X340861D01*
X339862Y-58144D01*
Y-54145D01*
X345860D02*
X346859Y-53145D01*
X348859D01*
X349858Y-54145D01*
Y-58144D01*
X348859Y-59144D01*
X346859D01*
X345860Y-58144D01*
Y-54145D01*
X351858Y-59144D02*
Y-55145D01*
X352857D01*
X353857Y-56144D01*
Y-59144D01*
Y-56144D01*
X354857Y-55145D01*
X355856Y-56144D01*
Y-59144D01*
X357856D02*
Y-55145D01*
X358856D01*
X359855Y-56144D01*
Y-59144D01*
Y-56144D01*
X360855Y-55145D01*
X361855Y-56144D01*
Y-59144D01*
X371851D02*
X369852Y-57144D01*
Y-55145D01*
X371851Y-53145D01*
X374850Y-59144D02*
X376850D01*
X375850D01*
Y-53145D01*
X374850Y-54145D01*
X379849Y-59144D02*
X381848D01*
X380848D01*
Y-53145D01*
X379849Y-54145D01*
X384847D02*
X385847Y-53145D01*
X387846D01*
X388846Y-54145D01*
Y-55145D01*
X387846Y-56144D01*
X388846Y-57144D01*
Y-58144D01*
X387846Y-59144D01*
X385847D01*
X384847Y-58144D01*
Y-57144D01*
X385847Y-56144D01*
X384847Y-55145D01*
Y-54145D01*
X385847Y-56144D02*
X387846D01*
X390845Y-59144D02*
Y-58144D01*
X391845D01*
Y-59144D01*
X390845D01*
X395844D02*
X397843D01*
X396843D01*
Y-53145D01*
X395844Y-54145D01*
X400842Y-59144D02*
X402841D01*
X401842D01*
Y-53145D01*
X400842Y-54145D01*
X405840Y-59144D02*
Y-55145D01*
X406840D01*
X407840Y-56144D01*
Y-59144D01*
Y-56144D01*
X408839Y-55145D01*
X409839Y-56144D01*
Y-59144D01*
X411838D02*
X413838D01*
X412838D01*
Y-55145D01*
X411838D01*
X416837Y-59144D02*
X418836D01*
X417836D01*
Y-53145D01*
X416837D01*
X421835Y-59144D02*
X423835Y-57144D01*
Y-55145D01*
X421835Y-53145D01*
X268881Y-68146D02*
X272880D01*
Y-69145D01*
X268881Y-73144D01*
Y-74144D01*
X278878Y-68146D02*
X274879D01*
Y-71144D01*
X276878Y-70145D01*
X277878D01*
X278878Y-71144D01*
Y-73144D01*
X277878Y-74144D01*
X275879D01*
X274879Y-73144D01*
X286875Y-68146D02*
X290874D01*
X288875D01*
Y-74144D01*
X293873D02*
X295872D01*
X296872Y-73144D01*
Y-71144D01*
X295872Y-70145D01*
X293873D01*
X292873Y-71144D01*
Y-73144D01*
X293873Y-74144D01*
X299871Y-69145D02*
Y-70145D01*
X298871D01*
X300871D01*
X299871D01*
Y-73144D01*
X300871Y-74144D01*
X304869Y-70145D02*
X306869D01*
X307869Y-71144D01*
Y-74144D01*
X304869D01*
X303870Y-73144D01*
X304869Y-72144D01*
X307869D01*
X309868Y-74144D02*
X311867D01*
X310868D01*
Y-68146D01*
X309868D01*
X268881Y20855D02*
X269881Y21855D01*
X271880D01*
X272880Y20855D01*
Y19855D01*
X271880Y18856D01*
X270880D01*
X271880D01*
X272880Y17856D01*
Y16856D01*
X271880Y15856D01*
X269881D01*
X268881Y16856D01*
X277878Y15856D02*
Y21855D01*
X274879Y18856D01*
X278878D01*
X272880Y6854D02*
X270880Y5855D01*
X268881Y3855D01*
Y1856D01*
X269881Y856D01*
X271880D01*
X272880Y1856D01*
Y2856D01*
X271880Y3855D01*
X268881D01*
X272880Y-14144D02*
X268881D01*
X272880Y-10145D01*
Y-9145D01*
X271880Y-8145D01*
X269881D01*
X268881Y-9145D01*
X271880Y-29144D02*
Y-23145D01*
X268881Y-26144D01*
X272880D01*
Y-44144D02*
X268881D01*
X272880Y-40145D01*
Y-39145D01*
X271880Y-38146D01*
X269881D01*
X268881Y-39145D01*
X278878Y-38146D02*
X274879D01*
Y-41144D01*
X276878Y-40145D01*
X277878D01*
X278878Y-41144D01*
Y-43144D01*
X277878Y-44144D01*
X275879D01*
X274879Y-43144D01*
X271880Y-59144D02*
Y-53145D01*
X268881Y-56144D01*
X272880D01*
X557470Y138998D02*
Y133000D01*
X560469D01*
X561468Y134000D01*
Y134999D01*
X560469Y135999D01*
X557470D01*
X560469D01*
X561468Y136999D01*
Y137998D01*
X560469Y138998D01*
X557470D01*
X564467Y133000D02*
X566467D01*
X567466Y134000D01*
Y135999D01*
X566467Y136999D01*
X564467D01*
X563468Y135999D01*
Y134000D01*
X564467Y133000D01*
X570465Y136999D02*
X572465D01*
X573464Y135999D01*
Y133000D01*
X570465D01*
X569466Y134000D01*
X570465Y134999D01*
X573464D01*
X575464Y136999D02*
Y133000D01*
Y134999D01*
X576464Y135999D01*
X577463Y136999D01*
X578463D01*
X585461Y138998D02*
Y133000D01*
X582462D01*
X581462Y134000D01*
Y135999D01*
X582462Y136999D01*
X585461D01*
X593458Y138998D02*
Y133000D01*
X597457D01*
X600456Y136999D02*
X602455D01*
X603455Y135999D01*
Y133000D01*
X600456D01*
X599456Y134000D01*
X600456Y134999D01*
X603455D01*
X605454Y136999D02*
Y134000D01*
X606454Y133000D01*
X609453D01*
Y132000D01*
X608453Y131001D01*
X607453D01*
X609453Y133000D02*
Y136999D01*
X614451Y133000D02*
X612452D01*
X611452Y134000D01*
Y135999D01*
X612452Y136999D01*
X614451D01*
X615451Y135999D01*
Y134999D01*
X611452D01*
X617450Y136999D02*
Y133000D01*
Y134999D01*
X618450Y135999D01*
X619450Y136999D01*
X620449D01*
X633445Y137998D02*
X632445Y138998D01*
X630446D01*
X629446Y137998D01*
Y136999D01*
X630446Y135999D01*
X632445D01*
X633445Y134999D01*
Y134000D01*
X632445Y133000D01*
X630446D01*
X629446Y134000D01*
X636444Y137998D02*
Y136999D01*
X635444D01*
X637444D01*
X636444D01*
Y134000D01*
X637444Y133000D01*
X641442Y136999D02*
X643442D01*
X644442Y135999D01*
Y133000D01*
X641442D01*
X640443Y134000D01*
X641442Y134999D01*
X644442D01*
X650440Y136999D02*
X647440D01*
X646441Y135999D01*
Y134000D01*
X647440Y133000D01*
X650440D01*
X652439D02*
Y138998D01*
Y134999D02*
X655438Y136999D01*
X652439Y134999D02*
X655438Y133000D01*
X500484Y113998D02*
X501483Y114998D01*
X503482D01*
X504482Y113998D01*
Y112999D01*
X503482Y111999D01*
X502483D01*
X503482D01*
X504482Y110999D01*
Y110000D01*
X503482Y109000D01*
X501483D01*
X500484Y110000D01*
X506482Y109000D02*
Y110000D01*
X507481D01*
Y109000D01*
X506482D01*
X515479Y114998D02*
X511480D01*
Y111999D01*
X513479Y112999D01*
X514479D01*
X515479Y111999D01*
Y110000D01*
X514479Y109000D01*
X512480D01*
X511480Y110000D01*
X503482Y85000D02*
Y90998D01*
X500484Y87999D01*
X504482D01*
X506482Y85000D02*
Y86000D01*
X507481D01*
Y85000D01*
X506482D01*
X511480Y89998D02*
X512480Y90998D01*
X514479D01*
X515479Y89998D01*
Y88999D01*
X514479Y87999D01*
X515479Y86999D01*
Y86000D01*
X514479Y85000D01*
X512480D01*
X511480Y86000D01*
Y86999D01*
X512480Y87999D01*
X511480Y88999D01*
Y89998D01*
X512480Y87999D02*
X514479D01*
X500484Y65998D02*
X501483Y66998D01*
X503482D01*
X504482Y65998D01*
Y64999D01*
X503482Y63999D01*
X502483D01*
X503482D01*
X504482Y62999D01*
Y62000D01*
X503482Y61000D01*
X501483D01*
X500484Y62000D01*
X506482Y61000D02*
Y62000D01*
X507481D01*
Y61000D01*
X506482D01*
X515479Y66998D02*
X511480D01*
Y63999D01*
X513479Y64999D01*
X514479D01*
X515479Y63999D01*
Y62000D01*
X514479Y61000D01*
X512480D01*
X511480Y62000D01*
X504482Y137998D02*
X503482Y138998D01*
X501483D01*
X500484Y137998D01*
Y134000D01*
X501483Y133000D01*
X503482D01*
X504482Y134000D01*
X507481Y133000D02*
X509481D01*
X510480Y134000D01*
Y135999D01*
X509481Y136999D01*
X507481D01*
X506482Y135999D01*
Y134000D01*
X507481Y133000D01*
X512480D02*
Y136999D01*
X515479D01*
X516478Y135999D01*
Y133000D01*
X518478D02*
X521477D01*
X522476Y134000D01*
X521477Y134999D01*
X519477D01*
X518478Y135999D01*
X519477Y136999D01*
X522476D01*
X525475Y137998D02*
Y136999D01*
X524476D01*
X526475D01*
X525475D01*
Y134000D01*
X526475Y133000D01*
X530474Y136999D02*
X532473D01*
X533473Y135999D01*
Y133000D01*
X530474D01*
X529474Y134000D01*
X530474Y134999D01*
X533473D01*
X535472Y133000D02*
Y136999D01*
X538471D01*
X539471Y135999D01*
Y133000D01*
X542470Y137998D02*
Y136999D01*
X541470D01*
X543470D01*
X542470D01*
Y134000D01*
X543470Y133000D01*
X435500Y113998D02*
X436500Y114998D01*
X438499D01*
X439499Y113998D01*
Y110000D01*
X438499Y109000D01*
X436500D01*
X435500Y110000D01*
Y113998D01*
X441498Y109000D02*
Y110000D01*
X442498D01*
Y109000D01*
X441498D01*
X446496Y113998D02*
X447496Y114998D01*
X449496D01*
X450495Y113998D01*
Y110000D01*
X449496Y109000D01*
X447496D01*
X446496Y110000D01*
Y113998D01*
X452494Y109000D02*
X454494D01*
X453494D01*
Y114998D01*
X452494Y113998D01*
X457493D02*
X458493Y114998D01*
X460492D01*
X461492Y113998D01*
Y110000D01*
X460492Y109000D01*
X458493D01*
X457493Y110000D01*
Y113998D01*
X463491Y109000D02*
Y112999D01*
X464491D01*
X465490Y111999D01*
Y109000D01*
Y111999D01*
X466490Y112999D01*
X467490Y111999D01*
Y109000D01*
X469489D02*
Y112999D01*
X470489D01*
X471488Y111999D01*
Y109000D01*
Y111999D01*
X472488Y112999D01*
X473488Y111999D01*
Y109000D01*
X435500Y101998D02*
X436500Y102998D01*
X438499D01*
X439499Y101998D01*
Y98000D01*
X438499Y97000D01*
X436500D01*
X435500Y98000D01*
Y101998D01*
X441498Y97000D02*
Y98000D01*
X442498D01*
Y97000D01*
X441498D01*
X446496Y101998D02*
X447496Y102998D01*
X449496D01*
X450495Y101998D01*
Y98000D01*
X449496Y97000D01*
X447496D01*
X446496Y98000D01*
Y101998D01*
X452494D02*
X453494Y102998D01*
X455493D01*
X456493Y101998D01*
Y100999D01*
X455493Y99999D01*
X454494D01*
X455493D01*
X456493Y98999D01*
Y98000D01*
X455493Y97000D01*
X453494D01*
X452494Y98000D01*
X462491Y102998D02*
X460492Y101998D01*
X458493Y99999D01*
Y98000D01*
X459492Y97000D01*
X461492D01*
X462491Y98000D01*
Y98999D01*
X461492Y99999D01*
X458493D01*
X464491Y97000D02*
Y100999D01*
X465490D01*
X466490Y99999D01*
Y97000D01*
Y99999D01*
X467490Y100999D01*
X468489Y99999D01*
Y97000D01*
X470489D02*
Y100999D01*
X471488D01*
X472488Y99999D01*
Y97000D01*
Y99999D01*
X473488Y100999D01*
X474487Y99999D01*
Y97000D01*
X435500Y89998D02*
X436500Y90998D01*
X438499D01*
X439499Y89998D01*
Y86000D01*
X438499Y85000D01*
X436500D01*
X435500Y86000D01*
Y89998D01*
X441498Y85000D02*
Y86000D01*
X442498D01*
Y85000D01*
X441498D01*
X446496Y89998D02*
X447496Y90998D01*
X449496D01*
X450495Y89998D01*
Y88999D01*
X449496Y87999D01*
X448496D01*
X449496D01*
X450495Y86999D01*
Y86000D01*
X449496Y85000D01*
X447496D01*
X446496Y86000D01*
X456493Y85000D02*
X452494D01*
X456493Y88999D01*
Y89998D01*
X455493Y90998D01*
X453494D01*
X452494Y89998D01*
X458493D02*
X459492Y90998D01*
X461492D01*
X462491Y89998D01*
Y86000D01*
X461492Y85000D01*
X459492D01*
X458493Y86000D01*
Y89998D01*
X464491Y85000D02*
Y88999D01*
X465490D01*
X466490Y87999D01*
Y85000D01*
Y87999D01*
X467490Y88999D01*
X468489Y87999D01*
Y85000D01*
X470489D02*
Y88999D01*
X471488D01*
X472488Y87999D01*
Y85000D01*
Y87999D01*
X473488Y88999D01*
X474487Y87999D01*
Y85000D01*
X435500Y77998D02*
X436500Y78998D01*
X438499D01*
X439499Y77998D01*
Y74000D01*
X438499Y73000D01*
X436500D01*
X435500Y74000D01*
Y77998D01*
X441498Y73000D02*
Y74000D01*
X442498D01*
Y73000D01*
X441498D01*
X446496Y77998D02*
X447496Y78998D01*
X449496D01*
X450495Y77998D01*
Y74000D01*
X449496Y73000D01*
X447496D01*
X446496Y74000D01*
Y77998D01*
X452494D02*
X453494Y78998D01*
X455493D01*
X456493Y77998D01*
Y76999D01*
X455493Y75999D01*
X454494D01*
X455493D01*
X456493Y74999D01*
Y74000D01*
X455493Y73000D01*
X453494D01*
X452494Y74000D01*
X462491Y78998D02*
X460492Y77998D01*
X458493Y75999D01*
Y74000D01*
X459492Y73000D01*
X461492D01*
X462491Y74000D01*
Y74999D01*
X461492Y75999D01*
X458493D01*
X464491Y73000D02*
Y76999D01*
X465490D01*
X466490Y75999D01*
Y73000D01*
Y75999D01*
X467490Y76999D01*
X468489Y75999D01*
Y73000D01*
X470489D02*
Y76999D01*
X471488D01*
X472488Y75999D01*
Y73000D01*
Y75999D01*
X473488Y76999D01*
X474487Y75999D01*
Y73000D01*
X435500Y65998D02*
X436500Y66998D01*
X438499D01*
X439499Y65998D01*
Y62000D01*
X438499Y61000D01*
X436500D01*
X435500Y62000D01*
Y65998D01*
X441498Y61000D02*
Y62000D01*
X442498D01*
Y61000D01*
X441498D01*
X446496Y65998D02*
X447496Y66998D01*
X449496D01*
X450495Y65998D01*
Y62000D01*
X449496Y61000D01*
X447496D01*
X446496Y62000D01*
Y65998D01*
X452494Y61000D02*
X454494D01*
X453494D01*
Y66998D01*
X452494Y65998D01*
X457493D02*
X458493Y66998D01*
X460492D01*
X461492Y65998D01*
Y62000D01*
X460492Y61000D01*
X458493D01*
X457493Y62000D01*
Y65998D01*
X463491Y61000D02*
Y64999D01*
X464491D01*
X465490Y63999D01*
Y61000D01*
Y63999D01*
X466490Y64999D01*
X467490Y63999D01*
Y61000D01*
X469489D02*
Y64999D01*
X470489D01*
X471488Y63999D01*
Y61000D01*
Y63999D01*
X472488Y64999D01*
X473488Y63999D01*
Y61000D01*
X435500Y138998D02*
X439499D01*
X437499D01*
Y133000D01*
X441498Y138998D02*
Y133000D01*
Y135999D01*
X442498Y136999D01*
X444497D01*
X445497Y135999D01*
Y133000D01*
X447496D02*
X449496D01*
X448496D01*
Y136999D01*
X447496D01*
X456493D02*
X453494D01*
X452494Y135999D01*
Y134000D01*
X453494Y133000D01*
X456493D01*
X458493D02*
Y138998D01*
Y134999D02*
X461492Y136999D01*
X458493Y134999D02*
X461492Y133000D01*
X464491D02*
Y136999D01*
X467490D01*
X468489Y135999D01*
Y133000D01*
X473488D02*
X471488D01*
X470489Y134000D01*
Y135999D01*
X471488Y136999D01*
X473488D01*
X474487Y135999D01*
Y134999D01*
X470489D01*
X476487Y133000D02*
X479486D01*
X480485Y134000D01*
X479486Y134999D01*
X477486D01*
X476487Y135999D01*
X477486Y136999D01*
X480485D01*
X482485Y133000D02*
X485484D01*
X486483Y134000D01*
X485484Y134999D01*
X483485D01*
X482485Y135999D01*
X483485Y136999D01*
X486483D01*
X353522Y113998D02*
X352522Y114998D01*
X350523D01*
X349523Y113998D01*
Y112999D01*
X350523Y111999D01*
X352522D01*
X353522Y110999D01*
Y110000D01*
X352522Y109000D01*
X350523D01*
X349523Y110000D01*
X356521Y109000D02*
X358520D01*
X359520Y110000D01*
Y111999D01*
X358520Y112999D01*
X356521D01*
X355521Y111999D01*
Y110000D01*
X356521Y109000D01*
X361519D02*
X363519D01*
X362519D01*
Y114998D01*
X361519D01*
X370516D02*
Y109000D01*
X367517D01*
X366518Y110000D01*
Y111999D01*
X367517Y112999D01*
X370516D01*
X375515Y109000D02*
X373516D01*
X372516Y110000D01*
Y111999D01*
X373516Y112999D01*
X375515D01*
X376515Y111999D01*
Y110999D01*
X372516D01*
X378514Y112999D02*
Y109000D01*
Y110999D01*
X379514Y111999D01*
X380513Y112999D01*
X381513D01*
X390510Y109000D02*
Y114998D01*
X393509D01*
X394509Y113998D01*
Y111999D01*
X393509Y110999D01*
X390510D01*
X392509D02*
X394509Y109000D01*
X399507D02*
X397508D01*
X396508Y110000D01*
Y111999D01*
X397508Y112999D01*
X399507D01*
X400507Y111999D01*
Y110999D01*
X396508D01*
X402506Y109000D02*
X405505D01*
X406505Y110000D01*
X405505Y110999D01*
X403506D01*
X402506Y111999D01*
X403506Y112999D01*
X406505D01*
X408504Y109000D02*
X410504D01*
X409504D01*
Y112999D01*
X408504D01*
X413503Y109000D02*
X416502D01*
X417501Y110000D01*
X416502Y110999D01*
X414502D01*
X413503Y111999D01*
X414502Y112999D01*
X417501D01*
X420500Y113998D02*
Y112999D01*
X419501D01*
X421500D01*
X420500D01*
Y110000D01*
X421500Y109000D01*
X353522Y90998D02*
X349523D01*
Y87999D01*
X351523D01*
X349523D01*
Y85000D01*
X355521D02*
Y90998D01*
X358520D01*
X359520Y89998D01*
Y87999D01*
X358520Y86999D01*
X355521D01*
X357521D02*
X359520Y85000D01*
X361519Y87999D02*
X365518D01*
X370516Y85000D02*
Y90998D01*
X367517Y87999D01*
X371516D01*
X353522Y65998D02*
X352522Y66998D01*
X350523D01*
X349523Y65998D01*
Y64999D01*
X350523Y63999D01*
X352522D01*
X353522Y62999D01*
Y62000D01*
X352522Y61000D01*
X350523D01*
X349523Y62000D01*
X356521Y61000D02*
X358520D01*
X359520Y62000D01*
Y63999D01*
X358520Y64999D01*
X356521D01*
X355521Y63999D01*
Y62000D01*
X356521Y61000D01*
X361519D02*
X363519D01*
X362519D01*
Y66998D01*
X361519D01*
X370516D02*
Y61000D01*
X367517D01*
X366518Y62000D01*
Y63999D01*
X367517Y64999D01*
X370516D01*
X375515Y61000D02*
X373516D01*
X372516Y62000D01*
Y63999D01*
X373516Y64999D01*
X375515D01*
X376515Y63999D01*
Y62999D01*
X372516D01*
X378514Y64999D02*
Y61000D01*
Y62999D01*
X379514Y63999D01*
X380513Y64999D01*
X381513D01*
X390510Y61000D02*
Y66998D01*
X393509D01*
X394509Y65998D01*
Y63999D01*
X393509Y62999D01*
X390510D01*
X392509D02*
X394509Y61000D01*
X399507D02*
X397508D01*
X396508Y62000D01*
Y63999D01*
X397508Y64999D01*
X399507D01*
X400507Y63999D01*
Y62999D01*
X396508D01*
X402506Y61000D02*
X405505D01*
X406505Y62000D01*
X405505Y62999D01*
X403506D01*
X402506Y63999D01*
X403506Y64999D01*
X406505D01*
X408504Y61000D02*
X410504D01*
X409504D01*
Y64999D01*
X408504D01*
X413503Y61000D02*
X416502D01*
X417501Y62000D01*
X416502Y62999D01*
X414502D01*
X413503Y63999D01*
X414502Y64999D01*
X417501D01*
X420500Y65998D02*
Y64999D01*
X419501D01*
X421500D01*
X420500D01*
Y62000D01*
X421500Y61000D01*
X349523Y133000D02*
Y138998D01*
X351523Y136999D01*
X353522Y138998D01*
Y133000D01*
X356521Y136999D02*
X358520D01*
X359520Y135999D01*
Y133000D01*
X356521D01*
X355521Y134000D01*
X356521Y134999D01*
X359520D01*
X362519Y137998D02*
Y136999D01*
X361519D01*
X363519D01*
X362519D01*
Y134000D01*
X363519Y133000D01*
X369517D02*
X367517D01*
X366518Y134000D01*
Y135999D01*
X367517Y136999D01*
X369517D01*
X370516Y135999D01*
Y134999D01*
X366518D01*
X372516Y136999D02*
Y133000D01*
Y134999D01*
X373516Y135999D01*
X374515Y136999D01*
X375515D01*
X378514Y133000D02*
X380513D01*
X379514D01*
Y136999D01*
X378514D01*
X384512D02*
X386511D01*
X387511Y135999D01*
Y133000D01*
X384512D01*
X383512Y134000D01*
X384512Y134999D01*
X387511D01*
X389510Y133000D02*
X391510D01*
X390510D01*
Y138998D01*
X389510D01*
X256549Y126998D02*
X260548D01*
X258548D01*
Y121000D01*
X263547D02*
X265546D01*
X266546Y122000D01*
Y123999D01*
X265546Y124999D01*
X263547D01*
X262547Y123999D01*
Y122000D01*
X263547Y121000D01*
X268545Y119001D02*
Y124999D01*
X271544D01*
X272544Y123999D01*
Y122000D01*
X271544Y121000D01*
X268545D01*
X283540Y126998D02*
X281541D01*
X280541Y125998D01*
Y122000D01*
X281541Y121000D01*
X283540D01*
X284540Y122000D01*
Y125998D01*
X283540Y126998D01*
X286539Y124999D02*
X288539Y121000D01*
X290538Y124999D01*
X295536Y121000D02*
X293537D01*
X292537Y122000D01*
Y123999D01*
X293537Y124999D01*
X295536D01*
X296536Y123999D01*
Y122999D01*
X292537D01*
X298535Y124999D02*
Y121000D01*
Y122999D01*
X299535Y123999D01*
X300535Y124999D01*
X301534D01*
X304533Y121000D02*
X306533D01*
X305533D01*
Y126998D01*
X304533D01*
X310531Y124999D02*
X312531D01*
X313530Y123999D01*
Y121000D01*
X310531D01*
X309532Y122000D01*
X310531Y122999D01*
X313530D01*
X315530Y124999D02*
Y122000D01*
X316529Y121000D01*
X319529D01*
Y120000D01*
X318529Y119001D01*
X317529D01*
X319529Y121000D02*
Y124999D01*
X256549Y114998D02*
X260548D01*
X258548D01*
Y109000D01*
X263547D02*
X265546D01*
X266546Y110000D01*
Y111999D01*
X265546Y112999D01*
X263547D01*
X262547Y111999D01*
Y110000D01*
X263547Y109000D01*
X268545Y107001D02*
Y112999D01*
X271544D01*
X272544Y111999D01*
Y110000D01*
X271544Y109000D01*
X268545D01*
X284540Y113998D02*
X283540Y114998D01*
X281541D01*
X280541Y113998D01*
Y112999D01*
X281541Y111999D01*
X283540D01*
X284540Y110999D01*
Y110000D01*
X283540Y109000D01*
X281541D01*
X280541Y110000D01*
X287539Y109000D02*
X289538D01*
X290538Y110000D01*
Y111999D01*
X289538Y112999D01*
X287539D01*
X286539Y111999D01*
Y110000D01*
X287539Y109000D01*
X292537D02*
X294536D01*
X293537D01*
Y114998D01*
X292537D01*
X301534D02*
Y109000D01*
X298535D01*
X297536Y110000D01*
Y111999D01*
X298535Y112999D01*
X301534D01*
X306533Y109000D02*
X304533D01*
X303534Y110000D01*
Y111999D01*
X304533Y112999D01*
X306533D01*
X307532Y111999D01*
Y110999D01*
X303534D01*
X309532Y112999D02*
Y109000D01*
Y110999D01*
X310531Y111999D01*
X311531Y112999D01*
X312531D01*
X256549Y102998D02*
X260548D01*
X258548D01*
Y97000D01*
X263547D02*
X265546D01*
X266546Y98000D01*
Y99999D01*
X265546Y100999D01*
X263547D01*
X262547Y99999D01*
Y98000D01*
X263547Y97000D01*
X268545Y95001D02*
Y100999D01*
X271544D01*
X272544Y99999D01*
Y98000D01*
X271544Y97000D01*
X268545D01*
X280541Y102998D02*
Y97000D01*
X284540D01*
X287539Y100999D02*
X289538D01*
X290538Y99999D01*
Y97000D01*
X287539D01*
X286539Y98000D01*
X287539Y98999D01*
X290538D01*
X292537Y100999D02*
Y98000D01*
X293537Y97000D01*
X296536D01*
Y96000D01*
X295536Y95001D01*
X294536D01*
X296536Y97000D02*
Y100999D01*
X301534Y97000D02*
X299535D01*
X298535Y98000D01*
Y99999D01*
X299535Y100999D01*
X301534D01*
X302534Y99999D01*
Y98999D01*
X298535D01*
X304533Y100999D02*
Y97000D01*
Y98999D01*
X305533Y99999D01*
X306533Y100999D01*
X307532D01*
X256549Y90998D02*
Y85000D01*
X259548D01*
X260548Y86000D01*
Y89998D01*
X259548Y90998D01*
X256549D01*
X262547Y85000D02*
X264546D01*
X263547D01*
Y88999D01*
X262547D01*
X270544Y85000D02*
X268545D01*
X267545Y86000D01*
Y87999D01*
X268545Y88999D01*
X270544D01*
X271544Y87999D01*
Y86999D01*
X267545D01*
X273543Y85000D02*
X275543D01*
X274543D01*
Y90998D01*
X273543D01*
X281541Y85000D02*
X279541D01*
X278542Y86000D01*
Y87999D01*
X279541Y88999D01*
X281541D01*
X282540Y87999D01*
Y86999D01*
X278542D01*
X288539Y88999D02*
X285540D01*
X284540Y87999D01*
Y86000D01*
X285540Y85000D01*
X288539D01*
X291537Y89998D02*
Y88999D01*
X290538D01*
X292537D01*
X291537D01*
Y86000D01*
X292537Y85000D01*
X295536Y88999D02*
Y85000D01*
Y86999D01*
X296536Y87999D01*
X297536Y88999D01*
X298535D01*
X301534Y85000D02*
X303534D01*
X302534D01*
Y88999D01*
X301534D01*
X310531D02*
X307532D01*
X306533Y87999D01*
Y86000D01*
X307532Y85000D01*
X310531D01*
X318529D02*
X320528D01*
X319529D01*
Y90998D01*
X318529Y89998D01*
X256549Y78998D02*
Y73000D01*
X259548D01*
X260548Y74000D01*
Y74999D01*
X259548Y75999D01*
X256549D01*
X259548D01*
X260548Y76999D01*
Y77998D01*
X259548Y78998D01*
X256549D01*
X263547Y73000D02*
X265546D01*
X266546Y74000D01*
Y75999D01*
X265546Y76999D01*
X263547D01*
X262547Y75999D01*
Y74000D01*
X263547Y73000D01*
X269545Y77998D02*
Y76999D01*
X268545D01*
X270544D01*
X269545D01*
Y74000D01*
X270544Y73000D01*
X274543Y77998D02*
Y76999D01*
X273543D01*
X275543D01*
X274543D01*
Y74000D01*
X275543Y73000D01*
X279541D02*
X281541D01*
X282540Y74000D01*
Y75999D01*
X281541Y76999D01*
X279541D01*
X278542Y75999D01*
Y74000D01*
X279541Y73000D01*
X284540D02*
Y76999D01*
X285540D01*
X286539Y75999D01*
Y73000D01*
Y75999D01*
X287539Y76999D01*
X288539Y75999D01*
Y73000D01*
X296536Y78998D02*
Y73000D01*
X300535D01*
X303534Y76999D02*
X305533D01*
X306533Y75999D01*
Y73000D01*
X303534D01*
X302534Y74000D01*
X303534Y74999D01*
X306533D01*
X308532Y76999D02*
Y74000D01*
X309532Y73000D01*
X312531D01*
Y72000D01*
X311531Y71001D01*
X310531D01*
X312531Y73000D02*
Y76999D01*
X317529Y73000D02*
X315530D01*
X314530Y74000D01*
Y75999D01*
X315530Y76999D01*
X317529D01*
X318529Y75999D01*
Y74999D01*
X314530D01*
X320528Y76999D02*
Y73000D01*
Y74999D01*
X321528Y75999D01*
X322528Y76999D01*
X323527D01*
X256549Y66998D02*
Y61000D01*
X259548D01*
X260548Y62000D01*
Y62999D01*
X259548Y63999D01*
X256549D01*
X259548D01*
X260548Y64999D01*
Y65998D01*
X259548Y66998D01*
X256549D01*
X263547Y61000D02*
X265546D01*
X266546Y62000D01*
Y63999D01*
X265546Y64999D01*
X263547D01*
X262547Y63999D01*
Y62000D01*
X263547Y61000D01*
X269545Y65998D02*
Y64999D01*
X268545D01*
X270544D01*
X269545D01*
Y62000D01*
X270544Y61000D01*
X274543Y65998D02*
Y64999D01*
X273543D01*
X275543D01*
X274543D01*
Y62000D01*
X275543Y61000D01*
X279541D02*
X281541D01*
X282540Y62000D01*
Y63999D01*
X281541Y64999D01*
X279541D01*
X278542Y63999D01*
Y62000D01*
X279541Y61000D01*
X284540D02*
Y64999D01*
X285540D01*
X286539Y63999D01*
Y61000D01*
Y63999D01*
X287539Y64999D01*
X288539Y63999D01*
Y61000D01*
X300535Y65998D02*
X299535Y66998D01*
X297536D01*
X296536Y65998D01*
Y64999D01*
X297536Y63999D01*
X299535D01*
X300535Y62999D01*
Y62000D01*
X299535Y61000D01*
X297536D01*
X296536Y62000D01*
X303534Y61000D02*
X305533D01*
X306533Y62000D01*
Y63999D01*
X305533Y64999D01*
X303534D01*
X302534Y63999D01*
Y62000D01*
X303534Y61000D01*
X308532D02*
X310531D01*
X309532D01*
Y66998D01*
X308532D01*
X317529D02*
Y61000D01*
X314530D01*
X313530Y62000D01*
Y63999D01*
X314530Y64999D01*
X317529D01*
X322528Y61000D02*
X320528D01*
X319529Y62000D01*
Y63999D01*
X320528Y64999D01*
X322528D01*
X323527Y63999D01*
Y62999D01*
X319529D01*
X325526Y64999D02*
Y61000D01*
Y62999D01*
X326526Y63999D01*
X327526Y64999D01*
X328526D01*
X256549Y54998D02*
Y49000D01*
X259548D01*
X260548Y50000D01*
Y50999D01*
X259548Y51999D01*
X256549D01*
X259548D01*
X260548Y52999D01*
Y53998D01*
X259548Y54998D01*
X256549D01*
X263547Y49000D02*
X265546D01*
X266546Y50000D01*
Y51999D01*
X265546Y52999D01*
X263547D01*
X262547Y51999D01*
Y50000D01*
X263547Y49000D01*
X269545Y53998D02*
Y52999D01*
X268545D01*
X270544D01*
X269545D01*
Y50000D01*
X270544Y49000D01*
X274543Y53998D02*
Y52999D01*
X273543D01*
X275543D01*
X274543D01*
Y50000D01*
X275543Y49000D01*
X279541D02*
X281541D01*
X282540Y50000D01*
Y51999D01*
X281541Y52999D01*
X279541D01*
X278542Y51999D01*
Y50000D01*
X279541Y49000D01*
X284540D02*
Y52999D01*
X285540D01*
X286539Y51999D01*
Y49000D01*
Y51999D01*
X287539Y52999D01*
X288539Y51999D01*
Y49000D01*
X299535Y54998D02*
X297536D01*
X296536Y53998D01*
Y50000D01*
X297536Y49000D01*
X299535D01*
X300535Y50000D01*
Y53998D01*
X299535Y54998D01*
X302534Y52999D02*
X304533Y49000D01*
X306533Y52999D01*
X311531Y49000D02*
X309532D01*
X308532Y50000D01*
Y51999D01*
X309532Y52999D01*
X311531D01*
X312531Y51999D01*
Y50999D01*
X308532D01*
X314530Y52999D02*
Y49000D01*
Y50999D01*
X315530Y51999D01*
X316529Y52999D01*
X317529D01*
X320528Y49000D02*
X322528D01*
X321528D01*
Y54998D01*
X320528D01*
X326526Y52999D02*
X328526D01*
X329525Y51999D01*
Y49000D01*
X326526D01*
X325526Y50000D01*
X326526Y50999D01*
X329525D01*
X331525Y52999D02*
Y50000D01*
X332524Y49000D01*
X335523D01*
Y48000D01*
X334524Y47001D01*
X333524D01*
X335523Y49000D02*
Y52999D01*
X256549Y133000D02*
Y138998D01*
X260548Y133000D01*
Y138998D01*
X263547Y136999D02*
X265546D01*
X266546Y135999D01*
Y133000D01*
X263547D01*
X262547Y134000D01*
X263547Y134999D01*
X266546D01*
X268545Y133000D02*
Y136999D01*
X269545D01*
X270544Y135999D01*
Y133000D01*
Y135999D01*
X271544Y136999D01*
X272544Y135999D01*
Y133000D01*
X277542D02*
X275543D01*
X274543Y134000D01*
Y135999D01*
X275543Y136999D01*
X277542D01*
X278542Y135999D01*
Y134999D01*
X274543D01*
X215558Y97000D02*
X217557D01*
X216557D01*
Y102998D01*
X215558Y101998D01*
X219556Y73000D02*
X215558D01*
X219556Y76999D01*
Y77998D01*
X218557Y78998D01*
X216557D01*
X215558Y77998D01*
Y138998D02*
Y133000D01*
X219556D01*
X222555Y136999D02*
X224555D01*
X225554Y135999D01*
Y133000D01*
X222555D01*
X221556Y134000D01*
X222555Y134999D01*
X225554D01*
X227554Y136999D02*
Y134000D01*
X228553Y133000D01*
X231552D01*
Y132000D01*
X230553Y131001D01*
X229553D01*
X231552Y133000D02*
Y136999D01*
X236551Y133000D02*
X234551D01*
X233552Y134000D01*
Y135999D01*
X234551Y136999D01*
X236551D01*
X237550Y135999D01*
Y134999D01*
X233552D01*
X239550Y136999D02*
Y133000D01*
Y134999D01*
X240549Y135999D01*
X241549Y136999D01*
X242549D01*
D14*
X115101Y-7260D02*
Y-11259D01*
X118100D01*
X117100Y-9260D01*
Y-8260D01*
X118100Y-7260D01*
X120099D01*
X121099Y-8260D01*
Y-10259D01*
X120099Y-11259D01*
X115101Y-1262D02*
Y-5261D01*
X118100D01*
X117100Y-3262D01*
Y-2262D01*
X118100Y-1262D01*
X120099D01*
X121099Y-2262D01*
Y-4261D01*
X120099Y-5261D01*
X121099Y737D02*
X120099D01*
Y1737D01*
X121099D01*
Y737D01*
X115101Y9734D02*
Y5736D01*
X118100D01*
X117100Y7735D01*
Y8734D01*
X118100Y9734D01*
X120099D01*
X121099Y8734D01*
Y6735D01*
X120099Y5736D01*
X121099Y14733D02*
X115101D01*
X118100Y11733D01*
Y15732D01*
X-12097Y-116599D02*
Y-110601D01*
X-15096Y-113600D01*
X-11097D01*
X-9098Y-111601D02*
X-8098Y-110601D01*
X-6099D01*
X-5099Y-111601D01*
Y-112600D01*
X-6099Y-113600D01*
X-5099Y-114600D01*
Y-115599D01*
X-6099Y-116599D01*
X-8098D01*
X-9098Y-115599D01*
Y-114600D01*
X-8098Y-113600D01*
X-9098Y-112600D01*
Y-111601D01*
X-8098Y-113600D02*
X-6099D01*
X-3100Y-116599D02*
Y-115599D01*
X-2100D01*
Y-116599D01*
X-3100D01*
X4898D02*
Y-110601D01*
X1899Y-113600D01*
X5898D01*
X7897Y-111601D02*
X8897Y-110601D01*
X10896D01*
X11896Y-111601D01*
Y-115599D01*
X10896Y-116599D01*
X8897D01*
X7897Y-115599D01*
Y-111601D01*
D83*
X-8000Y-14000D02*
G03*
X-8000Y-14000I-1000J0D01*
G01*
Y-34000D02*
G03*
X-8000Y-34000I-1000J0D01*
G01*
X-19400Y-47100D02*
Y-46600D01*
X-18900Y-46100D01*
X-19400Y-45600D02*
X-18900Y-46100D01*
X-19400Y-45600D02*
Y-45100D01*
X-18900D01*
X-18400Y-45600D01*
X-17900Y-45100D01*
X-17400D01*
Y-45600D02*
Y-45100D01*
X-17900Y-46100D02*
X-17400Y-45600D01*
X-17900Y-46100D02*
X-17400Y-46600D01*
Y-47100D02*
Y-46600D01*
X-17900Y-47100D02*
X-17400D01*
X-18400Y-46600D02*
X-17900Y-47100D01*
X-18900D02*
X-18400Y-46600D01*
X-19400Y-47100D02*
X-18900D01*
X-14900D02*
Y-46600D01*
X-14400Y-46100D01*
X-14900Y-45600D02*
X-14400Y-46100D01*
X-14900Y-45600D02*
Y-45100D01*
X-14400D01*
X-13900Y-45600D01*
X-13400Y-45100D01*
X-12900D01*
Y-45600D02*
Y-45100D01*
X-13400Y-46100D02*
X-12900Y-45600D01*
X-13400Y-46100D02*
X-12900Y-46600D01*
Y-47100D02*
Y-46600D01*
X-13400Y-47100D02*
X-12900D01*
X-13900Y-46600D02*
X-13400Y-47100D01*
X-14400D02*
X-13900Y-46600D01*
X-14900Y-47100D02*
X-14400D01*
X-10400D02*
Y-46600D01*
X-9900Y-46100D01*
X-10400Y-45600D02*
X-9900Y-46100D01*
X-10400Y-45600D02*
Y-45100D01*
X-9900D01*
X-9400Y-45600D01*
X-8900Y-45100D01*
X-8400D01*
Y-45600D02*
Y-45100D01*
X-8900Y-46100D02*
X-8400Y-45600D01*
X-8900Y-46100D02*
X-8400Y-46600D01*
Y-47100D02*
Y-46600D01*
X-8900Y-47100D02*
X-8400D01*
X-9400Y-46600D02*
X-8900Y-47100D01*
X-9900D02*
X-9400Y-46600D01*
X-10400Y-47100D02*
X-9900D01*
X-4500Y-68000D02*
X-4000D01*
X-4500D02*
Y-67000D01*
X-4000D01*
Y-66500D01*
X-3000D01*
Y-67000D02*
Y-66500D01*
Y-67000D02*
X-2500D01*
Y-68000D02*
Y-67000D01*
X-3000Y-68000D02*
X-2500D01*
X-3000Y-68500D02*
Y-68000D01*
X-4000Y-68500D02*
X-3000D01*
X-4000D02*
Y-68000D01*
X25390Y-24500D02*
X25890D01*
X25390D02*
Y-23500D01*
X25890D01*
Y-23000D01*
X26890D01*
Y-23500D02*
Y-23000D01*
Y-23500D02*
X27390D01*
Y-24500D02*
Y-23500D01*
X26890Y-24500D02*
X27390D01*
X26890Y-25000D02*
Y-24500D01*
X25890Y-25000D02*
X26890D01*
X25890D02*
Y-24500D01*
X25390Y5500D02*
X25890D01*
X25390D02*
Y6500D01*
X25890D01*
Y7000D01*
X26890D01*
Y6500D02*
Y7000D01*
Y6500D02*
X27390D01*
Y5500D02*
Y6500D01*
X26890Y5500D02*
X27390D01*
X26890Y5000D02*
Y5500D01*
X25890Y5000D02*
X26890D01*
X25890D02*
Y5500D01*
X8000Y-71000D02*
X8500D01*
X8000D02*
Y-70000D01*
X8500D01*
Y-69500D01*
X9500D01*
Y-70000D02*
Y-69500D01*
Y-70000D02*
X10000D01*
Y-71000D02*
Y-70000D01*
X9500Y-71000D02*
X10000D01*
X9500Y-71500D02*
Y-71000D01*
X8500Y-71500D02*
X9500D01*
X8500D02*
Y-71000D01*
X-51000Y11000D02*
X-50500D01*
X-51000D02*
Y12000D01*
X-50500D01*
Y12500D01*
X-49500D01*
Y12000D02*
Y12500D01*
Y12000D02*
X-49000D01*
Y11000D02*
Y12000D01*
X-49500Y11000D02*
X-49000D01*
X-49500Y10500D02*
Y11000D01*
X-50500Y10500D02*
X-49500D01*
X-50500D02*
Y11000D01*
X-65500Y82000D02*
X-65000D01*
X-65500D02*
Y83000D01*
X-65000D01*
Y83500D01*
X-64000D01*
Y83000D02*
Y83500D01*
Y83000D02*
X-63500D01*
Y82000D02*
Y83000D01*
X-64000Y82000D02*
X-63500D01*
X-64000Y81500D02*
Y82000D01*
X-65000Y81500D02*
X-64000D01*
X-65000D02*
Y82000D01*
X28850Y-61850D02*
X29350D01*
X28850D02*
Y-60850D01*
X29350D01*
Y-60350D01*
X30350D01*
Y-60850D02*
Y-60350D01*
Y-60850D02*
X30850D01*
Y-61850D02*
Y-60850D01*
X30350Y-61850D02*
X30850D01*
X30350Y-62350D02*
Y-61850D01*
X29350Y-62350D02*
X30350D01*
X29350D02*
Y-61850D01*
X66150Y-76500D02*
X66650D01*
X66150D02*
Y-75500D01*
X66650D01*
Y-75000D01*
X67650D01*
Y-75500D02*
Y-75000D01*
Y-75500D02*
X68150D01*
Y-76500D02*
Y-75500D01*
X67650Y-76500D02*
X68150D01*
X67650Y-77000D02*
Y-76500D01*
X66650Y-77000D02*
X67650D01*
X66650D02*
Y-76500D01*
X37000Y7500D02*
X37500D01*
X37000D02*
Y8500D01*
X37500D01*
Y9000D01*
X38500D01*
Y8500D02*
Y9000D01*
Y8500D02*
X39000D01*
Y7500D02*
Y8500D01*
X38500Y7500D02*
X39000D01*
X38500Y7000D02*
Y7500D01*
X37500Y7000D02*
X38500D01*
X37500D02*
Y7500D01*
X-18500Y-24500D02*
X-18000D01*
X-18500D02*
Y-23500D01*
X-18000D01*
Y-23000D01*
X-17000D01*
Y-23500D02*
Y-23000D01*
Y-23500D02*
X-16500D01*
Y-24500D02*
Y-23500D01*
X-17000Y-24500D02*
X-16500D01*
X-17000Y-25000D02*
Y-24500D01*
X-18000Y-25000D02*
X-17000D01*
X-18000D02*
Y-24500D01*
X-14500D02*
X-14000D01*
X-14500D02*
Y-23500D01*
X-14000D01*
Y-23000D01*
X-13000D01*
Y-23500D02*
Y-23000D01*
Y-23500D02*
X-12500D01*
Y-24500D02*
Y-23500D01*
X-13000Y-24500D02*
X-12500D01*
X-13000Y-25000D02*
Y-24500D01*
X-14000Y-25000D02*
X-13000D01*
X-14000D02*
Y-24500D01*
X-10500D02*
X-10000D01*
X-10500D02*
Y-23500D01*
X-10000D01*
Y-23000D01*
X-9000D01*
Y-23500D02*
Y-23000D01*
Y-23500D02*
X-8500D01*
Y-24500D02*
Y-23500D01*
X-9000Y-24500D02*
X-8500D01*
X-9000Y-25000D02*
Y-24500D01*
X-10000Y-25000D02*
X-9000D01*
X-10000D02*
Y-24500D01*
X-6500D02*
X-6000D01*
X-6500D02*
Y-23500D01*
X-6000D01*
Y-23000D01*
X-5000D01*
Y-23500D02*
Y-23000D01*
Y-23500D02*
X-4500D01*
Y-24500D02*
Y-23500D01*
X-5000Y-24500D02*
X-4500D01*
X-5000Y-25000D02*
Y-24500D01*
X-6000Y-25000D02*
X-5000D01*
X-6000D02*
Y-24500D01*
X-2000D02*
X-1500D01*
X-2000D02*
Y-23500D01*
X-1500D01*
Y-23000D01*
X-500D01*
Y-23500D02*
Y-23000D01*
Y-23500D02*
X0D01*
Y-24500D02*
Y-23500D01*
X-500Y-24500D02*
X0D01*
X-500Y-25000D02*
Y-24500D01*
X-1500Y-25000D02*
X-500D01*
X-1500D02*
Y-24500D01*
X-25500Y-6500D02*
X-25000D01*
X-25500D02*
Y-5500D01*
X-25000D01*
Y-5000D01*
X-24000D01*
Y-5500D02*
Y-5000D01*
Y-5500D02*
X-23500D01*
Y-6500D02*
Y-5500D01*
X-24000Y-6500D02*
X-23500D01*
X-24000Y-7000D02*
Y-6500D01*
X-25000Y-7000D02*
X-24000D01*
X-25000D02*
Y-6500D01*
X-76748Y-20500D02*
X-76248D01*
X-76748D02*
Y-19500D01*
X-76248D01*
Y-19000D01*
X-75248D01*
Y-19500D02*
Y-19000D01*
Y-19500D02*
X-74748D01*
Y-20500D02*
Y-19500D01*
X-75248Y-20500D02*
X-74748D01*
X-75248Y-21000D02*
Y-20500D01*
X-76248Y-21000D02*
X-75248D01*
X-76248D02*
Y-20500D01*
X-76748Y-15500D02*
X-76248D01*
X-76748D02*
Y-14500D01*
X-76248D01*
Y-14000D01*
X-75248D01*
Y-14500D02*
Y-14000D01*
Y-14500D02*
X-74748D01*
Y-15500D02*
Y-14500D01*
X-75248Y-15500D02*
X-74748D01*
X-75248Y-16000D02*
Y-15500D01*
X-76248Y-16000D02*
X-75248D01*
X-76248D02*
Y-15500D01*
X-76748Y-25500D02*
X-76248D01*
X-76748D02*
Y-24500D01*
X-76248D01*
Y-24000D01*
X-75248D01*
Y-24500D02*
Y-24000D01*
Y-24500D02*
X-74748D01*
Y-25500D02*
Y-24500D01*
X-75248Y-25500D02*
X-74748D01*
X-75248Y-26000D02*
Y-25500D01*
X-76248Y-26000D02*
X-75248D01*
X-76248D02*
Y-25500D01*
X-71500D02*
X-71000D01*
X-71500D02*
Y-24500D01*
X-71000D01*
Y-24000D01*
X-70000D01*
Y-24500D02*
Y-24000D01*
Y-24500D02*
X-69500D01*
Y-25500D02*
Y-24500D01*
X-70000Y-25500D02*
X-69500D01*
X-70000Y-26000D02*
Y-25500D01*
X-71000Y-26000D02*
X-70000D01*
X-71000D02*
Y-25500D01*
X-71500Y-20500D02*
X-71000D01*
X-71500D02*
Y-19500D01*
X-71000D01*
Y-19000D01*
X-70000D01*
Y-19500D02*
Y-19000D01*
Y-19500D02*
X-69500D01*
Y-20500D02*
Y-19500D01*
X-70000Y-20500D02*
X-69500D01*
X-70000Y-21000D02*
Y-20500D01*
X-71000Y-21000D02*
X-70000D01*
X-71000D02*
Y-20500D01*
X-71500Y-15500D02*
X-71000D01*
X-71500D02*
Y-14500D01*
X-71000D01*
Y-14000D01*
X-70000D01*
Y-14500D02*
Y-14000D01*
Y-14500D02*
X-69500D01*
Y-15500D02*
Y-14500D01*
X-70000Y-15500D02*
X-69500D01*
X-70000Y-16000D02*
Y-15500D01*
X-71000Y-16000D02*
X-70000D01*
X-71000D02*
Y-15500D01*
X49000Y64500D02*
X49500D01*
X49000D02*
Y65500D01*
X49500D01*
Y66000D01*
X50500D01*
Y65500D02*
Y66000D01*
Y65500D02*
X51000D01*
Y64500D02*
Y65500D01*
X50500Y64500D02*
X51000D01*
X50500Y64000D02*
Y64500D01*
X49500Y64000D02*
X50500D01*
X49500D02*
Y64500D01*
X20000Y72000D02*
X20500D01*
X20000D02*
Y73000D01*
X20500D01*
Y73500D01*
X21500D01*
Y73000D02*
Y73500D01*
Y73000D02*
X22000D01*
Y72000D02*
Y73000D01*
X21500Y72000D02*
X22000D01*
X21500Y71500D02*
Y72000D01*
X20500Y71500D02*
X21500D01*
X20500D02*
Y72000D01*
X35226Y72274D02*
X35726D01*
X35226D02*
Y73274D01*
X35726D01*
Y73774D01*
X36726D01*
Y73274D02*
Y73774D01*
Y73274D02*
X37226D01*
Y72274D02*
Y73274D01*
X36726Y72274D02*
X37226D01*
X36726Y71774D02*
Y72274D01*
X35726Y71774D02*
X36726D01*
X35726D02*
Y72274D01*
X55500Y7500D02*
X56000D01*
X55500D02*
Y8500D01*
X56000D01*
Y9000D01*
X57000D01*
Y8500D02*
Y9000D01*
Y8500D02*
X57500D01*
Y7500D02*
Y8500D01*
X57000Y7500D02*
X57500D01*
X57000Y7000D02*
Y7500D01*
X56000Y7000D02*
X57000D01*
X56000D02*
Y7500D01*
X-85000Y74000D02*
X-84500D01*
X-85000D02*
Y75000D01*
X-84500D01*
Y75500D01*
X-83500D01*
Y75000D02*
Y75500D01*
Y75000D02*
X-83000D01*
Y74000D02*
Y75000D01*
X-83500Y74000D02*
X-83000D01*
X-83500Y73500D02*
Y74000D01*
X-84500Y73500D02*
X-83500D01*
X-84500D02*
Y74000D01*
X-84000Y56000D02*
X-83500D01*
X-84000D02*
Y57000D01*
X-83500D01*
Y57500D01*
X-82500D01*
Y57000D02*
Y57500D01*
Y57000D02*
X-82000D01*
Y56000D02*
Y57000D01*
X-82500Y56000D02*
X-82000D01*
X-82500Y55500D02*
Y56000D01*
X-83500Y55500D02*
X-82500D01*
X-83500D02*
Y56000D01*
X43000Y-43000D02*
X43500D01*
X43000D02*
Y-42000D01*
X43500D01*
Y-41500D01*
X44500D01*
Y-42000D02*
Y-41500D01*
Y-42000D02*
X45000D01*
Y-43000D02*
Y-42000D01*
X44500Y-43000D02*
X45000D01*
X44500Y-43500D02*
Y-43000D01*
X43500Y-43500D02*
X44500D01*
X43500D02*
Y-43000D01*
X16500D02*
X17000D01*
X16500D02*
Y-42000D01*
X17000D01*
Y-41500D01*
X18000D01*
Y-42000D02*
Y-41500D01*
Y-42000D02*
X18500D01*
Y-43000D02*
Y-42000D01*
X18000Y-43000D02*
X18500D01*
X18000Y-43500D02*
Y-43000D01*
X17000Y-43500D02*
X18000D01*
X17000D02*
Y-43000D01*
X-10500Y-53000D02*
Y-52500D01*
X-10000Y-52000D01*
X-10500Y-51500D02*
X-10000Y-52000D01*
X-10500Y-51500D02*
Y-51000D01*
X-10000D01*
X-9500Y-51500D01*
X-9000Y-51000D01*
X-8500D01*
Y-51500D02*
Y-51000D01*
X-9000Y-52000D02*
X-8500Y-51500D01*
X-9000Y-52000D02*
X-8500Y-52500D01*
Y-53000D02*
Y-52500D01*
X-9000Y-53000D02*
X-8500D01*
X-9500Y-52500D02*
X-9000Y-53000D01*
X-10000D02*
X-9500Y-52500D01*
X-10500Y-53000D02*
X-10000D01*
X-15000D02*
Y-52500D01*
X-14500Y-52000D01*
X-15000Y-51500D02*
X-14500Y-52000D01*
X-15000Y-51500D02*
Y-51000D01*
X-14500D01*
X-14000Y-51500D01*
X-13500Y-51000D01*
X-13000D01*
Y-51500D02*
Y-51000D01*
X-13500Y-52000D02*
X-13000Y-51500D01*
X-13500Y-52000D02*
X-13000Y-52500D01*
Y-53000D02*
Y-52500D01*
X-13500Y-53000D02*
X-13000D01*
X-14000Y-52500D02*
X-13500Y-53000D01*
X-14500D02*
X-14000Y-52500D01*
X-15000Y-53000D02*
X-14500D01*
X-19500D02*
Y-52500D01*
X-19000Y-52000D01*
X-19500Y-51500D02*
X-19000Y-52000D01*
X-19500Y-51500D02*
Y-51000D01*
X-19000D01*
X-18500Y-51500D01*
X-18000Y-51000D01*
X-17500D01*
Y-51500D02*
Y-51000D01*
X-18000Y-52000D02*
X-17500Y-51500D01*
X-18000Y-52000D02*
X-17500Y-52500D01*
Y-53000D02*
Y-52500D01*
X-18000Y-53000D02*
X-17500D01*
X-18500Y-52500D02*
X-18000Y-53000D01*
X-19000D02*
X-18500Y-52500D01*
X-19500Y-53000D02*
X-19000D01*
X-3500Y67500D02*
X-3000D01*
X-3500D02*
Y68500D01*
X-3000D01*
Y69000D01*
X-2000D01*
Y68500D02*
Y69000D01*
Y68500D02*
X-1500D01*
Y67500D02*
Y68500D01*
X-2000Y67500D02*
X-1500D01*
X-2000Y67000D02*
Y67500D01*
X-3000Y67000D02*
X-2000D01*
X-3000D02*
Y67500D01*
X-159Y71500D02*
X341D01*
X-159D02*
Y72500D01*
X341D01*
Y73000D01*
X1341D01*
Y72500D02*
Y73000D01*
Y72500D02*
X1841D01*
Y71500D02*
Y72500D01*
X1341Y71500D02*
X1841D01*
X1341Y71000D02*
Y71500D01*
X341Y71000D02*
X1341D01*
X341D02*
Y71500D01*
X4000Y76500D02*
X4500D01*
X4000D02*
Y77500D01*
X4500D01*
Y78000D01*
X5500D01*
Y77500D02*
Y78000D01*
Y77500D02*
X6000D01*
Y76500D02*
Y77500D01*
X5500Y76500D02*
X6000D01*
X5500Y76000D02*
Y76500D01*
X4500Y76000D02*
X5500D01*
X4500D02*
Y76500D01*
X75000Y-23000D02*
X75500D01*
X75000D02*
Y-22000D01*
X75500D01*
Y-21500D01*
X76500D01*
Y-22000D02*
Y-21500D01*
Y-22000D02*
X77000D01*
Y-23000D02*
Y-22000D01*
X76500Y-23000D02*
X77000D01*
X76500Y-23500D02*
Y-23000D01*
X75500Y-23500D02*
X76500D01*
X75500D02*
Y-23000D01*
X68000Y1000D02*
X68500D01*
X68000D02*
Y2000D01*
X68500D01*
Y2500D01*
X69500D01*
Y2000D02*
Y2500D01*
Y2000D02*
X70000D01*
Y1000D02*
Y2000D01*
X69500Y1000D02*
X70000D01*
X69500Y500D02*
Y1000D01*
X68500Y500D02*
X69500D01*
X68500D02*
Y1000D01*
X69000Y40000D02*
X71000D01*
Y42000D01*
X69000D02*
X71000D01*
X69000Y40000D02*
Y42000D01*
Y50000D02*
X71000D01*
Y52000D01*
X69000D02*
X71000D01*
X69000Y50000D02*
Y52000D01*
Y60000D02*
X71000D01*
Y62000D01*
X69000D02*
X71000D01*
X69000Y60000D02*
Y62000D01*
Y70000D02*
X71000D01*
Y72000D01*
X69000D02*
X71000D01*
X69000Y70000D02*
Y72000D01*
X-37000Y-71000D02*
X-36000Y-69000D01*
X-38000D02*
X-36000D01*
X-38000D02*
X-37000Y-71000D01*
X-47000D02*
X-46000Y-69000D01*
X-48000D02*
X-46000D01*
X-48000D02*
X-47000Y-71000D01*
X81500Y40000D02*
X83500D01*
Y42000D01*
X81500D02*
X83500D01*
X81500Y40000D02*
Y42000D01*
Y50000D02*
X83500D01*
Y52000D01*
X81500D02*
X83500D01*
X81500Y50000D02*
Y52000D01*
Y60000D02*
X83500D01*
Y62000D01*
X81500D02*
X83500D01*
X81500Y60000D02*
Y62000D01*
Y70000D02*
X83500D01*
Y72000D01*
X81500D02*
X83500D01*
X81500Y70000D02*
Y72000D01*
X30500Y-95500D02*
X32500D01*
Y-93500D01*
X30500D02*
X32500D01*
X30500Y-95500D02*
Y-93500D01*
X40500Y-95500D02*
X42500D01*
Y-93500D01*
X40500D02*
X42500D01*
X40500Y-95500D02*
Y-93500D01*
X50500Y-95500D02*
X52500D01*
Y-93500D01*
X50500D02*
X52500D01*
X50500Y-95500D02*
Y-93500D01*
X60500Y-95500D02*
X62500D01*
Y-93500D01*
X60500D02*
X62500D01*
X60500Y-95500D02*
Y-93500D01*
X-62500Y-95500D02*
X-60500D01*
Y-93500D01*
X-62500D02*
X-60500D01*
X-62500Y-95500D02*
Y-93500D01*
X-52500Y-95500D02*
X-50500D01*
Y-93500D01*
X-52500D02*
X-50500D01*
X-52500Y-95500D02*
Y-93500D01*
X-36500Y-95500D02*
X-34500D01*
Y-93500D01*
X-36500D02*
X-34500D01*
X-36500Y-95500D02*
Y-93500D01*
X-26500Y-95500D02*
X-24500D01*
Y-93500D01*
X-26500D02*
X-24500D01*
X-26500Y-95500D02*
Y-93500D01*
X81500Y7000D02*
X83500D01*
Y9000D01*
X81500D02*
X83500D01*
X81500Y7000D02*
Y9000D01*
Y17000D02*
X83500D01*
Y19000D01*
X81500D02*
X83500D01*
X81500Y17000D02*
Y19000D01*
Y27000D02*
X83500D01*
Y29000D01*
X81500D02*
X83500D01*
X81500Y27000D02*
Y29000D01*
X77500Y-73500D02*
X78500Y-71500D01*
X76500D02*
X78500D01*
X76500D02*
X77500Y-73500D01*
X87500D02*
X88500Y-71500D01*
X86500D02*
X88500D01*
X86500D02*
X87500Y-73500D01*
X26000Y97500D02*
X28000D01*
Y99500D01*
X26000D02*
X28000D01*
X26000Y97500D02*
Y99500D01*
Y87500D02*
X28000D01*
Y89500D01*
X26000D02*
X28000D01*
X26000Y87500D02*
Y89500D01*
X36000Y97500D02*
X38000D01*
Y99500D01*
X36000D02*
X38000D01*
X36000Y97500D02*
Y99500D01*
Y87500D02*
X38000D01*
Y89500D01*
X36000D02*
X38000D01*
X36000Y87500D02*
Y89500D01*
X46000Y97500D02*
X48000D01*
Y99500D01*
X46000D02*
X48000D01*
X46000Y97500D02*
Y99500D01*
Y87500D02*
X48000D01*
Y89500D01*
X46000D02*
X48000D01*
X46000Y87500D02*
Y89500D01*
X84146Y101862D02*
X84646Y101362D01*
X83646Y101862D02*
X84146D01*
X83646D02*
X84146Y102362D01*
X83646Y102862D02*
X84146Y102362D01*
X83646Y102862D02*
X84146D01*
X84646Y103362D01*
X85146Y102862D01*
X85646D01*
X85146Y102362D02*
X85646Y102862D01*
X85146Y102362D02*
X85646Y101862D01*
X85146D02*
X85646D01*
X84646Y101362D02*
X85146Y101862D01*
X84146Y-94988D02*
X84646Y-95488D01*
X83646Y-94988D02*
X84146D01*
X83646D02*
X84146Y-94488D01*
X83646Y-93988D02*
X84146Y-94488D01*
X83646Y-93988D02*
X84146D01*
X84646Y-93488D01*
X85146Y-93988D01*
X85646D01*
X85146Y-94488D02*
X85646Y-93988D01*
X85146Y-94488D02*
X85646Y-94988D01*
X85146D02*
X85646D01*
X84646Y-95488D02*
X85146Y-94988D01*
X-85146D02*
X-84646Y-95488D01*
X-85646Y-94988D02*
X-85146D01*
X-85646D02*
X-85146Y-94488D01*
X-85646Y-93988D02*
X-85146Y-94488D01*
X-85646Y-93988D02*
X-85146D01*
X-84646Y-93488D01*
X-84146Y-93988D01*
X-83646D01*
X-84146Y-94488D02*
X-83646Y-93988D01*
X-84146Y-94488D02*
X-83646Y-94988D01*
X-84146D02*
X-83646D01*
X-84646Y-95488D02*
X-84146Y-94988D01*
X-85146Y101862D02*
X-84646Y101362D01*
X-85646Y101862D02*
X-85146D01*
X-85646D02*
X-85146Y102362D01*
X-85646Y102862D02*
X-85146Y102362D01*
X-85646Y102862D02*
X-85146D01*
X-84646Y103362D01*
X-84146Y102862D01*
X-83646D01*
X-84146Y102362D02*
X-83646Y102862D01*
X-84146Y102362D02*
X-83646Y101862D01*
X-84146D02*
X-83646D01*
X-84646Y101362D02*
X-84146Y101862D01*
D84*
X209294Y26356D02*
X692367D01*
X209294Y-63644D02*
X692367D01*
X209294Y-78644D02*
X692367D01*
Y41356D01*
X209294D02*
X692367D01*
X209294Y-78644D02*
Y41356D01*
X613287Y-78644D02*
Y41356D01*
X554302Y-78644D02*
Y41356D01*
X480922Y-78644D02*
Y41356D01*
X430335Y-78644D02*
Y41356D01*
X318367Y-78644D02*
Y41356D01*
X264381Y-78644D02*
Y41356D01*
X662438Y46000D02*
Y142000D01*
X550470Y118000D02*
X662438D01*
X550470Y106000D02*
X662438D01*
X550470Y94000D02*
X662438D01*
X550470Y82000D02*
X662438D01*
X550470Y70000D02*
X662438D01*
X550470Y58000D02*
X662438D01*
X550470Y46000D02*
X662438D01*
X550470D02*
Y142000D01*
X493483Y118000D02*
X550470D01*
X493483Y106000D02*
X550470D01*
X493483Y94000D02*
X550470D01*
X493483Y82000D02*
X550470D01*
X493483Y70000D02*
X550470D01*
X493483Y58000D02*
X550470D01*
X493483Y46000D02*
X550470D01*
X493483D02*
Y142000D01*
X428500Y118000D02*
X493483D01*
X428500Y106000D02*
X493483D01*
X428500Y94000D02*
X493483D01*
X428500Y82000D02*
X493483D01*
X428500Y70000D02*
X493483D01*
X428500Y58000D02*
X493483D01*
X428500Y46000D02*
X493483D01*
X428500D02*
Y142000D01*
X342523Y118000D02*
X428500D01*
X342523Y106000D02*
X428500D01*
X342523Y94000D02*
X428500D01*
X342523Y82000D02*
X428500D01*
X342523Y70000D02*
X428500D01*
X342523Y58000D02*
X428500D01*
X342523Y46000D02*
X428500D01*
X342523D02*
Y142000D01*
X249549Y118000D02*
X342523D01*
X249549Y106000D02*
X342523D01*
X249549Y94000D02*
X342523D01*
X249549Y82000D02*
X342523D01*
X249549Y70000D02*
X342523D01*
X249549Y58000D02*
X342523D01*
X249549Y46000D02*
X342523D01*
X249549D02*
Y142000D01*
X208558Y118000D02*
X249549D01*
X208558Y106000D02*
X249549D01*
X208558Y94000D02*
X249549D01*
X208558Y82000D02*
X249549D01*
X208558Y70000D02*
X249549D01*
X208558Y58000D02*
X249549D01*
X208558Y46000D02*
X249549D01*
X208558D02*
Y142000D01*
X662438D01*
X208558Y130000D02*
X662438D01*
D85*
X550470Y126032D02*
X554438Y130000D01*
X550470Y120032D02*
X560438Y130000D01*
X554438Y118000D02*
X566438Y130000D01*
X560438Y118000D02*
X572438Y130000D01*
X566438Y118000D02*
X578438Y130000D01*
X572438Y118000D02*
X584438Y130000D01*
X578438Y118000D02*
X590438Y130000D01*
X584438Y118000D02*
X596438Y130000D01*
X590438Y118000D02*
X602438Y130000D01*
X596438Y118000D02*
X608438Y130000D01*
X602438Y118000D02*
X614438Y130000D01*
X608438Y118000D02*
X620438Y130000D01*
X614438Y118000D02*
X626438Y130000D01*
X620438Y118000D02*
X632438Y130000D01*
X626438Y118000D02*
X638438Y130000D01*
X632438Y118000D02*
X644438Y130000D01*
X638438Y118000D02*
X650438Y130000D01*
X644438Y118000D02*
X656438Y130000D01*
X650438Y118000D02*
X662438Y130000D01*
X656438Y118000D02*
X662438Y124000D01*
X550470Y114032D02*
X554438Y118000D01*
X550470Y108032D02*
X560438Y118000D01*
X554438Y106000D02*
X566438Y118000D01*
X560438Y106000D02*
X572438Y118000D01*
X566438Y106000D02*
X578438Y118000D01*
X572438Y106000D02*
X584438Y118000D01*
X578438Y106000D02*
X590438Y118000D01*
X584438Y106000D02*
X596438Y118000D01*
X590438Y106000D02*
X602438Y118000D01*
X596438Y106000D02*
X608438Y118000D01*
X602438Y106000D02*
X614438Y118000D01*
X608438Y106000D02*
X620438Y118000D01*
X614438Y106000D02*
X626438Y118000D01*
X620438Y106000D02*
X632438Y118000D01*
X626438Y106000D02*
X638438Y118000D01*
X632438Y106000D02*
X644438Y118000D01*
X638438Y106000D02*
X650438Y118000D01*
X644438Y106000D02*
X656438Y118000D01*
X650438Y106000D02*
X662438Y118000D01*
X656438Y106000D02*
X662438Y112000D01*
X550470Y102032D02*
X554438Y106000D01*
X550470Y96032D02*
X560438Y106000D01*
X554438Y94000D02*
X566438Y106000D01*
X560438Y94000D02*
X572438Y106000D01*
X566438Y94000D02*
X578438Y106000D01*
X572438Y94000D02*
X584438Y106000D01*
X578438Y94000D02*
X590438Y106000D01*
X584438Y94000D02*
X596438Y106000D01*
X590438Y94000D02*
X602438Y106000D01*
X596438Y94000D02*
X608438Y106000D01*
X602438Y94000D02*
X614438Y106000D01*
X608438Y94000D02*
X620438Y106000D01*
X614438Y94000D02*
X626438Y106000D01*
X620438Y94000D02*
X632438Y106000D01*
X626438Y94000D02*
X638438Y106000D01*
X632438Y94000D02*
X644438Y106000D01*
X638438Y94000D02*
X650438Y106000D01*
X644438Y94000D02*
X656438Y106000D01*
X650438Y94000D02*
X662438Y106000D01*
X656438Y94000D02*
X662438Y100000D01*
X550470Y90032D02*
X554438Y94000D01*
X550470Y84032D02*
X560438Y94000D01*
X554438Y82000D02*
X566438Y94000D01*
X560438Y82000D02*
X572438Y94000D01*
X566438Y82000D02*
X578438Y94000D01*
X572438Y82000D02*
X584438Y94000D01*
X578438Y82000D02*
X590438Y94000D01*
X584438Y82000D02*
X596438Y94000D01*
X590438Y82000D02*
X602438Y94000D01*
X596438Y82000D02*
X608438Y94000D01*
X602438Y82000D02*
X614438Y94000D01*
X608438Y82000D02*
X620438Y94000D01*
X614438Y82000D02*
X626438Y94000D01*
X620438Y82000D02*
X632438Y94000D01*
X626438Y82000D02*
X638438Y94000D01*
X632438Y82000D02*
X644438Y94000D01*
X638438Y82000D02*
X650438Y94000D01*
X644438Y82000D02*
X656438Y94000D01*
X650438Y82000D02*
X662438Y94000D01*
X656438Y82000D02*
X662438Y88000D01*
X550470Y78032D02*
X554438Y82000D01*
X550470Y72032D02*
X560438Y82000D01*
X554438Y70000D02*
X566438Y82000D01*
X560438Y70000D02*
X572438Y82000D01*
X566438Y70000D02*
X578438Y82000D01*
X572438Y70000D02*
X584438Y82000D01*
X578438Y70000D02*
X590438Y82000D01*
X584438Y70000D02*
X596438Y82000D01*
X590438Y70000D02*
X602438Y82000D01*
X596438Y70000D02*
X608438Y82000D01*
X602438Y70000D02*
X614438Y82000D01*
X608438Y70000D02*
X620438Y82000D01*
X614438Y70000D02*
X626438Y82000D01*
X620438Y70000D02*
X632438Y82000D01*
X626438Y70000D02*
X638438Y82000D01*
X632438Y70000D02*
X644438Y82000D01*
X638438Y70000D02*
X650438Y82000D01*
X644438Y70000D02*
X656438Y82000D01*
X650438Y70000D02*
X662438Y82000D01*
X656438Y70000D02*
X662438Y76000D01*
X550470Y66032D02*
X554438Y70000D01*
X550470Y60032D02*
X560438Y70000D01*
X554438Y58000D02*
X566438Y70000D01*
X560438Y58000D02*
X572438Y70000D01*
X566438Y58000D02*
X578438Y70000D01*
X572438Y58000D02*
X584438Y70000D01*
X578438Y58000D02*
X590438Y70000D01*
X584438Y58000D02*
X596438Y70000D01*
X590438Y58000D02*
X602438Y70000D01*
X596438Y58000D02*
X608438Y70000D01*
X602438Y58000D02*
X614438Y70000D01*
X608438Y58000D02*
X620438Y70000D01*
X614438Y58000D02*
X626438Y70000D01*
X620438Y58000D02*
X632438Y70000D01*
X626438Y58000D02*
X638438Y70000D01*
X632438Y58000D02*
X644438Y70000D01*
X638438Y58000D02*
X650438Y70000D01*
X644438Y58000D02*
X656438Y70000D01*
X650438Y58000D02*
X662438Y70000D01*
X656438Y58000D02*
X662438Y64000D01*
X550470Y54032D02*
X554438Y58000D01*
X550470Y48032D02*
X560438Y58000D01*
X554438Y46000D02*
X566438Y58000D01*
X560438Y46000D02*
X572438Y58000D01*
X566438Y46000D02*
X578438Y58000D01*
X572438Y46000D02*
X584438Y58000D01*
X578438Y46000D02*
X590438Y58000D01*
X584438Y46000D02*
X596438Y58000D01*
X590438Y46000D02*
X602438Y58000D01*
X596438Y46000D02*
X608438Y58000D01*
X602438Y46000D02*
X614438Y58000D01*
X608438Y46000D02*
X620438Y58000D01*
X614438Y46000D02*
X626438Y58000D01*
X620438Y46000D02*
X632438Y58000D01*
X626438Y46000D02*
X638438Y58000D01*
X632438Y46000D02*
X644438Y58000D01*
X638438Y46000D02*
X650438Y58000D01*
X644438Y46000D02*
X656438Y58000D01*
X650438Y46000D02*
X662438Y58000D01*
X656438Y46000D02*
X662438Y52000D01*
D86*
X617787Y30856D02*
Y38054D01*
X621386D01*
X622586Y36854D01*
Y34455D01*
X621386Y33256D01*
X617787D01*
X626184Y35655D02*
X628584D01*
X629783Y34455D01*
Y30856D01*
X626184D01*
X624985Y32056D01*
X626184Y33256D01*
X629783D01*
X636981Y38054D02*
Y30856D01*
X633382D01*
X632183Y32056D01*
Y34455D01*
X633382Y35655D01*
X636981D01*
X651376Y36854D02*
X650177Y38054D01*
X647777D01*
X646578Y36854D01*
Y35655D01*
X647777Y34455D01*
X650177D01*
X651376Y33256D01*
Y32056D01*
X650177Y30856D01*
X647777D01*
X646578Y32056D01*
X653776Y38054D02*
Y30856D01*
Y34455D01*
X654975Y35655D01*
X657374D01*
X658574Y34455D01*
Y30856D01*
X662173Y35655D02*
X664572D01*
X665772Y34455D01*
Y30856D01*
X662173D01*
X660973Y32056D01*
X662173Y33256D01*
X665772D01*
X668171Y28457D02*
Y35655D01*
X671770D01*
X672969Y34455D01*
Y32056D01*
X671770Y30856D01*
X668171D01*
X678967D02*
X676568D01*
X675368Y32056D01*
Y34455D01*
X676568Y35655D01*
X678967D01*
X680167Y34455D01*
Y33256D01*
X675368D01*
X558802Y38054D02*
Y33256D01*
X561201Y30856D01*
X563601Y33256D01*
Y38054D01*
X566000Y30856D02*
X568399D01*
X567200D01*
Y35655D01*
X566000D01*
X573198D02*
X575597D01*
X576796Y34455D01*
Y30856D01*
X573198D01*
X571998Y32056D01*
X573198Y33256D01*
X576796D01*
X579196Y30856D02*
X583994Y35655D01*
X586393Y30856D02*
Y38054D01*
X589992D01*
X591192Y36854D01*
Y34455D01*
X589992Y33256D01*
X586393D01*
X594791Y35655D02*
X597190D01*
X598389Y34455D01*
Y30856D01*
X594791D01*
X593591Y32056D01*
X594791Y33256D01*
X598389D01*
X605587Y38054D02*
Y30856D01*
X601988D01*
X600789Y32056D01*
Y34455D01*
X601988Y35655D01*
X605587D01*
X485422Y38054D02*
Y30856D01*
Y34455D01*
X490220D01*
Y38054D01*
Y30856D01*
X493819D02*
X496219D01*
X497418Y32056D01*
Y34455D01*
X496219Y35655D01*
X493819D01*
X492620Y34455D01*
Y32056D01*
X493819Y30856D01*
X499817D02*
X502217D01*
X501017D01*
Y38054D01*
X499817D01*
X509414Y30856D02*
X507015D01*
X505816Y32056D01*
Y34455D01*
X507015Y35655D01*
X509414D01*
X510614Y34455D01*
Y33256D01*
X505816D01*
X520211Y38054D02*
X525009D01*
X522610D01*
Y30856D01*
X527409Y35655D02*
Y32056D01*
X528608Y30856D01*
X532207D01*
Y29657D01*
X531007Y28457D01*
X529808D01*
X532207Y30856D02*
Y35655D01*
X534606Y28457D02*
Y35655D01*
X538205D01*
X539405Y34455D01*
Y32056D01*
X538205Y30856D01*
X534606D01*
X545403D02*
X543003D01*
X541804Y32056D01*
Y34455D01*
X543003Y35655D01*
X545403D01*
X546602Y34455D01*
Y33256D01*
X541804D01*
X434834Y30856D02*
Y38054D01*
X438433D01*
X439633Y36854D01*
Y34455D01*
X438433Y33256D01*
X434834D01*
X442032Y30856D02*
X444431D01*
X443232D01*
Y38054D01*
X442032D01*
X449230Y35655D02*
X451629D01*
X452829Y34455D01*
Y30856D01*
X449230D01*
X448030Y32056D01*
X449230Y33256D01*
X452829D01*
X456427Y36854D02*
Y35655D01*
X455228D01*
X457627D01*
X456427D01*
Y32056D01*
X457627Y30856D01*
X464825D02*
X462426D01*
X461226Y32056D01*
Y34455D01*
X462426Y35655D01*
X464825D01*
X466024Y34455D01*
Y33256D01*
X461226D01*
X473222Y38054D02*
Y30856D01*
X469623D01*
X468424Y32056D01*
Y34455D01*
X469623Y35655D01*
X473222D01*
X322867Y38054D02*
Y30856D01*
Y34455D01*
X327666D01*
Y38054D01*
Y30856D01*
X331264D02*
X333664D01*
X334863Y32056D01*
Y34455D01*
X333664Y35655D01*
X331264D01*
X330065Y34455D01*
Y32056D01*
X331264Y30856D01*
X337263D02*
X339662D01*
X338462D01*
Y38054D01*
X337263D01*
X346859Y30856D02*
X344460D01*
X343261Y32056D01*
Y34455D01*
X344460Y35655D01*
X346859D01*
X348059Y34455D01*
Y33256D01*
X343261D01*
X362454Y36854D02*
X361255Y38054D01*
X358856D01*
X357656Y36854D01*
Y35655D01*
X358856Y34455D01*
X361255D01*
X362454Y33256D01*
Y32056D01*
X361255Y30856D01*
X358856D01*
X357656Y32056D01*
X364854Y30856D02*
X367253D01*
X366053D01*
Y35655D01*
X364854D01*
X370852D02*
X375650D01*
X370852Y30856D01*
X375650D01*
X381648D02*
X379249D01*
X378049Y32056D01*
Y34455D01*
X379249Y35655D01*
X381648D01*
X382848Y34455D01*
Y33256D01*
X378049D01*
X273679Y36854D02*
X272480Y38054D01*
X270081D01*
X268881Y36854D01*
Y32056D01*
X270081Y30856D01*
X272480D01*
X273679Y32056D01*
X277278Y30856D02*
X279678D01*
X280877Y32056D01*
Y34455D01*
X279678Y35655D01*
X277278D01*
X276079Y34455D01*
Y32056D01*
X277278Y30856D01*
X283276Y35655D02*
Y32056D01*
X284476Y30856D01*
X288075D01*
Y35655D01*
X290474Y30856D02*
Y35655D01*
X294073D01*
X295272Y34455D01*
Y30856D01*
X298871Y36854D02*
Y35655D01*
X297672D01*
X300071D01*
X298871D01*
Y32056D01*
X300071Y30856D01*
X223092Y36854D02*
X221892Y38054D01*
X219493D01*
X218293Y36854D01*
Y35655D01*
X219493Y34455D01*
X221892D01*
X223092Y33256D01*
Y32056D01*
X221892Y30856D01*
X219493D01*
X218293Y32056D01*
X225491Y35655D02*
Y32056D01*
X226691Y30856D01*
X230290D01*
Y29657D01*
X229090Y28457D01*
X227890D01*
X230290Y30856D02*
Y35655D01*
X232689Y30856D02*
Y35655D01*
X233889D01*
X235088Y34455D01*
Y30856D01*
Y34455D01*
X236288Y35655D01*
X237487Y34455D01*
Y30856D01*
X239886Y38054D02*
Y30856D01*
X243485D01*
X244685Y32056D01*
Y33256D01*
Y34455D01*
X243485Y35655D01*
X239886D01*
X248284Y30856D02*
X250683D01*
X251883Y32056D01*
Y34455D01*
X250683Y35655D01*
X248284D01*
X247084Y34455D01*
Y32056D01*
X248284Y30856D01*
X254282D02*
X256681D01*
X255482D01*
Y38054D01*
X254282D01*
M02*
