G04*
G04 #@! TF.GenerationSoftware,Altium Limited,Altium Designer,21.6.4 (81)*
G04*
G04 Layer_Color=16711935*
%FSLAX25Y25*%
%MOIN*%
G70*
G04*
G04 #@! TF.SameCoordinates,7C905695-A8D0-471C-AD1A-FFB52B7834A9*
G04*
G04*
G04 #@! TF.FilePolarity,Negative*
G04*
G01*
G75*
%ADD55C,0.14580*%
%ADD56R,0.06706X0.06706*%
%ADD57C,0.06706*%
%ADD58C,0.05524*%
%ADD59R,0.05524X0.05524*%
%ADD61R,0.06706X0.06706*%
%ADD62R,0.06706X0.08674*%
%ADD63O,0.06706X0.08674*%
D55*
X-84646Y102362D02*
D03*
Y-94488D02*
D03*
X84646D02*
D03*
Y102362D02*
D03*
D56*
X47000Y88500D02*
D03*
X-35500Y-94500D02*
D03*
X-61500D02*
D03*
X61500D02*
D03*
D57*
X47000Y98500D02*
D03*
X37000Y88500D02*
D03*
Y98500D02*
D03*
X27000Y88500D02*
D03*
Y98500D02*
D03*
X82500Y28000D02*
D03*
Y18000D02*
D03*
X-25500Y-94500D02*
D03*
X-51500D02*
D03*
X51500D02*
D03*
X41500D02*
D03*
X31500D02*
D03*
X82500Y61000D02*
D03*
Y51000D02*
D03*
Y41000D02*
D03*
X70000Y61000D02*
D03*
Y51000D02*
D03*
Y41000D02*
D03*
D58*
X87500Y-72500D02*
D03*
D59*
X77500D02*
D03*
D61*
X82500Y8000D02*
D03*
Y71000D02*
D03*
X70000D02*
D03*
D62*
X-47000Y-70000D02*
D03*
D63*
X-37000D02*
D03*
M02*
