G04*
G04 #@! TF.GenerationSoftware,Altium Limited,Altium Designer,21.6.4 (81)*
G04*
G04 Layer_Physical_Order=1*
G04 Layer_Color=255*
%FSLAX25Y25*%
%MOIN*%
G70*
G04*
G04 #@! TF.SameCoordinates,7C905695-A8D0-471C-AD1A-FFB52B7834A9*
G04*
G04*
G04 #@! TF.FilePolarity,Positive*
G04*
G01*
G75*
%ADD17R,0.03543X0.03799*%
%ADD18R,0.06102X0.05118*%
%ADD19R,0.03150X0.02165*%
%ADD20R,0.03799X0.03543*%
%ADD21R,0.02756X0.03543*%
%ADD22R,0.03937X0.01968*%
%ADD23O,0.03937X0.01968*%
%ADD24R,0.03543X0.02756*%
%ADD25R,0.05276X0.07087*%
%ADD26R,0.12598X0.05906*%
%ADD27R,0.07087X0.05276*%
%ADD28R,0.03543X0.03150*%
%ADD29R,0.05906X0.03543*%
%ADD30R,0.03543X0.05906*%
%ADD31R,0.17362X0.16142*%
%ADD32R,0.02362X0.05118*%
%ADD33R,0.23622X0.07874*%
%ADD34R,0.07874X0.03543*%
%ADD35R,0.31496X0.39370*%
%ADD64C,0.01968*%
%ADD65C,0.01181*%
%ADD66C,0.05118*%
%ADD67C,0.02756*%
%ADD68C,0.03150*%
%ADD69C,0.02362*%
%ADD70C,0.03937*%
%ADD71C,0.13780*%
%ADD72R,0.05906X0.05906*%
%ADD73C,0.05906*%
%ADD74C,0.04724*%
%ADD75R,0.04724X0.04724*%
%ADD76C,0.06000*%
%ADD77R,0.05906X0.05906*%
%ADD78R,0.05906X0.07874*%
%ADD79O,0.05906X0.07874*%
%ADD80C,0.03150*%
%ADD81C,0.03937*%
G36*
X-7500Y-97500D02*
X-28500D01*
Y-59500D01*
X-7500D01*
Y-97500D01*
D02*
G37*
G36*
Y-54500D02*
X-20500D01*
Y-44000D01*
X-7500D01*
Y-54500D01*
D02*
G37*
G36*
X-128312Y-93243D02*
Y-94152D01*
X-128918D01*
Y-93270D01*
X-129800Y-91798D01*
X-129112D01*
X-128601Y-92708D01*
X-128110Y-91798D01*
X-127444D01*
X-128312Y-93243D01*
D02*
G37*
G36*
X-123783Y-91801D02*
X-123725Y-91804D01*
X-123665Y-91809D01*
X-123603Y-91815D01*
X-123545Y-91823D01*
X-123540D01*
X-123532Y-91826D01*
X-123521Y-91828D01*
X-123491Y-91834D01*
X-123452Y-91845D01*
X-123412Y-91859D01*
X-123362Y-91878D01*
X-123313Y-91899D01*
X-123264Y-91927D01*
X-123261D01*
X-123259Y-91930D01*
X-123242Y-91940D01*
X-123218Y-91960D01*
X-123188Y-91981D01*
X-123155Y-92011D01*
X-123119Y-92047D01*
X-123087Y-92088D01*
X-123054Y-92132D01*
Y-92134D01*
X-123051Y-92137D01*
X-123046Y-92145D01*
X-123040Y-92153D01*
X-123029Y-92181D01*
X-123013Y-92219D01*
X-122999Y-92263D01*
X-122986Y-92317D01*
X-122977Y-92377D01*
X-122975Y-92445D01*
Y-92448D01*
Y-92456D01*
Y-92470D01*
X-122977Y-92489D01*
Y-92511D01*
X-122980Y-92538D01*
X-122986Y-92566D01*
X-122991Y-92596D01*
X-123005Y-92664D01*
X-123027Y-92735D01*
X-123057Y-92806D01*
X-123076Y-92839D01*
X-123098Y-92871D01*
Y-92874D01*
X-123103Y-92879D01*
X-123111Y-92888D01*
X-123119Y-92899D01*
X-123147Y-92929D01*
X-123185Y-92967D01*
X-123234Y-93010D01*
X-123294Y-93054D01*
X-123362Y-93101D01*
X-123442Y-93144D01*
X-122655Y-94152D01*
X-123398D01*
X-124037Y-93289D01*
X-124315D01*
Y-94152D01*
X-124921D01*
Y-91798D01*
X-123832D01*
X-123783Y-91801D01*
D02*
G37*
G36*
X-125429Y-92254D02*
X-126524D01*
Y-92658D01*
X-125508D01*
Y-93114D01*
X-126524D01*
Y-93696D01*
X-125429D01*
Y-94152D01*
X-127130D01*
Y-91798D01*
X-125429D01*
Y-92254D01*
D02*
G37*
G36*
X-129852Y-94152D02*
X-130480D01*
X-130643Y-93677D01*
X-131511D01*
X-131675Y-94152D01*
X-132287D01*
X-131419Y-91798D01*
X-130722D01*
X-129852Y-94152D01*
D02*
G37*
G36*
X-133480Y-93696D02*
X-132391D01*
Y-94152D01*
X-134086D01*
Y-91798D01*
X-133480D01*
Y-93696D01*
D02*
G37*
G36*
X-136486Y-91801D02*
X-136434Y-91804D01*
X-136374Y-91809D01*
X-136311Y-91815D01*
X-136248Y-91826D01*
X-136188Y-91839D01*
X-136185D01*
X-136180Y-91842D01*
X-136172D01*
X-136161Y-91848D01*
X-136133Y-91856D01*
X-136095Y-91867D01*
X-136054Y-91883D01*
X-136008Y-91905D01*
X-135961Y-91927D01*
X-135915Y-91954D01*
X-135912D01*
X-135909Y-91960D01*
X-135890Y-91970D01*
X-135866Y-91992D01*
X-135833Y-92020D01*
X-135800Y-92052D01*
X-135762Y-92093D01*
X-135727Y-92142D01*
X-135697Y-92194D01*
Y-92197D01*
X-135694Y-92200D01*
X-135688Y-92208D01*
X-135686Y-92219D01*
X-135678Y-92235D01*
X-135672Y-92252D01*
X-135658Y-92293D01*
X-135645Y-92342D01*
X-135631Y-92402D01*
X-135623Y-92467D01*
X-135620Y-92541D01*
Y-92544D01*
Y-92549D01*
Y-92557D01*
Y-92568D01*
X-135623Y-92582D01*
Y-92598D01*
X-135628Y-92639D01*
X-135634Y-92686D01*
X-135645Y-92740D01*
X-135658Y-92795D01*
X-135678Y-92852D01*
Y-92855D01*
X-135680Y-92858D01*
X-135683Y-92866D01*
X-135688Y-92877D01*
X-135699Y-92904D01*
X-135718Y-92940D01*
X-135740Y-92980D01*
X-135768Y-93022D01*
X-135800Y-93062D01*
X-135836Y-93103D01*
X-135839Y-93106D01*
X-135841Y-93109D01*
X-135849Y-93117D01*
X-135860Y-93125D01*
X-135888Y-93150D01*
X-135926Y-93182D01*
X-135972Y-93215D01*
X-136027Y-93251D01*
X-136087Y-93283D01*
X-136150Y-93314D01*
X-136153D01*
X-136158Y-93316D01*
X-136166Y-93319D01*
X-136180Y-93325D01*
X-136196Y-93330D01*
X-136218Y-93335D01*
X-136243Y-93344D01*
X-136267Y-93349D01*
X-136297Y-93354D01*
X-136330Y-93363D01*
X-136365Y-93368D01*
X-136404Y-93374D01*
X-136488Y-93382D01*
X-136581Y-93385D01*
X-136958D01*
Y-94152D01*
X-137564D01*
Y-91798D01*
X-136507D01*
X-136486Y-91801D01*
D02*
G37*
G36*
X-140679Y-92254D02*
X-141413D01*
Y-94152D01*
X-142019D01*
Y-92254D01*
X-142754D01*
Y-91798D01*
X-140679D01*
Y-92254D01*
D02*
G37*
G36*
X-139186Y-91752D02*
X-139147Y-91755D01*
X-139098Y-91760D01*
X-139044Y-91766D01*
X-138984Y-91777D01*
X-138918Y-91790D01*
X-138847Y-91809D01*
X-138776Y-91831D01*
X-138702Y-91856D01*
X-138629Y-91888D01*
X-138555Y-91927D01*
X-138484Y-91970D01*
X-138416Y-92022D01*
X-138353Y-92080D01*
X-138350Y-92082D01*
X-138339Y-92096D01*
X-138323Y-92115D01*
X-138301Y-92140D01*
X-138276Y-92172D01*
X-138249Y-92213D01*
X-138222Y-92263D01*
X-138189Y-92314D01*
X-138159Y-92377D01*
X-138132Y-92443D01*
X-138104Y-92516D01*
X-138080Y-92598D01*
X-138058Y-92683D01*
X-138042Y-92776D01*
X-138031Y-92874D01*
X-138028Y-92978D01*
Y-92980D01*
Y-92983D01*
Y-92991D01*
Y-93002D01*
X-138031Y-93032D01*
X-138033Y-93071D01*
X-138039Y-93117D01*
X-138044Y-93174D01*
X-138055Y-93234D01*
X-138069Y-93300D01*
X-138085Y-93371D01*
X-138107Y-93442D01*
X-138132Y-93518D01*
X-138164Y-93592D01*
X-138200Y-93666D01*
X-138244Y-93737D01*
X-138293Y-93805D01*
X-138350Y-93871D01*
X-138353Y-93873D01*
X-138364Y-93884D01*
X-138383Y-93901D01*
X-138410Y-93922D01*
X-138443Y-93947D01*
X-138481Y-93974D01*
X-138528Y-94004D01*
X-138582Y-94034D01*
X-138642Y-94067D01*
X-138708Y-94097D01*
X-138781Y-94124D01*
X-138861Y-94149D01*
X-138948Y-94171D01*
X-139038Y-94187D01*
X-139136Y-94198D01*
X-139240Y-94201D01*
X-139278D01*
X-139295Y-94198D01*
X-139333Y-94195D01*
X-139382Y-94190D01*
X-139437Y-94184D01*
X-139497Y-94174D01*
X-139565Y-94160D01*
X-139633Y-94141D01*
X-139707Y-94119D01*
X-139781Y-94094D01*
X-139854Y-94062D01*
X-139928Y-94023D01*
X-139999Y-93980D01*
X-140067Y-93928D01*
X-140130Y-93871D01*
X-140133Y-93868D01*
X-140144Y-93854D01*
X-140160Y-93835D01*
X-140179Y-93810D01*
X-140204Y-93778D01*
X-140231Y-93737D01*
X-140261Y-93690D01*
X-140288Y-93636D01*
X-140319Y-93576D01*
X-140348Y-93507D01*
X-140376Y-93434D01*
X-140400Y-93354D01*
X-140419Y-93270D01*
X-140436Y-93177D01*
X-140447Y-93081D01*
X-140450Y-92978D01*
Y-92975D01*
Y-92972D01*
Y-92964D01*
Y-92953D01*
Y-92940D01*
X-140447Y-92923D01*
X-140444Y-92885D01*
X-140439Y-92836D01*
X-140433Y-92781D01*
X-140422Y-92718D01*
X-140409Y-92653D01*
X-140392Y-92582D01*
X-140370Y-92508D01*
X-140346Y-92435D01*
X-140316Y-92358D01*
X-140278Y-92284D01*
X-140237Y-92213D01*
X-140187Y-92145D01*
X-140130Y-92080D01*
X-140127Y-92077D01*
X-140114Y-92066D01*
X-140097Y-92050D01*
X-140070Y-92028D01*
X-140037Y-92003D01*
X-139999Y-91976D01*
X-139953Y-91946D01*
X-139898Y-91913D01*
X-139838Y-91883D01*
X-139772Y-91853D01*
X-139699Y-91826D01*
X-139620Y-91801D01*
X-139532Y-91779D01*
X-139442Y-91763D01*
X-139344Y-91752D01*
X-139240Y-91749D01*
X-139216D01*
X-139186Y-91752D01*
D02*
G37*
%LPC*%
G36*
X-124023Y-92233D02*
X-124315D01*
Y-92863D01*
X-124080D01*
X-124048Y-92860D01*
X-124010D01*
X-123969Y-92858D01*
X-123930Y-92855D01*
X-123892Y-92849D01*
X-123887D01*
X-123876Y-92847D01*
X-123857Y-92841D01*
X-123835Y-92836D01*
X-123807Y-92828D01*
X-123780Y-92817D01*
X-123753Y-92803D01*
X-123728Y-92787D01*
X-123725Y-92784D01*
X-123717Y-92778D01*
X-123706Y-92768D01*
X-123693Y-92754D01*
X-123663Y-92721D01*
X-123649Y-92702D01*
X-123635Y-92680D01*
X-123633Y-92677D01*
X-123630Y-92669D01*
X-123625Y-92656D01*
X-123619Y-92637D01*
X-123614Y-92615D01*
X-123611Y-92587D01*
X-123605Y-92555D01*
Y-92519D01*
Y-92516D01*
Y-92506D01*
X-123608Y-92489D01*
X-123611Y-92467D01*
X-123614Y-92443D01*
X-123622Y-92418D01*
X-123630Y-92394D01*
X-123644Y-92369D01*
X-123646Y-92366D01*
X-123649Y-92358D01*
X-123660Y-92347D01*
X-123671Y-92334D01*
X-123690Y-92317D01*
X-123709Y-92301D01*
X-123737Y-92284D01*
X-123767Y-92271D01*
X-123769D01*
X-123777Y-92268D01*
X-123791Y-92263D01*
X-123807Y-92257D01*
X-123827Y-92252D01*
X-123851Y-92249D01*
X-123878Y-92243D01*
X-123908Y-92241D01*
X-123911D01*
X-123922Y-92238D01*
X-123941D01*
X-123963Y-92235D01*
X-123990D01*
X-124023Y-92233D01*
D02*
G37*
G36*
X-131077Y-92407D02*
X-131364Y-93245D01*
X-130788D01*
X-131077Y-92407D01*
D02*
G37*
G36*
X-136753Y-92238D02*
X-136958D01*
Y-92940D01*
X-136731D01*
X-136696Y-92937D01*
X-136655D01*
X-136614Y-92931D01*
X-136570Y-92929D01*
X-136532Y-92923D01*
X-136527D01*
X-136516Y-92921D01*
X-136496Y-92915D01*
X-136472Y-92907D01*
X-136447Y-92896D01*
X-136417Y-92882D01*
X-136390Y-92866D01*
X-136363Y-92847D01*
X-136360Y-92844D01*
X-136354Y-92839D01*
X-136344Y-92828D01*
X-136330Y-92811D01*
X-136316Y-92795D01*
X-136303Y-92773D01*
X-136289Y-92751D01*
X-136278Y-92727D01*
Y-92724D01*
X-136273Y-92713D01*
X-136270Y-92699D01*
X-136264Y-92677D01*
X-136259Y-92653D01*
X-136256Y-92623D01*
X-136251Y-92590D01*
Y-92555D01*
Y-92549D01*
Y-92538D01*
X-136253Y-92519D01*
X-136256Y-92497D01*
X-136264Y-92470D01*
X-136273Y-92443D01*
X-136286Y-92413D01*
X-136305Y-92385D01*
X-136308Y-92383D01*
X-136314Y-92374D01*
X-136327Y-92361D01*
X-136341Y-92347D01*
X-136360Y-92331D01*
X-136382Y-92312D01*
X-136406Y-92298D01*
X-136431Y-92284D01*
X-136436Y-92282D01*
X-136447Y-92279D01*
X-136467Y-92271D01*
X-136491Y-92265D01*
X-136518Y-92257D01*
X-136548Y-92252D01*
X-136584Y-92246D01*
X-136617Y-92243D01*
X-136633D01*
X-136652Y-92241D01*
X-136712D01*
X-136753Y-92238D01*
D02*
G37*
G36*
X-139240Y-92194D02*
X-139259D01*
X-139281Y-92197D01*
X-139311Y-92200D01*
X-139344Y-92205D01*
X-139379Y-92213D01*
X-139418Y-92224D01*
X-139456Y-92238D01*
X-139461Y-92241D01*
X-139472Y-92246D01*
X-139491Y-92257D01*
X-139516Y-92271D01*
X-139546Y-92290D01*
X-139576Y-92312D01*
X-139609Y-92339D01*
X-139641Y-92372D01*
X-139644Y-92374D01*
X-139655Y-92388D01*
X-139669Y-92407D01*
X-139688Y-92437D01*
X-139707Y-92470D01*
X-139729Y-92514D01*
X-139751Y-92563D01*
X-139770Y-92617D01*
Y-92620D01*
X-139772Y-92626D01*
X-139775Y-92634D01*
X-139778Y-92645D01*
X-139781Y-92658D01*
X-139786Y-92677D01*
X-139794Y-92721D01*
X-139803Y-92773D01*
X-139811Y-92836D01*
X-139816Y-92904D01*
X-139819Y-92978D01*
Y-92980D01*
Y-92986D01*
Y-92997D01*
Y-93013D01*
X-139816Y-93030D01*
Y-93051D01*
X-139813Y-93101D01*
X-139808Y-93158D01*
X-139800Y-93218D01*
X-139789Y-93278D01*
X-139772Y-93335D01*
Y-93338D01*
X-139770Y-93341D01*
X-139767Y-93349D01*
X-139764Y-93360D01*
X-139753Y-93387D01*
X-139737Y-93420D01*
X-139721Y-93458D01*
X-139699Y-93499D01*
X-139672Y-93537D01*
X-139644Y-93576D01*
X-139641Y-93578D01*
X-139630Y-93592D01*
X-139614Y-93608D01*
X-139592Y-93628D01*
X-139565Y-93649D01*
X-139535Y-93671D01*
X-139499Y-93693D01*
X-139461Y-93712D01*
X-139456Y-93715D01*
X-139442Y-93718D01*
X-139420Y-93726D01*
X-139393Y-93734D01*
X-139360Y-93742D01*
X-139322Y-93748D01*
X-139284Y-93753D01*
X-139240Y-93756D01*
X-139221D01*
X-139197Y-93753D01*
X-139169Y-93750D01*
X-139134Y-93745D01*
X-139098Y-93737D01*
X-139057Y-93726D01*
X-139019Y-93712D01*
X-139014Y-93709D01*
X-139000Y-93704D01*
X-138981Y-93693D01*
X-138956Y-93679D01*
X-138926Y-93658D01*
X-138896Y-93636D01*
X-138863Y-93606D01*
X-138833Y-93573D01*
X-138831Y-93568D01*
X-138820Y-93554D01*
X-138803Y-93532D01*
X-138784Y-93499D01*
X-138762Y-93464D01*
X-138741Y-93420D01*
X-138721Y-93371D01*
X-138702Y-93319D01*
Y-93316D01*
X-138700Y-93314D01*
X-138697Y-93305D01*
X-138694Y-93292D01*
X-138691Y-93278D01*
X-138689Y-93262D01*
X-138681Y-93221D01*
X-138672Y-93169D01*
X-138664Y-93111D01*
X-138661Y-93046D01*
X-138659Y-92975D01*
Y-92972D01*
Y-92967D01*
Y-92956D01*
Y-92940D01*
X-138661Y-92921D01*
Y-92901D01*
X-138664Y-92852D01*
X-138670Y-92795D01*
X-138681Y-92735D01*
X-138691Y-92675D01*
X-138708Y-92617D01*
Y-92615D01*
X-138710Y-92612D01*
X-138713Y-92604D01*
X-138716Y-92593D01*
X-138727Y-92566D01*
X-138743Y-92530D01*
X-138760Y-92492D01*
X-138781Y-92451D01*
X-138809Y-92413D01*
X-138836Y-92374D01*
X-138839Y-92369D01*
X-138850Y-92358D01*
X-138866Y-92342D01*
X-138888Y-92323D01*
X-138915Y-92301D01*
X-138948Y-92279D01*
X-138984Y-92257D01*
X-139022Y-92238D01*
X-139027Y-92235D01*
X-139041Y-92230D01*
X-139060Y-92224D01*
X-139087Y-92216D01*
X-139120Y-92208D01*
X-139158Y-92200D01*
X-139197Y-92197D01*
X-139240Y-92194D01*
D02*
G37*
%LPD*%
D17*
X62500Y4650D02*
D03*
Y-1650D02*
D03*
X-70500Y30350D02*
D03*
Y36650D02*
D03*
X-76500Y30350D02*
D03*
Y36650D02*
D03*
X-82500Y30350D02*
D03*
Y36650D02*
D03*
X56500Y18150D02*
D03*
Y11850D02*
D03*
Y4650D02*
D03*
Y-1650D02*
D03*
X59000Y64850D02*
D03*
Y71150D02*
D03*
X53000D02*
D03*
Y64850D02*
D03*
X47000Y71150D02*
D03*
Y64850D02*
D03*
X41000D02*
D03*
Y71150D02*
D03*
D18*
X62319Y-22390D02*
D03*
X89681Y-8610D02*
D03*
Y-22390D02*
D03*
X62319Y-8610D02*
D03*
D19*
X-71850Y46228D02*
D03*
Y49772D02*
D03*
X-78150D02*
D03*
Y46228D02*
D03*
D20*
X-78650Y56500D02*
D03*
X-72350D02*
D03*
X32650Y17500D02*
D03*
X26350D02*
D03*
X150Y-5000D02*
D03*
X-6150D02*
D03*
X-13350D02*
D03*
X-19650D02*
D03*
X3650Y-51000D02*
D03*
X-2650D02*
D03*
Y-57000D02*
D03*
X3650D02*
D03*
X-2650Y-63287D02*
D03*
X3650D02*
D03*
X-1150Y-85500D02*
D03*
X5150D02*
D03*
X-1150Y-91500D02*
D03*
X5150D02*
D03*
X-72350Y77500D02*
D03*
X-78650D02*
D03*
X-72350Y71500D02*
D03*
X-78650D02*
D03*
X-72350Y62500D02*
D03*
X-78650D02*
D03*
X29850Y-80000D02*
D03*
X36150D02*
D03*
Y-55500D02*
D03*
X29850D02*
D03*
X36150Y-49500D02*
D03*
X29850D02*
D03*
X60850Y-73000D02*
D03*
X67150D02*
D03*
X60850Y-79000D02*
D03*
X67150D02*
D03*
D21*
X32610Y9000D02*
D03*
X26390D02*
D03*
X32610Y3000D02*
D03*
X26390D02*
D03*
X32610Y-21000D02*
D03*
X26390D02*
D03*
X32610Y-27000D02*
D03*
X26390D02*
D03*
X-63390Y-46500D02*
D03*
X-69610D02*
D03*
X-63390Y-52500D02*
D03*
X-69610D02*
D03*
D22*
X25248Y-5000D02*
D03*
D23*
Y-8740D02*
D03*
Y-12480D02*
D03*
X34500Y-5000D02*
D03*
Y-12480D02*
D03*
D24*
X14500Y-5000D02*
D03*
Y-11220D02*
D03*
X8500Y-4890D02*
D03*
Y-11110D02*
D03*
D25*
X-24870Y-84500D02*
D03*
X-36130D02*
D03*
D26*
X-61500Y-62232D02*
D03*
Y-78768D02*
D03*
D27*
X10000Y-20870D02*
D03*
Y-32130D02*
D03*
X52500Y-67370D02*
D03*
Y-78630D02*
D03*
D28*
X5937Y-77543D02*
D03*
Y-70457D02*
D03*
X-1937Y-74000D02*
D03*
X30126Y-67543D02*
D03*
X38000Y-64000D02*
D03*
Y-71087D02*
D03*
D29*
X12827Y82500D02*
D03*
Y77500D02*
D03*
Y72500D02*
D03*
Y67500D02*
D03*
Y62500D02*
D03*
Y57500D02*
D03*
Y52500D02*
D03*
Y47500D02*
D03*
Y42500D02*
D03*
Y37500D02*
D03*
Y32500D02*
D03*
Y27500D02*
D03*
Y22500D02*
D03*
Y17500D02*
D03*
D03*
X-58000D02*
D03*
Y82500D02*
D03*
D03*
Y22500D02*
D03*
Y27500D02*
D03*
Y32500D02*
D03*
Y37500D02*
D03*
Y42500D02*
D03*
Y47500D02*
D03*
Y52500D02*
D03*
Y57500D02*
D03*
Y62500D02*
D03*
Y67500D02*
D03*
Y72500D02*
D03*
Y77500D02*
D03*
D30*
X-87Y11594D02*
D03*
X-5087D02*
D03*
X-10087D02*
D03*
X-15087D02*
D03*
X-20087D02*
D03*
X-25087D02*
D03*
X-30087D02*
D03*
X-35087D02*
D03*
X-40087D02*
D03*
X-45087D02*
D03*
D03*
D31*
X-16300Y-67600D02*
D03*
D32*
X-8800Y-51900D02*
D03*
X-13800D02*
D03*
X-18800D02*
D03*
X-23800D02*
D03*
D33*
X-9000Y-32268D02*
D03*
Y-15732D02*
D03*
D34*
X-31260Y-6713D02*
D03*
Y-13406D02*
D03*
Y-20098D02*
D03*
Y-26791D02*
D03*
X-31457Y-33386D02*
D03*
D35*
X-75748Y-20000D02*
D03*
D64*
X-50000Y11500D02*
X-45181D01*
X-45087Y11594D01*
X69000Y0D02*
Y1500D01*
X67350Y-1650D02*
X69000Y0D01*
X62500Y-1650D02*
X67350D01*
X62500Y8000D02*
X82500D01*
X56500D02*
X62500D01*
Y4650D02*
Y8000D01*
X75945Y-22445D02*
X76000Y-22500D01*
X62374Y-22445D02*
X75945D01*
X76055D02*
X89626D01*
X62319Y-22390D02*
X62374Y-22445D01*
X89626D02*
X89681Y-22390D01*
X76000Y-22500D02*
X76055Y-22445D01*
X62319Y-8610D02*
X89681D01*
X47000Y98500D02*
X70000Y98500D01*
X91181Y-7110D02*
Y77319D01*
X70000Y98500D02*
X91181Y77319D01*
X82500Y51000D02*
X83253Y51753D01*
X88000Y54000D02*
Y64384D01*
X83253Y51753D02*
X85753D01*
X88000Y54000D01*
X70000Y51000D02*
X82500D01*
X59687Y65537D02*
X86847D01*
X88000Y64384D01*
X841Y19659D02*
X7260Y13240D01*
X841Y19659D02*
Y72000D01*
X7260Y13240D02*
X32630D01*
X8432Y18068D02*
X12258D01*
X5000Y21500D02*
X8432Y18068D01*
X5000Y21500D02*
Y77000D01*
X12258Y18068D02*
X12827Y17500D01*
X26350D01*
X32630Y13240D02*
Y17480D01*
Y9000D02*
Y13240D01*
X-58000Y72500D02*
X-7000D01*
X-2500Y68000D01*
X-72350Y77500D02*
X-4659D01*
X841Y72000D01*
X-64000Y72500D02*
X-58000D01*
X47000Y98500D02*
X70000D01*
X32000Y83500D02*
Y93500D01*
X26500Y71000D02*
Y78000D01*
X32000Y83500D01*
X31000Y70000D02*
Y76500D01*
X37000Y82500D02*
Y88500D01*
X31000Y76500D02*
X37000Y82500D01*
X70000Y71150D02*
X82350D01*
X59000D02*
X70000D01*
X32630Y3020D02*
Y9000D01*
X47000Y88500D02*
X67000D01*
X23000Y67500D02*
X26500Y71000D01*
X12827Y67500D02*
X23000D01*
X32000Y93500D02*
X37000Y98500D01*
X21094Y98094D02*
X26594D01*
X27000Y98500D01*
X19680Y96680D02*
X21094Y98094D01*
X19680Y85000D02*
Y96680D01*
X17274Y-42730D02*
X32610Y-27394D01*
X44000Y-42500D02*
X46000Y-44500D01*
Y-71500D02*
Y-44500D01*
Y-71500D02*
X47500Y-73000D01*
X60850D01*
X-82500Y20500D02*
X-79500Y17500D01*
X-82500Y20500D02*
Y30350D01*
X-79500Y17500D02*
X-58000D01*
X-76500Y25000D02*
X-74000Y22500D01*
X-76500Y25000D02*
Y30350D01*
X-74000Y22500D02*
X-58000D01*
X-70500Y30222D02*
Y30350D01*
X-67778Y27500D02*
X-58000D01*
X-70500Y30222D02*
X-67778Y27500D01*
X-71850Y49772D02*
X-67772D01*
X-66500Y48500D01*
Y37653D02*
Y48500D01*
X-70350Y36500D02*
X-67653D01*
X-66500Y37653D01*
X-70500Y36650D02*
X-70350Y36500D01*
X-76500Y40847D02*
X-75347Y42000D01*
X-76500Y36650D02*
Y40847D01*
X-75347Y42000D02*
X-73004D01*
X-71850Y43153D01*
Y46228D01*
X-82500Y44977D02*
X-81347Y46130D01*
X-78248D01*
X-82500Y36650D02*
Y44977D01*
X-78248Y46130D02*
X-78150Y46228D01*
X-89000Y52500D02*
X-86272Y49772D01*
X-78150D01*
X-89000Y52500D02*
Y58500D01*
X-85000Y62500D01*
X-78650D01*
X87185Y-72185D02*
Y-67185D01*
Y-72185D02*
X87500Y-72500D01*
X84500Y-64500D02*
X87185Y-67185D01*
X63500Y-64500D02*
X84500D01*
X60850Y-67150D02*
X63500Y-64500D01*
X60850Y-73000D02*
Y-67150D01*
X-83000Y56500D02*
X-78650D01*
X-84000Y71500D02*
Y77500D01*
X56575Y18075D02*
X82425D01*
X56500Y18150D02*
X56575Y18075D01*
X82425D02*
X82500Y18000D01*
X42000Y42500D02*
X56500Y28000D01*
Y18150D02*
Y28000D01*
Y8000D02*
Y11850D01*
X51000Y-1500D02*
Y25500D01*
Y-67240D02*
Y-1500D01*
X51150Y-1650D02*
X56500D01*
X51000Y-1500D02*
X51150Y-1650D01*
X70000Y71150D02*
Y85500D01*
Y71000D02*
Y71150D01*
X67000Y88500D02*
X70000Y85500D01*
X36226Y69752D02*
Y72774D01*
Y69752D02*
X41000Y64978D01*
X23500Y62500D02*
X31000Y70000D01*
X12827Y62500D02*
X23500D01*
X41000Y59000D02*
Y64978D01*
X12827Y72500D02*
X21000D01*
X17968Y83287D02*
X19680Y85000D01*
X12827Y82500D02*
X13614Y83287D01*
X17968D01*
X36680Y9000D02*
X37680Y8000D01*
X38000D01*
X32630Y9000D02*
X36680D01*
X32610D02*
X32630D01*
X67150Y-79000D02*
Y-73000D01*
X5150Y-91500D02*
X20000D01*
X23000Y-88500D01*
X5150Y-85500D02*
X16847D01*
X23000Y-88500D02*
Y-49500D01*
X16847Y-85500D02*
X18000Y-84347D01*
Y-48868D01*
X32610Y-21000D02*
Y-17610D01*
Y-27000D02*
Y-21000D01*
Y-27394D02*
Y-27000D01*
X41347Y-70848D02*
X42500Y-69695D01*
X38000Y-71087D02*
X38238Y-70848D01*
X41347D01*
X42500Y-69695D02*
Y-57500D01*
X40500Y-55500D02*
X42500Y-57500D01*
X36150Y-55500D02*
X40500D01*
X36150D02*
Y-49500D01*
X29850Y-61350D02*
X32500Y-64000D01*
X38000D01*
X29850Y-61350D02*
Y-55500D01*
X50500Y-85500D02*
Y-79000D01*
X41500Y-94500D02*
X50500Y-85500D01*
X60850Y-85150D02*
Y-79000D01*
X51500Y-94500D02*
X60850Y-85150D01*
Y-79000D02*
Y-73000D01*
X29850Y-91785D02*
X31500Y-93435D01*
Y-94500D02*
Y-93435D01*
X29850Y-91785D02*
Y-80000D01*
X29988Y-67681D02*
X30126Y-67543D01*
X29988Y-79862D02*
Y-67681D01*
X29850Y-80000D02*
X29988Y-79862D01*
X32610Y3000D02*
X33004Y2606D01*
Y-504D02*
Y2606D01*
Y-504D02*
X34500Y-2000D01*
Y-5000D02*
Y-2000D01*
Y-5000D02*
X37347D01*
X38500Y-6153D01*
Y-28368D02*
Y-6153D01*
X18000Y-48868D02*
X38500Y-28368D01*
X23000Y-49500D02*
X43000Y-29500D01*
Y19500D01*
X30766Y-48713D02*
Y-47234D01*
X47000Y-31000D01*
Y22000D01*
X29850Y-49500D02*
X29978D01*
X30766Y-48713D01*
X35000Y27500D02*
X43000Y19500D01*
X50500Y-67740D02*
X51000Y-67240D01*
X5980Y-70500D02*
X9000D01*
X5937Y-70457D02*
X5980Y-70500D01*
X2654Y-77846D02*
X5635D01*
X5937Y-77543D01*
X-1150Y-81650D02*
X2654Y-77846D01*
X-1150Y-85500D02*
Y-81650D01*
Y-91500D02*
Y-85500D01*
X12827Y27500D02*
X35000D01*
X26390Y3000D02*
Y9000D01*
X32630Y17480D02*
X32650Y17500D01*
X32610Y3000D02*
X32630Y3020D01*
X30000Y-15000D02*
Y-11500D01*
Y-15000D02*
X32610Y-17610D01*
X26390Y-27000D02*
Y-21000D01*
X-3500Y-67500D02*
Y-64075D01*
X-2713Y-63287D01*
X-2650D01*
X18779Y-11220D02*
X21260Y-8740D01*
X14500Y-11220D02*
X18779D01*
X21260Y-8740D02*
X25248D01*
X29000Y-5000D02*
X30000Y-6000D01*
X25248Y-5000D02*
X29000D01*
X30000Y-11500D02*
Y-6000D01*
X29020Y-12480D02*
X30000Y-11500D01*
X25248Y-12480D02*
X29020D01*
X14500Y-5000D02*
X25248D01*
X-64500Y82500D02*
X-58000D01*
X-84000Y71500D02*
X-78650D01*
X-84000Y77500D02*
X-78650D01*
X-72350Y56500D02*
Y62500D01*
X-67653D01*
X-66500Y63653D01*
Y70000D01*
X-64000Y72500D01*
X-72350Y71500D02*
Y77500D01*
Y68153D02*
Y71500D01*
X-76500Y67000D02*
X-73504D01*
X-72350Y68153D01*
X-77734Y65766D02*
X-76500Y67000D01*
X-77734Y63287D02*
Y65766D01*
X36500Y32500D02*
X47000Y22000D01*
X12827Y32500D02*
X36500D01*
X39000Y37500D02*
X51000Y25500D01*
X12827Y37500D02*
X39000D01*
X12827Y42500D02*
X42000D01*
X41000Y59000D02*
X63000D01*
X59000Y64850D02*
X59687Y65537D01*
X53000Y71150D02*
X59000D01*
X47000D02*
X53000D01*
X41000D02*
X47000D01*
X82350D02*
X82500Y71000D01*
X36000Y51000D02*
X70000D01*
X29500Y57500D02*
X36000Y51000D01*
X12827Y57500D02*
X29500D01*
X63000Y59000D02*
X64247Y60247D01*
X69247D02*
X70000Y61000D01*
X64247Y60247D02*
X69247D01*
X70000Y61000D02*
X82500D01*
X8555Y-11165D02*
X14445D01*
X8500Y-19370D02*
Y-11110D01*
X-63390Y-52500D02*
Y-46500D01*
X-55363Y-52500D02*
X-54863Y-53000D01*
X-63390Y-52500D02*
X-55363D01*
D65*
X-31457Y-39500D02*
X-5799D01*
X-2650Y-42650D01*
X41000Y-80000D02*
X46000Y-75000D01*
Y-71500D01*
X36150Y-80000D02*
X41000D01*
X36150D02*
X36500Y-80350D01*
X47000Y64850D02*
X53000D01*
X14445Y-11165D02*
X14500Y-11220D01*
X8500Y-11110D02*
X8555Y-11165D01*
X8500Y-19370D02*
X10000Y-20870D01*
X-31260Y-6713D02*
X-30547Y-6000D01*
X-20650D01*
X-19650Y-5000D01*
X-13350D02*
X-6150D01*
X-15000Y-9500D02*
X-14308Y-8808D01*
Y-5958D02*
X-13350Y-5000D01*
X-14308Y-8808D02*
Y-5958D01*
X-23500Y-9500D02*
X-15000D01*
X-24500Y-10500D02*
X-23500Y-9500D01*
X-24500Y-12500D02*
Y-10500D01*
X-25405Y-13406D02*
X-24500Y-12500D01*
X-31260Y-13406D02*
X-25405D01*
X-75748Y-20000D02*
X-69610Y-26138D01*
X-1937Y-70937D02*
X2341Y-66659D01*
X-1937Y-74000D02*
Y-70937D01*
X2341Y-66659D02*
Y-64468D01*
X3522Y-63287D02*
X3650D01*
X2341Y-64468D02*
X3522Y-63287D01*
X-2650Y-51000D02*
Y-42650D01*
X3650Y-57000D02*
Y-51000D01*
Y-63287D02*
Y-57000D01*
X-23800Y-55700D02*
X-22500Y-57000D01*
X-2650D01*
X-23800Y-55700D02*
Y-51900D01*
X-14000Y-46000D02*
X-13800Y-46200D01*
D66*
X-31457Y-47457D02*
Y-39500D01*
Y-34500D01*
X-35500Y-94500D02*
Y-84500D01*
Y-71500D01*
X-61500Y-94500D02*
Y-78768D01*
X-37000Y-53000D02*
X-31457Y-47457D01*
X-37000Y-70000D02*
Y-53000D01*
X-57861Y-61839D02*
Y-55998D01*
X-54863Y-53000D02*
X-37000D01*
X-57861Y-55998D02*
X-54863Y-53000D01*
X-58255Y-62232D02*
X-57861Y-61839D01*
X-61500Y-62232D02*
X-58255D01*
X-37000Y-70000D02*
X-35500Y-71500D01*
X-24870Y-84500D02*
X-18606D01*
X-16300Y-82194D02*
Y-67600D01*
X-18606Y-84500D02*
X-16300Y-82194D01*
D67*
X150Y-5000D02*
X14500D01*
X-8379Y-13379D02*
X-1465D01*
X150Y-11765D02*
Y-5000D01*
X-1465Y-13379D02*
X150Y-11765D01*
X-9000Y-14000D02*
X-8379Y-13379D01*
D68*
X3000Y-24000D02*
X5067Y-21933D01*
X8937D02*
X10000Y-20870D01*
X5067Y-21933D02*
X8937D01*
X-21500Y-24000D02*
X3000D01*
X-25402Y-20098D02*
X-21500Y-24000D01*
X-31260Y-20098D02*
X-25402D01*
X-8229Y-34000D02*
X-6359Y-32130D01*
X-19000Y-34000D02*
X-9000D01*
X-8229D01*
X-6359Y-32130D02*
X10000D01*
X-26012Y-26988D02*
X-19000Y-34000D01*
X-31260Y-26791D02*
X-31063Y-26988D01*
X-26012D01*
D69*
X-69610Y-46500D02*
Y-26138D01*
Y-52500D02*
Y-46500D01*
X-14000Y-46000D02*
X-10000D01*
X-18000D02*
X-14000D01*
X-13800Y-51900D02*
Y-46200D01*
X-10000Y-46000D02*
X-8800Y-47200D01*
Y-51900D02*
Y-47200D01*
X-18800Y-46800D02*
X-18000Y-46000D01*
X-18800Y-51900D02*
Y-46800D01*
D70*
X-25185Y-94185D02*
Y-84815D01*
X-25500Y-94500D02*
X-25185Y-94185D01*
D71*
X-84646Y102362D02*
D03*
Y-94488D02*
D03*
X84646D02*
D03*
Y102362D02*
D03*
D72*
X47000Y88500D02*
D03*
X-35500Y-94500D02*
D03*
X-61500D02*
D03*
X61500D02*
D03*
D73*
X47000Y98500D02*
D03*
X37000Y88500D02*
D03*
Y98500D02*
D03*
X27000Y88500D02*
D03*
Y98500D02*
D03*
X82500Y28000D02*
D03*
Y18000D02*
D03*
X-25500Y-94500D02*
D03*
X-51500D02*
D03*
X51500D02*
D03*
X41500D02*
D03*
X31500D02*
D03*
X82500Y61000D02*
D03*
Y51000D02*
D03*
Y41000D02*
D03*
X70000Y61000D02*
D03*
Y51000D02*
D03*
Y41000D02*
D03*
D74*
X87500Y-72500D02*
D03*
D75*
X77500D02*
D03*
D76*
X-9000Y-34000D02*
D03*
Y-14000D02*
D03*
D77*
X82500Y8000D02*
D03*
Y71000D02*
D03*
X70000D02*
D03*
D78*
X-47000Y-70000D02*
D03*
D79*
X-37000D02*
D03*
D80*
X69000Y1500D02*
D03*
X76000Y-22500D02*
D03*
X5000Y77000D02*
D03*
X841Y72000D02*
D03*
X-2500Y68000D02*
D03*
X17500Y-42500D02*
D03*
X44000D02*
D03*
X-83000Y56500D02*
D03*
X-84000Y74500D02*
D03*
X56500Y8000D02*
D03*
X36226Y72774D02*
D03*
X21000Y72500D02*
D03*
X50000Y65000D02*
D03*
X-70500Y-15000D02*
D03*
Y-20000D02*
D03*
Y-25000D02*
D03*
X-75748D02*
D03*
Y-15000D02*
D03*
Y-20000D02*
D03*
X-24500Y-6000D02*
D03*
X-1000Y-24000D02*
D03*
X-5500D02*
D03*
X-9500D02*
D03*
X-13500D02*
D03*
X-17500D02*
D03*
X38000Y8000D02*
D03*
X67150Y-76000D02*
D03*
X29850Y-61350D02*
D03*
X-64500Y82500D02*
D03*
X-50000Y11500D02*
D03*
X9000Y-70500D02*
D03*
X26390Y6000D02*
D03*
Y-24000D02*
D03*
X-3500Y-67500D02*
D03*
D81*
X-18500Y-52000D02*
D03*
X-14000D02*
D03*
X-9500D02*
D03*
X-9400Y-46100D02*
D03*
X-13900D02*
D03*
X-18400D02*
D03*
M02*
