G04*
G04 #@! TF.GenerationSoftware,Altium Limited,Altium Designer,21.6.4 (81)*
G04*
G04 Layer_Physical_Order=2*
G04 Layer_Color=16711680*
%FSLAX25Y25*%
%MOIN*%
G70*
G04*
G04 #@! TF.SameCoordinates,7C905695-A8D0-471C-AD1A-FFB52B7834A9*
G04*
G04*
G04 #@! TF.FilePolarity,Positive*
G04*
G01*
G75*
%ADD64C,0.01968*%
%ADD65C,0.01181*%
%ADD68C,0.03150*%
%ADD71C,0.13780*%
%ADD72R,0.05906X0.05906*%
%ADD73C,0.05906*%
%ADD74C,0.04724*%
%ADD75R,0.04724X0.04724*%
%ADD76C,0.06000*%
%ADD77R,0.05906X0.05906*%
%ADD78R,0.05906X0.07874*%
%ADD79O,0.05906X0.07874*%
%ADD80C,0.03150*%
%ADD81C,0.03937*%
G36*
X88665Y111652D02*
X89880Y111283D01*
X91000Y110685D01*
X91982Y109879D01*
X92787Y108898D01*
X93386Y107778D01*
X93754Y106563D01*
X93876Y105327D01*
X93871Y105299D01*
X93871Y-97626D01*
X93876Y-97654D01*
X93754Y-98890D01*
X93386Y-100105D01*
X92787Y-101225D01*
X91982Y-102206D01*
X91000Y-103012D01*
X89880Y-103610D01*
X88665Y-103979D01*
X87429Y-104101D01*
X87402Y-104095D01*
X-86905Y-104095D01*
X-87402Y-104095D01*
X-87885Y-104056D01*
X-88665Y-103979D01*
X-89880Y-103610D01*
X-91000Y-103012D01*
X-91982Y-102206D01*
X-92787Y-101225D01*
X-93386Y-100105D01*
X-93754Y-98890D01*
X-93876Y-97654D01*
X-93871Y-97626D01*
X-93871Y104801D01*
X-93871Y104808D01*
X-93871Y105299D01*
X-93831Y105783D01*
X-93754Y106563D01*
X-93386Y107778D01*
X-92787Y108898D01*
X-91982Y109879D01*
X-91000Y110685D01*
X-89880Y111283D01*
X-88665Y111652D01*
X-87429Y111774D01*
X-87402Y111768D01*
X-67874D01*
X-67847Y111774D01*
X-66610Y111652D01*
X-65395Y111283D01*
X-64275Y110685D01*
X-63294Y109879D01*
X-62488Y108898D01*
X-61890Y107778D01*
X-61521Y106563D01*
X-61400Y105327D01*
X-61405Y105299D01*
Y87500D01*
X-61407D01*
X-61292Y86626D01*
X-60955Y85812D01*
X-60418Y85113D01*
X-59719Y84577D01*
X-58905Y84240D01*
X-58031Y84125D01*
Y84127D01*
X13657D01*
Y84125D01*
X14531Y84240D01*
X15345Y84577D01*
X16044Y85113D01*
X16581Y85812D01*
X16918Y86626D01*
X17033Y87500D01*
X17031D01*
Y105299D01*
X17026Y105327D01*
X17147Y106563D01*
X17516Y107778D01*
X18114Y108898D01*
X18920Y109879D01*
X19901Y110685D01*
X21021Y111283D01*
X22236Y111652D01*
X23472Y111774D01*
X23500Y111768D01*
X87402Y111768D01*
X87429Y111774D01*
X88665Y111652D01*
D02*
G37*
G36*
X-120433Y-97943D02*
Y-98852D01*
X-121039D01*
Y-97971D01*
X-121921Y-96499D01*
X-121233D01*
X-120722Y-97408D01*
X-120231Y-96499D01*
X-119565D01*
X-120433Y-97943D01*
D02*
G37*
G36*
X-127913Y-98852D02*
X-128519D01*
Y-97277D01*
X-128956Y-98298D01*
X-129374D01*
X-129808Y-97277D01*
Y-98852D01*
X-130378D01*
Y-96499D01*
X-129677D01*
X-129147Y-97681D01*
X-128620Y-96499D01*
X-127913D01*
Y-98852D01*
D02*
G37*
G36*
X-115904Y-96502D02*
X-115847Y-96505D01*
X-115787Y-96510D01*
X-115724Y-96516D01*
X-115667Y-96524D01*
X-115661D01*
X-115653Y-96526D01*
X-115642Y-96529D01*
X-115612Y-96535D01*
X-115574Y-96546D01*
X-115533Y-96559D01*
X-115484Y-96578D01*
X-115435Y-96600D01*
X-115385Y-96627D01*
X-115383D01*
X-115380Y-96630D01*
X-115364Y-96641D01*
X-115339Y-96660D01*
X-115309Y-96682D01*
X-115276Y-96712D01*
X-115241Y-96748D01*
X-115208Y-96789D01*
X-115175Y-96832D01*
Y-96835D01*
X-115173Y-96838D01*
X-115167Y-96846D01*
X-115162Y-96854D01*
X-115151Y-96881D01*
X-115134Y-96920D01*
X-115121Y-96963D01*
X-115107Y-97018D01*
X-115099Y-97078D01*
X-115096Y-97146D01*
Y-97149D01*
Y-97157D01*
Y-97171D01*
X-115099Y-97190D01*
Y-97212D01*
X-115102Y-97239D01*
X-115107Y-97266D01*
X-115112Y-97296D01*
X-115126Y-97365D01*
X-115148Y-97436D01*
X-115178Y-97507D01*
X-115197Y-97539D01*
X-115219Y-97572D01*
Y-97575D01*
X-115224Y-97580D01*
X-115233Y-97588D01*
X-115241Y-97599D01*
X-115268Y-97629D01*
X-115306Y-97668D01*
X-115355Y-97711D01*
X-115415Y-97755D01*
X-115484Y-97801D01*
X-115563Y-97845D01*
X-114777Y-98852D01*
X-115519D01*
X-116158Y-97990D01*
X-116436D01*
Y-98852D01*
X-117043D01*
Y-96499D01*
X-115953D01*
X-115904Y-96502D01*
D02*
G37*
G36*
X-117550Y-96955D02*
X-118645D01*
Y-97359D01*
X-117629D01*
Y-97815D01*
X-118645D01*
Y-98397D01*
X-117550D01*
Y-98852D01*
X-119251D01*
Y-96499D01*
X-117550D01*
Y-96955D01*
D02*
G37*
G36*
X-121973Y-98852D02*
X-122601D01*
X-122765Y-98378D01*
X-123633D01*
X-123796Y-98852D01*
X-124408D01*
X-123540Y-96499D01*
X-122844D01*
X-121973Y-98852D01*
D02*
G37*
G36*
X-125601Y-98397D02*
X-124512D01*
Y-98852D01*
X-126207D01*
Y-96499D01*
X-125601D01*
Y-98397D01*
D02*
G37*
G36*
X-133493Y-96955D02*
X-134228D01*
Y-98852D01*
X-134834D01*
Y-96955D01*
X-135568D01*
Y-96499D01*
X-133493D01*
Y-96955D01*
D02*
G37*
G36*
X-135699D02*
X-136434D01*
Y-98852D01*
X-137040D01*
Y-96955D01*
X-137774D01*
Y-96499D01*
X-135699D01*
Y-96955D01*
D02*
G37*
G36*
X-141716Y-96502D02*
X-141683D01*
X-141615Y-96505D01*
X-141547Y-96507D01*
X-141481Y-96513D01*
X-141454Y-96516D01*
X-141427Y-96518D01*
X-141421D01*
X-141405Y-96521D01*
X-141378Y-96526D01*
X-141345Y-96535D01*
X-141304Y-96548D01*
X-141260Y-96562D01*
X-141214Y-96581D01*
X-141165Y-96603D01*
X-141162D01*
X-141159Y-96606D01*
X-141143Y-96617D01*
X-141118Y-96630D01*
X-141088Y-96652D01*
X-141058Y-96677D01*
X-141023Y-96710D01*
X-140993Y-96745D01*
X-140965Y-96786D01*
X-140963Y-96791D01*
X-140955Y-96805D01*
X-140944Y-96830D01*
X-140930Y-96862D01*
X-140919Y-96900D01*
X-140908Y-96944D01*
X-140900Y-96993D01*
X-140897Y-97048D01*
Y-97051D01*
Y-97056D01*
Y-97064D01*
Y-97075D01*
X-140900Y-97092D01*
X-140903Y-97108D01*
X-140908Y-97149D01*
X-140919Y-97195D01*
X-140936Y-97247D01*
X-140957Y-97296D01*
X-140987Y-97348D01*
Y-97351D01*
X-140993Y-97354D01*
X-141004Y-97370D01*
X-141025Y-97395D01*
X-141053Y-97422D01*
X-141088Y-97455D01*
X-141132Y-97487D01*
X-141184Y-97520D01*
X-141241Y-97550D01*
Y-97564D01*
X-141238D01*
X-141230Y-97567D01*
X-141219Y-97569D01*
X-141203Y-97572D01*
X-141184Y-97580D01*
X-141162Y-97586D01*
X-141110Y-97605D01*
X-141053Y-97632D01*
X-140990Y-97665D01*
X-140933Y-97706D01*
X-140878Y-97755D01*
X-140875Y-97758D01*
X-140873Y-97760D01*
X-140865Y-97769D01*
X-140856Y-97780D01*
X-140845Y-97796D01*
X-140834Y-97812D01*
X-140823Y-97831D01*
X-140810Y-97856D01*
X-140796Y-97881D01*
X-140785Y-97911D01*
X-140763Y-97973D01*
X-140747Y-98047D01*
X-140744Y-98088D01*
X-140742Y-98132D01*
Y-98134D01*
Y-98140D01*
Y-98148D01*
Y-98162D01*
X-140744Y-98176D01*
Y-98192D01*
X-140750Y-98235D01*
X-140758Y-98282D01*
X-140772Y-98334D01*
X-140788Y-98386D01*
X-140813Y-98438D01*
Y-98440D01*
X-140815Y-98443D01*
X-140826Y-98459D01*
X-140840Y-98484D01*
X-140862Y-98517D01*
X-140889Y-98552D01*
X-140922Y-98588D01*
X-140957Y-98626D01*
X-141001Y-98661D01*
X-141004D01*
X-141006Y-98667D01*
X-141015Y-98672D01*
X-141025Y-98678D01*
X-141053Y-98697D01*
X-141091Y-98719D01*
X-141138Y-98743D01*
X-141189Y-98768D01*
X-141247Y-98790D01*
X-141307Y-98809D01*
X-141309D01*
X-141315Y-98812D01*
X-141323D01*
X-141337Y-98814D01*
X-141353Y-98820D01*
X-141372Y-98822D01*
X-141397Y-98825D01*
X-141421Y-98831D01*
X-141451Y-98833D01*
X-141481Y-98839D01*
X-141517Y-98842D01*
X-141555Y-98844D01*
X-141637Y-98850D01*
X-141727Y-98852D01*
X-142754D01*
Y-96499D01*
X-141746D01*
X-141716Y-96502D01*
D02*
G37*
G36*
X-132000Y-96453D02*
X-131962Y-96456D01*
X-131913Y-96461D01*
X-131858Y-96466D01*
X-131798Y-96477D01*
X-131733Y-96491D01*
X-131662Y-96510D01*
X-131591Y-96532D01*
X-131517Y-96557D01*
X-131443Y-96589D01*
X-131369Y-96627D01*
X-131299Y-96671D01*
X-131230Y-96723D01*
X-131167Y-96780D01*
X-131165Y-96783D01*
X-131154Y-96797D01*
X-131138Y-96816D01*
X-131116Y-96841D01*
X-131091Y-96873D01*
X-131064Y-96914D01*
X-131036Y-96963D01*
X-131004Y-97015D01*
X-130974Y-97078D01*
X-130946Y-97144D01*
X-130919Y-97217D01*
X-130894Y-97299D01*
X-130873Y-97384D01*
X-130856Y-97477D01*
X-130845Y-97575D01*
X-130843Y-97679D01*
Y-97681D01*
Y-97684D01*
Y-97692D01*
Y-97703D01*
X-130845Y-97733D01*
X-130848Y-97771D01*
X-130854Y-97818D01*
X-130859Y-97875D01*
X-130870Y-97935D01*
X-130884Y-98001D01*
X-130900Y-98072D01*
X-130922Y-98143D01*
X-130946Y-98219D01*
X-130979Y-98293D01*
X-131015Y-98367D01*
X-131058Y-98438D01*
X-131107Y-98506D01*
X-131165Y-98571D01*
X-131167Y-98574D01*
X-131178Y-98585D01*
X-131198Y-98601D01*
X-131225Y-98623D01*
X-131258Y-98648D01*
X-131296Y-98675D01*
X-131342Y-98705D01*
X-131397Y-98735D01*
X-131457Y-98768D01*
X-131522Y-98798D01*
X-131596Y-98825D01*
X-131675Y-98850D01*
X-131763Y-98872D01*
X-131853Y-98888D01*
X-131951Y-98899D01*
X-132055Y-98902D01*
X-132093D01*
X-132109Y-98899D01*
X-132148Y-98896D01*
X-132197Y-98891D01*
X-132251Y-98885D01*
X-132311Y-98874D01*
X-132380Y-98861D01*
X-132448Y-98842D01*
X-132522Y-98820D01*
X-132595Y-98795D01*
X-132669Y-98762D01*
X-132743Y-98724D01*
X-132814Y-98681D01*
X-132882Y-98629D01*
X-132945Y-98571D01*
X-132948Y-98569D01*
X-132958Y-98555D01*
X-132975Y-98536D01*
X-132994Y-98511D01*
X-133019Y-98479D01*
X-133046Y-98438D01*
X-133076Y-98391D01*
X-133103Y-98336D01*
X-133133Y-98277D01*
X-133163Y-98208D01*
X-133191Y-98134D01*
X-133215Y-98055D01*
X-133234Y-97971D01*
X-133250Y-97878D01*
X-133261Y-97782D01*
X-133264Y-97679D01*
Y-97676D01*
Y-97673D01*
Y-97665D01*
Y-97654D01*
Y-97640D01*
X-133261Y-97624D01*
X-133259Y-97586D01*
X-133253Y-97537D01*
X-133248Y-97482D01*
X-133237Y-97419D01*
X-133223Y-97354D01*
X-133207Y-97283D01*
X-133185Y-97209D01*
X-133160Y-97135D01*
X-133130Y-97059D01*
X-133092Y-96985D01*
X-133051Y-96914D01*
X-133002Y-96846D01*
X-132945Y-96780D01*
X-132942Y-96778D01*
X-132928Y-96767D01*
X-132912Y-96750D01*
X-132885Y-96729D01*
X-132852Y-96704D01*
X-132814Y-96677D01*
X-132767Y-96647D01*
X-132713Y-96614D01*
X-132653Y-96584D01*
X-132587Y-96554D01*
X-132513Y-96526D01*
X-132434Y-96502D01*
X-132347Y-96480D01*
X-132257Y-96464D01*
X-132159Y-96453D01*
X-132055Y-96450D01*
X-132030D01*
X-132000Y-96453D01*
D02*
G37*
G36*
X-139161D02*
X-139123Y-96456D01*
X-139074Y-96461D01*
X-139019Y-96466D01*
X-138959Y-96477D01*
X-138893Y-96491D01*
X-138822Y-96510D01*
X-138751Y-96532D01*
X-138678Y-96557D01*
X-138604Y-96589D01*
X-138530Y-96627D01*
X-138459Y-96671D01*
X-138391Y-96723D01*
X-138328Y-96780D01*
X-138326Y-96783D01*
X-138315Y-96797D01*
X-138298Y-96816D01*
X-138276Y-96841D01*
X-138252Y-96873D01*
X-138225Y-96914D01*
X-138197Y-96963D01*
X-138164Y-97015D01*
X-138135Y-97078D01*
X-138107Y-97144D01*
X-138080Y-97217D01*
X-138055Y-97299D01*
X-138033Y-97384D01*
X-138017Y-97477D01*
X-138006Y-97575D01*
X-138003Y-97679D01*
Y-97681D01*
Y-97684D01*
Y-97692D01*
Y-97703D01*
X-138006Y-97733D01*
X-138009Y-97771D01*
X-138014Y-97818D01*
X-138020Y-97875D01*
X-138031Y-97935D01*
X-138044Y-98001D01*
X-138061Y-98072D01*
X-138083Y-98143D01*
X-138107Y-98219D01*
X-138140Y-98293D01*
X-138175Y-98367D01*
X-138219Y-98438D01*
X-138268Y-98506D01*
X-138326Y-98571D01*
X-138328Y-98574D01*
X-138339Y-98585D01*
X-138358Y-98601D01*
X-138386Y-98623D01*
X-138418Y-98648D01*
X-138457Y-98675D01*
X-138503Y-98705D01*
X-138558Y-98735D01*
X-138618Y-98768D01*
X-138683Y-98798D01*
X-138757Y-98825D01*
X-138836Y-98850D01*
X-138924Y-98872D01*
X-139014Y-98888D01*
X-139112Y-98899D01*
X-139216Y-98902D01*
X-139254D01*
X-139270Y-98899D01*
X-139308Y-98896D01*
X-139357Y-98891D01*
X-139412Y-98885D01*
X-139472Y-98874D01*
X-139540Y-98861D01*
X-139609Y-98842D01*
X-139682Y-98820D01*
X-139756Y-98795D01*
X-139830Y-98762D01*
X-139903Y-98724D01*
X-139974Y-98681D01*
X-140043Y-98629D01*
X-140105Y-98571D01*
X-140108Y-98569D01*
X-140119Y-98555D01*
X-140136Y-98536D01*
X-140155Y-98511D01*
X-140179Y-98479D01*
X-140207Y-98438D01*
X-140237Y-98391D01*
X-140264Y-98336D01*
X-140294Y-98277D01*
X-140324Y-98208D01*
X-140351Y-98134D01*
X-140376Y-98055D01*
X-140395Y-97971D01*
X-140411Y-97878D01*
X-140422Y-97782D01*
X-140425Y-97679D01*
Y-97676D01*
Y-97673D01*
Y-97665D01*
Y-97654D01*
Y-97640D01*
X-140422Y-97624D01*
X-140419Y-97586D01*
X-140414Y-97537D01*
X-140409Y-97482D01*
X-140398Y-97419D01*
X-140384Y-97354D01*
X-140368Y-97283D01*
X-140346Y-97209D01*
X-140321Y-97135D01*
X-140291Y-97059D01*
X-140253Y-96985D01*
X-140212Y-96914D01*
X-140163Y-96846D01*
X-140105Y-96780D01*
X-140103Y-96778D01*
X-140089Y-96767D01*
X-140073Y-96750D01*
X-140045Y-96729D01*
X-140013Y-96704D01*
X-139974Y-96677D01*
X-139928Y-96647D01*
X-139874Y-96614D01*
X-139813Y-96584D01*
X-139748Y-96554D01*
X-139674Y-96526D01*
X-139595Y-96502D01*
X-139508Y-96480D01*
X-139418Y-96464D01*
X-139319Y-96453D01*
X-139216Y-96450D01*
X-139191D01*
X-139161Y-96453D01*
D02*
G37*
%LPC*%
G36*
X28575Y103174D02*
Y100075D01*
X31674D01*
X31299Y100982D01*
X30510Y102010D01*
X29482Y102799D01*
X28575Y103174D01*
D02*
G37*
G36*
X25425D02*
X24518Y102799D01*
X23490Y102010D01*
X22701Y100982D01*
X22326Y100075D01*
X25425D01*
Y103174D01*
D02*
G37*
G36*
X37000Y102670D02*
X35921Y102527D01*
X34915Y102111D01*
X34052Y101448D01*
X33389Y100585D01*
X32973Y99579D01*
X32831Y98500D01*
X32973Y97421D01*
X33389Y96415D01*
X34052Y95552D01*
X34915Y94889D01*
X35921Y94473D01*
X37000Y94331D01*
X38079Y94473D01*
X39085Y94889D01*
X39948Y95552D01*
X40611Y96415D01*
X41027Y97421D01*
X41170Y98500D01*
X41027Y99579D01*
X40611Y100585D01*
X39948Y101448D01*
X39085Y102111D01*
X38079Y102527D01*
X37000Y102670D01*
D02*
G37*
G36*
X84646Y110472D02*
X83064Y110316D01*
X81542Y109855D01*
X80140Y109105D01*
X78911Y108097D01*
X77903Y106868D01*
X77153Y105466D01*
X76692Y103944D01*
X76536Y102362D01*
X76692Y100780D01*
X77153Y99259D01*
X77903Y97857D01*
X78911Y96628D01*
X80140Y95619D01*
X81542Y94870D01*
X83064Y94408D01*
X84646Y94252D01*
X86228Y94408D01*
X87749Y94870D01*
X89151Y95619D01*
X90380Y96628D01*
X91389Y97857D01*
X92138Y99259D01*
X92600Y100780D01*
X92756Y102362D01*
X92600Y103944D01*
X92138Y105466D01*
X91389Y106868D01*
X90380Y108097D01*
X89151Y109105D01*
X87749Y109855D01*
X86228Y110316D01*
X84646Y110472D01*
D02*
G37*
G36*
X-84646D02*
X-86228Y110316D01*
X-87749Y109855D01*
X-89151Y109105D01*
X-90380Y108097D01*
X-91389Y106868D01*
X-92138Y105466D01*
X-92600Y103944D01*
X-92756Y102362D01*
X-92600Y100780D01*
X-92138Y99259D01*
X-91389Y97857D01*
X-90380Y96628D01*
X-89151Y95619D01*
X-87749Y94870D01*
X-86228Y94408D01*
X-84646Y94252D01*
X-83064Y94408D01*
X-81542Y94870D01*
X-80140Y95619D01*
X-78911Y96628D01*
X-77903Y97857D01*
X-77153Y99259D01*
X-76692Y100780D01*
X-76536Y102362D01*
X-76692Y103944D01*
X-77153Y105466D01*
X-77903Y106868D01*
X-78911Y108097D01*
X-80140Y109105D01*
X-81542Y109855D01*
X-83064Y110316D01*
X-84646Y110472D01*
D02*
G37*
G36*
X31674Y96925D02*
X28575D01*
Y93826D01*
X29482Y94201D01*
X30510Y94990D01*
X31299Y96018D01*
X31674Y96925D01*
D02*
G37*
G36*
X25425D02*
X22326D01*
X22701Y96018D01*
X23490Y94990D01*
X24518Y94201D01*
X25425Y93826D01*
Y96925D01*
D02*
G37*
G36*
X37000Y92669D02*
X35921Y92527D01*
X34915Y92111D01*
X34052Y91448D01*
X33389Y90585D01*
X32973Y89579D01*
X32831Y88500D01*
X32973Y87421D01*
X33389Y86415D01*
X34052Y85552D01*
X34915Y84889D01*
X35921Y84473D01*
X37000Y84330D01*
X38079Y84473D01*
X39085Y84889D01*
X39948Y85552D01*
X40611Y86415D01*
X41027Y87421D01*
X41170Y88500D01*
X41027Y89579D01*
X40611Y90585D01*
X39948Y91448D01*
X39085Y92111D01*
X38079Y92527D01*
X37000Y92669D01*
D02*
G37*
G36*
X47000Y102670D02*
X45921Y102527D01*
X44915Y102111D01*
X44052Y101448D01*
X43389Y100585D01*
X42973Y99579D01*
X42831Y98500D01*
X42973Y97421D01*
X43389Y96415D01*
X44052Y95552D01*
X44915Y94889D01*
X45921Y94473D01*
X47000Y94331D01*
X48079Y94473D01*
X49017Y94861D01*
X50744Y93134D01*
X50537Y92634D01*
X42866D01*
Y84366D01*
X44675D01*
X44744Y83866D01*
X43586Y82708D01*
X23000D01*
X22962Y82700D01*
X22716Y83161D01*
X24648Y85094D01*
X24915Y84889D01*
X25921Y84473D01*
X27000Y84330D01*
X28079Y84473D01*
X29085Y84889D01*
X29948Y85552D01*
X30611Y86415D01*
X31027Y87421D01*
X31170Y88500D01*
X31027Y89579D01*
X30611Y90585D01*
X29948Y91448D01*
X29085Y92111D01*
X28079Y92527D01*
X27000Y92669D01*
X25921Y92527D01*
X24915Y92111D01*
X24052Y91448D01*
X23389Y90585D01*
X22973Y89579D01*
X22830Y88500D01*
X22845Y88389D01*
X22813Y88368D01*
X13252Y78806D01*
X7088D01*
X6966Y78966D01*
X6390Y79407D01*
X5719Y79685D01*
X5000Y79780D01*
X4281Y79685D01*
X3610Y79407D01*
X3035Y78966D01*
X2593Y78390D01*
X2315Y77719D01*
X2220Y77000D01*
X2315Y76281D01*
X2593Y75610D01*
X3035Y75034D01*
X3460Y74708D01*
X3291Y74208D01*
X2491D01*
X2231Y74407D01*
X1560Y74685D01*
X841Y74780D01*
X122Y74685D01*
X-549Y74407D01*
X-1125Y73966D01*
X-1566Y73390D01*
X-1844Y72719D01*
X-1939Y72000D01*
X-1844Y71281D01*
X-1808Y71193D01*
X-2159Y70735D01*
X-2500Y70780D01*
X-3219Y70685D01*
X-3890Y70407D01*
X-4465Y69965D01*
X-4907Y69390D01*
X-5185Y68719D01*
X-5280Y68000D01*
X-5185Y67281D01*
X-4907Y66610D01*
X-4465Y66035D01*
X-3890Y65593D01*
X-3219Y65315D01*
X-2500Y65220D01*
X-1781Y65315D01*
X-1110Y65593D01*
X-850Y65792D01*
X40500D01*
X41345Y65960D01*
X42061Y66439D01*
X55061Y79439D01*
X55540Y80155D01*
X55708Y81000D01*
Y93500D01*
X55540Y94345D01*
X55061Y95061D01*
X51518Y98604D01*
X51121Y98870D01*
X51027Y99579D01*
X50611Y100585D01*
X49948Y101448D01*
X49085Y102111D01*
X48079Y102527D01*
X47000Y102670D01*
D02*
G37*
G36*
X86634Y75134D02*
X78366D01*
Y66866D01*
X86634D01*
Y75134D01*
D02*
G37*
G36*
X74134D02*
X65866D01*
Y66866D01*
X74134D01*
Y75134D01*
D02*
G37*
G36*
X82500Y65170D02*
X81421Y65027D01*
X80415Y64611D01*
X79552Y63948D01*
X78889Y63085D01*
X78473Y62079D01*
X78330Y61000D01*
X78473Y59921D01*
X78889Y58915D01*
X79552Y58052D01*
X80415Y57389D01*
X81421Y56973D01*
X82500Y56831D01*
X83579Y56973D01*
X84585Y57389D01*
X85448Y58052D01*
X86111Y58915D01*
X86527Y59921D01*
X86669Y61000D01*
X86527Y62079D01*
X86111Y63085D01*
X85448Y63948D01*
X84585Y64611D01*
X83579Y65027D01*
X82500Y65170D01*
D02*
G37*
G36*
X70000D02*
X68921Y65027D01*
X67915Y64611D01*
X67052Y63948D01*
X66389Y63085D01*
X65973Y62079D01*
X65830Y61000D01*
X65973Y59921D01*
X66389Y58915D01*
X67052Y58052D01*
X67915Y57389D01*
X68921Y56973D01*
X70000Y56831D01*
X71079Y56973D01*
X72085Y57389D01*
X72948Y58052D01*
X73611Y58915D01*
X74027Y59921D01*
X74169Y61000D01*
X74027Y62079D01*
X73611Y63085D01*
X72948Y63948D01*
X72085Y64611D01*
X71079Y65027D01*
X70000Y65170D01*
D02*
G37*
G36*
X82500Y55169D02*
X81421Y55027D01*
X80415Y54611D01*
X79552Y53948D01*
X78889Y53085D01*
X78473Y52079D01*
X78330Y51000D01*
X78473Y49921D01*
X78889Y48915D01*
X79552Y48052D01*
X80415Y47389D01*
X81421Y46973D01*
X82500Y46830D01*
X83579Y46973D01*
X84585Y47389D01*
X85448Y48052D01*
X86111Y48915D01*
X86527Y49921D01*
X86669Y51000D01*
X86527Y52079D01*
X86111Y53085D01*
X85448Y53948D01*
X84585Y54611D01*
X83579Y55027D01*
X82500Y55169D01*
D02*
G37*
G36*
X70000D02*
X68921Y55027D01*
X67915Y54611D01*
X67052Y53948D01*
X66389Y53085D01*
X65973Y52079D01*
X65830Y51000D01*
X65973Y49921D01*
X66389Y48915D01*
X67052Y48052D01*
X67915Y47389D01*
X68921Y46973D01*
X70000Y46830D01*
X71079Y46973D01*
X72085Y47389D01*
X72948Y48052D01*
X73611Y48915D01*
X74027Y49921D01*
X74169Y51000D01*
X74027Y52079D01*
X73611Y53085D01*
X72948Y53948D01*
X72085Y54611D01*
X71079Y55027D01*
X70000Y55169D01*
D02*
G37*
G36*
X84075Y45674D02*
Y42575D01*
X87174D01*
X86799Y43482D01*
X86010Y44510D01*
X84982Y45299D01*
X84075Y45674D01*
D02*
G37*
G36*
X71575D02*
Y42575D01*
X74674D01*
X74299Y43482D01*
X73510Y44510D01*
X72482Y45299D01*
X71575Y45674D01*
D02*
G37*
G36*
X68425D02*
X67518Y45299D01*
X66490Y44510D01*
X65701Y43482D01*
X65326Y42575D01*
X68425D01*
Y45674D01*
D02*
G37*
G36*
X80925D02*
X80018Y45299D01*
X78990Y44510D01*
X78201Y43482D01*
X77826Y42575D01*
X80925D01*
Y45674D01*
D02*
G37*
G36*
X87174Y39425D02*
X84075D01*
Y36326D01*
X84982Y36701D01*
X86010Y37490D01*
X86799Y38518D01*
X87174Y39425D01*
D02*
G37*
G36*
X74674D02*
X71575D01*
Y36326D01*
X72482Y36701D01*
X73510Y37490D01*
X74299Y38518D01*
X74674Y39425D01*
D02*
G37*
G36*
X80925D02*
X77826D01*
X78201Y38518D01*
X78990Y37490D01*
X80018Y36701D01*
X80925Y36326D01*
Y39425D01*
D02*
G37*
G36*
X68425D02*
X65326D01*
X65701Y38518D01*
X66490Y37490D01*
X67518Y36701D01*
X68425Y36326D01*
Y39425D01*
D02*
G37*
G36*
X84075Y32674D02*
Y29575D01*
X87174D01*
X86799Y30482D01*
X86010Y31510D01*
X84982Y32299D01*
X84075Y32674D01*
D02*
G37*
G36*
X80925D02*
X80018Y32299D01*
X78990Y31510D01*
X78201Y30482D01*
X77826Y29575D01*
X80925D01*
Y32674D01*
D02*
G37*
G36*
X87174Y26425D02*
X84075D01*
Y23326D01*
X84982Y23701D01*
X86010Y24490D01*
X86799Y25518D01*
X87174Y26425D01*
D02*
G37*
G36*
X80925D02*
X77826D01*
X78201Y25518D01*
X78990Y24490D01*
X80018Y23701D01*
X80925Y23326D01*
Y26425D01*
D02*
G37*
G36*
X82500Y22170D02*
X81421Y22027D01*
X80415Y21611D01*
X79552Y20948D01*
X78889Y20085D01*
X78473Y19079D01*
X78330Y18000D01*
X78473Y16921D01*
X78889Y15915D01*
X79552Y15052D01*
X80415Y14389D01*
X81421Y13973D01*
X82500Y13830D01*
X83579Y13973D01*
X84585Y14389D01*
X85448Y15052D01*
X86111Y15915D01*
X86527Y16921D01*
X86669Y18000D01*
X86527Y19079D01*
X86111Y20085D01*
X85448Y20948D01*
X84585Y21611D01*
X83579Y22027D01*
X82500Y22170D01*
D02*
G37*
G36*
X56500Y10780D02*
X38000D01*
X37281Y10685D01*
X36610Y10407D01*
X36035Y9966D01*
X35593Y9390D01*
X35315Y8719D01*
X35220Y8000D01*
X35315Y7281D01*
X35593Y6610D01*
X36035Y6035D01*
X36610Y5593D01*
X37281Y5315D01*
X38000Y5220D01*
X56500D01*
X57219Y5315D01*
X57890Y5593D01*
X58465Y6035D01*
X58907Y6610D01*
X59185Y7281D01*
X59280Y8000D01*
X59185Y8719D01*
X58907Y9390D01*
X58465Y9966D01*
X57890Y10407D01*
X57219Y10685D01*
X56500Y10780D01*
D02*
G37*
G36*
X86634Y12134D02*
X78366D01*
Y3866D01*
X86634D01*
Y12134D01*
D02*
G37*
G36*
X-9000Y-9783D02*
X-10091Y-9927D01*
X-11109Y-10348D01*
X-11982Y-11018D01*
X-12652Y-11891D01*
X-13073Y-12909D01*
X-13217Y-14000D01*
X-13073Y-15091D01*
X-12652Y-16109D01*
X-11982Y-16982D01*
X-11109Y-17652D01*
X-10091Y-18074D01*
X-9000Y-18217D01*
X-7908Y-18074D01*
X-6891Y-17652D01*
X-6018Y-16982D01*
X-5348Y-16109D01*
X-4927Y-15091D01*
X-4783Y-14000D01*
X-4927Y-12909D01*
X-5348Y-11891D01*
X-6018Y-11018D01*
X-6891Y-10348D01*
X-7908Y-9927D01*
X-9000Y-9783D01*
D02*
G37*
G36*
Y-29783D02*
X-10091Y-29926D01*
X-11109Y-30348D01*
X-11982Y-31018D01*
X-12652Y-31891D01*
X-13073Y-32908D01*
X-13217Y-34000D01*
X-13073Y-35092D01*
X-12652Y-36109D01*
X-11982Y-36982D01*
X-11109Y-37652D01*
X-10091Y-38074D01*
X-9000Y-38217D01*
X-7908Y-38074D01*
X-6891Y-37652D01*
X-6018Y-36982D01*
X-5348Y-36109D01*
X-4927Y-35092D01*
X-4783Y-34000D01*
X-4927Y-32908D01*
X-5348Y-31891D01*
X-6018Y-31018D01*
X-6891Y-30348D01*
X-7908Y-29926D01*
X-9000Y-29783D01*
D02*
G37*
G36*
X44000Y-39720D02*
X17500D01*
X16781Y-39815D01*
X16110Y-40093D01*
X15534Y-40534D01*
X15093Y-41110D01*
X14815Y-41781D01*
X14720Y-42500D01*
X14815Y-43219D01*
X15093Y-43890D01*
X15534Y-44466D01*
X16110Y-44907D01*
X16781Y-45185D01*
X17500Y-45280D01*
X44000D01*
X44719Y-45185D01*
X45390Y-44907D01*
X45965Y-44466D01*
X46407Y-43890D01*
X46685Y-43219D01*
X46780Y-42500D01*
X46685Y-41781D01*
X46407Y-41110D01*
X45965Y-40534D01*
X45390Y-40093D01*
X44719Y-39815D01*
X44000Y-39720D01*
D02*
G37*
G36*
X-42079Y-64095D02*
X-45425D01*
Y-68425D01*
X-42079D01*
Y-64095D01*
D02*
G37*
G36*
X-48575D02*
X-51921D01*
Y-68425D01*
X-48575D01*
Y-64095D01*
D02*
G37*
G36*
X81831Y-68169D02*
X79075D01*
Y-70925D01*
X81831D01*
Y-68169D01*
D02*
G37*
G36*
X75925D02*
X73169D01*
Y-70925D01*
X75925D01*
Y-68169D01*
D02*
G37*
G36*
X-37000Y-64846D02*
X-38079Y-64988D01*
X-39085Y-65405D01*
X-39948Y-66067D01*
X-40611Y-66931D01*
X-41027Y-67937D01*
X-41170Y-69016D01*
Y-70984D01*
X-41027Y-72063D01*
X-40611Y-73069D01*
X-39948Y-73933D01*
X-39085Y-74595D01*
X-38079Y-75012D01*
X-37000Y-75154D01*
X-35921Y-75012D01*
X-34915Y-74595D01*
X-34052Y-73933D01*
X-33389Y-73069D01*
X-32973Y-72063D01*
X-32831Y-70984D01*
Y-69016D01*
X-32973Y-67937D01*
X-33389Y-66931D01*
X-34052Y-66067D01*
X-34915Y-65405D01*
X-35921Y-64988D01*
X-37000Y-64846D01*
D02*
G37*
G36*
X-42079Y-71575D02*
X-45425D01*
Y-75906D01*
X-42079D01*
Y-71575D01*
D02*
G37*
G36*
X-48575D02*
X-51921D01*
Y-75906D01*
X-48575D01*
Y-71575D01*
D02*
G37*
G36*
X87500Y-68926D02*
X86575Y-69048D01*
X85713Y-69405D01*
X84973Y-69973D01*
X84405Y-70713D01*
X84048Y-71575D01*
X83926Y-72500D01*
X84048Y-73425D01*
X84405Y-74287D01*
X84973Y-75027D01*
X85713Y-75595D01*
X86575Y-75952D01*
X87500Y-76074D01*
X88425Y-75952D01*
X89287Y-75595D01*
X90027Y-75027D01*
X90595Y-74287D01*
X90952Y-73425D01*
X91074Y-72500D01*
X90952Y-71575D01*
X90595Y-70713D01*
X90027Y-69973D01*
X89287Y-69405D01*
X88425Y-69048D01*
X87500Y-68926D01*
D02*
G37*
G36*
X81831Y-74075D02*
X79075D01*
Y-76831D01*
X81831D01*
Y-74075D01*
D02*
G37*
G36*
X75925D02*
X73169D01*
Y-76831D01*
X75925D01*
Y-74075D01*
D02*
G37*
G36*
X66421Y-89579D02*
X63075D01*
Y-92925D01*
X66421D01*
Y-89579D01*
D02*
G37*
G36*
X-49925Y-89826D02*
Y-92925D01*
X-46826D01*
X-47201Y-92018D01*
X-47990Y-90990D01*
X-49018Y-90201D01*
X-49925Y-89826D01*
D02*
G37*
G36*
X-53075D02*
X-53982Y-90201D01*
X-55010Y-90990D01*
X-55799Y-92018D01*
X-56174Y-92925D01*
X-53075D01*
Y-89826D01*
D02*
G37*
G36*
X59925Y-89579D02*
X56579D01*
Y-92925D01*
X59925D01*
Y-89579D01*
D02*
G37*
G36*
X-31366Y-90366D02*
X-39634D01*
Y-98634D01*
X-31366D01*
Y-90366D01*
D02*
G37*
G36*
X-57366D02*
X-65634D01*
Y-98634D01*
X-57366D01*
Y-90366D01*
D02*
G37*
G36*
X51500Y-90330D02*
X50421Y-90473D01*
X49415Y-90889D01*
X48552Y-91552D01*
X47889Y-92415D01*
X47473Y-93421D01*
X47330Y-94500D01*
X47473Y-95579D01*
X47889Y-96585D01*
X48552Y-97448D01*
X49415Y-98111D01*
X50421Y-98527D01*
X51500Y-98669D01*
X52579Y-98527D01*
X53585Y-98111D01*
X54448Y-97448D01*
X55111Y-96585D01*
X55527Y-95579D01*
X55669Y-94500D01*
X55527Y-93421D01*
X55111Y-92415D01*
X54448Y-91552D01*
X53585Y-90889D01*
X52579Y-90473D01*
X51500Y-90330D01*
D02*
G37*
G36*
X41500D02*
X40421Y-90473D01*
X39415Y-90889D01*
X38552Y-91552D01*
X37889Y-92415D01*
X37473Y-93421D01*
X37330Y-94500D01*
X37473Y-95579D01*
X37889Y-96585D01*
X38552Y-97448D01*
X39415Y-98111D01*
X40421Y-98527D01*
X41500Y-98669D01*
X42579Y-98527D01*
X43585Y-98111D01*
X44448Y-97448D01*
X45111Y-96585D01*
X45527Y-95579D01*
X45669Y-94500D01*
X45527Y-93421D01*
X45111Y-92415D01*
X44448Y-91552D01*
X43585Y-90889D01*
X42579Y-90473D01*
X41500Y-90330D01*
D02*
G37*
G36*
X31500D02*
X30421Y-90473D01*
X29415Y-90889D01*
X28552Y-91552D01*
X27889Y-92415D01*
X27473Y-93421D01*
X27330Y-94500D01*
X27473Y-95579D01*
X27889Y-96585D01*
X28552Y-97448D01*
X29415Y-98111D01*
X30421Y-98527D01*
X31500Y-98669D01*
X32579Y-98527D01*
X33585Y-98111D01*
X34448Y-97448D01*
X35111Y-96585D01*
X35527Y-95579D01*
X35669Y-94500D01*
X35527Y-93421D01*
X35111Y-92415D01*
X34448Y-91552D01*
X33585Y-90889D01*
X32579Y-90473D01*
X31500Y-90330D01*
D02*
G37*
G36*
X-25500D02*
X-26579Y-90473D01*
X-27585Y-90889D01*
X-28448Y-91552D01*
X-29111Y-92415D01*
X-29527Y-93421D01*
X-29669Y-94500D01*
X-29527Y-95579D01*
X-29111Y-96585D01*
X-28448Y-97448D01*
X-27585Y-98111D01*
X-26579Y-98527D01*
X-25500Y-98669D01*
X-24421Y-98527D01*
X-23415Y-98111D01*
X-22552Y-97448D01*
X-21889Y-96585D01*
X-21473Y-95579D01*
X-21330Y-94500D01*
X-21473Y-93421D01*
X-21889Y-92415D01*
X-22552Y-91552D01*
X-23415Y-90889D01*
X-24421Y-90473D01*
X-25500Y-90330D01*
D02*
G37*
G36*
X-46826Y-96075D02*
X-49925D01*
Y-99174D01*
X-49018Y-98799D01*
X-47990Y-98010D01*
X-47201Y-96982D01*
X-46826Y-96075D01*
D02*
G37*
G36*
X-53075D02*
X-56174D01*
X-55799Y-96982D01*
X-55010Y-98010D01*
X-53982Y-98799D01*
X-53075Y-99174D01*
Y-96075D01*
D02*
G37*
G36*
X66421D02*
X63075D01*
Y-99421D01*
X66421D01*
Y-96075D01*
D02*
G37*
G36*
X59925D02*
X56579D01*
Y-99421D01*
X59925D01*
Y-96075D01*
D02*
G37*
G36*
X84646Y-86378D02*
X83064Y-86534D01*
X81542Y-86996D01*
X80140Y-87745D01*
X78911Y-88754D01*
X77903Y-89983D01*
X77153Y-91385D01*
X76692Y-92906D01*
X76536Y-94488D01*
X76692Y-96070D01*
X77153Y-97592D01*
X77903Y-98994D01*
X78911Y-100223D01*
X80140Y-101231D01*
X81542Y-101981D01*
X83064Y-102442D01*
X84646Y-102598D01*
X86228Y-102442D01*
X87749Y-101981D01*
X89151Y-101231D01*
X90380Y-100223D01*
X91389Y-98994D01*
X92138Y-97592D01*
X92600Y-96070D01*
X92756Y-94488D01*
X92600Y-92906D01*
X92138Y-91385D01*
X91389Y-89983D01*
X90380Y-88754D01*
X89151Y-87745D01*
X87749Y-86996D01*
X86228Y-86534D01*
X84646Y-86378D01*
D02*
G37*
G36*
X-84646D02*
X-86228Y-86534D01*
X-87749Y-86996D01*
X-89151Y-87745D01*
X-90380Y-88754D01*
X-91389Y-89983D01*
X-92138Y-91385D01*
X-92600Y-92906D01*
X-92756Y-94488D01*
X-92600Y-96070D01*
X-92138Y-97592D01*
X-91389Y-98994D01*
X-90380Y-100223D01*
X-89151Y-101231D01*
X-87749Y-101981D01*
X-86228Y-102442D01*
X-84646Y-102598D01*
X-83064Y-102442D01*
X-81542Y-101981D01*
X-80140Y-101231D01*
X-78911Y-100223D01*
X-77903Y-98994D01*
X-77153Y-97592D01*
X-76692Y-96070D01*
X-76536Y-94488D01*
X-76692Y-92906D01*
X-77153Y-91385D01*
X-77903Y-89983D01*
X-78911Y-88754D01*
X-80140Y-87745D01*
X-81542Y-86996D01*
X-83064Y-86534D01*
X-84646Y-86378D01*
D02*
G37*
G36*
X-116144Y-96933D02*
X-116436D01*
Y-97564D01*
X-116202D01*
X-116169Y-97561D01*
X-116131D01*
X-116090Y-97558D01*
X-116051Y-97556D01*
X-116013Y-97550D01*
X-116008D01*
X-115997Y-97548D01*
X-115978Y-97542D01*
X-115956Y-97537D01*
X-115929Y-97528D01*
X-115901Y-97518D01*
X-115874Y-97504D01*
X-115849Y-97487D01*
X-115847Y-97485D01*
X-115839Y-97479D01*
X-115828Y-97468D01*
X-115814Y-97455D01*
X-115784Y-97422D01*
X-115770Y-97403D01*
X-115757Y-97381D01*
X-115754Y-97378D01*
X-115751Y-97370D01*
X-115746Y-97356D01*
X-115740Y-97337D01*
X-115735Y-97316D01*
X-115732Y-97288D01*
X-115727Y-97255D01*
Y-97220D01*
Y-97217D01*
Y-97206D01*
X-115729Y-97190D01*
X-115732Y-97168D01*
X-115735Y-97144D01*
X-115743Y-97119D01*
X-115751Y-97094D01*
X-115765Y-97070D01*
X-115768Y-97067D01*
X-115770Y-97059D01*
X-115781Y-97048D01*
X-115792Y-97034D01*
X-115811Y-97018D01*
X-115830Y-97002D01*
X-115858Y-96985D01*
X-115888Y-96971D01*
X-115890D01*
X-115899Y-96969D01*
X-115912Y-96963D01*
X-115929Y-96958D01*
X-115948Y-96952D01*
X-115972Y-96950D01*
X-116000Y-96944D01*
X-116030Y-96942D01*
X-116032D01*
X-116043Y-96939D01*
X-116062D01*
X-116084Y-96936D01*
X-116112D01*
X-116144Y-96933D01*
D02*
G37*
G36*
X-123199Y-97108D02*
X-123485Y-97946D01*
X-122909D01*
X-123199Y-97108D01*
D02*
G37*
G36*
X-141885Y-96931D02*
X-142148D01*
Y-97427D01*
X-141891D01*
X-141847Y-97425D01*
X-141804D01*
X-141793Y-97422D01*
X-141774D01*
X-141752Y-97419D01*
X-141700Y-97408D01*
X-141673Y-97400D01*
X-141651Y-97392D01*
X-141648Y-97389D01*
X-141637Y-97386D01*
X-141623Y-97378D01*
X-141607Y-97367D01*
X-141572Y-97337D01*
X-141555Y-97318D01*
X-141544Y-97299D01*
Y-97296D01*
X-141539Y-97288D01*
X-141536Y-97277D01*
X-141531Y-97261D01*
X-141525Y-97242D01*
X-141522Y-97217D01*
X-141517Y-97165D01*
Y-97163D01*
Y-97154D01*
X-141520Y-97144D01*
Y-97130D01*
X-141531Y-97092D01*
X-141536Y-97072D01*
X-141547Y-97051D01*
Y-97048D01*
X-141552Y-97040D01*
X-141561Y-97029D01*
X-141572Y-97018D01*
X-141585Y-97002D01*
X-141604Y-96988D01*
X-141626Y-96974D01*
X-141651Y-96961D01*
X-141653D01*
X-141662Y-96958D01*
X-141675Y-96952D01*
X-141694Y-96947D01*
X-141719Y-96944D01*
X-141746Y-96939D01*
X-141779Y-96936D01*
X-141814Y-96933D01*
X-141856D01*
X-141885Y-96931D01*
D02*
G37*
G36*
X-141839Y-97834D02*
X-142148D01*
Y-98421D01*
X-141722D01*
X-141703Y-98418D01*
X-141675Y-98416D01*
X-141642Y-98410D01*
X-141610Y-98402D01*
X-141574Y-98394D01*
X-141539Y-98380D01*
X-141533Y-98378D01*
X-141522Y-98372D01*
X-141506Y-98364D01*
X-141487Y-98350D01*
X-141465Y-98336D01*
X-141443Y-98317D01*
X-141424Y-98298D01*
X-141408Y-98274D01*
X-141405Y-98271D01*
X-141402Y-98263D01*
X-141397Y-98249D01*
X-141389Y-98230D01*
X-141383Y-98208D01*
X-141378Y-98184D01*
X-141375Y-98154D01*
X-141372Y-98124D01*
Y-98118D01*
Y-98105D01*
X-141375Y-98085D01*
X-141378Y-98061D01*
X-141383Y-98033D01*
X-141391Y-98004D01*
X-141402Y-97976D01*
X-141416Y-97952D01*
X-141419Y-97949D01*
X-141424Y-97941D01*
X-141435Y-97930D01*
X-141451Y-97916D01*
X-141471Y-97903D01*
X-141495Y-97886D01*
X-141528Y-97872D01*
X-141563Y-97859D01*
X-141566D01*
X-141577Y-97856D01*
X-141593Y-97853D01*
X-141615Y-97848D01*
X-141642Y-97845D01*
X-141675Y-97842D01*
X-141716Y-97840D01*
X-141760Y-97837D01*
X-141806D01*
X-141839Y-97834D01*
D02*
G37*
G36*
X-132055Y-96895D02*
X-132074D01*
X-132096Y-96898D01*
X-132126Y-96900D01*
X-132159Y-96906D01*
X-132194Y-96914D01*
X-132232Y-96925D01*
X-132270Y-96939D01*
X-132276Y-96942D01*
X-132287Y-96947D01*
X-132306Y-96958D01*
X-132331Y-96971D01*
X-132360Y-96991D01*
X-132391Y-97013D01*
X-132423Y-97040D01*
X-132456Y-97072D01*
X-132459Y-97075D01*
X-132470Y-97089D01*
X-132483Y-97108D01*
X-132502Y-97138D01*
X-132522Y-97171D01*
X-132543Y-97215D01*
X-132565Y-97264D01*
X-132584Y-97318D01*
Y-97321D01*
X-132587Y-97326D01*
X-132590Y-97335D01*
X-132593Y-97346D01*
X-132595Y-97359D01*
X-132601Y-97378D01*
X-132609Y-97422D01*
X-132617Y-97474D01*
X-132625Y-97537D01*
X-132631Y-97605D01*
X-132633Y-97679D01*
Y-97681D01*
Y-97687D01*
Y-97698D01*
Y-97714D01*
X-132631Y-97730D01*
Y-97752D01*
X-132628Y-97801D01*
X-132623Y-97859D01*
X-132614Y-97919D01*
X-132604Y-97979D01*
X-132587Y-98036D01*
Y-98039D01*
X-132584Y-98042D01*
X-132582Y-98050D01*
X-132579Y-98061D01*
X-132568Y-98088D01*
X-132552Y-98121D01*
X-132535Y-98159D01*
X-132513Y-98200D01*
X-132486Y-98238D01*
X-132459Y-98277D01*
X-132456Y-98279D01*
X-132445Y-98293D01*
X-132429Y-98309D01*
X-132407Y-98328D01*
X-132380Y-98350D01*
X-132350Y-98372D01*
X-132314Y-98394D01*
X-132276Y-98413D01*
X-132270Y-98416D01*
X-132257Y-98418D01*
X-132235Y-98427D01*
X-132208Y-98435D01*
X-132175Y-98443D01*
X-132137Y-98448D01*
X-132098Y-98454D01*
X-132055Y-98457D01*
X-132036D01*
X-132011Y-98454D01*
X-131984Y-98451D01*
X-131948Y-98446D01*
X-131913Y-98438D01*
X-131872Y-98427D01*
X-131834Y-98413D01*
X-131828Y-98410D01*
X-131815Y-98405D01*
X-131795Y-98394D01*
X-131771Y-98380D01*
X-131741Y-98358D01*
X-131711Y-98336D01*
X-131678Y-98307D01*
X-131648Y-98274D01*
X-131645Y-98268D01*
X-131634Y-98255D01*
X-131618Y-98233D01*
X-131599Y-98200D01*
X-131577Y-98164D01*
X-131555Y-98121D01*
X-131536Y-98072D01*
X-131517Y-98020D01*
Y-98017D01*
X-131514Y-98014D01*
X-131511Y-98006D01*
X-131509Y-97993D01*
X-131506Y-97979D01*
X-131503Y-97962D01*
X-131495Y-97922D01*
X-131487Y-97870D01*
X-131479Y-97812D01*
X-131476Y-97747D01*
X-131473Y-97676D01*
Y-97673D01*
Y-97668D01*
Y-97657D01*
Y-97640D01*
X-131476Y-97621D01*
Y-97602D01*
X-131479Y-97553D01*
X-131484Y-97496D01*
X-131495Y-97436D01*
X-131506Y-97376D01*
X-131522Y-97318D01*
Y-97316D01*
X-131525Y-97313D01*
X-131528Y-97305D01*
X-131531Y-97294D01*
X-131542Y-97266D01*
X-131558Y-97231D01*
X-131574Y-97193D01*
X-131596Y-97152D01*
X-131623Y-97114D01*
X-131651Y-97075D01*
X-131653Y-97070D01*
X-131664Y-97059D01*
X-131681Y-97043D01*
X-131703Y-97023D01*
X-131730Y-97002D01*
X-131763Y-96980D01*
X-131798Y-96958D01*
X-131836Y-96939D01*
X-131842Y-96936D01*
X-131855Y-96931D01*
X-131875Y-96925D01*
X-131902Y-96917D01*
X-131935Y-96909D01*
X-131973Y-96900D01*
X-132011Y-96898D01*
X-132055Y-96895D01*
D02*
G37*
G36*
X-139216D02*
X-139235D01*
X-139257Y-96898D01*
X-139286Y-96900D01*
X-139319Y-96906D01*
X-139355Y-96914D01*
X-139393Y-96925D01*
X-139431Y-96939D01*
X-139437Y-96942D01*
X-139448Y-96947D01*
X-139467Y-96958D01*
X-139491Y-96971D01*
X-139521Y-96991D01*
X-139551Y-97013D01*
X-139584Y-97040D01*
X-139617Y-97072D01*
X-139620Y-97075D01*
X-139630Y-97089D01*
X-139644Y-97108D01*
X-139663Y-97138D01*
X-139682Y-97171D01*
X-139704Y-97215D01*
X-139726Y-97264D01*
X-139745Y-97318D01*
Y-97321D01*
X-139748Y-97326D01*
X-139751Y-97335D01*
X-139753Y-97346D01*
X-139756Y-97359D01*
X-139762Y-97378D01*
X-139770Y-97422D01*
X-139778Y-97474D01*
X-139786Y-97537D01*
X-139792Y-97605D01*
X-139794Y-97679D01*
Y-97681D01*
Y-97687D01*
Y-97698D01*
Y-97714D01*
X-139792Y-97730D01*
Y-97752D01*
X-139789Y-97801D01*
X-139783Y-97859D01*
X-139775Y-97919D01*
X-139764Y-97979D01*
X-139748Y-98036D01*
Y-98039D01*
X-139745Y-98042D01*
X-139743Y-98050D01*
X-139740Y-98061D01*
X-139729Y-98088D01*
X-139712Y-98121D01*
X-139696Y-98159D01*
X-139674Y-98200D01*
X-139647Y-98238D01*
X-139620Y-98277D01*
X-139617Y-98279D01*
X-139606Y-98293D01*
X-139590Y-98309D01*
X-139568Y-98328D01*
X-139540Y-98350D01*
X-139510Y-98372D01*
X-139475Y-98394D01*
X-139437Y-98413D01*
X-139431Y-98416D01*
X-139418Y-98418D01*
X-139396Y-98427D01*
X-139368Y-98435D01*
X-139336Y-98443D01*
X-139297Y-98448D01*
X-139259Y-98454D01*
X-139216Y-98457D01*
X-139197D01*
X-139172Y-98454D01*
X-139145Y-98451D01*
X-139109Y-98446D01*
X-139074Y-98438D01*
X-139033Y-98427D01*
X-138994Y-98413D01*
X-138989Y-98410D01*
X-138975Y-98405D01*
X-138956Y-98394D01*
X-138932Y-98380D01*
X-138902Y-98358D01*
X-138872Y-98336D01*
X-138839Y-98307D01*
X-138809Y-98274D01*
X-138806Y-98268D01*
X-138795Y-98255D01*
X-138779Y-98233D01*
X-138760Y-98200D01*
X-138738Y-98164D01*
X-138716Y-98121D01*
X-138697Y-98072D01*
X-138678Y-98020D01*
Y-98017D01*
X-138675Y-98014D01*
X-138672Y-98006D01*
X-138670Y-97993D01*
X-138667Y-97979D01*
X-138664Y-97962D01*
X-138656Y-97922D01*
X-138648Y-97870D01*
X-138639Y-97812D01*
X-138637Y-97747D01*
X-138634Y-97676D01*
Y-97673D01*
Y-97668D01*
Y-97657D01*
Y-97640D01*
X-138637Y-97621D01*
Y-97602D01*
X-138639Y-97553D01*
X-138645Y-97496D01*
X-138656Y-97436D01*
X-138667Y-97376D01*
X-138683Y-97318D01*
Y-97316D01*
X-138686Y-97313D01*
X-138689Y-97305D01*
X-138691Y-97294D01*
X-138702Y-97266D01*
X-138719Y-97231D01*
X-138735Y-97193D01*
X-138757Y-97152D01*
X-138784Y-97114D01*
X-138812Y-97075D01*
X-138814Y-97070D01*
X-138825Y-97059D01*
X-138842Y-97043D01*
X-138863Y-97023D01*
X-138891Y-97002D01*
X-138924Y-96980D01*
X-138959Y-96958D01*
X-138997Y-96939D01*
X-139003Y-96936D01*
X-139016Y-96931D01*
X-139035Y-96925D01*
X-139063Y-96917D01*
X-139095Y-96909D01*
X-139134Y-96900D01*
X-139172Y-96898D01*
X-139216Y-96895D01*
D02*
G37*
%LPD*%
D64*
X47000Y83000D02*
Y88500D01*
X44500Y80500D02*
X47000Y83000D01*
X23000Y80500D02*
X44500D01*
X14500Y72000D02*
X23000Y80500D01*
X841Y72000D02*
X14500D01*
X-2500Y68000D02*
X40500D01*
X47000Y98500D02*
X48065D01*
X49957Y97043D02*
X53500Y93500D01*
Y81000D02*
Y93500D01*
X48065Y98500D02*
X49523Y97043D01*
X49957D01*
X40500Y68000D02*
X53500Y81000D01*
X21137Y72637D02*
X36089D01*
X36226Y72774D01*
X21000Y72500D02*
X21137Y72637D01*
D65*
X14000Y77000D02*
X24090Y87090D01*
X5000Y77000D02*
X14000D01*
X24312Y87090D02*
X25722Y88500D01*
X27000D01*
X24090Y87090D02*
X24312D01*
D68*
X17500Y-42500D02*
X44000D01*
X38000Y8000D02*
X56500D01*
D71*
X-84646Y102362D02*
D03*
Y-94488D02*
D03*
X84646D02*
D03*
Y102362D02*
D03*
D72*
X47000Y88500D02*
D03*
X-35500Y-94500D02*
D03*
X-61500D02*
D03*
X61500D02*
D03*
D73*
X47000Y98500D02*
D03*
X37000Y88500D02*
D03*
Y98500D02*
D03*
X27000Y88500D02*
D03*
Y98500D02*
D03*
X82500Y28000D02*
D03*
Y18000D02*
D03*
X-25500Y-94500D02*
D03*
X-51500D02*
D03*
X51500D02*
D03*
X41500D02*
D03*
X31500D02*
D03*
X82500Y61000D02*
D03*
Y51000D02*
D03*
Y41000D02*
D03*
X70000Y61000D02*
D03*
Y51000D02*
D03*
Y41000D02*
D03*
D74*
X87500Y-72500D02*
D03*
D75*
X77500D02*
D03*
D76*
X-9000Y-34000D02*
D03*
Y-14000D02*
D03*
D77*
X82500Y8000D02*
D03*
Y71000D02*
D03*
X70000D02*
D03*
D78*
X-47000Y-70000D02*
D03*
D79*
X-37000D02*
D03*
D80*
X69000Y1500D02*
D03*
X76000Y-22500D02*
D03*
X5000Y77000D02*
D03*
X841Y72000D02*
D03*
X-2500Y68000D02*
D03*
X17500Y-42500D02*
D03*
X44000D02*
D03*
X-83000Y56500D02*
D03*
X-84000Y74500D02*
D03*
X56500Y8000D02*
D03*
X36226Y72774D02*
D03*
X21000Y72500D02*
D03*
X50000Y65000D02*
D03*
X-70500Y-15000D02*
D03*
Y-20000D02*
D03*
Y-25000D02*
D03*
X-75748D02*
D03*
Y-15000D02*
D03*
Y-20000D02*
D03*
X-24500Y-6000D02*
D03*
X-1000Y-24000D02*
D03*
X-5500D02*
D03*
X-9500D02*
D03*
X-13500D02*
D03*
X-17500D02*
D03*
X38000Y8000D02*
D03*
X67150Y-76000D02*
D03*
X29850Y-61350D02*
D03*
X-64500Y82500D02*
D03*
X-50000Y11500D02*
D03*
X9000Y-70500D02*
D03*
X26390Y6000D02*
D03*
Y-24000D02*
D03*
X-3500Y-67500D02*
D03*
D81*
X-18500Y-52000D02*
D03*
X-14000D02*
D03*
X-9500D02*
D03*
X-9400Y-46100D02*
D03*
X-13900D02*
D03*
X-18400D02*
D03*
M02*
