M48
;Layer_Color=9474304
;FILE_FORMAT=2:5
INCH,LZ
;TYPE=PLATED
T1F00S00C0.01575
T2F00S00C0.03000
T3F00S00C0.03150
T4F00S00C0.03543
;TYPE=NON_PLATED
T5F00S00C0.11811
%
T01
X-0007044Y-0046768
X0021313Y-0029224
X0038513Y-0021524
Y-0006024
X0052913Y0008376
X0043924Y-0042424
X0044Y-00425
X0028213Y0065876
X0007513Y0072476
X-0002487Y0075576
X-0003987Y0069476
X-007865Y0066676
X-0086133Y0059192
X0068013Y-000165
Y-0016324
Y-0021924
T02
X-0009Y-0034
Y-0014
T03
X00775Y-00725
X00875
X-0037Y-007
X-0047
T04
X-00615Y-00945
X-00515
X-00355
X-00255
X00315
X00415
X00515
X00615
X00565Y-00355
X00465Y00925
X00365
X00265
Y01025
X00365
X00465
X007Y0071
Y0061
Y0051
Y0041
X00825
Y0051
Y0061
Y0071
Y0028
Y0018
Y0008
X00865Y-00355
X00765
X00665
T05
X0084646Y-0094488
X-0084646
Y0102362
X0084646
M30
