M48
;Layer_Color=9474304
;FILE_FORMAT=4:4
METRIC,LZ
;TYPE=PLATED
T1F00S00C0.4000
T2F00S00C0.7620
T3F00S00C0.8000
T4F00S00C0.9000
;TYPE=NON_PLATED
T5F00S00C3.0000
%
T01
X0011176Y-0010795
X0014351Y0002032
X0005334Y0018415
X00002136Y0018288
X-0000635Y0017272
T02
X-0002286Y-0008636
Y-0003556
T03
X0019685Y-0018415
X0022225
X-0009398Y-001778
X-0011938
T04
X-0015621Y-0024003
X-0013081
X-0009017
X-0006477
X0008001
X0010541
X0013081
X0015621
X0014351Y-0009017
X0011938Y0022479
X0009398
X0006858
Y0025019
X0009398
X0011938
X001778Y0018034
Y0015494
Y0012954
Y0010414
X0020955
Y0012954
Y0015494
Y0018034
Y0007112
Y0004572
Y0002032
X0021971Y-0009017
X0019431
X0016891
T05
X00215Y-0024
X-00215
Y0026
X00215
M30
