G04*
G04 #@! TF.GenerationSoftware,Altium Limited,Altium Designer,23.3.1 (30)*
G04*
G04 Layer_Color=8421504*
%FSLAX44Y44*%
%MOMM*%
G71*
G04*
G04 #@! TF.SameCoordinates,39CBC296-F970-41FA-A2E7-6093A4F5A77D*
G04*
G04*
G04 #@! TF.FilePolarity,Positive*
G04*
G01*
G75*
%ADD17R,0.9000X0.9650*%
%ADD18R,1.5500X1.3000*%
%ADD19R,0.8000X0.5500*%
%ADD20R,0.9650X0.9000*%
%ADD21R,0.7000X0.9000*%
%ADD22R,1.0000X0.5000*%
%ADD23O,1.0000X0.5000*%
%ADD24R,0.9000X0.7000*%
%ADD25R,1.3400X1.8000*%
%ADD26R,3.2000X1.5000*%
%ADD27R,1.8000X1.3400*%
%ADD28R,0.9000X0.8000*%
%ADD29R,1.5000X0.9000*%
%ADD30R,0.9000X1.5000*%
%ADD31R,4.4100X4.1000*%
%ADD32R,0.6000X1.3000*%
%ADD33R,6.0000X2.0000*%
%ADD34R,2.0000X0.9000*%
%ADD35R,8.0000X10.0000*%
D17*
X158750Y11810D02*
D03*
Y-4190D02*
D03*
X-179070Y77090D02*
D03*
Y93090D02*
D03*
X-194310Y77090D02*
D03*
Y93090D02*
D03*
X-209550Y77090D02*
D03*
Y93090D02*
D03*
X143510Y46100D02*
D03*
Y30100D02*
D03*
Y11810D02*
D03*
Y-4190D02*
D03*
X149860Y164720D02*
D03*
Y180720D02*
D03*
X134620D02*
D03*
Y164720D02*
D03*
X119380Y180720D02*
D03*
Y164720D02*
D03*
X104140D02*
D03*
Y180720D02*
D03*
D18*
X158290Y-56870D02*
D03*
X227790Y-21870D02*
D03*
Y-56870D02*
D03*
X158290Y-21870D02*
D03*
D19*
X-182500Y117420D02*
D03*
Y126420D02*
D03*
X-198500D02*
D03*
Y117420D02*
D03*
D20*
X-199770Y143510D02*
D03*
X-183770D02*
D03*
X82930Y44450D02*
D03*
X66930D02*
D03*
X380Y-12700D02*
D03*
X-15620D02*
D03*
X-33910D02*
D03*
X-49910D02*
D03*
X9270Y-129540D02*
D03*
X-6730D02*
D03*
Y-144780D02*
D03*
X9270D02*
D03*
X-6730Y-160750D02*
D03*
X9270D02*
D03*
X-2920Y-217170D02*
D03*
X13080D02*
D03*
X-2920Y-232410D02*
D03*
X13080D02*
D03*
X-183770Y196850D02*
D03*
X-199770D02*
D03*
X-183770Y181610D02*
D03*
X-199770D02*
D03*
X-183770Y158750D02*
D03*
X-199770D02*
D03*
X75820Y-203200D02*
D03*
X91820D02*
D03*
Y-140970D02*
D03*
X75820D02*
D03*
X91820Y-125730D02*
D03*
X75820D02*
D03*
X154560Y-185420D02*
D03*
X170560D02*
D03*
X154560Y-200660D02*
D03*
X170560D02*
D03*
D21*
X82830Y22860D02*
D03*
X67030D02*
D03*
X82830Y7620D02*
D03*
X67030D02*
D03*
X82830Y-53340D02*
D03*
X67030D02*
D03*
X82830Y-68580D02*
D03*
X67030D02*
D03*
X-161010Y-118110D02*
D03*
X-176810D02*
D03*
X-161010Y-133350D02*
D03*
X-176810D02*
D03*
D22*
X64130Y-12700D02*
D03*
D23*
Y-22200D02*
D03*
Y-31700D02*
D03*
X87630Y-12700D02*
D03*
Y-31700D02*
D03*
D24*
X36830Y-12700D02*
D03*
Y-28500D02*
D03*
X21590Y-12420D02*
D03*
Y-28220D02*
D03*
D25*
X-63170Y-214630D02*
D03*
X-91770D02*
D03*
D26*
X-156210Y-158070D02*
D03*
Y-200070D02*
D03*
D27*
X25400Y-53010D02*
D03*
Y-81610D02*
D03*
X133350Y-171120D02*
D03*
Y-199720D02*
D03*
D28*
X15080Y-196960D02*
D03*
Y-178960D02*
D03*
X-4920Y-187960D02*
D03*
X76520Y-171560D02*
D03*
X96520Y-162560D02*
D03*
Y-180560D02*
D03*
D29*
X32580Y209550D02*
D03*
Y196850D02*
D03*
Y184150D02*
D03*
Y171450D02*
D03*
Y158750D02*
D03*
Y146050D02*
D03*
Y133350D02*
D03*
Y120650D02*
D03*
Y107950D02*
D03*
Y95250D02*
D03*
Y82550D02*
D03*
Y69850D02*
D03*
Y57150D02*
D03*
Y44450D02*
D03*
D03*
X-147320D02*
D03*
Y209550D02*
D03*
D03*
Y57150D02*
D03*
Y69850D02*
D03*
Y82550D02*
D03*
Y95250D02*
D03*
Y107950D02*
D03*
Y120650D02*
D03*
Y133350D02*
D03*
Y146050D02*
D03*
Y158750D02*
D03*
Y171450D02*
D03*
Y184150D02*
D03*
Y196850D02*
D03*
D30*
X-220Y29450D02*
D03*
X-12920D02*
D03*
X-25620D02*
D03*
X-38320D02*
D03*
X-51020D02*
D03*
X-63720D02*
D03*
X-76420D02*
D03*
X-89120D02*
D03*
X-101820D02*
D03*
X-114520D02*
D03*
D03*
D31*
X-41402Y-171704D02*
D03*
D32*
X-22352Y-131826D02*
D03*
X-35052D02*
D03*
X-47752D02*
D03*
X-60452D02*
D03*
D33*
X-22860Y-81960D02*
D03*
Y-39960D02*
D03*
D34*
X-79400Y-17050D02*
D03*
Y-34050D02*
D03*
Y-51050D02*
D03*
Y-68050D02*
D03*
X-79900Y-84800D02*
D03*
D35*
X-192400Y-50800D02*
D03*
M02*
