G04*
G04 #@! TF.GenerationSoftware,Altium Limited,Altium Designer,23.3.1 (30)*
G04*
G04 Layer_Color=16711935*
%FSLAX25Y25*%
%MOIN*%
G70*
G04*
G04 #@! TF.SameCoordinates,D2BD120D-7BFA-4985-A6C7-D6EA5F31A85F*
G04*
G04*
G04 #@! TF.FilePolarity,Negative*
G04*
G01*
G75*
%ADD55C,0.06706*%
%ADD56R,0.06706X0.06706*%
%ADD57R,0.06706X0.06706*%
%ADD58C,0.14580*%
%ADD59C,0.05524*%
%ADD60R,0.05524X0.05524*%
%ADD62R,0.06706X0.08674*%
%ADD63O,0.06706X0.08674*%
%ADD64C,0.03950*%
D55*
X56500Y-35500D02*
D03*
X76500D02*
D03*
X86500D02*
D03*
X82500Y18000D02*
D03*
Y28000D02*
D03*
X70000Y41000D02*
D03*
Y51000D02*
D03*
Y61000D02*
D03*
X82500Y41000D02*
D03*
Y51000D02*
D03*
Y61000D02*
D03*
X26500Y102500D02*
D03*
Y92500D02*
D03*
X36500Y102500D02*
D03*
Y92500D02*
D03*
X46500Y102500D02*
D03*
X-25500Y-94500D02*
D03*
X-51500D02*
D03*
X51500D02*
D03*
X41500D02*
D03*
X31500D02*
D03*
D56*
X66500Y-35500D02*
D03*
X46500Y92500D02*
D03*
X-35500Y-94500D02*
D03*
X-61500D02*
D03*
X61500D02*
D03*
D57*
X82500Y8000D02*
D03*
X70000Y71000D02*
D03*
X82500D02*
D03*
D58*
X-84646Y102362D02*
D03*
Y-94488D02*
D03*
X84646D02*
D03*
Y102362D02*
D03*
D59*
X87500Y-72500D02*
D03*
D60*
X77500D02*
D03*
D62*
X-47000Y-70000D02*
D03*
D63*
X-37000D02*
D03*
D64*
X-7044Y-46768D02*
D03*
X21313Y-29224D02*
D03*
X68013Y-1650D02*
D03*
Y-16324D02*
D03*
Y-21924D02*
D03*
X38513Y-6024D02*
D03*
Y-21524D02*
D03*
X52913Y8376D02*
D03*
X-78650Y66676D02*
D03*
X-86133Y59192D02*
D03*
X-2487Y75576D02*
D03*
X43924Y-42424D02*
D03*
X7513Y72476D02*
D03*
X28213Y65876D02*
D03*
X-3987Y69476D02*
D03*
X44000Y-42500D02*
D03*
M02*
