G04*
G04 #@! TF.GenerationSoftware,Altium Limited,Altium Designer,23.3.1 (30)*
G04*
G04 Layer_Physical_Order=1*
G04 Layer_Color=255*
%FSLAX44Y44*%
%MOMM*%
G71*
G04*
G04 #@! TF.SameCoordinates,39CBC296-F970-41FA-A2E7-6093A4F5A77D*
G04*
G04*
G04 #@! TF.FilePolarity,Positive*
G04*
G01*
G75*
%ADD17R,0.9000X0.9650*%
%ADD18R,1.5500X1.3000*%
%ADD19R,0.8000X0.5500*%
%ADD20R,0.9650X0.9000*%
%ADD21R,0.7000X0.9000*%
%ADD22R,1.0000X0.5000*%
%ADD23O,1.0000X0.5000*%
%ADD24R,0.9000X0.7000*%
%ADD25R,1.3400X1.8000*%
%ADD26R,3.2000X1.5000*%
%ADD27R,1.8000X1.3400*%
%ADD28R,0.9000X0.8000*%
%ADD29R,1.5000X0.9000*%
%ADD30R,0.9000X1.5000*%
%ADD31R,4.4100X4.1000*%
%ADD32R,0.6000X1.3000*%
%ADD33R,6.0000X2.0000*%
%ADD34R,2.0000X0.9000*%
%ADD35R,8.0000X10.0000*%
%ADD65C,0.5000*%
%ADD66C,1.3000*%
%ADD67C,0.7000*%
%ADD68C,0.8000*%
%ADD69C,0.6000*%
%ADD70C,0.3000*%
%ADD71C,1.5000*%
%ADD72R,1.5000X1.5000*%
%ADD73C,3.5000*%
%ADD74C,1.2000*%
%ADD75R,1.2000X1.2000*%
%ADD76C,1.5240*%
%ADD77R,1.5000X1.5000*%
%ADD78R,1.5000X2.0000*%
%ADD79O,1.5000X2.0000*%
%ADD80C,0.8000*%
G36*
X-19050Y-247650D02*
X-72390D01*
Y-151130D01*
X-19050D01*
Y-247650D01*
D02*
G37*
G36*
Y-138430D02*
X-52070D01*
Y-111760D01*
X-19050D01*
Y-138430D01*
D02*
G37*
D17*
X158750Y11810D02*
D03*
Y-4190D02*
D03*
X-179070Y77090D02*
D03*
Y93090D02*
D03*
X-194310Y77090D02*
D03*
Y93090D02*
D03*
X-209550Y77090D02*
D03*
Y93090D02*
D03*
X143510Y46100D02*
D03*
Y30100D02*
D03*
Y11810D02*
D03*
Y-4190D02*
D03*
X149860Y164720D02*
D03*
Y180720D02*
D03*
X134620D02*
D03*
Y164720D02*
D03*
X119380Y180720D02*
D03*
Y164720D02*
D03*
X104140D02*
D03*
Y180720D02*
D03*
D18*
X158290Y-56870D02*
D03*
X227790Y-21870D02*
D03*
Y-56870D02*
D03*
X158290Y-21870D02*
D03*
D19*
X-182500Y117420D02*
D03*
Y126420D02*
D03*
X-198500D02*
D03*
Y117420D02*
D03*
D20*
X-199770Y143510D02*
D03*
X-183770D02*
D03*
X82930Y44450D02*
D03*
X66930D02*
D03*
X380Y-12700D02*
D03*
X-15620D02*
D03*
X-33910D02*
D03*
X-49910D02*
D03*
X9270Y-129540D02*
D03*
X-6730D02*
D03*
Y-144780D02*
D03*
X9270D02*
D03*
X-6730Y-160750D02*
D03*
X9270D02*
D03*
X-2920Y-217170D02*
D03*
X13080D02*
D03*
X-2920Y-232410D02*
D03*
X13080D02*
D03*
X-183770Y196850D02*
D03*
X-199770D02*
D03*
X-183770Y181610D02*
D03*
X-199770D02*
D03*
X-183770Y158750D02*
D03*
X-199770D02*
D03*
X75820Y-203200D02*
D03*
X91820D02*
D03*
Y-140970D02*
D03*
X75820D02*
D03*
X91820Y-125730D02*
D03*
X75820D02*
D03*
X154560Y-185420D02*
D03*
X170560D02*
D03*
X154560Y-200660D02*
D03*
X170560D02*
D03*
D21*
X82830Y22860D02*
D03*
X67030D02*
D03*
X82830Y7620D02*
D03*
X67030D02*
D03*
X82830Y-53340D02*
D03*
X67030D02*
D03*
X82830Y-68580D02*
D03*
X67030D02*
D03*
X-161010Y-118110D02*
D03*
X-176810D02*
D03*
X-161010Y-133350D02*
D03*
X-176810D02*
D03*
D22*
X64130Y-12700D02*
D03*
D23*
Y-22200D02*
D03*
Y-31700D02*
D03*
X87630Y-12700D02*
D03*
Y-31700D02*
D03*
D24*
X36830Y-12700D02*
D03*
Y-28500D02*
D03*
X21590Y-12420D02*
D03*
Y-28220D02*
D03*
D25*
X-63170Y-214630D02*
D03*
X-91770D02*
D03*
D26*
X-156210Y-158070D02*
D03*
Y-200070D02*
D03*
D27*
X25400Y-53010D02*
D03*
Y-81610D02*
D03*
X133350Y-171120D02*
D03*
Y-199720D02*
D03*
D28*
X15080Y-196960D02*
D03*
Y-178960D02*
D03*
X-4920Y-187960D02*
D03*
X76520Y-171560D02*
D03*
X96520Y-162560D02*
D03*
Y-180560D02*
D03*
D29*
X32580Y209550D02*
D03*
Y196850D02*
D03*
Y184150D02*
D03*
Y171450D02*
D03*
Y158750D02*
D03*
Y146050D02*
D03*
Y133350D02*
D03*
Y120650D02*
D03*
Y107950D02*
D03*
Y95250D02*
D03*
Y82550D02*
D03*
Y69850D02*
D03*
Y57150D02*
D03*
Y44450D02*
D03*
D03*
X-147320D02*
D03*
Y209550D02*
D03*
D03*
Y57150D02*
D03*
Y69850D02*
D03*
Y82550D02*
D03*
Y95250D02*
D03*
Y107950D02*
D03*
Y120650D02*
D03*
Y133350D02*
D03*
Y146050D02*
D03*
Y158750D02*
D03*
Y171450D02*
D03*
Y184150D02*
D03*
Y196850D02*
D03*
D30*
X-220Y29450D02*
D03*
X-12920D02*
D03*
X-25620D02*
D03*
X-38320D02*
D03*
X-51020D02*
D03*
X-63720D02*
D03*
X-76420D02*
D03*
X-89120D02*
D03*
X-101820D02*
D03*
X-114520D02*
D03*
D03*
D31*
X-41402Y-171704D02*
D03*
D32*
X-22352Y-131826D02*
D03*
X-35052D02*
D03*
X-47752D02*
D03*
X-60452D02*
D03*
D33*
X-22860Y-81960D02*
D03*
Y-39960D02*
D03*
D34*
X-79400Y-17050D02*
D03*
Y-34050D02*
D03*
Y-51050D02*
D03*
Y-68050D02*
D03*
X-79900Y-84800D02*
D03*
D35*
X-192400Y-50800D02*
D03*
D65*
X149860Y180720D02*
X177800D01*
X209170D01*
X143510Y13114D02*
X150716Y20320D01*
X158750D01*
X82880Y7670D02*
Y22860D01*
X93168D01*
X82830D02*
X82880D01*
Y33630D01*
X129540Y-170790D02*
Y-3810D01*
X76200Y-29210D02*
Y-15240D01*
X158290Y-79550D02*
Y-56870D01*
Y-79550D02*
X168910Y-90170D01*
X-213360Y181610D02*
X-199770D01*
X-213360D02*
Y196850D01*
X-199770D01*
X158290Y-56870D02*
X158430Y-57010D01*
X192900D01*
X193040Y-57150D01*
X193180Y-57010D01*
X227650D01*
X227790Y-56870D01*
X170560Y-200660D02*
Y-185420D01*
X32580Y209550D02*
X34580Y211550D01*
X45638D01*
X49988Y215900D01*
Y245568D01*
X53580Y249160D01*
X67550D01*
X68580Y250190D01*
X75820Y-155830D02*
Y-140970D01*
Y-155830D02*
X82550Y-162560D01*
X96520D01*
X67030Y-68580D02*
Y-53340D01*
X21590Y-49200D02*
Y-28220D01*
X21730Y-28360D01*
X36690D01*
X36830Y-28500D01*
X47700D01*
X54000Y-22200D01*
X64130D01*
X67030Y7620D02*
Y22860D01*
X32580Y184150D02*
X53340D01*
X91666Y184498D02*
X92014Y184846D01*
Y177171D02*
Y184846D01*
Y177171D02*
X104140Y165045D01*
Y164720D02*
Y165045D01*
Y149860D02*
Y164720D01*
Y149860D02*
X160020D01*
X163186Y153027D01*
X175886D01*
X177800Y154940D01*
X209550D01*
X177800Y129540D02*
X209550D01*
X91440D02*
X177800D01*
X74930Y146050D02*
X91440Y129540D01*
X32580Y146050D02*
X74930D01*
X209550Y129540D02*
X211464Y131453D01*
X217814D01*
X223520Y137160D01*
Y163535D01*
X220591Y166464D02*
X223520Y163535D01*
X151604Y166464D02*
X220591D01*
X149860Y164720D02*
X151604Y166464D01*
X-219130Y126420D02*
X-198500D01*
X-226060Y133350D02*
X-219130Y126420D01*
X-226060Y133350D02*
Y148590D01*
X-215900Y158750D01*
X-199770D01*
X13080Y-217170D02*
X42791D01*
X45720Y-214241D01*
Y-124124D01*
X97790Y-72054D01*
Y-15629D01*
X94861Y-12700D02*
X97790Y-15629D01*
X87630Y-12700D02*
X94861D01*
X87630D02*
Y-5080D01*
X83830Y-1280D02*
X87630Y-5080D01*
X83830Y-1280D02*
Y6620D01*
X82830Y7620D02*
X83830Y6620D01*
X158750Y20320D02*
X209550D01*
X143510Y11810D02*
Y13114D01*
Y20320D02*
X150716D01*
X158750Y11810D02*
Y20320D01*
X143510D02*
Y30100D01*
X93168Y22860D02*
X95708Y20320D01*
X82830Y7620D02*
X82880Y7670D01*
X-183770Y196850D02*
X-147320D01*
X-197445Y160750D02*
Y167045D01*
X-194310Y170180D01*
X-186699D01*
X-183770Y173109D01*
Y181610D01*
Y196850D01*
X82880Y44400D02*
X82930Y44450D01*
X82880Y33630D02*
Y44400D01*
X18440Y33630D02*
X82880D01*
X2136Y49934D02*
X18440Y33630D01*
X2136Y49934D02*
Y182880D01*
X-147320Y196850D02*
X-11834D01*
X2136Y182880D01*
X134620Y180720D02*
X149860D01*
X119380Y224790D02*
X170180D01*
X177800Y217170D01*
Y180720D02*
Y217170D01*
Y180340D02*
Y180720D01*
X209170D02*
X209550Y180340D01*
X119380Y180720D02*
X134620D01*
X104140D02*
X119380D01*
X-161010Y-133350D02*
Y-118110D01*
Y-133350D02*
X-140623D01*
X-139353Y-134620D01*
X13080Y-232410D02*
X50800D01*
X58420Y-224790D01*
Y-125730D01*
X109220Y-74930D01*
Y49530D01*
X88900Y69850D02*
X109220Y49530D01*
X32580Y69850D02*
X88900D01*
X128270Y-172060D02*
X129540Y-170790D01*
X129920Y-4190D02*
X143510D01*
X129540Y-3810D02*
X129920Y-4190D01*
X129540Y-3810D02*
Y64770D01*
X99060Y95250D02*
X129540Y64770D01*
X32580Y95250D02*
X99060D01*
X158290Y-21870D02*
X227790D01*
X-183770Y143510D02*
Y158750D01*
X-171839D01*
X-168910Y161679D01*
Y177800D01*
X-162560Y184150D01*
X-147320D01*
X-17780D01*
X-6350Y172720D01*
X231600Y-18060D02*
Y196390D01*
X177800Y250190D02*
X231600Y196390D01*
X119380Y250190D02*
X177800D01*
X32580Y158750D02*
X59690D01*
X78740Y177800D01*
Y194310D01*
X93980Y209550D01*
Y224790D01*
X32580Y171450D02*
X58420D01*
X67310Y180340D01*
Y198120D01*
X81280Y212090D01*
Y237490D01*
X93980Y250190D01*
X-2920Y-232410D02*
Y-217170D01*
Y-207390D01*
X6742Y-197729D01*
X14312D01*
X15080Y-196960D01*
X36830Y-12700D02*
X64130D01*
X73660D01*
X76200Y-15240D01*
X82830Y-53340D02*
Y-44730D01*
X64130Y-31700D02*
X73710D01*
X76200Y-29210D01*
Y-38100D02*
Y-29210D01*
Y-38100D02*
X82830Y-44730D01*
Y-68580D02*
Y-53340D01*
Y-69580D02*
Y-68580D01*
X43876Y-108534D02*
X82830Y-69580D01*
X111760Y-107950D02*
X116840Y-113030D01*
Y-181610D02*
Y-113030D01*
X120650Y-185420D02*
X154560D01*
X116840Y-181610D02*
X120650Y-185420D01*
X154560Y-200660D02*
Y-185420D01*
Y-216280D02*
Y-200660D01*
X130810Y-240030D02*
X154560Y-216280D01*
Y-185420D02*
Y-170560D01*
X161290Y-163830D01*
X214630D01*
X221450Y-170650D01*
Y-183350D02*
Y-170650D01*
Y-183350D02*
X222250Y-184150D01*
X75820Y-125730D02*
X76145D01*
X78145Y-123730D01*
Y-119975D01*
X119380Y-78740D01*
Y55880D01*
X92710Y82550D02*
X119380Y55880D01*
X32580Y82550D02*
X92710D01*
X75820Y-233134D02*
Y-203200D01*
Y-233134D02*
X80010Y-237324D01*
Y-240030D02*
Y-237324D01*
X75820Y-203200D02*
X76170Y-202850D01*
Y-171910D01*
X76520Y-171560D01*
X128270Y-217170D02*
Y-200660D01*
X105410Y-240030D02*
X128270Y-217170D01*
X91820Y-140970D02*
Y-125730D01*
Y-140970D02*
X102870D01*
X107950Y-146050D01*
Y-177026D02*
Y-146050D01*
X105021Y-179955D02*
X107950Y-177026D01*
X97126Y-179955D02*
X105021D01*
X96520Y-180560D02*
X97126Y-179955D01*
X32580Y107950D02*
X106680D01*
X143510Y71120D01*
Y46100D02*
Y71120D01*
Y46100D02*
X143700Y45910D01*
X209360D01*
X209550Y45720D01*
X-179070Y93090D02*
X-178690Y92710D01*
X-171839D01*
X-168910Y95639D01*
Y123190D01*
X-172140Y126420D02*
X-168910Y123190D01*
X-182500Y126420D02*
X-172140D01*
X-194310Y93090D02*
Y103751D01*
X-191381Y106680D01*
X-185429D01*
X-182500Y109609D01*
Y117420D01*
X-209550Y93090D02*
Y114241D01*
X-206621Y117170D01*
X-198750D01*
X-198500Y117420D01*
X-179070Y76765D02*
Y77090D01*
Y76765D02*
X-172155Y69850D01*
X-147320D01*
X-194310Y63500D02*
Y77090D01*
Y63500D02*
X-187960Y57150D01*
X-147320D01*
X-209550Y52070D02*
Y77090D01*
Y52070D02*
X-201930Y44450D01*
X-147320D01*
D66*
X-90170Y-240030D02*
Y-181610D01*
X-93980Y-177800D02*
X-90170Y-181610D01*
X-156210Y-158070D02*
X-147968D01*
X-146967Y-157070D01*
Y-142235D01*
X-139353Y-134620D01*
X-93980D01*
X-79900Y-120540D02*
Y-100330D01*
X-93980Y-177800D02*
Y-134620D01*
X-79900Y-120540D01*
Y-100330D02*
Y-87630D01*
X-63170Y-214630D02*
X-47260D01*
X-41402Y-208772D01*
Y-171704D01*
X-156210Y-240030D02*
Y-200070D01*
D67*
X380Y-12700D02*
X36830D01*
X-22860Y-35560D02*
X-21283Y-33983D01*
X-3721D01*
X380Y-29883D01*
Y-12700D01*
D68*
X-19680Y-85140D02*
X-16151Y-81610D01*
X-20901Y-86360D02*
X-19680Y-85140D01*
X-22860Y-86360D02*
X-20901D01*
X-48260D02*
X-22860D01*
X-79400Y-51050D02*
X-64520D01*
X-54610Y-60960D01*
X7620D01*
X12870Y-55710D01*
X22700D01*
X25400Y-53010D01*
X-66070Y-68550D02*
X-48260Y-86360D01*
X-78900Y-68550D02*
X-66070D01*
X-79400Y-68050D02*
X-78900Y-68550D01*
X-16151Y-81610D02*
X25400D01*
D69*
X-176810Y-133350D02*
Y-118110D01*
D70*
X-79400Y-17050D02*
X-77590Y-15240D01*
X-52450D01*
X-49910Y-12700D01*
X21590Y-49200D02*
X25400Y-53010D01*
X-14730Y-100330D02*
X-6730Y-108330D01*
Y-129540D02*
Y-108330D01*
X-79900Y-100330D02*
X-14730D01*
X-60452Y-141478D02*
Y-131826D01*
Y-141478D02*
X-57150Y-144780D01*
X-6730D01*
X104140Y-203200D02*
X116840Y-190500D01*
X91820Y-203200D02*
X104140D01*
X116840Y-190500D02*
Y-181610D01*
X91820Y-203200D02*
X92710Y-204090D01*
X-79400Y-34050D02*
X-64530D01*
X-62230Y-31750D01*
Y-26670D01*
X-59690Y-24130D01*
X-38100D01*
X-36343Y-22373D01*
Y-15132D01*
X-33910Y-12700D01*
X-15620D01*
X-4920Y-187960D02*
Y-180180D01*
X5945Y-169315D01*
Y-163749D01*
X8945Y-160750D01*
X9270D01*
Y-144780D01*
Y-129540D01*
D71*
X68580Y250190D02*
D03*
Y224790D02*
D03*
X93980Y250190D02*
D03*
Y224790D02*
D03*
X119380Y250190D02*
D03*
X219710Y-90170D02*
D03*
X194310D02*
D03*
X143510D02*
D03*
X209550Y71120D02*
D03*
Y45720D02*
D03*
X-64770Y-240030D02*
D03*
X-130810D02*
D03*
X130810D02*
D03*
X105410D02*
D03*
X80010D02*
D03*
X209550Y154940D02*
D03*
Y129540D02*
D03*
Y104140D02*
D03*
X177800Y154940D02*
D03*
Y129540D02*
D03*
Y104140D02*
D03*
D72*
X119380Y224790D02*
D03*
X168910Y-90170D02*
D03*
X-90170Y-240030D02*
D03*
X-156210D02*
D03*
X156210D02*
D03*
D73*
X-215000Y260000D02*
D03*
Y-240000D02*
D03*
X215000D02*
D03*
Y260000D02*
D03*
D74*
X222250Y-184150D02*
D03*
D75*
X196850D02*
D03*
D76*
X-22860Y-86360D02*
D03*
Y-35560D02*
D03*
D77*
X209550Y20320D02*
D03*
Y180340D02*
D03*
X177800D02*
D03*
D78*
X-119380Y-177800D02*
D03*
D79*
X-93980D02*
D03*
D80*
X53340Y184150D02*
D03*
X143510Y20320D02*
D03*
X2136Y182880D02*
D03*
X-6350Y172720D02*
D03*
X111760Y-107950D02*
D03*
M02*
