G04*
G04 #@! TF.GenerationSoftware,Altium Limited,Altium Designer,23.3.1 (30)*
G04*
G04 Layer_Color=8388736*
%FSLAX44Y44*%
%MOMM*%
G71*
G04*
G04 #@! TF.SameCoordinates,39CBC296-F970-41FA-A2E7-6093A4F5A77D*
G04*
G04*
G04 #@! TF.FilePolarity,Negative*
G04*
G01*
G75*
%ADD36R,1.1032X1.1682*%
%ADD37R,1.7532X1.5032*%
%ADD38R,1.0032X0.7532*%
%ADD39R,1.1682X1.1032*%
%ADD40R,0.9032X1.1032*%
%ADD41R,1.2032X0.7032*%
%ADD42O,1.2032X0.7032*%
%ADD43R,1.1032X0.9032*%
%ADD44R,1.5432X2.0032*%
%ADD45R,3.4032X1.7032*%
%ADD46R,2.0032X1.5432*%
%ADD47R,1.1032X1.0032*%
%ADD48R,1.7032X1.1032*%
%ADD49R,1.1032X1.7032*%
%ADD50R,4.6132X4.3032*%
%ADD51R,0.8032X1.5032*%
%ADD52R,6.2032X2.2032*%
%ADD53R,2.2032X1.1032*%
%ADD54R,8.2032X10.2032*%
%ADD55C,1.7032*%
%ADD56R,1.7032X1.7032*%
%ADD57C,3.7032*%
%ADD58C,1.4032*%
%ADD59R,1.4032X1.4032*%
%ADD60C,1.7272*%
%ADD61R,1.7032X1.7032*%
%ADD62R,1.7032X2.2032*%
%ADD63O,1.7032X2.2032*%
%ADD64C,1.0032*%
D36*
X158750Y11810D02*
D03*
Y-4190D02*
D03*
X-179070Y77090D02*
D03*
Y93090D02*
D03*
X-194310Y77090D02*
D03*
Y93090D02*
D03*
X-209550Y77090D02*
D03*
Y93090D02*
D03*
X143510Y46100D02*
D03*
Y30100D02*
D03*
Y11810D02*
D03*
Y-4190D02*
D03*
X149860Y164720D02*
D03*
Y180720D02*
D03*
X134620D02*
D03*
Y164720D02*
D03*
X119380Y180720D02*
D03*
Y164720D02*
D03*
X104140D02*
D03*
Y180720D02*
D03*
D37*
X158290Y-56870D02*
D03*
X227790Y-21870D02*
D03*
Y-56870D02*
D03*
X158290Y-21870D02*
D03*
D38*
X-182500Y117420D02*
D03*
Y126420D02*
D03*
X-198500D02*
D03*
Y117420D02*
D03*
D39*
X-199770Y143510D02*
D03*
X-183770D02*
D03*
X82930Y44450D02*
D03*
X66930D02*
D03*
X380Y-12700D02*
D03*
X-15620D02*
D03*
X-33910D02*
D03*
X-49910D02*
D03*
X9270Y-129540D02*
D03*
X-6730D02*
D03*
Y-144780D02*
D03*
X9270D02*
D03*
X-6730Y-160750D02*
D03*
X9270D02*
D03*
X-2920Y-217170D02*
D03*
X13080D02*
D03*
X-2920Y-232410D02*
D03*
X13080D02*
D03*
X-183770Y196850D02*
D03*
X-199770D02*
D03*
X-183770Y181610D02*
D03*
X-199770D02*
D03*
X-183770Y158750D02*
D03*
X-199770D02*
D03*
X75820Y-203200D02*
D03*
X91820D02*
D03*
Y-140970D02*
D03*
X75820D02*
D03*
X91820Y-125730D02*
D03*
X75820D02*
D03*
X154560Y-185420D02*
D03*
X170560D02*
D03*
X154560Y-200660D02*
D03*
X170560D02*
D03*
D40*
X82830Y22860D02*
D03*
X67030D02*
D03*
X82830Y7620D02*
D03*
X67030D02*
D03*
X82830Y-53340D02*
D03*
X67030D02*
D03*
X82830Y-68580D02*
D03*
X67030D02*
D03*
X-161010Y-118110D02*
D03*
X-176810D02*
D03*
X-161010Y-133350D02*
D03*
X-176810D02*
D03*
D41*
X64130Y-12700D02*
D03*
D42*
Y-22200D02*
D03*
Y-31700D02*
D03*
X87630Y-12700D02*
D03*
Y-31700D02*
D03*
D43*
X36830Y-12700D02*
D03*
Y-28500D02*
D03*
X21590Y-12420D02*
D03*
Y-28220D02*
D03*
D44*
X-63170Y-214630D02*
D03*
X-91770D02*
D03*
D45*
X-156210Y-158070D02*
D03*
Y-200070D02*
D03*
D46*
X25400Y-53010D02*
D03*
Y-81610D02*
D03*
X133350Y-171120D02*
D03*
Y-199720D02*
D03*
D47*
X15080Y-196960D02*
D03*
Y-178960D02*
D03*
X-4920Y-187960D02*
D03*
X76520Y-171560D02*
D03*
X96520Y-162560D02*
D03*
Y-180560D02*
D03*
D48*
X32580Y209550D02*
D03*
Y196850D02*
D03*
Y184150D02*
D03*
Y171450D02*
D03*
Y158750D02*
D03*
Y146050D02*
D03*
Y133350D02*
D03*
Y120650D02*
D03*
Y107950D02*
D03*
Y95250D02*
D03*
Y82550D02*
D03*
Y69850D02*
D03*
Y57150D02*
D03*
Y44450D02*
D03*
D03*
X-147320D02*
D03*
Y209550D02*
D03*
D03*
Y57150D02*
D03*
Y69850D02*
D03*
Y82550D02*
D03*
Y95250D02*
D03*
Y107950D02*
D03*
Y120650D02*
D03*
Y133350D02*
D03*
Y146050D02*
D03*
Y158750D02*
D03*
Y171450D02*
D03*
Y184150D02*
D03*
Y196850D02*
D03*
D49*
X-220Y29450D02*
D03*
X-12920D02*
D03*
X-25620D02*
D03*
X-38320D02*
D03*
X-51020D02*
D03*
X-63720D02*
D03*
X-76420D02*
D03*
X-89120D02*
D03*
X-101820D02*
D03*
X-114520D02*
D03*
D03*
D50*
X-41402Y-171704D02*
D03*
D51*
X-22352Y-131826D02*
D03*
X-35052D02*
D03*
X-47752D02*
D03*
X-60452D02*
D03*
D52*
X-22860Y-81960D02*
D03*
Y-39960D02*
D03*
D53*
X-79400Y-17050D02*
D03*
Y-34050D02*
D03*
Y-51050D02*
D03*
Y-68050D02*
D03*
X-79900Y-84800D02*
D03*
D54*
X-192400Y-50800D02*
D03*
D55*
X68580Y250190D02*
D03*
Y224790D02*
D03*
X93980Y250190D02*
D03*
Y224790D02*
D03*
X119380Y250190D02*
D03*
X219710Y-90170D02*
D03*
X194310D02*
D03*
X143510D02*
D03*
X209550Y71120D02*
D03*
Y45720D02*
D03*
X-64770Y-240030D02*
D03*
X-130810D02*
D03*
X130810D02*
D03*
X105410D02*
D03*
X80010D02*
D03*
X209550Y154940D02*
D03*
Y129540D02*
D03*
Y104140D02*
D03*
X177800Y154940D02*
D03*
Y129540D02*
D03*
Y104140D02*
D03*
D56*
X119380Y224790D02*
D03*
X168910Y-90170D02*
D03*
X-90170Y-240030D02*
D03*
X-156210D02*
D03*
X156210D02*
D03*
D57*
X-215000Y260000D02*
D03*
Y-240000D02*
D03*
X215000D02*
D03*
Y260000D02*
D03*
D58*
X222250Y-184150D02*
D03*
D59*
X196850D02*
D03*
D60*
X-22860Y-86360D02*
D03*
Y-35560D02*
D03*
D61*
X209550Y20320D02*
D03*
Y180340D02*
D03*
X177800D02*
D03*
D62*
X-119380Y-177800D02*
D03*
D63*
X-93980D02*
D03*
D64*
X53340Y184150D02*
D03*
X143510Y20320D02*
D03*
X2136Y182880D02*
D03*
X-6350Y172720D02*
D03*
X111760Y-107950D02*
D03*
M02*
