G04*
G04 #@! TF.GenerationSoftware,Altium Limited,Altium Designer,23.3.1 (30)*
G04*
G04 Layer_Color=16711935*
%FSLAX44Y44*%
%MOMM*%
G71*
G04*
G04 #@! TF.SameCoordinates,39CBC296-F970-41FA-A2E7-6093A4F5A77D*
G04*
G04*
G04 #@! TF.FilePolarity,Positive*
G04*
G01*
G75*
%ADD10C,0.2000*%
%ADD15C,0.1275*%
%ADD81C,0.1000*%
D10*
X213691Y-39370D02*
G03*
X213691Y-39370I-20651J0D01*
G01*
X162750Y-4690D02*
Y12310D01*
X154750Y-4690D02*
X162750D01*
X154750D02*
Y12310D01*
X162750D01*
X218040Y-64370D02*
Y-14370D01*
X168040Y-64370D02*
X218040D01*
X168040D02*
Y-14370D01*
X218040D01*
X-183070Y76590D02*
Y93590D01*
X-175070D01*
Y76590D02*
Y93590D01*
X-183070Y76590D02*
X-175070D01*
X-198310D02*
Y93590D01*
X-190310D01*
Y76590D02*
Y93590D01*
X-198310Y76590D02*
X-190310D01*
X-213550D02*
Y93590D01*
X-205550D01*
Y76590D02*
Y93590D01*
X-213550Y76590D02*
X-205550D01*
X-183270Y139510D02*
Y147510D01*
X-200270D02*
X-183270D01*
X-200270Y139510D02*
Y147510D01*
Y139510D02*
X-183270D01*
X139510Y29600D02*
X147510D01*
Y46600D01*
X139510D02*
X147510D01*
X139510Y29600D02*
Y46600D01*
Y-4690D02*
X147510D01*
Y12310D01*
X139510D02*
X147510D01*
X139510Y-4690D02*
Y12310D01*
X66430Y40450D02*
Y48450D01*
Y40450D02*
X83430D01*
Y48450D01*
X66430D02*
X83430D01*
X66430Y18860D02*
Y26860D01*
Y18860D02*
X83430D01*
Y26860D01*
X66430D02*
X83430D01*
X66430Y3620D02*
Y11620D01*
Y3620D02*
X83430D01*
Y11620D01*
X66430D02*
X83430D01*
X66430Y-57340D02*
Y-49340D01*
Y-57340D02*
X83430D01*
Y-49340D01*
X66430D02*
X83430D01*
X66430Y-72580D02*
Y-64580D01*
Y-72580D02*
X83430D01*
Y-64580D01*
X66430D02*
X83430D01*
X32830Y-29100D02*
X40830D01*
Y-12100D01*
X32830D02*
X40830D01*
X32830Y-29100D02*
Y-12100D01*
X17590Y-28820D02*
X25590D01*
Y-11820D01*
X17590D02*
X25590D01*
X17590Y-28820D02*
Y-11820D01*
X-16120Y-16700D02*
Y-8700D01*
Y-16700D02*
X880D01*
Y-8700D01*
X-16120D02*
X880D01*
X-50410Y-16700D02*
Y-8700D01*
Y-16700D02*
X-33410D01*
Y-8700D01*
X-50410D02*
X-33410D01*
X-177410Y-122110D02*
Y-114110D01*
Y-122110D02*
X-160410D01*
Y-114110D01*
X-177410D02*
X-160410D01*
X-177410Y-137350D02*
Y-129350D01*
Y-137350D02*
X-160410D01*
Y-129350D01*
X-177410D02*
X-160410D01*
X-7230Y-133540D02*
Y-125540D01*
Y-133540D02*
X9770D01*
Y-125540D01*
X-7230D02*
X9770D01*
Y-148780D02*
Y-140780D01*
X-7230D02*
X9770D01*
X-7230Y-148780D02*
Y-140780D01*
Y-148780D02*
X9770D01*
Y-164749D02*
Y-156750D01*
X-7230D02*
X9770D01*
X-7230Y-164749D02*
Y-156750D01*
Y-164749D02*
X9770D01*
X13580Y-221170D02*
Y-213170D01*
X-3420D02*
X13580D01*
X-3420Y-221170D02*
Y-213170D01*
Y-221170D02*
X13580D01*
Y-236410D02*
Y-228410D01*
X-3420D02*
X13580D01*
X-3420Y-236410D02*
Y-228410D01*
Y-236410D02*
X13580D01*
X145860Y164220D02*
Y181220D01*
X153860D01*
Y164220D02*
Y181220D01*
X145860Y164220D02*
X153860D01*
X138620D02*
Y181220D01*
X130620Y164220D02*
X138620D01*
X130620D02*
Y181220D01*
X138620D01*
X123380Y164220D02*
Y181220D01*
X115380Y164220D02*
X123380D01*
X115380D02*
Y181220D01*
X123380D01*
X100140Y164220D02*
Y181220D01*
X108140D01*
Y164220D02*
Y181220D01*
X100140Y164220D02*
X108140D01*
X-200270Y192850D02*
X-183270D01*
X-200270D02*
Y200850D01*
X-183270D01*
Y192850D02*
Y200850D01*
X-200270Y177610D02*
X-183270D01*
X-200270D02*
Y185610D01*
X-183270D01*
Y177610D02*
Y185610D01*
X-200270Y154750D02*
X-183270D01*
X-200270D02*
Y162750D01*
X-183270D01*
Y154750D02*
Y162750D01*
X75320Y-199200D02*
X92320D01*
Y-207200D02*
Y-199200D01*
X75320Y-207200D02*
X92320D01*
X75320D02*
Y-199200D01*
Y-144970D02*
X92320D01*
X75320D02*
Y-136970D01*
X92320D01*
Y-144970D02*
Y-136970D01*
X75320Y-129730D02*
X92320D01*
X75320D02*
Y-121730D01*
X92320D01*
Y-129730D02*
Y-121730D01*
X154060Y-181420D02*
X171060D01*
Y-189420D02*
Y-181420D01*
X154060Y-189420D02*
X171060D01*
X154060D02*
Y-181420D01*
Y-196660D02*
X171060D01*
Y-204660D02*
Y-196660D01*
X154060Y-204660D02*
X171060D01*
X154060D02*
Y-196660D01*
X174701Y4004D02*
X176367Y5670D01*
Y9002D01*
X174701Y10668D01*
X168036D01*
X166370Y9002D01*
Y5670D01*
X168036Y4004D01*
X176367Y-5993D02*
X174701Y-2661D01*
X171368Y671D01*
X168036D01*
X166370Y-995D01*
Y-4327D01*
X168036Y-5993D01*
X169702D01*
X171368Y-4327D01*
Y671D01*
X165923Y2997D02*
X164256Y4663D01*
X160924D01*
X159258Y2997D01*
Y1330D01*
X160924Y-336D01*
X164256D01*
X165923Y-2002D01*
Y-3668D01*
X164256Y-5334D01*
X160924D01*
X159258Y-3668D01*
X169255Y4663D02*
Y-5334D01*
X172587Y-2002D01*
X175919Y-5334D01*
Y4663D01*
X179252Y-5334D02*
X182584D01*
X180918D01*
Y4663D01*
X179252Y2997D01*
X-186690Y78232D02*
X-196687D01*
Y83230D01*
X-195021Y84896D01*
X-191688D01*
X-190022Y83230D01*
Y78232D01*
Y81564D02*
X-186690Y84896D01*
Y94893D02*
Y88229D01*
X-193354Y94893D01*
X-195021D01*
X-196687Y93227D01*
Y89895D01*
X-195021Y88229D01*
X-201930Y78232D02*
X-211927D01*
Y83230D01*
X-210261Y84896D01*
X-206928D01*
X-205262Y83230D01*
Y78232D01*
Y81564D02*
X-201930Y84896D01*
X-210261Y88229D02*
X-211927Y89895D01*
Y93227D01*
X-210261Y94893D01*
X-208594D01*
X-206928Y93227D01*
Y91561D01*
Y93227D01*
X-205262Y94893D01*
X-203596D01*
X-201930Y93227D01*
Y89895D01*
X-203596Y88229D01*
X-217170Y78232D02*
X-227167D01*
Y83230D01*
X-225501Y84896D01*
X-222168D01*
X-220502Y83230D01*
Y78232D01*
Y81564D02*
X-217170Y84896D01*
Y88229D02*
Y91561D01*
Y89895D01*
X-227167D01*
X-225501Y88229D01*
Y96559D02*
X-227167Y98226D01*
Y101558D01*
X-225501Y103224D01*
X-218836D01*
X-217170Y101558D01*
Y98226D01*
X-218836Y96559D01*
X-225501D01*
X-223206Y146761D02*
X-224872Y148427D01*
X-228204D01*
X-229870Y146761D01*
Y140096D01*
X-228204Y138430D01*
X-224872D01*
X-223206Y140096D01*
X-213209Y138430D02*
X-219873D01*
X-213209Y145094D01*
Y146761D01*
X-214875Y148427D01*
X-218207D01*
X-219873Y146761D01*
X134620Y30480D02*
X124623D01*
Y35478D01*
X126289Y37144D01*
X129622D01*
X131288Y35478D01*
Y30480D01*
Y33812D02*
X134620Y37144D01*
X132954Y40477D02*
X134620Y42143D01*
Y45475D01*
X132954Y47141D01*
X126289D01*
X124623Y45475D01*
Y42143D01*
X126289Y40477D01*
X127956D01*
X129622Y42143D01*
Y47141D01*
X134620Y-5080D02*
X124623D01*
Y-82D01*
X126289Y1585D01*
X129622D01*
X131288Y-82D01*
Y-5080D01*
Y-1748D02*
X134620Y1585D01*
X126289Y4917D02*
X124623Y6583D01*
Y9915D01*
X126289Y11581D01*
X127956D01*
X129622Y9915D01*
X131288Y11581D01*
X132954D01*
X134620Y9915D01*
Y6583D01*
X132954Y4917D01*
X131288D01*
X129622Y6583D01*
X127956Y4917D01*
X126289D01*
X129622Y6583D02*
Y9915D01*
X90170Y39370D02*
Y49367D01*
X95168D01*
X96834Y47701D01*
Y44368D01*
X95168Y42702D01*
X90170D01*
X93502D02*
X96834Y39370D01*
X100167Y49367D02*
X106831D01*
Y47701D01*
X100167Y41036D01*
Y39370D01*
X96834Y26111D02*
X95168Y27777D01*
X91836D01*
X90170Y26111D01*
Y19446D01*
X91836Y17780D01*
X95168D01*
X96834Y19446D01*
X105165Y17780D02*
Y27777D01*
X100167Y22778D01*
X106831D01*
X96834Y10871D02*
X95168Y12537D01*
X91836D01*
X90170Y10871D01*
Y4206D01*
X91836Y2540D01*
X95168D01*
X96834Y4206D01*
X106831Y12537D02*
X100167D01*
Y7538D01*
X103499Y9204D01*
X105165D01*
X106831Y7538D01*
Y4206D01*
X105165Y2540D01*
X101833D01*
X100167Y4206D01*
X98104Y-50089D02*
X96438Y-48423D01*
X93106D01*
X91440Y-50089D01*
Y-56754D01*
X93106Y-58420D01*
X96438D01*
X98104Y-56754D01*
X101437Y-58420D02*
X104769D01*
X103103D01*
Y-48423D01*
X101437Y-50089D01*
X109767D02*
X111434Y-48423D01*
X114766D01*
X116432Y-50089D01*
Y-51755D01*
X114766Y-53422D01*
X113100D01*
X114766D01*
X116432Y-55088D01*
Y-56754D01*
X114766Y-58420D01*
X111434D01*
X109767Y-56754D01*
X99375Y-65329D02*
X97708Y-63663D01*
X94376D01*
X92710Y-65329D01*
Y-71994D01*
X94376Y-73660D01*
X97708D01*
X99375Y-71994D01*
X102707Y-73660D02*
X106039D01*
X104373D01*
Y-63663D01*
X102707Y-65329D01*
X117702Y-73660D02*
X111037D01*
X117702Y-66996D01*
Y-65329D01*
X116036Y-63663D01*
X112704D01*
X111037Y-65329D01*
X34849Y-51755D02*
X33183Y-53422D01*
Y-56754D01*
X34849Y-58420D01*
X41514D01*
X43180Y-56754D01*
Y-53422D01*
X41514Y-51755D01*
Y-48423D02*
X43180Y-46757D01*
Y-43425D01*
X41514Y-41759D01*
X34849D01*
X33183Y-43425D01*
Y-46757D01*
X34849Y-48423D01*
X36516D01*
X38182Y-46757D01*
Y-41759D01*
X18339Y-53025D02*
X16673Y-54692D01*
Y-58024D01*
X18339Y-59690D01*
X25004D01*
X26670Y-58024D01*
Y-54692D01*
X25004Y-53025D01*
X26670Y-49693D02*
Y-46361D01*
Y-48027D01*
X16673D01*
X18339Y-49693D01*
X26670Y-41363D02*
Y-38030D01*
Y-39696D01*
X16673D01*
X18339Y-41363D01*
X-14478Y-5080D02*
Y4917D01*
X-9480D01*
X-7814Y3251D01*
Y-82D01*
X-9480Y-1748D01*
X-14478D01*
X-11146D02*
X-7814Y-5080D01*
X2183D02*
X-4481D01*
X2183Y1585D01*
Y3251D01*
X517Y4917D01*
X-2815D01*
X-4481Y3251D01*
X5516D02*
X7182Y4917D01*
X10514D01*
X12180Y3251D01*
Y-3414D01*
X10514Y-5080D01*
X7182D01*
X5516Y-3414D01*
Y3251D01*
X-48768Y-5080D02*
Y4917D01*
X-43770D01*
X-42104Y3251D01*
Y-82D01*
X-43770Y-1748D01*
X-48768D01*
X-45436D02*
X-42104Y-5080D01*
X-33773D02*
Y4917D01*
X-38771Y-82D01*
X-32107D01*
X-145736Y-114859D02*
X-147402Y-113193D01*
X-150734D01*
X-152400Y-114859D01*
Y-121524D01*
X-150734Y-123190D01*
X-147402D01*
X-145736Y-121524D01*
X-142403Y-113193D02*
X-135739D01*
Y-114859D01*
X-142403Y-121524D01*
Y-123190D01*
X-145736Y-130099D02*
X-147402Y-128433D01*
X-150734D01*
X-152400Y-130099D01*
Y-136764D01*
X-150734Y-138430D01*
X-147402D01*
X-145736Y-136764D01*
X-142403Y-130099D02*
X-140737Y-128433D01*
X-137405D01*
X-135739Y-130099D01*
Y-131765D01*
X-137405Y-133432D01*
X-135739Y-135098D01*
Y-136764D01*
X-137405Y-138430D01*
X-140737D01*
X-142403Y-136764D01*
Y-135098D01*
X-140737Y-133432D01*
X-142403Y-131765D01*
Y-130099D01*
X-140737Y-133432D02*
X-137405D01*
X16510Y-133350D02*
Y-123353D01*
X21508D01*
X23175Y-125019D01*
Y-128352D01*
X21508Y-130018D01*
X16510D01*
X19842D02*
X23175Y-133350D01*
X26507D02*
X29839D01*
X28173D01*
Y-123353D01*
X26507Y-125019D01*
X34837Y-131684D02*
X36504Y-133350D01*
X39836D01*
X41502Y-131684D01*
Y-125019D01*
X39836Y-123353D01*
X36504D01*
X34837Y-125019D01*
Y-126685D01*
X36504Y-128352D01*
X41502D01*
X16510Y-149860D02*
Y-139863D01*
X21508D01*
X23175Y-141529D01*
Y-144862D01*
X21508Y-146528D01*
X16510D01*
X19842D02*
X23175Y-149860D01*
X26507D02*
X29839D01*
X28173D01*
Y-139863D01*
X26507Y-141529D01*
X34837Y-139863D02*
X41502D01*
Y-141529D01*
X34837Y-148194D01*
Y-149860D01*
X16510Y-166370D02*
Y-156373D01*
X21508D01*
X23175Y-158039D01*
Y-161372D01*
X21508Y-163038D01*
X16510D01*
X19842D02*
X23175Y-166370D01*
X33171D02*
X26507D01*
X33171Y-159705D01*
Y-158039D01*
X31505Y-156373D01*
X28173D01*
X26507Y-158039D01*
X36504D02*
X38170Y-156373D01*
X41502D01*
X43168Y-158039D01*
Y-159705D01*
X41502Y-161372D01*
X39836D01*
X41502D01*
X43168Y-163038D01*
Y-164704D01*
X41502Y-166370D01*
X38170D01*
X36504Y-164704D01*
X24130Y-222250D02*
Y-212253D01*
X29128D01*
X30794Y-213919D01*
Y-217252D01*
X29128Y-218918D01*
X24130D01*
X27462D02*
X30794Y-222250D01*
X34127D02*
X37459D01*
X35793D01*
Y-212253D01*
X34127Y-213919D01*
X42457D02*
X44124Y-212253D01*
X47456D01*
X49122Y-213919D01*
Y-215585D01*
X47456Y-217252D01*
X49122Y-218918D01*
Y-220584D01*
X47456Y-222250D01*
X44124D01*
X42457Y-220584D01*
Y-218918D01*
X44124Y-217252D01*
X42457Y-215585D01*
Y-213919D01*
X44124Y-217252D02*
X47456D01*
X24130Y-237490D02*
Y-227493D01*
X29128D01*
X30794Y-229159D01*
Y-232492D01*
X29128Y-234158D01*
X24130D01*
X27462D02*
X30794Y-237490D01*
X40791D02*
X34127D01*
X40791Y-230826D01*
Y-229159D01*
X39125Y-227493D01*
X35793D01*
X34127Y-229159D01*
X50788Y-237490D02*
X44124D01*
X50788Y-230826D01*
Y-229159D01*
X49122Y-227493D01*
X45790D01*
X44124Y-229159D01*
X154940Y185420D02*
X144943D01*
Y190418D01*
X146609Y192085D01*
X149942D01*
X151608Y190418D01*
Y185420D01*
Y188752D02*
X154940Y192085D01*
Y195417D02*
Y198749D01*
Y197083D01*
X144943D01*
X146609Y195417D01*
X154940Y203747D02*
Y207080D01*
Y205414D01*
X144943D01*
X146609Y203747D01*
X131369Y192085D02*
X129703Y190418D01*
Y187086D01*
X131369Y185420D01*
X138034D01*
X139700Y187086D01*
Y190418D01*
X138034Y192085D01*
X139700Y195417D02*
Y198749D01*
Y197083D01*
X129703D01*
X131369Y195417D01*
X116129Y192085D02*
X114463Y190418D01*
Y187086D01*
X116129Y185420D01*
X122794D01*
X124460Y187086D01*
Y190418D01*
X122794Y192085D01*
X124460Y202081D02*
Y195417D01*
X117795Y202081D01*
X116129D01*
X114463Y200415D01*
Y197083D01*
X116129Y195417D01*
X124460Y212078D02*
Y205414D01*
X117795Y212078D01*
X116129D01*
X114463Y210412D01*
Y207080D01*
X116129Y205414D01*
X109220Y185420D02*
X99223D01*
Y190418D01*
X100889Y192085D01*
X104222D01*
X105888Y190418D01*
Y185420D01*
Y188752D02*
X109220Y192085D01*
Y195417D02*
Y198749D01*
Y197083D01*
X99223D01*
X100889Y195417D01*
X-223206Y200101D02*
X-224872Y201767D01*
X-228204D01*
X-229870Y200101D01*
Y193436D01*
X-228204Y191770D01*
X-224872D01*
X-223206Y193436D01*
X-219873Y191770D02*
X-216541D01*
X-218207D01*
Y201767D01*
X-219873Y200101D01*
X-206544Y191770D02*
Y201767D01*
X-211543Y196768D01*
X-204878D01*
X-223206Y184861D02*
X-224872Y186527D01*
X-228204D01*
X-229870Y184861D01*
Y178196D01*
X-228204Y176530D01*
X-224872D01*
X-223206Y178196D01*
X-219873Y176530D02*
X-216541D01*
X-218207D01*
Y186527D01*
X-219873Y184861D01*
X-204878Y186527D02*
X-211543D01*
Y181528D01*
X-208210Y183195D01*
X-206544D01*
X-204878Y181528D01*
Y178196D01*
X-206544Y176530D01*
X-209876D01*
X-211543Y178196D01*
X-229870Y154940D02*
Y164937D01*
X-224872D01*
X-223206Y163271D01*
Y159938D01*
X-224872Y158272D01*
X-229870D01*
X-226538D02*
X-223206Y154940D01*
X-213209Y164937D02*
X-216541Y163271D01*
X-219873Y159938D01*
Y156606D01*
X-218207Y154940D01*
X-214875D01*
X-213209Y156606D01*
Y158272D01*
X-214875Y159938D01*
X-219873D01*
X76200Y-220980D02*
Y-210983D01*
X81198D01*
X82865Y-212649D01*
Y-215982D01*
X81198Y-217648D01*
X76200D01*
X79532D02*
X82865Y-220980D01*
X86197D02*
X89529D01*
X87863D01*
Y-210983D01*
X86197Y-212649D01*
X101192Y-220980D02*
X94527D01*
X101192Y-214315D01*
Y-212649D01*
X99526Y-210983D01*
X96194D01*
X94527Y-212649D01*
X99060Y-146050D02*
Y-136053D01*
X104058D01*
X105724Y-137719D01*
Y-141052D01*
X104058Y-142718D01*
X99060D01*
X102392D02*
X105724Y-146050D01*
X115721Y-136053D02*
X109057D01*
Y-141052D01*
X112389Y-139385D01*
X114055D01*
X115721Y-141052D01*
Y-144384D01*
X114055Y-146050D01*
X110723D01*
X109057Y-144384D01*
X97790Y-130810D02*
Y-120813D01*
X102788D01*
X104454Y-122479D01*
Y-125812D01*
X102788Y-127478D01*
X97790D01*
X101122D02*
X104454Y-130810D01*
X107787D02*
X111119D01*
X109453D01*
Y-120813D01*
X107787Y-122479D01*
X116117D02*
X117784Y-120813D01*
X121116D01*
X122782Y-122479D01*
Y-124145D01*
X121116Y-125812D01*
X119450D01*
X121116D01*
X122782Y-127478D01*
Y-129144D01*
X121116Y-130810D01*
X117784D01*
X116117Y-129144D01*
X184464Y-182169D02*
X182798Y-180503D01*
X179466D01*
X177800Y-182169D01*
Y-188834D01*
X179466Y-190500D01*
X182798D01*
X184464Y-188834D01*
X194461Y-190500D02*
X187797D01*
X194461Y-183836D01*
Y-182169D01*
X192795Y-180503D01*
X189463D01*
X187797Y-182169D01*
X197794Y-190500D02*
X201126D01*
X199460D01*
Y-180503D01*
X197794Y-182169D01*
X185735Y-197409D02*
X184068Y-195743D01*
X180736D01*
X179070Y-197409D01*
Y-204074D01*
X180736Y-205740D01*
X184068D01*
X185735Y-204074D01*
X195731Y-205740D02*
X189067D01*
X195731Y-199076D01*
Y-197409D01*
X194065Y-195743D01*
X190733D01*
X189067Y-197409D01*
X199064D02*
X200730Y-195743D01*
X204062D01*
X205728Y-197409D01*
Y-204074D01*
X204062Y-205740D01*
X200730D01*
X199064Y-204074D01*
Y-197409D01*
D15*
X-182500Y113920D02*
Y129920D01*
X-198500Y113920D02*
X-182500D01*
X-198500D02*
Y129920D01*
X-182500D01*
X-194500Y115920D02*
Y127920D01*
X-188500Y121920D01*
X-194500Y115920D02*
X-188500Y121920D01*
X-194500Y115920D02*
X-188500Y121920D01*
X-198500D02*
X-194500D01*
X-188500D02*
X-182500D01*
D81*
X12080Y-202960D02*
Y-172960D01*
X-1920Y-202960D02*
Y-172960D01*
Y-202960D02*
X12080D01*
X-1920Y-172960D02*
X12080D01*
X79520Y-156560D02*
X93520D01*
X79520Y-186560D02*
X93520D01*
X79520D02*
Y-156560D01*
X93520Y-186560D02*
Y-156560D01*
M02*
