G04*
G04 #@! TF.GenerationSoftware,Altium Limited,Altium Designer,23.3.1 (30)*
G04*
G04 Layer_Color=8421504*
%FSLAX25Y25*%
%MOIN*%
G70*
G04*
G04 #@! TF.SameCoordinates,D2BD120D-7BFA-4985-A6C7-D6EA5F31A85F*
G04*
G04*
G04 #@! TF.FilePolarity,Positive*
G04*
G01*
G75*
%ADD17R,0.03799X0.03543*%
%ADD18R,0.03543X0.03150*%
%ADD19R,0.03543X0.03799*%
%ADD20R,0.06102X0.05118*%
%ADD21R,0.03150X0.02165*%
%ADD22R,0.02756X0.03543*%
%ADD23R,0.03937X0.01968*%
%ADD24O,0.03937X0.01968*%
%ADD25R,0.03543X0.02756*%
%ADD26R,0.05276X0.07087*%
%ADD27R,0.12598X0.05906*%
%ADD28R,0.07087X0.05276*%
%ADD29R,0.05906X0.03543*%
%ADD30R,0.03543X0.05906*%
%ADD31R,0.17362X0.16142*%
%ADD32R,0.02362X0.05118*%
%ADD33R,0.23622X0.07874*%
%ADD34R,0.07874X0.03543*%
%ADD35R,0.31496X0.39370*%
D17*
X33350Y66000D02*
D03*
X39650D02*
D03*
Y72000D02*
D03*
X33350D02*
D03*
X39650Y54000D02*
D03*
X33350D02*
D03*
Y60000D02*
D03*
X39650D02*
D03*
X-78650Y56500D02*
D03*
X-72350D02*
D03*
X32650Y17500D02*
D03*
X26350D02*
D03*
X150Y-5000D02*
D03*
X-6150D02*
D03*
X-13350D02*
D03*
X-19650D02*
D03*
X3650Y-51000D02*
D03*
X-2650D02*
D03*
Y-57000D02*
D03*
X3650D02*
D03*
X-2650Y-63287D02*
D03*
X3650D02*
D03*
X-1150Y-85500D02*
D03*
X5150D02*
D03*
X-1150Y-91500D02*
D03*
X5150D02*
D03*
X-72350Y77500D02*
D03*
X-78650D02*
D03*
X-72350Y71500D02*
D03*
X-78650D02*
D03*
X-72350Y62500D02*
D03*
X-78650D02*
D03*
X29850Y-80000D02*
D03*
X36150D02*
D03*
Y-55500D02*
D03*
X29850D02*
D03*
X36150Y-49500D02*
D03*
X29850D02*
D03*
X60850Y-73000D02*
D03*
X67150D02*
D03*
X60850Y-79000D02*
D03*
X67150D02*
D03*
D18*
X-1937Y-74000D02*
D03*
X5937Y-70457D02*
D03*
Y-77543D02*
D03*
X30126Y-67543D02*
D03*
X38000Y-64000D02*
D03*
Y-71087D02*
D03*
D19*
X62500Y4650D02*
D03*
Y-1650D02*
D03*
X-70500Y30350D02*
D03*
Y36650D02*
D03*
X-76500Y30350D02*
D03*
Y36650D02*
D03*
X-82500Y30350D02*
D03*
Y36650D02*
D03*
X56500Y18149D02*
D03*
Y11850D02*
D03*
Y4650D02*
D03*
Y-1650D02*
D03*
D20*
X62319Y-22390D02*
D03*
X89681Y-8610D02*
D03*
Y-22390D02*
D03*
X62319Y-8610D02*
D03*
D21*
X-71850Y46228D02*
D03*
Y49772D02*
D03*
X-78150D02*
D03*
Y46228D02*
D03*
D22*
X32610Y9000D02*
D03*
X26390D02*
D03*
X32610Y3000D02*
D03*
X26390D02*
D03*
X32610Y-21000D02*
D03*
X26390D02*
D03*
X32610Y-27000D02*
D03*
X26390D02*
D03*
X-63390Y-46500D02*
D03*
X-69610D02*
D03*
X-63390Y-52500D02*
D03*
X-69610D02*
D03*
D23*
X25248Y-5000D02*
D03*
D24*
Y-8740D02*
D03*
Y-12480D02*
D03*
X34500Y-5000D02*
D03*
Y-12480D02*
D03*
D25*
X14500Y-5000D02*
D03*
Y-11220D02*
D03*
X8500Y-4890D02*
D03*
Y-11110D02*
D03*
D26*
X-24870Y-84500D02*
D03*
X-36130D02*
D03*
D27*
X-61500Y-62232D02*
D03*
Y-78768D02*
D03*
D28*
X10000Y-20870D02*
D03*
Y-32130D02*
D03*
X52500Y-67370D02*
D03*
Y-78630D02*
D03*
D29*
X12827Y82500D02*
D03*
Y77500D02*
D03*
Y72500D02*
D03*
Y67500D02*
D03*
Y62500D02*
D03*
Y57500D02*
D03*
Y52500D02*
D03*
Y47500D02*
D03*
Y42500D02*
D03*
Y37500D02*
D03*
Y32500D02*
D03*
Y27500D02*
D03*
Y22500D02*
D03*
Y17500D02*
D03*
D03*
X-58000D02*
D03*
Y82500D02*
D03*
D03*
Y22500D02*
D03*
Y27500D02*
D03*
Y32500D02*
D03*
Y37500D02*
D03*
Y42500D02*
D03*
Y47500D02*
D03*
Y52500D02*
D03*
Y57500D02*
D03*
Y62500D02*
D03*
Y67500D02*
D03*
Y72500D02*
D03*
Y77500D02*
D03*
D30*
X-87Y11594D02*
D03*
X-5087D02*
D03*
X-10087D02*
D03*
X-15087D02*
D03*
X-20087D02*
D03*
X-25087D02*
D03*
X-30087D02*
D03*
X-35087D02*
D03*
X-40087D02*
D03*
X-45087D02*
D03*
D03*
D31*
X-16300Y-67600D02*
D03*
D32*
X-8800Y-51900D02*
D03*
X-13800D02*
D03*
X-18800D02*
D03*
X-23800D02*
D03*
D33*
X-9000Y-32268D02*
D03*
Y-15732D02*
D03*
D34*
X-31260Y-6713D02*
D03*
Y-13406D02*
D03*
Y-20098D02*
D03*
Y-26791D02*
D03*
X-31457Y-33386D02*
D03*
D35*
X-75748Y-20000D02*
D03*
M02*
