G04*
G04 #@! TF.GenerationSoftware,Altium Limited,Altium Designer,23.3.1 (30)*
G04*
G04 Layer_Color=255*
%FSLAX44Y44*%
%MOMM*%
G71*
G04*
G04 #@! TF.SameCoordinates,39CBC296-F970-41FA-A2E7-6093A4F5A77D*
G04*
G04*
G04 #@! TF.FilePolarity,Positive*
G04*
G01*
G75*
%ADD71C,1.5000*%
%ADD72R,1.5000X1.5000*%
%ADD73C,3.5000*%
%ADD74C,1.2000*%
%ADD75R,1.2000X1.2000*%
%ADD76C,1.5240*%
%ADD77R,1.5000X1.5000*%
%ADD78R,1.5000X2.0000*%
%ADD79O,1.5000X2.0000*%
D71*
X68580Y250190D02*
D03*
Y224790D02*
D03*
X93980Y250190D02*
D03*
Y224790D02*
D03*
X119380Y250190D02*
D03*
X219710Y-90170D02*
D03*
X194310D02*
D03*
X143510D02*
D03*
X209550Y71120D02*
D03*
Y45720D02*
D03*
X-64770Y-240030D02*
D03*
X-130810D02*
D03*
X130810D02*
D03*
X105410D02*
D03*
X80010D02*
D03*
X209550Y154940D02*
D03*
Y129540D02*
D03*
Y104140D02*
D03*
X177800Y154940D02*
D03*
Y129540D02*
D03*
Y104140D02*
D03*
D72*
X119380Y224790D02*
D03*
X168910Y-90170D02*
D03*
X-90170Y-240030D02*
D03*
X-156210D02*
D03*
X156210D02*
D03*
D73*
X-215000Y260000D02*
D03*
Y-240000D02*
D03*
X215000D02*
D03*
Y260000D02*
D03*
D74*
X222250Y-184150D02*
D03*
D75*
X196850D02*
D03*
D76*
X-22860Y-86360D02*
D03*
Y-35560D02*
D03*
D77*
X209550Y20320D02*
D03*
Y180340D02*
D03*
X177800D02*
D03*
D78*
X-119380Y-177800D02*
D03*
D79*
X-93980D02*
D03*
M02*
