G04*
G04 #@! TF.GenerationSoftware,Altium Limited,Altium Designer,23.3.1 (30)*
G04*
G04 Layer_Physical_Order=2*
G04 Layer_Color=16711680*
%FSLAX44Y44*%
%MOMM*%
G71*
G04*
G04 #@! TF.SameCoordinates,39CBC296-F970-41FA-A2E7-6093A4F5A77D*
G04*
G04*
G04 #@! TF.FilePolarity,Positive*
G04*
G01*
G75*
%ADD65C,0.5000*%
%ADD68C,0.8000*%
%ADD71C,1.5000*%
%ADD72R,1.5000X1.5000*%
%ADD73C,3.5000*%
%ADD74C,1.2000*%
%ADD75R,1.2000X1.2000*%
%ADD76C,1.5240*%
%ADD77R,1.5000X1.5000*%
%ADD78R,1.5000X2.0000*%
%ADD79O,1.5000X2.0000*%
%ADD80C,0.8000*%
G36*
X222000Y283892D02*
Y283891D01*
X223228Y283791D01*
X225210Y283596D01*
X228296Y282660D01*
X231140Y281140D01*
X233633Y279093D01*
X235679Y276600D01*
X237200Y273756D01*
X238136Y270670D01*
X238330Y268699D01*
X238431Y267460D01*
X238431Y267460D01*
X238431Y266212D01*
Y-246703D01*
X238431Y-247970D01*
X238331Y-249198D01*
X238136Y-251180D01*
X237200Y-254266D01*
X235679Y-257110D01*
X233633Y-259604D01*
X231140Y-261649D01*
X228296Y-263170D01*
X225210Y-264106D01*
X223228Y-264301D01*
X222000Y-264401D01*
Y-264401D01*
X221999Y-264402D01*
X-221999D01*
X-222000Y-264401D01*
Y-264401D01*
X-223228Y-264301D01*
X-225210Y-264106D01*
X-228296Y-263170D01*
X-231140Y-261649D01*
X-233633Y-259604D01*
X-235679Y-257110D01*
X-237200Y-254266D01*
X-238136Y-251180D01*
X-238331Y-249198D01*
X-238431Y-247970D01*
X-238431Y-246706D01*
Y266194D01*
X-238431Y267460D01*
X-238331Y268689D01*
X-238136Y270670D01*
X-237200Y273756D01*
X-235679Y276600D01*
X-233633Y279093D01*
X-231140Y281140D01*
X-228296Y282660D01*
X-225210Y283596D01*
X-223228Y283791D01*
X-222000Y283891D01*
Y283891D01*
X-221999Y283892D01*
X-172401D01*
X-172400Y283891D01*
Y283891D01*
X-171171Y283791D01*
X-169190Y283596D01*
X-166104Y282660D01*
X-163260Y281140D01*
X-160767Y279093D01*
X-158721Y276600D01*
X-157200Y273756D01*
X-156264Y270670D01*
X-156069Y268689D01*
X-155969Y267460D01*
D01*
X-155969Y266200D01*
Y222250D01*
X-155973D01*
X-155681Y220031D01*
X-154825Y217963D01*
X-153462Y216188D01*
X-151687Y214825D01*
X-149619Y213969D01*
X-147400Y213677D01*
Y213681D01*
X-147400Y213682D01*
X34690D01*
X34690Y213681D01*
Y213677D01*
X36909Y213969D01*
X38977Y214825D01*
X40752Y216188D01*
X42115Y217963D01*
X42971Y220031D01*
X43263Y222250D01*
X43259D01*
Y267460D01*
X43245Y267530D01*
X43554Y270670D01*
X44490Y273756D01*
X46010Y276600D01*
X48057Y279093D01*
X50550Y281140D01*
X53394Y282660D01*
X56480Y283596D01*
X58461Y283791D01*
X59690Y283891D01*
Y283891D01*
X59691Y283892D01*
X221999D01*
X222000Y283892D01*
D02*
G37*
%LPC*%
G36*
X72580Y262063D02*
Y254190D01*
X80453D01*
X79499Y256494D01*
X77495Y259105D01*
X74884Y261108D01*
X72580Y262063D01*
D02*
G37*
G36*
X64580D02*
X62276Y261108D01*
X59665Y259105D01*
X57661Y256494D01*
X56707Y254190D01*
X64580D01*
Y262063D01*
D02*
G37*
G36*
X93980Y260780D02*
X91239Y260420D01*
X88685Y259361D01*
X86491Y257679D01*
X84808Y255485D01*
X83750Y252931D01*
X83389Y250190D01*
X83750Y247449D01*
X84808Y244895D01*
X86491Y242701D01*
X88685Y241018D01*
X91239Y239960D01*
X93980Y239599D01*
X96721Y239960D01*
X99275Y241018D01*
X101469Y242701D01*
X103152Y244895D01*
X104210Y247449D01*
X104571Y250190D01*
X104210Y252931D01*
X103152Y255485D01*
X101469Y257679D01*
X99275Y259361D01*
X96721Y260420D01*
X93980Y260780D01*
D02*
G37*
G36*
X215000Y280599D02*
X210981Y280203D01*
X207117Y279031D01*
X203556Y277127D01*
X200434Y274566D01*
X197872Y271444D01*
X195969Y267883D01*
X194797Y264018D01*
X194401Y260000D01*
X194797Y255981D01*
X195969Y252117D01*
X197872Y248556D01*
X200434Y245434D01*
X203556Y242872D01*
X207117Y240969D01*
X210981Y239796D01*
X215000Y239401D01*
X219018Y239796D01*
X222883Y240969D01*
X226444Y242872D01*
X229566Y245434D01*
X232127Y248556D01*
X234031Y252117D01*
X235203Y255981D01*
X235599Y260000D01*
X235203Y264018D01*
X234031Y267883D01*
X232127Y271444D01*
X229566Y274566D01*
X226444Y277127D01*
X222883Y279031D01*
X219018Y280203D01*
X215000Y280599D01*
D02*
G37*
G36*
X-215000D02*
X-219018Y280203D01*
X-222883Y279031D01*
X-226444Y277127D01*
X-229566Y274566D01*
X-232127Y271444D01*
X-234031Y267883D01*
X-235203Y264018D01*
X-235599Y260000D01*
X-235203Y255981D01*
X-234031Y252117D01*
X-232127Y248556D01*
X-229566Y245434D01*
X-226444Y242872D01*
X-222883Y240969D01*
X-219018Y239796D01*
X-215000Y239401D01*
X-210981Y239796D01*
X-207117Y240969D01*
X-203556Y242872D01*
X-200434Y245434D01*
X-197872Y248556D01*
X-195969Y252117D01*
X-194797Y255981D01*
X-194401Y260000D01*
X-194797Y264018D01*
X-195969Y267883D01*
X-197872Y271444D01*
X-200434Y274566D01*
X-203556Y277127D01*
X-207117Y279031D01*
X-210981Y280203D01*
X-215000Y280599D01*
D02*
G37*
G36*
X80453Y246190D02*
X72580D01*
Y238317D01*
X74884Y239271D01*
X77495Y241275D01*
X79499Y243886D01*
X80453Y246190D01*
D02*
G37*
G36*
X64580D02*
X56707D01*
X57661Y243886D01*
X59665Y241275D01*
X62276Y239271D01*
X64580Y238317D01*
Y246190D01*
D02*
G37*
G36*
X93980Y235380D02*
X91239Y235019D01*
X88685Y233962D01*
X86491Y232278D01*
X84808Y230085D01*
X83750Y227531D01*
X83389Y224790D01*
X83750Y222049D01*
X84808Y219494D01*
X86491Y217301D01*
X88685Y215618D01*
X91239Y214560D01*
X93980Y214199D01*
X96721Y214560D01*
X99275Y215618D01*
X101469Y217301D01*
X103152Y219494D01*
X104210Y222049D01*
X104571Y224790D01*
X104210Y227531D01*
X103152Y230085D01*
X101469Y232278D01*
X99275Y233962D01*
X96721Y235019D01*
X93980Y235380D01*
D02*
G37*
G36*
X68580D02*
X65839Y235019D01*
X63285Y233962D01*
X61091Y232278D01*
X59408Y230085D01*
X58350Y227531D01*
X57989Y224790D01*
X58350Y222049D01*
X59408Y219494D01*
X61091Y217301D01*
X63285Y215618D01*
X65839Y214560D01*
X68580Y214199D01*
X71321Y214560D01*
X73875Y215618D01*
X76069Y217301D01*
X77752Y219494D01*
X78810Y222049D01*
X79171Y224790D01*
X78810Y227531D01*
X77752Y230085D01*
X76069Y232278D01*
X73875Y233962D01*
X71321Y235019D01*
X68580Y235380D01*
D02*
G37*
G36*
X119380Y260780D02*
X116639Y260420D01*
X114085Y259361D01*
X111891Y257679D01*
X110208Y255485D01*
X109150Y252931D01*
X108789Y250190D01*
X109150Y247449D01*
X110208Y244895D01*
X111891Y242701D01*
X114085Y241018D01*
X116639Y239960D01*
X119380Y239599D01*
X122121Y239960D01*
X124503Y240947D01*
X128890Y236560D01*
X128364Y235290D01*
X108880D01*
Y214290D01*
X113476D01*
X113650Y213020D01*
X110707Y210077D01*
X58420D01*
X56274Y209651D01*
X54455Y208435D01*
X34507Y188487D01*
X6327D01*
X5666Y188994D01*
X3963Y189700D01*
X2136Y189940D01*
X309Y189700D01*
X-1394Y188994D01*
X-2856Y187872D01*
X-3978Y186410D01*
X-4684Y184707D01*
X-4924Y182880D01*
X-4684Y181052D01*
X-4591Y180830D01*
X-5484Y179666D01*
X-6350Y179780D01*
X-8177Y179540D01*
X-9880Y178834D01*
X-11342Y177712D01*
X-12464Y176250D01*
X-13170Y174547D01*
X-13410Y172720D01*
X-13170Y170892D01*
X-12464Y169190D01*
X-11342Y167727D01*
X-9880Y166605D01*
X-8177Y165900D01*
X-6350Y165659D01*
X-4523Y165900D01*
X-2820Y166605D01*
X-2159Y167112D01*
X102870D01*
X105016Y167539D01*
X106835Y168755D01*
X139855Y201775D01*
X141071Y203594D01*
X141498Y205740D01*
Y237490D01*
X141071Y239636D01*
X141071Y239636D01*
X141071Y239636D01*
X140339Y240731D01*
X139855Y241455D01*
X130857Y250454D01*
X130857Y250454D01*
X130857Y250454D01*
X129847Y251129D01*
X129610Y252931D01*
X128552Y255485D01*
X126869Y257679D01*
X124675Y259361D01*
X122121Y260420D01*
X119380Y260780D01*
D02*
G37*
G36*
X220050Y190840D02*
X199050D01*
Y169840D01*
X220050D01*
Y190840D01*
D02*
G37*
G36*
X188300D02*
X167300D01*
Y169840D01*
X188300D01*
Y190840D01*
D02*
G37*
G36*
X209550Y165530D02*
X206809Y165170D01*
X204255Y164111D01*
X202061Y162428D01*
X200378Y160235D01*
X199320Y157681D01*
X198959Y154940D01*
X199269Y152589D01*
X193933Y147254D01*
X192718Y145434D01*
X192291Y143288D01*
Y-15519D01*
X190345Y-17465D01*
X189129Y-19284D01*
X188702Y-21430D01*
Y-81238D01*
X186821Y-82682D01*
X185138Y-84875D01*
X184080Y-87429D01*
X183719Y-90170D01*
X184080Y-92911D01*
X185138Y-95465D01*
X186821Y-97659D01*
X189015Y-99342D01*
X191569Y-100400D01*
X194310Y-100761D01*
X197051Y-100400D01*
X199605Y-99342D01*
X201799Y-97659D01*
X203482Y-95465D01*
X204540Y-92911D01*
X204901Y-90170D01*
X204540Y-87429D01*
X203482Y-84875D01*
X201799Y-82682D01*
X199918Y-81238D01*
Y-23753D01*
X201864Y-21807D01*
X203079Y-19988D01*
X203506Y-17842D01*
Y9820D01*
X215659D01*
Y8314D01*
X214529Y6624D01*
X214102Y4478D01*
Y-81238D01*
X212221Y-82682D01*
X210538Y-84875D01*
X209480Y-87429D01*
X209119Y-90170D01*
X209480Y-92911D01*
X210538Y-95465D01*
X212221Y-97659D01*
X214415Y-99342D01*
X216969Y-100400D01*
X219710Y-100761D01*
X222451Y-100400D01*
X225005Y-99342D01*
X227199Y-97659D01*
X228882Y-95465D01*
X229940Y-92911D01*
X230301Y-90170D01*
X229940Y-87429D01*
X228882Y-84875D01*
X227199Y-82682D01*
X225318Y-81238D01*
Y2198D01*
X226447Y3888D01*
X226874Y6034D01*
Y117823D01*
X226447Y119969D01*
X225232Y121789D01*
X219831Y127189D01*
X220141Y129540D01*
X219780Y132281D01*
X218722Y134835D01*
X217039Y137029D01*
X214845Y138712D01*
X212291Y139769D01*
X209550Y140130D01*
X206809Y139769D01*
X204776Y138927D01*
X203506Y139622D01*
Y140965D01*
X207199Y144659D01*
X209550Y144349D01*
X212291Y144710D01*
X214845Y145768D01*
X217039Y147451D01*
X218722Y149644D01*
X219780Y152199D01*
X220141Y154940D01*
X219780Y157681D01*
X218722Y160235D01*
X217039Y162428D01*
X214845Y164111D01*
X212291Y165170D01*
X209550Y165530D01*
D02*
G37*
G36*
X177800D02*
X175059Y165170D01*
X172505Y164111D01*
X170311Y162428D01*
X168628Y160235D01*
X167570Y157681D01*
X167209Y154940D01*
X167570Y152199D01*
X168628Y149644D01*
X170311Y147451D01*
X172505Y145768D01*
X175059Y144710D01*
X177800Y144349D01*
X180541Y144710D01*
X183095Y145768D01*
X185289Y147451D01*
X186972Y149644D01*
X188030Y152199D01*
X188391Y154940D01*
X188030Y157681D01*
X186972Y160235D01*
X185289Y162428D01*
X183095Y164111D01*
X180541Y165170D01*
X177800Y165530D01*
D02*
G37*
G36*
Y140130D02*
X175059Y139769D01*
X172505Y138712D01*
X170311Y137029D01*
X168628Y134835D01*
X167570Y132281D01*
X167209Y129540D01*
X167570Y126799D01*
X168628Y124244D01*
X170311Y122051D01*
X172505Y120368D01*
X175059Y119310D01*
X177800Y118949D01*
X180541Y119310D01*
X183095Y120368D01*
X185289Y122051D01*
X186972Y124244D01*
X188030Y126799D01*
X188391Y129540D01*
X188030Y132281D01*
X186972Y134835D01*
X185289Y137029D01*
X183095Y138712D01*
X180541Y139769D01*
X177800Y140130D01*
D02*
G37*
G36*
X181800Y116013D02*
Y108140D01*
X189673D01*
X188719Y110444D01*
X186715Y113055D01*
X184104Y115058D01*
X181800Y116013D01*
D02*
G37*
G36*
X173800D02*
X171496Y115058D01*
X168885Y113055D01*
X166881Y110444D01*
X165927Y108140D01*
X173800D01*
Y116013D01*
D02*
G37*
G36*
X189673Y100140D02*
X181800D01*
Y92267D01*
X184104Y93221D01*
X186715Y95225D01*
X188719Y97836D01*
X189673Y100140D01*
D02*
G37*
G36*
X173800D02*
X165927D01*
X166881Y97836D01*
X168885Y95225D01*
X171496Y93221D01*
X173800Y92267D01*
Y100140D01*
D02*
G37*
G36*
X-22860Y-24849D02*
X-25632Y-25214D01*
X-28216Y-26284D01*
X-30434Y-27986D01*
X-32137Y-30204D01*
X-33207Y-32788D01*
X-33572Y-35560D01*
X-33207Y-38333D01*
X-32137Y-40916D01*
X-30434Y-43134D01*
X-28216Y-44837D01*
X-25632Y-45907D01*
X-22860Y-46272D01*
X-20088Y-45907D01*
X-17504Y-44837D01*
X-15286Y-43134D01*
X-13583Y-40916D01*
X-12513Y-38333D01*
X-12148Y-35560D01*
X-12513Y-32788D01*
X-13583Y-30204D01*
X-15286Y-27986D01*
X-17504Y-26284D01*
X-20088Y-25214D01*
X-22860Y-24849D01*
D02*
G37*
G36*
X143510Y27380D02*
X95708D01*
X93881Y27140D01*
X92178Y26434D01*
X90716Y25312D01*
X89594Y23850D01*
X88888Y22147D01*
X88648Y20320D01*
X88888Y18492D01*
X89594Y16790D01*
X90716Y15327D01*
X92178Y14205D01*
X93881Y13500D01*
X95708Y13259D01*
X143510D01*
X144793Y13428D01*
X146063Y12564D01*
Y-78651D01*
X144820Y-79752D01*
X143510Y-79580D01*
X140769Y-79941D01*
X138215Y-80998D01*
X136021Y-82682D01*
X134338Y-84875D01*
X133280Y-87429D01*
X132919Y-90170D01*
X133280Y-92911D01*
X134338Y-95465D01*
X136021Y-97659D01*
X138215Y-99342D01*
X140769Y-100400D01*
X143510Y-100761D01*
X146251Y-100400D01*
X148805Y-99342D01*
X150999Y-97659D01*
X152682Y-95465D01*
X153740Y-92911D01*
X154101Y-90170D01*
X153791Y-87820D01*
X155140Y-86471D01*
X156410Y-86997D01*
Y-102670D01*
X164910D01*
Y-90170D01*
Y-77670D01*
X157278D01*
Y21274D01*
X156851Y23420D01*
X155636Y25240D01*
X153816Y26455D01*
X151671Y26882D01*
X149524Y26455D01*
X148182Y25558D01*
X147040Y26434D01*
X145337Y27140D01*
X143510Y27380D01*
D02*
G37*
G36*
X181410Y-77670D02*
X172910D01*
Y-86170D01*
X181410D01*
Y-77670D01*
D02*
G37*
G36*
X-22860Y-75649D02*
X-25632Y-76014D01*
X-28216Y-77084D01*
X-30434Y-78786D01*
X-32137Y-81004D01*
X-33207Y-83588D01*
X-33572Y-86360D01*
X-33207Y-89133D01*
X-32137Y-91716D01*
X-30434Y-93934D01*
X-28216Y-95637D01*
X-25632Y-96707D01*
X-22860Y-97072D01*
X-20088Y-96707D01*
X-17504Y-95637D01*
X-15286Y-93934D01*
X-13583Y-91716D01*
X-12513Y-89133D01*
X-12148Y-86360D01*
X-12513Y-83588D01*
X-13583Y-81004D01*
X-15286Y-78786D01*
X-17504Y-77084D01*
X-20088Y-76014D01*
X-22860Y-75649D01*
D02*
G37*
G36*
X111760Y-100890D02*
X44450D01*
X44421Y-100894D01*
X44391Y-100890D01*
X43508Y-101014D01*
X42623Y-101130D01*
X42595Y-101142D01*
X42566Y-101146D01*
X41744Y-101494D01*
X40920Y-101836D01*
X40896Y-101854D01*
X40869Y-101865D01*
X40165Y-102415D01*
X39458Y-102958D01*
X39439Y-102981D01*
X39416Y-102999D01*
X38842Y-103583D01*
X37732Y-105055D01*
X37041Y-106763D01*
X36816Y-108593D01*
X37072Y-110418D01*
X37791Y-112115D01*
X38925Y-113568D01*
X40397Y-114678D01*
X42105Y-115369D01*
X43935Y-115594D01*
X45760Y-115338D01*
X46533Y-115011D01*
X111760D01*
X113587Y-114770D01*
X115290Y-114065D01*
X116752Y-112943D01*
X117874Y-111480D01*
X118580Y-109778D01*
X118820Y-107950D01*
X118580Y-106123D01*
X117874Y-104420D01*
X116752Y-102958D01*
X115290Y-101836D01*
X113587Y-101130D01*
X111760Y-100890D01*
D02*
G37*
G36*
X181410Y-94170D02*
X172910D01*
Y-102670D01*
X181410D01*
Y-94170D01*
D02*
G37*
G36*
X-106880Y-162800D02*
X-115380D01*
Y-173800D01*
X-106880D01*
Y-162800D01*
D02*
G37*
G36*
X-123380D02*
X-131880D01*
Y-173800D01*
X-123380D01*
Y-162800D01*
D02*
G37*
G36*
X207850Y-173150D02*
X200850D01*
Y-180150D01*
X207850D01*
Y-173150D01*
D02*
G37*
G36*
X192850D02*
X185850D01*
Y-180150D01*
X192850D01*
Y-173150D01*
D02*
G37*
G36*
X-93980Y-164710D02*
X-96721Y-165070D01*
X-99275Y-166129D01*
X-101469Y-167812D01*
X-103152Y-170005D01*
X-104210Y-172559D01*
X-104571Y-175300D01*
Y-180300D01*
X-104210Y-183041D01*
X-103152Y-185595D01*
X-101469Y-187789D01*
X-99275Y-189472D01*
X-96721Y-190530D01*
X-93980Y-190891D01*
X-91239Y-190530D01*
X-88685Y-189472D01*
X-86491Y-187789D01*
X-84808Y-185595D01*
X-83750Y-183041D01*
X-83389Y-180300D01*
Y-175300D01*
X-83750Y-172559D01*
X-84808Y-170005D01*
X-86491Y-167812D01*
X-88685Y-166129D01*
X-91239Y-165070D01*
X-93980Y-164710D01*
D02*
G37*
G36*
X-106880Y-181800D02*
X-115380D01*
Y-192800D01*
X-106880D01*
Y-181800D01*
D02*
G37*
G36*
X-123380D02*
X-131880D01*
Y-192800D01*
X-123380D01*
Y-181800D01*
D02*
G37*
G36*
X222250Y-175073D02*
X219900Y-175382D01*
X217711Y-176289D01*
X215831Y-177731D01*
X214389Y-179611D01*
X213482Y-181801D01*
X213172Y-184150D01*
X213482Y-186500D01*
X214389Y-188689D01*
X215831Y-190569D01*
X217711Y-192012D01*
X219900Y-192918D01*
X222250Y-193228D01*
X224599Y-192918D01*
X226789Y-192012D01*
X228669Y-190569D01*
X230112Y-188689D01*
X231018Y-186500D01*
X231328Y-184150D01*
X231018Y-181801D01*
X230112Y-179611D01*
X228669Y-177731D01*
X226789Y-176289D01*
X224599Y-175382D01*
X222250Y-175073D01*
D02*
G37*
G36*
X207850Y-188150D02*
X200850D01*
Y-195150D01*
X207850D01*
Y-188150D01*
D02*
G37*
G36*
X192850D02*
X185850D01*
Y-195150D01*
X192850D01*
Y-188150D01*
D02*
G37*
G36*
X168710Y-227530D02*
X160210D01*
Y-236030D01*
X168710D01*
Y-227530D01*
D02*
G37*
G36*
X-126810Y-228157D02*
Y-236030D01*
X-118937D01*
X-119891Y-233726D01*
X-121895Y-231115D01*
X-124506Y-229111D01*
X-126810Y-228157D01*
D02*
G37*
G36*
X-134810D02*
X-137114Y-229111D01*
X-139725Y-231115D01*
X-141729Y-233726D01*
X-142683Y-236030D01*
X-134810D01*
Y-228157D01*
D02*
G37*
G36*
X152210Y-227530D02*
X143710D01*
Y-236030D01*
X152210D01*
Y-227530D01*
D02*
G37*
G36*
X-79670Y-229530D02*
X-100670D01*
Y-250530D01*
X-79670D01*
Y-229530D01*
D02*
G37*
G36*
X-145710D02*
X-166710D01*
Y-250530D01*
X-145710D01*
Y-229530D01*
D02*
G37*
G36*
X130810Y-229440D02*
X128069Y-229800D01*
X125515Y-230858D01*
X123321Y-232542D01*
X121638Y-234735D01*
X120580Y-237289D01*
X120219Y-240030D01*
X120580Y-242771D01*
X121638Y-245326D01*
X123321Y-247519D01*
X125515Y-249202D01*
X128069Y-250260D01*
X130810Y-250621D01*
X133551Y-250260D01*
X136105Y-249202D01*
X138299Y-247519D01*
X139982Y-245326D01*
X141040Y-242771D01*
X141401Y-240030D01*
X141040Y-237289D01*
X139982Y-234735D01*
X138299Y-232542D01*
X136105Y-230858D01*
X133551Y-229800D01*
X130810Y-229440D01*
D02*
G37*
G36*
X105410D02*
X102669Y-229800D01*
X100115Y-230858D01*
X97921Y-232542D01*
X96238Y-234735D01*
X95180Y-237289D01*
X94819Y-240030D01*
X95180Y-242771D01*
X96238Y-245326D01*
X97921Y-247519D01*
X100115Y-249202D01*
X102669Y-250260D01*
X105410Y-250621D01*
X108151Y-250260D01*
X110705Y-249202D01*
X112899Y-247519D01*
X114582Y-245326D01*
X115640Y-242771D01*
X116001Y-240030D01*
X115640Y-237289D01*
X114582Y-234735D01*
X112899Y-232542D01*
X110705Y-230858D01*
X108151Y-229800D01*
X105410Y-229440D01*
D02*
G37*
G36*
X80010D02*
X77269Y-229800D01*
X74715Y-230858D01*
X72521Y-232542D01*
X70838Y-234735D01*
X69780Y-237289D01*
X69419Y-240030D01*
X69780Y-242771D01*
X70838Y-245326D01*
X72521Y-247519D01*
X74715Y-249202D01*
X77269Y-250260D01*
X80010Y-250621D01*
X82751Y-250260D01*
X85305Y-249202D01*
X87499Y-247519D01*
X89182Y-245326D01*
X90240Y-242771D01*
X90601Y-240030D01*
X90240Y-237289D01*
X89182Y-234735D01*
X87499Y-232542D01*
X85305Y-230858D01*
X82751Y-229800D01*
X80010Y-229440D01*
D02*
G37*
G36*
X-64770D02*
X-67511Y-229800D01*
X-70065Y-230858D01*
X-72259Y-232542D01*
X-73942Y-234735D01*
X-75000Y-237289D01*
X-75361Y-240030D01*
X-75000Y-242771D01*
X-73942Y-245326D01*
X-72259Y-247519D01*
X-70065Y-249202D01*
X-67511Y-250260D01*
X-64770Y-250621D01*
X-62029Y-250260D01*
X-59475Y-249202D01*
X-57281Y-247519D01*
X-55598Y-245326D01*
X-54540Y-242771D01*
X-54179Y-240030D01*
X-54540Y-237289D01*
X-55598Y-234735D01*
X-57281Y-232542D01*
X-59475Y-230858D01*
X-62029Y-229800D01*
X-64770Y-229440D01*
D02*
G37*
G36*
X-118937Y-244030D02*
X-126810D01*
Y-251903D01*
X-124506Y-250949D01*
X-121895Y-248945D01*
X-119891Y-246334D01*
X-118937Y-244030D01*
D02*
G37*
G36*
X-134810D02*
X-142683D01*
X-141729Y-246334D01*
X-139725Y-248945D01*
X-137114Y-250949D01*
X-134810Y-251903D01*
Y-244030D01*
D02*
G37*
G36*
X168710D02*
X160210D01*
Y-252530D01*
X168710D01*
Y-244030D01*
D02*
G37*
G36*
X152210D02*
X143710D01*
Y-252530D01*
X152210D01*
Y-244030D01*
D02*
G37*
G36*
X215000Y-219401D02*
X210981Y-219797D01*
X207117Y-220969D01*
X203556Y-222873D01*
X200434Y-225434D01*
X197872Y-228556D01*
X195969Y-232117D01*
X194797Y-235982D01*
X194401Y-240000D01*
X194797Y-244019D01*
X195969Y-247883D01*
X197872Y-251444D01*
X200434Y-254566D01*
X203556Y-257128D01*
X207117Y-259031D01*
X210981Y-260204D01*
X215000Y-260599D01*
X219018Y-260204D01*
X222883Y-259031D01*
X226444Y-257128D01*
X229566Y-254566D01*
X232127Y-251444D01*
X234031Y-247883D01*
X235203Y-244019D01*
X235599Y-240000D01*
X235203Y-235982D01*
X234031Y-232117D01*
X232127Y-228556D01*
X229566Y-225434D01*
X226444Y-222873D01*
X222883Y-220969D01*
X219018Y-219797D01*
X215000Y-219401D01*
D02*
G37*
G36*
X-215000D02*
X-219018Y-219797D01*
X-222883Y-220969D01*
X-226444Y-222873D01*
X-229566Y-225434D01*
X-232127Y-228556D01*
X-234031Y-232117D01*
X-235203Y-235982D01*
X-235599Y-240000D01*
X-235203Y-244019D01*
X-234031Y-247883D01*
X-232127Y-251444D01*
X-229566Y-254566D01*
X-226444Y-257128D01*
X-222883Y-259031D01*
X-219018Y-260204D01*
X-215000Y-260599D01*
X-210981Y-260204D01*
X-207117Y-259031D01*
X-203556Y-257128D01*
X-200434Y-254566D01*
X-197872Y-251444D01*
X-195969Y-247883D01*
X-194797Y-244019D01*
X-194401Y-240000D01*
X-194797Y-235982D01*
X-195969Y-232117D01*
X-197872Y-228556D01*
X-200434Y-225434D01*
X-203556Y-222873D01*
X-207117Y-220969D01*
X-210981Y-219797D01*
X-215000Y-219401D01*
D02*
G37*
%LPD*%
D65*
X53340Y184150D02*
X53688Y184498D01*
X91666D01*
X197899Y143288D02*
X209550Y154940D01*
X197899Y-17842D02*
Y143288D01*
X194310Y-21430D02*
X197899Y-17842D01*
X194310Y-90170D02*
Y-21430D01*
X209550Y129540D02*
X221266Y117823D01*
Y6034D02*
Y117823D01*
X219710Y4478D02*
X221266Y6034D01*
X219710Y-90170D02*
Y4478D01*
X143510Y-90170D02*
X151671Y-82010D01*
Y21274D01*
X150716Y20320D02*
X151671Y21274D01*
X58420Y204470D02*
X113030D01*
X119380Y210820D01*
Y224790D01*
X2136Y182880D02*
X36830D01*
X58420Y204470D01*
X-6350Y172720D02*
X102870D01*
X135890Y205740D01*
Y237490D01*
X126892Y246488D02*
X135890Y237490D01*
X125787Y246488D02*
X126892D01*
X122086Y250190D02*
X125787Y246488D01*
X119380Y250190D02*
X122086D01*
D68*
X95708Y20320D02*
X143510D01*
X43876Y-108534D02*
X44450Y-107950D01*
X111760D01*
D71*
X68580Y250190D02*
D03*
Y224790D02*
D03*
X93980Y250190D02*
D03*
Y224790D02*
D03*
X119380Y250190D02*
D03*
X219710Y-90170D02*
D03*
X194310D02*
D03*
X143510D02*
D03*
X209550Y71120D02*
D03*
Y45720D02*
D03*
X-64770Y-240030D02*
D03*
X-130810D02*
D03*
X130810D02*
D03*
X105410D02*
D03*
X80010D02*
D03*
X209550Y154940D02*
D03*
Y129540D02*
D03*
Y104140D02*
D03*
X177800Y154940D02*
D03*
Y129540D02*
D03*
Y104140D02*
D03*
D72*
X119380Y224790D02*
D03*
X168910Y-90170D02*
D03*
X-90170Y-240030D02*
D03*
X-156210D02*
D03*
X156210D02*
D03*
D73*
X-215000Y260000D02*
D03*
Y-240000D02*
D03*
X215000D02*
D03*
Y260000D02*
D03*
D74*
X222250Y-184150D02*
D03*
D75*
X196850D02*
D03*
D76*
X-22860Y-86360D02*
D03*
Y-35560D02*
D03*
D77*
X209550Y20320D02*
D03*
Y180340D02*
D03*
X177800D02*
D03*
D78*
X-119380Y-177800D02*
D03*
D79*
X-93980D02*
D03*
D80*
X53340Y184150D02*
D03*
X143510Y20320D02*
D03*
X2136Y182880D02*
D03*
X-6350Y172720D02*
D03*
X111760Y-107950D02*
D03*
M02*
