G04*
G04 #@! TF.GenerationSoftware,Altium Limited,Altium Designer,23.3.1 (30)*
G04*
G04 Layer_Color=32896*
%FSLAX44Y44*%
%MOMM*%
G71*
G04*
G04 #@! TF.SameCoordinates,39CBC296-F970-41FA-A2E7-6093A4F5A77D*
G04*
G04*
G04 #@! TF.FilePolarity,Positive*
G04*
G01*
G75*
G36*
X34538Y158145D02*
X35143D01*
Y157540D01*
X35749D01*
Y156934D01*
X36354D01*
Y155724D01*
X36959D01*
Y153303D01*
X36354D01*
Y152092D01*
X35749D01*
Y150882D01*
X34538D01*
Y150277D01*
X33328D01*
Y149671D01*
X19407D01*
Y150277D01*
X18197D01*
Y150882D01*
X16986D01*
Y151487D01*
X16381D01*
Y152698D01*
X15776D01*
Y156329D01*
X16381D01*
Y156934D01*
X16986D01*
Y157540D01*
X17592D01*
Y158145D01*
X18197D01*
Y158750D01*
X34538D01*
Y158145D01*
D02*
G37*
G36*
X-19933Y152698D02*
X-18117D01*
Y152092D01*
X-17512D01*
Y151487D01*
X-16907D01*
Y150277D01*
X-16302D01*
Y146645D01*
X-16907D01*
Y145435D01*
X-17512D01*
Y144830D01*
X-18723D01*
Y144224D01*
X-56247D01*
Y144830D01*
X-56852D01*
Y145435D01*
X-57458D01*
Y146040D01*
X-58063D01*
Y146645D01*
X-58668D01*
Y150277D01*
X-58063D01*
Y151487D01*
X-57458D01*
Y152092D01*
X-56852D01*
Y152698D01*
X-55037D01*
Y153303D01*
X-19933D01*
Y152698D01*
D02*
G37*
G36*
X-67141D02*
X-65931D01*
Y152092D01*
X-64720D01*
Y151487D01*
X-64115D01*
Y150277D01*
X-63510D01*
Y146645D01*
X-64115D01*
Y146040D01*
X-64720D01*
Y145435D01*
X-65326D01*
Y144830D01*
X-65931D01*
Y144224D01*
X-75009D01*
Y144830D01*
X-75615D01*
Y145435D01*
X-76220D01*
Y146040D01*
X-76825D01*
Y147856D01*
X-77430D01*
Y149671D01*
X-76825D01*
Y150882D01*
X-76220D01*
Y151487D01*
X-75615D01*
Y152092D01*
X-75009D01*
Y152698D01*
X-73194D01*
Y153303D01*
X-67141D01*
Y152698D01*
D02*
G37*
G36*
X33933Y144224D02*
X35143D01*
Y143619D01*
X35749D01*
Y143014D01*
X36354D01*
Y141804D01*
X36959D01*
Y138777D01*
X36354D01*
Y137567D01*
X35749D01*
Y136962D01*
X35143D01*
Y136356D01*
X33933D01*
Y135751D01*
X18802D01*
Y136356D01*
X17592D01*
Y136962D01*
X16986D01*
Y137567D01*
X16381D01*
Y138777D01*
X15776D01*
Y141804D01*
X16381D01*
Y143014D01*
X16986D01*
Y143619D01*
X17592D01*
Y144224D01*
X18802D01*
Y144830D01*
X33933D01*
Y144224D01*
D02*
G37*
G36*
X-4802Y169644D02*
X-3592D01*
Y169039D01*
X-2381D01*
Y168434D01*
X-1776D01*
Y167829D01*
X-1171D01*
Y167223D01*
X-566D01*
Y166618D01*
X40D01*
Y165408D01*
X645D01*
Y164802D01*
X1250D01*
Y162987D01*
X1855D01*
Y133935D01*
X1250D01*
Y132725D01*
X645D01*
Y131515D01*
X40D01*
Y130304D01*
X-566D01*
Y129699D01*
X-1171D01*
Y129094D01*
X-1776D01*
Y128488D01*
X-2986D01*
Y127883D01*
X-4197D01*
Y127278D01*
X-5407D01*
Y126673D01*
X-60484D01*
Y127278D01*
X-61694D01*
Y127883D01*
X-62299D01*
Y128488D01*
X-62905D01*
Y129699D01*
X-63510D01*
Y132725D01*
X-62905D01*
Y133935D01*
X-62299D01*
Y134541D01*
X-61694D01*
Y135146D01*
X-60484D01*
Y135751D01*
X-7828D01*
Y136356D01*
X-7223D01*
Y161171D01*
X-85904D01*
Y160566D01*
X-86509D01*
Y136356D01*
X-85904D01*
Y135751D01*
X-75615D01*
Y135146D01*
X-74404D01*
Y134541D01*
X-73799D01*
Y133935D01*
X-73194D01*
Y132725D01*
X-72589D01*
Y129699D01*
X-73194D01*
Y128488D01*
X-73799D01*
Y127883D01*
X-74404D01*
Y127278D01*
X-75009D01*
Y126673D01*
X-87719D01*
Y127278D01*
X-89535D01*
Y127883D01*
X-90745D01*
Y128488D01*
X-91351D01*
Y129094D01*
X-91956D01*
Y129699D01*
X-92561D01*
Y130304D01*
X-93166D01*
Y130909D01*
X-93772D01*
Y132120D01*
X-94377D01*
Y133330D01*
X-94982D01*
Y135146D01*
X-95587D01*
Y161776D01*
X-94982D01*
Y164197D01*
X-94377D01*
Y165408D01*
X-93772D01*
Y166013D01*
X-93166D01*
Y166618D01*
X-92561D01*
Y167829D01*
X-91351D01*
Y168434D01*
X-90745D01*
Y169039D01*
X-89535D01*
Y169644D01*
X-88324D01*
Y170250D01*
X-4802D01*
Y169644D01*
D02*
G37*
G36*
X80536D02*
X82957D01*
Y169039D01*
X84773D01*
Y168434D01*
X85983D01*
Y167829D01*
X87193D01*
Y167223D01*
X87799D01*
Y166618D01*
X89009D01*
Y166013D01*
X89614D01*
Y165408D01*
X90220D01*
Y164802D01*
X91430D01*
Y164197D01*
X92035D01*
Y163592D01*
X92640D01*
Y162987D01*
X93246D01*
Y161776D01*
X93851D01*
Y161171D01*
X94456D01*
Y160566D01*
X95062D01*
Y159355D01*
X95667D01*
Y158750D01*
X96272D01*
Y157540D01*
X96877D01*
Y155724D01*
X97482D01*
Y153908D01*
X98088D01*
Y152092D01*
X98693D01*
Y143014D01*
X98088D01*
Y140593D01*
X97482D01*
Y139988D01*
Y139382D01*
Y138777D01*
X96877D01*
Y137567D01*
X96272D01*
Y136356D01*
X95667D01*
Y135146D01*
X95062D01*
Y134541D01*
X94456D01*
Y133330D01*
X93851D01*
Y132725D01*
X93246D01*
Y132120D01*
X92640D01*
Y131515D01*
X92035D01*
Y130909D01*
X91430D01*
Y130304D01*
X90825D01*
Y129699D01*
X90220D01*
Y129094D01*
X89614D01*
Y128488D01*
X88404D01*
Y127883D01*
X87799D01*
Y127278D01*
X86588D01*
Y126673D01*
X85378D01*
Y126067D01*
X84167D01*
Y125462D01*
X82352D01*
Y124857D01*
X79931D01*
Y124252D01*
X71457D01*
Y124857D01*
X69036D01*
Y125462D01*
X67221D01*
Y126067D01*
X66010D01*
Y126673D01*
X64800D01*
Y127278D01*
X63589D01*
Y127883D01*
X62984D01*
Y128488D01*
X61774D01*
Y129094D01*
X61168D01*
Y129699D01*
X60563D01*
Y130304D01*
X59958D01*
Y130909D01*
X59353D01*
Y131515D01*
X58747D01*
Y132120D01*
X58142D01*
Y132725D01*
X57537D01*
Y133330D01*
X56932D01*
Y133935D01*
X56326D01*
Y135146D01*
X55721D01*
Y136356D01*
X55116D01*
Y137567D01*
X54511D01*
Y138777D01*
X53906D01*
Y140593D01*
X53300D01*
Y143014D01*
X52695D01*
Y152092D01*
X53300D01*
Y154513D01*
X53906D01*
Y155724D01*
X54511D01*
Y157540D01*
X55116D01*
Y158750D01*
X55721D01*
Y159355D01*
X56326D01*
Y160566D01*
X56932D01*
Y161171D01*
X57537D01*
Y161776D01*
X58142D01*
Y162987D01*
X58747D01*
Y163592D01*
X59353D01*
Y164197D01*
X59958D01*
Y164802D01*
X60563D01*
Y165408D01*
X61774D01*
Y166013D01*
X62379D01*
Y166618D01*
X63589D01*
Y167223D01*
X64194D01*
Y167829D01*
X65405D01*
Y168434D01*
X66616D01*
Y169039D01*
X68431D01*
Y169644D01*
X70852D01*
Y170250D01*
X80536D01*
Y169644D01*
D02*
G37*
G36*
X113824Y118199D02*
X114429D01*
Y117594D01*
X115034D01*
Y116989D01*
X115639D01*
Y116384D01*
X116245D01*
Y115778D01*
X116850D01*
Y115173D01*
X117455D01*
Y114568D01*
X118060D01*
Y113963D01*
X118666D01*
Y113357D01*
X119271D01*
Y112752D01*
X119876D01*
Y112147D01*
X120481D01*
Y111542D01*
X121087D01*
Y110936D01*
X121692D01*
Y110331D01*
X122297D01*
Y109726D01*
X122902D01*
Y109121D01*
X123507D01*
Y108516D01*
X124113D01*
Y107910D01*
X124718D01*
Y107305D01*
X125323D01*
Y106700D01*
X125928D01*
Y104884D01*
X126534D01*
Y-65187D01*
X125928D01*
Y-67002D01*
X125323D01*
Y-67608D01*
X124718D01*
Y-68213D01*
X124113D01*
Y-68818D01*
X123507D01*
Y-69423D01*
X122902D01*
Y-70029D01*
X122297D01*
Y-70634D01*
X121692D01*
Y-71239D01*
X121087D01*
Y-71844D01*
X120481D01*
Y-72449D01*
X119876D01*
Y-73055D01*
X119271D01*
Y-73660D01*
X118666D01*
Y-74265D01*
X118060D01*
Y-74871D01*
X117455D01*
Y-75476D01*
X116850D01*
Y-76081D01*
X116245D01*
Y-76686D01*
X115639D01*
Y-77291D01*
X115034D01*
Y-77897D01*
X114429D01*
Y-78502D01*
X113218D01*
Y-79107D01*
X-111929D01*
Y-78502D01*
X-113139D01*
Y-77897D01*
X-113744D01*
Y-77291D01*
X-114350D01*
Y-76686D01*
X-114955D01*
Y-76081D01*
X-115560D01*
Y-75476D01*
X-116165D01*
Y-74871D01*
X-116771D01*
Y-74265D01*
X-117376D01*
Y-73660D01*
X-117981D01*
Y-73055D01*
X-118586D01*
Y-72449D01*
X-119192D01*
Y-71844D01*
X-119797D01*
Y-71239D01*
X-120402D01*
Y-70634D01*
X-121007D01*
Y-70029D01*
X-121612D01*
Y-69423D01*
X-122218D01*
Y-68818D01*
X-122823D01*
Y-68213D01*
X-123428D01*
Y-67608D01*
X-124033D01*
Y-67002D01*
X-124639D01*
Y-65187D01*
X-125244D01*
Y-44004D01*
X-124639D01*
Y-42188D01*
X-124033D01*
Y-41583D01*
X-123428D01*
Y-40977D01*
X-122823D01*
Y-40372D01*
X-121007D01*
Y-39767D01*
X-119797D01*
Y-40372D01*
X-117981D01*
Y-40977D01*
X-117376D01*
Y-41583D01*
X-116771D01*
Y-42793D01*
X-116165D01*
Y-62766D01*
X-115560D01*
Y-63371D01*
X-114955D01*
Y-63976D01*
X-114350D01*
Y-64581D01*
X-113744D01*
Y-65187D01*
X-113139D01*
Y-65792D01*
X-112534D01*
Y-66397D01*
X-111929D01*
Y-67002D01*
X-111323D01*
Y-67608D01*
X-110718D01*
Y-68213D01*
X-110113D01*
Y-68818D01*
X-109508D01*
Y-69423D01*
X-108903D01*
Y-70029D01*
X-93166D01*
Y-13137D01*
X-92561D01*
Y-11321D01*
X-91956D01*
Y-10110D01*
X-91351D01*
Y-9505D01*
X-90140D01*
Y-8900D01*
X-87114D01*
Y-9505D01*
X-85904D01*
Y-10110D01*
X-85298D01*
Y-10716D01*
X-84693D01*
Y-11321D01*
X-84088D01*
Y-70029D01*
X-58668D01*
Y-59740D01*
X-58063D01*
Y-57924D01*
X-57458D01*
Y-57319D01*
X-56852D01*
Y-56108D01*
X-56247D01*
Y-55503D01*
X-55642D01*
Y-54898D01*
X-55037D01*
Y-54292D01*
X-53826D01*
Y-53687D01*
X-52616D01*
Y-53082D01*
X-51405D01*
Y-52477D01*
X-34459D01*
Y-36741D01*
X-33853D01*
Y-35530D01*
X-33248D01*
Y-34320D01*
X-32643D01*
Y-33714D01*
X-31432D01*
Y-33109D01*
X-30827D01*
Y-32504D01*
X-30222D01*
Y-31899D01*
X-29617D01*
Y-31294D01*
X-29012D01*
Y-30688D01*
X-28406D01*
Y-30083D01*
X-27801D01*
Y-29478D01*
X-26591D01*
Y-28873D01*
X-25985D01*
Y-28267D01*
X-25380D01*
Y-27662D01*
X-24775D01*
Y-27057D01*
X-24170D01*
Y-26452D01*
X-23565D01*
Y-25847D01*
X-22959D01*
Y-25241D01*
X-21749D01*
Y-24636D01*
X-21144D01*
Y-24031D01*
X-20538D01*
Y-23426D01*
X-19933D01*
Y-22820D01*
X-19328D01*
Y-22215D01*
X-18723D01*
Y-21610D01*
X-18117D01*
Y-21005D01*
X-17512D01*
Y-20399D01*
X-16302D01*
Y-19794D01*
X-15696D01*
Y-19189D01*
X-15091D01*
Y-18584D01*
X-14486D01*
Y-17978D01*
X-13881D01*
Y-17373D01*
X-13276D01*
Y-16768D01*
X-12670D01*
Y-16163D01*
X-11460D01*
Y-15558D01*
X-10855D01*
Y-14952D01*
X-6618D01*
Y-15558D01*
X-4197D01*
Y-16163D01*
X-1171D01*
Y-16768D01*
X1250D01*
Y-17373D01*
X3671D01*
Y-17978D01*
X6697D01*
Y-18584D01*
X9118D01*
Y-19189D01*
X11539D01*
Y-19794D01*
X14565D01*
Y-20399D01*
X16986D01*
Y-21005D01*
X19407D01*
Y-21610D01*
X22433D01*
Y-22215D01*
X24854D01*
Y-22820D01*
X25459D01*
Y-23426D01*
X26670D01*
Y-24636D01*
X27275D01*
Y-25241D01*
X27880D01*
Y-26452D01*
X28486D01*
Y-27057D01*
X29091D01*
Y-27662D01*
X29696D01*
Y-28873D01*
X30301D01*
Y-29478D01*
X30907D01*
Y-30688D01*
X31512D01*
Y-31294D01*
X32117D01*
Y-31899D01*
X32722D01*
Y-33109D01*
X33328D01*
Y-33714D01*
X33933D01*
Y-34925D01*
X34538D01*
Y-35530D01*
X35143D01*
Y-36741D01*
X35749D01*
Y-52477D01*
X52695D01*
Y-53082D01*
X53906D01*
Y-53687D01*
X55116D01*
Y-54292D01*
X56326D01*
Y-54898D01*
X56932D01*
Y-55503D01*
X57537D01*
Y-56108D01*
X58142D01*
Y-57319D01*
X58747D01*
Y-57924D01*
X59353D01*
Y-59740D01*
X59958D01*
Y-70029D01*
X85378D01*
Y-11321D01*
X85983D01*
Y-10716D01*
X86588D01*
Y-10110D01*
X87193D01*
Y-9505D01*
X88404D01*
Y-8900D01*
X91430D01*
Y-9505D01*
X92035D01*
Y-10110D01*
X93246D01*
Y-11321D01*
X93851D01*
Y-13137D01*
X94456D01*
Y-70029D01*
X110192D01*
Y-69423D01*
X110798D01*
Y-68818D01*
X111403D01*
Y-68213D01*
X112008D01*
Y-67608D01*
X112613D01*
Y-67002D01*
X113218D01*
Y-66397D01*
X113824D01*
Y-65792D01*
X114429D01*
Y-65187D01*
X115034D01*
Y-64581D01*
X115639D01*
Y-63976D01*
X116245D01*
Y-63371D01*
X116850D01*
Y-62766D01*
X117455D01*
Y61912D01*
X116850D01*
Y62518D01*
X14565D01*
Y47992D01*
X13960D01*
Y46782D01*
X13355D01*
Y45571D01*
X12144D01*
Y44966D01*
X10934D01*
Y44361D01*
X1855D01*
Y43150D01*
X1250D01*
Y41335D01*
X645D01*
Y39519D01*
X40D01*
Y37098D01*
X-566D01*
Y35282D01*
X-1171D01*
Y33466D01*
X-1776D01*
Y31651D01*
X-2381D01*
Y29835D01*
X-2986D01*
Y28625D01*
X-3592D01*
Y28019D01*
X-4197D01*
Y27414D01*
X-5407D01*
Y26809D01*
X-13881D01*
Y11678D01*
X-14486D01*
Y10468D01*
X-15091D01*
Y9862D01*
X-15696D01*
Y9257D01*
X-16907D01*
Y8652D01*
X-19933D01*
Y9257D01*
X-21144D01*
Y9862D01*
X-21749D01*
Y10468D01*
X-22354D01*
Y11678D01*
X-22959D01*
Y26809D01*
X-31432D01*
Y27414D01*
X-32643D01*
Y28019D01*
X-33248D01*
Y28625D01*
X-33853D01*
Y29835D01*
X-34459D01*
Y30440D01*
X-35064D01*
Y29835D01*
X-35669D01*
Y29230D01*
X-36880D01*
Y28625D01*
X-38090D01*
Y28019D01*
X-39301D01*
Y27414D01*
X-41116D01*
Y26809D01*
X-45353D01*
Y26204D01*
X-45958D01*
Y26809D01*
X-50195D01*
Y27414D01*
X-52010D01*
Y28019D01*
X-53826D01*
Y28625D01*
X-55037D01*
Y29230D01*
X-56247D01*
Y29835D01*
X-57458D01*
Y30440D01*
X-58063D01*
Y31046D01*
X-59273D01*
Y31651D01*
X-59879D01*
Y32256D01*
X-61089D01*
Y32861D01*
X-61694D01*
Y33466D01*
X-62905D01*
Y34072D01*
X-68352D01*
Y33466D01*
X-70167D01*
Y32861D01*
X-71983D01*
Y32256D01*
X-73799D01*
Y31651D01*
X-76220D01*
Y31046D01*
X-78641D01*
Y30440D01*
X-84693D01*
Y31046D01*
X-86509D01*
Y31651D01*
X-87719D01*
Y32256D01*
X-88324D01*
Y32861D01*
X-89535D01*
Y33466D01*
X-90140D01*
Y34072D01*
X-90745D01*
Y34677D01*
X-91351D01*
Y35887D01*
X-91956D01*
Y36493D01*
X-92561D01*
Y37098D01*
X-93166D01*
Y38308D01*
X-93772D01*
Y39519D01*
X-94377D01*
Y41940D01*
X-94982D01*
Y47992D01*
X-94377D01*
Y49808D01*
X-93772D01*
Y51624D01*
X-93166D01*
Y52834D01*
X-92561D01*
Y53439D01*
X-91956D01*
Y54650D01*
X-91351D01*
Y55255D01*
X-90745D01*
Y55860D01*
X-90140D01*
Y56465D01*
X-89535D01*
Y57676D01*
X-88930D01*
Y58281D01*
X-88324D01*
Y58886D01*
X-87719D01*
Y59492D01*
X-86509D01*
Y60097D01*
X-85904D01*
Y60702D01*
X-85298D01*
Y61307D01*
X-84693D01*
Y61912D01*
X-84088D01*
Y62518D01*
X-115560D01*
Y61912D01*
X-116165D01*
Y-28267D01*
X-116771D01*
Y-29478D01*
X-117376D01*
Y-30083D01*
X-118586D01*
Y-30688D01*
X-122823D01*
Y-30083D01*
X-123428D01*
Y-29478D01*
X-124033D01*
Y-28873D01*
X-124639D01*
Y-27057D01*
X-125244D01*
Y104884D01*
X-124639D01*
Y106700D01*
X-124033D01*
Y107305D01*
X-123428D01*
Y107910D01*
X-122823D01*
Y108516D01*
X-122218D01*
Y109121D01*
X-121612D01*
Y109726D01*
X-121007D01*
Y110331D01*
X-120402D01*
Y110936D01*
X-119797D01*
Y111542D01*
X-119192D01*
Y112147D01*
X-118586D01*
Y112752D01*
X-117981D01*
Y113357D01*
X-117376D01*
Y113963D01*
X-116771D01*
Y114568D01*
X-116165D01*
Y115173D01*
X-115560D01*
Y115778D01*
X-114955D01*
Y116384D01*
X-114350D01*
Y116989D01*
X-113744D01*
Y117594D01*
X-113139D01*
Y118199D01*
X-112534D01*
Y118805D01*
X113824D01*
Y118199D01*
D02*
G37*
G36*
X122902Y185986D02*
X124113D01*
Y185380D01*
X124718D01*
Y184775D01*
X125323D01*
Y184170D01*
X125928D01*
Y183565D01*
X126534D01*
Y182959D01*
X127139D01*
Y182354D01*
X127744D01*
Y181749D01*
X128349D01*
Y181144D01*
X128955D01*
Y180539D01*
X129560D01*
Y179933D01*
X130165D01*
Y179328D01*
X130770D01*
Y178723D01*
X131376D01*
Y178118D01*
X131981D01*
Y177512D01*
X132586D01*
Y176907D01*
X133191D01*
Y176302D01*
X133797D01*
Y175697D01*
X134402D01*
Y175091D01*
X135007D01*
Y174486D01*
X135612D01*
Y173881D01*
X136217D01*
Y173276D01*
X136823D01*
Y172670D01*
X137428D01*
Y172065D01*
X138033D01*
Y171460D01*
X138638D01*
Y170855D01*
X139244D01*
Y170250D01*
X139849D01*
Y169644D01*
X140454D01*
Y169039D01*
X141059D01*
Y168434D01*
X141664D01*
Y167829D01*
X142270D01*
Y167223D01*
X142875D01*
Y166618D01*
X143480D01*
Y166013D01*
X144086D01*
Y165408D01*
X144691D01*
Y164802D01*
X145296D01*
Y164197D01*
X145901D01*
Y163592D01*
X146506D01*
Y162987D01*
X147112D01*
Y162381D01*
X147717D01*
Y161776D01*
X148322D01*
Y161171D01*
X148927D01*
Y160566D01*
X149533D01*
Y159960D01*
X150138D01*
Y159355D01*
X150743D01*
Y158750D01*
X151348D01*
Y158145D01*
X151953D01*
Y157540D01*
X152559D01*
Y156934D01*
X153164D01*
Y156329D01*
X153769D01*
Y155724D01*
X154374D01*
Y155119D01*
X154980D01*
Y153908D01*
X155585D01*
Y-120263D01*
X154980D01*
Y-121474D01*
X154374D01*
Y-122079D01*
X153769D01*
Y-122684D01*
X152559D01*
Y-123289D01*
X98088D01*
Y-122684D01*
X96877D01*
Y-122079D01*
X96272D01*
Y-121474D01*
X95667D01*
Y-120868D01*
X95062D01*
Y-105132D01*
X-93772D01*
Y-120868D01*
X-94377D01*
Y-121474D01*
X-94982D01*
Y-122079D01*
X-95587D01*
Y-122684D01*
X-96798D01*
Y-123289D01*
X-151269D01*
Y-122684D01*
X-152479D01*
Y-122079D01*
X-153085D01*
Y-121474D01*
X-153690D01*
Y-120263D01*
X-154295D01*
Y153908D01*
X-153690D01*
Y155119D01*
X-153085D01*
Y155724D01*
X-152479D01*
Y156329D01*
X-151874D01*
Y156934D01*
X-151269D01*
Y157540D01*
X-150664D01*
Y158145D01*
X-150058D01*
Y158750D01*
X-149453D01*
Y159355D01*
X-148848D01*
Y159960D01*
X-148243D01*
Y160566D01*
X-147638D01*
Y161171D01*
X-147032D01*
Y161776D01*
X-146427D01*
Y162381D01*
X-145822D01*
Y162987D01*
X-145217D01*
Y163592D01*
X-144611D01*
Y164197D01*
X-144006D01*
Y164802D01*
X-143401D01*
Y165408D01*
X-142796D01*
Y166013D01*
X-142190D01*
Y166618D01*
X-141585D01*
Y167223D01*
X-140980D01*
Y167829D01*
X-140375D01*
Y168434D01*
X-139769D01*
Y169039D01*
X-139164D01*
Y169644D01*
X-138559D01*
Y170250D01*
X-137954D01*
Y170855D01*
X-137348D01*
Y171460D01*
X-136743D01*
Y172065D01*
X-136138D01*
Y172670D01*
X-135533D01*
Y173276D01*
X-134928D01*
Y173881D01*
X-134322D01*
Y174486D01*
X-133717D01*
Y175091D01*
X-133112D01*
Y175697D01*
X-132507D01*
Y176302D01*
X-131901D01*
Y176907D01*
X-131296D01*
Y177512D01*
X-130691D01*
Y178118D01*
X-130086D01*
Y178723D01*
X-129480D01*
Y179328D01*
X-128875D01*
Y179933D01*
X-128270D01*
Y180539D01*
X-127665D01*
Y181144D01*
X-127059D01*
Y181749D01*
X-126454D01*
Y182354D01*
X-125849D01*
Y182959D01*
X-125244D01*
Y183565D01*
X-124639D01*
Y184170D01*
X-124033D01*
Y184775D01*
X-123428D01*
Y185380D01*
X-122823D01*
Y185986D01*
X-121612D01*
Y186591D01*
X74483D01*
Y185986D01*
X75694D01*
Y185380D01*
X76299D01*
Y184775D01*
X76904D01*
Y184170D01*
X77510D01*
Y179933D01*
X76904D01*
Y179328D01*
X76299D01*
Y178723D01*
X75694D01*
Y178118D01*
X74483D01*
Y177512D01*
X-118586D01*
Y176907D01*
X-119192D01*
Y176302D01*
X-119797D01*
Y175697D01*
X-120402D01*
Y175091D01*
X-121007D01*
Y174486D01*
X-121612D01*
Y173881D01*
X-122218D01*
Y173276D01*
X-122823D01*
Y172670D01*
X-123428D01*
Y172065D01*
X-124033D01*
Y171460D01*
X-124639D01*
Y170855D01*
X-125244D01*
Y170250D01*
X-125849D01*
Y169644D01*
X-126454D01*
Y169039D01*
X-127059D01*
Y168434D01*
X-127665D01*
Y167829D01*
X-128270D01*
Y167223D01*
X-128875D01*
Y166618D01*
X-129480D01*
Y166013D01*
X-130086D01*
Y165408D01*
X-130691D01*
Y164802D01*
X-131296D01*
Y164197D01*
X-131901D01*
Y163592D01*
X-132507D01*
Y162987D01*
X-133112D01*
Y162381D01*
X-133717D01*
Y161776D01*
X-134322D01*
Y161171D01*
X-134928D01*
Y160566D01*
X-135533D01*
Y159960D01*
X-136138D01*
Y159355D01*
X-136743D01*
Y158750D01*
X-137348D01*
Y158145D01*
X-137954D01*
Y157540D01*
X-138559D01*
Y156934D01*
X-139164D01*
Y156329D01*
X-139769D01*
Y155724D01*
X-140375D01*
Y155119D01*
X-140980D01*
Y154513D01*
X-141585D01*
Y153908D01*
X-142190D01*
Y153303D01*
X-142796D01*
Y152698D01*
X-143401D01*
Y152092D01*
X-144006D01*
Y151487D01*
X-144611D01*
Y150882D01*
X-145217D01*
Y144830D01*
Y144224D01*
Y-114211D01*
X-102850D01*
Y-99685D01*
X-102245D01*
Y-98475D01*
X-101640D01*
Y-97264D01*
X-101034D01*
Y-96659D01*
X-99824D01*
Y-96054D01*
X101114D01*
Y-96659D01*
X102324D01*
Y-97264D01*
X102929D01*
Y-98475D01*
X103535D01*
Y-99685D01*
X104140D01*
Y-114211D01*
X146506D01*
Y150882D01*
X145901D01*
Y151487D01*
X145296D01*
Y152092D01*
X144691D01*
Y152698D01*
X144086D01*
Y153303D01*
X143480D01*
Y153908D01*
X142875D01*
Y154513D01*
X142270D01*
Y155119D01*
X141664D01*
Y155724D01*
X141059D01*
Y156329D01*
X140454D01*
Y156934D01*
X139849D01*
Y157540D01*
X139244D01*
Y158145D01*
X138638D01*
Y158750D01*
X138033D01*
Y159355D01*
X137428D01*
Y159960D01*
X136823D01*
Y160566D01*
X136217D01*
Y161171D01*
X135612D01*
Y161776D01*
X135007D01*
Y162381D01*
X134402D01*
Y162987D01*
X133797D01*
Y163592D01*
X133191D01*
Y164197D01*
X132586D01*
Y164802D01*
X131981D01*
Y165408D01*
X131376D01*
Y166013D01*
X130770D01*
Y166618D01*
X130165D01*
Y167223D01*
X129560D01*
Y167829D01*
X128955D01*
Y168434D01*
X128349D01*
Y169039D01*
X127744D01*
Y169644D01*
X127139D01*
Y170250D01*
X126534D01*
Y170855D01*
X125928D01*
Y171460D01*
X125323D01*
Y172065D01*
X124718D01*
Y172670D01*
X124113D01*
Y173276D01*
X123507D01*
Y173881D01*
X122902D01*
Y174486D01*
X122297D01*
Y175091D01*
X121692D01*
Y175697D01*
X121087D01*
Y176302D01*
X120481D01*
Y176907D01*
X119876D01*
Y177512D01*
X89614D01*
Y178118D01*
X88404D01*
Y178723D01*
X87799D01*
Y179328D01*
X87193D01*
Y181144D01*
X86588D01*
Y182959D01*
X87193D01*
Y184775D01*
X87799D01*
Y185380D01*
X88404D01*
Y185986D01*
X89614D01*
Y186591D01*
X122902D01*
Y185986D01*
D02*
G37*
G36*
X-1901Y-115269D02*
X-1012D01*
Y-115713D01*
X-568D01*
Y-116158D01*
X321D01*
Y-116602D01*
X1210D01*
Y-117046D01*
X2098D01*
Y-117491D01*
X2543D01*
Y-117935D01*
X3432D01*
Y-118379D01*
X4320D01*
Y-118824D01*
X5209D01*
Y-119268D01*
X5653D01*
Y-119712D01*
X6542D01*
Y-120157D01*
X7431D01*
Y-120601D01*
X8320D01*
Y-121045D01*
X8764D01*
Y-121490D01*
X9653D01*
Y-121934D01*
X10541D01*
Y-122379D01*
X11430D01*
Y-122823D01*
X11874D01*
Y-123267D01*
X12763D01*
Y-123712D01*
X13652D01*
Y-124156D01*
X14096D01*
Y-124600D01*
X14985D01*
Y-125045D01*
X15429D01*
Y-137487D01*
X16318D01*
Y-137931D01*
X16762D01*
Y-138375D01*
X17651D01*
Y-138820D01*
X18540D01*
Y-139264D01*
X18984D01*
Y-139708D01*
X19873D01*
Y-140153D01*
X20761D01*
Y-140597D01*
X21650D01*
Y-141042D01*
X22095D01*
Y-141486D01*
X22983D01*
Y-141930D01*
X23872D01*
Y-142375D01*
X24761D01*
Y-142819D01*
X25205D01*
Y-143263D01*
X26094D01*
Y-143708D01*
X26538D01*
Y-164593D01*
X25649D01*
Y-165037D01*
X24761D01*
Y-165481D01*
X23872D01*
Y-165926D01*
X23428D01*
Y-166370D01*
X22539D01*
Y-166814D01*
X21650D01*
Y-167259D01*
X20761D01*
Y-167703D01*
X20317D01*
Y-168147D01*
X19428D01*
Y-168592D01*
X18540D01*
Y-169036D01*
X18095D01*
Y-169480D01*
X17207D01*
Y-169925D01*
X16318D01*
Y-170369D01*
X15429D01*
Y-170814D01*
X14985D01*
Y-171258D01*
X14096D01*
Y-171702D01*
X13207D01*
Y-172147D01*
X12319D01*
Y-172591D01*
X11874D01*
Y-173035D01*
X10986D01*
Y-173480D01*
X10097D01*
Y-173924D01*
X9208D01*
Y-174368D01*
X8764D01*
Y-173924D01*
X8320D01*
Y-173480D01*
X7431D01*
Y-173035D01*
X6542D01*
Y-172591D01*
X5653D01*
Y-172147D01*
X5209D01*
Y-171702D01*
X4320D01*
Y-171258D01*
X3432D01*
Y-170814D01*
X2543D01*
Y-170369D01*
X2098D01*
Y-169925D01*
X1210D01*
Y-169480D01*
X321D01*
Y-169036D01*
X-568D01*
Y-168592D01*
X-1012D01*
Y-168147D01*
X-1901D01*
Y-167703D01*
X-2345D01*
Y-168147D01*
X-3234D01*
Y-168592D01*
X-3678D01*
Y-169036D01*
X-4567D01*
Y-169480D01*
X-5456D01*
Y-169925D01*
X-6344D01*
Y-170369D01*
X-6789D01*
Y-170814D01*
X-7677D01*
Y-171258D01*
X-8566D01*
Y-171702D01*
X-9455D01*
Y-172147D01*
X-9899D01*
Y-172591D01*
X-10788D01*
Y-173035D01*
X-11677D01*
Y-173480D01*
X-12121D01*
Y-173924D01*
X-13010D01*
Y-174368D01*
X-13454D01*
Y-173924D01*
X-14343D01*
Y-173480D01*
X-15231D01*
Y-173035D01*
X-16120D01*
Y-172591D01*
X-16565D01*
Y-172147D01*
X-17453D01*
Y-171702D01*
X-18342D01*
Y-171258D01*
X-19231D01*
Y-170814D01*
X-19675D01*
Y-170369D01*
X-20564D01*
Y-169925D01*
X-21453D01*
Y-169480D01*
X-22341D01*
Y-169036D01*
X-22786D01*
Y-168592D01*
X-23674D01*
Y-168147D01*
X-24563D01*
Y-167703D01*
X-25007D01*
Y-167259D01*
X-25896D01*
Y-166814D01*
X-26785D01*
Y-166370D01*
X-27674D01*
Y-165926D01*
X-28118D01*
Y-165481D01*
X-29007D01*
Y-165037D01*
X-29895D01*
Y-164593D01*
X-30784D01*
Y-143708D01*
X-30340D01*
Y-143263D01*
X-29451D01*
Y-142819D01*
X-29007D01*
Y-142375D01*
X-28118D01*
Y-141930D01*
X-27229D01*
Y-141486D01*
X-26340D01*
Y-141042D01*
X-25896D01*
Y-140597D01*
X-25007D01*
Y-140153D01*
X-24119D01*
Y-139708D01*
X-23230D01*
Y-139264D01*
X-22786D01*
Y-138820D01*
X-21897D01*
Y-138375D01*
X-21008D01*
Y-137931D01*
X-20564D01*
Y-137487D01*
X-19675D01*
Y-125045D01*
X-19231D01*
Y-124600D01*
X-18786D01*
Y-124156D01*
X-17898D01*
Y-123712D01*
X-17009D01*
Y-123267D01*
X-16120D01*
Y-122823D01*
X-15676D01*
Y-122379D01*
X-14787D01*
Y-121934D01*
X-13898D01*
Y-121490D01*
X-13010D01*
Y-121045D01*
X-12565D01*
Y-120601D01*
X-11677D01*
Y-120157D01*
X-10788D01*
Y-119712D01*
X-10344D01*
Y-119268D01*
X-9455D01*
Y-118824D01*
X-8566D01*
Y-118379D01*
X-7677D01*
Y-117935D01*
X-7233D01*
Y-117491D01*
X-6344D01*
Y-117046D01*
X-5456D01*
Y-116602D01*
X-4567D01*
Y-116158D01*
X-4123D01*
Y-115713D01*
X-3234D01*
Y-115269D01*
X-2345D01*
Y-114824D01*
X-1901D01*
Y-115269D01*
D02*
G37*
G36*
X-23750Y-199887D02*
X-26038D01*
Y-198237D01*
X-23750D01*
Y-199887D01*
D02*
G37*
G36*
X-59572Y-200650D02*
X-59364Y-200677D01*
X-59170Y-200719D01*
X-59003Y-200760D01*
X-58864Y-200802D01*
X-58767Y-200844D01*
X-58698Y-200872D01*
X-58670Y-200885D01*
X-58476Y-200982D01*
X-58282Y-201093D01*
X-58102Y-201218D01*
X-57949Y-201329D01*
X-57810Y-201426D01*
X-57699Y-201509D01*
X-57630Y-201565D01*
X-57602Y-201579D01*
Y-200844D01*
X-55425D01*
Y-207598D01*
X-57602D01*
Y-202799D01*
X-57783Y-202688D01*
X-57949Y-202605D01*
X-58018Y-202563D01*
X-58074Y-202550D01*
X-58116Y-202522D01*
X-58129D01*
X-58351Y-202439D01*
X-58462Y-202411D01*
X-58559Y-202397D01*
X-58643Y-202383D01*
X-58892D01*
X-59017Y-202397D01*
X-59128Y-202411D01*
X-59211Y-202439D01*
X-59281Y-202453D01*
X-59322Y-202480D01*
X-59350Y-202494D01*
X-59364D01*
X-59516Y-202591D01*
X-59613Y-202688D01*
X-59683Y-202771D01*
X-59696Y-202799D01*
Y-202813D01*
X-59766Y-202993D01*
X-59808Y-203174D01*
X-59821Y-203243D01*
X-59835Y-203312D01*
Y-203354D01*
Y-203368D01*
X-59849Y-203507D01*
Y-203645D01*
X-59863Y-203784D01*
Y-203923D01*
Y-204034D01*
Y-204131D01*
Y-204186D01*
Y-204214D01*
Y-207598D01*
X-62040D01*
Y-202799D01*
X-62290Y-202661D01*
X-62401Y-202605D01*
X-62484Y-202550D01*
X-62567Y-202522D01*
X-62623Y-202494D01*
X-62650Y-202480D01*
X-62664D01*
X-62859Y-202425D01*
X-63025Y-202397D01*
X-63094Y-202383D01*
X-63330D01*
X-63455Y-202397D01*
X-63566Y-202411D01*
X-63649Y-202439D01*
X-63718Y-202453D01*
X-63774Y-202480D01*
X-63802Y-202494D01*
X-63815D01*
X-63968Y-202591D01*
X-64065Y-202688D01*
X-64134Y-202771D01*
X-64148Y-202799D01*
Y-202813D01*
X-64204Y-202993D01*
X-64245Y-203174D01*
X-64259Y-203243D01*
X-64273Y-203312D01*
Y-203354D01*
Y-203368D01*
X-64287Y-203507D01*
Y-203645D01*
X-64301Y-203784D01*
Y-203923D01*
Y-204034D01*
Y-204131D01*
Y-204186D01*
Y-204214D01*
Y-207598D01*
X-66478D01*
Y-203201D01*
Y-202980D01*
X-66450Y-202758D01*
X-66423Y-202563D01*
X-66395Y-202383D01*
X-66353Y-202203D01*
X-66298Y-202050D01*
X-66242Y-201912D01*
X-66201Y-201787D01*
X-66145Y-201676D01*
X-66090Y-201579D01*
X-66048Y-201496D01*
X-65993Y-201426D01*
X-65965Y-201371D01*
X-65937Y-201329D01*
X-65910Y-201315D01*
Y-201301D01*
X-65799Y-201190D01*
X-65674Y-201080D01*
X-65410Y-200913D01*
X-65133Y-200802D01*
X-64869Y-200719D01*
X-64620Y-200664D01*
X-64523Y-200650D01*
X-64426D01*
X-64356Y-200636D01*
X-64245D01*
X-64023Y-200650D01*
X-63802Y-200691D01*
X-63607Y-200733D01*
X-63413Y-200788D01*
X-63261Y-200858D01*
X-63150Y-200899D01*
X-63067Y-200941D01*
X-63053Y-200955D01*
X-63039D01*
X-62803Y-201080D01*
X-62581Y-201218D01*
X-62373Y-201371D01*
X-62179Y-201509D01*
X-62013Y-201620D01*
X-61888Y-201731D01*
X-61804Y-201787D01*
X-61791Y-201814D01*
X-61777D01*
X-61666Y-201607D01*
X-61527Y-201440D01*
X-61389Y-201287D01*
X-61264Y-201163D01*
X-61153Y-201066D01*
X-61056Y-200996D01*
X-61000Y-200955D01*
X-60972Y-200941D01*
X-60778Y-200844D01*
X-60570Y-200760D01*
X-60376Y-200705D01*
X-60196Y-200677D01*
X-60029Y-200650D01*
X-59905Y-200636D01*
X-59794D01*
X-59572Y-200650D01*
D02*
G37*
G36*
X55162Y-200650D02*
X55425Y-200677D01*
X55661Y-200691D01*
X55855Y-200719D01*
X56007Y-200747D01*
X56063D01*
X56105Y-200760D01*
X56146D01*
X56410Y-200802D01*
X56645Y-200844D01*
X56826Y-200885D01*
X56978Y-200913D01*
X57089Y-200941D01*
X57172Y-200968D01*
X57228Y-200982D01*
X57242D01*
Y-202605D01*
X57048D01*
X56937Y-202563D01*
X56798Y-202522D01*
X56521Y-202425D01*
X56396Y-202383D01*
X56285Y-202341D01*
X56216Y-202328D01*
X56188Y-202314D01*
X55966Y-202244D01*
X55744Y-202203D01*
X55550Y-202161D01*
X55384Y-202147D01*
X55245Y-202134D01*
X55134Y-202120D01*
X55037D01*
X54718Y-202134D01*
X54454Y-202147D01*
X54219Y-202189D01*
X54038Y-202231D01*
X53886Y-202272D01*
X53789Y-202300D01*
X53719Y-202328D01*
X53705Y-202341D01*
X53553Y-202439D01*
X53442Y-202549D01*
X53359Y-202674D01*
X53303Y-202813D01*
X53275Y-202924D01*
X53248Y-203021D01*
Y-203090D01*
Y-203118D01*
Y-203146D01*
X53594Y-203174D01*
X53941Y-203201D01*
X54246Y-203229D01*
X54524Y-203257D01*
X54759Y-203285D01*
X54857Y-203298D01*
X54940D01*
X55009Y-203312D01*
X55051Y-203326D01*
X55092D01*
X55411Y-203368D01*
X55702Y-203437D01*
X55952Y-203493D01*
X56160Y-203562D01*
X56340Y-203617D01*
X56465Y-203673D01*
X56548Y-203701D01*
X56562Y-203715D01*
X56576D01*
X56798Y-203825D01*
X56978Y-203936D01*
X57145Y-204061D01*
X57270Y-204186D01*
X57380Y-204283D01*
X57464Y-204366D01*
X57505Y-204422D01*
X57519Y-204450D01*
X57630Y-204630D01*
X57699Y-204838D01*
X57755Y-205032D01*
X57797Y-205226D01*
X57824Y-205393D01*
X57838Y-205531D01*
Y-205587D01*
Y-205628D01*
Y-205642D01*
Y-205656D01*
X57824Y-205823D01*
X57810Y-205989D01*
X57741Y-206280D01*
X57630Y-206544D01*
X57519Y-206765D01*
X57408Y-206946D01*
X57297Y-207071D01*
X57228Y-207154D01*
X57200Y-207168D01*
Y-207182D01*
X57075Y-207292D01*
X56937Y-207376D01*
X56673Y-207528D01*
X56410Y-207625D01*
X56146Y-207709D01*
X55924Y-207750D01*
X55827Y-207764D01*
X55744D01*
X55689Y-207778D01*
X55592D01*
X55300Y-207764D01*
X55175Y-207750D01*
X55065Y-207736D01*
X54967D01*
X54898Y-207722D01*
X54857Y-207709D01*
X54843D01*
X54593Y-207653D01*
X54482Y-207612D01*
X54385Y-207584D01*
X54302Y-207542D01*
X54232Y-207528D01*
X54191Y-207501D01*
X54177D01*
X53997Y-207404D01*
X53844Y-207306D01*
X53789Y-207279D01*
X53733Y-207237D01*
X53705Y-207223D01*
X53692Y-207209D01*
X53511Y-207071D01*
X53373Y-206974D01*
X53317Y-206946D01*
X53275Y-206918D01*
X53262Y-206890D01*
X53248D01*
Y-207598D01*
X51098D01*
Y-202993D01*
X51112Y-202771D01*
X51140Y-202563D01*
X51181Y-202383D01*
X51223Y-202203D01*
X51292Y-202050D01*
X51362Y-201898D01*
X51431Y-201773D01*
X51514Y-201648D01*
X51597Y-201551D01*
X51667Y-201468D01*
X51736Y-201385D01*
X51805Y-201329D01*
X51847Y-201274D01*
X51889Y-201246D01*
X51916Y-201218D01*
X51930D01*
X52097Y-201121D01*
X52277Y-201024D01*
X52485Y-200941D01*
X52693Y-200885D01*
X53137Y-200774D01*
X53567Y-200705D01*
X53775Y-200677D01*
X53969Y-200663D01*
X54135Y-200650D01*
X54288D01*
X54413Y-200636D01*
X54884D01*
X55162Y-200650D01*
D02*
G37*
G36*
X39615D02*
X39879Y-200677D01*
X40114Y-200691D01*
X40308Y-200719D01*
X40461Y-200747D01*
X40517D01*
X40558Y-200760D01*
X40600D01*
X40863Y-200802D01*
X41099Y-200844D01*
X41279Y-200885D01*
X41432Y-200913D01*
X41543Y-200941D01*
X41626Y-200968D01*
X41681Y-200982D01*
X41695D01*
Y-202605D01*
X41501D01*
X41390Y-202563D01*
X41252Y-202522D01*
X40974Y-202425D01*
X40849Y-202383D01*
X40738Y-202341D01*
X40669Y-202328D01*
X40641Y-202314D01*
X40420Y-202244D01*
X40198Y-202203D01*
X40003Y-202161D01*
X39837Y-202147D01*
X39698Y-202134D01*
X39587Y-202120D01*
X39490D01*
X39171Y-202134D01*
X38908Y-202147D01*
X38672Y-202189D01*
X38492Y-202231D01*
X38339Y-202272D01*
X38242Y-202300D01*
X38173Y-202328D01*
X38159Y-202341D01*
X38006Y-202439D01*
X37895Y-202549D01*
X37812Y-202674D01*
X37757Y-202813D01*
X37729Y-202924D01*
X37701Y-203021D01*
Y-203090D01*
Y-203118D01*
Y-203146D01*
X38048Y-203174D01*
X38395Y-203201D01*
X38700Y-203229D01*
X38977Y-203257D01*
X39213Y-203285D01*
X39310Y-203298D01*
X39393D01*
X39462Y-203312D01*
X39504Y-203326D01*
X39546D01*
X39865Y-203368D01*
X40156Y-203437D01*
X40406Y-203493D01*
X40614Y-203562D01*
X40794Y-203617D01*
X40919Y-203673D01*
X41002Y-203701D01*
X41016Y-203715D01*
X41030D01*
X41252Y-203825D01*
X41432Y-203936D01*
X41598Y-204061D01*
X41723Y-204186D01*
X41834Y-204283D01*
X41917Y-204366D01*
X41959Y-204422D01*
X41973Y-204450D01*
X42084Y-204630D01*
X42153Y-204838D01*
X42208Y-205032D01*
X42250Y-205226D01*
X42278Y-205393D01*
X42292Y-205531D01*
Y-205587D01*
Y-205628D01*
Y-205642D01*
Y-205656D01*
X42278Y-205823D01*
X42264Y-205989D01*
X42195Y-206280D01*
X42084Y-206544D01*
X41973Y-206765D01*
X41862Y-206946D01*
X41751Y-207071D01*
X41681Y-207154D01*
X41654Y-207168D01*
Y-207182D01*
X41529Y-207292D01*
X41390Y-207376D01*
X41127Y-207528D01*
X40863Y-207625D01*
X40600Y-207709D01*
X40378Y-207750D01*
X40281Y-207764D01*
X40198D01*
X40142Y-207778D01*
X40045D01*
X39754Y-207764D01*
X39629Y-207750D01*
X39518Y-207736D01*
X39421D01*
X39352Y-207722D01*
X39310Y-207709D01*
X39296D01*
X39046Y-207653D01*
X38935Y-207612D01*
X38839Y-207584D01*
X38755Y-207542D01*
X38686Y-207528D01*
X38644Y-207501D01*
X38630D01*
X38450Y-207404D01*
X38298Y-207306D01*
X38242Y-207279D01*
X38187Y-207237D01*
X38159Y-207223D01*
X38145Y-207209D01*
X37965Y-207071D01*
X37826Y-206974D01*
X37771Y-206946D01*
X37729Y-206918D01*
X37715Y-206890D01*
X37701D01*
Y-207598D01*
X35552D01*
Y-202993D01*
X35566Y-202771D01*
X35593Y-202563D01*
X35635Y-202383D01*
X35677Y-202203D01*
X35746Y-202050D01*
X35815Y-201898D01*
X35884Y-201773D01*
X35968Y-201648D01*
X36051Y-201551D01*
X36120Y-201468D01*
X36190Y-201385D01*
X36259Y-201329D01*
X36300Y-201274D01*
X36342Y-201246D01*
X36370Y-201218D01*
X36384D01*
X36550Y-201121D01*
X36730Y-201024D01*
X36939Y-200941D01*
X37146Y-200885D01*
X37590Y-200774D01*
X38020Y-200705D01*
X38228Y-200677D01*
X38422Y-200663D01*
X38589Y-200650D01*
X38741D01*
X38866Y-200636D01*
X39338D01*
X39615Y-200650D01*
D02*
G37*
G36*
X21877D02*
X22141Y-200677D01*
X22377Y-200691D01*
X22571Y-200719D01*
X22723Y-200747D01*
X22779D01*
X22820Y-200760D01*
X22862D01*
X23126Y-200802D01*
X23361Y-200844D01*
X23542Y-200885D01*
X23694Y-200913D01*
X23805Y-200941D01*
X23888Y-200968D01*
X23944Y-200982D01*
X23958D01*
Y-202605D01*
X23763D01*
X23653Y-202563D01*
X23514Y-202522D01*
X23236Y-202425D01*
X23112Y-202383D01*
X23001Y-202341D01*
X22931Y-202328D01*
X22904Y-202314D01*
X22682Y-202244D01*
X22460Y-202203D01*
X22266Y-202161D01*
X22099Y-202147D01*
X21961Y-202134D01*
X21850Y-202120D01*
X21753D01*
X21434Y-202134D01*
X21170Y-202147D01*
X20934Y-202189D01*
X20754Y-202231D01*
X20601Y-202272D01*
X20504Y-202300D01*
X20435Y-202328D01*
X20421Y-202341D01*
X20269Y-202439D01*
X20158Y-202549D01*
X20075Y-202674D01*
X20019Y-202813D01*
X19991Y-202924D01*
X19964Y-203021D01*
Y-203090D01*
Y-203118D01*
Y-203146D01*
X20310Y-203174D01*
X20657Y-203201D01*
X20962Y-203229D01*
X21240Y-203257D01*
X21475Y-203285D01*
X21572Y-203298D01*
X21655D01*
X21725Y-203312D01*
X21767Y-203326D01*
X21808D01*
X22127Y-203368D01*
X22418Y-203437D01*
X22668Y-203493D01*
X22876Y-203562D01*
X23056Y-203617D01*
X23181Y-203673D01*
X23264Y-203701D01*
X23278Y-203715D01*
X23292D01*
X23514Y-203825D01*
X23694Y-203936D01*
X23861Y-204061D01*
X23985Y-204186D01*
X24096Y-204283D01*
X24180Y-204366D01*
X24221Y-204422D01*
X24235Y-204450D01*
X24346Y-204630D01*
X24415Y-204838D01*
X24471Y-205032D01*
X24512Y-205226D01*
X24540Y-205393D01*
X24554Y-205531D01*
Y-205587D01*
Y-205628D01*
Y-205642D01*
Y-205656D01*
X24540Y-205823D01*
X24526Y-205989D01*
X24457Y-206280D01*
X24346Y-206544D01*
X24235Y-206765D01*
X24124Y-206946D01*
X24013Y-207071D01*
X23944Y-207154D01*
X23916Y-207168D01*
Y-207182D01*
X23791Y-207292D01*
X23653Y-207376D01*
X23389Y-207528D01*
X23126Y-207625D01*
X22862Y-207709D01*
X22640Y-207750D01*
X22543Y-207764D01*
X22460D01*
X22404Y-207778D01*
X22307D01*
X22016Y-207764D01*
X21891Y-207750D01*
X21780Y-207736D01*
X21683D01*
X21614Y-207722D01*
X21572Y-207709D01*
X21558D01*
X21309Y-207653D01*
X21198Y-207612D01*
X21101Y-207584D01*
X21018Y-207542D01*
X20948Y-207528D01*
X20907Y-207501D01*
X20893D01*
X20712Y-207404D01*
X20560Y-207306D01*
X20504Y-207279D01*
X20449Y-207237D01*
X20421Y-207223D01*
X20407Y-207209D01*
X20227Y-207071D01*
X20088Y-206974D01*
X20033Y-206946D01*
X19991Y-206918D01*
X19977Y-206890D01*
X19964D01*
Y-207598D01*
X17814D01*
Y-202993D01*
X17828Y-202771D01*
X17856Y-202563D01*
X17897Y-202383D01*
X17939Y-202203D01*
X18008Y-202050D01*
X18077Y-201898D01*
X18147Y-201773D01*
X18230Y-201648D01*
X18313Y-201551D01*
X18383Y-201468D01*
X18452Y-201385D01*
X18521Y-201329D01*
X18563Y-201274D01*
X18605Y-201246D01*
X18632Y-201218D01*
X18646D01*
X18813Y-201121D01*
X18993Y-201024D01*
X19201Y-200941D01*
X19409Y-200885D01*
X19853Y-200774D01*
X20282Y-200705D01*
X20491Y-200677D01*
X20685Y-200663D01*
X20851Y-200650D01*
X21004D01*
X21128Y-200636D01*
X21600D01*
X21877Y-200650D01*
D02*
G37*
G36*
X7510D02*
X7773Y-200677D01*
X8009Y-200691D01*
X8203Y-200719D01*
X8356Y-200747D01*
X8411D01*
X8453Y-200760D01*
X8494D01*
X8758Y-200802D01*
X8994Y-200844D01*
X9174Y-200885D01*
X9327Y-200913D01*
X9437Y-200941D01*
X9521Y-200968D01*
X9576Y-200982D01*
X9590D01*
Y-202605D01*
X9396D01*
X9285Y-202563D01*
X9146Y-202522D01*
X8869Y-202425D01*
X8744Y-202383D01*
X8633Y-202341D01*
X8564Y-202328D01*
X8536Y-202314D01*
X8314Y-202244D01*
X8092Y-202203D01*
X7898Y-202161D01*
X7732Y-202147D01*
X7593Y-202134D01*
X7482Y-202120D01*
X7385D01*
X7066Y-202134D01*
X6802Y-202147D01*
X6567Y-202189D01*
X6386Y-202231D01*
X6234Y-202272D01*
X6137Y-202300D01*
X6067Y-202328D01*
X6054Y-202341D01*
X5901Y-202439D01*
X5790Y-202549D01*
X5707Y-202674D01*
X5651Y-202813D01*
X5624Y-202924D01*
X5596Y-203021D01*
Y-203090D01*
Y-203118D01*
Y-203146D01*
X5943Y-203174D01*
X6289Y-203201D01*
X6594Y-203229D01*
X6872Y-203257D01*
X7108Y-203285D01*
X7205Y-203298D01*
X7288D01*
X7357Y-203312D01*
X7399Y-203326D01*
X7440D01*
X7759Y-203368D01*
X8051Y-203437D01*
X8300Y-203493D01*
X8508Y-203562D01*
X8689Y-203617D01*
X8813Y-203673D01*
X8897Y-203701D01*
X8910Y-203715D01*
X8924D01*
X9146Y-203825D01*
X9327Y-203936D01*
X9493Y-204061D01*
X9618Y-204186D01*
X9729Y-204283D01*
X9812Y-204366D01*
X9854Y-204422D01*
X9867Y-204450D01*
X9978Y-204630D01*
X10048Y-204838D01*
X10103Y-205032D01*
X10145Y-205226D01*
X10172Y-205393D01*
X10186Y-205531D01*
Y-205587D01*
Y-205628D01*
Y-205642D01*
Y-205656D01*
X10172Y-205823D01*
X10159Y-205989D01*
X10089Y-206280D01*
X9978Y-206544D01*
X9867Y-206765D01*
X9756Y-206946D01*
X9646Y-207071D01*
X9576Y-207154D01*
X9548Y-207168D01*
Y-207182D01*
X9424Y-207292D01*
X9285Y-207376D01*
X9021Y-207528D01*
X8758Y-207625D01*
X8494Y-207709D01*
X8273Y-207750D01*
X8175Y-207764D01*
X8092D01*
X8037Y-207778D01*
X7940D01*
X7648Y-207764D01*
X7524Y-207750D01*
X7413Y-207736D01*
X7316D01*
X7246Y-207722D01*
X7205Y-207709D01*
X7191D01*
X6941Y-207653D01*
X6830Y-207612D01*
X6733Y-207584D01*
X6650Y-207542D01*
X6581Y-207528D01*
X6539Y-207501D01*
X6525D01*
X6345Y-207404D01*
X6192Y-207306D01*
X6137Y-207279D01*
X6081Y-207237D01*
X6054Y-207223D01*
X6040Y-207209D01*
X5859Y-207071D01*
X5721Y-206974D01*
X5665Y-206946D01*
X5624Y-206918D01*
X5610Y-206890D01*
X5596D01*
Y-207598D01*
X3446D01*
Y-202993D01*
X3460Y-202771D01*
X3488Y-202563D01*
X3530Y-202383D01*
X3571Y-202203D01*
X3641Y-202050D01*
X3710Y-201898D01*
X3779Y-201773D01*
X3862Y-201648D01*
X3946Y-201551D01*
X4015Y-201468D01*
X4084Y-201385D01*
X4154Y-201329D01*
X4195Y-201274D01*
X4237Y-201246D01*
X4265Y-201218D01*
X4278D01*
X4445Y-201121D01*
X4625Y-201024D01*
X4833Y-200941D01*
X5041Y-200885D01*
X5485Y-200774D01*
X5915Y-200705D01*
X6123Y-200677D01*
X6317Y-200663D01*
X6484Y-200650D01*
X6636D01*
X6761Y-200636D01*
X7232D01*
X7510Y-200650D01*
D02*
G37*
G36*
X33444Y-207598D02*
X31128D01*
Y-204685D01*
X30601Y-204020D01*
X27938Y-207598D01*
X25081D01*
X28756Y-202785D01*
X25261Y-198639D01*
X27952D01*
X31128Y-202688D01*
Y-198639D01*
X33444D01*
Y-207598D01*
D02*
G37*
G36*
X-17523Y-207598D02*
X-19977D01*
X-22599Y-200844D01*
X-20352D01*
X-18799Y-205504D01*
X-17218Y-200844D01*
X-14943D01*
X-17523Y-207598D01*
D02*
G37*
G36*
X-31183Y-200650D02*
X-30906Y-200664D01*
X-30656Y-200705D01*
X-30434Y-200733D01*
X-30240Y-200774D01*
X-30101Y-200816D01*
X-30046Y-200830D01*
X-30004D01*
X-29990Y-200844D01*
X-29976D01*
X-29713Y-200927D01*
X-29477Y-201024D01*
X-29255Y-201121D01*
X-29075Y-201232D01*
X-28923Y-201315D01*
X-28812Y-201399D01*
X-28742Y-201454D01*
X-28714Y-201468D01*
X-28520Y-201648D01*
X-28340Y-201842D01*
X-28187Y-202036D01*
X-28063Y-202217D01*
X-27952Y-202369D01*
X-27882Y-202508D01*
X-27841Y-202591D01*
X-27827Y-202605D01*
Y-202619D01*
X-27730Y-202882D01*
X-27647Y-203160D01*
X-27591Y-203437D01*
X-27563Y-203687D01*
X-27536Y-203909D01*
Y-204006D01*
X-27522Y-204089D01*
Y-204144D01*
Y-204200D01*
Y-204228D01*
Y-204242D01*
X-27536Y-204574D01*
X-27563Y-204866D01*
X-27619Y-205143D01*
X-27674Y-205365D01*
X-27716Y-205559D01*
X-27771Y-205698D01*
X-27785Y-205753D01*
X-27799Y-205795D01*
X-27813Y-205809D01*
Y-205823D01*
X-27938Y-206058D01*
X-28063Y-206280D01*
X-28201Y-206460D01*
X-28340Y-206613D01*
X-28465Y-206752D01*
X-28562Y-206835D01*
X-28617Y-206904D01*
X-28645Y-206918D01*
X-28853Y-207071D01*
X-29075Y-207209D01*
X-29283Y-207320D01*
X-29477Y-207404D01*
X-29658Y-207487D01*
X-29782Y-207528D01*
X-29838Y-207542D01*
X-29880Y-207556D01*
X-29893Y-207570D01*
X-29907D01*
X-30185Y-207639D01*
X-30476Y-207695D01*
X-30739Y-207722D01*
X-30989Y-207750D01*
X-31211Y-207764D01*
X-31308Y-207778D01*
X-31779D01*
X-32001Y-207750D01*
X-32209Y-207736D01*
X-32390Y-207709D01*
X-32542Y-207681D01*
X-32653Y-207667D01*
X-32722Y-207639D01*
X-32750D01*
X-32958Y-207584D01*
X-33166Y-207528D01*
X-33347Y-207459D01*
X-33499Y-207404D01*
X-33638Y-207348D01*
X-33749Y-207306D01*
X-33804Y-207279D01*
X-33832Y-207265D01*
Y-205406D01*
X-33513D01*
X-33416Y-205504D01*
X-33319Y-205587D01*
X-33249Y-205642D01*
X-33236Y-205670D01*
X-33222D01*
X-33097Y-205767D01*
X-32986Y-205836D01*
X-32903Y-205892D01*
X-32889Y-205920D01*
X-32875D01*
X-32695Y-206003D01*
X-32515Y-206072D01*
X-32431Y-206100D01*
X-32376Y-206128D01*
X-32334Y-206141D01*
X-32320D01*
X-32071Y-206183D01*
X-31946Y-206211D01*
X-31835D01*
X-31738Y-206225D01*
X-31599D01*
X-31280Y-206197D01*
X-31017Y-206141D01*
X-30781Y-206072D01*
X-30587Y-205975D01*
X-30434Y-205878D01*
X-30323Y-205809D01*
X-30268Y-205753D01*
X-30240Y-205725D01*
X-30087Y-205517D01*
X-29963Y-205282D01*
X-29880Y-205032D01*
X-29824Y-204796D01*
X-29796Y-204574D01*
X-29782Y-204491D01*
Y-204408D01*
X-29769Y-204339D01*
Y-204283D01*
Y-204255D01*
Y-204242D01*
X-29782Y-203909D01*
X-29838Y-203604D01*
X-29907Y-203354D01*
X-30004Y-203132D01*
X-30087Y-202966D01*
X-30157Y-202841D01*
X-30212Y-202771D01*
X-30226Y-202744D01*
X-30420Y-202563D01*
X-30628Y-202425D01*
X-30850Y-202328D01*
X-31072Y-202258D01*
X-31266Y-202217D01*
X-31419Y-202203D01*
X-31474Y-202189D01*
X-31558D01*
X-31835Y-202203D01*
X-31946Y-202217D01*
X-32043Y-202231D01*
X-32126Y-202258D01*
X-32182Y-202272D01*
X-32223Y-202286D01*
X-32237D01*
X-32445Y-202355D01*
X-32611Y-202425D01*
X-32681Y-202453D01*
X-32736Y-202466D01*
X-32764Y-202494D01*
X-32778D01*
X-32958Y-202591D01*
X-33097Y-202688D01*
X-33138Y-202730D01*
X-33180Y-202758D01*
X-33194Y-202771D01*
X-33208Y-202785D01*
X-33333Y-202882D01*
X-33430Y-202952D01*
X-33485Y-203007D01*
X-33513Y-203021D01*
X-33832D01*
Y-201177D01*
X-33444Y-201010D01*
X-33263Y-200955D01*
X-33097Y-200899D01*
X-32944Y-200844D01*
X-32833Y-200816D01*
X-32764Y-200788D01*
X-32736D01*
X-32515Y-200733D01*
X-32293Y-200705D01*
X-32071Y-200677D01*
X-31876Y-200650D01*
X-31710D01*
X-31585Y-200636D01*
X-31460D01*
X-31183Y-200650D01*
D02*
G37*
G36*
X-42888D02*
X-42611Y-200664D01*
X-42361Y-200705D01*
X-42139Y-200733D01*
X-41945Y-200774D01*
X-41806Y-200816D01*
X-41751Y-200830D01*
X-41709D01*
X-41695Y-200844D01*
X-41681D01*
X-41418Y-200927D01*
X-41182Y-201024D01*
X-40960Y-201121D01*
X-40780Y-201232D01*
X-40627Y-201315D01*
X-40517Y-201399D01*
X-40447Y-201454D01*
X-40420Y-201468D01*
X-40225Y-201648D01*
X-40045Y-201842D01*
X-39892Y-202036D01*
X-39768Y-202217D01*
X-39657Y-202369D01*
X-39587Y-202508D01*
X-39546Y-202591D01*
X-39532Y-202605D01*
Y-202619D01*
X-39435Y-202882D01*
X-39352Y-203160D01*
X-39296Y-203437D01*
X-39268Y-203687D01*
X-39241Y-203909D01*
Y-204006D01*
X-39227Y-204089D01*
Y-204144D01*
Y-204200D01*
Y-204228D01*
Y-204242D01*
X-39241Y-204574D01*
X-39268Y-204866D01*
X-39324Y-205143D01*
X-39379Y-205365D01*
X-39421Y-205559D01*
X-39476Y-205698D01*
X-39490Y-205753D01*
X-39504Y-205795D01*
X-39518Y-205809D01*
Y-205823D01*
X-39643Y-206058D01*
X-39768Y-206280D01*
X-39906Y-206460D01*
X-40045Y-206613D01*
X-40170Y-206752D01*
X-40267Y-206835D01*
X-40322Y-206904D01*
X-40350Y-206918D01*
X-40558Y-207071D01*
X-40780Y-207209D01*
X-40988Y-207320D01*
X-41182Y-207404D01*
X-41363Y-207487D01*
X-41487Y-207528D01*
X-41543Y-207542D01*
X-41584Y-207556D01*
X-41598Y-207570D01*
X-41612D01*
X-41890Y-207639D01*
X-42181Y-207695D01*
X-42444Y-207722D01*
X-42694Y-207750D01*
X-42916Y-207764D01*
X-43013Y-207778D01*
X-43484D01*
X-43706Y-207750D01*
X-43914Y-207736D01*
X-44095Y-207709D01*
X-44247Y-207681D01*
X-44358Y-207667D01*
X-44427Y-207639D01*
X-44455D01*
X-44663Y-207584D01*
X-44871Y-207528D01*
X-45051Y-207459D01*
X-45204Y-207404D01*
X-45343Y-207348D01*
X-45454Y-207306D01*
X-45509Y-207279D01*
X-45537Y-207265D01*
Y-205406D01*
X-45218D01*
X-45121Y-205504D01*
X-45024Y-205587D01*
X-44954Y-205642D01*
X-44941Y-205670D01*
X-44927D01*
X-44802Y-205767D01*
X-44691Y-205836D01*
X-44608Y-205892D01*
X-44594Y-205920D01*
X-44580D01*
X-44400Y-206003D01*
X-44219Y-206072D01*
X-44136Y-206100D01*
X-44081Y-206128D01*
X-44039Y-206141D01*
X-44025D01*
X-43776Y-206183D01*
X-43651Y-206211D01*
X-43540D01*
X-43443Y-206225D01*
X-43304D01*
X-42985Y-206197D01*
X-42722Y-206141D01*
X-42486Y-206072D01*
X-42292Y-205975D01*
X-42139Y-205878D01*
X-42028Y-205809D01*
X-41973Y-205753D01*
X-41945Y-205725D01*
X-41792Y-205517D01*
X-41668Y-205282D01*
X-41584Y-205032D01*
X-41529Y-204796D01*
X-41501Y-204574D01*
X-41487Y-204491D01*
Y-204408D01*
X-41473Y-204339D01*
Y-204283D01*
Y-204255D01*
Y-204242D01*
X-41487Y-203909D01*
X-41543Y-203604D01*
X-41612Y-203354D01*
X-41709Y-203132D01*
X-41792Y-202966D01*
X-41862Y-202841D01*
X-41917Y-202771D01*
X-41931Y-202744D01*
X-42125Y-202563D01*
X-42333Y-202425D01*
X-42555Y-202328D01*
X-42777Y-202258D01*
X-42971Y-202217D01*
X-43124Y-202203D01*
X-43179Y-202189D01*
X-43263D01*
X-43540Y-202203D01*
X-43651Y-202217D01*
X-43748Y-202231D01*
X-43831Y-202258D01*
X-43887Y-202272D01*
X-43928Y-202286D01*
X-43942D01*
X-44150Y-202355D01*
X-44317Y-202425D01*
X-44386Y-202453D01*
X-44441Y-202466D01*
X-44469Y-202494D01*
X-44483D01*
X-44663Y-202591D01*
X-44802Y-202688D01*
X-44844Y-202730D01*
X-44885Y-202758D01*
X-44899Y-202771D01*
X-44913Y-202785D01*
X-45038Y-202882D01*
X-45135Y-202952D01*
X-45190Y-203007D01*
X-45218Y-203021D01*
X-45537D01*
Y-201177D01*
X-45149Y-201010D01*
X-44968Y-200955D01*
X-44802Y-200899D01*
X-44649Y-200844D01*
X-44538Y-200816D01*
X-44469Y-200788D01*
X-44441D01*
X-44219Y-200733D01*
X-43998Y-200705D01*
X-43776Y-200677D01*
X-43581Y-200650D01*
X-43415D01*
X-43290Y-200636D01*
X-43165D01*
X-42888Y-200650D01*
D02*
G37*
G36*
X11601Y-200830D02*
X11767Y-200844D01*
X11934Y-200885D01*
X12086Y-200913D01*
X12211Y-200955D01*
X12322Y-200996D01*
X12378Y-201010D01*
X12405Y-201024D01*
X12613Y-201121D01*
X12821Y-201246D01*
X13029Y-201371D01*
X13224Y-201509D01*
X13390Y-201634D01*
X13515Y-201745D01*
X13570Y-201787D01*
X13612Y-201814D01*
X13626Y-201828D01*
X13640Y-201842D01*
Y-200844D01*
X15817D01*
Y-207598D01*
X13640D01*
Y-203090D01*
X13348Y-202993D01*
X13224Y-202952D01*
X13113Y-202924D01*
X13016Y-202910D01*
X12946Y-202896D01*
X12904Y-202882D01*
X12891D01*
X12613Y-202841D01*
X12475Y-202827D01*
X12350D01*
X12239Y-202813D01*
X11906D01*
X11740Y-202827D01*
X11670D01*
X11615Y-202841D01*
X11559D01*
X11448Y-202855D01*
X11365Y-202868D01*
X11282D01*
X11227Y-202882D01*
X11171Y-202896D01*
X11143D01*
X11115Y-202910D01*
X10921D01*
Y-200844D01*
X11005Y-200830D01*
X11185D01*
X11282Y-200816D01*
X11435D01*
X11601Y-200830D01*
D02*
G37*
G36*
X-2767Y-200650D02*
X-2545Y-200677D01*
X-2351Y-200719D01*
X-2170Y-200760D01*
X-2032Y-200802D01*
X-1921Y-200844D01*
X-1851Y-200872D01*
X-1824Y-200885D01*
X-1629Y-200982D01*
X-1435Y-201093D01*
X-1241Y-201204D01*
X-1075Y-201315D01*
X-936Y-201426D01*
X-825Y-201509D01*
X-756Y-201565D01*
X-728Y-201579D01*
Y-200844D01*
X1449D01*
Y-207598D01*
X-728D01*
Y-202799D01*
X-978Y-202661D01*
X-1089Y-202605D01*
X-1172Y-202549D01*
X-1255Y-202522D01*
X-1311Y-202494D01*
X-1352Y-202480D01*
X-1366D01*
X-1588Y-202425D01*
X-1699Y-202411D01*
X-1782Y-202397D01*
X-1865Y-202383D01*
X-2115D01*
X-2240Y-202397D01*
X-2351Y-202411D01*
X-2448Y-202439D01*
X-2517Y-202453D01*
X-2573Y-202480D01*
X-2600Y-202494D01*
X-2614D01*
X-2767Y-202591D01*
X-2878Y-202688D01*
X-2947Y-202771D01*
X-2961Y-202799D01*
Y-202813D01*
X-2989Y-202896D01*
X-3030Y-202993D01*
X-3072Y-203188D01*
X-3086Y-203285D01*
Y-203354D01*
X-3100Y-203409D01*
Y-203423D01*
X-3127Y-203715D01*
X-3141Y-203853D01*
X-3155Y-203978D01*
Y-204089D01*
Y-204172D01*
Y-204228D01*
Y-204242D01*
Y-207598D01*
X-5332D01*
Y-203201D01*
Y-202966D01*
X-5305Y-202758D01*
X-5277Y-202549D01*
X-5235Y-202369D01*
X-5194Y-202189D01*
X-5138Y-202036D01*
X-5083Y-201898D01*
X-5027Y-201759D01*
X-4958Y-201648D01*
X-4902Y-201551D01*
X-4847Y-201468D01*
X-4805Y-201412D01*
X-4764Y-201357D01*
X-4736Y-201315D01*
X-4722Y-201301D01*
X-4708Y-201287D01*
X-4584Y-201177D01*
X-4459Y-201066D01*
X-4181Y-200913D01*
X-3904Y-200788D01*
X-3627Y-200719D01*
X-3377Y-200663D01*
X-3280Y-200650D01*
X-3183D01*
X-3113Y-200636D01*
X-3002D01*
X-2767Y-200650D01*
D02*
G37*
G36*
X-23805Y-207598D02*
X-25982D01*
Y-200844D01*
X-23805D01*
Y-207598D01*
D02*
G37*
G36*
X-35344D02*
X-37590D01*
Y-205226D01*
X-35344D01*
Y-207598D01*
D02*
G37*
G36*
X62734Y-198472D02*
X63053Y-198486D01*
X63344Y-198528D01*
X63621Y-198583D01*
X63871Y-198639D01*
X64107Y-198708D01*
X64329Y-198791D01*
X64523Y-198860D01*
X64703Y-198930D01*
X64869Y-199013D01*
X64994Y-199082D01*
X65105Y-199138D01*
X65202Y-199193D01*
X65258Y-199221D01*
X65299Y-199249D01*
X65313Y-199263D01*
X65507Y-199415D01*
X65674Y-199582D01*
X65826Y-199748D01*
X65951Y-199914D01*
X66062Y-200081D01*
X66145Y-200261D01*
X66228Y-200414D01*
X66284Y-200580D01*
X66326Y-200733D01*
X66367Y-200858D01*
X66395Y-200982D01*
X66409Y-201093D01*
Y-201177D01*
X66423Y-201246D01*
Y-201287D01*
Y-201301D01*
X66395Y-201634D01*
X66340Y-201939D01*
X66270Y-202217D01*
X66173Y-202439D01*
X66090Y-202633D01*
X66007Y-202771D01*
X65979Y-202813D01*
X65951Y-202855D01*
X65937Y-202868D01*
Y-202882D01*
X65840Y-202993D01*
X65729Y-203104D01*
X65466Y-203298D01*
X65202Y-203465D01*
X64925Y-203603D01*
X64689Y-203715D01*
X64578Y-203770D01*
X64481Y-203798D01*
X64412Y-203825D01*
X64356Y-203853D01*
X64315Y-203867D01*
X64301D01*
X63926Y-203978D01*
X63746Y-204034D01*
X63580Y-204061D01*
X63455Y-204103D01*
X63344Y-204130D01*
X63275Y-204144D01*
X63247D01*
X63039Y-204186D01*
X62831Y-204214D01*
X62650Y-204255D01*
X62498Y-204297D01*
X62359Y-204325D01*
X62248Y-204339D01*
X62193Y-204366D01*
X62165D01*
X61999Y-204408D01*
X61846Y-204463D01*
X61735Y-204519D01*
X61624Y-204574D01*
X61541Y-204616D01*
X61486Y-204657D01*
X61458Y-204685D01*
X61444Y-204699D01*
X61361Y-204782D01*
X61291Y-204866D01*
X61250Y-204949D01*
X61208Y-205032D01*
X61194Y-205101D01*
X61180Y-205143D01*
Y-205184D01*
Y-205198D01*
X61194Y-205309D01*
X61208Y-205406D01*
X61236Y-205490D01*
X61264Y-205559D01*
X61305Y-205614D01*
X61333Y-205656D01*
X61347Y-205670D01*
X61361Y-205684D01*
X61499Y-205795D01*
X61638Y-205878D01*
X61694Y-205920D01*
X61749Y-205947D01*
X61777Y-205961D01*
X61791D01*
X61971Y-206017D01*
X62151Y-206058D01*
X62234Y-206072D01*
X62304D01*
X62345Y-206086D01*
X62359D01*
X62484Y-206100D01*
X62692D01*
X62761Y-206114D01*
X62914D01*
X63219Y-206100D01*
X63524Y-206072D01*
X63815Y-206017D01*
X64079Y-205961D01*
X64301Y-205906D01*
X64384Y-205878D01*
X64467Y-205850D01*
X64537Y-205836D01*
X64578Y-205823D01*
X64606Y-205809D01*
X64620D01*
X64939Y-205684D01*
X65244Y-205545D01*
X65521Y-205393D01*
X65757Y-205254D01*
X65951Y-205115D01*
X66104Y-205018D01*
X66159Y-204977D01*
X66201Y-204949D01*
X66215Y-204921D01*
X66478D01*
Y-207085D01*
X65937Y-207279D01*
X65674Y-207362D01*
X65438Y-207431D01*
X65230Y-207487D01*
X65078Y-207528D01*
X65022Y-207556D01*
X64980D01*
X64953Y-207570D01*
X64939D01*
X64620Y-207639D01*
X64287Y-207681D01*
X63954Y-207722D01*
X63649Y-207736D01*
X63386Y-207750D01*
X63275Y-207764D01*
X62997D01*
X62650Y-207750D01*
X62318Y-207722D01*
X61999Y-207695D01*
X61707Y-207639D01*
X61430Y-207570D01*
X61180Y-207501D01*
X60959Y-207431D01*
X60750Y-207348D01*
X60570Y-207279D01*
X60404Y-207209D01*
X60265Y-207140D01*
X60154Y-207071D01*
X60057Y-207015D01*
X60002Y-206987D01*
X59960Y-206960D01*
X59946Y-206946D01*
X59752Y-206779D01*
X59572Y-206613D01*
X59419Y-206433D01*
X59294Y-206252D01*
X59183Y-206072D01*
X59086Y-205892D01*
X59017Y-205725D01*
X58948Y-205545D01*
X58906Y-205393D01*
X58864Y-205254D01*
X58837Y-205115D01*
X58823Y-205004D01*
Y-204907D01*
X58809Y-204838D01*
Y-204796D01*
Y-204782D01*
X58837Y-204450D01*
X58892Y-204158D01*
X58962Y-203895D01*
X59059Y-203673D01*
X59156Y-203507D01*
X59225Y-203382D01*
X59281Y-203298D01*
X59308Y-203271D01*
X59516Y-203063D01*
X59752Y-202882D01*
X60002Y-202730D01*
X60251Y-202591D01*
X60473Y-202494D01*
X60584Y-202453D01*
X60667Y-202411D01*
X60737Y-202383D01*
X60792Y-202369D01*
X60820Y-202355D01*
X60834D01*
X61028Y-202300D01*
X61208Y-202244D01*
X61375Y-202203D01*
X61527Y-202161D01*
X61652Y-202134D01*
X61735Y-202106D01*
X61791Y-202092D01*
X61818D01*
X62151Y-202022D01*
X62318Y-201981D01*
X62456Y-201953D01*
X62581Y-201926D01*
X62678Y-201898D01*
X62734Y-201884D01*
X62761D01*
X63025Y-201828D01*
X63233Y-201773D01*
X63413Y-201717D01*
X63552Y-201662D01*
X63663Y-201620D01*
X63732Y-201579D01*
X63774Y-201565D01*
X63788Y-201551D01*
X63871Y-201468D01*
X63940Y-201385D01*
X63982Y-201287D01*
X64023Y-201204D01*
X64037Y-201121D01*
X64051Y-201052D01*
Y-201010D01*
Y-200996D01*
X64037Y-200913D01*
X64023Y-200830D01*
X63968Y-200705D01*
X63940Y-200650D01*
X63913Y-200608D01*
X63885Y-200594D01*
Y-200580D01*
X63746Y-200455D01*
X63621Y-200372D01*
X63566Y-200345D01*
X63524Y-200317D01*
X63496Y-200303D01*
X63483D01*
X63288Y-200233D01*
X63108Y-200178D01*
X63039Y-200164D01*
X62983D01*
X62956Y-200150D01*
X62942D01*
X62734Y-200123D01*
X62540Y-200109D01*
X62359D01*
X62054Y-200123D01*
X61763Y-200150D01*
X61486Y-200206D01*
X61250Y-200247D01*
X61042Y-200303D01*
X60959Y-200331D01*
X60889Y-200358D01*
X60834Y-200372D01*
X60792Y-200386D01*
X60764Y-200400D01*
X60750D01*
X60459Y-200511D01*
X60210Y-200636D01*
X59988Y-200760D01*
X59794Y-200872D01*
X59627Y-200968D01*
X59516Y-201052D01*
X59447Y-201107D01*
X59419Y-201121D01*
X59170D01*
Y-199069D01*
X59419Y-198972D01*
X59669Y-198888D01*
X59932Y-198819D01*
X60168Y-198750D01*
X60376Y-198708D01*
X60459Y-198680D01*
X60529Y-198666D01*
X60598Y-198652D01*
X60640D01*
X60667Y-198639D01*
X60681D01*
X61000Y-198583D01*
X61319Y-198528D01*
X61610Y-198500D01*
X61874Y-198486D01*
X62096Y-198472D01*
X62179Y-198458D01*
X62415D01*
X62734Y-198472D01*
D02*
G37*
G36*
X46660Y-200663D02*
X46910Y-200691D01*
X47160Y-200733D01*
X47381Y-200788D01*
X47589Y-200844D01*
X47784Y-200899D01*
X47950Y-200955D01*
X48102Y-201024D01*
X48241Y-201080D01*
X48352Y-201135D01*
X48449Y-201190D01*
X48519Y-201232D01*
X48574Y-201260D01*
X48602Y-201274D01*
X48616Y-201287D01*
X48782Y-201412D01*
X48921Y-201537D01*
X49046Y-201676D01*
X49143Y-201814D01*
X49240Y-201953D01*
X49309Y-202092D01*
X49420Y-202341D01*
X49475Y-202563D01*
X49503Y-202661D01*
X49517Y-202744D01*
X49531Y-202813D01*
Y-202868D01*
Y-202896D01*
Y-202910D01*
X49517Y-203188D01*
X49462Y-203437D01*
X49392Y-203645D01*
X49309Y-203839D01*
X49226Y-203978D01*
X49156Y-204089D01*
X49101Y-204158D01*
X49087Y-204186D01*
X48907Y-204366D01*
X48685Y-204519D01*
X48463Y-204644D01*
X48241Y-204755D01*
X48047Y-204838D01*
X47881Y-204893D01*
X47811Y-204907D01*
X47770Y-204921D01*
X47742Y-204935D01*
X47728D01*
X47465Y-204990D01*
X47340Y-205018D01*
X47229Y-205046D01*
X47132Y-205060D01*
X47049Y-205074D01*
X46993Y-205087D01*
X46979D01*
X46827Y-205115D01*
X46702Y-205129D01*
X46591Y-205157D01*
X46494Y-205171D01*
X46424Y-205184D01*
X46369D01*
X46341Y-205198D01*
X46327D01*
X46161Y-205240D01*
X46008Y-205282D01*
X45897Y-205323D01*
X45800Y-205351D01*
X45731Y-205379D01*
X45689Y-205406D01*
X45662Y-205420D01*
X45648D01*
X45578Y-205462D01*
X45537Y-205517D01*
X45481Y-205642D01*
X45468Y-205698D01*
X45454Y-205739D01*
Y-205767D01*
Y-205781D01*
X45468Y-205878D01*
X45509Y-205961D01*
X45551Y-206031D01*
X45606Y-206086D01*
X45676Y-206141D01*
X45717Y-206169D01*
X45759Y-206183D01*
X45773Y-206197D01*
X45897Y-206238D01*
X46050Y-206280D01*
X46203Y-206308D01*
X46355Y-206322D01*
X46494D01*
X46605Y-206336D01*
X46896D01*
X47062Y-206322D01*
X47215Y-206308D01*
X47354Y-206280D01*
X47465Y-206266D01*
X47562Y-206252D01*
X47617Y-206238D01*
X47631D01*
X47922Y-206155D01*
X48061Y-206128D01*
X48172Y-206086D01*
X48255Y-206058D01*
X48338Y-206031D01*
X48380Y-206003D01*
X48394D01*
X48533Y-205947D01*
X48643Y-205892D01*
X48754Y-205836D01*
X48838Y-205795D01*
X48907Y-205767D01*
X48948Y-205739D01*
X48976Y-205711D01*
X48990D01*
X49143Y-205614D01*
X49254Y-205531D01*
X49337Y-205476D01*
X49351Y-205448D01*
X49559D01*
Y-207237D01*
X49378Y-207306D01*
X49184Y-207390D01*
X48990Y-207445D01*
X48810Y-207501D01*
X48643Y-207542D01*
X48519Y-207584D01*
X48463Y-207598D01*
X48422D01*
X48408Y-207612D01*
X48394D01*
X48116Y-207667D01*
X47825Y-207709D01*
X47548Y-207736D01*
X47298Y-207750D01*
X47076Y-207764D01*
X46979Y-207778D01*
X46743D01*
X46452Y-207764D01*
X46161Y-207750D01*
X45897Y-207722D01*
X45662Y-207681D01*
X45426Y-207625D01*
X45218Y-207570D01*
X45024Y-207514D01*
X44857Y-207459D01*
X44691Y-207404D01*
X44566Y-207348D01*
X44441Y-207292D01*
X44344Y-207237D01*
X44275Y-207195D01*
X44219Y-207168D01*
X44192Y-207140D01*
X44178D01*
X44011Y-207015D01*
X43873Y-206890D01*
X43734Y-206752D01*
X43637Y-206599D01*
X43540Y-206460D01*
X43471Y-206322D01*
X43346Y-206058D01*
X43290Y-205809D01*
X43263Y-205711D01*
X43249Y-205628D01*
X43235Y-205545D01*
Y-205490D01*
Y-205462D01*
Y-205448D01*
X43249Y-205198D01*
X43304Y-204963D01*
X43360Y-204755D01*
X43443Y-204588D01*
X43512Y-204450D01*
X43581Y-204339D01*
X43637Y-204283D01*
X43651Y-204255D01*
X43817Y-204089D01*
X44011Y-203936D01*
X44233Y-203812D01*
X44427Y-203715D01*
X44622Y-203645D01*
X44774Y-203590D01*
X44830Y-203576D01*
X44871Y-203562D01*
X44899Y-203548D01*
X44913D01*
X45204Y-203479D01*
X45329Y-203451D01*
X45440Y-203437D01*
X45551Y-203423D01*
X45620Y-203409D01*
X45676Y-203396D01*
X45689D01*
X45953Y-203340D01*
X46078Y-203326D01*
X46189Y-203312D01*
X46272Y-203285D01*
X46341D01*
X46383Y-203271D01*
X46397D01*
X46605Y-203215D01*
X46771Y-203174D01*
X46896Y-203132D01*
X47007Y-203090D01*
X47076Y-203049D01*
X47118Y-203035D01*
X47146Y-203007D01*
X47160D01*
X47215Y-202952D01*
X47243Y-202896D01*
X47298Y-202785D01*
Y-202730D01*
X47312Y-202688D01*
Y-202661D01*
Y-202647D01*
X47298Y-202549D01*
X47257Y-202466D01*
X47201Y-202397D01*
X47132Y-202341D01*
X47076Y-202286D01*
X47021Y-202258D01*
X46979Y-202231D01*
X46965D01*
X46827Y-202175D01*
X46674Y-202147D01*
X46522Y-202120D01*
X46383Y-202092D01*
X46258D01*
X46161Y-202078D01*
X46078D01*
X45842Y-202092D01*
X45620Y-202106D01*
X45412Y-202147D01*
X45232Y-202189D01*
X45065Y-202231D01*
X44954Y-202258D01*
X44871Y-202286D01*
X44844Y-202300D01*
X44622Y-202383D01*
X44400Y-202466D01*
X44219Y-202563D01*
X44053Y-202647D01*
X43914Y-202716D01*
X43817Y-202771D01*
X43762Y-202813D01*
X43734Y-202827D01*
X43540D01*
Y-201121D01*
X43706Y-201066D01*
X43887Y-200996D01*
X44067Y-200941D01*
X44233Y-200899D01*
X44400Y-200858D01*
X44524Y-200830D01*
X44608Y-200802D01*
X44635D01*
X44899Y-200747D01*
X45149Y-200705D01*
X45398Y-200677D01*
X45620Y-200650D01*
X45814D01*
X45967Y-200636D01*
X46383D01*
X46660Y-200663D01*
D02*
G37*
G36*
X-10214Y-200650D02*
X-9909Y-200677D01*
X-9632Y-200719D01*
X-9368Y-200788D01*
X-9132Y-200858D01*
X-8897Y-200941D01*
X-8702Y-201024D01*
X-8508Y-201107D01*
X-8342Y-201204D01*
X-8203Y-201287D01*
X-8078Y-201371D01*
X-7981Y-201440D01*
X-7898Y-201509D01*
X-7843Y-201551D01*
X-7815Y-201579D01*
X-7801Y-201593D01*
X-7635Y-201773D01*
X-7482Y-201981D01*
X-7357Y-202189D01*
X-7246Y-202411D01*
X-7149Y-202633D01*
X-7066Y-202841D01*
X-6997Y-203063D01*
X-6955Y-203271D01*
X-6913Y-203465D01*
X-6886Y-203645D01*
X-6858Y-203812D01*
X-6844Y-203950D01*
X-6830Y-204061D01*
Y-204158D01*
Y-204214D01*
Y-204228D01*
X-6844Y-204533D01*
X-6872Y-204824D01*
X-6913Y-205088D01*
X-6983Y-205337D01*
X-7052Y-205573D01*
X-7135Y-205795D01*
X-7232Y-205989D01*
X-7316Y-206155D01*
X-7413Y-206322D01*
X-7496Y-206460D01*
X-7579Y-206571D01*
X-7648Y-206668D01*
X-7718Y-206752D01*
X-7759Y-206807D01*
X-7787Y-206835D01*
X-7801Y-206849D01*
X-7995Y-207015D01*
X-8203Y-207168D01*
X-8411Y-207292D01*
X-8633Y-207404D01*
X-8869Y-207501D01*
X-9091Y-207570D01*
X-9313Y-207639D01*
X-9535Y-207681D01*
X-9743Y-207722D01*
X-9923Y-207750D01*
X-10089Y-207778D01*
X-10242Y-207792D01*
X-10367Y-207806D01*
X-10533D01*
X-10852Y-207792D01*
X-11157Y-207764D01*
X-11435Y-207722D01*
X-11698Y-207653D01*
X-11934Y-207584D01*
X-12156Y-207501D01*
X-12364Y-207417D01*
X-12544Y-207320D01*
X-12710Y-207237D01*
X-12849Y-207154D01*
X-12974Y-207071D01*
X-13071Y-207001D01*
X-13154Y-206932D01*
X-13210Y-206890D01*
X-13237Y-206863D01*
X-13251Y-206849D01*
X-13432Y-206655D01*
X-13570Y-206460D01*
X-13709Y-206252D01*
X-13820Y-206031D01*
X-13917Y-205823D01*
X-14000Y-205601D01*
X-14056Y-205379D01*
X-14111Y-205185D01*
X-14153Y-204990D01*
X-14180Y-204810D01*
X-14208Y-204644D01*
X-14222Y-204505D01*
X-14236Y-204380D01*
Y-204297D01*
Y-204242D01*
Y-204228D01*
X-14222Y-203923D01*
X-14194Y-203631D01*
X-14153Y-203368D01*
X-14083Y-203118D01*
X-14014Y-202882D01*
X-13931Y-202661D01*
X-13848Y-202466D01*
X-13750Y-202286D01*
X-13667Y-202134D01*
X-13570Y-201995D01*
X-13487Y-201884D01*
X-13418Y-201787D01*
X-13348Y-201704D01*
X-13307Y-201648D01*
X-13279Y-201620D01*
X-13265Y-201607D01*
X-13071Y-201440D01*
X-12863Y-201287D01*
X-12655Y-201163D01*
X-12433Y-201038D01*
X-12197Y-200955D01*
X-11975Y-200872D01*
X-11753Y-200802D01*
X-11532Y-200760D01*
X-11337Y-200719D01*
X-11143Y-200691D01*
X-10977Y-200664D01*
X-10824Y-200650D01*
X-10699Y-200636D01*
X-10533D01*
X-10214Y-200650D01*
D02*
G37*
G36*
X-49864D02*
X-49559Y-200677D01*
X-49281Y-200719D01*
X-49018Y-200788D01*
X-48782Y-200858D01*
X-48546Y-200941D01*
X-48352Y-201024D01*
X-48158Y-201107D01*
X-47992Y-201204D01*
X-47853Y-201287D01*
X-47728Y-201371D01*
X-47631Y-201440D01*
X-47548Y-201509D01*
X-47492Y-201551D01*
X-47465Y-201579D01*
X-47451Y-201593D01*
X-47284Y-201773D01*
X-47132Y-201981D01*
X-47007Y-202189D01*
X-46896Y-202411D01*
X-46799Y-202633D01*
X-46716Y-202841D01*
X-46646Y-203063D01*
X-46605Y-203271D01*
X-46563Y-203465D01*
X-46535Y-203645D01*
X-46508Y-203812D01*
X-46494Y-203950D01*
X-46480Y-204061D01*
Y-204158D01*
Y-204214D01*
Y-204228D01*
X-46494Y-204533D01*
X-46522Y-204824D01*
X-46563Y-205088D01*
X-46632Y-205337D01*
X-46702Y-205573D01*
X-46785Y-205795D01*
X-46882Y-205989D01*
X-46965Y-206155D01*
X-47062Y-206322D01*
X-47146Y-206460D01*
X-47229Y-206571D01*
X-47298Y-206668D01*
X-47368Y-206752D01*
X-47409Y-206807D01*
X-47437Y-206835D01*
X-47451Y-206849D01*
X-47645Y-207015D01*
X-47853Y-207168D01*
X-48061Y-207292D01*
X-48283Y-207404D01*
X-48519Y-207501D01*
X-48741Y-207570D01*
X-48962Y-207639D01*
X-49184Y-207681D01*
X-49392Y-207722D01*
X-49573Y-207750D01*
X-49739Y-207778D01*
X-49892Y-207792D01*
X-50016Y-207806D01*
X-50183D01*
X-50502Y-207792D01*
X-50807Y-207764D01*
X-51084Y-207722D01*
X-51348Y-207653D01*
X-51583Y-207584D01*
X-51805Y-207501D01*
X-52013Y-207417D01*
X-52194Y-207320D01*
X-52360Y-207237D01*
X-52499Y-207154D01*
X-52624Y-207071D01*
X-52721Y-207001D01*
X-52804Y-206932D01*
X-52859Y-206890D01*
X-52887Y-206863D01*
X-52901Y-206849D01*
X-53081Y-206655D01*
X-53220Y-206460D01*
X-53359Y-206252D01*
X-53470Y-206031D01*
X-53567Y-205823D01*
X-53650Y-205601D01*
X-53705Y-205379D01*
X-53761Y-205185D01*
X-53802Y-204990D01*
X-53830Y-204810D01*
X-53858Y-204644D01*
X-53872Y-204505D01*
X-53886Y-204380D01*
Y-204297D01*
Y-204242D01*
Y-204228D01*
X-53872Y-203923D01*
X-53844Y-203631D01*
X-53802Y-203368D01*
X-53733Y-203118D01*
X-53664Y-202882D01*
X-53581Y-202661D01*
X-53497Y-202466D01*
X-53400Y-202286D01*
X-53317Y-202134D01*
X-53220Y-201995D01*
X-53137Y-201884D01*
X-53067Y-201787D01*
X-52998Y-201704D01*
X-52957Y-201648D01*
X-52929Y-201620D01*
X-52915Y-201607D01*
X-52721Y-201440D01*
X-52513Y-201287D01*
X-52305Y-201163D01*
X-52083Y-201038D01*
X-51847Y-200955D01*
X-51625Y-200872D01*
X-51403Y-200802D01*
X-51181Y-200760D01*
X-50987Y-200719D01*
X-50793Y-200691D01*
X-50627Y-200664D01*
X-50474Y-200650D01*
X-50349Y-200636D01*
X-50183D01*
X-49864Y-200650D01*
D02*
G37*
G36*
X-3301Y-241893D02*
X-5755D01*
X-8377Y-235139D01*
X-6130D01*
X-4577Y-239799D01*
X-2996Y-235139D01*
X-721D01*
X-3301Y-241893D01*
D02*
G37*
G36*
X3606Y-234945D02*
X3911Y-234973D01*
X4202Y-235028D01*
X4466Y-235084D01*
X4715Y-235153D01*
X4951Y-235236D01*
X5159Y-235333D01*
X5353Y-235417D01*
X5520Y-235514D01*
X5672Y-235611D01*
X5797Y-235694D01*
X5894Y-235763D01*
X5977Y-235819D01*
X6047Y-235874D01*
X6074Y-235902D01*
X6088Y-235916D01*
X6269Y-236110D01*
X6421Y-236304D01*
X6560Y-236526D01*
X6685Y-236734D01*
X6782Y-236956D01*
X6865Y-237178D01*
X6934Y-237400D01*
X6990Y-237608D01*
X7031Y-237802D01*
X7059Y-237982D01*
X7087Y-238149D01*
X7101Y-238287D01*
Y-238398D01*
X7114Y-238496D01*
Y-238551D01*
Y-238565D01*
X7101Y-238870D01*
X7073Y-239161D01*
X7017Y-239438D01*
X6948Y-239688D01*
X6865Y-239924D01*
X6768Y-240132D01*
X6671Y-240326D01*
X6574Y-240506D01*
X6477Y-240659D01*
X6380Y-240798D01*
X6282Y-240909D01*
X6199Y-241006D01*
X6130Y-241075D01*
X6074Y-241131D01*
X6047Y-241158D01*
X6033Y-241172D01*
X5825Y-241325D01*
X5589Y-241463D01*
X5339Y-241588D01*
X5090Y-241699D01*
X4826Y-241782D01*
X4563Y-241852D01*
X4063Y-241963D01*
X3828Y-242004D01*
X3620Y-242032D01*
X3412Y-242046D01*
X3245Y-242060D01*
X3106Y-242073D01*
X2621D01*
X2358Y-242046D01*
X2108Y-242032D01*
X1900Y-242004D01*
X1720Y-241976D01*
X1581Y-241963D01*
X1498Y-241935D01*
X1470D01*
X1220Y-241879D01*
X985Y-241810D01*
X749Y-241754D01*
X527Y-241685D01*
X347Y-241616D01*
X208Y-241560D01*
X153Y-241546D01*
X111Y-241533D01*
X97Y-241519D01*
X83D01*
Y-239771D01*
X333D01*
X485Y-239882D01*
X652Y-239979D01*
X818Y-240077D01*
X985Y-240146D01*
X1137Y-240215D01*
X1248Y-240271D01*
X1331Y-240298D01*
X1345Y-240312D01*
X1359D01*
X1595Y-240395D01*
X1831Y-240451D01*
X2052Y-240506D01*
X2261Y-240534D01*
X2427Y-240548D01*
X2566Y-240562D01*
X2677D01*
X3065Y-240548D01*
X3398Y-240492D01*
X3675Y-240423D01*
X3911Y-240354D01*
X4091Y-240271D01*
X4216Y-240215D01*
X4299Y-240160D01*
X4327Y-240146D01*
X4507Y-239979D01*
X4660Y-239785D01*
X4757Y-239577D01*
X4826Y-239383D01*
X4882Y-239203D01*
X4909Y-239050D01*
Y-239009D01*
X4923Y-238967D01*
Y-238939D01*
Y-238925D01*
X-42D01*
Y-238176D01*
X-28Y-237885D01*
X0Y-237622D01*
X42Y-237372D01*
X83Y-237136D01*
X153Y-236928D01*
X222Y-236734D01*
X291Y-236554D01*
X374Y-236388D01*
X458Y-236249D01*
X527Y-236124D01*
X596Y-236013D01*
X666Y-235930D01*
X707Y-235861D01*
X749Y-235819D01*
X777Y-235791D01*
X790Y-235777D01*
X957Y-235625D01*
X1137Y-235500D01*
X1331Y-235389D01*
X1525Y-235292D01*
X1734Y-235209D01*
X1942Y-235139D01*
X2344Y-235042D01*
X2538Y-235001D01*
X2704Y-234973D01*
X2871Y-234959D01*
X2996Y-234945D01*
X3120Y-234931D01*
X3273D01*
X3606Y-234945D01*
D02*
G37*
G36*
X16143Y-241893D02*
X13827D01*
Y-238606D01*
X12787D01*
X10346Y-241893D01*
X7503D01*
X10498Y-238065D01*
X10193Y-237899D01*
X9944Y-237733D01*
X9708Y-237552D01*
X9528Y-237386D01*
X9389Y-237247D01*
X9278Y-237122D01*
X9222Y-237053D01*
X9195Y-237025D01*
X9042Y-236776D01*
X8917Y-236498D01*
X8834Y-236235D01*
X8779Y-235971D01*
X8751Y-235749D01*
X8737Y-235652D01*
X8723Y-235569D01*
Y-235500D01*
Y-235444D01*
Y-235417D01*
Y-235403D01*
X8737Y-235139D01*
X8765Y-234917D01*
X8820Y-234709D01*
X8876Y-234529D01*
X8931Y-234390D01*
X8987Y-234293D01*
X9014Y-234238D01*
X9028Y-234210D01*
X9139Y-234030D01*
X9278Y-233877D01*
X9417Y-233752D01*
X9542Y-233628D01*
X9652Y-233544D01*
X9750Y-233475D01*
X9805Y-233433D01*
X9833Y-233420D01*
X10027Y-233323D01*
X10207Y-233239D01*
X10387Y-233170D01*
X10554Y-233114D01*
X10706Y-233073D01*
X10817Y-233045D01*
X10887Y-233031D01*
X10914D01*
X11136Y-233004D01*
X11372Y-232976D01*
X11594Y-232962D01*
X11802Y-232948D01*
X11996Y-232934D01*
X16143D01*
Y-241893D01*
D02*
G37*
G36*
X-12287Y-233045D02*
X-12260Y-233156D01*
X-12232Y-233267D01*
X-12190Y-233350D01*
X-12163Y-233420D01*
X-12135Y-233475D01*
X-12121Y-233503D01*
X-12107Y-233517D01*
X-12038Y-233600D01*
X-11968Y-233683D01*
X-11816Y-233794D01*
X-11760Y-233850D01*
X-11705Y-233877D01*
X-11663Y-233891D01*
X-11650Y-233905D01*
X-11441Y-233988D01*
X-11220Y-234044D01*
X-11122Y-234058D01*
X-11053Y-234071D01*
X-10998Y-234085D01*
X-10984D01*
X-10692Y-234113D01*
X-10554D01*
X-10429Y-234127D01*
X-10165D01*
Y-235583D01*
X-12052D01*
Y-240326D01*
X-10165D01*
Y-241893D01*
X-16143D01*
Y-240326D01*
X-14298D01*
Y-232906D01*
X-12301D01*
X-12287Y-233045D01*
D02*
G37*
G36*
X49018Y-182418D02*
X46730D01*
Y-180768D01*
X49018D01*
Y-182418D01*
D02*
G37*
G36*
X28160Y-183181D02*
X28368Y-183209D01*
X28562Y-183251D01*
X28728Y-183292D01*
X28867Y-183334D01*
X28964Y-183375D01*
X29034Y-183403D01*
X29061Y-183417D01*
X29255Y-183514D01*
X29450Y-183625D01*
X29630Y-183750D01*
X29782Y-183861D01*
X29921Y-183958D01*
X30032Y-184041D01*
X30101Y-184097D01*
X30129Y-184111D01*
Y-183375D01*
X32306D01*
Y-190129D01*
X30129D01*
Y-185331D01*
X29949Y-185220D01*
X29782Y-185137D01*
X29713Y-185095D01*
X29658Y-185081D01*
X29616Y-185054D01*
X29602D01*
X29380Y-184970D01*
X29269Y-184943D01*
X29172Y-184929D01*
X29089Y-184915D01*
X28839D01*
X28714Y-184929D01*
X28604Y-184943D01*
X28520Y-184970D01*
X28451Y-184984D01*
X28409Y-185012D01*
X28382Y-185026D01*
X28368D01*
X28215Y-185123D01*
X28118Y-185220D01*
X28049Y-185303D01*
X28035Y-185331D01*
Y-185345D01*
X27966Y-185525D01*
X27924Y-185705D01*
X27910Y-185775D01*
X27896Y-185844D01*
Y-185886D01*
Y-185900D01*
X27882Y-186038D01*
Y-186177D01*
X27868Y-186316D01*
Y-186454D01*
Y-186565D01*
Y-186662D01*
Y-186718D01*
Y-186745D01*
Y-190129D01*
X25691D01*
Y-185331D01*
X25442Y-185192D01*
X25331Y-185137D01*
X25247Y-185081D01*
X25164Y-185054D01*
X25109Y-185026D01*
X25081Y-185012D01*
X25067D01*
X24873Y-184956D01*
X24707Y-184929D01*
X24637Y-184915D01*
X24401D01*
X24277Y-184929D01*
X24166Y-184943D01*
X24083Y-184970D01*
X24013Y-184984D01*
X23958Y-185012D01*
X23930Y-185026D01*
X23916D01*
X23763Y-185123D01*
X23666Y-185220D01*
X23597Y-185303D01*
X23583Y-185331D01*
Y-185345D01*
X23528Y-185525D01*
X23486Y-185705D01*
X23472Y-185775D01*
X23458Y-185844D01*
Y-185886D01*
Y-185900D01*
X23444Y-186038D01*
Y-186177D01*
X23431Y-186316D01*
Y-186454D01*
Y-186565D01*
Y-186662D01*
Y-186718D01*
Y-186745D01*
Y-190129D01*
X21253D01*
Y-185733D01*
Y-185511D01*
X21281Y-185289D01*
X21309Y-185095D01*
X21337Y-184915D01*
X21378Y-184735D01*
X21434Y-184582D01*
X21489Y-184443D01*
X21531Y-184319D01*
X21586Y-184208D01*
X21642Y-184111D01*
X21683Y-184027D01*
X21739Y-183958D01*
X21767Y-183902D01*
X21794Y-183861D01*
X21822Y-183847D01*
Y-183833D01*
X21933Y-183722D01*
X22058Y-183611D01*
X22321Y-183445D01*
X22599Y-183334D01*
X22862Y-183251D01*
X23112Y-183195D01*
X23209Y-183181D01*
X23306D01*
X23375Y-183167D01*
X23486D01*
X23708Y-183181D01*
X23930Y-183223D01*
X24124Y-183265D01*
X24318Y-183320D01*
X24471Y-183389D01*
X24582Y-183431D01*
X24665Y-183472D01*
X24679Y-183486D01*
X24693D01*
X24928Y-183611D01*
X25150Y-183750D01*
X25358Y-183902D01*
X25552Y-184041D01*
X25719Y-184152D01*
X25844Y-184263D01*
X25927Y-184319D01*
X25941Y-184346D01*
X25955D01*
X26066Y-184138D01*
X26204Y-183972D01*
X26343Y-183819D01*
X26468Y-183694D01*
X26579Y-183597D01*
X26676Y-183528D01*
X26731Y-183486D01*
X26759Y-183472D01*
X26953Y-183375D01*
X27161Y-183292D01*
X27355Y-183237D01*
X27536Y-183209D01*
X27702Y-183181D01*
X27827Y-183167D01*
X27938D01*
X28160Y-183181D01*
D02*
G37*
G36*
X38353D02*
X38617Y-183209D01*
X38852Y-183223D01*
X39046Y-183251D01*
X39199Y-183278D01*
X39255D01*
X39296Y-183292D01*
X39338D01*
X39601Y-183334D01*
X39837Y-183375D01*
X40017Y-183417D01*
X40170Y-183445D01*
X40281Y-183472D01*
X40364Y-183500D01*
X40420Y-183514D01*
X40433D01*
Y-185137D01*
X40239D01*
X40128Y-185095D01*
X39990Y-185054D01*
X39712Y-184956D01*
X39587Y-184915D01*
X39476Y-184873D01*
X39407Y-184859D01*
X39379Y-184846D01*
X39157Y-184776D01*
X38935Y-184735D01*
X38741Y-184693D01*
X38575Y-184679D01*
X38436Y-184665D01*
X38325Y-184651D01*
X38228D01*
X37909Y-184665D01*
X37646Y-184679D01*
X37410Y-184721D01*
X37230Y-184762D01*
X37077Y-184804D01*
X36980Y-184832D01*
X36911Y-184859D01*
X36897Y-184873D01*
X36744Y-184970D01*
X36633Y-185081D01*
X36550Y-185206D01*
X36495Y-185345D01*
X36467Y-185456D01*
X36439Y-185553D01*
Y-185622D01*
Y-185650D01*
Y-185678D01*
X36786Y-185705D01*
X37133Y-185733D01*
X37438Y-185761D01*
X37715Y-185789D01*
X37951Y-185816D01*
X38048Y-185830D01*
X38131D01*
X38201Y-185844D01*
X38242Y-185858D01*
X38284D01*
X38603Y-185900D01*
X38894Y-185969D01*
X39144Y-186024D01*
X39352Y-186094D01*
X39532Y-186149D01*
X39657Y-186205D01*
X39740Y-186232D01*
X39754Y-186246D01*
X39768D01*
X39990Y-186357D01*
X40170Y-186468D01*
X40336Y-186593D01*
X40461Y-186718D01*
X40572Y-186815D01*
X40655Y-186898D01*
X40697Y-186954D01*
X40711Y-186981D01*
X40822Y-187162D01*
X40891Y-187370D01*
X40946Y-187564D01*
X40988Y-187758D01*
X41016Y-187924D01*
X41030Y-188063D01*
Y-188118D01*
Y-188160D01*
Y-188174D01*
Y-188188D01*
X41016Y-188354D01*
X41002Y-188521D01*
X40933Y-188812D01*
X40822Y-189075D01*
X40711Y-189297D01*
X40600Y-189478D01*
X40489Y-189602D01*
X40420Y-189686D01*
X40392Y-189699D01*
Y-189713D01*
X40267Y-189824D01*
X40128Y-189907D01*
X39865Y-190060D01*
X39601Y-190157D01*
X39338Y-190240D01*
X39116Y-190282D01*
X39019Y-190296D01*
X38935D01*
X38880Y-190310D01*
X38783D01*
X38492Y-190296D01*
X38367Y-190282D01*
X38256Y-190268D01*
X38159D01*
X38090Y-190254D01*
X38048Y-190240D01*
X38034D01*
X37785Y-190185D01*
X37673Y-190143D01*
X37576Y-190116D01*
X37493Y-190074D01*
X37424Y-190060D01*
X37382Y-190032D01*
X37368D01*
X37188Y-189935D01*
X37036Y-189838D01*
X36980Y-189810D01*
X36925Y-189769D01*
X36897Y-189755D01*
X36883Y-189741D01*
X36703Y-189602D01*
X36564Y-189505D01*
X36509Y-189478D01*
X36467Y-189450D01*
X36453Y-189422D01*
X36439D01*
Y-190129D01*
X34290D01*
Y-185525D01*
X34304Y-185303D01*
X34331Y-185095D01*
X34373Y-184915D01*
X34414Y-184735D01*
X34484Y-184582D01*
X34553Y-184429D01*
X34622Y-184305D01*
X34706Y-184180D01*
X34789Y-184083D01*
X34858Y-184000D01*
X34928Y-183916D01*
X34997Y-183861D01*
X35038Y-183805D01*
X35080Y-183778D01*
X35108Y-183750D01*
X35122D01*
X35288Y-183653D01*
X35468Y-183556D01*
X35677Y-183472D01*
X35884Y-183417D01*
X36328Y-183306D01*
X36758Y-183237D01*
X36966Y-183209D01*
X37160Y-183195D01*
X37327Y-183181D01*
X37479D01*
X37604Y-183167D01*
X38076D01*
X38353Y-183181D01*
D02*
G37*
G36*
X-51583Y-186759D02*
X-48921Y-190129D01*
X-51375D01*
X-52873Y-188105D01*
X-54330Y-190129D01*
X-56867D01*
X-54191Y-186704D01*
X-56840Y-183375D01*
X-54357D01*
X-52915Y-185373D01*
X-51486Y-183375D01*
X-48962D01*
X-51583Y-186759D01*
D02*
G37*
G36*
X-25691Y-190074D02*
X-24609Y-192612D01*
X-26967D01*
X-30739Y-183375D01*
X-28493D01*
X-26953Y-187730D01*
X-25345Y-183375D01*
X-23070D01*
X-25691Y-190074D01*
D02*
G37*
G36*
X16233Y-183181D02*
X16538Y-183209D01*
X16829Y-183265D01*
X17093Y-183320D01*
X17342Y-183389D01*
X17578Y-183472D01*
X17786Y-183570D01*
X17980Y-183653D01*
X18147Y-183750D01*
X18299Y-183847D01*
X18424Y-183930D01*
X18521Y-184000D01*
X18605Y-184055D01*
X18674Y-184111D01*
X18701Y-184138D01*
X18715Y-184152D01*
X18896Y-184346D01*
X19048Y-184540D01*
X19187Y-184762D01*
X19312Y-184970D01*
X19409Y-185192D01*
X19492Y-185414D01*
X19561Y-185636D01*
X19617Y-185844D01*
X19658Y-186038D01*
X19686Y-186218D01*
X19714Y-186385D01*
X19728Y-186524D01*
Y-186635D01*
X19742Y-186732D01*
Y-186787D01*
Y-186801D01*
X19728Y-187106D01*
X19700Y-187397D01*
X19645Y-187675D01*
X19575Y-187924D01*
X19492Y-188160D01*
X19395Y-188368D01*
X19298Y-188562D01*
X19201Y-188743D01*
X19104Y-188895D01*
X19007Y-189034D01*
X18910Y-189145D01*
X18826Y-189242D01*
X18757Y-189311D01*
X18701Y-189367D01*
X18674Y-189394D01*
X18660Y-189408D01*
X18452Y-189561D01*
X18216Y-189699D01*
X17967Y-189824D01*
X17717Y-189935D01*
X17453Y-190018D01*
X17190Y-190088D01*
X16691Y-190199D01*
X16455Y-190240D01*
X16247Y-190268D01*
X16039Y-190282D01*
X15872Y-190296D01*
X15734Y-190310D01*
X15248D01*
X14985Y-190282D01*
X14735Y-190268D01*
X14527Y-190240D01*
X14347Y-190213D01*
X14208Y-190199D01*
X14125Y-190171D01*
X14097D01*
X13848Y-190116D01*
X13612Y-190046D01*
X13376Y-189991D01*
X13154Y-189921D01*
X12974Y-189852D01*
X12835Y-189797D01*
X12780Y-189783D01*
X12738Y-189769D01*
X12724Y-189755D01*
X12710D01*
Y-188008D01*
X12960D01*
X13113Y-188118D01*
X13279Y-188216D01*
X13445Y-188313D01*
X13612Y-188382D01*
X13764Y-188451D01*
X13875Y-188507D01*
X13958Y-188535D01*
X13972Y-188548D01*
X13986D01*
X14222Y-188632D01*
X14458Y-188687D01*
X14680Y-188743D01*
X14888Y-188770D01*
X15054Y-188784D01*
X15193Y-188798D01*
X15304D01*
X15692Y-188784D01*
X16025Y-188729D01*
X16302Y-188659D01*
X16538Y-188590D01*
X16718Y-188507D01*
X16843Y-188451D01*
X16926Y-188396D01*
X16954Y-188382D01*
X17134Y-188216D01*
X17287Y-188021D01*
X17384Y-187813D01*
X17453Y-187619D01*
X17509Y-187439D01*
X17537Y-187286D01*
Y-187245D01*
X17550Y-187203D01*
Y-187175D01*
Y-187162D01*
X12586D01*
Y-186413D01*
X12599Y-186121D01*
X12627Y-185858D01*
X12669Y-185608D01*
X12710Y-185373D01*
X12780Y-185165D01*
X12849Y-184970D01*
X12918Y-184790D01*
X13002Y-184624D01*
X13085Y-184485D01*
X13154Y-184360D01*
X13224Y-184249D01*
X13293Y-184166D01*
X13334Y-184097D01*
X13376Y-184055D01*
X13404Y-184027D01*
X13418Y-184013D01*
X13584Y-183861D01*
X13764Y-183736D01*
X13958Y-183625D01*
X14153Y-183528D01*
X14361Y-183445D01*
X14569Y-183375D01*
X14971Y-183278D01*
X15165Y-183237D01*
X15331Y-183209D01*
X15498Y-183195D01*
X15623Y-183181D01*
X15748Y-183167D01*
X15900D01*
X16233Y-183181D01*
D02*
G37*
G36*
X2157Y-183375D02*
X3044D01*
Y-184846D01*
X2157D01*
Y-188008D01*
X2143Y-188229D01*
X2129Y-188437D01*
X2101Y-188632D01*
X2060Y-188812D01*
X2018Y-188964D01*
X1962Y-189117D01*
X1907Y-189242D01*
X1851Y-189353D01*
X1796Y-189450D01*
X1741Y-189547D01*
X1685Y-189616D01*
X1643Y-189672D01*
X1574Y-189741D01*
X1546Y-189769D01*
X1421Y-189852D01*
X1297Y-189935D01*
X992Y-190060D01*
X686Y-190143D01*
X381Y-190199D01*
X104Y-190240D01*
X-21Y-190254D01*
X-118D01*
X-201Y-190268D01*
X-534D01*
X-714Y-190254D01*
X-881D01*
X-1019Y-190240D01*
X-1130Y-190226D01*
X-1213D01*
X-1269Y-190213D01*
X-1283D01*
X-1560Y-190171D01*
X-1685Y-190143D01*
X-1810Y-190129D01*
X-1893Y-190116D01*
X-1976Y-190102D01*
X-2018Y-190088D01*
X-2032D01*
Y-188590D01*
X-1851D01*
X-1810Y-188618D01*
X-1741Y-188645D01*
X-1616Y-188687D01*
X-1560Y-188701D01*
X-1505Y-188715D01*
X-1477Y-188729D01*
X-1463D01*
X-1283Y-188770D01*
X-1144Y-188784D01*
X-1103Y-188798D01*
X-881D01*
X-756Y-188784D01*
X-659Y-188756D01*
X-562Y-188743D01*
X-492Y-188715D01*
X-451Y-188701D01*
X-423Y-188687D01*
X-409D01*
X-270Y-188576D01*
X-187Y-188465D01*
X-132Y-188382D01*
X-118Y-188354D01*
Y-188340D01*
X-62Y-188174D01*
X-35Y-188021D01*
X-21Y-187966D01*
Y-187910D01*
Y-187883D01*
Y-187869D01*
Y-187661D01*
Y-187453D01*
Y-187370D01*
Y-187300D01*
Y-187259D01*
Y-187245D01*
Y-184846D01*
X-2032D01*
Y-183375D01*
X-21D01*
Y-181448D01*
X2157D01*
Y-183375D01*
D02*
G37*
G36*
X56867Y-190129D02*
X54551D01*
Y-186302D01*
X50751D01*
Y-184568D01*
X54551D01*
Y-182904D01*
X50446D01*
Y-181170D01*
X56867D01*
Y-190129D01*
D02*
G37*
G36*
X48962D02*
X46785D01*
Y-183375D01*
X48962D01*
Y-190129D01*
D02*
G37*
G36*
X44746D02*
X42569D01*
Y-180768D01*
X44746D01*
Y-190129D01*
D02*
G37*
G36*
X6844Y-183181D02*
X7066Y-183209D01*
X7260Y-183251D01*
X7440Y-183292D01*
X7579Y-183334D01*
X7690Y-183375D01*
X7759Y-183403D01*
X7787Y-183417D01*
X7981Y-183514D01*
X8175Y-183625D01*
X8370Y-183736D01*
X8536Y-183847D01*
X8675Y-183958D01*
X8786Y-184041D01*
X8855Y-184097D01*
X8883Y-184111D01*
Y-183375D01*
X11060D01*
Y-190129D01*
X8883D01*
Y-185331D01*
X8633Y-185192D01*
X8522Y-185137D01*
X8439Y-185081D01*
X8356Y-185054D01*
X8300Y-185026D01*
X8259Y-185012D01*
X8245D01*
X8023Y-184956D01*
X7912Y-184943D01*
X7829Y-184929D01*
X7746Y-184915D01*
X7496D01*
X7371Y-184929D01*
X7260Y-184943D01*
X7163Y-184970D01*
X7094Y-184984D01*
X7038Y-185012D01*
X7010Y-185026D01*
X6997D01*
X6844Y-185123D01*
X6733Y-185220D01*
X6664Y-185303D01*
X6650Y-185331D01*
Y-185345D01*
X6622Y-185428D01*
X6581Y-185525D01*
X6539Y-185719D01*
X6525Y-185816D01*
Y-185886D01*
X6511Y-185941D01*
Y-185955D01*
X6484Y-186246D01*
X6470Y-186385D01*
X6456Y-186510D01*
Y-186621D01*
Y-186704D01*
Y-186759D01*
Y-186773D01*
Y-190129D01*
X4278D01*
Y-185733D01*
Y-185497D01*
X4306Y-185289D01*
X4334Y-185081D01*
X4376Y-184901D01*
X4417Y-184721D01*
X4473Y-184568D01*
X4528Y-184429D01*
X4584Y-184291D01*
X4653Y-184180D01*
X4708Y-184083D01*
X4764Y-184000D01*
X4805Y-183944D01*
X4847Y-183889D01*
X4875Y-183847D01*
X4889Y-183833D01*
X4902Y-183819D01*
X5027Y-183708D01*
X5152Y-183597D01*
X5429Y-183445D01*
X5707Y-183320D01*
X5984Y-183251D01*
X6234Y-183195D01*
X6331Y-183181D01*
X6428D01*
X6497Y-183167D01*
X6608D01*
X6844Y-183181D01*
D02*
G37*
G36*
X-7662Y-190129D02*
X-10810D01*
X-11199Y-190116D01*
X-11559Y-190102D01*
X-11878Y-190074D01*
X-12142Y-190046D01*
X-12267Y-190032D01*
X-12364Y-190018D01*
X-12461D01*
X-12530Y-190005D01*
X-12586Y-189991D01*
X-12627Y-189977D01*
X-12669D01*
X-12960Y-189907D01*
X-13224Y-189824D01*
X-13473Y-189727D01*
X-13681Y-189644D01*
X-13862Y-189561D01*
X-14000Y-189491D01*
X-14083Y-189436D01*
X-14097Y-189422D01*
X-14111D01*
X-14430Y-189200D01*
X-14707Y-188964D01*
X-14957Y-188715D01*
X-15165Y-188465D01*
X-15331Y-188243D01*
X-15401Y-188160D01*
X-15456Y-188077D01*
X-15498Y-188008D01*
X-15526Y-187952D01*
X-15553Y-187924D01*
Y-187910D01*
X-15748Y-187522D01*
X-15886Y-187134D01*
X-15997Y-186759D01*
X-16066Y-186413D01*
X-16094Y-186260D01*
X-16108Y-186108D01*
X-16122Y-185983D01*
Y-185872D01*
X-16136Y-185789D01*
Y-185719D01*
Y-185678D01*
Y-185664D01*
X-16108Y-185192D01*
X-16053Y-184762D01*
X-15970Y-184374D01*
X-15914Y-184208D01*
X-15872Y-184041D01*
X-15817Y-183902D01*
X-15761Y-183778D01*
X-15720Y-183667D01*
X-15678Y-183570D01*
X-15651Y-183500D01*
X-15623Y-183445D01*
X-15595Y-183417D01*
Y-183403D01*
X-15387Y-183057D01*
X-15151Y-182765D01*
X-14902Y-182502D01*
X-14666Y-182280D01*
X-14458Y-182113D01*
X-14375Y-182044D01*
X-14291Y-181975D01*
X-14222Y-181933D01*
X-14180Y-181905D01*
X-14153Y-181878D01*
X-14139D01*
X-13931Y-181753D01*
X-13695Y-181656D01*
X-13473Y-181573D01*
X-13265Y-181489D01*
X-13071Y-181434D01*
X-12932Y-181392D01*
X-12877Y-181378D01*
X-12835D01*
X-12808Y-181364D01*
X-12794D01*
X-12488Y-181295D01*
X-12170Y-181254D01*
X-11851Y-181212D01*
X-11559Y-181198D01*
X-11296Y-181184D01*
X-11185Y-181170D01*
X-7662D01*
Y-190129D01*
D02*
G37*
G36*
X-22002Y-183362D02*
X-21836Y-183375D01*
X-21669Y-183417D01*
X-21517Y-183445D01*
X-21392Y-183486D01*
X-21281Y-183528D01*
X-21226Y-183542D01*
X-21198Y-183556D01*
X-20990Y-183653D01*
X-20782Y-183778D01*
X-20574Y-183902D01*
X-20380Y-184041D01*
X-20213Y-184166D01*
X-20088Y-184277D01*
X-20033Y-184319D01*
X-19991Y-184346D01*
X-19977Y-184360D01*
X-19964Y-184374D01*
Y-183375D01*
X-17786D01*
Y-190129D01*
X-19964D01*
Y-185622D01*
X-20255Y-185525D01*
X-20380Y-185483D01*
X-20491Y-185456D01*
X-20588Y-185442D01*
X-20657Y-185428D01*
X-20699Y-185414D01*
X-20712D01*
X-20990Y-185373D01*
X-21128Y-185359D01*
X-21253D01*
X-21364Y-185345D01*
X-21697D01*
X-21864Y-185359D01*
X-21933D01*
X-21988Y-185373D01*
X-22044D01*
X-22155Y-185386D01*
X-22238Y-185400D01*
X-22321D01*
X-22377Y-185414D01*
X-22432Y-185428D01*
X-22460D01*
X-22488Y-185442D01*
X-22682D01*
Y-183375D01*
X-22599Y-183362D01*
X-22418D01*
X-22321Y-183348D01*
X-22169D01*
X-22002Y-183362D01*
D02*
G37*
G36*
X-32057Y-190129D02*
X-35968D01*
X-36314Y-190116D01*
X-36633Y-190102D01*
X-36897Y-190074D01*
X-37133Y-190046D01*
X-37327Y-190018D01*
X-37466Y-189991D01*
X-37507Y-189977D01*
X-37549Y-189963D01*
X-37576D01*
X-37812Y-189894D01*
X-38034Y-189810D01*
X-38228Y-189713D01*
X-38395Y-189616D01*
X-38547Y-189533D01*
X-38644Y-189478D01*
X-38714Y-189422D01*
X-38741Y-189408D01*
X-38908Y-189270D01*
X-39046Y-189131D01*
X-39171Y-188992D01*
X-39268Y-188853D01*
X-39352Y-188743D01*
X-39421Y-188645D01*
X-39449Y-188590D01*
X-39462Y-188562D01*
X-39546Y-188368D01*
X-39615Y-188160D01*
X-39657Y-187966D01*
X-39698Y-187786D01*
X-39712Y-187633D01*
X-39726Y-187508D01*
Y-187425D01*
Y-187411D01*
Y-187397D01*
X-39698Y-187078D01*
X-39643Y-186787D01*
X-39560Y-186537D01*
X-39462Y-186343D01*
X-39365Y-186177D01*
X-39282Y-186052D01*
X-39227Y-185983D01*
X-39199Y-185955D01*
X-38991Y-185761D01*
X-38769Y-185608D01*
X-38533Y-185483D01*
X-38312Y-185386D01*
X-38117Y-185317D01*
X-37951Y-185262D01*
X-37895Y-185248D01*
X-37854D01*
X-37826Y-185234D01*
X-37812D01*
Y-185178D01*
X-38034Y-185067D01*
X-38228Y-184943D01*
X-38395Y-184804D01*
X-38533Y-184679D01*
X-38644Y-184568D01*
X-38714Y-184485D01*
X-38769Y-184429D01*
X-38783Y-184402D01*
X-38894Y-184208D01*
X-38977Y-184013D01*
X-39046Y-183819D01*
X-39088Y-183639D01*
X-39116Y-183486D01*
X-39130Y-183375D01*
Y-183292D01*
Y-183265D01*
X-39116Y-183057D01*
X-39088Y-182862D01*
X-39046Y-182696D01*
X-39005Y-182557D01*
X-38949Y-182432D01*
X-38908Y-182335D01*
X-38880Y-182280D01*
X-38866Y-182266D01*
X-38769Y-182113D01*
X-38644Y-181975D01*
X-38519Y-181850D01*
X-38395Y-181753D01*
X-38284Y-181670D01*
X-38201Y-181614D01*
X-38145Y-181586D01*
X-38117Y-181573D01*
X-37937Y-181489D01*
X-37757Y-181420D01*
X-37576Y-181365D01*
X-37438Y-181323D01*
X-37299Y-181281D01*
X-37202Y-181268D01*
X-37146Y-181254D01*
X-37119D01*
X-37022Y-181240D01*
X-36911Y-181226D01*
X-36661Y-181198D01*
X-36398Y-181184D01*
X-36134D01*
X-35898Y-181170D01*
X-32057D01*
Y-190129D01*
D02*
G37*
G36*
X-44219Y-183181D02*
X-43914Y-183209D01*
X-43637Y-183251D01*
X-43373Y-183320D01*
X-43138Y-183389D01*
X-42902Y-183473D01*
X-42708Y-183556D01*
X-42514Y-183639D01*
X-42347Y-183736D01*
X-42208Y-183819D01*
X-42084Y-183902D01*
X-41987Y-183972D01*
X-41903Y-184041D01*
X-41848Y-184083D01*
X-41820Y-184111D01*
X-41806Y-184124D01*
X-41640Y-184305D01*
X-41487Y-184513D01*
X-41363Y-184721D01*
X-41252Y-184943D01*
X-41154Y-185165D01*
X-41071Y-185373D01*
X-41002Y-185594D01*
X-40960Y-185802D01*
X-40919Y-185997D01*
X-40891Y-186177D01*
X-40863Y-186343D01*
X-40849Y-186482D01*
X-40835Y-186593D01*
Y-186690D01*
Y-186745D01*
Y-186759D01*
X-40849Y-187064D01*
X-40877Y-187356D01*
X-40919Y-187619D01*
X-40988Y-187869D01*
X-41057Y-188105D01*
X-41141Y-188326D01*
X-41238Y-188521D01*
X-41321Y-188687D01*
X-41418Y-188853D01*
X-41501Y-188992D01*
X-41584Y-189103D01*
X-41654Y-189200D01*
X-41723Y-189283D01*
X-41765Y-189339D01*
X-41792Y-189367D01*
X-41806Y-189380D01*
X-42000Y-189547D01*
X-42208Y-189699D01*
X-42417Y-189824D01*
X-42638Y-189935D01*
X-42874Y-190032D01*
X-43096Y-190102D01*
X-43318Y-190171D01*
X-43540Y-190213D01*
X-43748Y-190254D01*
X-43928Y-190282D01*
X-44095Y-190310D01*
X-44247Y-190324D01*
X-44372Y-190337D01*
X-44538D01*
X-44857Y-190324D01*
X-45162Y-190296D01*
X-45440Y-190254D01*
X-45703Y-190185D01*
X-45939Y-190116D01*
X-46161Y-190032D01*
X-46369Y-189949D01*
X-46549Y-189852D01*
X-46716Y-189769D01*
X-46854Y-189686D01*
X-46979Y-189602D01*
X-47076Y-189533D01*
X-47160Y-189464D01*
X-47215Y-189422D01*
X-47243Y-189394D01*
X-47257Y-189380D01*
X-47437Y-189186D01*
X-47575Y-188992D01*
X-47714Y-188784D01*
X-47825Y-188562D01*
X-47922Y-188354D01*
X-48005Y-188132D01*
X-48061Y-187910D01*
X-48116Y-187716D01*
X-48158Y-187522D01*
X-48186Y-187342D01*
X-48214Y-187175D01*
X-48227Y-187037D01*
X-48241Y-186912D01*
Y-186829D01*
Y-186773D01*
Y-186759D01*
X-48227Y-186454D01*
X-48200Y-186163D01*
X-48158Y-185900D01*
X-48089Y-185650D01*
X-48019Y-185414D01*
X-47936Y-185192D01*
X-47853Y-184998D01*
X-47756Y-184818D01*
X-47673Y-184665D01*
X-47575Y-184527D01*
X-47492Y-184416D01*
X-47423Y-184319D01*
X-47354Y-184235D01*
X-47312Y-184180D01*
X-47284Y-184152D01*
X-47270Y-184138D01*
X-47076Y-183972D01*
X-46868Y-183819D01*
X-46660Y-183694D01*
X-46438Y-183570D01*
X-46203Y-183486D01*
X-45981Y-183403D01*
X-45759Y-183334D01*
X-45537Y-183292D01*
X-45343Y-183251D01*
X-45149Y-183223D01*
X-44982Y-183195D01*
X-44830Y-183181D01*
X-44705Y-183167D01*
X-44538D01*
X-44219Y-183181D01*
D02*
G37*
G36*
X29706Y-215706D02*
X30011Y-215720D01*
X30303Y-215748D01*
X30552Y-215789D01*
X30774Y-215831D01*
X30857Y-215845D01*
X30926Y-215858D01*
X30996Y-215872D01*
X31037D01*
X31065Y-215886D01*
X31079D01*
X31370Y-215956D01*
X31620Y-216025D01*
X31842Y-216080D01*
X32008Y-216136D01*
X32147Y-216191D01*
X32244Y-216233D01*
X32313Y-216247D01*
X32327Y-216261D01*
Y-218244D01*
X32147D01*
X31745Y-218008D01*
X31551Y-217911D01*
X31384Y-217828D01*
X31232Y-217759D01*
X31107Y-217703D01*
X31037Y-217675D01*
X31010Y-217661D01*
X30788Y-217578D01*
X30566Y-217523D01*
X30372Y-217481D01*
X30192Y-217453D01*
X30053Y-217439D01*
X29942Y-217426D01*
X29845D01*
X29581Y-217439D01*
X29346Y-217481D01*
X29151Y-217537D01*
X28999Y-217592D01*
X28874Y-217661D01*
X28777Y-217717D01*
X28721Y-217759D01*
X28708Y-217772D01*
X28569Y-217911D01*
X28472Y-218064D01*
X28403Y-218216D01*
X28361Y-218369D01*
X28319Y-218507D01*
X28305Y-218618D01*
Y-218688D01*
Y-218701D01*
Y-218715D01*
X28319Y-218909D01*
X28361Y-219090D01*
X28403Y-219270D01*
X28458Y-219423D01*
X28527Y-219561D01*
X28569Y-219658D01*
X28610Y-219728D01*
X28624Y-219755D01*
X28749Y-219950D01*
X28916Y-220158D01*
X29082Y-220366D01*
X29248Y-220560D01*
X29401Y-220726D01*
X29526Y-220851D01*
X29581Y-220907D01*
X29623Y-220948D01*
X29637Y-220962D01*
X29651Y-220976D01*
X29845Y-221170D01*
X30053Y-221364D01*
X30275Y-221544D01*
X30483Y-221725D01*
X30663Y-221877D01*
X30816Y-222002D01*
X30871Y-222044D01*
X30913Y-222085D01*
X30940Y-222099D01*
X30954Y-222113D01*
X31259Y-222349D01*
X31551Y-222585D01*
X31814Y-222793D01*
X32064Y-222973D01*
X32272Y-223125D01*
X32355Y-223195D01*
X32424Y-223250D01*
X32480Y-223292D01*
X32521Y-223320D01*
X32549Y-223334D01*
X32563Y-223347D01*
Y-224831D01*
X25518D01*
Y-223112D01*
X29554D01*
X29457Y-223042D01*
X29332Y-222945D01*
X29068Y-222751D01*
X28957Y-222668D01*
X28846Y-222598D01*
X28791Y-222543D01*
X28763Y-222529D01*
X28361Y-222196D01*
X28167Y-222044D01*
X28000Y-221905D01*
X27862Y-221780D01*
X27764Y-221683D01*
X27695Y-221628D01*
X27668Y-221600D01*
X27362Y-221295D01*
X27099Y-221004D01*
X26877Y-220740D01*
X26683Y-220504D01*
X26544Y-220296D01*
X26447Y-220144D01*
X26405Y-220088D01*
X26378Y-220047D01*
X26364Y-220033D01*
Y-220019D01*
X26225Y-219728D01*
X26114Y-219450D01*
X26045Y-219173D01*
X25989Y-218923D01*
X25962Y-218715D01*
X25948Y-218632D01*
X25934Y-218549D01*
Y-218493D01*
Y-218452D01*
Y-218424D01*
Y-218410D01*
X25948Y-218174D01*
X25975Y-217953D01*
X26017Y-217745D01*
X26073Y-217550D01*
X26142Y-217370D01*
X26211Y-217204D01*
X26295Y-217051D01*
X26378Y-216912D01*
X26461Y-216801D01*
X26544Y-216691D01*
X26614Y-216607D01*
X26683Y-216524D01*
X26738Y-216469D01*
X26780Y-216427D01*
X26808Y-216413D01*
X26821Y-216399D01*
X27002Y-216275D01*
X27182Y-216164D01*
X27390Y-216066D01*
X27598Y-215983D01*
X28028Y-215858D01*
X28444Y-215775D01*
X28638Y-215748D01*
X28819Y-215734D01*
X28985Y-215720D01*
X29124Y-215706D01*
X29235Y-215692D01*
X29401D01*
X29706Y-215706D01*
D02*
G37*
G36*
X12177D02*
X12482Y-215720D01*
X12773Y-215748D01*
X13022Y-215789D01*
X13244Y-215831D01*
X13327Y-215845D01*
X13397Y-215858D01*
X13466Y-215872D01*
X13508D01*
X13536Y-215886D01*
X13549D01*
X13841Y-215956D01*
X14090Y-216025D01*
X14312Y-216080D01*
X14479Y-216136D01*
X14617Y-216191D01*
X14714Y-216233D01*
X14784Y-216247D01*
X14798Y-216261D01*
Y-218244D01*
X14617D01*
X14215Y-218008D01*
X14021Y-217911D01*
X13855Y-217828D01*
X13702Y-217759D01*
X13577Y-217703D01*
X13508Y-217675D01*
X13480Y-217661D01*
X13258Y-217578D01*
X13036Y-217523D01*
X12842Y-217481D01*
X12662Y-217453D01*
X12523Y-217439D01*
X12412Y-217426D01*
X12315D01*
X12052Y-217439D01*
X11816Y-217481D01*
X11622Y-217537D01*
X11469Y-217592D01*
X11344Y-217661D01*
X11247Y-217717D01*
X11192Y-217759D01*
X11178Y-217772D01*
X11039Y-217911D01*
X10942Y-218064D01*
X10873Y-218216D01*
X10831Y-218369D01*
X10790Y-218507D01*
X10776Y-218618D01*
Y-218688D01*
Y-218701D01*
Y-218715D01*
X10790Y-218909D01*
X10831Y-219090D01*
X10873Y-219270D01*
X10928Y-219423D01*
X10998Y-219561D01*
X11039Y-219658D01*
X11081Y-219728D01*
X11095Y-219755D01*
X11220Y-219950D01*
X11386Y-220158D01*
X11552Y-220366D01*
X11719Y-220560D01*
X11871Y-220726D01*
X11996Y-220851D01*
X12052Y-220907D01*
X12093Y-220948D01*
X12107Y-220962D01*
X12121Y-220976D01*
X12315Y-221170D01*
X12523Y-221364D01*
X12745Y-221544D01*
X12953Y-221725D01*
X13133Y-221877D01*
X13286Y-222002D01*
X13341Y-222044D01*
X13383Y-222085D01*
X13411Y-222099D01*
X13425Y-222113D01*
X13730Y-222349D01*
X14021Y-222585D01*
X14284Y-222793D01*
X14534Y-222973D01*
X14742Y-223125D01*
X14825Y-223195D01*
X14895Y-223250D01*
X14950Y-223292D01*
X14992Y-223320D01*
X15020Y-223334D01*
X15033Y-223347D01*
Y-224831D01*
X7988D01*
Y-223112D01*
X12024D01*
X11927Y-223042D01*
X11802Y-222945D01*
X11538Y-222751D01*
X11428Y-222668D01*
X11317Y-222598D01*
X11261Y-222543D01*
X11233Y-222529D01*
X10831Y-222196D01*
X10637Y-222044D01*
X10471Y-221905D01*
X10332Y-221780D01*
X10235Y-221683D01*
X10165Y-221628D01*
X10138Y-221600D01*
X9833Y-221295D01*
X9569Y-221004D01*
X9347Y-220740D01*
X9153Y-220504D01*
X9014Y-220296D01*
X8917Y-220144D01*
X8876Y-220088D01*
X8848Y-220047D01*
X8834Y-220033D01*
Y-220019D01*
X8695Y-219728D01*
X8584Y-219450D01*
X8515Y-219173D01*
X8460Y-218923D01*
X8432Y-218715D01*
X8418Y-218632D01*
X8404Y-218549D01*
Y-218493D01*
Y-218452D01*
Y-218424D01*
Y-218410D01*
X8418Y-218174D01*
X8446Y-217953D01*
X8487Y-217745D01*
X8543Y-217550D01*
X8612Y-217370D01*
X8682Y-217204D01*
X8765Y-217051D01*
X8848Y-216912D01*
X8931Y-216801D01*
X9014Y-216691D01*
X9084Y-216607D01*
X9153Y-216524D01*
X9209Y-216469D01*
X9250Y-216427D01*
X9278Y-216413D01*
X9292Y-216399D01*
X9472Y-216275D01*
X9652Y-216164D01*
X9860Y-216066D01*
X10069Y-215983D01*
X10498Y-215858D01*
X10914Y-215775D01*
X11109Y-215748D01*
X11289Y-215734D01*
X11455Y-215720D01*
X11594Y-215706D01*
X11705Y-215692D01*
X11871D01*
X12177Y-215706D01*
D02*
G37*
G36*
X-2052Y-221711D02*
X-6643D01*
Y-219977D01*
X-2052D01*
Y-221711D01*
D02*
G37*
G36*
X-29914Y-217883D02*
X-29637Y-217897D01*
X-29387Y-217939D01*
X-29165Y-217966D01*
X-28971Y-218008D01*
X-28832Y-218050D01*
X-28777Y-218064D01*
X-28735D01*
X-28721Y-218077D01*
X-28708D01*
X-28444Y-218161D01*
X-28208Y-218258D01*
X-27986Y-218355D01*
X-27806Y-218466D01*
X-27654Y-218549D01*
X-27543Y-218632D01*
X-27473Y-218688D01*
X-27446Y-218701D01*
X-27251Y-218882D01*
X-27071Y-219076D01*
X-26919Y-219270D01*
X-26794Y-219450D01*
X-26683Y-219603D01*
X-26614Y-219742D01*
X-26572Y-219825D01*
X-26558Y-219839D01*
Y-219853D01*
X-26461Y-220116D01*
X-26378Y-220394D01*
X-26322Y-220671D01*
X-26295Y-220921D01*
X-26267Y-221142D01*
Y-221239D01*
X-26253Y-221323D01*
Y-221378D01*
Y-221434D01*
Y-221461D01*
Y-221475D01*
X-26267Y-221808D01*
X-26295Y-222099D01*
X-26350Y-222377D01*
X-26405Y-222598D01*
X-26447Y-222793D01*
X-26502Y-222931D01*
X-26516Y-222987D01*
X-26530Y-223029D01*
X-26544Y-223042D01*
Y-223056D01*
X-26669Y-223292D01*
X-26794Y-223514D01*
X-26932Y-223694D01*
X-27071Y-223847D01*
X-27196Y-223985D01*
X-27293Y-224069D01*
X-27348Y-224138D01*
X-27376Y-224152D01*
X-27584Y-224304D01*
X-27806Y-224443D01*
X-28014Y-224554D01*
X-28208Y-224637D01*
X-28389Y-224720D01*
X-28513Y-224762D01*
X-28569Y-224776D01*
X-28610Y-224790D01*
X-28624Y-224804D01*
X-28638D01*
X-28916Y-224873D01*
X-29207Y-224928D01*
X-29470Y-224956D01*
X-29720Y-224984D01*
X-29942Y-224998D01*
X-30039Y-225012D01*
X-30510D01*
X-30732Y-224984D01*
X-30940Y-224970D01*
X-31121Y-224942D01*
X-31273Y-224915D01*
X-31384Y-224901D01*
X-31453Y-224873D01*
X-31481D01*
X-31689Y-224818D01*
X-31897Y-224762D01*
X-32078Y-224693D01*
X-32230Y-224637D01*
X-32369Y-224582D01*
X-32480Y-224540D01*
X-32535Y-224512D01*
X-32563Y-224499D01*
Y-222640D01*
X-32244D01*
X-32147Y-222737D01*
X-32050Y-222820D01*
X-31981Y-222876D01*
X-31967Y-222904D01*
X-31953D01*
X-31828Y-223001D01*
X-31717Y-223070D01*
X-31634Y-223125D01*
X-31620Y-223153D01*
X-31606D01*
X-31426Y-223237D01*
X-31246Y-223306D01*
X-31162Y-223334D01*
X-31107Y-223361D01*
X-31065Y-223375D01*
X-31051D01*
X-30802Y-223417D01*
X-30677Y-223444D01*
X-30566D01*
X-30469Y-223458D01*
X-30330D01*
X-30011Y-223431D01*
X-29748Y-223375D01*
X-29512Y-223306D01*
X-29318Y-223209D01*
X-29165Y-223112D01*
X-29054Y-223042D01*
X-28999Y-222987D01*
X-28971Y-222959D01*
X-28819Y-222751D01*
X-28694Y-222515D01*
X-28610Y-222266D01*
X-28555Y-222030D01*
X-28527Y-221808D01*
X-28513Y-221725D01*
Y-221642D01*
X-28500Y-221572D01*
Y-221517D01*
Y-221489D01*
Y-221475D01*
X-28513Y-221142D01*
X-28569Y-220837D01*
X-28638Y-220588D01*
X-28735Y-220366D01*
X-28819Y-220199D01*
X-28888Y-220075D01*
X-28943Y-220005D01*
X-28957Y-219977D01*
X-29151Y-219797D01*
X-29359Y-219658D01*
X-29581Y-219561D01*
X-29803Y-219492D01*
X-29997Y-219450D01*
X-30150Y-219436D01*
X-30205Y-219423D01*
X-30289D01*
X-30566Y-219436D01*
X-30677Y-219450D01*
X-30774Y-219464D01*
X-30857Y-219492D01*
X-30913Y-219506D01*
X-30954Y-219520D01*
X-30968D01*
X-31176Y-219589D01*
X-31343Y-219658D01*
X-31412Y-219686D01*
X-31467Y-219700D01*
X-31495Y-219728D01*
X-31509D01*
X-31689Y-219825D01*
X-31828Y-219922D01*
X-31870Y-219963D01*
X-31911Y-219991D01*
X-31925Y-220005D01*
X-31939Y-220019D01*
X-32064Y-220116D01*
X-32161Y-220185D01*
X-32216Y-220241D01*
X-32244Y-220255D01*
X-32563D01*
Y-218410D01*
X-32175Y-218244D01*
X-31994Y-218188D01*
X-31828Y-218133D01*
X-31675Y-218077D01*
X-31565Y-218050D01*
X-31495Y-218022D01*
X-31467D01*
X-31246Y-217966D01*
X-31024Y-217939D01*
X-30802Y-217911D01*
X-30608Y-217883D01*
X-30441D01*
X-30316Y-217869D01*
X-30192D01*
X-29914Y-217883D01*
D02*
G37*
G36*
X-21579D02*
X-21274Y-217911D01*
X-20983Y-217966D01*
X-20719Y-218022D01*
X-20470Y-218091D01*
X-20234Y-218174D01*
X-20026Y-218272D01*
X-19832Y-218355D01*
X-19665Y-218452D01*
X-19513Y-218549D01*
X-19388Y-218632D01*
X-19291Y-218701D01*
X-19208Y-218757D01*
X-19138Y-218813D01*
X-19111Y-218840D01*
X-19097Y-218854D01*
X-18916Y-219048D01*
X-18764Y-219242D01*
X-18625Y-219464D01*
X-18500Y-219672D01*
X-18403Y-219894D01*
X-18320Y-220116D01*
X-18251Y-220338D01*
X-18195Y-220546D01*
X-18154Y-220740D01*
X-18126Y-220921D01*
X-18098Y-221087D01*
X-18084Y-221226D01*
Y-221336D01*
X-18070Y-221434D01*
Y-221489D01*
Y-221503D01*
X-18084Y-221808D01*
X-18112Y-222099D01*
X-18168Y-222377D01*
X-18237Y-222626D01*
X-18320Y-222862D01*
X-18417Y-223070D01*
X-18514Y-223264D01*
X-18611Y-223444D01*
X-18708Y-223597D01*
X-18806Y-223736D01*
X-18903Y-223847D01*
X-18986Y-223944D01*
X-19055Y-224013D01*
X-19111Y-224069D01*
X-19138Y-224096D01*
X-19152Y-224110D01*
X-19360Y-224263D01*
X-19596Y-224401D01*
X-19846Y-224526D01*
X-20095Y-224637D01*
X-20359Y-224720D01*
X-20622Y-224790D01*
X-21122Y-224901D01*
X-21357Y-224942D01*
X-21565Y-224970D01*
X-21773Y-224984D01*
X-21940Y-224998D01*
X-22078Y-225012D01*
X-22564D01*
X-22827Y-224984D01*
X-23077Y-224970D01*
X-23285Y-224942D01*
X-23465Y-224915D01*
X-23604Y-224901D01*
X-23687Y-224873D01*
X-23715D01*
X-23965Y-224818D01*
X-24200Y-224748D01*
X-24436Y-224693D01*
X-24658Y-224623D01*
X-24838Y-224554D01*
X-24977Y-224499D01*
X-25032Y-224485D01*
X-25074Y-224471D01*
X-25088Y-224457D01*
X-25102D01*
Y-222710D01*
X-24852D01*
X-24700Y-222820D01*
X-24533Y-222917D01*
X-24367Y-223015D01*
X-24200Y-223084D01*
X-24048Y-223153D01*
X-23937Y-223209D01*
X-23854Y-223237D01*
X-23840Y-223250D01*
X-23826D01*
X-23590Y-223334D01*
X-23354Y-223389D01*
X-23133Y-223444D01*
X-22924Y-223472D01*
X-22758Y-223486D01*
X-22619Y-223500D01*
X-22508D01*
X-22120Y-223486D01*
X-21787Y-223431D01*
X-21510Y-223361D01*
X-21274Y-223292D01*
X-21094Y-223209D01*
X-20969Y-223153D01*
X-20886Y-223098D01*
X-20858Y-223084D01*
X-20678Y-222917D01*
X-20525Y-222723D01*
X-20428Y-222515D01*
X-20359Y-222321D01*
X-20303Y-222141D01*
X-20276Y-221988D01*
Y-221947D01*
X-20262Y-221905D01*
Y-221877D01*
Y-221863D01*
X-25227D01*
Y-221115D01*
X-25213Y-220823D01*
X-25185Y-220560D01*
X-25143Y-220310D01*
X-25102Y-220075D01*
X-25032Y-219867D01*
X-24963Y-219672D01*
X-24894Y-219492D01*
X-24811Y-219326D01*
X-24727Y-219187D01*
X-24658Y-219062D01*
X-24589Y-218951D01*
X-24519Y-218868D01*
X-24478Y-218799D01*
X-24436Y-218757D01*
X-24408Y-218729D01*
X-24395Y-218715D01*
X-24228Y-218563D01*
X-24048Y-218438D01*
X-23854Y-218327D01*
X-23660Y-218230D01*
X-23451Y-218147D01*
X-23243Y-218077D01*
X-22841Y-217980D01*
X-22647Y-217939D01*
X-22481Y-217911D01*
X-22314Y-217897D01*
X-22189Y-217883D01*
X-22065Y-217869D01*
X-21912D01*
X-21579Y-217883D01*
D02*
G37*
G36*
X3647Y-215983D02*
X3675Y-216094D01*
X3703Y-216205D01*
X3744Y-216288D01*
X3772Y-216358D01*
X3800Y-216413D01*
X3814Y-216441D01*
X3828Y-216455D01*
X3897Y-216538D01*
X3966Y-216621D01*
X4119Y-216732D01*
X4174Y-216788D01*
X4230Y-216815D01*
X4272Y-216829D01*
X4285Y-216843D01*
X4493Y-216926D01*
X4715Y-216982D01*
X4812Y-216996D01*
X4882Y-217010D01*
X4937Y-217023D01*
X4951D01*
X5242Y-217051D01*
X5381D01*
X5506Y-217065D01*
X5769D01*
Y-218521D01*
X3883D01*
Y-223264D01*
X5769D01*
Y-224831D01*
X-208D01*
Y-223264D01*
X1637D01*
Y-215845D01*
X3634D01*
X3647Y-215983D01*
D02*
G37*
G36*
X-8446Y-224831D02*
X-11594D01*
X-11982Y-224818D01*
X-12343Y-224804D01*
X-12662Y-224776D01*
X-12925Y-224748D01*
X-13050Y-224734D01*
X-13147Y-224720D01*
X-13244D01*
X-13314Y-224706D01*
X-13369Y-224693D01*
X-13411Y-224679D01*
X-13452D01*
X-13744Y-224610D01*
X-14007Y-224526D01*
X-14257Y-224429D01*
X-14465Y-224346D01*
X-14645Y-224263D01*
X-14784Y-224193D01*
X-14867Y-224138D01*
X-14881Y-224124D01*
X-14895D01*
X-15214Y-223902D01*
X-15491Y-223666D01*
X-15741Y-223417D01*
X-15949Y-223167D01*
X-16115Y-222945D01*
X-16184Y-222862D01*
X-16240Y-222779D01*
X-16281Y-222710D01*
X-16309Y-222654D01*
X-16337Y-222626D01*
Y-222612D01*
X-16531Y-222224D01*
X-16670Y-221836D01*
X-16781Y-221461D01*
X-16850Y-221115D01*
X-16878Y-220962D01*
X-16892Y-220809D01*
X-16906Y-220685D01*
Y-220574D01*
X-16919Y-220490D01*
Y-220421D01*
Y-220380D01*
Y-220366D01*
X-16892Y-219894D01*
X-16836Y-219464D01*
X-16753Y-219076D01*
X-16698Y-218909D01*
X-16656Y-218743D01*
X-16601Y-218604D01*
X-16545Y-218480D01*
X-16503Y-218369D01*
X-16462Y-218272D01*
X-16434Y-218202D01*
X-16406Y-218147D01*
X-16379Y-218119D01*
Y-218105D01*
X-16171Y-217759D01*
X-15935Y-217467D01*
X-15685Y-217204D01*
X-15449Y-216982D01*
X-15241Y-216815D01*
X-15158Y-216746D01*
X-15075Y-216677D01*
X-15006Y-216635D01*
X-14964Y-216607D01*
X-14936Y-216580D01*
X-14922D01*
X-14714Y-216455D01*
X-14479Y-216358D01*
X-14257Y-216275D01*
X-14049Y-216191D01*
X-13855Y-216136D01*
X-13716Y-216094D01*
X-13660Y-216080D01*
X-13619D01*
X-13591Y-216066D01*
X-13577D01*
X-13272Y-215997D01*
X-12953Y-215956D01*
X-12634Y-215914D01*
X-12343Y-215900D01*
X-12079Y-215886D01*
X-11968Y-215872D01*
X-8446D01*
Y-224831D01*
D02*
G37*
G36*
X20886Y-215706D02*
X21219Y-215734D01*
X21510Y-215789D01*
X21746Y-215845D01*
X21954Y-215900D01*
X22037Y-215928D01*
X22106Y-215956D01*
X22162Y-215969D01*
X22203Y-215983D01*
X22217Y-215997D01*
X22231D01*
X22481Y-216122D01*
X22703Y-216261D01*
X22911Y-216399D01*
X23077Y-216538D01*
X23202Y-216677D01*
X23299Y-216774D01*
X23354Y-216843D01*
X23382Y-216871D01*
X23535Y-217107D01*
X23673Y-217356D01*
X23784Y-217592D01*
X23867Y-217828D01*
X23951Y-218022D01*
X23992Y-218188D01*
X24006Y-218244D01*
X24020Y-218286D01*
X24034Y-218313D01*
Y-218327D01*
X24103Y-218660D01*
X24145Y-219007D01*
X24186Y-219340D01*
X24200Y-219658D01*
X24214Y-219811D01*
Y-219936D01*
X24228Y-220061D01*
Y-220158D01*
Y-220241D01*
Y-220296D01*
Y-220338D01*
Y-220352D01*
X24214Y-220768D01*
X24200Y-221142D01*
X24173Y-221489D01*
X24131Y-221780D01*
X24117Y-221905D01*
X24089Y-222030D01*
X24076Y-222127D01*
X24062Y-222210D01*
X24048Y-222280D01*
Y-222321D01*
X24034Y-222349D01*
Y-222363D01*
X23951Y-222682D01*
X23854Y-222959D01*
X23743Y-223209D01*
X23646Y-223431D01*
X23549Y-223597D01*
X23465Y-223722D01*
X23410Y-223805D01*
X23396Y-223819D01*
Y-223833D01*
X23216Y-224041D01*
X23022Y-224221D01*
X22841Y-224374D01*
X22647Y-224499D01*
X22494Y-224596D01*
X22356Y-224665D01*
X22273Y-224706D01*
X22259Y-224720D01*
X22245D01*
X21967Y-224818D01*
X21676Y-224887D01*
X21385Y-224942D01*
X21122Y-224970D01*
X20886Y-224998D01*
X20775D01*
X20692Y-225012D01*
X20525D01*
X20165Y-224998D01*
X19832Y-224970D01*
X19541Y-224915D01*
X19291Y-224859D01*
X19097Y-224818D01*
X19014Y-224790D01*
X18944Y-224762D01*
X18889Y-224748D01*
X18847Y-224734D01*
X18833Y-224720D01*
X18819D01*
X18570Y-224596D01*
X18334Y-224457D01*
X18140Y-224318D01*
X17973Y-224179D01*
X17849Y-224041D01*
X17752Y-223944D01*
X17682Y-223874D01*
X17668Y-223847D01*
X17516Y-223611D01*
X17391Y-223375D01*
X17280Y-223125D01*
X17183Y-222890D01*
X17114Y-222682D01*
X17072Y-222529D01*
X17058Y-222460D01*
X17044Y-222418D01*
X17030Y-222390D01*
Y-222377D01*
X16961Y-222030D01*
X16906Y-221683D01*
X16878Y-221350D01*
X16850Y-221031D01*
X16836Y-220893D01*
Y-220754D01*
X16822Y-220643D01*
Y-220546D01*
Y-220463D01*
Y-220407D01*
Y-220366D01*
Y-220352D01*
X16836Y-219950D01*
X16850Y-219561D01*
X16892Y-219228D01*
X16919Y-218937D01*
X16947Y-218813D01*
X16961Y-218701D01*
X16975Y-218604D01*
X17003Y-218521D01*
X17017Y-218452D01*
Y-218410D01*
X17030Y-218382D01*
Y-218369D01*
X17114Y-218050D01*
X17211Y-217772D01*
X17322Y-217523D01*
X17419Y-217315D01*
X17516Y-217148D01*
X17599Y-217023D01*
X17655Y-216940D01*
X17668Y-216912D01*
X17849Y-216691D01*
X18029Y-216510D01*
X18223Y-216358D01*
X18403Y-216219D01*
X18556Y-216122D01*
X18695Y-216053D01*
X18778Y-216011D01*
X18792Y-215997D01*
X18806D01*
X19083Y-215900D01*
X19360Y-215817D01*
X19651Y-215761D01*
X19929Y-215734D01*
X20165Y-215706D01*
X20262D01*
X20359Y-215692D01*
X20525D01*
X20886Y-215706D01*
D02*
G37*
%LPC*%
G36*
X79325Y161171D02*
X72063D01*
Y160566D01*
X70247D01*
Y159960D01*
X69036D01*
Y159355D01*
X67826D01*
Y158750D01*
X67221D01*
Y158145D01*
X66616D01*
Y157540D01*
X65405D01*
Y156329D01*
X64800D01*
Y155724D01*
X64194D01*
Y155119D01*
X63589D01*
Y153908D01*
X62984D01*
Y152698D01*
X62379D01*
Y150882D01*
X61774D01*
Y145435D01*
Y144830D01*
Y143619D01*
X62379D01*
Y141804D01*
X62984D01*
Y140593D01*
X63589D01*
Y139382D01*
X64194D01*
Y138777D01*
X64800D01*
Y138172D01*
X65405D01*
Y137567D01*
X66010D01*
Y136962D01*
X66616D01*
Y136356D01*
X67221D01*
Y135751D01*
X68431D01*
Y135146D01*
X69036D01*
Y134541D01*
X70852D01*
Y133935D01*
X72668D01*
Y133330D01*
X78720D01*
Y133935D01*
X80536D01*
Y134541D01*
X82352D01*
Y135146D01*
X82957D01*
Y135751D01*
X84167D01*
Y136356D01*
X84773D01*
Y136962D01*
X85378D01*
Y137567D01*
X85983D01*
Y138172D01*
X86588D01*
Y138777D01*
X87193D01*
Y139988D01*
X87799D01*
Y140593D01*
X88404D01*
Y141804D01*
X89009D01*
Y143619D01*
X89614D01*
Y150882D01*
X89009D01*
Y152698D01*
X88404D01*
Y153908D01*
X87799D01*
Y155119D01*
X87193D01*
Y155724D01*
X86588D01*
Y156329D01*
X85983D01*
Y156934D01*
X85378D01*
Y157540D01*
X84773D01*
Y158145D01*
X84167D01*
Y158750D01*
X83562D01*
Y159355D01*
X82352D01*
Y159960D01*
X81141D01*
Y160566D01*
X79325D01*
Y161171D01*
D02*
G37*
G36*
X110192Y109726D02*
X-13881D01*
Y89148D01*
X11539D01*
Y88543D01*
X12750D01*
Y87938D01*
X13355D01*
Y87332D01*
X13960D01*
Y85517D01*
X14565D01*
Y71596D01*
X117455D01*
Y102463D01*
X116850D01*
Y103069D01*
X116245D01*
Y103674D01*
X115639D01*
Y104279D01*
X115034D01*
Y104884D01*
X114429D01*
Y105489D01*
X113824D01*
Y106095D01*
X113218D01*
Y106700D01*
X112613D01*
Y107305D01*
X112008D01*
Y107910D01*
X111403D01*
Y108516D01*
X110798D01*
Y109121D01*
X110192D01*
Y109726D01*
D02*
G37*
G36*
X-22959D02*
X-108903D01*
Y109121D01*
X-109508D01*
Y108516D01*
X-110113D01*
Y107910D01*
X-110718D01*
Y107305D01*
X-111323D01*
Y106700D01*
X-111929D01*
Y106095D01*
X-112534D01*
Y105489D01*
X-113139D01*
Y104884D01*
X-113744D01*
Y104279D01*
X-114350D01*
Y103674D01*
X-114955D01*
Y103069D01*
X-115560D01*
Y102463D01*
X-116165D01*
Y71596D01*
X-51405D01*
Y72201D01*
Y86122D01*
X-50800D01*
Y87332D01*
X-50195D01*
Y87938D01*
X-49590D01*
Y88543D01*
X-48379D01*
Y89148D01*
X-22959D01*
Y109726D01*
D02*
G37*
G36*
X5487Y80070D02*
X-42327D01*
Y53439D01*
X5487D01*
Y74622D01*
Y75228D01*
Y80070D01*
D02*
G37*
G36*
X-7828Y44361D02*
X-29012D01*
Y42545D01*
X-28406D01*
Y40729D01*
X-27801D01*
Y38914D01*
X-27196D01*
Y37098D01*
X-26591D01*
Y35887D01*
X-10249D01*
Y37098D01*
X-9644D01*
Y38914D01*
X-9039D01*
Y40729D01*
X-8434D01*
Y42545D01*
X-7828D01*
Y44361D01*
D02*
G37*
G36*
X-51405Y62518D02*
X-65931D01*
Y61912D01*
X-67141D01*
Y61307D01*
X-68352D01*
Y60702D01*
X-69562D01*
Y60097D01*
X-70773D01*
Y59492D01*
X-71983D01*
Y58886D01*
X-72589D01*
Y58281D01*
X-73799D01*
Y57676D01*
X-75009D01*
Y57071D01*
X-75615D01*
Y56465D01*
X-76825D01*
Y55860D01*
X-77430D01*
Y55255D01*
X-78036D01*
Y54650D01*
X-79246D01*
Y54044D01*
X-79851D01*
Y53439D01*
X-80456D01*
Y52834D01*
X-81062D01*
Y52229D01*
X-81667D01*
Y51624D01*
X-82272D01*
Y51018D01*
X-82877D01*
Y50413D01*
X-83483D01*
Y49808D01*
X-84088D01*
Y49203D01*
X-84693D01*
Y47992D01*
X-85298D01*
Y46782D01*
X-85904D01*
Y43150D01*
X-85298D01*
Y41940D01*
X-84693D01*
Y41335D01*
X-84088D01*
Y40124D01*
X-82877D01*
Y39519D01*
X-79246D01*
Y40124D01*
X-77430D01*
Y40729D01*
X-75615D01*
Y41335D01*
X-73799D01*
Y41940D01*
X-71983D01*
Y42545D01*
X-68957D01*
Y43150D01*
X-61694D01*
Y42545D01*
X-59879D01*
Y41940D01*
X-58063D01*
Y41335D01*
X-57458D01*
Y40729D01*
X-56247D01*
Y40124D01*
X-55642D01*
Y39519D01*
X-54431D01*
Y38914D01*
X-53826D01*
Y38308D01*
X-52616D01*
Y37703D01*
X-51405D01*
Y37098D01*
X-50195D01*
Y36493D01*
X-48984D01*
Y35887D01*
X-42327D01*
Y36493D01*
X-41116D01*
Y37098D01*
X-40511D01*
Y37703D01*
X-39906D01*
Y38308D01*
X-39301D01*
Y38914D01*
X-38695D01*
Y39519D01*
X-38090D01*
Y41335D01*
Y41940D01*
Y42545D01*
X-38695D01*
Y44361D01*
X-47774D01*
Y44966D01*
X-48984D01*
Y45571D01*
X-50195D01*
Y46782D01*
X-50800D01*
Y47992D01*
X-51405D01*
Y62518D01*
D02*
G37*
G36*
X-4802Y-24636D02*
X-8434D01*
Y-25241D01*
X-9039D01*
Y-25847D01*
X-9644D01*
Y-26452D01*
X-10249D01*
Y-27057D01*
X-10855D01*
Y-27662D01*
X-11460D01*
Y-28267D01*
X-12670D01*
Y-28873D01*
X-13276D01*
Y-29478D01*
X-13881D01*
Y-30083D01*
X-14486D01*
Y-30688D01*
X-15091D01*
Y-31294D01*
X-15696D01*
Y-31899D01*
X-16302D01*
Y-32504D01*
X-17512D01*
Y-33109D01*
X-18117D01*
Y-33714D01*
X-18723D01*
Y-34320D01*
X-19328D01*
Y-34925D01*
X-19933D01*
Y-35530D01*
X-20538D01*
Y-36135D01*
X-21144D01*
Y-36741D01*
X-22354D01*
Y-37346D01*
X-22959D01*
Y-37951D01*
X-23565D01*
Y-38556D01*
X-24170D01*
Y-39162D01*
X-24775D01*
Y-39767D01*
X-25380D01*
Y-52477D01*
X26670D01*
Y-39162D01*
X26065D01*
Y-38556D01*
X25459D01*
Y-37346D01*
X24854D01*
Y-36741D01*
X24249D01*
Y-36135D01*
X23644D01*
Y-34925D01*
X23039D01*
Y-34320D01*
X22433D01*
Y-33109D01*
X21828D01*
Y-32504D01*
X21223D01*
Y-31899D01*
X20618D01*
Y-30688D01*
X18802D01*
Y-30083D01*
X15776D01*
Y-29478D01*
X13355D01*
Y-28873D01*
X10934D01*
Y-28267D01*
X7908D01*
Y-27662D01*
X5487D01*
Y-27057D01*
X3066D01*
Y-26452D01*
X40D01*
Y-25847D01*
X-2381D01*
Y-25241D01*
X-4802D01*
Y-24636D01*
D02*
G37*
G36*
X50879Y-61555D02*
X-49590D01*
Y-70029D01*
X50879D01*
Y-61555D01*
D02*
G37*
G36*
X-1456Y-121934D02*
X-3234D01*
Y-122379D01*
X-3678D01*
Y-122823D01*
X-4567D01*
Y-123267D01*
X-5456D01*
Y-123712D01*
X-5900D01*
Y-124156D01*
X-6789D01*
Y-124600D01*
X-7677D01*
Y-125045D01*
X-8566D01*
Y-125489D01*
X-9010D01*
Y-125933D01*
X-9899D01*
Y-126378D01*
X-10788D01*
Y-126822D01*
X-11232D01*
Y-127266D01*
X-12121D01*
Y-127711D01*
X-13010D01*
Y-128155D01*
X-13898D01*
Y-128600D01*
Y-129044D01*
Y-129488D01*
Y-129933D01*
Y-130377D01*
Y-130821D01*
Y-131266D01*
Y-131710D01*
Y-132154D01*
Y-132599D01*
Y-133043D01*
Y-133487D01*
Y-133932D01*
X-13454D01*
Y-133487D01*
X-12565D01*
Y-133043D01*
X-11677D01*
Y-132599D01*
X-11232D01*
Y-132154D01*
X-10344D01*
Y-131710D01*
X-9455D01*
Y-131266D01*
X-8566D01*
Y-130821D01*
X-8122D01*
Y-130377D01*
X-7233D01*
Y-129933D01*
X-6344D01*
Y-129488D01*
X-5900D01*
Y-129044D01*
X-5011D01*
Y-128600D01*
X-4123D01*
Y-128155D01*
X-3234D01*
Y-127711D01*
X-2790D01*
Y-127266D01*
X-1456D01*
Y-127711D01*
X-1012D01*
Y-128155D01*
X-123D01*
Y-128600D01*
X765D01*
Y-129044D01*
X1210D01*
Y-129488D01*
X2098D01*
Y-129933D01*
X2987D01*
Y-130377D01*
X3876D01*
Y-130821D01*
X4320D01*
Y-131266D01*
X5209D01*
Y-131710D01*
X6098D01*
Y-132154D01*
X6986D01*
Y-132599D01*
X7431D01*
Y-133043D01*
X8320D01*
Y-133487D01*
X9208D01*
Y-133932D01*
X9653D01*
Y-133487D01*
Y-133043D01*
Y-132599D01*
Y-132154D01*
Y-131710D01*
Y-131266D01*
Y-130821D01*
Y-130377D01*
Y-129933D01*
Y-129488D01*
Y-129044D01*
Y-128600D01*
X9208D01*
Y-128155D01*
X8764D01*
Y-127711D01*
X7875D01*
Y-127266D01*
X6986D01*
Y-126822D01*
X6542D01*
Y-126378D01*
X5653D01*
Y-125933D01*
X4765D01*
Y-125489D01*
X3876D01*
Y-125045D01*
X3432D01*
Y-124600D01*
X2543D01*
Y-124156D01*
X1654D01*
Y-123712D01*
X765D01*
Y-123267D01*
X321D01*
Y-122823D01*
X-568D01*
Y-122379D01*
X-1456D01*
Y-121934D01*
D02*
G37*
G36*
Y-133932D02*
X-2790D01*
Y-134376D01*
X-3678D01*
Y-134820D01*
X-4123D01*
Y-135265D01*
X-5011D01*
Y-135709D01*
X-5900D01*
Y-136154D01*
X-6789D01*
Y-136598D01*
X-7233D01*
Y-137042D01*
X-8122D01*
Y-137487D01*
X-9010D01*
Y-137931D01*
X-9455D01*
Y-138375D01*
X-10344D01*
Y-138820D01*
X-11232D01*
Y-139264D01*
X-12121D01*
Y-139708D01*
X-12565D01*
Y-140153D01*
X-13454D01*
Y-140597D01*
X-13898D01*
Y-141042D01*
Y-141486D01*
Y-141930D01*
Y-142375D01*
Y-142819D01*
Y-143263D01*
Y-143708D01*
Y-144152D01*
Y-144596D01*
Y-145041D01*
Y-145485D01*
Y-145929D01*
Y-146374D01*
Y-146818D01*
X-13010D01*
Y-146374D01*
X-12121D01*
Y-145929D01*
X-11677D01*
Y-145485D01*
X-10788D01*
Y-145041D01*
X-9899D01*
Y-144596D01*
X-9010D01*
Y-144152D01*
X-8566D01*
Y-143708D01*
X-7677D01*
Y-143263D01*
X-6789D01*
Y-142819D01*
X-6344D01*
Y-142375D01*
X-5456D01*
Y-141930D01*
X-4567D01*
Y-141486D01*
X-3678D01*
Y-141042D01*
X-3234D01*
Y-140597D01*
X-2345D01*
Y-140153D01*
X-1901D01*
Y-140597D01*
X-1012D01*
Y-141042D01*
X-123D01*
Y-141486D01*
X765D01*
Y-141930D01*
Y-142375D01*
X321D01*
Y-142819D01*
X-568D01*
Y-143263D01*
X-1456D01*
Y-143708D01*
X-1901D01*
Y-144152D01*
X-2790D01*
Y-144596D01*
X-3678D01*
Y-145041D01*
X-4567D01*
Y-145485D01*
X-5011D01*
Y-145929D01*
X-5900D01*
Y-146374D01*
X-6789D01*
Y-146818D01*
X-7677D01*
Y-147263D01*
X-8122D01*
Y-147707D01*
X-9010D01*
Y-148151D01*
X-9899D01*
Y-148596D01*
X-10344D01*
Y-149040D01*
X-11232D01*
Y-149484D01*
X-12121D01*
Y-149929D01*
X-13010D01*
Y-150373D01*
X-13454D01*
Y-150817D01*
X-13898D01*
Y-151262D01*
Y-151706D01*
Y-152150D01*
Y-152595D01*
Y-153039D01*
Y-153484D01*
Y-153928D01*
Y-154372D01*
X-13454D01*
Y-154817D01*
X-12565D01*
Y-155261D01*
X-11677D01*
Y-155705D01*
X-11232D01*
Y-156150D01*
X-10344D01*
Y-156594D01*
X-9455D01*
Y-157038D01*
X-8566D01*
Y-157483D01*
X-8122D01*
Y-157927D01*
X-7233D01*
Y-158371D01*
X-6344D01*
Y-158816D01*
X-5456D01*
Y-159260D01*
X-5011D01*
Y-159705D01*
X-4123D01*
Y-160149D01*
X-3234D01*
Y-160593D01*
X-2345D01*
Y-161038D01*
X-1456D01*
Y-160593D01*
X-568D01*
Y-160149D01*
X321D01*
Y-159705D01*
X765D01*
Y-159260D01*
X1654D01*
Y-158816D01*
X2543D01*
Y-158371D01*
X2987D01*
Y-157927D01*
X3876D01*
Y-157483D01*
X4765D01*
Y-157038D01*
X5653D01*
Y-156594D01*
X6098D01*
Y-156150D01*
X6986D01*
Y-155705D01*
X7875D01*
Y-155261D01*
X8320D01*
Y-154817D01*
X9208D01*
Y-154372D01*
X9653D01*
Y-153928D01*
Y-153484D01*
Y-153039D01*
Y-152595D01*
Y-152150D01*
Y-151706D01*
Y-151262D01*
Y-150817D01*
Y-150373D01*
Y-149929D01*
Y-149484D01*
Y-149040D01*
Y-148596D01*
Y-148151D01*
X8764D01*
Y-148596D01*
X7875D01*
Y-149040D01*
X7431D01*
Y-149484D01*
X6542D01*
Y-149929D01*
X5653D01*
Y-150373D01*
X5209D01*
Y-150817D01*
X4320D01*
Y-151262D01*
X3432D01*
Y-151706D01*
X2543D01*
Y-152150D01*
X2098D01*
Y-152595D01*
X1210D01*
Y-153039D01*
X321D01*
Y-153484D01*
X-123D01*
Y-153928D01*
X-1012D01*
Y-154372D01*
X-2790D01*
Y-153928D01*
X-3678D01*
Y-153484D01*
X-4567D01*
Y-153039D01*
X-5011D01*
Y-152595D01*
X-4567D01*
Y-152150D01*
X-3678D01*
Y-151706D01*
X-2790D01*
Y-151262D01*
X-1901D01*
Y-150817D01*
X-1456D01*
Y-150373D01*
X-568D01*
Y-149929D01*
X321D01*
Y-149484D01*
X765D01*
Y-149040D01*
X1654D01*
Y-148596D01*
X2543D01*
Y-148151D01*
X3432D01*
Y-147707D01*
X3876D01*
Y-147263D01*
X4765D01*
Y-146818D01*
X5653D01*
Y-146374D01*
X6542D01*
Y-145929D01*
X6986D01*
Y-145485D01*
X7875D01*
Y-145041D01*
X8764D01*
Y-144596D01*
X9208D01*
Y-144152D01*
X9653D01*
Y-143708D01*
Y-143263D01*
Y-142819D01*
Y-142375D01*
Y-141930D01*
Y-141486D01*
Y-141042D01*
Y-140597D01*
Y-140153D01*
X8764D01*
Y-139708D01*
X7875D01*
Y-139264D01*
X6986D01*
Y-138820D01*
X6542D01*
Y-138375D01*
X5653D01*
Y-137931D01*
X4765D01*
Y-137487D01*
X3876D01*
Y-137042D01*
X3432D01*
Y-136598D01*
X2543D01*
Y-136154D01*
X1654D01*
Y-135709D01*
X765D01*
Y-135265D01*
X321D01*
Y-134820D01*
X-568D01*
Y-134376D01*
X-1456D01*
Y-133932D01*
D02*
G37*
G36*
X15874Y-144152D02*
X15429D01*
Y-144596D01*
Y-145041D01*
Y-145485D01*
Y-145929D01*
Y-146374D01*
Y-146818D01*
Y-147263D01*
Y-147707D01*
Y-148151D01*
Y-148596D01*
Y-149040D01*
Y-149484D01*
Y-149929D01*
Y-150373D01*
Y-150817D01*
Y-151262D01*
Y-151706D01*
Y-152150D01*
Y-152595D01*
Y-153039D01*
Y-153484D01*
Y-153928D01*
Y-154372D01*
Y-154817D01*
Y-155261D01*
Y-155705D01*
Y-156150D01*
Y-156594D01*
Y-157038D01*
Y-157483D01*
Y-157927D01*
X14540D01*
Y-158371D01*
X14096D01*
Y-158816D01*
X13207D01*
Y-159260D01*
X12319D01*
Y-159705D01*
X11430D01*
Y-160149D01*
X10986D01*
Y-160593D01*
X10097D01*
Y-161038D01*
X9208D01*
Y-161482D01*
X8320D01*
Y-161926D01*
X7875D01*
Y-162371D01*
X6986D01*
Y-162815D01*
X6098D01*
Y-163260D01*
X5209D01*
Y-163704D01*
X4765D01*
Y-164148D01*
X3876D01*
Y-164593D01*
X4320D01*
Y-165037D01*
X5209D01*
Y-165481D01*
X6098D01*
Y-165926D01*
X6986D01*
Y-166370D01*
X7431D01*
Y-166814D01*
X8320D01*
Y-167259D01*
X10097D01*
Y-166814D01*
X10541D01*
Y-166370D01*
X11430D01*
Y-165926D01*
X12319D01*
Y-165481D01*
X13207D01*
Y-165037D01*
X13652D01*
Y-164593D01*
X14540D01*
Y-164148D01*
X15429D01*
Y-163704D01*
X16318D01*
Y-163260D01*
X16762D01*
Y-162815D01*
X17651D01*
Y-162371D01*
X18540D01*
Y-161926D01*
X18984D01*
Y-161482D01*
X19873D01*
Y-161038D01*
X20761D01*
Y-160593D01*
Y-160149D01*
Y-159705D01*
Y-159260D01*
Y-158816D01*
Y-158371D01*
Y-157927D01*
Y-157483D01*
Y-157038D01*
Y-156594D01*
Y-156150D01*
Y-155705D01*
Y-155261D01*
Y-154817D01*
Y-154372D01*
Y-153928D01*
Y-153484D01*
Y-153039D01*
Y-152595D01*
Y-152150D01*
Y-151706D01*
Y-151262D01*
Y-150817D01*
Y-150373D01*
Y-149929D01*
Y-149484D01*
Y-149040D01*
Y-148596D01*
Y-148151D01*
Y-147707D01*
Y-147263D01*
Y-146818D01*
X19873D01*
Y-146374D01*
X18984D01*
Y-145929D01*
X18095D01*
Y-145485D01*
X17651D01*
Y-145041D01*
X16762D01*
Y-144596D01*
X15874D01*
Y-144152D01*
D02*
G37*
G36*
X-19675D02*
X-20120D01*
Y-144596D01*
X-21008D01*
Y-145041D01*
X-21453D01*
Y-145485D01*
X-22341D01*
Y-145929D01*
X-23230D01*
Y-146374D01*
X-24119D01*
Y-146818D01*
X-24563D01*
Y-147263D01*
X-25007D01*
Y-147707D01*
Y-148151D01*
Y-148596D01*
Y-149040D01*
Y-149484D01*
Y-149929D01*
Y-150373D01*
Y-150817D01*
Y-151262D01*
Y-151706D01*
Y-152150D01*
Y-152595D01*
Y-153039D01*
Y-153484D01*
Y-153928D01*
Y-154372D01*
Y-154817D01*
Y-155261D01*
Y-155705D01*
Y-156150D01*
Y-156594D01*
Y-157038D01*
Y-157483D01*
Y-157927D01*
Y-158371D01*
Y-158816D01*
Y-159260D01*
Y-159705D01*
Y-160149D01*
Y-160593D01*
Y-161038D01*
X-24119D01*
Y-161482D01*
X-23674D01*
Y-161926D01*
X-22786D01*
Y-162371D01*
X-21897D01*
Y-162815D01*
X-21008D01*
Y-163260D01*
X-20564D01*
Y-163704D01*
X-19675D01*
Y-164148D01*
X-18786D01*
Y-164593D01*
X-17898D01*
Y-165037D01*
X-17453D01*
Y-165481D01*
X-16565D01*
Y-165926D01*
X-15676D01*
Y-166370D01*
X-14787D01*
Y-166814D01*
X-14343D01*
Y-167259D01*
X-12565D01*
Y-166814D01*
X-11677D01*
Y-166370D01*
X-10788D01*
Y-165926D01*
X-10344D01*
Y-165481D01*
X-9455D01*
Y-165037D01*
X-8566D01*
Y-164593D01*
X-8122D01*
Y-164148D01*
X-9010D01*
Y-163704D01*
X-9455D01*
Y-163260D01*
X-10344D01*
Y-162815D01*
X-11232D01*
Y-162371D01*
X-12121D01*
Y-161926D01*
X-12565D01*
Y-161482D01*
X-13454D01*
Y-161038D01*
X-14343D01*
Y-160593D01*
X-15231D01*
Y-160149D01*
X-16120D01*
Y-159705D01*
X-16565D01*
Y-159260D01*
X-17453D01*
Y-158816D01*
X-18342D01*
Y-158371D01*
X-18786D01*
Y-157927D01*
X-19675D01*
Y-157483D01*
Y-157038D01*
Y-156594D01*
Y-156150D01*
Y-155705D01*
Y-155261D01*
Y-154817D01*
Y-154372D01*
Y-153928D01*
Y-153484D01*
Y-153039D01*
Y-152595D01*
Y-152150D01*
Y-151706D01*
Y-151262D01*
Y-150817D01*
Y-150373D01*
Y-149929D01*
Y-149484D01*
Y-149040D01*
Y-148596D01*
Y-148151D01*
Y-147707D01*
Y-147263D01*
Y-146818D01*
Y-146374D01*
Y-145929D01*
Y-145485D01*
Y-145041D01*
Y-144596D01*
Y-144152D01*
D02*
G37*
G36*
X53262Y-204422D02*
X53248D01*
Y-205836D01*
X53456Y-205975D01*
X53650Y-206086D01*
X53719Y-206128D01*
X53789Y-206155D01*
X53830Y-206183D01*
X53844D01*
X54080Y-206252D01*
X54191Y-206280D01*
X54288Y-206294D01*
X54371D01*
X54440Y-206308D01*
X54635D01*
X54759Y-206294D01*
X54857D01*
X54940Y-206280D01*
X55009Y-206266D01*
X55051D01*
X55078Y-206252D01*
X55092D01*
X55231Y-206197D01*
X55328Y-206141D01*
X55397Y-206100D01*
X55425Y-206086D01*
X55508Y-205989D01*
X55564Y-205920D01*
X55592Y-205864D01*
X55605Y-205836D01*
X55619Y-205725D01*
X55633Y-205614D01*
Y-205517D01*
Y-205504D01*
Y-205490D01*
X55619Y-205379D01*
X55605Y-205268D01*
X55578Y-205184D01*
X55550Y-205115D01*
X55522Y-205060D01*
X55494Y-205018D01*
X55467Y-204990D01*
Y-204977D01*
X55397Y-204907D01*
X55314Y-204852D01*
X55162Y-204755D01*
X55092Y-204713D01*
X55037Y-204685D01*
X54995Y-204671D01*
X54981D01*
X54870Y-204644D01*
X54745Y-204616D01*
X54496Y-204574D01*
X54385Y-204560D01*
X54288Y-204547D01*
X54232Y-204533D01*
X54205D01*
X54011Y-204505D01*
X53844Y-204491D01*
X53678Y-204463D01*
X53539Y-204450D01*
X53414Y-204436D01*
X53331D01*
X53262Y-204422D01*
D02*
G37*
G36*
X37715D02*
X37701D01*
Y-205836D01*
X37909Y-205975D01*
X38103Y-206086D01*
X38173Y-206128D01*
X38242Y-206155D01*
X38284Y-206183D01*
X38298D01*
X38533Y-206252D01*
X38644Y-206280D01*
X38741Y-206294D01*
X38825D01*
X38894Y-206308D01*
X39088D01*
X39213Y-206294D01*
X39310D01*
X39393Y-206280D01*
X39462Y-206266D01*
X39504D01*
X39532Y-206252D01*
X39546D01*
X39684Y-206197D01*
X39781Y-206141D01*
X39851Y-206100D01*
X39879Y-206086D01*
X39962Y-205989D01*
X40017Y-205920D01*
X40045Y-205864D01*
X40059Y-205836D01*
X40073Y-205725D01*
X40087Y-205614D01*
Y-205517D01*
Y-205504D01*
Y-205490D01*
X40073Y-205379D01*
X40059Y-205268D01*
X40031Y-205184D01*
X40003Y-205115D01*
X39976Y-205060D01*
X39948Y-205018D01*
X39920Y-204990D01*
Y-204977D01*
X39851Y-204907D01*
X39768Y-204852D01*
X39615Y-204755D01*
X39546Y-204713D01*
X39490Y-204685D01*
X39449Y-204671D01*
X39435D01*
X39324Y-204644D01*
X39199Y-204616D01*
X38949Y-204574D01*
X38839Y-204560D01*
X38741Y-204547D01*
X38686Y-204533D01*
X38658D01*
X38464Y-204505D01*
X38298Y-204491D01*
X38131Y-204463D01*
X37992Y-204450D01*
X37868Y-204436D01*
X37785D01*
X37715Y-204422D01*
D02*
G37*
G36*
X19977D02*
X19964D01*
Y-205836D01*
X20172Y-205975D01*
X20366Y-206086D01*
X20435Y-206128D01*
X20504Y-206155D01*
X20546Y-206183D01*
X20560D01*
X20796Y-206252D01*
X20907Y-206280D01*
X21004Y-206294D01*
X21087D01*
X21156Y-206308D01*
X21350D01*
X21475Y-206294D01*
X21572D01*
X21655Y-206280D01*
X21725Y-206266D01*
X21767D01*
X21794Y-206252D01*
X21808D01*
X21947Y-206197D01*
X22044Y-206141D01*
X22113Y-206100D01*
X22141Y-206086D01*
X22224Y-205989D01*
X22280Y-205920D01*
X22307Y-205864D01*
X22321Y-205836D01*
X22335Y-205725D01*
X22349Y-205614D01*
Y-205517D01*
Y-205504D01*
Y-205490D01*
X22335Y-205379D01*
X22321Y-205268D01*
X22294Y-205184D01*
X22266Y-205115D01*
X22238Y-205060D01*
X22210Y-205018D01*
X22183Y-204990D01*
Y-204977D01*
X22113Y-204907D01*
X22030Y-204852D01*
X21877Y-204755D01*
X21808Y-204713D01*
X21753Y-204685D01*
X21711Y-204671D01*
X21697D01*
X21586Y-204644D01*
X21461Y-204616D01*
X21212Y-204574D01*
X21101Y-204560D01*
X21004Y-204547D01*
X20948Y-204533D01*
X20921D01*
X20726Y-204505D01*
X20560Y-204491D01*
X20394Y-204463D01*
X20255Y-204450D01*
X20130Y-204436D01*
X20047D01*
X19977Y-204422D01*
D02*
G37*
G36*
X5610D02*
X5596D01*
Y-205836D01*
X5804Y-205975D01*
X5998Y-206086D01*
X6067Y-206128D01*
X6137Y-206155D01*
X6178Y-206183D01*
X6192D01*
X6428Y-206252D01*
X6539Y-206280D01*
X6636Y-206294D01*
X6719D01*
X6789Y-206308D01*
X6983D01*
X7108Y-206294D01*
X7205D01*
X7288Y-206280D01*
X7357Y-206266D01*
X7399D01*
X7426Y-206252D01*
X7440D01*
X7579Y-206197D01*
X7676Y-206141D01*
X7746Y-206100D01*
X7773Y-206086D01*
X7856Y-205989D01*
X7912Y-205920D01*
X7940Y-205864D01*
X7954Y-205836D01*
X7967Y-205725D01*
X7981Y-205614D01*
Y-205517D01*
Y-205504D01*
Y-205490D01*
X7967Y-205379D01*
X7954Y-205268D01*
X7926Y-205184D01*
X7898Y-205115D01*
X7870Y-205060D01*
X7843Y-205018D01*
X7815Y-204990D01*
Y-204977D01*
X7746Y-204907D01*
X7662Y-204852D01*
X7510Y-204755D01*
X7440Y-204713D01*
X7385Y-204685D01*
X7343Y-204671D01*
X7329D01*
X7218Y-204644D01*
X7094Y-204616D01*
X6844Y-204574D01*
X6733Y-204560D01*
X6636Y-204547D01*
X6581Y-204533D01*
X6553D01*
X6359Y-204505D01*
X6192Y-204491D01*
X6026Y-204463D01*
X5887Y-204450D01*
X5762Y-204436D01*
X5679D01*
X5610Y-204422D01*
D02*
G37*
G36*
X-10422Y-202147D02*
X-10533D01*
X-10755Y-202161D01*
X-10852Y-202175D01*
X-10935Y-202203D01*
X-11005Y-202217D01*
X-11060Y-202244D01*
X-11088Y-202258D01*
X-11102D01*
X-11199Y-202300D01*
X-11296Y-202355D01*
X-11448Y-202466D01*
X-11504Y-202522D01*
X-11545Y-202563D01*
X-11559Y-202591D01*
X-11573Y-202605D01*
X-11643Y-202702D01*
X-11698Y-202799D01*
X-11795Y-203007D01*
X-11837Y-203104D01*
X-11864Y-203174D01*
X-11878Y-203229D01*
Y-203243D01*
X-11920Y-203396D01*
X-11948Y-203562D01*
X-11961Y-203728D01*
X-11975Y-203895D01*
X-11989Y-204034D01*
Y-204144D01*
Y-204214D01*
Y-204228D01*
Y-204242D01*
Y-204463D01*
X-11975Y-204671D01*
X-11961Y-204838D01*
X-11934Y-204990D01*
X-11920Y-205101D01*
X-11892Y-205185D01*
X-11878Y-205240D01*
Y-205254D01*
X-11781Y-205504D01*
X-11726Y-205601D01*
X-11684Y-205698D01*
X-11629Y-205767D01*
X-11601Y-205823D01*
X-11573Y-205850D01*
X-11559Y-205864D01*
X-11407Y-206017D01*
X-11268Y-206114D01*
X-11199Y-206155D01*
X-11143Y-206183D01*
X-11115Y-206197D01*
X-11102D01*
X-10907Y-206252D01*
X-10727Y-206280D01*
X-10658Y-206294D01*
X-10547D01*
X-10297Y-206280D01*
X-10200Y-206266D01*
X-10103Y-206239D01*
X-10034Y-206225D01*
X-9978Y-206211D01*
X-9937Y-206197D01*
X-9923D01*
X-9743Y-206100D01*
X-9604Y-205975D01*
X-9548Y-205933D01*
X-9507Y-205892D01*
X-9493Y-205864D01*
X-9479Y-205850D01*
X-9410Y-205753D01*
X-9340Y-205642D01*
X-9243Y-205434D01*
X-9216Y-205337D01*
X-9188Y-205268D01*
X-9174Y-205212D01*
Y-205198D01*
X-9146Y-205046D01*
X-9118Y-204879D01*
X-9105Y-204713D01*
X-9091Y-204574D01*
X-9077Y-204436D01*
Y-204339D01*
Y-204269D01*
Y-204242D01*
Y-204020D01*
X-9091Y-203825D01*
X-9118Y-203659D01*
X-9132Y-203507D01*
X-9160Y-203382D01*
X-9174Y-203298D01*
X-9188Y-203243D01*
Y-203229D01*
X-9229Y-203077D01*
X-9285Y-202952D01*
X-9340Y-202841D01*
X-9396Y-202744D01*
X-9437Y-202674D01*
X-9479Y-202619D01*
X-9493Y-202591D01*
X-9507Y-202577D01*
X-9590Y-202494D01*
X-9673Y-202425D01*
X-9826Y-202314D01*
X-9881Y-202286D01*
X-9923Y-202258D01*
X-9951Y-202244D01*
X-9964D01*
X-10159Y-202189D01*
X-10339Y-202161D01*
X-10422Y-202147D01*
D02*
G37*
G36*
X-50072D02*
X-50183D01*
X-50405Y-202161D01*
X-50502Y-202175D01*
X-50585Y-202203D01*
X-50654Y-202217D01*
X-50710Y-202244D01*
X-50738Y-202258D01*
X-50751D01*
X-50848Y-202300D01*
X-50946Y-202355D01*
X-51098Y-202466D01*
X-51154Y-202522D01*
X-51195Y-202563D01*
X-51209Y-202591D01*
X-51223Y-202605D01*
X-51292Y-202702D01*
X-51348Y-202799D01*
X-51445Y-203007D01*
X-51486Y-203104D01*
X-51514Y-203174D01*
X-51528Y-203229D01*
Y-203243D01*
X-51570Y-203396D01*
X-51597Y-203562D01*
X-51611Y-203728D01*
X-51625Y-203895D01*
X-51639Y-204034D01*
Y-204144D01*
Y-204214D01*
Y-204228D01*
Y-204242D01*
Y-204463D01*
X-51625Y-204671D01*
X-51611Y-204838D01*
X-51583Y-204990D01*
X-51570Y-205101D01*
X-51542Y-205185D01*
X-51528Y-205240D01*
Y-205254D01*
X-51431Y-205504D01*
X-51375Y-205601D01*
X-51334Y-205698D01*
X-51278Y-205767D01*
X-51251Y-205823D01*
X-51223Y-205850D01*
X-51209Y-205864D01*
X-51056Y-206017D01*
X-50918Y-206114D01*
X-50848Y-206155D01*
X-50793Y-206183D01*
X-50765Y-206197D01*
X-50751D01*
X-50557Y-206252D01*
X-50377Y-206280D01*
X-50308Y-206294D01*
X-50197D01*
X-49947Y-206280D01*
X-49850Y-206266D01*
X-49753Y-206239D01*
X-49683Y-206225D01*
X-49628Y-206211D01*
X-49587Y-206197D01*
X-49573D01*
X-49392Y-206100D01*
X-49254Y-205975D01*
X-49198Y-205933D01*
X-49156Y-205892D01*
X-49143Y-205864D01*
X-49129Y-205850D01*
X-49060Y-205753D01*
X-48990Y-205642D01*
X-48893Y-205434D01*
X-48865Y-205337D01*
X-48838Y-205268D01*
X-48824Y-205212D01*
Y-205198D01*
X-48796Y-205046D01*
X-48768Y-204879D01*
X-48754Y-204713D01*
X-48741Y-204574D01*
X-48727Y-204436D01*
Y-204339D01*
Y-204269D01*
Y-204242D01*
Y-204020D01*
X-48741Y-203825D01*
X-48768Y-203659D01*
X-48782Y-203507D01*
X-48810Y-203382D01*
X-48824Y-203298D01*
X-48838Y-203243D01*
Y-203229D01*
X-48879Y-203077D01*
X-48935Y-202952D01*
X-48990Y-202841D01*
X-49046Y-202744D01*
X-49087Y-202674D01*
X-49129Y-202619D01*
X-49143Y-202591D01*
X-49156Y-202577D01*
X-49240Y-202494D01*
X-49323Y-202425D01*
X-49475Y-202314D01*
X-49531Y-202286D01*
X-49573Y-202258D01*
X-49600Y-202244D01*
X-49614D01*
X-49808Y-202189D01*
X-49989Y-202161D01*
X-50072Y-202147D01*
D02*
G37*
G36*
X3550Y-236290D02*
X3453D01*
X3217Y-236304D01*
X3009Y-236346D01*
X2843Y-236401D01*
X2704Y-236457D01*
X2593Y-236526D01*
X2510Y-236582D01*
X2469Y-236623D01*
X2455Y-236637D01*
X2344Y-236776D01*
X2261Y-236942D01*
X2205Y-237109D01*
X2164Y-237275D01*
X2136Y-237414D01*
X2122Y-237539D01*
X2108Y-237622D01*
Y-237636D01*
Y-237649D01*
X4937D01*
X4895Y-237400D01*
X4840Y-237192D01*
X4771Y-237012D01*
X4688Y-236873D01*
X4604Y-236762D01*
X4549Y-236679D01*
X4493Y-236637D01*
X4480Y-236623D01*
X4313Y-236512D01*
X4147Y-236429D01*
X3980Y-236374D01*
X3814Y-236332D01*
X3675Y-236304D01*
X3550Y-236290D01*
D02*
G37*
G36*
X13827Y-234585D02*
X12717D01*
X12593Y-234598D01*
X12412D01*
X12343Y-234612D01*
X12287D01*
X12066Y-234640D01*
X11968Y-234654D01*
X11885Y-234682D01*
X11830Y-234695D01*
X11774Y-234709D01*
X11746Y-234723D01*
X11733D01*
X11622Y-234779D01*
X11525Y-234848D01*
X11441Y-234904D01*
X11372Y-234973D01*
X11317Y-235028D01*
X11289Y-235070D01*
X11261Y-235098D01*
Y-235112D01*
X11178Y-235306D01*
X11136Y-235486D01*
X11122Y-235555D01*
Y-235625D01*
Y-235666D01*
Y-235680D01*
Y-235819D01*
X11136Y-235930D01*
X11150Y-236041D01*
X11178Y-236124D01*
X11192Y-236193D01*
X11220Y-236249D01*
X11233Y-236276D01*
Y-236290D01*
X11330Y-236443D01*
X11455Y-236568D01*
X11511Y-236623D01*
X11552Y-236665D01*
X11580Y-236679D01*
X11594Y-236693D01*
X11802Y-236817D01*
X11996Y-236887D01*
X12079Y-236915D01*
X12149Y-236928D01*
X12204Y-236942D01*
X12218D01*
X12357Y-236956D01*
X12509Y-236970D01*
X12662D01*
X12814Y-236984D01*
X13827D01*
Y-234585D01*
D02*
G37*
G36*
X36453Y-186954D02*
X36439D01*
Y-188368D01*
X36647Y-188507D01*
X36841Y-188618D01*
X36911Y-188659D01*
X36980Y-188687D01*
X37022Y-188715D01*
X37036D01*
X37271Y-188784D01*
X37382Y-188812D01*
X37479Y-188826D01*
X37563D01*
X37632Y-188840D01*
X37826D01*
X37951Y-188826D01*
X38048D01*
X38131Y-188812D01*
X38201Y-188798D01*
X38242D01*
X38270Y-188784D01*
X38284D01*
X38422Y-188729D01*
X38519Y-188673D01*
X38589Y-188632D01*
X38617Y-188618D01*
X38700Y-188521D01*
X38755Y-188451D01*
X38783Y-188396D01*
X38797Y-188368D01*
X38811Y-188257D01*
X38825Y-188146D01*
Y-188049D01*
Y-188035D01*
Y-188021D01*
X38811Y-187910D01*
X38797Y-187799D01*
X38769Y-187716D01*
X38741Y-187647D01*
X38714Y-187591D01*
X38686Y-187550D01*
X38658Y-187522D01*
Y-187508D01*
X38589Y-187439D01*
X38506Y-187383D01*
X38353Y-187286D01*
X38284Y-187245D01*
X38228Y-187217D01*
X38187Y-187203D01*
X38173D01*
X38062Y-187175D01*
X37937Y-187148D01*
X37687Y-187106D01*
X37576Y-187092D01*
X37479Y-187078D01*
X37424Y-187064D01*
X37396D01*
X37202Y-187037D01*
X37036Y-187023D01*
X36869Y-186995D01*
X36730Y-186981D01*
X36606Y-186967D01*
X36522D01*
X36453Y-186954D01*
D02*
G37*
G36*
X16178Y-184527D02*
X16080D01*
X15845Y-184540D01*
X15637Y-184582D01*
X15470Y-184638D01*
X15331Y-184693D01*
X15221Y-184762D01*
X15137Y-184818D01*
X15096Y-184859D01*
X15082Y-184873D01*
X14971Y-185012D01*
X14888Y-185178D01*
X14832Y-185345D01*
X14791Y-185511D01*
X14763Y-185650D01*
X14749Y-185775D01*
X14735Y-185858D01*
Y-185872D01*
Y-185886D01*
X17564D01*
X17523Y-185636D01*
X17467Y-185428D01*
X17398Y-185248D01*
X17315Y-185109D01*
X17232Y-184998D01*
X17176Y-184915D01*
X17120Y-184873D01*
X17107Y-184859D01*
X16940Y-184748D01*
X16774Y-184665D01*
X16607Y-184610D01*
X16441Y-184568D01*
X16302Y-184540D01*
X16178Y-184527D01*
D02*
G37*
G36*
X-9978Y-182848D02*
X-10810D01*
X-11032Y-182862D01*
X-11227Y-182876D01*
X-11379D01*
X-11504Y-182890D01*
X-11587Y-182904D01*
X-11643Y-182918D01*
X-11656D01*
X-11934Y-182987D01*
X-12059Y-183029D01*
X-12170Y-183057D01*
X-12253Y-183098D01*
X-12336Y-183126D01*
X-12378Y-183140D01*
X-12391Y-183154D01*
X-12641Y-183292D01*
X-12849Y-183459D01*
X-13016Y-183625D01*
X-13154Y-183778D01*
X-13265Y-183916D01*
X-13348Y-184041D01*
X-13390Y-184111D01*
X-13404Y-184124D01*
Y-184138D01*
X-13515Y-184388D01*
X-13598Y-184638D01*
X-13653Y-184887D01*
X-13695Y-185123D01*
X-13723Y-185331D01*
Y-185428D01*
X-13737Y-185497D01*
Y-185567D01*
Y-185608D01*
Y-185636D01*
Y-185650D01*
X-13723Y-185969D01*
X-13695Y-186260D01*
X-13640Y-186510D01*
X-13584Y-186718D01*
X-13529Y-186898D01*
X-13473Y-187023D01*
X-13445Y-187106D01*
X-13432Y-187120D01*
Y-187134D01*
X-13307Y-187342D01*
X-13168Y-187536D01*
X-13016Y-187702D01*
X-12863Y-187841D01*
X-12724Y-187938D01*
X-12613Y-188021D01*
X-12544Y-188077D01*
X-12530Y-188091D01*
X-12516D01*
X-12239Y-188216D01*
X-12114Y-188271D01*
X-11989Y-188313D01*
X-11892Y-188340D01*
X-11823Y-188354D01*
X-11767Y-188368D01*
X-11753D01*
X-11601Y-188396D01*
X-11407Y-188410D01*
X-11213Y-188424D01*
X-11005D01*
X-10824Y-188437D01*
X-9978D01*
Y-182848D01*
D02*
G37*
G36*
X-34373Y-182821D02*
X-35357D01*
X-35468Y-182835D01*
X-35621D01*
X-35760Y-182848D01*
X-35871Y-182862D01*
X-35982Y-182876D01*
X-36079Y-182890D01*
X-36148Y-182918D01*
X-36203Y-182932D01*
X-36231Y-182946D01*
X-36245D01*
X-36342Y-182987D01*
X-36425Y-183043D01*
X-36495Y-183084D01*
X-36550Y-183140D01*
X-36620Y-183223D01*
X-36647Y-183251D01*
Y-183265D01*
X-36717Y-183431D01*
X-36744Y-183570D01*
X-36758Y-183625D01*
Y-183667D01*
Y-183694D01*
Y-183708D01*
X-36744Y-183916D01*
X-36717Y-184069D01*
X-36689Y-184138D01*
X-36675Y-184180D01*
X-36661Y-184208D01*
Y-184221D01*
X-36620Y-184305D01*
X-36550Y-184374D01*
X-36411Y-184485D01*
X-36356Y-184527D01*
X-36300Y-184554D01*
X-36259Y-184582D01*
X-36245D01*
X-36162Y-184610D01*
X-36051Y-184638D01*
X-35857Y-184679D01*
X-35773D01*
X-35704Y-184693D01*
X-35482D01*
X-35330Y-184707D01*
X-34373D01*
Y-182821D01*
D02*
G37*
G36*
Y-186260D02*
X-35552D01*
X-35677Y-186274D01*
X-36023D01*
X-36176Y-186288D01*
X-36300Y-186302D01*
X-36398Y-186316D01*
X-36481Y-186329D01*
X-36550Y-186343D01*
X-36578Y-186357D01*
X-36592D01*
X-36730Y-186399D01*
X-36855Y-186454D01*
X-36952Y-186510D01*
X-37022Y-186565D01*
X-37091Y-186621D01*
X-37133Y-186662D01*
X-37146Y-186690D01*
X-37160Y-186704D01*
X-37216Y-186801D01*
X-37257Y-186898D01*
X-37313Y-187106D01*
Y-187203D01*
X-37327Y-187286D01*
Y-187342D01*
Y-187356D01*
X-37299Y-187578D01*
X-37285Y-187675D01*
X-37257Y-187758D01*
X-37230Y-187827D01*
X-37216Y-187883D01*
X-37188Y-187910D01*
Y-187924D01*
X-37133Y-188008D01*
X-37049Y-188091D01*
X-36883Y-188216D01*
X-36814Y-188271D01*
X-36744Y-188299D01*
X-36703Y-188313D01*
X-36689Y-188326D01*
X-36550Y-188382D01*
X-36425Y-188410D01*
X-36287Y-188437D01*
X-36176Y-188465D01*
X-36065D01*
X-35982Y-188479D01*
X-34373D01*
Y-186260D01*
D02*
G37*
G36*
X-44427Y-184679D02*
X-44538D01*
X-44760Y-184693D01*
X-44857Y-184707D01*
X-44941Y-184735D01*
X-45010Y-184748D01*
X-45065Y-184776D01*
X-45093Y-184790D01*
X-45107D01*
X-45204Y-184832D01*
X-45301Y-184887D01*
X-45454Y-184998D01*
X-45509Y-185054D01*
X-45551Y-185095D01*
X-45565Y-185123D01*
X-45578Y-185137D01*
X-45648Y-185234D01*
X-45703Y-185331D01*
X-45800Y-185539D01*
X-45842Y-185636D01*
X-45870Y-185705D01*
X-45884Y-185761D01*
Y-185775D01*
X-45925Y-185927D01*
X-45953Y-186094D01*
X-45967Y-186260D01*
X-45981Y-186427D01*
X-45995Y-186565D01*
Y-186676D01*
Y-186745D01*
Y-186759D01*
Y-186773D01*
Y-186995D01*
X-45981Y-187203D01*
X-45967Y-187370D01*
X-45939Y-187522D01*
X-45925Y-187633D01*
X-45897Y-187716D01*
X-45884Y-187772D01*
Y-187786D01*
X-45786Y-188035D01*
X-45731Y-188132D01*
X-45689Y-188229D01*
X-45634Y-188299D01*
X-45606Y-188354D01*
X-45578Y-188382D01*
X-45565Y-188396D01*
X-45412Y-188548D01*
X-45273Y-188645D01*
X-45204Y-188687D01*
X-45149Y-188715D01*
X-45121Y-188729D01*
X-45107D01*
X-44913Y-188784D01*
X-44732Y-188812D01*
X-44663Y-188826D01*
X-44552D01*
X-44303Y-188812D01*
X-44205Y-188798D01*
X-44108Y-188770D01*
X-44039Y-188756D01*
X-43984Y-188743D01*
X-43942Y-188729D01*
X-43928D01*
X-43748Y-188632D01*
X-43609Y-188507D01*
X-43554Y-188465D01*
X-43512Y-188424D01*
X-43498Y-188396D01*
X-43484Y-188382D01*
X-43415Y-188285D01*
X-43346Y-188174D01*
X-43249Y-187966D01*
X-43221Y-187869D01*
X-43193Y-187799D01*
X-43179Y-187744D01*
Y-187730D01*
X-43151Y-187578D01*
X-43124Y-187411D01*
X-43110Y-187245D01*
X-43096Y-187106D01*
X-43082Y-186967D01*
Y-186870D01*
Y-186801D01*
Y-186773D01*
Y-186551D01*
X-43096Y-186357D01*
X-43124Y-186191D01*
X-43138Y-186038D01*
X-43165Y-185913D01*
X-43179Y-185830D01*
X-43193Y-185775D01*
Y-185761D01*
X-43235Y-185608D01*
X-43290Y-185483D01*
X-43346Y-185373D01*
X-43401Y-185275D01*
X-43443Y-185206D01*
X-43484Y-185151D01*
X-43498Y-185123D01*
X-43512Y-185109D01*
X-43595Y-185026D01*
X-43678Y-184956D01*
X-43831Y-184846D01*
X-43887Y-184818D01*
X-43928Y-184790D01*
X-43956Y-184776D01*
X-43970D01*
X-44164Y-184721D01*
X-44344Y-184693D01*
X-44427Y-184679D01*
D02*
G37*
G36*
X-21635Y-219228D02*
X-21732D01*
X-21967Y-219242D01*
X-22176Y-219284D01*
X-22342Y-219340D01*
X-22481Y-219395D01*
X-22592Y-219464D01*
X-22675Y-219520D01*
X-22716Y-219561D01*
X-22730Y-219575D01*
X-22841Y-219714D01*
X-22924Y-219880D01*
X-22980Y-220047D01*
X-23022Y-220213D01*
X-23049Y-220352D01*
X-23063Y-220477D01*
X-23077Y-220560D01*
Y-220574D01*
Y-220588D01*
X-20248D01*
X-20289Y-220338D01*
X-20345Y-220130D01*
X-20414Y-219950D01*
X-20498Y-219811D01*
X-20581Y-219700D01*
X-20636Y-219617D01*
X-20692Y-219575D01*
X-20705Y-219561D01*
X-20872Y-219450D01*
X-21038Y-219367D01*
X-21205Y-219312D01*
X-21371Y-219270D01*
X-21510Y-219242D01*
X-21635Y-219228D01*
D02*
G37*
G36*
X-10762Y-217550D02*
X-11594D01*
X-11816Y-217564D01*
X-12010Y-217578D01*
X-12163D01*
X-12287Y-217592D01*
X-12371Y-217606D01*
X-12426Y-217620D01*
X-12440D01*
X-12717Y-217689D01*
X-12842Y-217731D01*
X-12953Y-217759D01*
X-13036Y-217800D01*
X-13119Y-217828D01*
X-13161Y-217842D01*
X-13175Y-217855D01*
X-13425Y-217994D01*
X-13633Y-218161D01*
X-13799Y-218327D01*
X-13938Y-218480D01*
X-14049Y-218618D01*
X-14132Y-218743D01*
X-14174Y-218813D01*
X-14187Y-218826D01*
Y-218840D01*
X-14298Y-219090D01*
X-14382Y-219340D01*
X-14437Y-219589D01*
X-14479Y-219825D01*
X-14506Y-220033D01*
Y-220130D01*
X-14520Y-220199D01*
Y-220269D01*
Y-220310D01*
Y-220338D01*
Y-220352D01*
X-14506Y-220671D01*
X-14479Y-220962D01*
X-14423Y-221212D01*
X-14368Y-221420D01*
X-14312Y-221600D01*
X-14257Y-221725D01*
X-14229Y-221808D01*
X-14215Y-221822D01*
Y-221836D01*
X-14090Y-222044D01*
X-13952Y-222238D01*
X-13799Y-222404D01*
X-13647Y-222543D01*
X-13508Y-222640D01*
X-13397Y-222723D01*
X-13327Y-222779D01*
X-13314Y-222793D01*
X-13300D01*
X-13022Y-222917D01*
X-12898Y-222973D01*
X-12773Y-223015D01*
X-12676Y-223042D01*
X-12606Y-223056D01*
X-12551Y-223070D01*
X-12537D01*
X-12385Y-223098D01*
X-12190Y-223112D01*
X-11996Y-223125D01*
X-11788D01*
X-11608Y-223139D01*
X-10762D01*
Y-217550D01*
D02*
G37*
G36*
X20595Y-217342D02*
X20525D01*
X20387Y-217356D01*
X20262Y-217370D01*
X20054Y-217453D01*
X19873Y-217564D01*
X19721Y-217689D01*
X19610Y-217814D01*
X19527Y-217925D01*
X19485Y-218008D01*
X19471Y-218022D01*
Y-218036D01*
X19416Y-218174D01*
X19360Y-218327D01*
X19319Y-218507D01*
X19291Y-218688D01*
X19236Y-219076D01*
X19194Y-219450D01*
X19180Y-219631D01*
X19166Y-219797D01*
Y-219950D01*
X19152Y-220088D01*
Y-220199D01*
Y-220282D01*
Y-220338D01*
Y-220352D01*
Y-220643D01*
X19166Y-220907D01*
X19180Y-221156D01*
X19208Y-221392D01*
X19236Y-221600D01*
X19263Y-221794D01*
X19291Y-221961D01*
X19319Y-222113D01*
X19346Y-222252D01*
X19374Y-222363D01*
X19402Y-222460D01*
X19430Y-222529D01*
X19457Y-222585D01*
X19471Y-222640D01*
X19485Y-222654D01*
Y-222668D01*
X19554Y-222793D01*
X19624Y-222890D01*
X19693Y-222987D01*
X19776Y-223070D01*
X19957Y-223195D01*
X20123Y-223278D01*
X20276Y-223320D01*
X20400Y-223347D01*
X20498Y-223361D01*
X20525D01*
X20664Y-223347D01*
X20775Y-223334D01*
X20997Y-223250D01*
X21177Y-223139D01*
X21330Y-223015D01*
X21440Y-222890D01*
X21524Y-222779D01*
X21565Y-222696D01*
X21579Y-222682D01*
Y-222668D01*
X21635Y-222529D01*
X21690Y-222363D01*
X21760Y-222016D01*
X21815Y-221628D01*
X21857Y-221253D01*
X21871Y-221073D01*
X21884Y-220907D01*
Y-220754D01*
X21898Y-220629D01*
Y-220518D01*
Y-220435D01*
Y-220380D01*
Y-220366D01*
Y-220075D01*
X21884Y-219797D01*
X21871Y-219548D01*
X21857Y-219312D01*
X21829Y-219104D01*
X21801Y-218909D01*
X21773Y-218743D01*
X21746Y-218591D01*
X21718Y-218452D01*
X21690Y-218341D01*
X21662Y-218244D01*
X21635Y-218174D01*
X21621Y-218105D01*
X21607Y-218064D01*
X21593Y-218050D01*
Y-218036D01*
X21524Y-217911D01*
X21454Y-217800D01*
X21371Y-217717D01*
X21288Y-217634D01*
X21108Y-217509D01*
X20941Y-217426D01*
X20775Y-217384D01*
X20650Y-217356D01*
X20595Y-217342D01*
D02*
G37*
%LPD*%
M02*
