G04*
G04 #@! TF.GenerationSoftware,Altium Limited,Altium Designer,23.3.1 (30)*
G04*
G04 Layer_Color=16711935*
%FSLAX44Y44*%
%MOMM*%
G71*
G04*
G04 #@! TF.SameCoordinates,39CBC296-F970-41FA-A2E7-6093A4F5A77D*
G04*
G04*
G04 #@! TF.FilePolarity,Negative*
G04*
G01*
G75*
%ADD55C,1.7032*%
%ADD56R,1.7032X1.7032*%
%ADD57C,3.7032*%
%ADD58C,1.4032*%
%ADD59R,1.4032X1.4032*%
%ADD61R,1.7032X1.7032*%
%ADD62R,1.7032X2.2032*%
%ADD63O,1.7032X2.2032*%
%ADD64C,1.0032*%
D55*
X68580Y250190D02*
D03*
Y224790D02*
D03*
X93980Y250190D02*
D03*
Y224790D02*
D03*
X119380Y250190D02*
D03*
X219710Y-90170D02*
D03*
X194310D02*
D03*
X143510D02*
D03*
X209550Y71120D02*
D03*
Y45720D02*
D03*
X-64770Y-240030D02*
D03*
X-130810D02*
D03*
X130810D02*
D03*
X105410D02*
D03*
X80010D02*
D03*
X209550Y154940D02*
D03*
Y129540D02*
D03*
Y104140D02*
D03*
X177800Y154940D02*
D03*
Y129540D02*
D03*
Y104140D02*
D03*
D56*
X119380Y224790D02*
D03*
X168910Y-90170D02*
D03*
X-90170Y-240030D02*
D03*
X-156210D02*
D03*
X156210D02*
D03*
D57*
X-215000Y260000D02*
D03*
Y-240000D02*
D03*
X215000D02*
D03*
Y260000D02*
D03*
D58*
X222250Y-184150D02*
D03*
D59*
X196850D02*
D03*
D61*
X209550Y20320D02*
D03*
Y180340D02*
D03*
X177800D02*
D03*
D62*
X-119380Y-177800D02*
D03*
D63*
X-93980D02*
D03*
D64*
X53340Y184150D02*
D03*
X143510Y20320D02*
D03*
X2136Y182880D02*
D03*
X-6350Y172720D02*
D03*
X111760Y-107950D02*
D03*
M02*
