G04*
G04 #@! TF.GenerationSoftware,Altium Limited,Altium Designer,23.3.1 (30)*
G04*
G04 Layer_Color=128*
%FSLAX25Y25*%
%MOIN*%
G70*
G04*
G04 #@! TF.SameCoordinates,D2BD120D-7BFA-4985-A6C7-D6EA5F31A85F*
G04*
G04*
G04 #@! TF.FilePolarity,Positive*
G04*
G01*
G75*
%ADD83C,0.00200*%
D83*
X54728Y-35500D02*
X58272D01*
X56500Y-37272D02*
Y-33728D01*
X64728Y-35500D02*
X68272D01*
X66500Y-37272D02*
Y-33728D01*
X74728Y-35500D02*
X78272D01*
X76500Y-37272D02*
Y-33728D01*
X84728Y-35500D02*
X88272D01*
X86500Y-37272D02*
Y-33728D01*
X80728Y8000D02*
X84272D01*
X82500Y6228D02*
Y9772D01*
X80728Y18000D02*
X84272D01*
X82500Y16228D02*
Y19772D01*
X80728Y28000D02*
X84272D01*
X82500Y26228D02*
Y29772D01*
X68228Y41000D02*
X71772D01*
X70000Y39228D02*
Y42772D01*
X68228Y51000D02*
X71772D01*
X70000Y49228D02*
Y52772D01*
X68228Y61000D02*
X71772D01*
X70000Y59228D02*
Y62772D01*
X68228Y71000D02*
X71772D01*
X70000Y69228D02*
Y72772D01*
X80728Y41000D02*
X84272D01*
X82500Y39228D02*
Y42772D01*
X80728Y51000D02*
X84272D01*
X82500Y49228D02*
Y52772D01*
X80728Y61000D02*
X84272D01*
X82500Y59228D02*
Y62772D01*
X80728Y71000D02*
X84272D01*
X82500Y69228D02*
Y72772D01*
X24728Y102500D02*
X28272D01*
X26500Y100728D02*
Y104272D01*
X24728Y92500D02*
X28272D01*
X26500Y90728D02*
Y94272D01*
X34728Y102500D02*
X38272D01*
X36500Y100728D02*
Y104272D01*
X34728Y92500D02*
X38272D01*
X36500Y90728D02*
Y94272D01*
X44728Y102500D02*
X48272D01*
X46500Y100728D02*
Y104272D01*
X44728Y92500D02*
X48272D01*
X46500Y90728D02*
Y94272D01*
X-90551Y102362D02*
X-78740D01*
X-84646Y96457D02*
Y108268D01*
X-90551Y-94488D02*
X-78740D01*
X-84646Y-100394D02*
Y-88583D01*
X78740Y-94488D02*
X90551D01*
X84646Y-100394D02*
Y-88583D01*
X78740Y102362D02*
X90551D01*
X84646Y96457D02*
Y108268D01*
X85925Y-72500D02*
X89075D01*
X87500Y-74075D02*
Y-70925D01*
X75925Y-72500D02*
X79075D01*
X77500Y-74075D02*
Y-70925D01*
X-10500Y-34000D02*
X-7500D01*
X-9000Y-35500D02*
Y-32500D01*
X-10500Y-14000D02*
X-7500D01*
X-9000Y-15500D02*
Y-12500D01*
X-27272Y-94500D02*
X-23728D01*
X-25500Y-96272D02*
Y-92728D01*
X-37272Y-94500D02*
X-33728D01*
X-35500Y-96272D02*
Y-92728D01*
X-53272Y-94500D02*
X-49728D01*
X-51500Y-96272D02*
Y-92728D01*
X-63272Y-94500D02*
X-59728D01*
X-61500Y-96272D02*
Y-92728D01*
X59728Y-94500D02*
X63272D01*
X61500Y-96272D02*
Y-92728D01*
X49728Y-94500D02*
X53272D01*
X51500Y-96272D02*
Y-92728D01*
X39728Y-94500D02*
X43272D01*
X41500Y-96272D02*
Y-92728D01*
X29728Y-94500D02*
X33272D01*
X31500Y-96272D02*
Y-92728D01*
X-48575Y-70000D02*
X-45425D01*
X-47000Y-71575D02*
Y-68425D01*
X-38575Y-70000D02*
X-35425D01*
X-37000Y-71575D02*
Y-68425D01*
X-7831Y-46768D02*
X-6256D01*
X-7044Y-47555D02*
Y-45981D01*
X20525Y-29224D02*
X22100D01*
X21313Y-30012D02*
Y-28437D01*
X67225Y-1650D02*
X68800D01*
X68013Y-2437D02*
Y-862D01*
X67225Y-16324D02*
X68800D01*
X68013Y-17112D02*
Y-15537D01*
X67225Y-21924D02*
X68800D01*
X68013Y-22712D02*
Y-21137D01*
X37725Y-6024D02*
X39300D01*
X38513Y-6812D02*
Y-5237D01*
X37725Y-21524D02*
X39300D01*
X38513Y-22312D02*
Y-20737D01*
X52125Y8376D02*
X53700D01*
X52913Y7588D02*
Y9163D01*
X-79437Y66676D02*
X-77862D01*
X-78650Y65888D02*
Y67463D01*
X-86921Y59192D02*
X-85346D01*
X-86133Y58405D02*
Y59979D01*
X-3275Y75576D02*
X-1700D01*
X-2487Y74788D02*
Y76363D01*
X43137Y-42424D02*
X44712D01*
X43924Y-43212D02*
Y-41637D01*
X6725Y72476D02*
X8300D01*
X7513Y71688D02*
Y73263D01*
X27425Y65876D02*
X29000D01*
X28213Y65088D02*
Y66663D01*
X-4775Y69476D02*
X-3200D01*
X-3987Y68688D02*
Y70263D01*
X43213Y-42500D02*
X44787D01*
X44000Y-43288D02*
Y-41713D01*
M02*
