G04*
G04 #@! TF.GenerationSoftware,Altium Limited,Altium Designer,23.3.1 (30)*
G04*
G04 Layer_Color=32896*
%FSLAX25Y25*%
%MOIN*%
G70*
G04*
G04 #@! TF.SameCoordinates,D2BD120D-7BFA-4985-A6C7-D6EA5F31A85F*
G04*
G04*
G04 #@! TF.FilePolarity,Positive*
G04*
G01*
G75*
G36*
X13598Y62262D02*
X13836D01*
Y62023D01*
X14074D01*
Y61785D01*
X14312D01*
Y61309D01*
X14551D01*
Y60356D01*
X14312D01*
Y59879D01*
X14074D01*
Y59402D01*
X13598D01*
Y59164D01*
X13121D01*
Y58926D01*
X7641D01*
Y59164D01*
X7164D01*
Y59402D01*
X6688D01*
Y59641D01*
X6449D01*
Y60117D01*
X6211D01*
Y61547D01*
X6449D01*
Y61785D01*
X6688D01*
Y62023D01*
X6926D01*
Y62262D01*
X7164D01*
Y62500D01*
X13598D01*
Y62262D01*
D02*
G37*
G36*
X-7848Y60117D02*
X-7133D01*
Y59879D01*
X-6894D01*
Y59641D01*
X-6656D01*
Y59164D01*
X-6418D01*
Y57734D01*
X-6656D01*
Y57258D01*
X-6894D01*
Y57020D01*
X-7371D01*
Y56781D01*
X-22144D01*
Y57020D01*
X-22383D01*
Y57258D01*
X-22621D01*
Y57496D01*
X-22859D01*
Y57734D01*
X-23098D01*
Y59164D01*
X-22859D01*
Y59641D01*
X-22621D01*
Y59879D01*
X-22383D01*
Y60117D01*
X-21668D01*
Y60356D01*
X-7848D01*
Y60117D01*
D02*
G37*
G36*
X-26434D02*
X-25957D01*
Y59879D01*
X-25480D01*
Y59641D01*
X-25242D01*
Y59164D01*
X-25004D01*
Y57734D01*
X-25242D01*
Y57496D01*
X-25480D01*
Y57258D01*
X-25719D01*
Y57020D01*
X-25957D01*
Y56781D01*
X-29531D01*
Y57020D01*
X-29770D01*
Y57258D01*
X-30008D01*
Y57496D01*
X-30246D01*
Y58211D01*
X-30484D01*
Y58926D01*
X-30246D01*
Y59402D01*
X-30008D01*
Y59641D01*
X-29770D01*
Y59879D01*
X-29531D01*
Y60117D01*
X-28816D01*
Y60356D01*
X-26434D01*
Y60117D01*
D02*
G37*
G36*
X13359Y56781D02*
X13836D01*
Y56543D01*
X14074D01*
Y56305D01*
X14312D01*
Y55828D01*
X14551D01*
Y54637D01*
X14312D01*
Y54160D01*
X14074D01*
Y53922D01*
X13836D01*
Y53684D01*
X13359D01*
Y53445D01*
X7402D01*
Y53684D01*
X6926D01*
Y53922D01*
X6688D01*
Y54160D01*
X6449D01*
Y54637D01*
X6211D01*
Y55828D01*
X6449D01*
Y56305D01*
X6688D01*
Y56543D01*
X6926D01*
Y56781D01*
X7402D01*
Y57020D01*
X13359D01*
Y56781D01*
D02*
G37*
G36*
X-1891Y66789D02*
X-1414D01*
Y66551D01*
X-938D01*
Y66312D01*
X-699D01*
Y66074D01*
X-461D01*
Y65836D01*
X-223D01*
Y65598D01*
X16D01*
Y65121D01*
X254D01*
Y64883D01*
X492D01*
Y64168D01*
X730D01*
Y52731D01*
X492D01*
Y52254D01*
X254D01*
Y51777D01*
X16D01*
Y51301D01*
X-223D01*
Y51063D01*
X-461D01*
Y50824D01*
X-699D01*
Y50586D01*
X-1176D01*
Y50348D01*
X-1652D01*
Y50109D01*
X-2129D01*
Y49871D01*
X-23812D01*
Y50109D01*
X-24289D01*
Y50348D01*
X-24527D01*
Y50586D01*
X-24766D01*
Y51063D01*
X-25004D01*
Y52254D01*
X-24766D01*
Y52731D01*
X-24527D01*
Y52969D01*
X-24289D01*
Y53207D01*
X-23812D01*
Y53445D01*
X-3082D01*
Y53684D01*
X-2844D01*
Y63453D01*
X-33820D01*
Y63215D01*
X-34059D01*
Y53684D01*
X-33820D01*
Y53445D01*
X-29770D01*
Y53207D01*
X-29293D01*
Y52969D01*
X-29055D01*
Y52731D01*
X-28816D01*
Y52254D01*
X-28578D01*
Y51063D01*
X-28816D01*
Y50586D01*
X-29055D01*
Y50348D01*
X-29293D01*
Y50109D01*
X-29531D01*
Y49871D01*
X-34535D01*
Y50109D01*
X-35250D01*
Y50348D01*
X-35727D01*
Y50586D01*
X-35965D01*
Y50824D01*
X-36203D01*
Y51063D01*
X-36441D01*
Y51301D01*
X-36680D01*
Y51539D01*
X-36918D01*
Y52016D01*
X-37156D01*
Y52492D01*
X-37394D01*
Y53207D01*
X-37633D01*
Y63691D01*
X-37394D01*
Y64644D01*
X-37156D01*
Y65121D01*
X-36918D01*
Y65359D01*
X-36680D01*
Y65598D01*
X-36441D01*
Y66074D01*
X-35965D01*
Y66312D01*
X-35727D01*
Y66551D01*
X-35250D01*
Y66789D01*
X-34773D01*
Y67027D01*
X-1891D01*
Y66789D01*
D02*
G37*
G36*
X31707D02*
X32660D01*
Y66551D01*
X33375D01*
Y66312D01*
X33852D01*
Y66074D01*
X34328D01*
Y65836D01*
X34566D01*
Y65598D01*
X35043D01*
Y65359D01*
X35281D01*
Y65121D01*
X35519D01*
Y64883D01*
X35996D01*
Y64644D01*
X36234D01*
Y64406D01*
X36473D01*
Y64168D01*
X36711D01*
Y63691D01*
X36949D01*
Y63453D01*
X37187D01*
Y63215D01*
X37426D01*
Y62738D01*
X37664D01*
Y62500D01*
X37902D01*
Y62023D01*
X38141D01*
Y61309D01*
X38379D01*
Y60594D01*
X38617D01*
Y59879D01*
X38855D01*
Y56305D01*
X38617D01*
Y55352D01*
X38379D01*
Y55113D01*
Y54875D01*
Y54637D01*
X38141D01*
Y54160D01*
X37902D01*
Y53684D01*
X37664D01*
Y53207D01*
X37426D01*
Y52969D01*
X37187D01*
Y52492D01*
X36949D01*
Y52254D01*
X36711D01*
Y52016D01*
X36473D01*
Y51777D01*
X36234D01*
Y51539D01*
X35996D01*
Y51301D01*
X35758D01*
Y51063D01*
X35519D01*
Y50824D01*
X35281D01*
Y50586D01*
X34805D01*
Y50348D01*
X34566D01*
Y50109D01*
X34090D01*
Y49871D01*
X33613D01*
Y49633D01*
X33137D01*
Y49395D01*
X32422D01*
Y49156D01*
X31469D01*
Y48918D01*
X28133D01*
Y49156D01*
X27180D01*
Y49395D01*
X26465D01*
Y49633D01*
X25988D01*
Y49871D01*
X25512D01*
Y50109D01*
X25035D01*
Y50348D01*
X24797D01*
Y50586D01*
X24320D01*
Y50824D01*
X24082D01*
Y51063D01*
X23844D01*
Y51301D01*
X23606D01*
Y51539D01*
X23367D01*
Y51777D01*
X23129D01*
Y52016D01*
X22891D01*
Y52254D01*
X22652D01*
Y52492D01*
X22414D01*
Y52731D01*
X22176D01*
Y53207D01*
X21937D01*
Y53684D01*
X21699D01*
Y54160D01*
X21461D01*
Y54637D01*
X21223D01*
Y55352D01*
X20984D01*
Y56305D01*
X20746D01*
Y59879D01*
X20984D01*
Y60832D01*
X21223D01*
Y61309D01*
X21461D01*
Y62023D01*
X21699D01*
Y62500D01*
X21937D01*
Y62738D01*
X22176D01*
Y63215D01*
X22414D01*
Y63453D01*
X22652D01*
Y63691D01*
X22891D01*
Y64168D01*
X23129D01*
Y64406D01*
X23367D01*
Y64644D01*
X23606D01*
Y64883D01*
X23844D01*
Y65121D01*
X24320D01*
Y65359D01*
X24559D01*
Y65598D01*
X25035D01*
Y65836D01*
X25273D01*
Y66074D01*
X25750D01*
Y66312D01*
X26227D01*
Y66551D01*
X26941D01*
Y66789D01*
X27894D01*
Y67027D01*
X31707D01*
Y66789D01*
D02*
G37*
G36*
X44813Y46535D02*
X45051D01*
Y46297D01*
X45289D01*
Y46059D01*
X45527D01*
Y45820D01*
X45766D01*
Y45582D01*
X46004D01*
Y45344D01*
X46242D01*
Y45105D01*
X46481D01*
Y44867D01*
X46719D01*
Y44629D01*
X46957D01*
Y44391D01*
X47195D01*
Y44152D01*
X47434D01*
Y43914D01*
X47672D01*
Y43676D01*
X47910D01*
Y43437D01*
X48148D01*
Y43199D01*
X48387D01*
Y42961D01*
X48625D01*
Y42723D01*
X48863D01*
Y42484D01*
X49102D01*
Y42246D01*
X49340D01*
Y42008D01*
X49578D01*
Y41293D01*
X49816D01*
Y-25664D01*
X49578D01*
Y-26379D01*
X49340D01*
Y-26617D01*
X49102D01*
Y-26855D01*
X48863D01*
Y-27094D01*
X48625D01*
Y-27332D01*
X48387D01*
Y-27570D01*
X48148D01*
Y-27809D01*
X47910D01*
Y-28047D01*
X47672D01*
Y-28285D01*
X47434D01*
Y-28523D01*
X47195D01*
Y-28762D01*
X46957D01*
Y-29000D01*
X46719D01*
Y-29238D01*
X46481D01*
Y-29477D01*
X46242D01*
Y-29715D01*
X46004D01*
Y-29953D01*
X45766D01*
Y-30191D01*
X45527D01*
Y-30430D01*
X45289D01*
Y-30668D01*
X45051D01*
Y-30906D01*
X44574D01*
Y-31144D01*
X-44066D01*
Y-30906D01*
X-44543D01*
Y-30668D01*
X-44781D01*
Y-30430D01*
X-45020D01*
Y-30191D01*
X-45258D01*
Y-29953D01*
X-45496D01*
Y-29715D01*
X-45734D01*
Y-29477D01*
X-45973D01*
Y-29238D01*
X-46211D01*
Y-29000D01*
X-46449D01*
Y-28762D01*
X-46687D01*
Y-28523D01*
X-46926D01*
Y-28285D01*
X-47164D01*
Y-28047D01*
X-47402D01*
Y-27809D01*
X-47641D01*
Y-27570D01*
X-47879D01*
Y-27332D01*
X-48117D01*
Y-27094D01*
X-48355D01*
Y-26855D01*
X-48594D01*
Y-26617D01*
X-48832D01*
Y-26379D01*
X-49070D01*
Y-25664D01*
X-49309D01*
Y-17324D01*
X-49070D01*
Y-16609D01*
X-48832D01*
Y-16371D01*
X-48594D01*
Y-16133D01*
X-48355D01*
Y-15894D01*
X-47641D01*
Y-15656D01*
X-47164D01*
Y-15894D01*
X-46449D01*
Y-16133D01*
X-46211D01*
Y-16371D01*
X-45973D01*
Y-16848D01*
X-45734D01*
Y-24711D01*
X-45496D01*
Y-24949D01*
X-45258D01*
Y-25188D01*
X-45020D01*
Y-25426D01*
X-44781D01*
Y-25664D01*
X-44543D01*
Y-25902D01*
X-44305D01*
Y-26141D01*
X-44066D01*
Y-26379D01*
X-43828D01*
Y-26617D01*
X-43590D01*
Y-26855D01*
X-43352D01*
Y-27094D01*
X-43113D01*
Y-27332D01*
X-42875D01*
Y-27570D01*
X-36680D01*
Y-5172D01*
X-36441D01*
Y-4457D01*
X-36203D01*
Y-3980D01*
X-35965D01*
Y-3742D01*
X-35488D01*
Y-3504D01*
X-34297D01*
Y-3742D01*
X-33820D01*
Y-3980D01*
X-33582D01*
Y-4219D01*
X-33344D01*
Y-4457D01*
X-33105D01*
Y-27570D01*
X-23098D01*
Y-23519D01*
X-22859D01*
Y-22805D01*
X-22621D01*
Y-22566D01*
X-22383D01*
Y-22090D01*
X-22144D01*
Y-21852D01*
X-21906D01*
Y-21613D01*
X-21668D01*
Y-21375D01*
X-21191D01*
Y-21137D01*
X-20715D01*
Y-20898D01*
X-20238D01*
Y-20660D01*
X-13566D01*
Y-14465D01*
X-13328D01*
Y-13988D01*
X-13090D01*
Y-13512D01*
X-12852D01*
Y-13273D01*
X-12375D01*
Y-13035D01*
X-12137D01*
Y-12797D01*
X-11898D01*
Y-12559D01*
X-11660D01*
Y-12320D01*
X-11422D01*
Y-12082D01*
X-11184D01*
Y-11844D01*
X-10945D01*
Y-11605D01*
X-10469D01*
Y-11367D01*
X-10231D01*
Y-11129D01*
X-9992D01*
Y-10891D01*
X-9754D01*
Y-10652D01*
X-9516D01*
Y-10414D01*
X-9277D01*
Y-10176D01*
X-9039D01*
Y-9938D01*
X-8563D01*
Y-9699D01*
X-8324D01*
Y-9461D01*
X-8086D01*
Y-9223D01*
X-7848D01*
Y-8984D01*
X-7609D01*
Y-8746D01*
X-7371D01*
Y-8508D01*
X-7133D01*
Y-8269D01*
X-6894D01*
Y-8031D01*
X-6418D01*
Y-7793D01*
X-6180D01*
Y-7555D01*
X-5941D01*
Y-7316D01*
X-5703D01*
Y-7078D01*
X-5465D01*
Y-6840D01*
X-5227D01*
Y-6602D01*
X-4988D01*
Y-6363D01*
X-4512D01*
Y-6125D01*
X-4273D01*
Y-5887D01*
X-2606D01*
Y-6125D01*
X-1652D01*
Y-6363D01*
X-461D01*
Y-6602D01*
X492D01*
Y-6840D01*
X1445D01*
Y-7078D01*
X2637D01*
Y-7316D01*
X3590D01*
Y-7555D01*
X4543D01*
Y-7793D01*
X5734D01*
Y-8031D01*
X6688D01*
Y-8269D01*
X7641D01*
Y-8508D01*
X8832D01*
Y-8746D01*
X9785D01*
Y-8984D01*
X10023D01*
Y-9223D01*
X10500D01*
Y-9699D01*
X10738D01*
Y-9938D01*
X10977D01*
Y-10414D01*
X11215D01*
Y-10652D01*
X11453D01*
Y-10891D01*
X11691D01*
Y-11367D01*
X11930D01*
Y-11605D01*
X12168D01*
Y-12082D01*
X12406D01*
Y-12320D01*
X12644D01*
Y-12559D01*
X12883D01*
Y-13035D01*
X13121D01*
Y-13273D01*
X13359D01*
Y-13750D01*
X13598D01*
Y-13988D01*
X13836D01*
Y-14465D01*
X14074D01*
Y-20660D01*
X20746D01*
Y-20898D01*
X21223D01*
Y-21137D01*
X21699D01*
Y-21375D01*
X22176D01*
Y-21613D01*
X22414D01*
Y-21852D01*
X22652D01*
Y-22090D01*
X22891D01*
Y-22566D01*
X23129D01*
Y-22805D01*
X23367D01*
Y-23519D01*
X23606D01*
Y-27570D01*
X33613D01*
Y-4457D01*
X33852D01*
Y-4219D01*
X34090D01*
Y-3980D01*
X34328D01*
Y-3742D01*
X34805D01*
Y-3504D01*
X35996D01*
Y-3742D01*
X36234D01*
Y-3980D01*
X36711D01*
Y-4457D01*
X36949D01*
Y-5172D01*
X37187D01*
Y-27570D01*
X43383D01*
Y-27332D01*
X43621D01*
Y-27094D01*
X43859D01*
Y-26855D01*
X44098D01*
Y-26617D01*
X44336D01*
Y-26379D01*
X44574D01*
Y-26141D01*
X44813D01*
Y-25902D01*
X45051D01*
Y-25664D01*
X45289D01*
Y-25426D01*
X45527D01*
Y-25188D01*
X45766D01*
Y-24949D01*
X46004D01*
Y-24711D01*
X46242D01*
Y24375D01*
X46004D01*
Y24613D01*
X5734D01*
Y18894D01*
X5496D01*
Y18418D01*
X5258D01*
Y17941D01*
X4781D01*
Y17703D01*
X4305D01*
Y17465D01*
X730D01*
Y16988D01*
X492D01*
Y16273D01*
X254D01*
Y15559D01*
X16D01*
Y14605D01*
X-223D01*
Y13891D01*
X-461D01*
Y13176D01*
X-699D01*
Y12461D01*
X-938D01*
Y11746D01*
X-1176D01*
Y11270D01*
X-1414D01*
Y11031D01*
X-1652D01*
Y10793D01*
X-2129D01*
Y10555D01*
X-5465D01*
Y4598D01*
X-5703D01*
Y4121D01*
X-5941D01*
Y3883D01*
X-6180D01*
Y3644D01*
X-6656D01*
Y3406D01*
X-7848D01*
Y3644D01*
X-8324D01*
Y3883D01*
X-8563D01*
Y4121D01*
X-8801D01*
Y4598D01*
X-9039D01*
Y10555D01*
X-12375D01*
Y10793D01*
X-12852D01*
Y11031D01*
X-13090D01*
Y11270D01*
X-13328D01*
Y11746D01*
X-13566D01*
Y11984D01*
X-13805D01*
Y11746D01*
X-14043D01*
Y11508D01*
X-14520D01*
Y11270D01*
X-14996D01*
Y11031D01*
X-15473D01*
Y10793D01*
X-16187D01*
Y10555D01*
X-17855D01*
Y10316D01*
X-18094D01*
Y10555D01*
X-19762D01*
Y10793D01*
X-20477D01*
Y11031D01*
X-21191D01*
Y11270D01*
X-21668D01*
Y11508D01*
X-22144D01*
Y11746D01*
X-22621D01*
Y11984D01*
X-22859D01*
Y12223D01*
X-23336D01*
Y12461D01*
X-23574D01*
Y12699D01*
X-24051D01*
Y12937D01*
X-24289D01*
Y13176D01*
X-24766D01*
Y13414D01*
X-26910D01*
Y13176D01*
X-27625D01*
Y12937D01*
X-28340D01*
Y12699D01*
X-29055D01*
Y12461D01*
X-30008D01*
Y12223D01*
X-30961D01*
Y11984D01*
X-33344D01*
Y12223D01*
X-34059D01*
Y12461D01*
X-34535D01*
Y12699D01*
X-34773D01*
Y12937D01*
X-35250D01*
Y13176D01*
X-35488D01*
Y13414D01*
X-35727D01*
Y13652D01*
X-35965D01*
Y14129D01*
X-36203D01*
Y14367D01*
X-36441D01*
Y14605D01*
X-36680D01*
Y15082D01*
X-36918D01*
Y15559D01*
X-37156D01*
Y16512D01*
X-37394D01*
Y18894D01*
X-37156D01*
Y19609D01*
X-36918D01*
Y20324D01*
X-36680D01*
Y20801D01*
X-36441D01*
Y21039D01*
X-36203D01*
Y21516D01*
X-35965D01*
Y21754D01*
X-35727D01*
Y21992D01*
X-35488D01*
Y22230D01*
X-35250D01*
Y22707D01*
X-35012D01*
Y22945D01*
X-34773D01*
Y23184D01*
X-34535D01*
Y23422D01*
X-34059D01*
Y23660D01*
X-33820D01*
Y23898D01*
X-33582D01*
Y24137D01*
X-33344D01*
Y24375D01*
X-33105D01*
Y24613D01*
X-45496D01*
Y24375D01*
X-45734D01*
Y-11129D01*
X-45973D01*
Y-11605D01*
X-46211D01*
Y-11844D01*
X-46687D01*
Y-12082D01*
X-48355D01*
Y-11844D01*
X-48594D01*
Y-11605D01*
X-48832D01*
Y-11367D01*
X-49070D01*
Y-10652D01*
X-49309D01*
Y41293D01*
X-49070D01*
Y42008D01*
X-48832D01*
Y42246D01*
X-48594D01*
Y42484D01*
X-48355D01*
Y42723D01*
X-48117D01*
Y42961D01*
X-47879D01*
Y43199D01*
X-47641D01*
Y43437D01*
X-47402D01*
Y43676D01*
X-47164D01*
Y43914D01*
X-46926D01*
Y44152D01*
X-46687D01*
Y44391D01*
X-46449D01*
Y44629D01*
X-46211D01*
Y44867D01*
X-45973D01*
Y45105D01*
X-45734D01*
Y45344D01*
X-45496D01*
Y45582D01*
X-45258D01*
Y45820D01*
X-45020D01*
Y46059D01*
X-44781D01*
Y46297D01*
X-44543D01*
Y46535D01*
X-44305D01*
Y46773D01*
X44813D01*
Y46535D01*
D02*
G37*
G36*
X48387Y73223D02*
X48863D01*
Y72984D01*
X49102D01*
Y72746D01*
X49340D01*
Y72508D01*
X49578D01*
Y72269D01*
X49816D01*
Y72031D01*
X50055D01*
Y71793D01*
X50293D01*
Y71555D01*
X50531D01*
Y71316D01*
X50770D01*
Y71078D01*
X51008D01*
Y70840D01*
X51246D01*
Y70602D01*
X51484D01*
Y70363D01*
X51723D01*
Y70125D01*
X51961D01*
Y69887D01*
X52199D01*
Y69648D01*
X52438D01*
Y69410D01*
X52676D01*
Y69172D01*
X52914D01*
Y68934D01*
X53152D01*
Y68695D01*
X53391D01*
Y68457D01*
X53629D01*
Y68219D01*
X53867D01*
Y67980D01*
X54106D01*
Y67742D01*
X54344D01*
Y67504D01*
X54582D01*
Y67266D01*
X54820D01*
Y67027D01*
X55059D01*
Y66789D01*
X55297D01*
Y66551D01*
X55535D01*
Y66312D01*
X55773D01*
Y66074D01*
X56012D01*
Y65836D01*
X56250D01*
Y65598D01*
X56488D01*
Y65359D01*
X56727D01*
Y65121D01*
X56965D01*
Y64883D01*
X57203D01*
Y64644D01*
X57441D01*
Y64406D01*
X57680D01*
Y64168D01*
X57918D01*
Y63930D01*
X58156D01*
Y63691D01*
X58394D01*
Y63453D01*
X58633D01*
Y63215D01*
X58871D01*
Y62977D01*
X59109D01*
Y62738D01*
X59348D01*
Y62500D01*
X59586D01*
Y62262D01*
X59824D01*
Y62023D01*
X60062D01*
Y61785D01*
X60301D01*
Y61547D01*
X60539D01*
Y61309D01*
X60777D01*
Y61070D01*
X61016D01*
Y60594D01*
X61254D01*
Y-47348D01*
X61016D01*
Y-47824D01*
X60777D01*
Y-48063D01*
X60539D01*
Y-48301D01*
X60062D01*
Y-48539D01*
X38617D01*
Y-48301D01*
X38141D01*
Y-48063D01*
X37902D01*
Y-47824D01*
X37664D01*
Y-47586D01*
X37426D01*
Y-41391D01*
X-36918D01*
Y-47586D01*
X-37156D01*
Y-47824D01*
X-37394D01*
Y-48063D01*
X-37633D01*
Y-48301D01*
X-38109D01*
Y-48539D01*
X-59555D01*
Y-48301D01*
X-60031D01*
Y-48063D01*
X-60269D01*
Y-47824D01*
X-60508D01*
Y-47348D01*
X-60746D01*
Y60594D01*
X-60508D01*
Y61070D01*
X-60269D01*
Y61309D01*
X-60031D01*
Y61547D01*
X-59793D01*
Y61785D01*
X-59555D01*
Y62023D01*
X-59316D01*
Y62262D01*
X-59078D01*
Y62500D01*
X-58840D01*
Y62738D01*
X-58602D01*
Y62977D01*
X-58363D01*
Y63215D01*
X-58125D01*
Y63453D01*
X-57887D01*
Y63691D01*
X-57648D01*
Y63930D01*
X-57410D01*
Y64168D01*
X-57172D01*
Y64406D01*
X-56934D01*
Y64644D01*
X-56695D01*
Y64883D01*
X-56457D01*
Y65121D01*
X-56219D01*
Y65359D01*
X-55980D01*
Y65598D01*
X-55742D01*
Y65836D01*
X-55504D01*
Y66074D01*
X-55266D01*
Y66312D01*
X-55027D01*
Y66551D01*
X-54789D01*
Y66789D01*
X-54551D01*
Y67027D01*
X-54312D01*
Y67266D01*
X-54074D01*
Y67504D01*
X-53836D01*
Y67742D01*
X-53598D01*
Y67980D01*
X-53359D01*
Y68219D01*
X-53121D01*
Y68457D01*
X-52883D01*
Y68695D01*
X-52644D01*
Y68934D01*
X-52406D01*
Y69172D01*
X-52168D01*
Y69410D01*
X-51930D01*
Y69648D01*
X-51691D01*
Y69887D01*
X-51453D01*
Y70125D01*
X-51215D01*
Y70363D01*
X-50977D01*
Y70602D01*
X-50738D01*
Y70840D01*
X-50500D01*
Y71078D01*
X-50262D01*
Y71316D01*
X-50023D01*
Y71555D01*
X-49785D01*
Y71793D01*
X-49547D01*
Y72031D01*
X-49309D01*
Y72269D01*
X-49070D01*
Y72508D01*
X-48832D01*
Y72746D01*
X-48594D01*
Y72984D01*
X-48355D01*
Y73223D01*
X-47879D01*
Y73461D01*
X29324D01*
Y73223D01*
X29801D01*
Y72984D01*
X30039D01*
Y72746D01*
X30277D01*
Y72508D01*
X30516D01*
Y70840D01*
X30277D01*
Y70602D01*
X30039D01*
Y70363D01*
X29801D01*
Y70125D01*
X29324D01*
Y69887D01*
X-46687D01*
Y69648D01*
X-46926D01*
Y69410D01*
X-47164D01*
Y69172D01*
X-47402D01*
Y68934D01*
X-47641D01*
Y68695D01*
X-47879D01*
Y68457D01*
X-48117D01*
Y68219D01*
X-48355D01*
Y67980D01*
X-48594D01*
Y67742D01*
X-48832D01*
Y67504D01*
X-49070D01*
Y67266D01*
X-49309D01*
Y67027D01*
X-49547D01*
Y66789D01*
X-49785D01*
Y66551D01*
X-50023D01*
Y66312D01*
X-50262D01*
Y66074D01*
X-50500D01*
Y65836D01*
X-50738D01*
Y65598D01*
X-50977D01*
Y65359D01*
X-51215D01*
Y65121D01*
X-51453D01*
Y64883D01*
X-51691D01*
Y64644D01*
X-51930D01*
Y64406D01*
X-52168D01*
Y64168D01*
X-52406D01*
Y63930D01*
X-52644D01*
Y63691D01*
X-52883D01*
Y63453D01*
X-53121D01*
Y63215D01*
X-53359D01*
Y62977D01*
X-53598D01*
Y62738D01*
X-53836D01*
Y62500D01*
X-54074D01*
Y62262D01*
X-54312D01*
Y62023D01*
X-54551D01*
Y61785D01*
X-54789D01*
Y61547D01*
X-55027D01*
Y61309D01*
X-55266D01*
Y61070D01*
X-55504D01*
Y60832D01*
X-55742D01*
Y60594D01*
X-55980D01*
Y60356D01*
X-56219D01*
Y60117D01*
X-56457D01*
Y59879D01*
X-56695D01*
Y59641D01*
X-56934D01*
Y59402D01*
X-57172D01*
Y57020D01*
Y56781D01*
Y-44965D01*
X-40492D01*
Y-39246D01*
X-40254D01*
Y-38770D01*
X-40016D01*
Y-38293D01*
X-39777D01*
Y-38055D01*
X-39301D01*
Y-37816D01*
X39809D01*
Y-38055D01*
X40285D01*
Y-38293D01*
X40523D01*
Y-38770D01*
X40762D01*
Y-39246D01*
X41000D01*
Y-44965D01*
X57680D01*
Y59402D01*
X57441D01*
Y59641D01*
X57203D01*
Y59879D01*
X56965D01*
Y60117D01*
X56727D01*
Y60356D01*
X56488D01*
Y60594D01*
X56250D01*
Y60832D01*
X56012D01*
Y61070D01*
X55773D01*
Y61309D01*
X55535D01*
Y61547D01*
X55297D01*
Y61785D01*
X55059D01*
Y62023D01*
X54820D01*
Y62262D01*
X54582D01*
Y62500D01*
X54344D01*
Y62738D01*
X54106D01*
Y62977D01*
X53867D01*
Y63215D01*
X53629D01*
Y63453D01*
X53391D01*
Y63691D01*
X53152D01*
Y63930D01*
X52914D01*
Y64168D01*
X52676D01*
Y64406D01*
X52438D01*
Y64644D01*
X52199D01*
Y64883D01*
X51961D01*
Y65121D01*
X51723D01*
Y65359D01*
X51484D01*
Y65598D01*
X51246D01*
Y65836D01*
X51008D01*
Y66074D01*
X50770D01*
Y66312D01*
X50531D01*
Y66551D01*
X50293D01*
Y66789D01*
X50055D01*
Y67027D01*
X49816D01*
Y67266D01*
X49578D01*
Y67504D01*
X49340D01*
Y67742D01*
X49102D01*
Y67980D01*
X48863D01*
Y68219D01*
X48625D01*
Y68457D01*
X48387D01*
Y68695D01*
X48148D01*
Y68934D01*
X47910D01*
Y69172D01*
X47672D01*
Y69410D01*
X47434D01*
Y69648D01*
X47195D01*
Y69887D01*
X35281D01*
Y70125D01*
X34805D01*
Y70363D01*
X34566D01*
Y70602D01*
X34328D01*
Y71316D01*
X34090D01*
Y72031D01*
X34328D01*
Y72746D01*
X34566D01*
Y72984D01*
X34805D01*
Y73223D01*
X35281D01*
Y73461D01*
X48387D01*
Y73223D01*
D02*
G37*
G36*
X-748Y-45381D02*
X-398D01*
Y-45556D01*
X-224D01*
Y-45731D01*
X126D01*
Y-45906D01*
X476D01*
Y-46081D01*
X826D01*
Y-46256D01*
X1001D01*
Y-46431D01*
X1351D01*
Y-46606D01*
X1701D01*
Y-46781D01*
X2051D01*
Y-46956D01*
X2226D01*
Y-47131D01*
X2576D01*
Y-47306D01*
X2926D01*
Y-47481D01*
X3275D01*
Y-47656D01*
X3450D01*
Y-47831D01*
X3800D01*
Y-48006D01*
X4150D01*
Y-48180D01*
X4500D01*
Y-48355D01*
X4675D01*
Y-48530D01*
X5025D01*
Y-48705D01*
X5375D01*
Y-48880D01*
X5550D01*
Y-49055D01*
X5900D01*
Y-49230D01*
X6075D01*
Y-54129D01*
X6424D01*
Y-54303D01*
X6599D01*
Y-54479D01*
X6949D01*
Y-54653D01*
X7299D01*
Y-54828D01*
X7474D01*
Y-55003D01*
X7824D01*
Y-55178D01*
X8174D01*
Y-55353D01*
X8524D01*
Y-55528D01*
X8699D01*
Y-55703D01*
X9049D01*
Y-55878D01*
X9398D01*
Y-56053D01*
X9748D01*
Y-56228D01*
X9923D01*
Y-56403D01*
X10273D01*
Y-56578D01*
X10448D01*
Y-64800D01*
X10098D01*
Y-64975D01*
X9748D01*
Y-65150D01*
X9398D01*
Y-65325D01*
X9223D01*
Y-65500D01*
X8874D01*
Y-65675D01*
X8524D01*
Y-65850D01*
X8174D01*
Y-66025D01*
X7999D01*
Y-66200D01*
X7649D01*
Y-66375D01*
X7299D01*
Y-66550D01*
X7124D01*
Y-66725D01*
X6774D01*
Y-66900D01*
X6424D01*
Y-67075D01*
X6075D01*
Y-67249D01*
X5900D01*
Y-67424D01*
X5550D01*
Y-67599D01*
X5200D01*
Y-67774D01*
X4850D01*
Y-67949D01*
X4675D01*
Y-68124D01*
X4325D01*
Y-68299D01*
X3975D01*
Y-68474D01*
X3625D01*
Y-68649D01*
X3450D01*
Y-68474D01*
X3275D01*
Y-68299D01*
X2926D01*
Y-68124D01*
X2576D01*
Y-67949D01*
X2226D01*
Y-67774D01*
X2051D01*
Y-67599D01*
X1701D01*
Y-67424D01*
X1351D01*
Y-67249D01*
X1001D01*
Y-67075D01*
X826D01*
Y-66900D01*
X476D01*
Y-66725D01*
X126D01*
Y-66550D01*
X-224D01*
Y-66375D01*
X-398D01*
Y-66200D01*
X-748D01*
Y-66025D01*
X-923D01*
Y-66200D01*
X-1273D01*
Y-66375D01*
X-1448D01*
Y-66550D01*
X-1798D01*
Y-66725D01*
X-2148D01*
Y-66900D01*
X-2498D01*
Y-67075D01*
X-2673D01*
Y-67249D01*
X-3023D01*
Y-67424D01*
X-3373D01*
Y-67599D01*
X-3722D01*
Y-67774D01*
X-3897D01*
Y-67949D01*
X-4247D01*
Y-68124D01*
X-4597D01*
Y-68299D01*
X-4772D01*
Y-68474D01*
X-5122D01*
Y-68649D01*
X-5297D01*
Y-68474D01*
X-5647D01*
Y-68299D01*
X-5997D01*
Y-68124D01*
X-6346D01*
Y-67949D01*
X-6521D01*
Y-67774D01*
X-6871D01*
Y-67599D01*
X-7221D01*
Y-67424D01*
X-7571D01*
Y-67249D01*
X-7746D01*
Y-67075D01*
X-8096D01*
Y-66900D01*
X-8446D01*
Y-66725D01*
X-8796D01*
Y-66550D01*
X-8971D01*
Y-66375D01*
X-9321D01*
Y-66200D01*
X-9670D01*
Y-66025D01*
X-9845D01*
Y-65850D01*
X-10195D01*
Y-65675D01*
X-10545D01*
Y-65500D01*
X-10895D01*
Y-65325D01*
X-11070D01*
Y-65150D01*
X-11420D01*
Y-64975D01*
X-11770D01*
Y-64800D01*
X-12120D01*
Y-56578D01*
X-11945D01*
Y-56403D01*
X-11595D01*
Y-56228D01*
X-11420D01*
Y-56053D01*
X-11070D01*
Y-55878D01*
X-10720D01*
Y-55703D01*
X-10370D01*
Y-55528D01*
X-10195D01*
Y-55353D01*
X-9845D01*
Y-55178D01*
X-9496D01*
Y-55003D01*
X-9146D01*
Y-54828D01*
X-8971D01*
Y-54653D01*
X-8621D01*
Y-54479D01*
X-8271D01*
Y-54303D01*
X-8096D01*
Y-54129D01*
X-7746D01*
Y-49230D01*
X-7571D01*
Y-49055D01*
X-7396D01*
Y-48880D01*
X-7046D01*
Y-48705D01*
X-6696D01*
Y-48530D01*
X-6346D01*
Y-48355D01*
X-6172D01*
Y-48180D01*
X-5822D01*
Y-48006D01*
X-5472D01*
Y-47831D01*
X-5122D01*
Y-47656D01*
X-4947D01*
Y-47481D01*
X-4597D01*
Y-47306D01*
X-4247D01*
Y-47131D01*
X-4072D01*
Y-46956D01*
X-3722D01*
Y-46781D01*
X-3373D01*
Y-46606D01*
X-3023D01*
Y-46431D01*
X-2848D01*
Y-46256D01*
X-2498D01*
Y-46081D01*
X-2148D01*
Y-45906D01*
X-1798D01*
Y-45731D01*
X-1623D01*
Y-45556D01*
X-1273D01*
Y-45381D01*
X-923D01*
Y-45206D01*
X-748D01*
Y-45381D01*
D02*
G37*
G36*
X-9350Y-78696D02*
X-10251D01*
Y-78046D01*
X-9350D01*
Y-78696D01*
D02*
G37*
G36*
X-23453Y-78996D02*
X-23371Y-79007D01*
X-23295Y-79023D01*
X-23230Y-79040D01*
X-23175Y-79056D01*
X-23137Y-79072D01*
X-23110Y-79083D01*
X-23099Y-79089D01*
X-23022Y-79127D01*
X-22946Y-79171D01*
X-22875Y-79220D01*
X-22815Y-79263D01*
X-22760Y-79302D01*
X-22716Y-79334D01*
X-22689Y-79356D01*
X-22678Y-79362D01*
Y-79072D01*
X-21821D01*
Y-81731D01*
X-22678D01*
Y-79842D01*
X-22749Y-79799D01*
X-22815Y-79766D01*
X-22842Y-79749D01*
X-22864Y-79744D01*
X-22880Y-79733D01*
X-22886D01*
X-22973Y-79700D01*
X-23017Y-79689D01*
X-23055Y-79684D01*
X-23088Y-79678D01*
X-23186D01*
X-23235Y-79684D01*
X-23279Y-79689D01*
X-23312Y-79700D01*
X-23339Y-79706D01*
X-23355Y-79717D01*
X-23366Y-79722D01*
X-23371D01*
X-23432Y-79760D01*
X-23470Y-79799D01*
X-23497Y-79831D01*
X-23503Y-79842D01*
Y-79848D01*
X-23530Y-79919D01*
X-23546Y-79990D01*
X-23552Y-80017D01*
X-23557Y-80044D01*
Y-80061D01*
Y-80066D01*
X-23563Y-80121D01*
Y-80175D01*
X-23568Y-80230D01*
Y-80285D01*
Y-80328D01*
Y-80366D01*
Y-80388D01*
Y-80399D01*
Y-81731D01*
X-24425D01*
Y-79842D01*
X-24524Y-79788D01*
X-24567Y-79766D01*
X-24600Y-79744D01*
X-24633Y-79733D01*
X-24655Y-79722D01*
X-24666Y-79717D01*
X-24671D01*
X-24747Y-79695D01*
X-24813Y-79684D01*
X-24840Y-79678D01*
X-24933D01*
X-24982Y-79684D01*
X-25026Y-79689D01*
X-25059Y-79700D01*
X-25086Y-79706D01*
X-25108Y-79717D01*
X-25119Y-79722D01*
X-25124D01*
X-25184Y-79760D01*
X-25223Y-79799D01*
X-25250Y-79831D01*
X-25255Y-79842D01*
Y-79848D01*
X-25277Y-79919D01*
X-25293Y-79990D01*
X-25299Y-80017D01*
X-25304Y-80044D01*
Y-80061D01*
Y-80066D01*
X-25310Y-80121D01*
Y-80175D01*
X-25315Y-80230D01*
Y-80285D01*
Y-80328D01*
Y-80366D01*
Y-80388D01*
Y-80399D01*
Y-81731D01*
X-26173D01*
Y-80001D01*
Y-79913D01*
X-26162Y-79826D01*
X-26151Y-79749D01*
X-26140Y-79678D01*
X-26123Y-79607D01*
X-26101Y-79547D01*
X-26080Y-79493D01*
X-26063Y-79444D01*
X-26041Y-79400D01*
X-26020Y-79362D01*
X-26003Y-79329D01*
X-25981Y-79302D01*
X-25971Y-79280D01*
X-25960Y-79263D01*
X-25949Y-79258D01*
Y-79252D01*
X-25905Y-79209D01*
X-25856Y-79165D01*
X-25752Y-79100D01*
X-25643Y-79056D01*
X-25539Y-79023D01*
X-25441Y-79001D01*
X-25403Y-78996D01*
X-25364D01*
X-25337Y-78990D01*
X-25293D01*
X-25206Y-78996D01*
X-25119Y-79012D01*
X-25042Y-79029D01*
X-24966Y-79050D01*
X-24906Y-79078D01*
X-24862Y-79094D01*
X-24829Y-79111D01*
X-24824Y-79116D01*
X-24818D01*
X-24726Y-79165D01*
X-24638Y-79220D01*
X-24556Y-79280D01*
X-24480Y-79334D01*
X-24414Y-79378D01*
X-24365Y-79422D01*
X-24332Y-79444D01*
X-24327Y-79454D01*
X-24322D01*
X-24278Y-79373D01*
X-24223Y-79307D01*
X-24169Y-79247D01*
X-24120Y-79198D01*
X-24076Y-79160D01*
X-24038Y-79132D01*
X-24016Y-79116D01*
X-24005Y-79111D01*
X-23929Y-79072D01*
X-23846Y-79040D01*
X-23770Y-79018D01*
X-23699Y-79007D01*
X-23634Y-78996D01*
X-23584Y-78990D01*
X-23541D01*
X-23453Y-78996D01*
D02*
G37*
G36*
X21717Y-78996D02*
X21821Y-79007D01*
X21914Y-79012D01*
X21990Y-79023D01*
X22050Y-79034D01*
X22072D01*
X22088Y-79040D01*
X22105D01*
X22208Y-79056D01*
X22301Y-79072D01*
X22372Y-79089D01*
X22432Y-79100D01*
X22476Y-79111D01*
X22509Y-79122D01*
X22531Y-79127D01*
X22536D01*
Y-79766D01*
X22460D01*
X22416Y-79749D01*
X22361Y-79733D01*
X22252Y-79695D01*
X22203Y-79678D01*
X22159Y-79662D01*
X22132Y-79657D01*
X22121Y-79651D01*
X22034Y-79624D01*
X21947Y-79607D01*
X21870Y-79591D01*
X21804Y-79586D01*
X21750Y-79580D01*
X21706Y-79575D01*
X21668D01*
X21542Y-79580D01*
X21439Y-79586D01*
X21346Y-79602D01*
X21275Y-79618D01*
X21215Y-79635D01*
X21177Y-79646D01*
X21149Y-79657D01*
X21144Y-79662D01*
X21084Y-79700D01*
X21040Y-79744D01*
X21007Y-79793D01*
X20986Y-79848D01*
X20975Y-79891D01*
X20964Y-79930D01*
Y-79957D01*
Y-79968D01*
Y-79979D01*
X21100Y-79990D01*
X21237Y-80001D01*
X21357Y-80011D01*
X21466Y-80022D01*
X21559Y-80033D01*
X21597Y-80039D01*
X21630D01*
X21657Y-80044D01*
X21674Y-80050D01*
X21690D01*
X21815Y-80066D01*
X21930Y-80093D01*
X22028Y-80115D01*
X22110Y-80142D01*
X22181Y-80164D01*
X22230Y-80186D01*
X22263Y-80197D01*
X22269Y-80203D01*
X22274D01*
X22361Y-80246D01*
X22432Y-80290D01*
X22498Y-80339D01*
X22547Y-80388D01*
X22591Y-80426D01*
X22624Y-80459D01*
X22640Y-80481D01*
X22645Y-80492D01*
X22689Y-80563D01*
X22716Y-80645D01*
X22738Y-80721D01*
X22755Y-80798D01*
X22765Y-80863D01*
X22771Y-80918D01*
Y-80940D01*
Y-80956D01*
Y-80962D01*
Y-80967D01*
X22765Y-81033D01*
X22760Y-81098D01*
X22733Y-81213D01*
X22689Y-81316D01*
X22645Y-81404D01*
X22602Y-81475D01*
X22558Y-81524D01*
X22531Y-81557D01*
X22520Y-81562D01*
Y-81568D01*
X22471Y-81611D01*
X22416Y-81644D01*
X22312Y-81704D01*
X22208Y-81742D01*
X22105Y-81775D01*
X22017Y-81791D01*
X21979Y-81797D01*
X21947D01*
X21925Y-81802D01*
X21886D01*
X21772Y-81797D01*
X21723Y-81791D01*
X21679Y-81786D01*
X21641D01*
X21613Y-81780D01*
X21597Y-81775D01*
X21592D01*
X21493Y-81753D01*
X21450Y-81737D01*
X21411Y-81726D01*
X21379Y-81709D01*
X21351Y-81704D01*
X21335Y-81693D01*
X21329D01*
X21259Y-81655D01*
X21198Y-81617D01*
X21177Y-81606D01*
X21155Y-81589D01*
X21144Y-81584D01*
X21138Y-81578D01*
X21067Y-81524D01*
X21013Y-81486D01*
X20991Y-81475D01*
X20975Y-81464D01*
X20969Y-81453D01*
X20964D01*
Y-81731D01*
X20117D01*
Y-79919D01*
X20123Y-79831D01*
X20134Y-79749D01*
X20150Y-79678D01*
X20166Y-79607D01*
X20194Y-79547D01*
X20221Y-79487D01*
X20248Y-79438D01*
X20281Y-79389D01*
X20314Y-79351D01*
X20341Y-79318D01*
X20369Y-79285D01*
X20396Y-79263D01*
X20412Y-79242D01*
X20429Y-79231D01*
X20439Y-79220D01*
X20445D01*
X20511Y-79181D01*
X20582Y-79143D01*
X20663Y-79111D01*
X20745Y-79089D01*
X20920Y-79045D01*
X21089Y-79018D01*
X21171Y-79007D01*
X21248Y-79001D01*
X21313Y-78996D01*
X21373D01*
X21422Y-78990D01*
X21608D01*
X21717Y-78996D01*
D02*
G37*
G36*
X15597D02*
X15700Y-79007D01*
X15793Y-79012D01*
X15869Y-79023D01*
X15930Y-79034D01*
X15951D01*
X15968Y-79040D01*
X15984D01*
X16088Y-79056D01*
X16181Y-79072D01*
X16252Y-79089D01*
X16312Y-79100D01*
X16355Y-79111D01*
X16388Y-79122D01*
X16410Y-79127D01*
X16416D01*
Y-79766D01*
X16339D01*
X16295Y-79749D01*
X16241Y-79733D01*
X16132Y-79695D01*
X16082Y-79678D01*
X16039Y-79662D01*
X16011Y-79657D01*
X16001Y-79651D01*
X15913Y-79624D01*
X15826Y-79607D01*
X15749Y-79591D01*
X15684Y-79586D01*
X15629Y-79580D01*
X15586Y-79575D01*
X15547D01*
X15422Y-79580D01*
X15318Y-79586D01*
X15225Y-79602D01*
X15154Y-79618D01*
X15094Y-79635D01*
X15056Y-79646D01*
X15029Y-79657D01*
X15023Y-79662D01*
X14963Y-79700D01*
X14920Y-79744D01*
X14887Y-79793D01*
X14865Y-79848D01*
X14854Y-79891D01*
X14843Y-79930D01*
Y-79957D01*
Y-79968D01*
Y-79979D01*
X14979Y-79990D01*
X15116Y-80001D01*
X15236Y-80011D01*
X15345Y-80022D01*
X15438Y-80033D01*
X15476Y-80039D01*
X15509D01*
X15536Y-80044D01*
X15553Y-80050D01*
X15569D01*
X15695Y-80066D01*
X15809Y-80093D01*
X15908Y-80115D01*
X15990Y-80142D01*
X16061Y-80164D01*
X16110Y-80186D01*
X16142Y-80197D01*
X16148Y-80203D01*
X16153D01*
X16241Y-80246D01*
X16312Y-80290D01*
X16377Y-80339D01*
X16426Y-80388D01*
X16470Y-80426D01*
X16503Y-80459D01*
X16519Y-80481D01*
X16525Y-80492D01*
X16568Y-80563D01*
X16596Y-80645D01*
X16617Y-80721D01*
X16634Y-80798D01*
X16645Y-80863D01*
X16650Y-80918D01*
Y-80940D01*
Y-80956D01*
Y-80962D01*
Y-80967D01*
X16645Y-81033D01*
X16639Y-81098D01*
X16612Y-81213D01*
X16568Y-81316D01*
X16525Y-81404D01*
X16481Y-81475D01*
X16437Y-81524D01*
X16410Y-81557D01*
X16399Y-81562D01*
Y-81568D01*
X16350Y-81611D01*
X16295Y-81644D01*
X16192Y-81704D01*
X16088Y-81742D01*
X15984Y-81775D01*
X15897Y-81791D01*
X15859Y-81797D01*
X15826D01*
X15804Y-81802D01*
X15766D01*
X15651Y-81797D01*
X15602Y-81791D01*
X15558Y-81786D01*
X15520D01*
X15493Y-81780D01*
X15476Y-81775D01*
X15471D01*
X15373Y-81753D01*
X15329Y-81737D01*
X15291Y-81726D01*
X15258Y-81709D01*
X15231Y-81704D01*
X15214Y-81693D01*
X15209D01*
X15138Y-81655D01*
X15078Y-81617D01*
X15056Y-81606D01*
X15034Y-81589D01*
X15023Y-81584D01*
X15018Y-81578D01*
X14947Y-81524D01*
X14892Y-81486D01*
X14870Y-81475D01*
X14854Y-81464D01*
X14849Y-81453D01*
X14843D01*
Y-81731D01*
X13997D01*
Y-79919D01*
X14002Y-79831D01*
X14013Y-79749D01*
X14029Y-79678D01*
X14046Y-79607D01*
X14073Y-79547D01*
X14100Y-79487D01*
X14128Y-79438D01*
X14161Y-79389D01*
X14193Y-79351D01*
X14221Y-79318D01*
X14248Y-79285D01*
X14275Y-79263D01*
X14292Y-79242D01*
X14308Y-79231D01*
X14319Y-79220D01*
X14324D01*
X14390Y-79181D01*
X14461Y-79143D01*
X14543Y-79111D01*
X14625Y-79089D01*
X14799Y-79045D01*
X14969Y-79018D01*
X15051Y-79007D01*
X15127Y-79001D01*
X15192Y-78996D01*
X15252D01*
X15302Y-78990D01*
X15487D01*
X15597Y-78996D01*
D02*
G37*
G36*
X8613D02*
X8717Y-79007D01*
X8810Y-79012D01*
X8886Y-79023D01*
X8946Y-79034D01*
X8968D01*
X8984Y-79040D01*
X9001D01*
X9105Y-79056D01*
X9197Y-79072D01*
X9268Y-79089D01*
X9328Y-79100D01*
X9372Y-79111D01*
X9405Y-79122D01*
X9427Y-79127D01*
X9432D01*
Y-79766D01*
X9356D01*
X9312Y-79749D01*
X9257Y-79733D01*
X9148Y-79695D01*
X9099Y-79678D01*
X9055Y-79662D01*
X9028Y-79657D01*
X9017Y-79651D01*
X8930Y-79624D01*
X8843Y-79607D01*
X8766Y-79591D01*
X8700Y-79586D01*
X8646Y-79580D01*
X8602Y-79575D01*
X8564D01*
X8438Y-79580D01*
X8335Y-79586D01*
X8242Y-79602D01*
X8171Y-79618D01*
X8111Y-79635D01*
X8073Y-79646D01*
X8045Y-79657D01*
X8040Y-79662D01*
X7980Y-79700D01*
X7936Y-79744D01*
X7903Y-79793D01*
X7881Y-79848D01*
X7871Y-79891D01*
X7860Y-79930D01*
Y-79957D01*
Y-79968D01*
Y-79979D01*
X7996Y-79990D01*
X8133Y-80001D01*
X8253Y-80011D01*
X8362Y-80022D01*
X8455Y-80033D01*
X8493Y-80039D01*
X8526D01*
X8553Y-80044D01*
X8569Y-80050D01*
X8586D01*
X8711Y-80066D01*
X8826Y-80093D01*
X8924Y-80115D01*
X9006Y-80142D01*
X9077Y-80164D01*
X9126Y-80186D01*
X9159Y-80197D01*
X9165Y-80203D01*
X9170D01*
X9257Y-80246D01*
X9328Y-80290D01*
X9394Y-80339D01*
X9443Y-80388D01*
X9487Y-80426D01*
X9520Y-80459D01*
X9536Y-80481D01*
X9541Y-80492D01*
X9585Y-80563D01*
X9612Y-80645D01*
X9634Y-80721D01*
X9651Y-80798D01*
X9662Y-80863D01*
X9667Y-80918D01*
Y-80940D01*
Y-80956D01*
Y-80962D01*
Y-80967D01*
X9662Y-81033D01*
X9656Y-81098D01*
X9629Y-81213D01*
X9585Y-81316D01*
X9541Y-81404D01*
X9498Y-81475D01*
X9454Y-81524D01*
X9427Y-81557D01*
X9416Y-81562D01*
Y-81568D01*
X9367Y-81611D01*
X9312Y-81644D01*
X9208Y-81704D01*
X9105Y-81742D01*
X9001Y-81775D01*
X8913Y-81791D01*
X8875Y-81797D01*
X8843D01*
X8821Y-81802D01*
X8782D01*
X8668Y-81797D01*
X8619Y-81791D01*
X8575Y-81786D01*
X8537D01*
X8509Y-81780D01*
X8493Y-81775D01*
X8488D01*
X8389Y-81753D01*
X8346Y-81737D01*
X8307Y-81726D01*
X8275Y-81709D01*
X8247Y-81704D01*
X8231Y-81693D01*
X8225D01*
X8155Y-81655D01*
X8095Y-81617D01*
X8073Y-81606D01*
X8051Y-81589D01*
X8040Y-81584D01*
X8034Y-81578D01*
X7963Y-81524D01*
X7909Y-81486D01*
X7887Y-81475D01*
X7871Y-81464D01*
X7865Y-81453D01*
X7860D01*
Y-81731D01*
X7013D01*
Y-79919D01*
X7019Y-79831D01*
X7030Y-79749D01*
X7046Y-79678D01*
X7062Y-79607D01*
X7090Y-79547D01*
X7117Y-79487D01*
X7144Y-79438D01*
X7177Y-79389D01*
X7210Y-79351D01*
X7237Y-79318D01*
X7265Y-79285D01*
X7292Y-79263D01*
X7308Y-79242D01*
X7325Y-79231D01*
X7335Y-79220D01*
X7341D01*
X7406Y-79181D01*
X7478Y-79143D01*
X7559Y-79111D01*
X7641Y-79089D01*
X7816Y-79045D01*
X7985Y-79018D01*
X8067Y-79007D01*
X8144Y-79001D01*
X8209Y-78996D01*
X8269D01*
X8318Y-78990D01*
X8504D01*
X8613Y-78996D01*
D02*
G37*
G36*
X2957D02*
X3060Y-79007D01*
X3153Y-79012D01*
X3230Y-79023D01*
X3290Y-79034D01*
X3311D01*
X3328Y-79040D01*
X3344D01*
X3448Y-79056D01*
X3541Y-79072D01*
X3612Y-79089D01*
X3672Y-79100D01*
X3715Y-79111D01*
X3748Y-79122D01*
X3770Y-79127D01*
X3776D01*
Y-79766D01*
X3699D01*
X3655Y-79749D01*
X3601Y-79733D01*
X3492Y-79695D01*
X3443Y-79678D01*
X3399Y-79662D01*
X3371Y-79657D01*
X3361Y-79651D01*
X3273Y-79624D01*
X3186Y-79607D01*
X3109Y-79591D01*
X3044Y-79586D01*
X2989Y-79580D01*
X2946Y-79575D01*
X2908D01*
X2782Y-79580D01*
X2678Y-79586D01*
X2585Y-79602D01*
X2514Y-79618D01*
X2454Y-79635D01*
X2416Y-79646D01*
X2389Y-79657D01*
X2383Y-79662D01*
X2323Y-79700D01*
X2280Y-79744D01*
X2247Y-79793D01*
X2225Y-79848D01*
X2214Y-79891D01*
X2203Y-79930D01*
Y-79957D01*
Y-79968D01*
Y-79979D01*
X2340Y-79990D01*
X2476Y-80001D01*
X2596Y-80011D01*
X2705Y-80022D01*
X2798Y-80033D01*
X2836Y-80039D01*
X2869D01*
X2897Y-80044D01*
X2913Y-80050D01*
X2929D01*
X3055Y-80066D01*
X3170Y-80093D01*
X3268Y-80115D01*
X3350Y-80142D01*
X3421Y-80164D01*
X3470Y-80186D01*
X3503Y-80197D01*
X3508Y-80203D01*
X3514D01*
X3601Y-80246D01*
X3672Y-80290D01*
X3737Y-80339D01*
X3787Y-80388D01*
X3830Y-80426D01*
X3863Y-80459D01*
X3879Y-80481D01*
X3885Y-80492D01*
X3929Y-80563D01*
X3956Y-80645D01*
X3978Y-80721D01*
X3994Y-80798D01*
X4005Y-80863D01*
X4010Y-80918D01*
Y-80940D01*
Y-80956D01*
Y-80962D01*
Y-80967D01*
X4005Y-81033D01*
X3999Y-81098D01*
X3972Y-81213D01*
X3929Y-81316D01*
X3885Y-81404D01*
X3841Y-81475D01*
X3797Y-81524D01*
X3770Y-81557D01*
X3759Y-81562D01*
Y-81568D01*
X3710Y-81611D01*
X3655Y-81644D01*
X3552Y-81704D01*
X3448Y-81742D01*
X3344Y-81775D01*
X3257Y-81791D01*
X3219Y-81797D01*
X3186D01*
X3164Y-81802D01*
X3126D01*
X3011Y-81797D01*
X2962Y-81791D01*
X2918Y-81786D01*
X2880D01*
X2853Y-81780D01*
X2836Y-81775D01*
X2831D01*
X2733Y-81753D01*
X2689Y-81737D01*
X2651Y-81726D01*
X2618Y-81709D01*
X2591Y-81704D01*
X2574Y-81693D01*
X2569D01*
X2498Y-81655D01*
X2438Y-81617D01*
X2416Y-81606D01*
X2394Y-81589D01*
X2383Y-81584D01*
X2378Y-81578D01*
X2307Y-81524D01*
X2252Y-81486D01*
X2230Y-81475D01*
X2214Y-81464D01*
X2209Y-81453D01*
X2203D01*
Y-81731D01*
X1357D01*
Y-79919D01*
X1362Y-79831D01*
X1373Y-79749D01*
X1390Y-79678D01*
X1406Y-79607D01*
X1433Y-79547D01*
X1460Y-79487D01*
X1488Y-79438D01*
X1521Y-79389D01*
X1553Y-79351D01*
X1581Y-79318D01*
X1608Y-79285D01*
X1635Y-79263D01*
X1652Y-79242D01*
X1668Y-79231D01*
X1679Y-79220D01*
X1684D01*
X1750Y-79181D01*
X1821Y-79143D01*
X1903Y-79111D01*
X1985Y-79089D01*
X2159Y-79045D01*
X2329Y-79018D01*
X2411Y-79007D01*
X2487Y-79001D01*
X2553Y-78996D01*
X2613D01*
X2662Y-78990D01*
X2847D01*
X2957Y-78996D01*
D02*
G37*
G36*
X13167Y-81731D02*
X12255D01*
Y-80585D01*
X12048Y-80323D01*
X10999Y-81731D01*
X9874D01*
X11321Y-79837D01*
X9945Y-78204D01*
X11005D01*
X12255Y-79799D01*
Y-78204D01*
X13167D01*
Y-81731D01*
D02*
G37*
G36*
X-6899Y-81731D02*
X-7865D01*
X-8897Y-79072D01*
X-8013D01*
X-7401Y-80907D01*
X-6779Y-79072D01*
X-5883D01*
X-6899Y-81731D01*
D02*
G37*
G36*
X-12277Y-78996D02*
X-12168Y-79001D01*
X-12069Y-79018D01*
X-11982Y-79029D01*
X-11906Y-79045D01*
X-11851Y-79061D01*
X-11829Y-79067D01*
X-11813D01*
X-11807Y-79072D01*
X-11802D01*
X-11698Y-79105D01*
X-11605Y-79143D01*
X-11518Y-79181D01*
X-11447Y-79225D01*
X-11387Y-79258D01*
X-11343Y-79291D01*
X-11316Y-79313D01*
X-11305Y-79318D01*
X-11229Y-79389D01*
X-11157Y-79466D01*
X-11097Y-79542D01*
X-11048Y-79613D01*
X-11005Y-79673D01*
X-10977Y-79728D01*
X-10961Y-79760D01*
X-10955Y-79766D01*
Y-79771D01*
X-10917Y-79875D01*
X-10885Y-79984D01*
X-10863Y-80093D01*
X-10852Y-80192D01*
X-10841Y-80279D01*
Y-80317D01*
X-10835Y-80350D01*
Y-80372D01*
Y-80394D01*
Y-80405D01*
Y-80410D01*
X-10841Y-80541D01*
X-10852Y-80656D01*
X-10874Y-80765D01*
X-10895Y-80852D01*
X-10912Y-80929D01*
X-10934Y-80983D01*
X-10939Y-81005D01*
X-10945Y-81022D01*
X-10950Y-81027D01*
Y-81033D01*
X-10999Y-81125D01*
X-11048Y-81213D01*
X-11103Y-81284D01*
X-11157Y-81344D01*
X-11207Y-81398D01*
X-11245Y-81431D01*
X-11267Y-81458D01*
X-11278Y-81464D01*
X-11360Y-81524D01*
X-11447Y-81578D01*
X-11529Y-81622D01*
X-11605Y-81655D01*
X-11676Y-81688D01*
X-11725Y-81704D01*
X-11747Y-81709D01*
X-11764Y-81715D01*
X-11769Y-81720D01*
X-11774D01*
X-11884Y-81748D01*
X-11998Y-81770D01*
X-12102Y-81780D01*
X-12200Y-81791D01*
X-12288Y-81797D01*
X-12326Y-81802D01*
X-12512D01*
X-12599Y-81791D01*
X-12681Y-81786D01*
X-12752Y-81775D01*
X-12812Y-81764D01*
X-12856Y-81759D01*
X-12883Y-81748D01*
X-12894D01*
X-12976Y-81726D01*
X-13058Y-81704D01*
X-13129Y-81677D01*
X-13189Y-81655D01*
X-13243Y-81633D01*
X-13287Y-81617D01*
X-13309Y-81606D01*
X-13320Y-81600D01*
Y-80869D01*
X-13194D01*
X-13156Y-80907D01*
X-13118Y-80940D01*
X-13090Y-80962D01*
X-13085Y-80972D01*
X-13079D01*
X-13030Y-81011D01*
X-12987Y-81038D01*
X-12954Y-81060D01*
X-12948Y-81071D01*
X-12943D01*
X-12872Y-81103D01*
X-12801Y-81131D01*
X-12768Y-81142D01*
X-12746Y-81153D01*
X-12730Y-81158D01*
X-12724D01*
X-12626Y-81174D01*
X-12577Y-81185D01*
X-12533D01*
X-12495Y-81191D01*
X-12441D01*
X-12315Y-81180D01*
X-12211Y-81158D01*
X-12118Y-81131D01*
X-12042Y-81093D01*
X-11982Y-81054D01*
X-11938Y-81027D01*
X-11917Y-81005D01*
X-11906Y-80994D01*
X-11846Y-80912D01*
X-11796Y-80819D01*
X-11764Y-80721D01*
X-11742Y-80628D01*
X-11731Y-80541D01*
X-11725Y-80508D01*
Y-80476D01*
X-11720Y-80448D01*
Y-80426D01*
Y-80415D01*
Y-80410D01*
X-11725Y-80279D01*
X-11747Y-80159D01*
X-11774Y-80061D01*
X-11813Y-79973D01*
X-11846Y-79908D01*
X-11873Y-79859D01*
X-11895Y-79831D01*
X-11900Y-79820D01*
X-11976Y-79749D01*
X-12058Y-79695D01*
X-12146Y-79657D01*
X-12233Y-79629D01*
X-12310Y-79613D01*
X-12370Y-79607D01*
X-12392Y-79602D01*
X-12424D01*
X-12533Y-79607D01*
X-12577Y-79613D01*
X-12615Y-79618D01*
X-12648Y-79629D01*
X-12670Y-79635D01*
X-12686Y-79640D01*
X-12692D01*
X-12774Y-79668D01*
X-12839Y-79695D01*
X-12867Y-79706D01*
X-12888Y-79711D01*
X-12899Y-79722D01*
X-12905D01*
X-12976Y-79760D01*
X-13030Y-79799D01*
X-13047Y-79815D01*
X-13063Y-79826D01*
X-13069Y-79831D01*
X-13074Y-79837D01*
X-13123Y-79875D01*
X-13161Y-79902D01*
X-13183Y-79924D01*
X-13194Y-79930D01*
X-13320D01*
Y-79203D01*
X-13167Y-79138D01*
X-13096Y-79116D01*
X-13030Y-79094D01*
X-12970Y-79072D01*
X-12927Y-79061D01*
X-12899Y-79050D01*
X-12888D01*
X-12801Y-79029D01*
X-12714Y-79018D01*
X-12626Y-79007D01*
X-12550Y-78996D01*
X-12484D01*
X-12435Y-78990D01*
X-12386D01*
X-12277Y-78996D01*
D02*
G37*
G36*
X-16885D02*
X-16776Y-79001D01*
X-16678Y-79018D01*
X-16590Y-79029D01*
X-16514Y-79045D01*
X-16459Y-79061D01*
X-16437Y-79067D01*
X-16421D01*
X-16416Y-79072D01*
X-16410D01*
X-16306Y-79105D01*
X-16214Y-79143D01*
X-16126Y-79181D01*
X-16055Y-79225D01*
X-15995Y-79258D01*
X-15951Y-79291D01*
X-15924Y-79313D01*
X-15913Y-79318D01*
X-15837Y-79389D01*
X-15766Y-79466D01*
X-15706Y-79542D01*
X-15656Y-79613D01*
X-15613Y-79673D01*
X-15586Y-79728D01*
X-15569Y-79760D01*
X-15564Y-79766D01*
Y-79771D01*
X-15526Y-79875D01*
X-15493Y-79984D01*
X-15471Y-80093D01*
X-15460Y-80192D01*
X-15449Y-80279D01*
Y-80317D01*
X-15444Y-80350D01*
Y-80372D01*
Y-80394D01*
Y-80405D01*
Y-80410D01*
X-15449Y-80541D01*
X-15460Y-80656D01*
X-15482Y-80765D01*
X-15504Y-80852D01*
X-15520Y-80929D01*
X-15542Y-80983D01*
X-15547Y-81005D01*
X-15553Y-81022D01*
X-15558Y-81027D01*
Y-81033D01*
X-15607Y-81125D01*
X-15656Y-81213D01*
X-15711Y-81284D01*
X-15766Y-81344D01*
X-15815Y-81398D01*
X-15853Y-81431D01*
X-15875Y-81458D01*
X-15886Y-81464D01*
X-15968Y-81524D01*
X-16055Y-81578D01*
X-16137Y-81622D01*
X-16214Y-81655D01*
X-16285Y-81688D01*
X-16334Y-81704D01*
X-16355Y-81709D01*
X-16372Y-81715D01*
X-16377Y-81720D01*
X-16383D01*
X-16492Y-81748D01*
X-16607Y-81770D01*
X-16710Y-81780D01*
X-16809Y-81791D01*
X-16896Y-81797D01*
X-16934Y-81802D01*
X-17120D01*
X-17207Y-81791D01*
X-17289Y-81786D01*
X-17360Y-81775D01*
X-17420Y-81764D01*
X-17464Y-81759D01*
X-17491Y-81748D01*
X-17502D01*
X-17584Y-81726D01*
X-17666Y-81704D01*
X-17737Y-81677D01*
X-17797Y-81655D01*
X-17852Y-81633D01*
X-17895Y-81617D01*
X-17917Y-81606D01*
X-17928Y-81600D01*
Y-80869D01*
X-17802D01*
X-17764Y-80907D01*
X-17726Y-80940D01*
X-17699Y-80962D01*
X-17693Y-80972D01*
X-17688D01*
X-17639Y-81011D01*
X-17595Y-81038D01*
X-17562Y-81060D01*
X-17557Y-81071D01*
X-17551D01*
X-17480Y-81103D01*
X-17409Y-81131D01*
X-17376Y-81142D01*
X-17355Y-81153D01*
X-17338Y-81158D01*
X-17333D01*
X-17234Y-81174D01*
X-17185Y-81185D01*
X-17142D01*
X-17104Y-81191D01*
X-17049D01*
X-16923Y-81180D01*
X-16819Y-81158D01*
X-16727Y-81131D01*
X-16650Y-81093D01*
X-16590Y-81054D01*
X-16546Y-81027D01*
X-16525Y-81005D01*
X-16514Y-80994D01*
X-16454Y-80912D01*
X-16405Y-80819D01*
X-16372Y-80721D01*
X-16350Y-80628D01*
X-16339Y-80541D01*
X-16334Y-80508D01*
Y-80476D01*
X-16328Y-80448D01*
Y-80426D01*
Y-80415D01*
Y-80410D01*
X-16334Y-80279D01*
X-16355Y-80159D01*
X-16383Y-80061D01*
X-16421Y-79973D01*
X-16454Y-79908D01*
X-16481Y-79859D01*
X-16503Y-79831D01*
X-16508Y-79820D01*
X-16585Y-79749D01*
X-16667Y-79695D01*
X-16754Y-79657D01*
X-16841Y-79629D01*
X-16918Y-79613D01*
X-16978Y-79607D01*
X-17000Y-79602D01*
X-17032D01*
X-17142Y-79607D01*
X-17185Y-79613D01*
X-17224Y-79618D01*
X-17256Y-79629D01*
X-17278Y-79635D01*
X-17295Y-79640D01*
X-17300D01*
X-17382Y-79668D01*
X-17447Y-79695D01*
X-17475Y-79706D01*
X-17497Y-79711D01*
X-17507Y-79722D01*
X-17513D01*
X-17584Y-79760D01*
X-17639Y-79799D01*
X-17655Y-79815D01*
X-17671Y-79826D01*
X-17677Y-79831D01*
X-17682Y-79837D01*
X-17731Y-79875D01*
X-17770Y-79902D01*
X-17791Y-79924D01*
X-17802Y-79930D01*
X-17928D01*
Y-79203D01*
X-17775Y-79138D01*
X-17704Y-79116D01*
X-17639Y-79094D01*
X-17579Y-79072D01*
X-17535Y-79061D01*
X-17507Y-79050D01*
X-17497D01*
X-17409Y-79029D01*
X-17322Y-79018D01*
X-17234Y-79007D01*
X-17158Y-78996D01*
X-17093D01*
X-17043Y-78990D01*
X-16994D01*
X-16885Y-78996D01*
D02*
G37*
G36*
X4567Y-79067D02*
X4633Y-79072D01*
X4698Y-79089D01*
X4758Y-79100D01*
X4808Y-79116D01*
X4851Y-79132D01*
X4873Y-79138D01*
X4884Y-79143D01*
X4966Y-79181D01*
X5048Y-79231D01*
X5130Y-79280D01*
X5206Y-79334D01*
X5272Y-79384D01*
X5321Y-79427D01*
X5343Y-79444D01*
X5359Y-79454D01*
X5364Y-79460D01*
X5370Y-79465D01*
Y-79072D01*
X6227D01*
Y-81731D01*
X5370D01*
Y-79957D01*
X5255Y-79919D01*
X5206Y-79902D01*
X5162Y-79891D01*
X5124Y-79886D01*
X5097Y-79880D01*
X5080Y-79875D01*
X5075D01*
X4966Y-79859D01*
X4911Y-79853D01*
X4862D01*
X4818Y-79848D01*
X4687D01*
X4622Y-79853D01*
X4595D01*
X4573Y-79859D01*
X4551D01*
X4507Y-79864D01*
X4474Y-79870D01*
X4442D01*
X4420Y-79875D01*
X4398Y-79880D01*
X4387D01*
X4376Y-79886D01*
X4300D01*
Y-79072D01*
X4332Y-79067D01*
X4403D01*
X4442Y-79061D01*
X4502D01*
X4567Y-79067D01*
D02*
G37*
G36*
X-1089Y-78996D02*
X-1002Y-79007D01*
X-926Y-79023D01*
X-855Y-79040D01*
X-800Y-79056D01*
X-756Y-79072D01*
X-729Y-79083D01*
X-718Y-79089D01*
X-642Y-79127D01*
X-565Y-79171D01*
X-489Y-79214D01*
X-423Y-79258D01*
X-369Y-79302D01*
X-325Y-79334D01*
X-298Y-79356D01*
X-287Y-79362D01*
Y-79072D01*
X571D01*
Y-81731D01*
X-287D01*
Y-79842D01*
X-385Y-79788D01*
X-429Y-79766D01*
X-461Y-79744D01*
X-494Y-79733D01*
X-516Y-79722D01*
X-532Y-79717D01*
X-538D01*
X-625Y-79695D01*
X-669Y-79689D01*
X-702Y-79684D01*
X-734Y-79678D01*
X-833D01*
X-882Y-79684D01*
X-926Y-79689D01*
X-964Y-79700D01*
X-991Y-79706D01*
X-1013Y-79717D01*
X-1024Y-79722D01*
X-1029D01*
X-1089Y-79760D01*
X-1133Y-79799D01*
X-1160Y-79831D01*
X-1166Y-79842D01*
Y-79848D01*
X-1177Y-79880D01*
X-1193Y-79919D01*
X-1209Y-79995D01*
X-1215Y-80033D01*
Y-80061D01*
X-1220Y-80082D01*
Y-80088D01*
X-1231Y-80203D01*
X-1237Y-80257D01*
X-1242Y-80306D01*
Y-80350D01*
Y-80383D01*
Y-80405D01*
Y-80410D01*
Y-81731D01*
X-2099D01*
Y-80001D01*
Y-79908D01*
X-2088Y-79826D01*
X-2077Y-79744D01*
X-2061Y-79673D01*
X-2045Y-79602D01*
X-2023Y-79542D01*
X-2001Y-79487D01*
X-1979Y-79433D01*
X-1952Y-79389D01*
X-1930Y-79351D01*
X-1908Y-79318D01*
X-1892Y-79296D01*
X-1876Y-79274D01*
X-1865Y-79258D01*
X-1859Y-79252D01*
X-1854Y-79247D01*
X-1805Y-79203D01*
X-1755Y-79160D01*
X-1646Y-79100D01*
X-1537Y-79050D01*
X-1428Y-79023D01*
X-1330Y-79001D01*
X-1291Y-78996D01*
X-1253D01*
X-1226Y-78990D01*
X-1182D01*
X-1089Y-78996D01*
D02*
G37*
G36*
X-9372Y-81731D02*
X-10229D01*
Y-79072D01*
X-9372D01*
Y-81731D01*
D02*
G37*
G36*
X-13915D02*
X-14799D01*
Y-80798D01*
X-13915D01*
Y-81731D01*
D02*
G37*
G36*
X24698Y-78139D02*
X24824Y-78144D01*
X24939Y-78161D01*
X25048Y-78182D01*
X25146Y-78204D01*
X25239Y-78232D01*
X25326Y-78264D01*
X25403Y-78291D01*
X25474Y-78319D01*
X25539Y-78352D01*
X25588Y-78379D01*
X25632Y-78401D01*
X25670Y-78423D01*
X25692Y-78434D01*
X25708Y-78444D01*
X25714Y-78450D01*
X25790Y-78510D01*
X25856Y-78575D01*
X25916Y-78641D01*
X25965Y-78707D01*
X26009Y-78772D01*
X26041Y-78843D01*
X26074Y-78903D01*
X26096Y-78969D01*
X26112Y-79029D01*
X26129Y-79078D01*
X26140Y-79127D01*
X26145Y-79171D01*
Y-79203D01*
X26151Y-79231D01*
Y-79247D01*
Y-79252D01*
X26140Y-79384D01*
X26118Y-79504D01*
X26091Y-79613D01*
X26052Y-79700D01*
X26020Y-79777D01*
X25987Y-79831D01*
X25976Y-79848D01*
X25965Y-79864D01*
X25960Y-79870D01*
Y-79875D01*
X25921Y-79919D01*
X25878Y-79962D01*
X25774Y-80039D01*
X25670Y-80104D01*
X25561Y-80159D01*
X25468Y-80203D01*
X25425Y-80224D01*
X25386Y-80235D01*
X25359Y-80246D01*
X25337Y-80257D01*
X25321Y-80263D01*
X25315D01*
X25168Y-80306D01*
X25097Y-80328D01*
X25031Y-80339D01*
X24982Y-80355D01*
X24939Y-80366D01*
X24911Y-80372D01*
X24900D01*
X24818Y-80388D01*
X24736Y-80399D01*
X24666Y-80415D01*
X24606Y-80432D01*
X24551Y-80443D01*
X24507Y-80448D01*
X24485Y-80459D01*
X24474D01*
X24409Y-80475D01*
X24349Y-80497D01*
X24305Y-80519D01*
X24261Y-80541D01*
X24229Y-80557D01*
X24207Y-80574D01*
X24196Y-80585D01*
X24191Y-80590D01*
X24158Y-80623D01*
X24130Y-80656D01*
X24114Y-80689D01*
X24098Y-80721D01*
X24092Y-80749D01*
X24087Y-80765D01*
Y-80781D01*
Y-80787D01*
X24092Y-80830D01*
X24098Y-80869D01*
X24109Y-80901D01*
X24120Y-80929D01*
X24136Y-80951D01*
X24147Y-80967D01*
X24152Y-80972D01*
X24158Y-80978D01*
X24212Y-81022D01*
X24267Y-81054D01*
X24289Y-81071D01*
X24311Y-81082D01*
X24322Y-81087D01*
X24327D01*
X24398Y-81109D01*
X24469Y-81125D01*
X24502Y-81131D01*
X24529D01*
X24545Y-81136D01*
X24551D01*
X24600Y-81142D01*
X24682D01*
X24709Y-81147D01*
X24769D01*
X24889Y-81142D01*
X25010Y-81131D01*
X25124Y-81109D01*
X25228Y-81087D01*
X25315Y-81065D01*
X25348Y-81054D01*
X25381Y-81043D01*
X25408Y-81038D01*
X25425Y-81033D01*
X25435Y-81027D01*
X25441D01*
X25567Y-80978D01*
X25687Y-80923D01*
X25796Y-80863D01*
X25889Y-80809D01*
X25965Y-80754D01*
X26025Y-80716D01*
X26047Y-80699D01*
X26063Y-80689D01*
X26069Y-80678D01*
X26173D01*
Y-81529D01*
X25960Y-81606D01*
X25856Y-81638D01*
X25763Y-81666D01*
X25681Y-81688D01*
X25621Y-81704D01*
X25599Y-81715D01*
X25583D01*
X25572Y-81720D01*
X25567D01*
X25441Y-81748D01*
X25310Y-81764D01*
X25179Y-81780D01*
X25059Y-81786D01*
X24955Y-81791D01*
X24911Y-81797D01*
X24802D01*
X24666Y-81791D01*
X24534Y-81780D01*
X24409Y-81770D01*
X24294Y-81748D01*
X24185Y-81720D01*
X24087Y-81693D01*
X23999Y-81666D01*
X23918Y-81633D01*
X23846Y-81606D01*
X23781Y-81578D01*
X23726Y-81551D01*
X23683Y-81524D01*
X23644Y-81502D01*
X23623Y-81491D01*
X23606Y-81480D01*
X23601Y-81475D01*
X23524Y-81409D01*
X23453Y-81344D01*
X23393Y-81273D01*
X23344Y-81202D01*
X23301Y-81131D01*
X23262Y-81060D01*
X23235Y-80994D01*
X23208Y-80923D01*
X23191Y-80863D01*
X23175Y-80809D01*
X23164Y-80754D01*
X23159Y-80710D01*
Y-80672D01*
X23153Y-80645D01*
Y-80628D01*
Y-80623D01*
X23164Y-80492D01*
X23186Y-80377D01*
X23213Y-80273D01*
X23251Y-80186D01*
X23290Y-80121D01*
X23317Y-80072D01*
X23339Y-80039D01*
X23350Y-80028D01*
X23432Y-79946D01*
X23524Y-79875D01*
X23623Y-79815D01*
X23721Y-79760D01*
X23808Y-79722D01*
X23852Y-79706D01*
X23885Y-79689D01*
X23912Y-79678D01*
X23934Y-79673D01*
X23945Y-79668D01*
X23950D01*
X24027Y-79646D01*
X24098Y-79624D01*
X24163Y-79607D01*
X24223Y-79591D01*
X24272Y-79580D01*
X24305Y-79569D01*
X24327Y-79564D01*
X24338D01*
X24469Y-79536D01*
X24534Y-79520D01*
X24589Y-79509D01*
X24638Y-79498D01*
X24677Y-79487D01*
X24698Y-79482D01*
X24709D01*
X24813Y-79460D01*
X24895Y-79438D01*
X24966Y-79416D01*
X25020Y-79395D01*
X25064Y-79378D01*
X25091Y-79362D01*
X25108Y-79356D01*
X25113Y-79351D01*
X25146Y-79318D01*
X25173Y-79285D01*
X25190Y-79247D01*
X25206Y-79214D01*
X25212Y-79181D01*
X25217Y-79154D01*
Y-79138D01*
Y-79132D01*
X25212Y-79100D01*
X25206Y-79067D01*
X25184Y-79018D01*
X25173Y-78996D01*
X25162Y-78979D01*
X25152Y-78974D01*
Y-78969D01*
X25097Y-78919D01*
X25048Y-78887D01*
X25026Y-78876D01*
X25010Y-78865D01*
X24999Y-78859D01*
X24993D01*
X24917Y-78832D01*
X24846Y-78810D01*
X24818Y-78805D01*
X24797D01*
X24786Y-78799D01*
X24780D01*
X24698Y-78788D01*
X24622Y-78783D01*
X24551D01*
X24431Y-78788D01*
X24316Y-78799D01*
X24207Y-78821D01*
X24114Y-78838D01*
X24032Y-78859D01*
X23999Y-78870D01*
X23972Y-78881D01*
X23950Y-78887D01*
X23934Y-78892D01*
X23923Y-78898D01*
X23918D01*
X23803Y-78941D01*
X23705Y-78990D01*
X23617Y-79040D01*
X23541Y-79083D01*
X23475Y-79122D01*
X23432Y-79154D01*
X23404Y-79176D01*
X23393Y-79181D01*
X23295D01*
Y-78373D01*
X23393Y-78335D01*
X23492Y-78303D01*
X23595Y-78275D01*
X23688Y-78248D01*
X23770Y-78232D01*
X23803Y-78221D01*
X23830Y-78215D01*
X23857Y-78210D01*
X23874D01*
X23885Y-78204D01*
X23890D01*
X24016Y-78182D01*
X24141Y-78161D01*
X24256Y-78150D01*
X24360Y-78144D01*
X24447Y-78139D01*
X24480Y-78133D01*
X24573D01*
X24698Y-78139D01*
D02*
G37*
G36*
X18370Y-79001D02*
X18469Y-79012D01*
X18567Y-79029D01*
X18654Y-79050D01*
X18736Y-79072D01*
X18812Y-79094D01*
X18878Y-79116D01*
X18938Y-79143D01*
X18993Y-79165D01*
X19036Y-79187D01*
X19074Y-79209D01*
X19102Y-79225D01*
X19124Y-79236D01*
X19135Y-79242D01*
X19140Y-79247D01*
X19206Y-79296D01*
X19260Y-79345D01*
X19309Y-79400D01*
X19347Y-79454D01*
X19386Y-79509D01*
X19413Y-79564D01*
X19457Y-79662D01*
X19479Y-79749D01*
X19489Y-79788D01*
X19495Y-79820D01*
X19500Y-79848D01*
Y-79870D01*
Y-79880D01*
Y-79886D01*
X19495Y-79995D01*
X19473Y-80093D01*
X19446Y-80175D01*
X19413Y-80252D01*
X19380Y-80306D01*
X19353Y-80350D01*
X19331Y-80377D01*
X19326Y-80388D01*
X19255Y-80459D01*
X19167Y-80519D01*
X19080Y-80568D01*
X18993Y-80612D01*
X18916Y-80645D01*
X18851Y-80667D01*
X18823Y-80672D01*
X18807Y-80678D01*
X18796Y-80683D01*
X18791D01*
X18687Y-80705D01*
X18638Y-80716D01*
X18594Y-80727D01*
X18556Y-80732D01*
X18523Y-80738D01*
X18501Y-80743D01*
X18496D01*
X18436Y-80754D01*
X18386Y-80760D01*
X18343Y-80770D01*
X18305Y-80776D01*
X18277Y-80781D01*
X18256D01*
X18245Y-80787D01*
X18239D01*
X18174Y-80803D01*
X18114Y-80819D01*
X18070Y-80836D01*
X18032Y-80847D01*
X18004Y-80858D01*
X17988Y-80869D01*
X17977Y-80874D01*
X17972D01*
X17944Y-80891D01*
X17928Y-80912D01*
X17906Y-80962D01*
X17901Y-80983D01*
X17895Y-81000D01*
Y-81011D01*
Y-81016D01*
X17901Y-81054D01*
X17917Y-81087D01*
X17933Y-81114D01*
X17955Y-81136D01*
X17982Y-81158D01*
X17999Y-81169D01*
X18015Y-81174D01*
X18021Y-81180D01*
X18070Y-81196D01*
X18130Y-81213D01*
X18190Y-81224D01*
X18250Y-81229D01*
X18305D01*
X18348Y-81235D01*
X18463D01*
X18529Y-81229D01*
X18589Y-81224D01*
X18643Y-81213D01*
X18687Y-81207D01*
X18725Y-81202D01*
X18747Y-81196D01*
X18752D01*
X18867Y-81164D01*
X18922Y-81153D01*
X18965Y-81136D01*
X18998Y-81125D01*
X19031Y-81114D01*
X19047Y-81103D01*
X19053D01*
X19107Y-81082D01*
X19151Y-81060D01*
X19195Y-81038D01*
X19227Y-81022D01*
X19255Y-81011D01*
X19271Y-81000D01*
X19282Y-80989D01*
X19287D01*
X19347Y-80951D01*
X19391Y-80918D01*
X19424Y-80896D01*
X19429Y-80885D01*
X19511D01*
Y-81589D01*
X19440Y-81617D01*
X19364Y-81650D01*
X19287Y-81671D01*
X19217Y-81693D01*
X19151Y-81709D01*
X19102Y-81726D01*
X19080Y-81731D01*
X19064D01*
X19058Y-81737D01*
X19053D01*
X18944Y-81759D01*
X18829Y-81775D01*
X18720Y-81786D01*
X18621Y-81791D01*
X18534Y-81797D01*
X18496Y-81802D01*
X18403D01*
X18288Y-81797D01*
X18174Y-81791D01*
X18070Y-81780D01*
X17977Y-81764D01*
X17884Y-81742D01*
X17802Y-81720D01*
X17726Y-81699D01*
X17660Y-81677D01*
X17595Y-81655D01*
X17546Y-81633D01*
X17497Y-81611D01*
X17458Y-81589D01*
X17431Y-81573D01*
X17409Y-81562D01*
X17398Y-81551D01*
X17393D01*
X17327Y-81502D01*
X17273Y-81453D01*
X17218Y-81398D01*
X17180Y-81338D01*
X17142Y-81284D01*
X17114Y-81229D01*
X17065Y-81125D01*
X17043Y-81027D01*
X17032Y-80989D01*
X17027Y-80956D01*
X17021Y-80923D01*
Y-80901D01*
Y-80891D01*
Y-80885D01*
X17027Y-80787D01*
X17049Y-80694D01*
X17071Y-80612D01*
X17104Y-80546D01*
X17131Y-80492D01*
X17158Y-80448D01*
X17180Y-80426D01*
X17185Y-80415D01*
X17251Y-80350D01*
X17327Y-80290D01*
X17415Y-80241D01*
X17491Y-80203D01*
X17568Y-80175D01*
X17628Y-80153D01*
X17649Y-80148D01*
X17666Y-80142D01*
X17677Y-80137D01*
X17682D01*
X17797Y-80110D01*
X17846Y-80099D01*
X17890Y-80093D01*
X17933Y-80088D01*
X17961Y-80082D01*
X17982Y-80077D01*
X17988D01*
X18092Y-80055D01*
X18141Y-80050D01*
X18184Y-80044D01*
X18217Y-80033D01*
X18245D01*
X18261Y-80028D01*
X18266D01*
X18348Y-80006D01*
X18414Y-79990D01*
X18463Y-79973D01*
X18507Y-79957D01*
X18534Y-79940D01*
X18550Y-79935D01*
X18561Y-79924D01*
X18567D01*
X18589Y-79902D01*
X18599Y-79880D01*
X18621Y-79837D01*
Y-79815D01*
X18627Y-79799D01*
Y-79788D01*
Y-79782D01*
X18621Y-79744D01*
X18605Y-79711D01*
X18583Y-79684D01*
X18556Y-79662D01*
X18534Y-79640D01*
X18512Y-79629D01*
X18496Y-79618D01*
X18490D01*
X18436Y-79597D01*
X18376Y-79586D01*
X18316Y-79575D01*
X18261Y-79564D01*
X18212D01*
X18174Y-79558D01*
X18141D01*
X18048Y-79564D01*
X17961Y-79569D01*
X17879Y-79586D01*
X17808Y-79602D01*
X17742Y-79618D01*
X17699Y-79629D01*
X17666Y-79640D01*
X17655Y-79646D01*
X17568Y-79678D01*
X17480Y-79711D01*
X17409Y-79749D01*
X17344Y-79782D01*
X17289Y-79809D01*
X17251Y-79831D01*
X17229Y-79848D01*
X17218Y-79853D01*
X17142D01*
Y-79181D01*
X17207Y-79160D01*
X17278Y-79132D01*
X17349Y-79111D01*
X17415Y-79094D01*
X17480Y-79078D01*
X17529Y-79067D01*
X17562Y-79056D01*
X17573D01*
X17677Y-79034D01*
X17775Y-79018D01*
X17873Y-79007D01*
X17961Y-78996D01*
X18037D01*
X18097Y-78990D01*
X18261D01*
X18370Y-79001D01*
D02*
G37*
G36*
X-4021Y-78996D02*
X-3901Y-79007D01*
X-3792Y-79023D01*
X-3688Y-79050D01*
X-3595Y-79078D01*
X-3503Y-79111D01*
X-3426Y-79143D01*
X-3350Y-79176D01*
X-3284Y-79214D01*
X-3230Y-79247D01*
X-3181Y-79280D01*
X-3142Y-79307D01*
X-3109Y-79334D01*
X-3088Y-79351D01*
X-3077Y-79362D01*
X-3071Y-79367D01*
X-3006Y-79438D01*
X-2946Y-79520D01*
X-2897Y-79602D01*
X-2853Y-79689D01*
X-2815Y-79777D01*
X-2782Y-79859D01*
X-2755Y-79946D01*
X-2738Y-80028D01*
X-2722Y-80104D01*
X-2711Y-80175D01*
X-2700Y-80241D01*
X-2695Y-80295D01*
X-2689Y-80339D01*
Y-80377D01*
Y-80399D01*
Y-80405D01*
X-2695Y-80525D01*
X-2705Y-80639D01*
X-2722Y-80743D01*
X-2749Y-80841D01*
X-2776Y-80934D01*
X-2809Y-81022D01*
X-2847Y-81098D01*
X-2880Y-81164D01*
X-2918Y-81229D01*
X-2951Y-81284D01*
X-2984Y-81327D01*
X-3011Y-81366D01*
X-3039Y-81398D01*
X-3055Y-81420D01*
X-3066Y-81431D01*
X-3071Y-81437D01*
X-3148Y-81502D01*
X-3230Y-81562D01*
X-3311Y-81611D01*
X-3399Y-81655D01*
X-3492Y-81693D01*
X-3579Y-81720D01*
X-3666Y-81748D01*
X-3754Y-81764D01*
X-3836Y-81780D01*
X-3907Y-81791D01*
X-3972Y-81802D01*
X-4032Y-81808D01*
X-4081Y-81813D01*
X-4147D01*
X-4272Y-81808D01*
X-4393Y-81797D01*
X-4502Y-81780D01*
X-4606Y-81753D01*
X-4698Y-81726D01*
X-4786Y-81693D01*
X-4868Y-81660D01*
X-4939Y-81622D01*
X-5004Y-81589D01*
X-5059Y-81557D01*
X-5108Y-81524D01*
X-5146Y-81497D01*
X-5179Y-81469D01*
X-5201Y-81453D01*
X-5212Y-81442D01*
X-5217Y-81437D01*
X-5288Y-81360D01*
X-5343Y-81284D01*
X-5397Y-81202D01*
X-5441Y-81114D01*
X-5479Y-81033D01*
X-5512Y-80945D01*
X-5534Y-80858D01*
X-5556Y-80781D01*
X-5572Y-80705D01*
X-5583Y-80634D01*
X-5594Y-80568D01*
X-5599Y-80514D01*
X-5605Y-80465D01*
Y-80432D01*
Y-80410D01*
Y-80405D01*
X-5599Y-80285D01*
X-5588Y-80170D01*
X-5572Y-80066D01*
X-5545Y-79968D01*
X-5517Y-79875D01*
X-5485Y-79788D01*
X-5452Y-79711D01*
X-5414Y-79640D01*
X-5381Y-79580D01*
X-5343Y-79526D01*
X-5310Y-79482D01*
X-5283Y-79444D01*
X-5255Y-79411D01*
X-5239Y-79389D01*
X-5228Y-79378D01*
X-5223Y-79373D01*
X-5146Y-79307D01*
X-5064Y-79247D01*
X-4982Y-79198D01*
X-4895Y-79149D01*
X-4802Y-79116D01*
X-4715Y-79083D01*
X-4627Y-79056D01*
X-4540Y-79040D01*
X-4464Y-79023D01*
X-4387Y-79012D01*
X-4322Y-79001D01*
X-4262Y-78996D01*
X-4212Y-78990D01*
X-4147D01*
X-4021Y-78996D01*
D02*
G37*
G36*
X-19631D02*
X-19511Y-79007D01*
X-19402Y-79023D01*
X-19298Y-79050D01*
X-19206Y-79078D01*
X-19113Y-79111D01*
X-19036Y-79143D01*
X-18960Y-79176D01*
X-18894Y-79214D01*
X-18840Y-79247D01*
X-18791Y-79280D01*
X-18752Y-79307D01*
X-18720Y-79334D01*
X-18698Y-79351D01*
X-18687Y-79362D01*
X-18681Y-79367D01*
X-18616Y-79438D01*
X-18556Y-79520D01*
X-18507Y-79602D01*
X-18463Y-79689D01*
X-18425Y-79777D01*
X-18392Y-79859D01*
X-18365Y-79946D01*
X-18348Y-80028D01*
X-18332Y-80104D01*
X-18321Y-80175D01*
X-18310Y-80241D01*
X-18305Y-80295D01*
X-18299Y-80339D01*
Y-80377D01*
Y-80399D01*
Y-80405D01*
X-18305Y-80525D01*
X-18316Y-80639D01*
X-18332Y-80743D01*
X-18359Y-80841D01*
X-18386Y-80934D01*
X-18419Y-81022D01*
X-18458Y-81098D01*
X-18490Y-81164D01*
X-18529Y-81229D01*
X-18561Y-81284D01*
X-18594Y-81327D01*
X-18621Y-81366D01*
X-18649Y-81398D01*
X-18665Y-81420D01*
X-18676Y-81431D01*
X-18681Y-81437D01*
X-18758Y-81502D01*
X-18840Y-81562D01*
X-18922Y-81611D01*
X-19009Y-81655D01*
X-19102Y-81693D01*
X-19189Y-81720D01*
X-19276Y-81748D01*
X-19364Y-81764D01*
X-19446Y-81780D01*
X-19517Y-81791D01*
X-19582Y-81802D01*
X-19642Y-81808D01*
X-19692Y-81813D01*
X-19757D01*
X-19883Y-81808D01*
X-20003Y-81797D01*
X-20112Y-81780D01*
X-20216Y-81753D01*
X-20309Y-81726D01*
X-20396Y-81693D01*
X-20478Y-81660D01*
X-20549Y-81622D01*
X-20614Y-81589D01*
X-20669Y-81557D01*
X-20718Y-81524D01*
X-20756Y-81497D01*
X-20789Y-81469D01*
X-20811Y-81453D01*
X-20822Y-81442D01*
X-20827Y-81437D01*
X-20898Y-81360D01*
X-20953Y-81284D01*
X-21007Y-81202D01*
X-21051Y-81114D01*
X-21089Y-81033D01*
X-21122Y-80945D01*
X-21144Y-80858D01*
X-21166Y-80781D01*
X-21182Y-80705D01*
X-21193Y-80634D01*
X-21204Y-80568D01*
X-21209Y-80514D01*
X-21215Y-80465D01*
Y-80432D01*
Y-80410D01*
Y-80405D01*
X-21209Y-80285D01*
X-21198Y-80170D01*
X-21182Y-80066D01*
X-21155Y-79968D01*
X-21127Y-79875D01*
X-21095Y-79788D01*
X-21062Y-79711D01*
X-21024Y-79640D01*
X-20991Y-79580D01*
X-20953Y-79526D01*
X-20920Y-79482D01*
X-20893Y-79444D01*
X-20865Y-79411D01*
X-20849Y-79389D01*
X-20838Y-79378D01*
X-20833Y-79373D01*
X-20756Y-79307D01*
X-20674Y-79247D01*
X-20592Y-79198D01*
X-20505Y-79149D01*
X-20412Y-79116D01*
X-20325Y-79083D01*
X-20237Y-79056D01*
X-20150Y-79040D01*
X-20074Y-79023D01*
X-19997Y-79012D01*
X-19932Y-79001D01*
X-19872Y-78996D01*
X-19823Y-78990D01*
X-19757D01*
X-19631Y-78996D01*
D02*
G37*
G36*
X-1299Y-95234D02*
X-2266D01*
X-3298Y-92575D01*
X-2413D01*
X-1802Y-94409D01*
X-1179Y-92575D01*
X-284D01*
X-1299Y-95234D01*
D02*
G37*
G36*
X1420Y-92498D02*
X1540Y-92509D01*
X1654Y-92531D01*
X1758Y-92553D01*
X1856Y-92580D01*
X1949Y-92613D01*
X2031Y-92651D01*
X2108Y-92684D01*
X2173Y-92722D01*
X2233Y-92760D01*
X2282Y-92793D01*
X2321Y-92820D01*
X2353Y-92842D01*
X2381Y-92864D01*
X2392Y-92875D01*
X2397Y-92880D01*
X2468Y-92957D01*
X2528Y-93033D01*
X2583Y-93120D01*
X2632Y-93202D01*
X2670Y-93290D01*
X2703Y-93377D01*
X2730Y-93464D01*
X2752Y-93546D01*
X2768Y-93623D01*
X2779Y-93694D01*
X2790Y-93759D01*
X2795Y-93814D01*
Y-93858D01*
X2801Y-93896D01*
Y-93918D01*
Y-93923D01*
X2795Y-94043D01*
X2785Y-94158D01*
X2763Y-94267D01*
X2736Y-94365D01*
X2703Y-94458D01*
X2664Y-94540D01*
X2626Y-94617D01*
X2588Y-94687D01*
X2550Y-94748D01*
X2512Y-94802D01*
X2473Y-94846D01*
X2441Y-94884D01*
X2413Y-94911D01*
X2392Y-94933D01*
X2381Y-94944D01*
X2375Y-94950D01*
X2293Y-95010D01*
X2200Y-95064D01*
X2102Y-95113D01*
X2004Y-95157D01*
X1900Y-95190D01*
X1796Y-95217D01*
X1600Y-95261D01*
X1507Y-95277D01*
X1425Y-95288D01*
X1343Y-95294D01*
X1278Y-95299D01*
X1223Y-95305D01*
X1032D01*
X928Y-95294D01*
X830Y-95288D01*
X748Y-95277D01*
X677Y-95266D01*
X622Y-95261D01*
X590Y-95250D01*
X579D01*
X481Y-95228D01*
X388Y-95201D01*
X295Y-95179D01*
X207Y-95152D01*
X137Y-95124D01*
X82Y-95103D01*
X60Y-95097D01*
X44Y-95092D01*
X38Y-95086D01*
X33D01*
Y-94398D01*
X131D01*
X191Y-94442D01*
X257Y-94480D01*
X322Y-94518D01*
X388Y-94546D01*
X448Y-94573D01*
X491Y-94595D01*
X524Y-94606D01*
X530Y-94611D01*
X535D01*
X628Y-94644D01*
X721Y-94666D01*
X808Y-94687D01*
X890Y-94699D01*
X955Y-94704D01*
X1010Y-94709D01*
X1054D01*
X1207Y-94704D01*
X1338Y-94682D01*
X1447Y-94655D01*
X1540Y-94627D01*
X1611Y-94595D01*
X1660Y-94573D01*
X1693Y-94551D01*
X1704Y-94546D01*
X1774Y-94480D01*
X1835Y-94404D01*
X1873Y-94322D01*
X1900Y-94245D01*
X1922Y-94174D01*
X1933Y-94114D01*
Y-94098D01*
X1938Y-94081D01*
Y-94071D01*
Y-94065D01*
X-16D01*
Y-93770D01*
X-11Y-93656D01*
X0Y-93552D01*
X16Y-93454D01*
X33Y-93361D01*
X60Y-93279D01*
X87Y-93202D01*
X115Y-93131D01*
X147Y-93066D01*
X180Y-93011D01*
X207Y-92962D01*
X235Y-92918D01*
X262Y-92886D01*
X279Y-92858D01*
X295Y-92842D01*
X306Y-92831D01*
X311Y-92826D01*
X377Y-92766D01*
X448Y-92716D01*
X524Y-92673D01*
X601Y-92635D01*
X683Y-92602D01*
X764Y-92575D01*
X923Y-92536D01*
X999Y-92520D01*
X1065Y-92509D01*
X1130Y-92503D01*
X1179Y-92498D01*
X1228Y-92493D01*
X1289D01*
X1420Y-92498D01*
D02*
G37*
G36*
X6355Y-95234D02*
X5444D01*
Y-93940D01*
X5034D01*
X4073Y-95234D01*
X2954D01*
X4133Y-93727D01*
X4013Y-93661D01*
X3915Y-93596D01*
X3822Y-93525D01*
X3751Y-93459D01*
X3696Y-93404D01*
X3653Y-93355D01*
X3631Y-93328D01*
X3620Y-93317D01*
X3560Y-93219D01*
X3511Y-93110D01*
X3478Y-93006D01*
X3456Y-92902D01*
X3445Y-92815D01*
X3440Y-92777D01*
X3434Y-92744D01*
Y-92716D01*
Y-92695D01*
Y-92684D01*
Y-92678D01*
X3440Y-92575D01*
X3451Y-92487D01*
X3473Y-92405D01*
X3494Y-92334D01*
X3516Y-92280D01*
X3538Y-92242D01*
X3549Y-92220D01*
X3554Y-92209D01*
X3598Y-92138D01*
X3653Y-92078D01*
X3707Y-92028D01*
X3757Y-91979D01*
X3800Y-91947D01*
X3838Y-91919D01*
X3860Y-91903D01*
X3871Y-91897D01*
X3948Y-91859D01*
X4019Y-91826D01*
X4090Y-91799D01*
X4155Y-91777D01*
X4215Y-91761D01*
X4259Y-91750D01*
X4286Y-91745D01*
X4297D01*
X4384Y-91734D01*
X4477Y-91723D01*
X4565Y-91717D01*
X4646Y-91712D01*
X4723Y-91706D01*
X6355D01*
Y-95234D01*
D02*
G37*
G36*
X-4838Y-91750D02*
X-4827Y-91794D01*
X-4816Y-91837D01*
X-4799Y-91870D01*
X-4788Y-91897D01*
X-4778Y-91919D01*
X-4772Y-91930D01*
X-4767Y-91936D01*
X-4739Y-91969D01*
X-4712Y-92001D01*
X-4652Y-92045D01*
X-4630Y-92067D01*
X-4608Y-92078D01*
X-4592Y-92083D01*
X-4586Y-92089D01*
X-4504Y-92121D01*
X-4417Y-92143D01*
X-4379Y-92149D01*
X-4352Y-92154D01*
X-4330Y-92160D01*
X-4324D01*
X-4210Y-92171D01*
X-4155D01*
X-4106Y-92176D01*
X-4002D01*
Y-92749D01*
X-4745D01*
Y-94617D01*
X-4002D01*
Y-95234D01*
X-6355D01*
Y-94617D01*
X-5629D01*
Y-91695D01*
X-4843D01*
X-4838Y-91750D01*
D02*
G37*
G36*
X19298Y-71818D02*
X18397D01*
Y-71169D01*
X19298D01*
Y-71818D01*
D02*
G37*
G36*
X11086Y-72119D02*
X11168Y-72129D01*
X11245Y-72146D01*
X11310Y-72162D01*
X11365Y-72179D01*
X11403Y-72195D01*
X11430Y-72206D01*
X11441Y-72211D01*
X11518Y-72250D01*
X11594Y-72293D01*
X11665Y-72342D01*
X11725Y-72386D01*
X11780Y-72424D01*
X11824Y-72457D01*
X11851Y-72479D01*
X11862Y-72484D01*
Y-72195D01*
X12719D01*
Y-74854D01*
X11862D01*
Y-72965D01*
X11791Y-72921D01*
X11725Y-72888D01*
X11698Y-72872D01*
X11676Y-72867D01*
X11660Y-72856D01*
X11654D01*
X11567Y-72823D01*
X11523Y-72812D01*
X11485Y-72807D01*
X11452Y-72801D01*
X11354D01*
X11305Y-72807D01*
X11261Y-72812D01*
X11229Y-72823D01*
X11201Y-72828D01*
X11185Y-72839D01*
X11174Y-72845D01*
X11168D01*
X11108Y-72883D01*
X11070Y-72921D01*
X11043Y-72954D01*
X11037Y-72965D01*
Y-72970D01*
X11010Y-73041D01*
X10994Y-73112D01*
X10988Y-73140D01*
X10983Y-73167D01*
Y-73183D01*
Y-73189D01*
X10977Y-73243D01*
Y-73298D01*
X10972Y-73353D01*
Y-73407D01*
Y-73451D01*
Y-73489D01*
Y-73511D01*
Y-73522D01*
Y-74854D01*
X10115D01*
Y-72965D01*
X10016Y-72910D01*
X9973Y-72888D01*
X9940Y-72867D01*
X9907Y-72856D01*
X9885Y-72845D01*
X9874Y-72839D01*
X9869D01*
X9792Y-72817D01*
X9727Y-72807D01*
X9700Y-72801D01*
X9607D01*
X9558Y-72807D01*
X9514Y-72812D01*
X9481Y-72823D01*
X9454Y-72828D01*
X9432Y-72839D01*
X9421Y-72845D01*
X9416D01*
X9356Y-72883D01*
X9318Y-72921D01*
X9290Y-72954D01*
X9285Y-72965D01*
Y-72970D01*
X9263Y-73041D01*
X9246Y-73112D01*
X9241Y-73140D01*
X9236Y-73167D01*
Y-73183D01*
Y-73189D01*
X9230Y-73243D01*
Y-73298D01*
X9225Y-73353D01*
Y-73407D01*
Y-73451D01*
Y-73489D01*
Y-73511D01*
Y-73522D01*
Y-74854D01*
X8367D01*
Y-73123D01*
Y-73036D01*
X8378Y-72948D01*
X8389Y-72872D01*
X8400Y-72801D01*
X8417Y-72730D01*
X8438Y-72670D01*
X8460Y-72615D01*
X8477Y-72566D01*
X8499Y-72523D01*
X8520Y-72484D01*
X8537Y-72452D01*
X8558Y-72424D01*
X8569Y-72403D01*
X8580Y-72386D01*
X8591Y-72381D01*
Y-72375D01*
X8635Y-72332D01*
X8684Y-72288D01*
X8788Y-72222D01*
X8897Y-72179D01*
X9001Y-72146D01*
X9099Y-72124D01*
X9137Y-72119D01*
X9176D01*
X9203Y-72113D01*
X9246D01*
X9334Y-72119D01*
X9421Y-72135D01*
X9498Y-72151D01*
X9574Y-72173D01*
X9634Y-72201D01*
X9678Y-72217D01*
X9711Y-72233D01*
X9716Y-72239D01*
X9721D01*
X9814Y-72288D01*
X9902Y-72342D01*
X9984Y-72403D01*
X10060Y-72457D01*
X10126Y-72501D01*
X10175Y-72544D01*
X10208Y-72566D01*
X10213Y-72577D01*
X10218D01*
X10262Y-72495D01*
X10317Y-72430D01*
X10371Y-72370D01*
X10420Y-72321D01*
X10464Y-72282D01*
X10502Y-72255D01*
X10524Y-72239D01*
X10535Y-72233D01*
X10611Y-72195D01*
X10693Y-72162D01*
X10770Y-72141D01*
X10841Y-72129D01*
X10906Y-72119D01*
X10955Y-72113D01*
X10999D01*
X11086Y-72119D01*
D02*
G37*
G36*
X15100D02*
X15203Y-72129D01*
X15296Y-72135D01*
X15373Y-72146D01*
X15433Y-72157D01*
X15454D01*
X15471Y-72162D01*
X15487D01*
X15591Y-72179D01*
X15684Y-72195D01*
X15755Y-72211D01*
X15815Y-72222D01*
X15859Y-72233D01*
X15891Y-72244D01*
X15913Y-72250D01*
X15919D01*
Y-72888D01*
X15842D01*
X15799Y-72872D01*
X15744Y-72856D01*
X15635Y-72817D01*
X15586Y-72801D01*
X15542Y-72785D01*
X15515Y-72779D01*
X15504Y-72774D01*
X15416Y-72746D01*
X15329Y-72730D01*
X15252Y-72714D01*
X15187Y-72708D01*
X15132Y-72703D01*
X15089Y-72697D01*
X15051D01*
X14925Y-72703D01*
X14821Y-72708D01*
X14728Y-72725D01*
X14657Y-72741D01*
X14597Y-72757D01*
X14559Y-72768D01*
X14532Y-72779D01*
X14526Y-72785D01*
X14466Y-72823D01*
X14423Y-72867D01*
X14390Y-72916D01*
X14368Y-72970D01*
X14357Y-73014D01*
X14346Y-73052D01*
Y-73080D01*
Y-73090D01*
Y-73101D01*
X14483Y-73112D01*
X14619Y-73123D01*
X14739Y-73134D01*
X14849Y-73145D01*
X14941Y-73156D01*
X14979Y-73162D01*
X15012D01*
X15040Y-73167D01*
X15056Y-73172D01*
X15072D01*
X15198Y-73189D01*
X15313Y-73216D01*
X15411Y-73238D01*
X15493Y-73265D01*
X15564Y-73287D01*
X15613Y-73309D01*
X15646Y-73320D01*
X15651Y-73325D01*
X15656D01*
X15744Y-73369D01*
X15815Y-73413D01*
X15880Y-73462D01*
X15930Y-73511D01*
X15973Y-73549D01*
X16006Y-73582D01*
X16022Y-73604D01*
X16028Y-73615D01*
X16071Y-73686D01*
X16099Y-73768D01*
X16121Y-73844D01*
X16137Y-73920D01*
X16148Y-73986D01*
X16153Y-74041D01*
Y-74062D01*
Y-74079D01*
Y-74084D01*
Y-74090D01*
X16148Y-74155D01*
X16142Y-74221D01*
X16115Y-74335D01*
X16071Y-74439D01*
X16028Y-74527D01*
X15984Y-74598D01*
X15940Y-74647D01*
X15913Y-74679D01*
X15902Y-74685D01*
Y-74690D01*
X15853Y-74734D01*
X15799Y-74767D01*
X15695Y-74827D01*
X15591Y-74865D01*
X15487Y-74898D01*
X15400Y-74914D01*
X15362Y-74920D01*
X15329D01*
X15307Y-74925D01*
X15269D01*
X15154Y-74920D01*
X15105Y-74914D01*
X15061Y-74909D01*
X15023D01*
X14996Y-74903D01*
X14979Y-74898D01*
X14974D01*
X14876Y-74876D01*
X14832Y-74859D01*
X14794Y-74849D01*
X14761Y-74832D01*
X14734Y-74827D01*
X14717Y-74816D01*
X14712D01*
X14641Y-74778D01*
X14581Y-74739D01*
X14559Y-74729D01*
X14537Y-74712D01*
X14526Y-74707D01*
X14521Y-74701D01*
X14450Y-74647D01*
X14395Y-74608D01*
X14373Y-74598D01*
X14357Y-74586D01*
X14352Y-74576D01*
X14346D01*
Y-74854D01*
X13500D01*
Y-73041D01*
X13505Y-72954D01*
X13516Y-72872D01*
X13533Y-72801D01*
X13549Y-72730D01*
X13576Y-72670D01*
X13604Y-72610D01*
X13631Y-72561D01*
X13664Y-72512D01*
X13696Y-72474D01*
X13724Y-72441D01*
X13751Y-72408D01*
X13778Y-72386D01*
X13795Y-72364D01*
X13811Y-72353D01*
X13822Y-72342D01*
X13827D01*
X13893Y-72304D01*
X13964Y-72266D01*
X14046Y-72233D01*
X14128Y-72211D01*
X14302Y-72168D01*
X14472Y-72141D01*
X14554Y-72129D01*
X14630Y-72124D01*
X14696Y-72119D01*
X14756D01*
X14805Y-72113D01*
X14990D01*
X15100Y-72119D01*
D02*
G37*
G36*
X-20309Y-73527D02*
X-19260Y-74854D01*
X-20227D01*
X-20816Y-74057D01*
X-21389Y-74854D01*
X-22389D01*
X-21335Y-73506D01*
X-22378Y-72195D01*
X-21400D01*
X-20833Y-72981D01*
X-20270Y-72195D01*
X-19276D01*
X-20309Y-73527D01*
D02*
G37*
G36*
X-10115Y-74832D02*
X-9689Y-75831D01*
X-10617D01*
X-12102Y-72195D01*
X-11218D01*
X-10611Y-73909D01*
X-9978Y-72195D01*
X-9083D01*
X-10115Y-74832D01*
D02*
G37*
G36*
X6391Y-72119D02*
X6511Y-72129D01*
X6626Y-72151D01*
X6729Y-72173D01*
X6828Y-72201D01*
X6921Y-72233D01*
X7002Y-72272D01*
X7079Y-72304D01*
X7144Y-72342D01*
X7204Y-72381D01*
X7254Y-72413D01*
X7292Y-72441D01*
X7325Y-72463D01*
X7352Y-72484D01*
X7363Y-72495D01*
X7368Y-72501D01*
X7439Y-72577D01*
X7499Y-72654D01*
X7554Y-72741D01*
X7603Y-72823D01*
X7641Y-72910D01*
X7674Y-72998D01*
X7701Y-73085D01*
X7723Y-73167D01*
X7739Y-73243D01*
X7750Y-73314D01*
X7761Y-73380D01*
X7767Y-73435D01*
Y-73478D01*
X7772Y-73516D01*
Y-73538D01*
Y-73544D01*
X7767Y-73664D01*
X7756Y-73778D01*
X7734Y-73888D01*
X7707Y-73986D01*
X7674Y-74079D01*
X7636Y-74161D01*
X7598Y-74237D01*
X7559Y-74308D01*
X7521Y-74368D01*
X7483Y-74423D01*
X7445Y-74466D01*
X7412Y-74505D01*
X7385Y-74532D01*
X7363Y-74554D01*
X7352Y-74565D01*
X7346Y-74570D01*
X7265Y-74630D01*
X7172Y-74685D01*
X7073Y-74734D01*
X6975Y-74778D01*
X6871Y-74810D01*
X6768Y-74838D01*
X6571Y-74881D01*
X6478Y-74898D01*
X6396Y-74909D01*
X6314Y-74914D01*
X6249Y-74920D01*
X6194Y-74925D01*
X6003D01*
X5900Y-74914D01*
X5801Y-74909D01*
X5719Y-74898D01*
X5648Y-74887D01*
X5594Y-74881D01*
X5561Y-74871D01*
X5550D01*
X5452Y-74849D01*
X5359Y-74821D01*
X5266Y-74800D01*
X5179Y-74772D01*
X5108Y-74745D01*
X5053Y-74723D01*
X5031Y-74718D01*
X5015Y-74712D01*
X5010Y-74707D01*
X5004D01*
Y-74019D01*
X5102D01*
X5162Y-74062D01*
X5228Y-74101D01*
X5294Y-74139D01*
X5359Y-74166D01*
X5419Y-74193D01*
X5463Y-74215D01*
X5495Y-74226D01*
X5501Y-74232D01*
X5506D01*
X5599Y-74264D01*
X5692Y-74286D01*
X5779Y-74308D01*
X5861Y-74319D01*
X5927Y-74325D01*
X5981Y-74330D01*
X6025D01*
X6178Y-74325D01*
X6309Y-74303D01*
X6418Y-74275D01*
X6511Y-74248D01*
X6582Y-74215D01*
X6631Y-74193D01*
X6664Y-74172D01*
X6675Y-74166D01*
X6746Y-74101D01*
X6806Y-74024D01*
X6844Y-73942D01*
X6871Y-73866D01*
X6893Y-73795D01*
X6904Y-73735D01*
Y-73718D01*
X6910Y-73702D01*
Y-73691D01*
Y-73686D01*
X4955D01*
Y-73391D01*
X4960Y-73276D01*
X4971Y-73172D01*
X4988Y-73074D01*
X5004Y-72981D01*
X5031Y-72899D01*
X5059Y-72823D01*
X5086Y-72752D01*
X5119Y-72686D01*
X5152Y-72632D01*
X5179Y-72583D01*
X5206Y-72539D01*
X5233Y-72506D01*
X5250Y-72479D01*
X5266Y-72463D01*
X5277Y-72452D01*
X5283Y-72446D01*
X5348Y-72386D01*
X5419Y-72337D01*
X5495Y-72293D01*
X5572Y-72255D01*
X5654Y-72222D01*
X5736Y-72195D01*
X5894Y-72157D01*
X5971Y-72141D01*
X6036Y-72129D01*
X6102Y-72124D01*
X6151Y-72119D01*
X6200Y-72113D01*
X6260D01*
X6391Y-72119D01*
D02*
G37*
G36*
X849Y-72195D02*
X1199D01*
Y-72774D01*
X849D01*
Y-74019D01*
X844Y-74106D01*
X838Y-74188D01*
X827Y-74264D01*
X811Y-74335D01*
X794Y-74395D01*
X773Y-74455D01*
X751Y-74505D01*
X729Y-74548D01*
X707Y-74586D01*
X685Y-74625D01*
X663Y-74652D01*
X647Y-74674D01*
X620Y-74701D01*
X609Y-74712D01*
X560Y-74745D01*
X510Y-74778D01*
X390Y-74827D01*
X270Y-74859D01*
X150Y-74881D01*
X41Y-74898D01*
X-8Y-74903D01*
X-46D01*
X-79Y-74909D01*
X-210D01*
X-281Y-74903D01*
X-347D01*
X-401Y-74898D01*
X-445Y-74892D01*
X-478D01*
X-500Y-74887D01*
X-505D01*
X-614Y-74871D01*
X-663Y-74859D01*
X-713Y-74854D01*
X-745Y-74849D01*
X-778Y-74843D01*
X-794Y-74838D01*
X-800D01*
Y-74248D01*
X-729D01*
X-713Y-74259D01*
X-685Y-74270D01*
X-636Y-74286D01*
X-614Y-74292D01*
X-592Y-74297D01*
X-581Y-74303D01*
X-576D01*
X-505Y-74319D01*
X-451Y-74325D01*
X-434Y-74330D01*
X-347D01*
X-298Y-74325D01*
X-259Y-74313D01*
X-221Y-74308D01*
X-194Y-74297D01*
X-177Y-74292D01*
X-166Y-74286D01*
X-161D01*
X-106Y-74243D01*
X-74Y-74199D01*
X-52Y-74166D01*
X-46Y-74155D01*
Y-74150D01*
X-25Y-74084D01*
X-14Y-74024D01*
X-8Y-74002D01*
Y-73980D01*
Y-73970D01*
Y-73964D01*
Y-73882D01*
Y-73800D01*
Y-73768D01*
Y-73740D01*
Y-73724D01*
Y-73718D01*
Y-72774D01*
X-800D01*
Y-72195D01*
X-8D01*
Y-71436D01*
X849D01*
Y-72195D01*
D02*
G37*
G36*
X22389Y-74854D02*
X21477D01*
Y-73347D01*
X19981D01*
Y-72665D01*
X21477D01*
Y-72009D01*
X19861D01*
Y-71327D01*
X22389D01*
Y-74854D01*
D02*
G37*
G36*
X19276D02*
X18419D01*
Y-72195D01*
X19276D01*
Y-74854D01*
D02*
G37*
G36*
X17617D02*
X16759D01*
Y-71169D01*
X17617D01*
Y-74854D01*
D02*
G37*
G36*
X2695Y-72119D02*
X2782Y-72129D01*
X2858Y-72146D01*
X2929Y-72162D01*
X2984Y-72179D01*
X3028Y-72195D01*
X3055Y-72206D01*
X3066Y-72211D01*
X3142Y-72250D01*
X3219Y-72293D01*
X3295Y-72337D01*
X3361Y-72381D01*
X3415Y-72424D01*
X3459Y-72457D01*
X3486Y-72479D01*
X3497Y-72484D01*
Y-72195D01*
X4354D01*
Y-74854D01*
X3497D01*
Y-72965D01*
X3399Y-72910D01*
X3355Y-72888D01*
X3322Y-72867D01*
X3290Y-72856D01*
X3268Y-72845D01*
X3251Y-72839D01*
X3246D01*
X3159Y-72817D01*
X3115Y-72812D01*
X3082Y-72807D01*
X3049Y-72801D01*
X2951D01*
X2902Y-72807D01*
X2858Y-72812D01*
X2820Y-72823D01*
X2793Y-72828D01*
X2771Y-72839D01*
X2760Y-72845D01*
X2755D01*
X2695Y-72883D01*
X2651Y-72921D01*
X2623Y-72954D01*
X2618Y-72965D01*
Y-72970D01*
X2607Y-73003D01*
X2591Y-73041D01*
X2574Y-73118D01*
X2569Y-73156D01*
Y-73183D01*
X2564Y-73205D01*
Y-73211D01*
X2553Y-73325D01*
X2547Y-73380D01*
X2542Y-73429D01*
Y-73473D01*
Y-73506D01*
Y-73527D01*
Y-73533D01*
Y-74854D01*
X1684D01*
Y-73123D01*
Y-73030D01*
X1695Y-72948D01*
X1706Y-72867D01*
X1723Y-72796D01*
X1739Y-72725D01*
X1761Y-72665D01*
X1783Y-72610D01*
X1805Y-72555D01*
X1832Y-72512D01*
X1854Y-72474D01*
X1876Y-72441D01*
X1892Y-72419D01*
X1908Y-72397D01*
X1919Y-72381D01*
X1925Y-72375D01*
X1930Y-72370D01*
X1979Y-72326D01*
X2028Y-72282D01*
X2138Y-72222D01*
X2247Y-72173D01*
X2356Y-72146D01*
X2454Y-72124D01*
X2492Y-72119D01*
X2531D01*
X2558Y-72113D01*
X2602D01*
X2695Y-72119D01*
D02*
G37*
G36*
X-3017Y-74854D02*
X-4256D01*
X-4409Y-74849D01*
X-4551Y-74843D01*
X-4676Y-74832D01*
X-4780Y-74821D01*
X-4829Y-74816D01*
X-4868Y-74810D01*
X-4906D01*
X-4933Y-74805D01*
X-4955Y-74800D01*
X-4971Y-74794D01*
X-4988D01*
X-5102Y-74767D01*
X-5206Y-74734D01*
X-5304Y-74696D01*
X-5386Y-74663D01*
X-5457Y-74630D01*
X-5512Y-74603D01*
X-5545Y-74581D01*
X-5550Y-74576D01*
X-5556D01*
X-5681Y-74488D01*
X-5790Y-74395D01*
X-5889Y-74297D01*
X-5971Y-74199D01*
X-6036Y-74111D01*
X-6063Y-74079D01*
X-6085Y-74046D01*
X-6102Y-74019D01*
X-6112Y-73997D01*
X-6123Y-73986D01*
Y-73980D01*
X-6200Y-73828D01*
X-6254Y-73675D01*
X-6298Y-73527D01*
X-6325Y-73391D01*
X-6336Y-73331D01*
X-6342Y-73271D01*
X-6347Y-73222D01*
Y-73178D01*
X-6353Y-73145D01*
Y-73118D01*
Y-73101D01*
Y-73096D01*
X-6342Y-72910D01*
X-6320Y-72741D01*
X-6287Y-72588D01*
X-6265Y-72523D01*
X-6249Y-72457D01*
X-6227Y-72403D01*
X-6205Y-72353D01*
X-6189Y-72310D01*
X-6173Y-72272D01*
X-6162Y-72244D01*
X-6151Y-72222D01*
X-6140Y-72211D01*
Y-72206D01*
X-6058Y-72070D01*
X-5965Y-71955D01*
X-5867Y-71851D01*
X-5774Y-71764D01*
X-5692Y-71698D01*
X-5659Y-71671D01*
X-5627Y-71644D01*
X-5599Y-71627D01*
X-5583Y-71616D01*
X-5572Y-71605D01*
X-5567D01*
X-5485Y-71556D01*
X-5392Y-71518D01*
X-5304Y-71485D01*
X-5223Y-71452D01*
X-5146Y-71431D01*
X-5091Y-71414D01*
X-5070Y-71409D01*
X-5053D01*
X-5042Y-71403D01*
X-5037D01*
X-4917Y-71376D01*
X-4791Y-71360D01*
X-4666Y-71343D01*
X-4551Y-71338D01*
X-4447Y-71332D01*
X-4403Y-71327D01*
X-3017D01*
Y-74854D01*
D02*
G37*
G36*
X-8662Y-72190D02*
X-8597Y-72195D01*
X-8531Y-72211D01*
X-8471Y-72222D01*
X-8422Y-72239D01*
X-8378Y-72255D01*
X-8356Y-72261D01*
X-8346Y-72266D01*
X-8264Y-72304D01*
X-8182Y-72353D01*
X-8100Y-72403D01*
X-8023Y-72457D01*
X-7958Y-72506D01*
X-7909Y-72550D01*
X-7887Y-72566D01*
X-7871Y-72577D01*
X-7865Y-72583D01*
X-7860Y-72588D01*
Y-72195D01*
X-7002D01*
Y-74854D01*
X-7860D01*
Y-73080D01*
X-7974Y-73041D01*
X-8023Y-73025D01*
X-8067Y-73014D01*
X-8105Y-73009D01*
X-8133Y-73003D01*
X-8149Y-72998D01*
X-8155D01*
X-8264Y-72981D01*
X-8318Y-72976D01*
X-8367D01*
X-8411Y-72970D01*
X-8542D01*
X-8608Y-72976D01*
X-8635D01*
X-8657Y-72981D01*
X-8679D01*
X-8722Y-72987D01*
X-8755Y-72992D01*
X-8788D01*
X-8810Y-72998D01*
X-8832Y-73003D01*
X-8843D01*
X-8853Y-73009D01*
X-8930D01*
Y-72195D01*
X-8897Y-72190D01*
X-8826D01*
X-8788Y-72184D01*
X-8728D01*
X-8662Y-72190D01*
D02*
G37*
G36*
X-12621Y-74854D02*
X-14161D01*
X-14297Y-74849D01*
X-14423Y-74843D01*
X-14526Y-74832D01*
X-14619Y-74821D01*
X-14696Y-74810D01*
X-14750Y-74800D01*
X-14767Y-74794D01*
X-14783Y-74789D01*
X-14794D01*
X-14887Y-74761D01*
X-14974Y-74729D01*
X-15051Y-74690D01*
X-15116Y-74652D01*
X-15176Y-74619D01*
X-15214Y-74598D01*
X-15242Y-74576D01*
X-15252Y-74570D01*
X-15318Y-74516D01*
X-15373Y-74461D01*
X-15422Y-74406D01*
X-15460Y-74352D01*
X-15493Y-74308D01*
X-15520Y-74270D01*
X-15531Y-74248D01*
X-15536Y-74237D01*
X-15569Y-74161D01*
X-15597Y-74079D01*
X-15613Y-74002D01*
X-15629Y-73931D01*
X-15635Y-73871D01*
X-15640Y-73822D01*
Y-73789D01*
Y-73784D01*
Y-73778D01*
X-15629Y-73653D01*
X-15607Y-73538D01*
X-15575Y-73440D01*
X-15536Y-73364D01*
X-15498Y-73298D01*
X-15465Y-73249D01*
X-15444Y-73222D01*
X-15433Y-73211D01*
X-15351Y-73134D01*
X-15263Y-73074D01*
X-15171Y-73025D01*
X-15083Y-72987D01*
X-15007Y-72960D01*
X-14941Y-72938D01*
X-14920Y-72932D01*
X-14903D01*
X-14892Y-72927D01*
X-14887D01*
Y-72905D01*
X-14974Y-72861D01*
X-15051Y-72812D01*
X-15116Y-72757D01*
X-15171Y-72708D01*
X-15214Y-72665D01*
X-15242Y-72632D01*
X-15263Y-72610D01*
X-15269Y-72599D01*
X-15313Y-72523D01*
X-15345Y-72446D01*
X-15373Y-72370D01*
X-15389Y-72299D01*
X-15400Y-72239D01*
X-15405Y-72195D01*
Y-72162D01*
Y-72151D01*
X-15400Y-72070D01*
X-15389Y-71993D01*
X-15373Y-71927D01*
X-15356Y-71873D01*
X-15334Y-71824D01*
X-15318Y-71786D01*
X-15307Y-71764D01*
X-15302Y-71758D01*
X-15263Y-71698D01*
X-15214Y-71644D01*
X-15165Y-71595D01*
X-15116Y-71556D01*
X-15072Y-71523D01*
X-15040Y-71502D01*
X-15018Y-71491D01*
X-15007Y-71485D01*
X-14936Y-71452D01*
X-14865Y-71425D01*
X-14794Y-71403D01*
X-14739Y-71387D01*
X-14685Y-71371D01*
X-14646Y-71365D01*
X-14625Y-71360D01*
X-14614D01*
X-14575Y-71354D01*
X-14532Y-71349D01*
X-14434Y-71338D01*
X-14330Y-71332D01*
X-14226D01*
X-14133Y-71327D01*
X-12621D01*
Y-74854D01*
D02*
G37*
G36*
X-17409Y-72119D02*
X-17289Y-72129D01*
X-17180Y-72146D01*
X-17076Y-72173D01*
X-16983Y-72201D01*
X-16891Y-72233D01*
X-16814Y-72266D01*
X-16738Y-72299D01*
X-16672Y-72337D01*
X-16617Y-72370D01*
X-16568Y-72403D01*
X-16530Y-72430D01*
X-16497Y-72457D01*
X-16476Y-72474D01*
X-16465Y-72484D01*
X-16459Y-72490D01*
X-16394Y-72561D01*
X-16334Y-72643D01*
X-16285Y-72725D01*
X-16241Y-72812D01*
X-16203Y-72899D01*
X-16170Y-72981D01*
X-16142Y-73069D01*
X-16126Y-73151D01*
X-16110Y-73227D01*
X-16099Y-73298D01*
X-16088Y-73364D01*
X-16082Y-73418D01*
X-16077Y-73462D01*
Y-73500D01*
Y-73522D01*
Y-73527D01*
X-16082Y-73647D01*
X-16093Y-73762D01*
X-16110Y-73866D01*
X-16137Y-73964D01*
X-16164Y-74057D01*
X-16197Y-74144D01*
X-16235Y-74221D01*
X-16268Y-74286D01*
X-16306Y-74352D01*
X-16339Y-74406D01*
X-16372Y-74450D01*
X-16399Y-74488D01*
X-16426Y-74521D01*
X-16443Y-74543D01*
X-16454Y-74554D01*
X-16459Y-74559D01*
X-16536Y-74625D01*
X-16617Y-74685D01*
X-16699Y-74734D01*
X-16787Y-74778D01*
X-16880Y-74816D01*
X-16967Y-74843D01*
X-17054Y-74871D01*
X-17142Y-74887D01*
X-17224Y-74903D01*
X-17295Y-74914D01*
X-17360Y-74925D01*
X-17420Y-74931D01*
X-17469Y-74936D01*
X-17535D01*
X-17660Y-74931D01*
X-17781Y-74920D01*
X-17890Y-74903D01*
X-17993Y-74876D01*
X-18086Y-74849D01*
X-18174Y-74816D01*
X-18256Y-74783D01*
X-18327Y-74745D01*
X-18392Y-74712D01*
X-18447Y-74679D01*
X-18496Y-74647D01*
X-18534Y-74619D01*
X-18567Y-74592D01*
X-18589Y-74576D01*
X-18599Y-74565D01*
X-18605Y-74559D01*
X-18676Y-74483D01*
X-18731Y-74406D01*
X-18785Y-74325D01*
X-18829Y-74237D01*
X-18867Y-74155D01*
X-18900Y-74068D01*
X-18922Y-73980D01*
X-18944Y-73904D01*
X-18960Y-73828D01*
X-18971Y-73757D01*
X-18982Y-73691D01*
X-18987Y-73637D01*
X-18993Y-73587D01*
Y-73555D01*
Y-73533D01*
Y-73527D01*
X-18987Y-73407D01*
X-18976Y-73292D01*
X-18960Y-73189D01*
X-18933Y-73090D01*
X-18905Y-72998D01*
X-18872Y-72910D01*
X-18840Y-72834D01*
X-18801Y-72763D01*
X-18769Y-72703D01*
X-18731Y-72648D01*
X-18698Y-72605D01*
X-18670Y-72566D01*
X-18643Y-72534D01*
X-18627Y-72512D01*
X-18616Y-72501D01*
X-18610Y-72495D01*
X-18534Y-72430D01*
X-18452Y-72370D01*
X-18370Y-72321D01*
X-18283Y-72272D01*
X-18190Y-72239D01*
X-18103Y-72206D01*
X-18015Y-72179D01*
X-17928Y-72162D01*
X-17852Y-72146D01*
X-17775Y-72135D01*
X-17709Y-72124D01*
X-17649Y-72119D01*
X-17600Y-72113D01*
X-17535D01*
X-17409Y-72119D01*
D02*
G37*
G36*
X11695Y-84924D02*
X11815Y-84929D01*
X11930Y-84940D01*
X12028Y-84956D01*
X12116Y-84973D01*
X12149Y-84978D01*
X12176Y-84984D01*
X12203Y-84989D01*
X12219D01*
X12230Y-84995D01*
X12236D01*
X12350Y-85022D01*
X12449Y-85049D01*
X12536Y-85071D01*
X12602Y-85093D01*
X12656Y-85115D01*
X12695Y-85131D01*
X12722Y-85136D01*
X12727Y-85142D01*
Y-85923D01*
X12656D01*
X12498Y-85830D01*
X12421Y-85792D01*
X12356Y-85759D01*
X12296Y-85732D01*
X12247Y-85710D01*
X12219Y-85699D01*
X12209Y-85694D01*
X12121Y-85661D01*
X12034Y-85639D01*
X11957Y-85623D01*
X11886Y-85612D01*
X11832Y-85606D01*
X11788Y-85601D01*
X11750D01*
X11646Y-85606D01*
X11553Y-85623D01*
X11477Y-85644D01*
X11417Y-85666D01*
X11368Y-85694D01*
X11329Y-85715D01*
X11308Y-85732D01*
X11302Y-85737D01*
X11248Y-85792D01*
X11209Y-85852D01*
X11182Y-85912D01*
X11166Y-85972D01*
X11149Y-86027D01*
X11144Y-86070D01*
Y-86098D01*
Y-86103D01*
Y-86108D01*
X11149Y-86185D01*
X11166Y-86256D01*
X11182Y-86327D01*
X11204Y-86387D01*
X11231Y-86441D01*
X11248Y-86480D01*
X11264Y-86507D01*
X11269Y-86518D01*
X11319Y-86594D01*
X11384Y-86676D01*
X11450Y-86758D01*
X11515Y-86835D01*
X11575Y-86900D01*
X11624Y-86949D01*
X11646Y-86971D01*
X11663Y-86988D01*
X11668Y-86993D01*
X11673Y-86998D01*
X11750Y-87075D01*
X11832Y-87151D01*
X11919Y-87222D01*
X12001Y-87293D01*
X12072Y-87353D01*
X12132Y-87402D01*
X12154Y-87419D01*
X12170Y-87435D01*
X12181Y-87441D01*
X12187Y-87446D01*
X12307Y-87539D01*
X12421Y-87632D01*
X12525Y-87714D01*
X12623Y-87785D01*
X12705Y-87845D01*
X12738Y-87872D01*
X12765Y-87894D01*
X12787Y-87910D01*
X12804Y-87921D01*
X12815Y-87927D01*
X12820Y-87932D01*
Y-88516D01*
X10046D01*
Y-87839D01*
X11635D01*
X11597Y-87812D01*
X11548Y-87774D01*
X11444Y-87697D01*
X11400Y-87665D01*
X11357Y-87637D01*
X11335Y-87615D01*
X11324Y-87610D01*
X11166Y-87479D01*
X11089Y-87419D01*
X11024Y-87364D01*
X10969Y-87315D01*
X10931Y-87277D01*
X10904Y-87255D01*
X10893Y-87244D01*
X10773Y-87124D01*
X10669Y-87009D01*
X10582Y-86906D01*
X10505Y-86813D01*
X10450Y-86731D01*
X10412Y-86671D01*
X10396Y-86649D01*
X10385Y-86633D01*
X10379Y-86627D01*
Y-86622D01*
X10325Y-86507D01*
X10281Y-86398D01*
X10254Y-86289D01*
X10232Y-86190D01*
X10221Y-86108D01*
X10216Y-86076D01*
X10210Y-86043D01*
Y-86021D01*
Y-86005D01*
Y-85994D01*
Y-85988D01*
X10216Y-85896D01*
X10227Y-85808D01*
X10243Y-85726D01*
X10265Y-85650D01*
X10292Y-85579D01*
X10319Y-85513D01*
X10352Y-85453D01*
X10385Y-85399D01*
X10418Y-85355D01*
X10450Y-85311D01*
X10478Y-85278D01*
X10505Y-85246D01*
X10527Y-85224D01*
X10543Y-85207D01*
X10554Y-85202D01*
X10560Y-85197D01*
X10631Y-85148D01*
X10702Y-85104D01*
X10784Y-85066D01*
X10865Y-85033D01*
X11035Y-84984D01*
X11198Y-84951D01*
X11275Y-84940D01*
X11346Y-84935D01*
X11411Y-84929D01*
X11466Y-84924D01*
X11510Y-84918D01*
X11575D01*
X11695Y-84924D01*
D02*
G37*
G36*
X4794D02*
X4914Y-84929D01*
X5029Y-84940D01*
X5127Y-84956D01*
X5214Y-84973D01*
X5247Y-84978D01*
X5274Y-84984D01*
X5302Y-84989D01*
X5318D01*
X5329Y-84995D01*
X5334D01*
X5449Y-85022D01*
X5547Y-85049D01*
X5635Y-85071D01*
X5700Y-85093D01*
X5755Y-85115D01*
X5793Y-85131D01*
X5820Y-85136D01*
X5826Y-85142D01*
Y-85923D01*
X5755D01*
X5596Y-85830D01*
X5520Y-85792D01*
X5455Y-85759D01*
X5395Y-85732D01*
X5345Y-85710D01*
X5318Y-85699D01*
X5307Y-85694D01*
X5220Y-85661D01*
X5132Y-85639D01*
X5056Y-85623D01*
X4985Y-85612D01*
X4930Y-85606D01*
X4887Y-85601D01*
X4848D01*
X4745Y-85606D01*
X4652Y-85623D01*
X4575Y-85644D01*
X4515Y-85666D01*
X4466Y-85694D01*
X4428Y-85715D01*
X4406Y-85732D01*
X4401Y-85737D01*
X4346Y-85792D01*
X4308Y-85852D01*
X4281Y-85912D01*
X4264Y-85972D01*
X4248Y-86027D01*
X4242Y-86070D01*
Y-86098D01*
Y-86103D01*
Y-86108D01*
X4248Y-86185D01*
X4264Y-86256D01*
X4281Y-86327D01*
X4302Y-86387D01*
X4330Y-86441D01*
X4346Y-86480D01*
X4363Y-86507D01*
X4368Y-86518D01*
X4417Y-86594D01*
X4483Y-86676D01*
X4548Y-86758D01*
X4614Y-86835D01*
X4674Y-86900D01*
X4723Y-86949D01*
X4745Y-86971D01*
X4761Y-86988D01*
X4767Y-86993D01*
X4772Y-86998D01*
X4848Y-87075D01*
X4930Y-87151D01*
X5018Y-87222D01*
X5100Y-87293D01*
X5171Y-87353D01*
X5231Y-87402D01*
X5252Y-87419D01*
X5269Y-87435D01*
X5280Y-87441D01*
X5285Y-87446D01*
X5405Y-87539D01*
X5520Y-87632D01*
X5624Y-87714D01*
X5722Y-87785D01*
X5804Y-87845D01*
X5837Y-87872D01*
X5864Y-87894D01*
X5886Y-87910D01*
X5902Y-87921D01*
X5913Y-87927D01*
X5919Y-87932D01*
Y-88516D01*
X3145D01*
Y-87839D01*
X4734D01*
X4696Y-87812D01*
X4646Y-87774D01*
X4543Y-87697D01*
X4499Y-87665D01*
X4455Y-87637D01*
X4434Y-87615D01*
X4423Y-87610D01*
X4264Y-87479D01*
X4188Y-87419D01*
X4122Y-87364D01*
X4068Y-87315D01*
X4030Y-87277D01*
X4002Y-87255D01*
X3991Y-87244D01*
X3871Y-87124D01*
X3767Y-87009D01*
X3680Y-86906D01*
X3604Y-86813D01*
X3549Y-86731D01*
X3511Y-86671D01*
X3494Y-86649D01*
X3483Y-86633D01*
X3478Y-86627D01*
Y-86622D01*
X3423Y-86507D01*
X3380Y-86398D01*
X3352Y-86289D01*
X3331Y-86190D01*
X3320Y-86108D01*
X3314Y-86076D01*
X3309Y-86043D01*
Y-86021D01*
Y-86005D01*
Y-85994D01*
Y-85988D01*
X3314Y-85896D01*
X3325Y-85808D01*
X3342Y-85726D01*
X3363Y-85650D01*
X3391Y-85579D01*
X3418Y-85513D01*
X3451Y-85453D01*
X3483Y-85399D01*
X3516Y-85355D01*
X3549Y-85311D01*
X3576Y-85278D01*
X3604Y-85246D01*
X3625Y-85224D01*
X3642Y-85207D01*
X3653Y-85202D01*
X3658Y-85197D01*
X3729Y-85148D01*
X3800Y-85104D01*
X3882Y-85066D01*
X3964Y-85033D01*
X4133Y-84984D01*
X4297Y-84951D01*
X4374Y-84940D01*
X4444Y-84935D01*
X4510Y-84929D01*
X4565Y-84924D01*
X4608Y-84918D01*
X4674D01*
X4794Y-84924D01*
D02*
G37*
G36*
X-808Y-87288D02*
X-2615D01*
Y-86605D01*
X-808D01*
Y-87288D01*
D02*
G37*
G36*
X-11777Y-85781D02*
X-11668Y-85786D01*
X-11570Y-85803D01*
X-11482Y-85814D01*
X-11406Y-85830D01*
X-11351Y-85846D01*
X-11329Y-85852D01*
X-11313D01*
X-11308Y-85857D01*
X-11302D01*
X-11198Y-85890D01*
X-11106Y-85928D01*
X-11018Y-85966D01*
X-10947Y-86010D01*
X-10887Y-86043D01*
X-10844Y-86076D01*
X-10816Y-86098D01*
X-10805Y-86103D01*
X-10729Y-86174D01*
X-10658Y-86250D01*
X-10598Y-86327D01*
X-10549Y-86398D01*
X-10505Y-86458D01*
X-10478Y-86513D01*
X-10461Y-86545D01*
X-10456Y-86551D01*
Y-86556D01*
X-10418Y-86660D01*
X-10385Y-86769D01*
X-10363Y-86878D01*
X-10352Y-86977D01*
X-10341Y-87064D01*
Y-87102D01*
X-10336Y-87135D01*
Y-87157D01*
Y-87179D01*
Y-87190D01*
Y-87195D01*
X-10341Y-87326D01*
X-10352Y-87441D01*
X-10374Y-87550D01*
X-10396Y-87637D01*
X-10412Y-87714D01*
X-10434Y-87768D01*
X-10440Y-87790D01*
X-10445Y-87806D01*
X-10450Y-87812D01*
Y-87817D01*
X-10500Y-87910D01*
X-10549Y-87998D01*
X-10603Y-88069D01*
X-10658Y-88129D01*
X-10707Y-88183D01*
X-10745Y-88216D01*
X-10767Y-88243D01*
X-10778Y-88249D01*
X-10860Y-88309D01*
X-10947Y-88363D01*
X-11029Y-88407D01*
X-11106Y-88440D01*
X-11177Y-88473D01*
X-11226Y-88489D01*
X-11248Y-88494D01*
X-11264Y-88500D01*
X-11269Y-88505D01*
X-11275D01*
X-11384Y-88533D01*
X-11499Y-88555D01*
X-11603Y-88565D01*
X-11701Y-88576D01*
X-11788Y-88582D01*
X-11826Y-88587D01*
X-12012D01*
X-12099Y-88576D01*
X-12181Y-88571D01*
X-12252Y-88560D01*
X-12312Y-88549D01*
X-12356Y-88544D01*
X-12383Y-88533D01*
X-12394D01*
X-12476Y-88511D01*
X-12558Y-88489D01*
X-12629Y-88462D01*
X-12689Y-88440D01*
X-12744Y-88418D01*
X-12787Y-88402D01*
X-12809Y-88391D01*
X-12820Y-88385D01*
Y-87654D01*
X-12695D01*
X-12656Y-87692D01*
X-12618Y-87725D01*
X-12591Y-87746D01*
X-12585Y-87757D01*
X-12580D01*
X-12531Y-87796D01*
X-12487Y-87823D01*
X-12454Y-87845D01*
X-12449Y-87856D01*
X-12443D01*
X-12372Y-87888D01*
X-12301Y-87916D01*
X-12269Y-87927D01*
X-12247Y-87937D01*
X-12230Y-87943D01*
X-12225D01*
X-12127Y-87959D01*
X-12077Y-87970D01*
X-12034D01*
X-11996Y-87976D01*
X-11941D01*
X-11815Y-87965D01*
X-11712Y-87943D01*
X-11619Y-87916D01*
X-11542Y-87878D01*
X-11482Y-87839D01*
X-11439Y-87812D01*
X-11417Y-87790D01*
X-11406Y-87779D01*
X-11346Y-87697D01*
X-11297Y-87604D01*
X-11264Y-87506D01*
X-11242Y-87413D01*
X-11231Y-87326D01*
X-11226Y-87293D01*
Y-87261D01*
X-11220Y-87233D01*
Y-87211D01*
Y-87200D01*
Y-87195D01*
X-11226Y-87064D01*
X-11248Y-86944D01*
X-11275Y-86845D01*
X-11313Y-86758D01*
X-11346Y-86693D01*
X-11373Y-86643D01*
X-11395Y-86616D01*
X-11400Y-86605D01*
X-11477Y-86534D01*
X-11559Y-86480D01*
X-11646Y-86441D01*
X-11733Y-86414D01*
X-11810Y-86398D01*
X-11870Y-86392D01*
X-11892Y-86387D01*
X-11925D01*
X-12034Y-86392D01*
X-12077Y-86398D01*
X-12116Y-86403D01*
X-12149Y-86414D01*
X-12170Y-86420D01*
X-12187Y-86425D01*
X-12192D01*
X-12274Y-86452D01*
X-12340Y-86480D01*
X-12367Y-86491D01*
X-12389Y-86496D01*
X-12400Y-86507D01*
X-12405D01*
X-12476Y-86545D01*
X-12531Y-86583D01*
X-12547Y-86600D01*
X-12563Y-86611D01*
X-12569Y-86616D01*
X-12574Y-86622D01*
X-12623Y-86660D01*
X-12662Y-86687D01*
X-12684Y-86709D01*
X-12695Y-86715D01*
X-12820D01*
Y-85988D01*
X-12667Y-85923D01*
X-12596Y-85901D01*
X-12531Y-85879D01*
X-12471Y-85857D01*
X-12427Y-85846D01*
X-12400Y-85835D01*
X-12389D01*
X-12301Y-85814D01*
X-12214Y-85803D01*
X-12127Y-85792D01*
X-12050Y-85781D01*
X-11985D01*
X-11936Y-85775D01*
X-11886D01*
X-11777Y-85781D01*
D02*
G37*
G36*
X-8496D02*
X-8376Y-85792D01*
X-8261Y-85814D01*
X-8157Y-85835D01*
X-8059Y-85863D01*
X-7966Y-85896D01*
X-7884Y-85934D01*
X-7808Y-85966D01*
X-7742Y-86005D01*
X-7682Y-86043D01*
X-7633Y-86076D01*
X-7595Y-86103D01*
X-7562Y-86125D01*
X-7535Y-86147D01*
X-7524Y-86158D01*
X-7518Y-86163D01*
X-7447Y-86239D01*
X-7387Y-86316D01*
X-7333Y-86403D01*
X-7284Y-86485D01*
X-7245Y-86572D01*
X-7213Y-86660D01*
X-7185Y-86747D01*
X-7164Y-86829D01*
X-7147Y-86906D01*
X-7136Y-86977D01*
X-7125Y-87042D01*
X-7120Y-87097D01*
Y-87140D01*
X-7114Y-87179D01*
Y-87200D01*
Y-87206D01*
X-7120Y-87326D01*
X-7131Y-87441D01*
X-7153Y-87550D01*
X-7180Y-87648D01*
X-7213Y-87741D01*
X-7251Y-87823D01*
X-7289Y-87899D01*
X-7327Y-87970D01*
X-7366Y-88030D01*
X-7404Y-88085D01*
X-7442Y-88129D01*
X-7475Y-88167D01*
X-7502Y-88194D01*
X-7524Y-88216D01*
X-7535Y-88227D01*
X-7540Y-88232D01*
X-7622Y-88292D01*
X-7715Y-88347D01*
X-7813Y-88396D01*
X-7912Y-88440D01*
X-8015Y-88473D01*
X-8119Y-88500D01*
X-8316Y-88544D01*
X-8408Y-88560D01*
X-8490Y-88571D01*
X-8572Y-88576D01*
X-8638Y-88582D01*
X-8692Y-88587D01*
X-8883D01*
X-8987Y-88576D01*
X-9085Y-88571D01*
X-9167Y-88560D01*
X-9238Y-88549D01*
X-9293Y-88544D01*
X-9326Y-88533D01*
X-9337D01*
X-9435Y-88511D01*
X-9528Y-88484D01*
X-9621Y-88462D01*
X-9708Y-88434D01*
X-9779Y-88407D01*
X-9833Y-88385D01*
X-9855Y-88380D01*
X-9872Y-88374D01*
X-9877Y-88369D01*
X-9883D01*
Y-87681D01*
X-9784D01*
X-9724Y-87725D01*
X-9659Y-87763D01*
X-9593Y-87801D01*
X-9528Y-87828D01*
X-9468Y-87856D01*
X-9424Y-87878D01*
X-9391Y-87888D01*
X-9386Y-87894D01*
X-9380D01*
X-9287Y-87927D01*
X-9195Y-87948D01*
X-9107Y-87970D01*
X-9025Y-87981D01*
X-8960Y-87987D01*
X-8905Y-87992D01*
X-8862D01*
X-8709Y-87987D01*
X-8578Y-87965D01*
X-8468Y-87937D01*
X-8376Y-87910D01*
X-8305Y-87878D01*
X-8256Y-87856D01*
X-8223Y-87834D01*
X-8212Y-87828D01*
X-8141Y-87763D01*
X-8081Y-87686D01*
X-8043Y-87604D01*
X-8015Y-87528D01*
X-7993Y-87457D01*
X-7982Y-87397D01*
Y-87381D01*
X-7977Y-87364D01*
Y-87353D01*
Y-87348D01*
X-9932D01*
Y-87053D01*
X-9926Y-86938D01*
X-9915Y-86835D01*
X-9899Y-86736D01*
X-9883Y-86643D01*
X-9855Y-86562D01*
X-9828Y-86485D01*
X-9801Y-86414D01*
X-9768Y-86349D01*
X-9735Y-86294D01*
X-9708Y-86245D01*
X-9681Y-86201D01*
X-9653Y-86168D01*
X-9637Y-86141D01*
X-9621Y-86125D01*
X-9610Y-86114D01*
X-9604Y-86108D01*
X-9539Y-86048D01*
X-9468Y-85999D01*
X-9391Y-85956D01*
X-9315Y-85917D01*
X-9233Y-85885D01*
X-9151Y-85857D01*
X-8993Y-85819D01*
X-8916Y-85803D01*
X-8851Y-85792D01*
X-8785Y-85786D01*
X-8736Y-85781D01*
X-8687Y-85775D01*
X-8627D01*
X-8496Y-85781D01*
D02*
G37*
G36*
X1436Y-85033D02*
X1447Y-85076D01*
X1458Y-85120D01*
X1474Y-85153D01*
X1485Y-85180D01*
X1496Y-85202D01*
X1501Y-85213D01*
X1507Y-85218D01*
X1534Y-85251D01*
X1562Y-85284D01*
X1622Y-85328D01*
X1643Y-85350D01*
X1665Y-85360D01*
X1682Y-85366D01*
X1687Y-85371D01*
X1769Y-85404D01*
X1856Y-85426D01*
X1895Y-85431D01*
X1922Y-85437D01*
X1944Y-85442D01*
X1949D01*
X2064Y-85453D01*
X2118D01*
X2168Y-85459D01*
X2271D01*
Y-86032D01*
X1529D01*
Y-87899D01*
X2271D01*
Y-88516D01*
X-82D01*
Y-87899D01*
X644D01*
Y-84978D01*
X1431D01*
X1436Y-85033D01*
D02*
G37*
G36*
X-3325Y-88516D02*
X-4565D01*
X-4717Y-88511D01*
X-4859Y-88505D01*
X-4985Y-88494D01*
X-5089Y-88484D01*
X-5138Y-88478D01*
X-5176Y-88473D01*
X-5214D01*
X-5242Y-88467D01*
X-5263Y-88462D01*
X-5280Y-88456D01*
X-5296D01*
X-5411Y-88429D01*
X-5515Y-88396D01*
X-5613Y-88358D01*
X-5695Y-88325D01*
X-5766Y-88292D01*
X-5820Y-88265D01*
X-5853Y-88243D01*
X-5859Y-88238D01*
X-5864D01*
X-5990Y-88151D01*
X-6099Y-88058D01*
X-6197Y-87959D01*
X-6279Y-87861D01*
X-6345Y-87774D01*
X-6372Y-87741D01*
X-6394Y-87708D01*
X-6410Y-87681D01*
X-6421Y-87659D01*
X-6432Y-87648D01*
Y-87643D01*
X-6508Y-87490D01*
X-6563Y-87337D01*
X-6607Y-87190D01*
X-6634Y-87053D01*
X-6645Y-86993D01*
X-6650Y-86933D01*
X-6656Y-86884D01*
Y-86840D01*
X-6661Y-86807D01*
Y-86780D01*
Y-86764D01*
Y-86758D01*
X-6650Y-86572D01*
X-6628Y-86403D01*
X-6596Y-86250D01*
X-6574Y-86185D01*
X-6558Y-86119D01*
X-6536Y-86065D01*
X-6514Y-86016D01*
X-6497Y-85972D01*
X-6481Y-85934D01*
X-6470Y-85906D01*
X-6459Y-85885D01*
X-6448Y-85874D01*
Y-85868D01*
X-6366Y-85732D01*
X-6273Y-85617D01*
X-6175Y-85513D01*
X-6082Y-85426D01*
X-6001Y-85360D01*
X-5968Y-85333D01*
X-5935Y-85306D01*
X-5908Y-85289D01*
X-5891Y-85278D01*
X-5880Y-85268D01*
X-5875D01*
X-5793Y-85218D01*
X-5700Y-85180D01*
X-5613Y-85148D01*
X-5531Y-85115D01*
X-5455Y-85093D01*
X-5400Y-85076D01*
X-5378Y-85071D01*
X-5362D01*
X-5351Y-85066D01*
X-5345D01*
X-5225Y-85038D01*
X-5100Y-85022D01*
X-4974Y-85005D01*
X-4859Y-85000D01*
X-4756Y-84995D01*
X-4712Y-84989D01*
X-3325D01*
Y-88516D01*
D02*
G37*
G36*
X8223Y-84924D02*
X8354Y-84935D01*
X8468Y-84956D01*
X8561Y-84978D01*
X8643Y-85000D01*
X8676Y-85011D01*
X8703Y-85022D01*
X8725Y-85027D01*
X8742Y-85033D01*
X8747Y-85038D01*
X8752D01*
X8851Y-85087D01*
X8938Y-85142D01*
X9020Y-85197D01*
X9085Y-85251D01*
X9135Y-85306D01*
X9173Y-85344D01*
X9195Y-85371D01*
X9206Y-85382D01*
X9266Y-85475D01*
X9320Y-85573D01*
X9364Y-85666D01*
X9397Y-85759D01*
X9429Y-85835D01*
X9446Y-85901D01*
X9451Y-85923D01*
X9457Y-85939D01*
X9462Y-85950D01*
Y-85956D01*
X9489Y-86087D01*
X9506Y-86223D01*
X9522Y-86354D01*
X9528Y-86480D01*
X9533Y-86540D01*
Y-86589D01*
X9539Y-86638D01*
Y-86676D01*
Y-86709D01*
Y-86731D01*
Y-86747D01*
Y-86753D01*
X9533Y-86917D01*
X9528Y-87064D01*
X9517Y-87200D01*
X9500Y-87315D01*
X9495Y-87364D01*
X9484Y-87413D01*
X9479Y-87452D01*
X9473Y-87484D01*
X9468Y-87512D01*
Y-87528D01*
X9462Y-87539D01*
Y-87544D01*
X9429Y-87670D01*
X9391Y-87779D01*
X9347Y-87878D01*
X9309Y-87965D01*
X9271Y-88030D01*
X9238Y-88080D01*
X9217Y-88112D01*
X9211Y-88118D01*
Y-88123D01*
X9140Y-88205D01*
X9064Y-88276D01*
X8993Y-88336D01*
X8916Y-88385D01*
X8856Y-88424D01*
X8801Y-88451D01*
X8769Y-88467D01*
X8763Y-88473D01*
X8758D01*
X8649Y-88511D01*
X8534Y-88538D01*
X8419Y-88560D01*
X8316Y-88571D01*
X8223Y-88582D01*
X8179D01*
X8146Y-88587D01*
X8081D01*
X7939Y-88582D01*
X7808Y-88571D01*
X7693Y-88549D01*
X7595Y-88527D01*
X7518Y-88511D01*
X7486Y-88500D01*
X7458Y-88489D01*
X7436Y-88484D01*
X7420Y-88478D01*
X7415Y-88473D01*
X7409D01*
X7311Y-88424D01*
X7218Y-88369D01*
X7142Y-88314D01*
X7076Y-88260D01*
X7027Y-88205D01*
X6989Y-88167D01*
X6961Y-88139D01*
X6956Y-88129D01*
X6896Y-88036D01*
X6847Y-87943D01*
X6803Y-87845D01*
X6765Y-87752D01*
X6738Y-87670D01*
X6721Y-87610D01*
X6716Y-87583D01*
X6710Y-87566D01*
X6705Y-87555D01*
Y-87550D01*
X6678Y-87413D01*
X6656Y-87277D01*
X6645Y-87146D01*
X6634Y-87020D01*
X6628Y-86966D01*
Y-86911D01*
X6623Y-86867D01*
Y-86829D01*
Y-86796D01*
Y-86774D01*
Y-86758D01*
Y-86753D01*
X6628Y-86594D01*
X6634Y-86441D01*
X6650Y-86310D01*
X6661Y-86196D01*
X6672Y-86147D01*
X6678Y-86103D01*
X6683Y-86065D01*
X6694Y-86032D01*
X6699Y-86005D01*
Y-85988D01*
X6705Y-85977D01*
Y-85972D01*
X6738Y-85846D01*
X6776Y-85737D01*
X6820Y-85639D01*
X6858Y-85557D01*
X6896Y-85491D01*
X6929Y-85442D01*
X6951Y-85409D01*
X6956Y-85399D01*
X7027Y-85311D01*
X7098Y-85240D01*
X7174Y-85180D01*
X7245Y-85126D01*
X7305Y-85087D01*
X7360Y-85060D01*
X7393Y-85044D01*
X7398Y-85038D01*
X7404D01*
X7513Y-85000D01*
X7622Y-84967D01*
X7737Y-84945D01*
X7846Y-84935D01*
X7939Y-84924D01*
X7977D01*
X8015Y-84918D01*
X8081D01*
X8223Y-84924D01*
D02*
G37*
%LPC*%
G36*
X31231Y63453D02*
X28371D01*
Y63215D01*
X27656D01*
Y62977D01*
X27180D01*
Y62738D01*
X26703D01*
Y62500D01*
X26465D01*
Y62262D01*
X26227D01*
Y62023D01*
X25750D01*
Y61547D01*
X25512D01*
Y61309D01*
X25273D01*
Y61070D01*
X25035D01*
Y60594D01*
X24797D01*
Y60117D01*
X24559D01*
Y59402D01*
X24320D01*
Y57258D01*
Y57020D01*
Y56543D01*
X24559D01*
Y55828D01*
X24797D01*
Y55352D01*
X25035D01*
Y54875D01*
X25273D01*
Y54637D01*
X25512D01*
Y54398D01*
X25750D01*
Y54160D01*
X25988D01*
Y53922D01*
X26227D01*
Y53684D01*
X26465D01*
Y53445D01*
X26941D01*
Y53207D01*
X27180D01*
Y52969D01*
X27894D01*
Y52731D01*
X28609D01*
Y52492D01*
X30992D01*
Y52731D01*
X31707D01*
Y52969D01*
X32422D01*
Y53207D01*
X32660D01*
Y53445D01*
X33137D01*
Y53684D01*
X33375D01*
Y53922D01*
X33613D01*
Y54160D01*
X33852D01*
Y54398D01*
X34090D01*
Y54637D01*
X34328D01*
Y55113D01*
X34566D01*
Y55352D01*
X34805D01*
Y55828D01*
X35043D01*
Y56543D01*
X35281D01*
Y59402D01*
X35043D01*
Y60117D01*
X34805D01*
Y60594D01*
X34566D01*
Y61070D01*
X34328D01*
Y61309D01*
X34090D01*
Y61547D01*
X33852D01*
Y61785D01*
X33613D01*
Y62023D01*
X33375D01*
Y62262D01*
X33137D01*
Y62500D01*
X32898D01*
Y62738D01*
X32422D01*
Y62977D01*
X31945D01*
Y63215D01*
X31231D01*
Y63453D01*
D02*
G37*
G36*
X43383Y43199D02*
X-5465D01*
Y35098D01*
X4543D01*
Y34859D01*
X5020D01*
Y34621D01*
X5258D01*
Y34383D01*
X5496D01*
Y33668D01*
X5734D01*
Y28188D01*
X46242D01*
Y40340D01*
X46004D01*
Y40578D01*
X45766D01*
Y40816D01*
X45527D01*
Y41055D01*
X45289D01*
Y41293D01*
X45051D01*
Y41531D01*
X44813D01*
Y41769D01*
X44574D01*
Y42008D01*
X44336D01*
Y42246D01*
X44098D01*
Y42484D01*
X43859D01*
Y42723D01*
X43621D01*
Y42961D01*
X43383D01*
Y43199D01*
D02*
G37*
G36*
X-9039D02*
X-42875D01*
Y42961D01*
X-43113D01*
Y42723D01*
X-43352D01*
Y42484D01*
X-43590D01*
Y42246D01*
X-43828D01*
Y42008D01*
X-44066D01*
Y41769D01*
X-44305D01*
Y41531D01*
X-44543D01*
Y41293D01*
X-44781D01*
Y41055D01*
X-45020D01*
Y40816D01*
X-45258D01*
Y40578D01*
X-45496D01*
Y40340D01*
X-45734D01*
Y28188D01*
X-20238D01*
Y28426D01*
Y33906D01*
X-20000D01*
Y34383D01*
X-19762D01*
Y34621D01*
X-19523D01*
Y34859D01*
X-19047D01*
Y35098D01*
X-9039D01*
Y43199D01*
D02*
G37*
G36*
X2160Y31523D02*
X-16664D01*
Y21039D01*
X2160D01*
Y29379D01*
Y29617D01*
Y31523D01*
D02*
G37*
G36*
X-3082Y17465D02*
X-11422D01*
Y16750D01*
X-11184D01*
Y16035D01*
X-10945D01*
Y15320D01*
X-10707D01*
Y14605D01*
X-10469D01*
Y14129D01*
X-4035D01*
Y14605D01*
X-3797D01*
Y15320D01*
X-3559D01*
Y16035D01*
X-3320D01*
Y16750D01*
X-3082D01*
Y17465D01*
D02*
G37*
G36*
X-20238Y24613D02*
X-25957D01*
Y24375D01*
X-26434D01*
Y24137D01*
X-26910D01*
Y23898D01*
X-27387D01*
Y23660D01*
X-27863D01*
Y23422D01*
X-28340D01*
Y23184D01*
X-28578D01*
Y22945D01*
X-29055D01*
Y22707D01*
X-29531D01*
Y22469D01*
X-29770D01*
Y22230D01*
X-30246D01*
Y21992D01*
X-30484D01*
Y21754D01*
X-30723D01*
Y21516D01*
X-31199D01*
Y21277D01*
X-31438D01*
Y21039D01*
X-31676D01*
Y20801D01*
X-31914D01*
Y20562D01*
X-32152D01*
Y20324D01*
X-32391D01*
Y20086D01*
X-32629D01*
Y19848D01*
X-32867D01*
Y19609D01*
X-33105D01*
Y19371D01*
X-33344D01*
Y18894D01*
X-33582D01*
Y18418D01*
X-33820D01*
Y16988D01*
X-33582D01*
Y16512D01*
X-33344D01*
Y16273D01*
X-33105D01*
Y15797D01*
X-32629D01*
Y15559D01*
X-31199D01*
Y15797D01*
X-30484D01*
Y16035D01*
X-29770D01*
Y16273D01*
X-29055D01*
Y16512D01*
X-28340D01*
Y16750D01*
X-27148D01*
Y16988D01*
X-24289D01*
Y16750D01*
X-23574D01*
Y16512D01*
X-22859D01*
Y16273D01*
X-22621D01*
Y16035D01*
X-22144D01*
Y15797D01*
X-21906D01*
Y15559D01*
X-21430D01*
Y15320D01*
X-21191D01*
Y15082D01*
X-20715D01*
Y14844D01*
X-20238D01*
Y14605D01*
X-19762D01*
Y14367D01*
X-19285D01*
Y14129D01*
X-16664D01*
Y14367D01*
X-16187D01*
Y14605D01*
X-15949D01*
Y14844D01*
X-15711D01*
Y15082D01*
X-15473D01*
Y15320D01*
X-15234D01*
Y15559D01*
X-14996D01*
Y16273D01*
Y16512D01*
Y16750D01*
X-15234D01*
Y17465D01*
X-18809D01*
Y17703D01*
X-19285D01*
Y17941D01*
X-19762D01*
Y18418D01*
X-20000D01*
Y18894D01*
X-20238D01*
Y24613D01*
D02*
G37*
G36*
X-1891Y-9699D02*
X-3320D01*
Y-9938D01*
X-3559D01*
Y-10176D01*
X-3797D01*
Y-10414D01*
X-4035D01*
Y-10652D01*
X-4273D01*
Y-10891D01*
X-4512D01*
Y-11129D01*
X-4988D01*
Y-11367D01*
X-5227D01*
Y-11605D01*
X-5465D01*
Y-11844D01*
X-5703D01*
Y-12082D01*
X-5941D01*
Y-12320D01*
X-6180D01*
Y-12559D01*
X-6418D01*
Y-12797D01*
X-6894D01*
Y-13035D01*
X-7133D01*
Y-13273D01*
X-7371D01*
Y-13512D01*
X-7609D01*
Y-13750D01*
X-7848D01*
Y-13988D01*
X-8086D01*
Y-14227D01*
X-8324D01*
Y-14465D01*
X-8801D01*
Y-14703D01*
X-9039D01*
Y-14941D01*
X-9277D01*
Y-15180D01*
X-9516D01*
Y-15418D01*
X-9754D01*
Y-15656D01*
X-9992D01*
Y-20660D01*
X10500D01*
Y-15418D01*
X10262D01*
Y-15180D01*
X10023D01*
Y-14703D01*
X9785D01*
Y-14465D01*
X9547D01*
Y-14227D01*
X9309D01*
Y-13750D01*
X9070D01*
Y-13512D01*
X8832D01*
Y-13035D01*
X8594D01*
Y-12797D01*
X8355D01*
Y-12559D01*
X8117D01*
Y-12082D01*
X7402D01*
Y-11844D01*
X6211D01*
Y-11605D01*
X5258D01*
Y-11367D01*
X4305D01*
Y-11129D01*
X3113D01*
Y-10891D01*
X2160D01*
Y-10652D01*
X1207D01*
Y-10414D01*
X16D01*
Y-10176D01*
X-938D01*
Y-9938D01*
X-1891D01*
Y-9699D01*
D02*
G37*
G36*
X20031Y-24234D02*
X-19523D01*
Y-27570D01*
X20031D01*
Y-24234D01*
D02*
G37*
G36*
X-573Y-48006D02*
X-1273D01*
Y-48180D01*
X-1448D01*
Y-48355D01*
X-1798D01*
Y-48530D01*
X-2148D01*
Y-48705D01*
X-2323D01*
Y-48880D01*
X-2673D01*
Y-49055D01*
X-3023D01*
Y-49230D01*
X-3373D01*
Y-49405D01*
X-3547D01*
Y-49580D01*
X-3897D01*
Y-49755D01*
X-4247D01*
Y-49930D01*
X-4422D01*
Y-50105D01*
X-4772D01*
Y-50280D01*
X-5122D01*
Y-50455D01*
X-5472D01*
Y-50630D01*
Y-50805D01*
Y-50980D01*
Y-51155D01*
Y-51329D01*
Y-51504D01*
Y-51679D01*
Y-51854D01*
Y-52029D01*
Y-52204D01*
Y-52379D01*
Y-52554D01*
Y-52729D01*
X-5297D01*
Y-52554D01*
X-4947D01*
Y-52379D01*
X-4597D01*
Y-52204D01*
X-4422D01*
Y-52029D01*
X-4072D01*
Y-51854D01*
X-3722D01*
Y-51679D01*
X-3373D01*
Y-51504D01*
X-3198D01*
Y-51329D01*
X-2848D01*
Y-51155D01*
X-2498D01*
Y-50980D01*
X-2323D01*
Y-50805D01*
X-1973D01*
Y-50630D01*
X-1623D01*
Y-50455D01*
X-1273D01*
Y-50280D01*
X-1098D01*
Y-50105D01*
X-573D01*
Y-50280D01*
X-398D01*
Y-50455D01*
X-49D01*
Y-50630D01*
X301D01*
Y-50805D01*
X476D01*
Y-50980D01*
X826D01*
Y-51155D01*
X1176D01*
Y-51329D01*
X1526D01*
Y-51504D01*
X1701D01*
Y-51679D01*
X2051D01*
Y-51854D01*
X2401D01*
Y-52029D01*
X2751D01*
Y-52204D01*
X2926D01*
Y-52379D01*
X3275D01*
Y-52554D01*
X3625D01*
Y-52729D01*
X3800D01*
Y-52554D01*
Y-52379D01*
Y-52204D01*
Y-52029D01*
Y-51854D01*
Y-51679D01*
Y-51504D01*
Y-51329D01*
Y-51155D01*
Y-50980D01*
Y-50805D01*
Y-50630D01*
X3625D01*
Y-50455D01*
X3450D01*
Y-50280D01*
X3101D01*
Y-50105D01*
X2751D01*
Y-49930D01*
X2576D01*
Y-49755D01*
X2226D01*
Y-49580D01*
X1876D01*
Y-49405D01*
X1526D01*
Y-49230D01*
X1351D01*
Y-49055D01*
X1001D01*
Y-48880D01*
X651D01*
Y-48705D01*
X301D01*
Y-48530D01*
X126D01*
Y-48355D01*
X-224D01*
Y-48180D01*
X-573D01*
Y-48006D01*
D02*
G37*
G36*
Y-52729D02*
X-1098D01*
Y-52904D01*
X-1448D01*
Y-53079D01*
X-1623D01*
Y-53254D01*
X-1973D01*
Y-53429D01*
X-2323D01*
Y-53604D01*
X-2673D01*
Y-53779D01*
X-2848D01*
Y-53954D01*
X-3198D01*
Y-54129D01*
X-3547D01*
Y-54303D01*
X-3722D01*
Y-54479D01*
X-4072D01*
Y-54653D01*
X-4422D01*
Y-54828D01*
X-4772D01*
Y-55003D01*
X-4947D01*
Y-55178D01*
X-5297D01*
Y-55353D01*
X-5472D01*
Y-55528D01*
Y-55703D01*
Y-55878D01*
Y-56053D01*
Y-56228D01*
Y-56403D01*
Y-56578D01*
Y-56753D01*
Y-56928D01*
Y-57103D01*
Y-57278D01*
Y-57452D01*
Y-57627D01*
Y-57802D01*
X-5122D01*
Y-57627D01*
X-4772D01*
Y-57452D01*
X-4597D01*
Y-57278D01*
X-4247D01*
Y-57103D01*
X-3897D01*
Y-56928D01*
X-3547D01*
Y-56753D01*
X-3373D01*
Y-56578D01*
X-3023D01*
Y-56403D01*
X-2673D01*
Y-56228D01*
X-2498D01*
Y-56053D01*
X-2148D01*
Y-55878D01*
X-1798D01*
Y-55703D01*
X-1448D01*
Y-55528D01*
X-1273D01*
Y-55353D01*
X-923D01*
Y-55178D01*
X-748D01*
Y-55353D01*
X-398D01*
Y-55528D01*
X-49D01*
Y-55703D01*
X301D01*
Y-55878D01*
Y-56053D01*
X126D01*
Y-56228D01*
X-224D01*
Y-56403D01*
X-573D01*
Y-56578D01*
X-748D01*
Y-56753D01*
X-1098D01*
Y-56928D01*
X-1448D01*
Y-57103D01*
X-1798D01*
Y-57278D01*
X-1973D01*
Y-57452D01*
X-2323D01*
Y-57627D01*
X-2673D01*
Y-57802D01*
X-3023D01*
Y-57977D01*
X-3198D01*
Y-58152D01*
X-3547D01*
Y-58327D01*
X-3897D01*
Y-58502D01*
X-4072D01*
Y-58677D01*
X-4422D01*
Y-58852D01*
X-4772D01*
Y-59027D01*
X-5122D01*
Y-59202D01*
X-5297D01*
Y-59377D01*
X-5472D01*
Y-59552D01*
Y-59727D01*
Y-59902D01*
Y-60077D01*
Y-60252D01*
Y-60427D01*
Y-60602D01*
Y-60777D01*
X-5297D01*
Y-60951D01*
X-4947D01*
Y-61126D01*
X-4597D01*
Y-61301D01*
X-4422D01*
Y-61476D01*
X-4072D01*
Y-61651D01*
X-3722D01*
Y-61826D01*
X-3373D01*
Y-62001D01*
X-3198D01*
Y-62176D01*
X-2848D01*
Y-62351D01*
X-2498D01*
Y-62526D01*
X-2148D01*
Y-62701D01*
X-1973D01*
Y-62876D01*
X-1623D01*
Y-63051D01*
X-1273D01*
Y-63226D01*
X-923D01*
Y-63401D01*
X-573D01*
Y-63226D01*
X-224D01*
Y-63051D01*
X126D01*
Y-62876D01*
X301D01*
Y-62701D01*
X651D01*
Y-62526D01*
X1001D01*
Y-62351D01*
X1176D01*
Y-62176D01*
X1526D01*
Y-62001D01*
X1876D01*
Y-61826D01*
X2226D01*
Y-61651D01*
X2401D01*
Y-61476D01*
X2751D01*
Y-61301D01*
X3101D01*
Y-61126D01*
X3275D01*
Y-60951D01*
X3625D01*
Y-60777D01*
X3800D01*
Y-60602D01*
Y-60427D01*
Y-60252D01*
Y-60077D01*
Y-59902D01*
Y-59727D01*
Y-59552D01*
Y-59377D01*
Y-59202D01*
Y-59027D01*
Y-58852D01*
Y-58677D01*
Y-58502D01*
Y-58327D01*
X3450D01*
Y-58502D01*
X3101D01*
Y-58677D01*
X2926D01*
Y-58852D01*
X2576D01*
Y-59027D01*
X2226D01*
Y-59202D01*
X2051D01*
Y-59377D01*
X1701D01*
Y-59552D01*
X1351D01*
Y-59727D01*
X1001D01*
Y-59902D01*
X826D01*
Y-60077D01*
X476D01*
Y-60252D01*
X126D01*
Y-60427D01*
X-49D01*
Y-60602D01*
X-398D01*
Y-60777D01*
X-1098D01*
Y-60602D01*
X-1448D01*
Y-60427D01*
X-1798D01*
Y-60252D01*
X-1973D01*
Y-60077D01*
X-1798D01*
Y-59902D01*
X-1448D01*
Y-59727D01*
X-1098D01*
Y-59552D01*
X-748D01*
Y-59377D01*
X-573D01*
Y-59202D01*
X-224D01*
Y-59027D01*
X126D01*
Y-58852D01*
X301D01*
Y-58677D01*
X651D01*
Y-58502D01*
X1001D01*
Y-58327D01*
X1351D01*
Y-58152D01*
X1526D01*
Y-57977D01*
X1876D01*
Y-57802D01*
X2226D01*
Y-57627D01*
X2576D01*
Y-57452D01*
X2751D01*
Y-57278D01*
X3101D01*
Y-57103D01*
X3450D01*
Y-56928D01*
X3625D01*
Y-56753D01*
X3800D01*
Y-56578D01*
Y-56403D01*
Y-56228D01*
Y-56053D01*
Y-55878D01*
Y-55703D01*
Y-55528D01*
Y-55353D01*
Y-55178D01*
X3450D01*
Y-55003D01*
X3101D01*
Y-54828D01*
X2751D01*
Y-54653D01*
X2576D01*
Y-54479D01*
X2226D01*
Y-54303D01*
X1876D01*
Y-54129D01*
X1526D01*
Y-53954D01*
X1351D01*
Y-53779D01*
X1001D01*
Y-53604D01*
X651D01*
Y-53429D01*
X301D01*
Y-53254D01*
X126D01*
Y-53079D01*
X-224D01*
Y-52904D01*
X-573D01*
Y-52729D01*
D02*
G37*
G36*
X6249Y-56753D02*
X6075D01*
Y-56928D01*
Y-57103D01*
Y-57278D01*
Y-57452D01*
Y-57627D01*
Y-57802D01*
Y-57977D01*
Y-58152D01*
Y-58327D01*
Y-58502D01*
Y-58677D01*
Y-58852D01*
Y-59027D01*
Y-59202D01*
Y-59377D01*
Y-59552D01*
Y-59727D01*
Y-59902D01*
Y-60077D01*
Y-60252D01*
Y-60427D01*
Y-60602D01*
Y-60777D01*
Y-60951D01*
Y-61126D01*
Y-61301D01*
Y-61476D01*
Y-61651D01*
Y-61826D01*
Y-62001D01*
Y-62176D01*
X5725D01*
Y-62351D01*
X5550D01*
Y-62526D01*
X5200D01*
Y-62701D01*
X4850D01*
Y-62876D01*
X4500D01*
Y-63051D01*
X4325D01*
Y-63226D01*
X3975D01*
Y-63401D01*
X3625D01*
Y-63576D01*
X3275D01*
Y-63750D01*
X3101D01*
Y-63925D01*
X2751D01*
Y-64100D01*
X2401D01*
Y-64275D01*
X2051D01*
Y-64450D01*
X1876D01*
Y-64625D01*
X1526D01*
Y-64800D01*
X1701D01*
Y-64975D01*
X2051D01*
Y-65150D01*
X2401D01*
Y-65325D01*
X2751D01*
Y-65500D01*
X2926D01*
Y-65675D01*
X3275D01*
Y-65850D01*
X3975D01*
Y-65675D01*
X4150D01*
Y-65500D01*
X4500D01*
Y-65325D01*
X4850D01*
Y-65150D01*
X5200D01*
Y-64975D01*
X5375D01*
Y-64800D01*
X5725D01*
Y-64625D01*
X6075D01*
Y-64450D01*
X6424D01*
Y-64275D01*
X6599D01*
Y-64100D01*
X6949D01*
Y-63925D01*
X7299D01*
Y-63750D01*
X7474D01*
Y-63576D01*
X7824D01*
Y-63401D01*
X8174D01*
Y-63226D01*
Y-63051D01*
Y-62876D01*
Y-62701D01*
Y-62526D01*
Y-62351D01*
Y-62176D01*
Y-62001D01*
Y-61826D01*
Y-61651D01*
Y-61476D01*
Y-61301D01*
Y-61126D01*
Y-60951D01*
Y-60777D01*
Y-60602D01*
Y-60427D01*
Y-60252D01*
Y-60077D01*
Y-59902D01*
Y-59727D01*
Y-59552D01*
Y-59377D01*
Y-59202D01*
Y-59027D01*
Y-58852D01*
Y-58677D01*
Y-58502D01*
Y-58327D01*
Y-58152D01*
Y-57977D01*
Y-57802D01*
X7824D01*
Y-57627D01*
X7474D01*
Y-57452D01*
X7124D01*
Y-57278D01*
X6949D01*
Y-57103D01*
X6599D01*
Y-56928D01*
X6249D01*
Y-56753D01*
D02*
G37*
G36*
X-7746D02*
X-7921D01*
Y-56928D01*
X-8271D01*
Y-57103D01*
X-8446D01*
Y-57278D01*
X-8796D01*
Y-57452D01*
X-9146D01*
Y-57627D01*
X-9496D01*
Y-57802D01*
X-9670D01*
Y-57977D01*
X-9845D01*
Y-58152D01*
Y-58327D01*
Y-58502D01*
Y-58677D01*
Y-58852D01*
Y-59027D01*
Y-59202D01*
Y-59377D01*
Y-59552D01*
Y-59727D01*
Y-59902D01*
Y-60077D01*
Y-60252D01*
Y-60427D01*
Y-60602D01*
Y-60777D01*
Y-60951D01*
Y-61126D01*
Y-61301D01*
Y-61476D01*
Y-61651D01*
Y-61826D01*
Y-62001D01*
Y-62176D01*
Y-62351D01*
Y-62526D01*
Y-62701D01*
Y-62876D01*
Y-63051D01*
Y-63226D01*
Y-63401D01*
X-9496D01*
Y-63576D01*
X-9321D01*
Y-63750D01*
X-8971D01*
Y-63925D01*
X-8621D01*
Y-64100D01*
X-8271D01*
Y-64275D01*
X-8096D01*
Y-64450D01*
X-7746D01*
Y-64625D01*
X-7396D01*
Y-64800D01*
X-7046D01*
Y-64975D01*
X-6871D01*
Y-65150D01*
X-6521D01*
Y-65325D01*
X-6172D01*
Y-65500D01*
X-5822D01*
Y-65675D01*
X-5647D01*
Y-65850D01*
X-4947D01*
Y-65675D01*
X-4597D01*
Y-65500D01*
X-4247D01*
Y-65325D01*
X-4072D01*
Y-65150D01*
X-3722D01*
Y-64975D01*
X-3373D01*
Y-64800D01*
X-3198D01*
Y-64625D01*
X-3547D01*
Y-64450D01*
X-3722D01*
Y-64275D01*
X-4072D01*
Y-64100D01*
X-4422D01*
Y-63925D01*
X-4772D01*
Y-63750D01*
X-4947D01*
Y-63576D01*
X-5297D01*
Y-63401D01*
X-5647D01*
Y-63226D01*
X-5997D01*
Y-63051D01*
X-6346D01*
Y-62876D01*
X-6521D01*
Y-62701D01*
X-6871D01*
Y-62526D01*
X-7221D01*
Y-62351D01*
X-7396D01*
Y-62176D01*
X-7746D01*
Y-62001D01*
Y-61826D01*
Y-61651D01*
Y-61476D01*
Y-61301D01*
Y-61126D01*
Y-60951D01*
Y-60777D01*
Y-60602D01*
Y-60427D01*
Y-60252D01*
Y-60077D01*
Y-59902D01*
Y-59727D01*
Y-59552D01*
Y-59377D01*
Y-59202D01*
Y-59027D01*
Y-58852D01*
Y-58677D01*
Y-58502D01*
Y-58327D01*
Y-58152D01*
Y-57977D01*
Y-57802D01*
Y-57627D01*
Y-57452D01*
Y-57278D01*
Y-57103D01*
Y-56928D01*
Y-56753D01*
D02*
G37*
G36*
X20969Y-80481D02*
X20964D01*
Y-81038D01*
X21046Y-81093D01*
X21122Y-81136D01*
X21149Y-81153D01*
X21177Y-81164D01*
X21193Y-81174D01*
X21198D01*
X21291Y-81202D01*
X21335Y-81213D01*
X21373Y-81218D01*
X21406D01*
X21433Y-81224D01*
X21510D01*
X21559Y-81218D01*
X21597D01*
X21630Y-81213D01*
X21657Y-81207D01*
X21674D01*
X21684Y-81202D01*
X21690D01*
X21745Y-81180D01*
X21783Y-81158D01*
X21810Y-81142D01*
X21821Y-81136D01*
X21854Y-81098D01*
X21876Y-81071D01*
X21886Y-81049D01*
X21892Y-81038D01*
X21897Y-80994D01*
X21903Y-80951D01*
Y-80912D01*
Y-80907D01*
Y-80901D01*
X21897Y-80858D01*
X21892Y-80814D01*
X21881Y-80781D01*
X21870Y-80754D01*
X21859Y-80732D01*
X21848Y-80716D01*
X21837Y-80705D01*
Y-80699D01*
X21810Y-80672D01*
X21777Y-80650D01*
X21717Y-80612D01*
X21690Y-80596D01*
X21668Y-80585D01*
X21652Y-80579D01*
X21646D01*
X21602Y-80568D01*
X21553Y-80557D01*
X21455Y-80541D01*
X21411Y-80536D01*
X21373Y-80530D01*
X21351Y-80525D01*
X21340D01*
X21264Y-80514D01*
X21198Y-80508D01*
X21133Y-80497D01*
X21078Y-80492D01*
X21029Y-80487D01*
X20996D01*
X20969Y-80481D01*
D02*
G37*
G36*
X14849D02*
X14843D01*
Y-81038D01*
X14925Y-81093D01*
X15001Y-81136D01*
X15029Y-81153D01*
X15056Y-81164D01*
X15072Y-81174D01*
X15078D01*
X15171Y-81202D01*
X15214Y-81213D01*
X15252Y-81218D01*
X15285D01*
X15313Y-81224D01*
X15389D01*
X15438Y-81218D01*
X15476D01*
X15509Y-81213D01*
X15536Y-81207D01*
X15553D01*
X15564Y-81202D01*
X15569D01*
X15624Y-81180D01*
X15662Y-81158D01*
X15689Y-81142D01*
X15700Y-81136D01*
X15733Y-81098D01*
X15755Y-81071D01*
X15766Y-81049D01*
X15771Y-81038D01*
X15777Y-80994D01*
X15782Y-80951D01*
Y-80912D01*
Y-80907D01*
Y-80901D01*
X15777Y-80858D01*
X15771Y-80814D01*
X15760Y-80781D01*
X15749Y-80754D01*
X15739Y-80732D01*
X15728Y-80716D01*
X15717Y-80705D01*
Y-80699D01*
X15689Y-80672D01*
X15656Y-80650D01*
X15597Y-80612D01*
X15569Y-80596D01*
X15547Y-80585D01*
X15531Y-80579D01*
X15526D01*
X15482Y-80568D01*
X15433Y-80557D01*
X15334Y-80541D01*
X15291Y-80536D01*
X15252Y-80530D01*
X15231Y-80525D01*
X15220D01*
X15143Y-80514D01*
X15078Y-80508D01*
X15012Y-80497D01*
X14958Y-80492D01*
X14909Y-80487D01*
X14876D01*
X14849Y-80481D01*
D02*
G37*
G36*
X7865D02*
X7860D01*
Y-81038D01*
X7942Y-81093D01*
X8018Y-81136D01*
X8045Y-81153D01*
X8073Y-81164D01*
X8089Y-81174D01*
X8095D01*
X8187Y-81202D01*
X8231Y-81213D01*
X8269Y-81218D01*
X8302D01*
X8329Y-81224D01*
X8406D01*
X8455Y-81218D01*
X8493D01*
X8526Y-81213D01*
X8553Y-81207D01*
X8569D01*
X8580Y-81202D01*
X8586D01*
X8640Y-81180D01*
X8679Y-81158D01*
X8706Y-81142D01*
X8717Y-81136D01*
X8750Y-81098D01*
X8771Y-81071D01*
X8782Y-81049D01*
X8788Y-81038D01*
X8793Y-80994D01*
X8799Y-80951D01*
Y-80912D01*
Y-80907D01*
Y-80901D01*
X8793Y-80858D01*
X8788Y-80814D01*
X8777Y-80781D01*
X8766Y-80754D01*
X8755Y-80732D01*
X8744Y-80716D01*
X8733Y-80705D01*
Y-80699D01*
X8706Y-80672D01*
X8673Y-80650D01*
X8613Y-80612D01*
X8586Y-80596D01*
X8564Y-80585D01*
X8548Y-80579D01*
X8542D01*
X8499Y-80568D01*
X8449Y-80557D01*
X8351Y-80541D01*
X8307Y-80536D01*
X8269Y-80530D01*
X8247Y-80525D01*
X8236D01*
X8160Y-80514D01*
X8095Y-80508D01*
X8029Y-80497D01*
X7974Y-80492D01*
X7925Y-80487D01*
X7892D01*
X7865Y-80481D01*
D02*
G37*
G36*
X2209D02*
X2203D01*
Y-81038D01*
X2285Y-81093D01*
X2361Y-81136D01*
X2389Y-81153D01*
X2416Y-81164D01*
X2432Y-81174D01*
X2438D01*
X2531Y-81202D01*
X2574Y-81213D01*
X2613Y-81218D01*
X2645D01*
X2673Y-81224D01*
X2749D01*
X2798Y-81218D01*
X2836D01*
X2869Y-81213D01*
X2897Y-81207D01*
X2913D01*
X2924Y-81202D01*
X2929D01*
X2984Y-81180D01*
X3022Y-81158D01*
X3049Y-81142D01*
X3060Y-81136D01*
X3093Y-81098D01*
X3115Y-81071D01*
X3126Y-81049D01*
X3131Y-81038D01*
X3137Y-80994D01*
X3142Y-80951D01*
Y-80912D01*
Y-80907D01*
Y-80901D01*
X3137Y-80858D01*
X3131Y-80814D01*
X3120Y-80781D01*
X3109Y-80754D01*
X3098Y-80732D01*
X3088Y-80716D01*
X3077Y-80705D01*
Y-80699D01*
X3049Y-80672D01*
X3017Y-80650D01*
X2957Y-80612D01*
X2929Y-80596D01*
X2908Y-80585D01*
X2891Y-80579D01*
X2886D01*
X2842Y-80568D01*
X2793Y-80557D01*
X2695Y-80541D01*
X2651Y-80536D01*
X2613Y-80530D01*
X2591Y-80525D01*
X2580D01*
X2503Y-80514D01*
X2438Y-80508D01*
X2372Y-80497D01*
X2318Y-80492D01*
X2269Y-80487D01*
X2236D01*
X2209Y-80481D01*
D02*
G37*
G36*
X-4103Y-79586D02*
X-4147D01*
X-4234Y-79591D01*
X-4272Y-79597D01*
X-4305Y-79607D01*
X-4332Y-79613D01*
X-4354Y-79624D01*
X-4365Y-79629D01*
X-4371D01*
X-4409Y-79646D01*
X-4447Y-79668D01*
X-4507Y-79711D01*
X-4529Y-79733D01*
X-4546Y-79749D01*
X-4551Y-79760D01*
X-4556Y-79766D01*
X-4584Y-79804D01*
X-4606Y-79842D01*
X-4644Y-79924D01*
X-4660Y-79962D01*
X-4671Y-79990D01*
X-4676Y-80011D01*
Y-80017D01*
X-4693Y-80077D01*
X-4704Y-80142D01*
X-4709Y-80208D01*
X-4715Y-80273D01*
X-4720Y-80328D01*
Y-80372D01*
Y-80399D01*
Y-80405D01*
Y-80410D01*
Y-80497D01*
X-4715Y-80579D01*
X-4709Y-80645D01*
X-4698Y-80705D01*
X-4693Y-80749D01*
X-4682Y-80781D01*
X-4676Y-80803D01*
Y-80809D01*
X-4638Y-80907D01*
X-4616Y-80945D01*
X-4600Y-80983D01*
X-4578Y-81011D01*
X-4567Y-81033D01*
X-4556Y-81043D01*
X-4551Y-81049D01*
X-4491Y-81109D01*
X-4436Y-81147D01*
X-4409Y-81164D01*
X-4387Y-81174D01*
X-4376Y-81180D01*
X-4371D01*
X-4294Y-81202D01*
X-4223Y-81213D01*
X-4196Y-81218D01*
X-4152D01*
X-4054Y-81213D01*
X-4016Y-81207D01*
X-3978Y-81196D01*
X-3950Y-81191D01*
X-3929Y-81185D01*
X-3912Y-81180D01*
X-3907D01*
X-3836Y-81142D01*
X-3781Y-81093D01*
X-3759Y-81076D01*
X-3743Y-81060D01*
X-3737Y-81049D01*
X-3732Y-81043D01*
X-3705Y-81005D01*
X-3677Y-80962D01*
X-3639Y-80880D01*
X-3628Y-80841D01*
X-3617Y-80814D01*
X-3612Y-80792D01*
Y-80787D01*
X-3601Y-80727D01*
X-3590Y-80661D01*
X-3585Y-80596D01*
X-3579Y-80541D01*
X-3574Y-80487D01*
Y-80448D01*
Y-80421D01*
Y-80410D01*
Y-80323D01*
X-3579Y-80246D01*
X-3590Y-80181D01*
X-3595Y-80121D01*
X-3606Y-80072D01*
X-3612Y-80039D01*
X-3617Y-80017D01*
Y-80011D01*
X-3634Y-79951D01*
X-3655Y-79902D01*
X-3677Y-79859D01*
X-3699Y-79820D01*
X-3715Y-79793D01*
X-3732Y-79771D01*
X-3737Y-79760D01*
X-3743Y-79755D01*
X-3776Y-79722D01*
X-3808Y-79695D01*
X-3868Y-79651D01*
X-3890Y-79640D01*
X-3907Y-79629D01*
X-3918Y-79624D01*
X-3923D01*
X-3999Y-79602D01*
X-4070Y-79591D01*
X-4103Y-79586D01*
D02*
G37*
G36*
X-19713D02*
X-19757D01*
X-19844Y-79591D01*
X-19883Y-79597D01*
X-19915Y-79607D01*
X-19943Y-79613D01*
X-19964Y-79624D01*
X-19975Y-79629D01*
X-19981D01*
X-20019Y-79646D01*
X-20057Y-79668D01*
X-20117Y-79711D01*
X-20139Y-79733D01*
X-20156Y-79749D01*
X-20161Y-79760D01*
X-20166Y-79766D01*
X-20194Y-79804D01*
X-20216Y-79842D01*
X-20254Y-79924D01*
X-20270Y-79962D01*
X-20281Y-79990D01*
X-20287Y-80011D01*
Y-80017D01*
X-20303Y-80077D01*
X-20314Y-80142D01*
X-20319Y-80208D01*
X-20325Y-80273D01*
X-20330Y-80328D01*
Y-80372D01*
Y-80399D01*
Y-80405D01*
Y-80410D01*
Y-80497D01*
X-20325Y-80579D01*
X-20319Y-80645D01*
X-20309Y-80705D01*
X-20303Y-80749D01*
X-20292Y-80781D01*
X-20287Y-80803D01*
Y-80809D01*
X-20248Y-80907D01*
X-20227Y-80945D01*
X-20210Y-80983D01*
X-20188Y-81011D01*
X-20177Y-81033D01*
X-20166Y-81043D01*
X-20161Y-81049D01*
X-20101Y-81109D01*
X-20046Y-81147D01*
X-20019Y-81164D01*
X-19997Y-81174D01*
X-19986Y-81180D01*
X-19981D01*
X-19904Y-81202D01*
X-19833Y-81213D01*
X-19806Y-81218D01*
X-19762D01*
X-19664Y-81213D01*
X-19626Y-81207D01*
X-19588Y-81196D01*
X-19560Y-81191D01*
X-19539Y-81185D01*
X-19522Y-81180D01*
X-19517D01*
X-19446Y-81142D01*
X-19391Y-81093D01*
X-19369Y-81076D01*
X-19353Y-81060D01*
X-19347Y-81049D01*
X-19342Y-81043D01*
X-19315Y-81005D01*
X-19287Y-80962D01*
X-19249Y-80880D01*
X-19238Y-80841D01*
X-19227Y-80814D01*
X-19222Y-80792D01*
Y-80787D01*
X-19211Y-80727D01*
X-19200Y-80661D01*
X-19195Y-80596D01*
X-19189Y-80541D01*
X-19184Y-80487D01*
Y-80448D01*
Y-80421D01*
Y-80410D01*
Y-80323D01*
X-19189Y-80246D01*
X-19200Y-80181D01*
X-19206Y-80121D01*
X-19217Y-80072D01*
X-19222Y-80039D01*
X-19227Y-80017D01*
Y-80011D01*
X-19244Y-79951D01*
X-19266Y-79902D01*
X-19287Y-79859D01*
X-19309Y-79820D01*
X-19326Y-79793D01*
X-19342Y-79771D01*
X-19347Y-79760D01*
X-19353Y-79755D01*
X-19386Y-79722D01*
X-19419Y-79695D01*
X-19479Y-79651D01*
X-19500Y-79640D01*
X-19517Y-79629D01*
X-19528Y-79624D01*
X-19533D01*
X-19610Y-79602D01*
X-19681Y-79591D01*
X-19713Y-79586D01*
D02*
G37*
G36*
X1398Y-93028D02*
X1359D01*
X1267Y-93033D01*
X1185Y-93050D01*
X1119Y-93071D01*
X1065Y-93093D01*
X1021Y-93120D01*
X988Y-93142D01*
X972Y-93159D01*
X966Y-93164D01*
X923Y-93219D01*
X890Y-93284D01*
X868Y-93350D01*
X852Y-93415D01*
X841Y-93470D01*
X835Y-93519D01*
X830Y-93552D01*
Y-93557D01*
Y-93563D01*
X1944D01*
X1927Y-93464D01*
X1905Y-93383D01*
X1878Y-93312D01*
X1846Y-93257D01*
X1813Y-93213D01*
X1791Y-93181D01*
X1769Y-93164D01*
X1764Y-93159D01*
X1698Y-93115D01*
X1633Y-93082D01*
X1567Y-93060D01*
X1501Y-93044D01*
X1447Y-93033D01*
X1398Y-93028D01*
D02*
G37*
G36*
X5444Y-92356D02*
X5007D01*
X4958Y-92362D01*
X4887D01*
X4859Y-92367D01*
X4838D01*
X4750Y-92378D01*
X4712Y-92383D01*
X4679Y-92394D01*
X4657Y-92400D01*
X4636Y-92405D01*
X4625Y-92411D01*
X4619D01*
X4575Y-92433D01*
X4537Y-92460D01*
X4504Y-92482D01*
X4477Y-92509D01*
X4455Y-92531D01*
X4444Y-92547D01*
X4434Y-92558D01*
Y-92564D01*
X4401Y-92640D01*
X4384Y-92711D01*
X4379Y-92738D01*
Y-92766D01*
Y-92782D01*
Y-92787D01*
Y-92842D01*
X4384Y-92886D01*
X4390Y-92929D01*
X4401Y-92962D01*
X4406Y-92989D01*
X4417Y-93011D01*
X4423Y-93022D01*
Y-93028D01*
X4461Y-93088D01*
X4510Y-93137D01*
X4532Y-93159D01*
X4548Y-93175D01*
X4559Y-93181D01*
X4565Y-93186D01*
X4646Y-93235D01*
X4723Y-93262D01*
X4756Y-93273D01*
X4783Y-93279D01*
X4805Y-93284D01*
X4810D01*
X4865Y-93290D01*
X4925Y-93295D01*
X4985D01*
X5045Y-93301D01*
X5444D01*
Y-92356D01*
D02*
G37*
G36*
X14352Y-73604D02*
X14346D01*
Y-74161D01*
X14428Y-74215D01*
X14504Y-74259D01*
X14532Y-74275D01*
X14559Y-74286D01*
X14575Y-74297D01*
X14581D01*
X14674Y-74325D01*
X14717Y-74335D01*
X14756Y-74341D01*
X14788D01*
X14816Y-74346D01*
X14892D01*
X14941Y-74341D01*
X14979D01*
X15012Y-74335D01*
X15040Y-74330D01*
X15056D01*
X15067Y-74325D01*
X15072D01*
X15127Y-74303D01*
X15165Y-74281D01*
X15192Y-74264D01*
X15203Y-74259D01*
X15236Y-74221D01*
X15258Y-74193D01*
X15269Y-74172D01*
X15274Y-74161D01*
X15280Y-74117D01*
X15285Y-74073D01*
Y-74035D01*
Y-74030D01*
Y-74024D01*
X15280Y-73980D01*
X15274Y-73937D01*
X15263Y-73904D01*
X15252Y-73877D01*
X15242Y-73855D01*
X15231Y-73839D01*
X15220Y-73828D01*
Y-73822D01*
X15192Y-73795D01*
X15160Y-73773D01*
X15100Y-73735D01*
X15072Y-73718D01*
X15051Y-73707D01*
X15034Y-73702D01*
X15029D01*
X14985Y-73691D01*
X14936Y-73680D01*
X14838Y-73664D01*
X14794Y-73658D01*
X14756Y-73653D01*
X14734Y-73647D01*
X14723D01*
X14646Y-73637D01*
X14581Y-73631D01*
X14515Y-73620D01*
X14461Y-73615D01*
X14412Y-73609D01*
X14379D01*
X14352Y-73604D01*
D02*
G37*
G36*
X6369Y-72648D02*
X6331D01*
X6238Y-72654D01*
X6156Y-72670D01*
X6091Y-72692D01*
X6036Y-72714D01*
X5992Y-72741D01*
X5960Y-72763D01*
X5943Y-72779D01*
X5938Y-72785D01*
X5894Y-72839D01*
X5861Y-72905D01*
X5839Y-72970D01*
X5823Y-73036D01*
X5812Y-73090D01*
X5807Y-73140D01*
X5801Y-73172D01*
Y-73178D01*
Y-73183D01*
X6915D01*
X6899Y-73085D01*
X6877Y-73003D01*
X6850Y-72932D01*
X6817Y-72878D01*
X6784Y-72834D01*
X6762Y-72801D01*
X6740Y-72785D01*
X6735Y-72779D01*
X6669Y-72736D01*
X6604Y-72703D01*
X6538Y-72681D01*
X6473Y-72665D01*
X6418Y-72654D01*
X6369Y-72648D01*
D02*
G37*
G36*
X-3929Y-71988D02*
X-4256D01*
X-4343Y-71993D01*
X-4420Y-71999D01*
X-4480D01*
X-4529Y-72004D01*
X-4562Y-72009D01*
X-4584Y-72015D01*
X-4589D01*
X-4698Y-72042D01*
X-4747Y-72059D01*
X-4791Y-72070D01*
X-4824Y-72086D01*
X-4857Y-72097D01*
X-4873Y-72102D01*
X-4879Y-72108D01*
X-4977Y-72162D01*
X-5059Y-72228D01*
X-5124Y-72293D01*
X-5179Y-72353D01*
X-5223Y-72408D01*
X-5255Y-72457D01*
X-5272Y-72484D01*
X-5277Y-72490D01*
Y-72495D01*
X-5321Y-72594D01*
X-5353Y-72692D01*
X-5375Y-72790D01*
X-5392Y-72883D01*
X-5403Y-72965D01*
Y-73003D01*
X-5408Y-73030D01*
Y-73058D01*
Y-73074D01*
Y-73085D01*
Y-73090D01*
X-5403Y-73216D01*
X-5392Y-73331D01*
X-5370Y-73429D01*
X-5348Y-73511D01*
X-5326Y-73582D01*
X-5304Y-73631D01*
X-5294Y-73664D01*
X-5288Y-73669D01*
Y-73675D01*
X-5239Y-73757D01*
X-5184Y-73833D01*
X-5124Y-73899D01*
X-5064Y-73953D01*
X-5010Y-73991D01*
X-4966Y-74024D01*
X-4939Y-74046D01*
X-4933Y-74051D01*
X-4928D01*
X-4818Y-74101D01*
X-4769Y-74122D01*
X-4720Y-74139D01*
X-4682Y-74150D01*
X-4655Y-74155D01*
X-4633Y-74161D01*
X-4627D01*
X-4567Y-74172D01*
X-4491Y-74177D01*
X-4414Y-74182D01*
X-4332D01*
X-4262Y-74188D01*
X-3929D01*
Y-71988D01*
D02*
G37*
G36*
X-13533Y-71977D02*
X-13920D01*
X-13964Y-71982D01*
X-14024D01*
X-14079Y-71988D01*
X-14122Y-71993D01*
X-14166Y-71999D01*
X-14204Y-72004D01*
X-14232Y-72015D01*
X-14253Y-72020D01*
X-14264Y-72026D01*
X-14270D01*
X-14308Y-72042D01*
X-14341Y-72064D01*
X-14368Y-72080D01*
X-14390Y-72102D01*
X-14417Y-72135D01*
X-14428Y-72146D01*
Y-72151D01*
X-14455Y-72217D01*
X-14466Y-72272D01*
X-14472Y-72293D01*
Y-72310D01*
Y-72321D01*
Y-72326D01*
X-14466Y-72408D01*
X-14455Y-72468D01*
X-14444Y-72495D01*
X-14439Y-72512D01*
X-14434Y-72523D01*
Y-72528D01*
X-14417Y-72561D01*
X-14390Y-72588D01*
X-14335Y-72632D01*
X-14313Y-72648D01*
X-14292Y-72659D01*
X-14275Y-72670D01*
X-14270D01*
X-14237Y-72681D01*
X-14193Y-72692D01*
X-14117Y-72708D01*
X-14084D01*
X-14057Y-72714D01*
X-13969D01*
X-13909Y-72719D01*
X-13533D01*
Y-71977D01*
D02*
G37*
G36*
Y-73331D02*
X-13997D01*
X-14046Y-73336D01*
X-14182D01*
X-14242Y-73342D01*
X-14292Y-73347D01*
X-14330Y-73353D01*
X-14363Y-73358D01*
X-14390Y-73364D01*
X-14401Y-73369D01*
X-14406D01*
X-14461Y-73385D01*
X-14510Y-73407D01*
X-14548Y-73429D01*
X-14575Y-73451D01*
X-14603Y-73473D01*
X-14619Y-73489D01*
X-14625Y-73500D01*
X-14630Y-73506D01*
X-14652Y-73544D01*
X-14668Y-73582D01*
X-14690Y-73664D01*
Y-73702D01*
X-14696Y-73735D01*
Y-73757D01*
Y-73762D01*
X-14685Y-73849D01*
X-14679Y-73888D01*
X-14668Y-73920D01*
X-14657Y-73948D01*
X-14652Y-73970D01*
X-14641Y-73980D01*
Y-73986D01*
X-14619Y-74019D01*
X-14586Y-74051D01*
X-14521Y-74101D01*
X-14494Y-74123D01*
X-14466Y-74133D01*
X-14450Y-74139D01*
X-14444Y-74144D01*
X-14390Y-74166D01*
X-14341Y-74177D01*
X-14286Y-74188D01*
X-14242Y-74199D01*
X-14199D01*
X-14166Y-74204D01*
X-13533D01*
Y-73331D01*
D02*
G37*
G36*
X-17491Y-72708D02*
X-17535D01*
X-17622Y-72714D01*
X-17660Y-72719D01*
X-17693Y-72730D01*
X-17720Y-72736D01*
X-17742Y-72746D01*
X-17753Y-72752D01*
X-17759D01*
X-17797Y-72768D01*
X-17835Y-72790D01*
X-17895Y-72834D01*
X-17917Y-72856D01*
X-17933Y-72872D01*
X-17939Y-72883D01*
X-17944Y-72888D01*
X-17972Y-72927D01*
X-17993Y-72965D01*
X-18032Y-73047D01*
X-18048Y-73085D01*
X-18059Y-73112D01*
X-18064Y-73134D01*
Y-73140D01*
X-18081Y-73200D01*
X-18092Y-73265D01*
X-18097Y-73331D01*
X-18103Y-73396D01*
X-18108Y-73451D01*
Y-73495D01*
Y-73522D01*
Y-73527D01*
Y-73533D01*
Y-73620D01*
X-18103Y-73702D01*
X-18097Y-73768D01*
X-18086Y-73828D01*
X-18081Y-73871D01*
X-18070Y-73904D01*
X-18064Y-73926D01*
Y-73931D01*
X-18026Y-74030D01*
X-18004Y-74068D01*
X-17988Y-74106D01*
X-17966Y-74133D01*
X-17955Y-74155D01*
X-17944Y-74166D01*
X-17939Y-74172D01*
X-17879Y-74232D01*
X-17824Y-74270D01*
X-17797Y-74286D01*
X-17775Y-74297D01*
X-17764Y-74303D01*
X-17759D01*
X-17682Y-74325D01*
X-17611Y-74335D01*
X-17584Y-74341D01*
X-17540D01*
X-17442Y-74335D01*
X-17404Y-74330D01*
X-17366Y-74319D01*
X-17338Y-74313D01*
X-17316Y-74308D01*
X-17300Y-74303D01*
X-17295D01*
X-17224Y-74264D01*
X-17169Y-74215D01*
X-17147Y-74199D01*
X-17131Y-74182D01*
X-17125Y-74172D01*
X-17120Y-74166D01*
X-17093Y-74128D01*
X-17065Y-74084D01*
X-17027Y-74002D01*
X-17016Y-73964D01*
X-17005Y-73937D01*
X-17000Y-73915D01*
Y-73909D01*
X-16989Y-73849D01*
X-16978Y-73784D01*
X-16972Y-73718D01*
X-16967Y-73664D01*
X-16962Y-73609D01*
Y-73571D01*
Y-73544D01*
Y-73533D01*
Y-73445D01*
X-16967Y-73369D01*
X-16978Y-73303D01*
X-16983Y-73243D01*
X-16994Y-73194D01*
X-17000Y-73162D01*
X-17005Y-73140D01*
Y-73134D01*
X-17021Y-73074D01*
X-17043Y-73025D01*
X-17065Y-72981D01*
X-17087Y-72943D01*
X-17104Y-72916D01*
X-17120Y-72894D01*
X-17125Y-72883D01*
X-17131Y-72878D01*
X-17164Y-72845D01*
X-17196Y-72817D01*
X-17256Y-72774D01*
X-17278Y-72763D01*
X-17295Y-72752D01*
X-17305Y-72746D01*
X-17311D01*
X-17387Y-72725D01*
X-17458Y-72714D01*
X-17491Y-72708D01*
D02*
G37*
G36*
X-8518Y-86310D02*
X-8556D01*
X-8649Y-86316D01*
X-8731Y-86332D01*
X-8796Y-86354D01*
X-8851Y-86376D01*
X-8894Y-86403D01*
X-8927Y-86425D01*
X-8944Y-86441D01*
X-8949Y-86447D01*
X-8993Y-86501D01*
X-9025Y-86567D01*
X-9047Y-86633D01*
X-9064Y-86698D01*
X-9075Y-86753D01*
X-9080Y-86802D01*
X-9085Y-86835D01*
Y-86840D01*
Y-86845D01*
X-7972D01*
X-7988Y-86747D01*
X-8010Y-86665D01*
X-8037Y-86594D01*
X-8070Y-86540D01*
X-8103Y-86496D01*
X-8124Y-86463D01*
X-8146Y-86447D01*
X-8152Y-86441D01*
X-8217Y-86398D01*
X-8283Y-86365D01*
X-8348Y-86343D01*
X-8414Y-86327D01*
X-8468Y-86316D01*
X-8518Y-86310D01*
D02*
G37*
G36*
X-4237Y-85650D02*
X-4565D01*
X-4652Y-85655D01*
X-4728Y-85661D01*
X-4788D01*
X-4838Y-85666D01*
X-4870Y-85672D01*
X-4892Y-85677D01*
X-4898D01*
X-5007Y-85704D01*
X-5056Y-85721D01*
X-5100Y-85732D01*
X-5132Y-85748D01*
X-5165Y-85759D01*
X-5181Y-85764D01*
X-5187Y-85770D01*
X-5285Y-85825D01*
X-5367Y-85890D01*
X-5433Y-85956D01*
X-5487Y-86016D01*
X-5531Y-86070D01*
X-5564Y-86119D01*
X-5580Y-86147D01*
X-5586Y-86152D01*
Y-86158D01*
X-5629Y-86256D01*
X-5662Y-86354D01*
X-5684Y-86452D01*
X-5700Y-86545D01*
X-5711Y-86627D01*
Y-86665D01*
X-5717Y-86693D01*
Y-86720D01*
Y-86736D01*
Y-86747D01*
Y-86753D01*
X-5711Y-86878D01*
X-5700Y-86993D01*
X-5678Y-87091D01*
X-5657Y-87173D01*
X-5635Y-87244D01*
X-5613Y-87293D01*
X-5602Y-87326D01*
X-5596Y-87331D01*
Y-87337D01*
X-5547Y-87419D01*
X-5493Y-87495D01*
X-5433Y-87561D01*
X-5373Y-87615D01*
X-5318Y-87654D01*
X-5274Y-87686D01*
X-5247Y-87708D01*
X-5242Y-87714D01*
X-5236D01*
X-5127Y-87763D01*
X-5078Y-87785D01*
X-5029Y-87801D01*
X-4990Y-87812D01*
X-4963Y-87817D01*
X-4941Y-87823D01*
X-4936D01*
X-4876Y-87834D01*
X-4799Y-87839D01*
X-4723Y-87845D01*
X-4641D01*
X-4570Y-87850D01*
X-4237D01*
Y-85650D01*
D02*
G37*
G36*
X8108Y-85568D02*
X8081D01*
X8026Y-85573D01*
X7977Y-85579D01*
X7895Y-85612D01*
X7824Y-85655D01*
X7764Y-85704D01*
X7720Y-85754D01*
X7688Y-85797D01*
X7671Y-85830D01*
X7666Y-85835D01*
Y-85841D01*
X7644Y-85896D01*
X7622Y-85956D01*
X7606Y-86027D01*
X7595Y-86098D01*
X7573Y-86250D01*
X7557Y-86398D01*
X7551Y-86469D01*
X7546Y-86534D01*
Y-86594D01*
X7540Y-86649D01*
Y-86693D01*
Y-86725D01*
Y-86747D01*
Y-86753D01*
Y-86867D01*
X7546Y-86971D01*
X7551Y-87069D01*
X7562Y-87162D01*
X7573Y-87244D01*
X7584Y-87321D01*
X7595Y-87386D01*
X7606Y-87446D01*
X7617Y-87501D01*
X7628Y-87544D01*
X7638Y-87583D01*
X7649Y-87610D01*
X7660Y-87632D01*
X7666Y-87654D01*
X7671Y-87659D01*
Y-87665D01*
X7699Y-87714D01*
X7726Y-87752D01*
X7753Y-87790D01*
X7786Y-87823D01*
X7857Y-87872D01*
X7923Y-87905D01*
X7982Y-87921D01*
X8032Y-87932D01*
X8070Y-87937D01*
X8081D01*
X8135Y-87932D01*
X8179Y-87927D01*
X8266Y-87894D01*
X8337Y-87850D01*
X8398Y-87801D01*
X8441Y-87752D01*
X8474Y-87708D01*
X8490Y-87675D01*
X8496Y-87670D01*
Y-87665D01*
X8518Y-87610D01*
X8539Y-87544D01*
X8567Y-87408D01*
X8589Y-87255D01*
X8605Y-87108D01*
X8610Y-87037D01*
X8616Y-86971D01*
Y-86911D01*
X8621Y-86862D01*
Y-86818D01*
Y-86786D01*
Y-86764D01*
Y-86758D01*
Y-86643D01*
X8616Y-86534D01*
X8610Y-86436D01*
X8605Y-86343D01*
X8594Y-86261D01*
X8583Y-86185D01*
X8572Y-86119D01*
X8561Y-86059D01*
X8550Y-86005D01*
X8539Y-85961D01*
X8529Y-85923D01*
X8518Y-85896D01*
X8512Y-85868D01*
X8507Y-85852D01*
X8501Y-85846D01*
Y-85841D01*
X8474Y-85792D01*
X8447Y-85748D01*
X8414Y-85715D01*
X8381Y-85682D01*
X8310Y-85633D01*
X8245Y-85601D01*
X8179Y-85584D01*
X8130Y-85573D01*
X8108Y-85568D01*
D02*
G37*
%LPD*%
M02*
