G04*
G04 #@! TF.GenerationSoftware,Altium Limited,Altium Designer,23.3.1 (30)*
G04*
G04 Layer_Physical_Order=2*
G04 Layer_Color=16711680*
%FSLAX25Y25*%
%MOIN*%
G70*
G04*
G04 #@! TF.SameCoordinates,D2BD120D-7BFA-4985-A6C7-D6EA5F31A85F*
G04*
G04*
G04 #@! TF.FilePolarity,Positive*
G04*
G01*
G75*
%ADD65C,0.01968*%
%ADD71C,0.05906*%
%ADD72R,0.05906X0.05906*%
%ADD73R,0.05906X0.05906*%
%ADD74C,0.13780*%
%ADD75C,0.04724*%
%ADD76R,0.04724X0.04724*%
%ADD77C,0.06000*%
%ADD78R,0.05906X0.07874*%
%ADD79O,0.05906X0.07874*%
%ADD80C,0.03150*%
G36*
X87402Y111768D02*
Y111768D01*
X87885Y111729D01*
X88665Y111652D01*
X89880Y111283D01*
X91000Y110685D01*
X91982Y109879D01*
X92787Y108898D01*
X93386Y107778D01*
X93754Y106563D01*
X93831Y105787D01*
X93871Y105299D01*
X93871Y105299D01*
X93871Y104808D01*
Y-97127D01*
X93871Y-97626D01*
X93831Y-98110D01*
X93754Y-98890D01*
X93386Y-100105D01*
X92787Y-101225D01*
X91982Y-102206D01*
X91000Y-103012D01*
X89880Y-103610D01*
X88665Y-103979D01*
X87885Y-104056D01*
X87402Y-104095D01*
Y-104095D01*
X87401Y-104095D01*
X-87401D01*
X-87402Y-104095D01*
Y-104095D01*
X-87885Y-104056D01*
X-88665Y-103979D01*
X-89880Y-103610D01*
X-91000Y-103012D01*
X-91982Y-102206D01*
X-92787Y-101225D01*
X-93386Y-100105D01*
X-93754Y-98890D01*
X-93831Y-98110D01*
X-93871Y-97626D01*
X-93871Y-97128D01*
Y104801D01*
X-93871Y105299D01*
X-93831Y105783D01*
X-93754Y106563D01*
X-93386Y107778D01*
X-92787Y108898D01*
X-91982Y109879D01*
X-91000Y110685D01*
X-89880Y111283D01*
X-88665Y111652D01*
X-87885Y111729D01*
X-87402Y111768D01*
Y111768D01*
X-87401Y111768D01*
X-67874D01*
X-67874Y111768D01*
Y111768D01*
X-67390Y111729D01*
X-66610Y111652D01*
X-65395Y111283D01*
X-64275Y110685D01*
X-63294Y109879D01*
X-62488Y108898D01*
X-61890Y107778D01*
X-61521Y106563D01*
X-61444Y105783D01*
X-61405Y105299D01*
D01*
X-61405Y104803D01*
Y87500D01*
X-61407D01*
X-61292Y86626D01*
X-60955Y85812D01*
X-60418Y85113D01*
X-59719Y84577D01*
X-58905Y84240D01*
X-58031Y84125D01*
Y84127D01*
X-58031Y84127D01*
X-3162D01*
X-2971Y83665D01*
X-4048Y82587D01*
X-4527Y81871D01*
X-4695Y81026D01*
Y77226D01*
X-4894Y76966D01*
X-5172Y76295D01*
X-5267Y75576D01*
X-5172Y74856D01*
X-4894Y74186D01*
X-4453Y73610D01*
X-4017Y73276D01*
X-3891Y72694D01*
X-4382Y72203D01*
X-4707Y72161D01*
X-5377Y71883D01*
X-5953Y71441D01*
X-6395Y70866D01*
X-6672Y70195D01*
X-6767Y69476D01*
X-6672Y68756D01*
X-6395Y68086D01*
X-5953Y67510D01*
X-5377Y67068D01*
X-4707Y66791D01*
X-3987Y66696D01*
X-3268Y66791D01*
X-2597Y67068D01*
X-2022Y67510D01*
X-1580Y68086D01*
X-1302Y68756D01*
X-1259Y69081D01*
X3028Y73368D01*
X4145D01*
X4427Y73424D01*
X4801Y72989D01*
X4733Y72476D01*
X4828Y71756D01*
X5105Y71086D01*
X5547Y70510D01*
X6123Y70068D01*
X6793Y69791D01*
X7118Y69748D01*
X17427Y59439D01*
X18144Y58960D01*
X18989Y58792D01*
X66483D01*
X67052Y58052D01*
X67915Y57389D01*
X68921Y56972D01*
X70000Y56830D01*
X71079Y56972D01*
X72085Y57389D01*
X72948Y58052D01*
X73611Y58915D01*
X74027Y59921D01*
X74169Y61000D01*
X74027Y62079D01*
X73611Y63085D01*
X72948Y63948D01*
X72085Y64611D01*
X71079Y65027D01*
X70000Y65169D01*
X69075Y65048D01*
X67718Y66404D01*
X67909Y66866D01*
X74134D01*
Y75134D01*
X65866D01*
Y68330D01*
X65480Y68013D01*
X65124Y68084D01*
X29863D01*
X29603Y68283D01*
X28932Y68561D01*
X28213Y68655D01*
X27493Y68561D01*
X26823Y68283D01*
X26247Y67841D01*
X25806Y67266D01*
X25528Y66595D01*
X25433Y65876D01*
X25528Y65156D01*
X25806Y64486D01*
X26247Y63910D01*
X26511Y63708D01*
X26341Y63208D01*
X19903D01*
X10240Y72870D01*
X10198Y73195D01*
X9920Y73866D01*
X9478Y74441D01*
X8903Y74883D01*
X9012Y75379D01*
X42087D01*
X42932Y75547D01*
X43648Y76026D01*
X52674Y85052D01*
X53153Y85768D01*
X53321Y86613D01*
Y97887D01*
X53153Y98732D01*
X52674Y99448D01*
X50548Y101575D01*
X50669Y102500D01*
X50527Y103579D01*
X50111Y104585D01*
X49448Y105448D01*
X48585Y106111D01*
X47579Y106527D01*
X46500Y106669D01*
X45421Y106527D01*
X44415Y106111D01*
X43552Y105448D01*
X42889Y104585D01*
X42473Y103579D01*
X42331Y102500D01*
X42473Y101421D01*
X42889Y100415D01*
X43552Y99552D01*
X44415Y98889D01*
X45421Y98472D01*
X46500Y98330D01*
X47425Y98452D01*
X48744Y97134D01*
X48537Y96634D01*
X42366D01*
Y88366D01*
X44292D01*
Y86547D01*
X40108Y82363D01*
X30138D01*
X29947Y82825D01*
X35575Y88452D01*
X36500Y88330D01*
X37579Y88472D01*
X38585Y88889D01*
X39448Y89552D01*
X40111Y90415D01*
X40527Y91421D01*
X40670Y92500D01*
X40527Y93579D01*
X40111Y94585D01*
X39448Y95448D01*
X38585Y96111D01*
X37579Y96527D01*
X36500Y96669D01*
X35421Y96527D01*
X34415Y96111D01*
X33552Y95448D01*
X32889Y94585D01*
X32473Y93579D01*
X32331Y92500D01*
X32452Y91575D01*
X25961Y85084D01*
X16652D01*
X16405Y85584D01*
X16581Y85812D01*
X16918Y86626D01*
X17033Y87500D01*
X17031D01*
Y105299D01*
X17026Y105327D01*
X17147Y106563D01*
X17516Y107778D01*
X18114Y108898D01*
X18920Y109879D01*
X19901Y110685D01*
X21021Y111283D01*
X22236Y111652D01*
X23016Y111729D01*
X23500Y111768D01*
Y111768D01*
X23501Y111768D01*
X87401D01*
X87402Y111768D01*
D02*
G37*
%LPC*%
G36*
X28075Y107174D02*
Y104075D01*
X31174D01*
X30799Y104982D01*
X30010Y106010D01*
X28982Y106799D01*
X28075Y107174D01*
D02*
G37*
G36*
X24925D02*
X24018Y106799D01*
X22990Y106010D01*
X22201Y104982D01*
X21826Y104075D01*
X24925D01*
Y107174D01*
D02*
G37*
G36*
X36500Y106669D02*
X35421Y106527D01*
X34415Y106111D01*
X33552Y105448D01*
X32889Y104585D01*
X32473Y103579D01*
X32331Y102500D01*
X32473Y101421D01*
X32889Y100415D01*
X33552Y99552D01*
X34415Y98889D01*
X35421Y98472D01*
X36500Y98330D01*
X37579Y98472D01*
X38585Y98889D01*
X39448Y99552D01*
X40111Y100415D01*
X40527Y101421D01*
X40670Y102500D01*
X40527Y103579D01*
X40111Y104585D01*
X39448Y105448D01*
X38585Y106111D01*
X37579Y106527D01*
X36500Y106669D01*
D02*
G37*
G36*
X31174Y100925D02*
X28075D01*
Y97825D01*
X28982Y98201D01*
X30010Y98990D01*
X30799Y100018D01*
X31174Y100925D01*
D02*
G37*
G36*
X24925D02*
X21826D01*
X22201Y100018D01*
X22990Y98990D01*
X24018Y98201D01*
X24925Y97825D01*
Y100925D01*
D02*
G37*
G36*
X84646Y110472D02*
X83063Y110316D01*
X81542Y109855D01*
X80140Y109105D01*
X78911Y108097D01*
X77903Y106868D01*
X77153Y105466D01*
X76692Y103944D01*
X76536Y102362D01*
X76692Y100780D01*
X77153Y99259D01*
X77903Y97856D01*
X78911Y96627D01*
X80140Y95619D01*
X81542Y94870D01*
X83063Y94408D01*
X84646Y94252D01*
X86228Y94408D01*
X87749Y94870D01*
X89151Y95619D01*
X90380Y96627D01*
X91389Y97856D01*
X92138Y99259D01*
X92600Y100780D01*
X92756Y102362D01*
X92600Y103944D01*
X92138Y105466D01*
X91389Y106868D01*
X90380Y108097D01*
X89151Y109105D01*
X87749Y109855D01*
X86228Y110316D01*
X84646Y110472D01*
D02*
G37*
G36*
X-84646D02*
X-86228Y110316D01*
X-87749Y109855D01*
X-89151Y109105D01*
X-90380Y108097D01*
X-91389Y106868D01*
X-92138Y105466D01*
X-92600Y103944D01*
X-92756Y102362D01*
X-92600Y100780D01*
X-92138Y99259D01*
X-91389Y97856D01*
X-90380Y96627D01*
X-89151Y95619D01*
X-87749Y94870D01*
X-86228Y94408D01*
X-84646Y94252D01*
X-83063Y94408D01*
X-81542Y94870D01*
X-80140Y95619D01*
X-78911Y96627D01*
X-77903Y97856D01*
X-77153Y99259D01*
X-76692Y100780D01*
X-76536Y102362D01*
X-76692Y103944D01*
X-77153Y105466D01*
X-77903Y106868D01*
X-78911Y108097D01*
X-80140Y109105D01*
X-81542Y109855D01*
X-83063Y110316D01*
X-84646Y110472D01*
D02*
G37*
G36*
X26500Y96669D02*
X25421Y96527D01*
X24415Y96111D01*
X23552Y95448D01*
X22889Y94585D01*
X22473Y93579D01*
X22331Y92500D01*
X22473Y91421D01*
X22889Y90415D01*
X23552Y89552D01*
X24415Y88889D01*
X25421Y88472D01*
X26500Y88330D01*
X27579Y88472D01*
X28585Y88889D01*
X29448Y89552D01*
X30111Y90415D01*
X30527Y91421D01*
X30670Y92500D01*
X30527Y93579D01*
X30111Y94585D01*
X29448Y95448D01*
X28585Y96111D01*
X27579Y96527D01*
X26500Y96669D01*
D02*
G37*
G36*
X86634Y75134D02*
X78366D01*
Y66866D01*
X86634D01*
Y75134D01*
D02*
G37*
G36*
X82500Y65169D02*
X81421Y65027D01*
X80415Y64611D01*
X79552Y63948D01*
X78889Y63085D01*
X78473Y62079D01*
X78330Y61000D01*
X78452Y60075D01*
X74939Y56561D01*
X74460Y55845D01*
X74292Y55000D01*
Y52746D01*
X73792Y52647D01*
X73611Y53085D01*
X72948Y53948D01*
X72085Y54611D01*
X71079Y55027D01*
X70000Y55169D01*
X68921Y55027D01*
X67915Y54611D01*
X67052Y53948D01*
X66389Y53085D01*
X65973Y52079D01*
X65830Y51000D01*
X65973Y49921D01*
X66389Y48915D01*
X67052Y48052D01*
X67915Y47389D01*
X68921Y46973D01*
X70000Y46830D01*
X71079Y46973D01*
X72085Y47389D01*
X72948Y48052D01*
X73611Y48915D01*
X73792Y49353D01*
X74292Y49253D01*
Y44268D01*
X73819Y44107D01*
X73510Y44510D01*
X72482Y45299D01*
X71575Y45674D01*
Y41000D01*
Y36325D01*
X72482Y36701D01*
X73510Y37490D01*
X73819Y37893D01*
X74292Y37732D01*
Y-31984D01*
X73552Y-32552D01*
X72889Y-33415D01*
X72473Y-34421D01*
X72330Y-35500D01*
X72473Y-36579D01*
X72889Y-37585D01*
X73552Y-38448D01*
X74415Y-39111D01*
X75421Y-39527D01*
X76500Y-39670D01*
X77579Y-39527D01*
X78585Y-39111D01*
X79448Y-38448D01*
X80111Y-37585D01*
X80527Y-36579D01*
X80669Y-35500D01*
X80527Y-34421D01*
X80111Y-33415D01*
X79448Y-32552D01*
X78708Y-31984D01*
Y3866D01*
X84905D01*
Y3273D01*
X84460Y2608D01*
X84292Y1763D01*
Y-31984D01*
X83552Y-32552D01*
X82889Y-33415D01*
X82473Y-34421D01*
X82331Y-35500D01*
X82473Y-36579D01*
X82889Y-37585D01*
X83552Y-38448D01*
X84415Y-39111D01*
X85421Y-39527D01*
X86500Y-39670D01*
X87579Y-39527D01*
X88585Y-39111D01*
X89448Y-38448D01*
X90111Y-37585D01*
X90527Y-36579D01*
X90670Y-35500D01*
X90527Y-34421D01*
X90111Y-33415D01*
X89448Y-32552D01*
X88708Y-31984D01*
Y865D01*
X89152Y1531D01*
X89321Y2376D01*
Y46387D01*
X89152Y47232D01*
X88674Y47948D01*
X86548Y50074D01*
X86669Y51000D01*
X86527Y52079D01*
X86111Y53085D01*
X85448Y53948D01*
X84585Y54611D01*
X83579Y55027D01*
X82500Y55169D01*
X81421Y55027D01*
X80415Y54611D01*
X79552Y53948D01*
X79294Y53612D01*
X78803Y53772D01*
X78758Y54136D01*
X81575Y56952D01*
X82500Y56830D01*
X83579Y56972D01*
X84585Y57389D01*
X85448Y58052D01*
X86111Y58915D01*
X86527Y59921D01*
X86669Y61000D01*
X86527Y62079D01*
X86111Y63085D01*
X85448Y63948D01*
X84585Y64611D01*
X83579Y65027D01*
X82500Y65169D01*
D02*
G37*
G36*
X-78650Y69455D02*
X-79369Y69361D01*
X-80039Y69083D01*
X-80615Y68641D01*
X-81057Y68066D01*
X-81335Y67395D01*
X-81377Y67070D01*
X-86528Y61920D01*
X-86853Y61877D01*
X-87523Y61599D01*
X-88099Y61158D01*
X-88541Y60582D01*
X-88818Y59912D01*
X-88913Y59192D01*
X-88818Y58473D01*
X-88541Y57802D01*
X-88099Y57227D01*
X-87523Y56785D01*
X-86853Y56507D01*
X-86133Y56412D01*
X-85414Y56507D01*
X-84743Y56785D01*
X-84168Y57227D01*
X-83726Y57802D01*
X-83448Y58473D01*
X-83406Y58798D01*
X-78255Y63948D01*
X-77930Y63991D01*
X-77260Y64268D01*
X-76684Y64710D01*
X-76242Y65286D01*
X-75965Y65956D01*
X-75870Y66676D01*
X-75965Y67395D01*
X-76242Y68066D01*
X-76684Y68641D01*
X-77260Y69083D01*
X-77930Y69361D01*
X-78650Y69455D01*
D02*
G37*
G36*
X68425Y45674D02*
X67518Y45299D01*
X66490Y44510D01*
X65701Y43482D01*
X65326Y42575D01*
X68425D01*
Y45674D01*
D02*
G37*
G36*
Y39425D02*
X65326D01*
X65701Y38518D01*
X66490Y37490D01*
X67518Y36701D01*
X68425Y36325D01*
Y39425D01*
D02*
G37*
G36*
X52913Y11155D02*
X52193Y11061D01*
X51523Y10783D01*
X50947Y10341D01*
X50506Y9766D01*
X50228Y9095D01*
X50185Y8770D01*
X38118Y-3297D01*
X37793Y-3339D01*
X37123Y-3617D01*
X36547Y-4059D01*
X36105Y-4634D01*
X35828Y-5305D01*
X35733Y-6024D01*
X35828Y-6744D01*
X36105Y-7414D01*
X36305Y-7674D01*
Y-19874D01*
X36105Y-20134D01*
X35828Y-20805D01*
X35733Y-21524D01*
X35828Y-22244D01*
X36105Y-22914D01*
X36547Y-23490D01*
X37123Y-23932D01*
X37793Y-24209D01*
X38513Y-24304D01*
X39232Y-24209D01*
X39903Y-23932D01*
X40478Y-23490D01*
X40920Y-22914D01*
X41198Y-22244D01*
X41293Y-21524D01*
X41198Y-20805D01*
X40920Y-20134D01*
X40721Y-19874D01*
Y-7674D01*
X40920Y-7414D01*
X41198Y-6744D01*
X41241Y-6419D01*
X50243Y2584D01*
X50705Y2392D01*
Y-31913D01*
X50873Y-32758D01*
X51352Y-33474D01*
X52452Y-34575D01*
X52330Y-35500D01*
X52473Y-36579D01*
X52597Y-36879D01*
X52173Y-37162D01*
X42674Y-27663D01*
X41958Y-27185D01*
X41113Y-27016D01*
X21313D01*
X20468Y-27185D01*
X19752Y-27663D01*
X19273Y-28379D01*
X19105Y-29224D01*
X19273Y-30069D01*
X19752Y-30785D01*
X20468Y-31264D01*
X21313Y-31432D01*
X40198D01*
X50452Y-41685D01*
X51168Y-42164D01*
X52013Y-42332D01*
X52504D01*
X52695Y-42794D01*
X50929Y-44560D01*
X46523D01*
X46277Y-44060D01*
X46407Y-43890D01*
X46685Y-43220D01*
X46780Y-42500D01*
X46685Y-41781D01*
X46407Y-41110D01*
X45965Y-40535D01*
X45923Y-40502D01*
X45890Y-40459D01*
X45314Y-40017D01*
X44644Y-39739D01*
X43924Y-39645D01*
X43205Y-39739D01*
X42534Y-40017D01*
X42351Y-40158D01*
X19449Y-39327D01*
X-4910Y-14968D01*
X-4783Y-14000D01*
X-4927Y-12909D01*
X-5348Y-11891D01*
X-6018Y-11018D01*
X-6891Y-10348D01*
X-7908Y-9927D01*
X-9000Y-9783D01*
X-10091Y-9927D01*
X-11109Y-10348D01*
X-11982Y-11018D01*
X-12652Y-11891D01*
X-13073Y-12909D01*
X-13217Y-14000D01*
X-13073Y-15092D01*
X-12652Y-16109D01*
X-11982Y-16982D01*
X-11109Y-17652D01*
X-10091Y-18074D01*
X-9000Y-18217D01*
X-8032Y-18090D01*
X15446Y-41568D01*
X15234Y-41885D01*
X15066Y-42730D01*
X15234Y-43575D01*
X15559Y-44060D01*
X15291Y-44560D01*
X-7044D01*
X-7888Y-44728D01*
X-8605Y-45207D01*
X-9083Y-45923D01*
X-9251Y-46768D01*
X-9083Y-47613D01*
X-8605Y-48329D01*
X-7888Y-48808D01*
X-7044Y-48976D01*
X45860D01*
X46052Y-49438D01*
X36439Y-59050D01*
X35960Y-59767D01*
X35792Y-60611D01*
X35960Y-61456D01*
X36439Y-62173D01*
X37155Y-62651D01*
X38000Y-62819D01*
X38845Y-62651D01*
X39561Y-62173D01*
X52758Y-48976D01*
X58069D01*
X58914Y-48808D01*
X59630Y-48329D01*
X66274Y-41685D01*
X67538Y-40421D01*
X71421D01*
Y-37075D01*
X66500D01*
Y-33925D01*
X71421D01*
Y-30579D01*
X70221D01*
Y-21924D01*
Y-16324D01*
Y-1650D01*
X70052Y-805D01*
X69574Y-89D01*
X68858Y390D01*
X68013Y558D01*
X67168Y390D01*
X66452Y-89D01*
X64402Y-2139D01*
X63923Y-2855D01*
X63755Y-3700D01*
Y-30579D01*
X61579D01*
Y-33911D01*
X60989Y-34500D01*
X60479Y-34303D01*
X60111Y-33415D01*
X59448Y-32552D01*
X58585Y-31889D01*
X57579Y-31473D01*
X56500Y-31331D01*
X55575Y-31452D01*
X55121Y-30998D01*
Y6726D01*
X55320Y6986D01*
X55598Y7656D01*
X55692Y8376D01*
X55598Y9095D01*
X55320Y9766D01*
X54878Y10341D01*
X54303Y10783D01*
X53632Y11061D01*
X52913Y11155D01*
D02*
G37*
G36*
X-9000Y-29783D02*
X-10091Y-29927D01*
X-11109Y-30348D01*
X-11982Y-31018D01*
X-12652Y-31892D01*
X-13073Y-32909D01*
X-13217Y-34000D01*
X-13073Y-35092D01*
X-12652Y-36109D01*
X-11982Y-36982D01*
X-11109Y-37652D01*
X-10091Y-38074D01*
X-9000Y-38217D01*
X-7908Y-38074D01*
X-6891Y-37652D01*
X-6018Y-36982D01*
X-5348Y-36109D01*
X-4927Y-35092D01*
X-4783Y-34000D01*
X-4927Y-32909D01*
X-5348Y-31892D01*
X-6018Y-31018D01*
X-6891Y-30348D01*
X-7908Y-29927D01*
X-9000Y-29783D01*
D02*
G37*
G36*
X-42079Y-64095D02*
X-45425D01*
Y-68425D01*
X-42079D01*
Y-64095D01*
D02*
G37*
G36*
X-48575D02*
X-51921D01*
Y-68425D01*
X-48575D01*
Y-64095D01*
D02*
G37*
G36*
X81831Y-68169D02*
X79075D01*
Y-70925D01*
X81831D01*
Y-68169D01*
D02*
G37*
G36*
X75925D02*
X73169D01*
Y-70925D01*
X75925D01*
Y-68169D01*
D02*
G37*
G36*
X-37000Y-64846D02*
X-38079Y-64988D01*
X-39085Y-65405D01*
X-39948Y-66067D01*
X-40611Y-66931D01*
X-41027Y-67937D01*
X-41170Y-69016D01*
Y-70984D01*
X-41027Y-72063D01*
X-40611Y-73069D01*
X-39948Y-73933D01*
X-39085Y-74595D01*
X-38079Y-75012D01*
X-37000Y-75154D01*
X-35921Y-75012D01*
X-34915Y-74595D01*
X-34052Y-73933D01*
X-33389Y-73069D01*
X-32973Y-72063D01*
X-32831Y-70984D01*
Y-69016D01*
X-32973Y-67937D01*
X-33389Y-66931D01*
X-34052Y-66067D01*
X-34915Y-65405D01*
X-35921Y-64988D01*
X-37000Y-64846D01*
D02*
G37*
G36*
X-42079Y-71575D02*
X-45425D01*
Y-75906D01*
X-42079D01*
Y-71575D01*
D02*
G37*
G36*
X-48575D02*
X-51921D01*
Y-75906D01*
X-48575D01*
Y-71575D01*
D02*
G37*
G36*
X87500Y-68926D02*
X86575Y-69048D01*
X85713Y-69405D01*
X84973Y-69973D01*
X84405Y-70713D01*
X84048Y-71575D01*
X83926Y-72500D01*
X84048Y-73425D01*
X84405Y-74287D01*
X84973Y-75027D01*
X85713Y-75595D01*
X86575Y-75952D01*
X87500Y-76074D01*
X88425Y-75952D01*
X89287Y-75595D01*
X90027Y-75027D01*
X90595Y-74287D01*
X90952Y-73425D01*
X91074Y-72500D01*
X90952Y-71575D01*
X90595Y-70713D01*
X90027Y-69973D01*
X89287Y-69405D01*
X88425Y-69048D01*
X87500Y-68926D01*
D02*
G37*
G36*
X81831Y-74075D02*
X79075D01*
Y-76831D01*
X81831D01*
Y-74075D01*
D02*
G37*
G36*
X75925D02*
X73169D01*
Y-76831D01*
X75925D01*
Y-74075D01*
D02*
G37*
G36*
X66421Y-89579D02*
X63075D01*
Y-92925D01*
X66421D01*
Y-89579D01*
D02*
G37*
G36*
X-49925Y-89826D02*
Y-92925D01*
X-46826D01*
X-47201Y-92018D01*
X-47990Y-90990D01*
X-49018Y-90201D01*
X-49925Y-89826D01*
D02*
G37*
G36*
X-53075D02*
X-53982Y-90201D01*
X-55010Y-90990D01*
X-55799Y-92018D01*
X-56174Y-92925D01*
X-53075D01*
Y-89826D01*
D02*
G37*
G36*
X59925Y-89579D02*
X56579D01*
Y-92925D01*
X59925D01*
Y-89579D01*
D02*
G37*
G36*
X-31366Y-90366D02*
X-39634D01*
Y-98634D01*
X-31366D01*
Y-90366D01*
D02*
G37*
G36*
X-57366D02*
X-65634D01*
Y-98634D01*
X-57366D01*
Y-90366D01*
D02*
G37*
G36*
X51500Y-90331D02*
X50421Y-90473D01*
X49415Y-90889D01*
X48552Y-91552D01*
X47889Y-92415D01*
X47473Y-93421D01*
X47330Y-94500D01*
X47473Y-95579D01*
X47889Y-96585D01*
X48552Y-97448D01*
X49415Y-98111D01*
X50421Y-98527D01*
X51500Y-98670D01*
X52579Y-98527D01*
X53585Y-98111D01*
X54448Y-97448D01*
X55111Y-96585D01*
X55527Y-95579D01*
X55669Y-94500D01*
X55527Y-93421D01*
X55111Y-92415D01*
X54448Y-91552D01*
X53585Y-90889D01*
X52579Y-90473D01*
X51500Y-90331D01*
D02*
G37*
G36*
X41500D02*
X40421Y-90473D01*
X39415Y-90889D01*
X38552Y-91552D01*
X37889Y-92415D01*
X37473Y-93421D01*
X37330Y-94500D01*
X37473Y-95579D01*
X37889Y-96585D01*
X38552Y-97448D01*
X39415Y-98111D01*
X40421Y-98527D01*
X41500Y-98670D01*
X42579Y-98527D01*
X43585Y-98111D01*
X44448Y-97448D01*
X45111Y-96585D01*
X45527Y-95579D01*
X45669Y-94500D01*
X45527Y-93421D01*
X45111Y-92415D01*
X44448Y-91552D01*
X43585Y-90889D01*
X42579Y-90473D01*
X41500Y-90331D01*
D02*
G37*
G36*
X31500D02*
X30421Y-90473D01*
X29415Y-90889D01*
X28552Y-91552D01*
X27889Y-92415D01*
X27473Y-93421D01*
X27330Y-94500D01*
X27473Y-95579D01*
X27889Y-96585D01*
X28552Y-97448D01*
X29415Y-98111D01*
X30421Y-98527D01*
X31500Y-98670D01*
X32579Y-98527D01*
X33585Y-98111D01*
X34448Y-97448D01*
X35111Y-96585D01*
X35527Y-95579D01*
X35669Y-94500D01*
X35527Y-93421D01*
X35111Y-92415D01*
X34448Y-91552D01*
X33585Y-90889D01*
X32579Y-90473D01*
X31500Y-90331D01*
D02*
G37*
G36*
X-25500D02*
X-26579Y-90473D01*
X-27585Y-90889D01*
X-28448Y-91552D01*
X-29111Y-92415D01*
X-29527Y-93421D01*
X-29669Y-94500D01*
X-29527Y-95579D01*
X-29111Y-96585D01*
X-28448Y-97448D01*
X-27585Y-98111D01*
X-26579Y-98527D01*
X-25500Y-98670D01*
X-24421Y-98527D01*
X-23415Y-98111D01*
X-22552Y-97448D01*
X-21889Y-96585D01*
X-21473Y-95579D01*
X-21330Y-94500D01*
X-21473Y-93421D01*
X-21889Y-92415D01*
X-22552Y-91552D01*
X-23415Y-90889D01*
X-24421Y-90473D01*
X-25500Y-90331D01*
D02*
G37*
G36*
X-46826Y-96075D02*
X-49925D01*
Y-99174D01*
X-49018Y-98799D01*
X-47990Y-98010D01*
X-47201Y-96982D01*
X-46826Y-96075D01*
D02*
G37*
G36*
X-53075D02*
X-56174D01*
X-55799Y-96982D01*
X-55010Y-98010D01*
X-53982Y-98799D01*
X-53075Y-99174D01*
Y-96075D01*
D02*
G37*
G36*
X66421D02*
X63075D01*
Y-99421D01*
X66421D01*
Y-96075D01*
D02*
G37*
G36*
X59925D02*
X56579D01*
Y-99421D01*
X59925D01*
Y-96075D01*
D02*
G37*
G36*
X84646Y-86378D02*
X83063Y-86534D01*
X81542Y-86996D01*
X80140Y-87745D01*
X78911Y-88754D01*
X77903Y-89983D01*
X77153Y-91385D01*
X76692Y-92906D01*
X76536Y-94488D01*
X76692Y-96070D01*
X77153Y-97592D01*
X77903Y-98994D01*
X78911Y-100223D01*
X80140Y-101231D01*
X81542Y-101981D01*
X83063Y-102442D01*
X84646Y-102598D01*
X86228Y-102442D01*
X87749Y-101981D01*
X89151Y-101231D01*
X90380Y-100223D01*
X91389Y-98994D01*
X92138Y-97592D01*
X92600Y-96070D01*
X92756Y-94488D01*
X92600Y-92906D01*
X92138Y-91385D01*
X91389Y-89983D01*
X90380Y-88754D01*
X89151Y-87745D01*
X87749Y-86996D01*
X86228Y-86534D01*
X84646Y-86378D01*
D02*
G37*
G36*
X-84646D02*
X-86228Y-86534D01*
X-87749Y-86996D01*
X-89151Y-87745D01*
X-90380Y-88754D01*
X-91389Y-89983D01*
X-92138Y-91385D01*
X-92600Y-92906D01*
X-92756Y-94488D01*
X-92600Y-96070D01*
X-92138Y-97592D01*
X-91389Y-98994D01*
X-90380Y-100223D01*
X-89151Y-101231D01*
X-87749Y-101981D01*
X-86228Y-102442D01*
X-84646Y-102598D01*
X-83063Y-102442D01*
X-81542Y-101981D01*
X-80140Y-101231D01*
X-78911Y-100223D01*
X-77903Y-98994D01*
X-77153Y-97592D01*
X-76692Y-96070D01*
X-76536Y-94488D01*
X-76692Y-92906D01*
X-77153Y-91385D01*
X-77903Y-89983D01*
X-78911Y-88754D01*
X-80140Y-87745D01*
X-81542Y-86996D01*
X-83063Y-86534D01*
X-84646Y-86378D01*
D02*
G37*
%LPD*%
D65*
X68013Y-16324D02*
Y-1650D01*
Y-30599D02*
Y-21924D01*
Y-16324D01*
Y-36824D02*
Y-35500D01*
Y-30599D01*
X58487Y-40124D02*
X68013Y-30599D01*
X51844Y-46768D02*
X58487Y-40124D01*
X38000Y-60611D02*
X51844Y-46768D01*
X67918Y-36919D02*
X68013Y-36824D01*
X64713Y-40124D02*
X67918Y-36919D01*
X58069Y-46768D02*
X64713Y-40124D01*
X65963Y-30599D02*
Y-3700D01*
X58487Y-40124D02*
X64713D01*
X52013D02*
X58487D01*
X51844Y-46768D02*
X58069D01*
X-7044D02*
X51844D01*
X17504Y-42500D02*
X44000D01*
X41113Y-29224D02*
X52013Y-40124D01*
X21313Y-29224D02*
X41113D01*
X65963Y-3700D02*
X68013Y-1650D01*
X65963Y-30599D02*
X68013D01*
X38513Y-6024D02*
X52913Y8376D01*
X38513Y-21524D02*
Y-6024D01*
X52913Y-31913D02*
X56500Y-35500D01*
X52913Y-31913D02*
Y8376D01*
X-86133Y59192D02*
X-78650Y66676D01*
X-2487Y75576D02*
Y81026D01*
X-637Y82876D01*
X26876D01*
X36500Y92500D01*
X-9000Y-14000D02*
X18502Y-41502D01*
X43924Y-42424D01*
X7513Y72476D02*
X18989Y61000D01*
X70000D01*
X28213Y65876D02*
X65124D01*
X70000Y61000D01*
X76500Y55000D02*
X82500Y61000D01*
X76500Y-35500D02*
Y55000D01*
X82500Y51000D02*
X87113Y46387D01*
Y2376D02*
Y46387D01*
X86500Y1763D02*
X87113Y2376D01*
X86500Y-35500D02*
Y1763D01*
X46500Y85632D02*
Y92500D01*
X41023Y80155D02*
X46500Y85632D01*
X5092Y80155D02*
X41023D01*
X3898Y78961D02*
X5092Y80155D01*
X2089Y78961D02*
X3898D01*
X-3987Y69476D02*
X2113Y75576D01*
X4145D01*
X6156Y77587D01*
X42087D01*
X51113Y86613D01*
Y97887D01*
X46500Y102500D02*
X51113Y97887D01*
X17274Y-42730D02*
X17504Y-42500D01*
D71*
X56500Y-35500D02*
D03*
X76500D02*
D03*
X86500D02*
D03*
X82500Y18000D02*
D03*
Y28000D02*
D03*
X70000Y41000D02*
D03*
Y51000D02*
D03*
Y61000D02*
D03*
X82500Y41000D02*
D03*
Y51000D02*
D03*
Y61000D02*
D03*
X26500Y102500D02*
D03*
Y92500D02*
D03*
X36500Y102500D02*
D03*
Y92500D02*
D03*
X46500Y102500D02*
D03*
X-25500Y-94500D02*
D03*
X-51500D02*
D03*
X51500D02*
D03*
X41500D02*
D03*
X31500D02*
D03*
D72*
X66500Y-35500D02*
D03*
X46500Y92500D02*
D03*
X-35500Y-94500D02*
D03*
X-61500D02*
D03*
X61500D02*
D03*
D73*
X82500Y8000D02*
D03*
X70000Y71000D02*
D03*
X82500D02*
D03*
D74*
X-84646Y102362D02*
D03*
Y-94488D02*
D03*
X84646D02*
D03*
Y102362D02*
D03*
D75*
X87500Y-72500D02*
D03*
D76*
X77500D02*
D03*
D77*
X-9000Y-34000D02*
D03*
Y-14000D02*
D03*
D78*
X-47000Y-70000D02*
D03*
D79*
X-37000D02*
D03*
D80*
X-7044Y-46768D02*
D03*
X21313Y-29224D02*
D03*
X68013Y-1650D02*
D03*
Y-16324D02*
D03*
Y-21924D02*
D03*
X38513Y-6024D02*
D03*
Y-21524D02*
D03*
X52913Y8376D02*
D03*
X-78650Y66676D02*
D03*
X-86133Y59192D02*
D03*
X-2487Y75576D02*
D03*
X43924Y-42424D02*
D03*
X7513Y72476D02*
D03*
X28213Y65876D02*
D03*
X-3987Y69476D02*
D03*
X44000Y-42500D02*
D03*
M02*
