solid ASCII
  facet normal 0.000000e+00 0.000000e+00 1.000000e+00
    outer loop
      vertex   2.663095e+01 -2.127237e+01 -1.210000e+01
      vertex   2.659009e+01 -2.134746e+01 -1.210000e+01
      vertex   2.732377e+01 -2.196519e+01 -1.210000e+01
    endloop
  endfacet
  facet normal 0.000000e+00 0.000000e+00 1.000000e+00
    outer loop
      vertex   2.732377e+01 -2.196519e+01 -1.210000e+01
      vertex   2.659009e+01 -2.134746e+01 -1.210000e+01
      vertex   2.656261e+01 -2.142841e+01 -1.210000e+01
    endloop
  endfacet
  facet normal 0.000000e+00 0.000000e+00 1.000000e+00
    outer loop
      vertex   2.732377e+01 -2.196519e+01 -1.210000e+01
      vertex   2.656261e+01 -2.142841e+01 -1.210000e+01
      vertex   2.654932e+01 -2.151285e+01 -1.210000e+01
    endloop
  endfacet
  facet normal 0.000000e+00 0.000000e+00 1.000000e+00
    outer loop
      vertex   2.654932e+01 -2.151285e+01 -1.210000e+01
      vertex   2.655061e+01 -2.159833e+01 -1.210000e+01
      vertex   2.732377e+01 -2.196519e+01 -1.210000e+01
    endloop
  endfacet
  facet normal 0.000000e+00 0.000000e+00 1.000000e+00
    outer loop
      vertex   2.732377e+01 -2.196519e+01 -1.210000e+01
      vertex   2.655061e+01 -2.159833e+01 -1.210000e+01
      vertex   2.656644e+01 -2.168233e+01 -1.210000e+01
    endloop
  endfacet
  facet normal 0.000000e+00 0.000000e+00 1.000000e+00
    outer loop
      vertex   2.732377e+01 -2.196519e+01 -1.210000e+01
      vertex   2.656644e+01 -2.168233e+01 -1.210000e+01
      vertex   2.659635e+01 -2.176242e+01 -1.210000e+01
    endloop
  endfacet
  facet normal 0.000000e+00 0.000000e+00 1.000000e+00
    outer loop
      vertex   2.659635e+01 -2.176242e+01 -1.210000e+01
      vertex   2.663946e+01 -2.183623e+01 -1.210000e+01
      vertex   2.732377e+01 -2.196519e+01 -1.210000e+01
    endloop
  endfacet
  facet normal 0.000000e+00 0.000000e+00 1.000000e+00
    outer loop
      vertex   2.732377e+01 -2.196519e+01 -1.210000e+01
      vertex   2.663946e+01 -2.183623e+01 -1.210000e+01
      vertex   2.669452e+01 -2.190163e+01 -1.210000e+01
    endloop
  endfacet
  facet normal 0.000000e+00 0.000000e+00 1.000000e+00
    outer loop
      vertex   2.732377e+01 -2.196519e+01 -1.210000e+01
      vertex   2.669452e+01 -2.190163e+01 -1.210000e+01
      vertex   2.675991e+01 -2.195669e+01 -1.210000e+01
    endloop
  endfacet
  facet normal 0.000000e+00 0.000000e+00 1.000000e+00
    outer loop
      vertex   2.675991e+01 -2.195669e+01 -1.210000e+01
      vertex   2.683373e+01 -2.199980e+01 -1.210000e+01
      vertex   2.732377e+01 -2.196519e+01 -1.210000e+01
    endloop
  endfacet
  facet normal 0.000000e+00 0.000000e+00 1.000000e+00
    outer loop
      vertex   2.732377e+01 -2.196519e+01 -1.210000e+01
      vertex   2.683373e+01 -2.199980e+01 -1.210000e+01
      vertex   2.724869e+01 -2.200606e+01 -1.210000e+01
    endloop
  endfacet
  facet normal 0.000000e+00 0.000000e+00 1.000000e+00
    outer loop
      vertex   2.724869e+01 -2.200606e+01 -1.210000e+01
      vertex   2.683373e+01 -2.199980e+01 -1.210000e+01
      vertex   2.691381e+01 -2.202971e+01 -1.210000e+01
    endloop
  endfacet
  facet normal 0.000000e+00 0.000000e+00 1.000000e+00
    outer loop
      vertex   2.724869e+01 -2.200606e+01 -1.210000e+01
      vertex   2.691381e+01 -2.202971e+01 -1.210000e+01
      vertex   2.716774e+01 -2.203354e+01 -1.210000e+01
    endloop
  endfacet
  facet normal 0.000000e+00 0.000000e+00 1.000000e+00
    outer loop
      vertex   2.716774e+01 -2.203354e+01 -1.210000e+01
      vertex   2.691381e+01 -2.202971e+01 -1.210000e+01
      vertex   2.699782e+01 -2.204554e+01 -1.210000e+01
    endloop
  endfacet
  facet normal 0.000000e+00 0.000000e+00 1.000000e+00
    outer loop
      vertex   2.716774e+01 -2.203354e+01 -1.210000e+01
      vertex   2.699782e+01 -2.204554e+01 -1.210000e+01
      vertex   2.708329e+01 -2.204683e+01 -1.210000e+01
    endloop
  endfacet
  facet normal 8.783245e-01 -4.780650e-01 -2.600363e-15
    outer loop
      vertex   2.663095e+01 -2.127237e+01 -1.210000e+01
      vertex   2.663095e+01 -2.127237e+01 -1.090000e+01
      vertex   2.659009e+01 -2.134746e+01 -1.210000e+01
    endloop
  endfacet
  facet normal 8.783245e-01 -4.780650e-01 0.000000e+00
    outer loop
      vertex   2.659009e+01 -2.134746e+01 -1.210000e+01
      vertex   2.663095e+01 -2.127237e+01 -1.090000e+01
      vertex   2.659009e+01 -2.134746e+01 -1.090000e+01
    endloop
  endfacet
  facet normal 9.469233e-01 -3.214596e-01 0.000000e+00
    outer loop
      vertex   2.659009e+01 -2.134746e+01 -1.210000e+01
      vertex   2.659009e+01 -2.134746e+01 -1.090000e+01
      vertex   2.656261e+01 -2.142841e+01 -1.210000e+01
    endloop
  endfacet
  facet normal 9.469233e-01 -3.214596e-01 0.000000e+00
    outer loop
      vertex   2.656261e+01 -2.142841e+01 -1.210000e+01
      vertex   2.659009e+01 -2.134746e+01 -1.090000e+01
      vertex   2.656261e+01 -2.142841e+01 -1.090000e+01
    endloop
  endfacet
  facet normal 9.878426e-01 -1.554577e-01 0.000000e+00
    outer loop
      vertex   2.656261e+01 -2.142841e+01 -1.210000e+01
      vertex   2.656261e+01 -2.142841e+01 -1.090000e+01
      vertex   2.654932e+01 -2.151285e+01 -1.210000e+01
    endloop
  endfacet
  facet normal 9.878426e-01 -1.554577e-01 0.000000e+00
    outer loop
      vertex   2.654932e+01 -2.151285e+01 -1.210000e+01
      vertex   2.656261e+01 -2.142841e+01 -1.090000e+01
      vertex   2.654932e+01 -2.151285e+01 -1.090000e+01
    endloop
  endfacet
  facet normal 9.998862e-01 1.508849e-02 -0.000000e+00
    outer loop
      vertex   2.654932e+01 -2.151285e+01 -1.210000e+01
      vertex   2.654932e+01 -2.151285e+01 -1.090000e+01
      vertex   2.655061e+01 -2.159833e+01 -1.210000e+01
    endloop
  endfacet
  facet normal 9.998862e-01 1.508849e-02 -0.000000e+00
    outer loop
      vertex   2.655061e+01 -2.159833e+01 -1.210000e+01
      vertex   2.654932e+01 -2.151285e+01 -1.090000e+01
      vertex   2.655061e+01 -2.159833e+01 -1.090000e+01
    endloop
  endfacet
  facet normal 9.827021e-01 1.851936e-01 -0.000000e+00
    outer loop
      vertex   2.655061e+01 -2.159833e+01 -1.210000e+01
      vertex   2.655061e+01 -2.159833e+01 -1.090000e+01
      vertex   2.656644e+01 -2.168233e+01 -1.210000e+01
    endloop
  endfacet
  facet normal 9.827021e-01 1.851936e-01 -0.000000e+00
    outer loop
      vertex   2.656644e+01 -2.168233e+01 -1.210000e+01
      vertex   2.655061e+01 -2.159833e+01 -1.090000e+01
      vertex   2.656644e+01 -2.168233e+01 -1.090000e+01
    endloop
  endfacet
  facet normal 9.367925e-01 3.498853e-01 -0.000000e+00
    outer loop
      vertex   2.656644e+01 -2.168233e+01 -1.210000e+01
      vertex   2.656644e+01 -2.168233e+01 -1.090000e+01
      vertex   2.659635e+01 -2.176242e+01 -1.210000e+01
    endloop
  endfacet
  facet normal 9.367925e-01 3.498853e-01 -0.000000e+00
    outer loop
      vertex   2.659635e+01 -2.176242e+01 -1.210000e+01
      vertex   2.656644e+01 -2.168233e+01 -1.090000e+01
      vertex   2.659635e+01 -2.176242e+01 -1.090000e+01
    endloop
  endfacet
  facet normal 8.634996e-01 5.043495e-01 -0.000000e+00
    outer loop
      vertex   2.659635e+01 -2.176242e+01 -1.210000e+01
      vertex   2.659635e+01 -2.176242e+01 -1.090000e+01
      vertex   2.663946e+01 -2.183623e+01 -1.210000e+01
    endloop
  endfacet
  facet normal 8.634996e-01 5.043495e-01 -0.000000e+00
    outer loop
      vertex   2.663946e+01 -2.183623e+01 -1.210000e+01
      vertex   2.659635e+01 -2.176242e+01 -1.090000e+01
      vertex   2.663946e+01 -2.183623e+01 -1.090000e+01
    endloop
  endfacet
  facet normal 7.649657e-01 6.440710e-01 -0.000000e+00
    outer loop
      vertex   2.663946e+01 -2.183623e+01 -1.210000e+01
      vertex   2.663946e+01 -2.183623e+01 -1.090000e+01
      vertex   2.669452e+01 -2.190163e+01 -1.210000e+01
    endloop
  endfacet
  facet normal 7.649657e-01 6.440710e-01 -0.000000e+00
    outer loop
      vertex   2.669452e+01 -2.190163e+01 -1.210000e+01
      vertex   2.663946e+01 -2.183623e+01 -1.090000e+01
      vertex   2.669452e+01 -2.190163e+01 -1.090000e+01
    endloop
  endfacet
  facet normal 6.440710e-01 7.649657e-01 -0.000000e+00
    outer loop
      vertex   2.669452e+01 -2.190163e+01 -1.210000e+01
      vertex   2.669452e+01 -2.190163e+01 -1.090000e+01
      vertex   2.675991e+01 -2.195669e+01 -1.210000e+01
    endloop
  endfacet
  facet normal 6.440710e-01 7.649657e-01 -0.000000e+00
    outer loop
      vertex   2.675991e+01 -2.195669e+01 -1.210000e+01
      vertex   2.669452e+01 -2.190163e+01 -1.090000e+01
      vertex   2.675991e+01 -2.195669e+01 -1.090000e+01
    endloop
  endfacet
  facet normal 5.043495e-01 8.634996e-01 -0.000000e+00
    outer loop
      vertex   2.675991e+01 -2.195669e+01 -1.210000e+01
      vertex   2.675991e+01 -2.195669e+01 -1.090000e+01
      vertex   2.683373e+01 -2.199980e+01 -1.210000e+01
    endloop
  endfacet
  facet normal 5.043495e-01 8.634996e-01 -0.000000e+00
    outer loop
      vertex   2.683373e+01 -2.199980e+01 -1.210000e+01
      vertex   2.675991e+01 -2.195669e+01 -1.090000e+01
      vertex   2.683373e+01 -2.199980e+01 -1.090000e+01
    endloop
  endfacet
  facet normal 3.498853e-01 9.367925e-01 -0.000000e+00
    outer loop
      vertex   2.683373e+01 -2.199980e+01 -1.210000e+01
      vertex   2.683373e+01 -2.199980e+01 -1.090000e+01
      vertex   2.691381e+01 -2.202971e+01 -1.210000e+01
    endloop
  endfacet
  facet normal 3.498853e-01 9.367925e-01 -0.000000e+00
    outer loop
      vertex   2.691381e+01 -2.202971e+01 -1.210000e+01
      vertex   2.683373e+01 -2.199980e+01 -1.090000e+01
      vertex   2.691381e+01 -2.202971e+01 -1.090000e+01
    endloop
  endfacet
  facet normal 1.851936e-01 9.827021e-01 -0.000000e+00
    outer loop
      vertex   2.691381e+01 -2.202971e+01 -1.210000e+01
      vertex   2.691381e+01 -2.202971e+01 -1.090000e+01
      vertex   2.699782e+01 -2.204554e+01 -1.210000e+01
    endloop
  endfacet
  facet normal 1.851936e-01 9.827021e-01 2.909383e-15
    outer loop
      vertex   2.699782e+01 -2.204554e+01 -1.210000e+01
      vertex   2.691381e+01 -2.202971e+01 -1.090000e+01
      vertex   2.699782e+01 -2.204554e+01 -1.090000e+01
    endloop
  endfacet
  facet normal 1.508849e-02 9.998862e-01 2.960258e-15
    outer loop
      vertex   2.699782e+01 -2.204554e+01 -1.210000e+01
      vertex   2.699782e+01 -2.204554e+01 -1.090000e+01
      vertex   2.708329e+01 -2.204683e+01 -1.210000e+01
    endloop
  endfacet
  facet normal 1.508849e-02 9.998862e-01 -0.000000e+00
    outer loop
      vertex   2.708329e+01 -2.204683e+01 -1.210000e+01
      vertex   2.699782e+01 -2.204554e+01 -1.090000e+01
      vertex   2.708329e+01 -2.204683e+01 -1.090000e+01
    endloop
  endfacet
  facet normal -1.554577e-01 9.878426e-01 0.000000e+00
    outer loop
      vertex   2.708329e+01 -2.204683e+01 -1.210000e+01
      vertex   2.708329e+01 -2.204683e+01 -1.090000e+01
      vertex   2.716774e+01 -2.203354e+01 -1.210000e+01
    endloop
  endfacet
  facet normal -1.554577e-01 9.878426e-01 0.000000e+00
    outer loop
      vertex   2.716774e+01 -2.203354e+01 -1.210000e+01
      vertex   2.708329e+01 -2.204683e+01 -1.090000e+01
      vertex   2.716774e+01 -2.203354e+01 -1.090000e+01
    endloop
  endfacet
  facet normal -3.214596e-01 9.469233e-01 0.000000e+00
    outer loop
      vertex   2.716774e+01 -2.203354e+01 -1.210000e+01
      vertex   2.716774e+01 -2.203354e+01 -1.090000e+01
      vertex   2.724869e+01 -2.200606e+01 -1.210000e+01
    endloop
  endfacet
  facet normal -3.214596e-01 9.469233e-01 0.000000e+00
    outer loop
      vertex   2.724869e+01 -2.200606e+01 -1.210000e+01
      vertex   2.716774e+01 -2.203354e+01 -1.090000e+01
      vertex   2.724869e+01 -2.200606e+01 -1.090000e+01
    endloop
  endfacet
  facet normal -4.780650e-01 8.783245e-01 0.000000e+00
    outer loop
      vertex   2.724869e+01 -2.200606e+01 -1.210000e+01
      vertex   2.724869e+01 -2.200606e+01 -1.090000e+01
      vertex   2.732377e+01 -2.196519e+01 -1.210000e+01
    endloop
  endfacet
  facet normal -4.780650e-01 8.783245e-01 -2.600363e-15
    outer loop
      vertex   2.732377e+01 -2.196519e+01 -1.210000e+01
      vertex   2.724869e+01 -2.200606e+01 -1.090000e+01
      vertex   2.732377e+01 -2.196519e+01 -1.090000e+01
    endloop
  endfacet
  facet normal 0.000000e+00 -0.000000e+00 -1.000000e+00
    outer loop
      vertex   2.663095e+01 -2.127237e+01 -1.090000e+01
      vertex   2.732377e+01 -2.196519e+01 -1.090000e+01
      vertex   2.659009e+01 -2.134746e+01 -1.090000e+01
    endloop
  endfacet
  facet normal 0.000000e+00 -0.000000e+00 -1.000000e+00
    outer loop
      vertex   2.659009e+01 -2.134746e+01 -1.090000e+01
      vertex   2.732377e+01 -2.196519e+01 -1.090000e+01
      vertex   2.656261e+01 -2.142841e+01 -1.090000e+01
    endloop
  endfacet
  facet normal 0.000000e+00 -0.000000e+00 -1.000000e+00
    outer loop
      vertex   2.656261e+01 -2.142841e+01 -1.090000e+01
      vertex   2.732377e+01 -2.196519e+01 -1.090000e+01
      vertex   2.654932e+01 -2.151285e+01 -1.090000e+01
    endloop
  endfacet
  facet normal 0.000000e+00 0.000000e+00 -1.000000e+00
    outer loop
      vertex   2.654932e+01 -2.151285e+01 -1.090000e+01
      vertex   2.732377e+01 -2.196519e+01 -1.090000e+01
      vertex   2.655061e+01 -2.159833e+01 -1.090000e+01
    endloop
  endfacet
  facet normal 0.000000e+00 0.000000e+00 -1.000000e+00
    outer loop
      vertex   2.655061e+01 -2.159833e+01 -1.090000e+01
      vertex   2.732377e+01 -2.196519e+01 -1.090000e+01
      vertex   2.656644e+01 -2.168233e+01 -1.090000e+01
    endloop
  endfacet
  facet normal 0.000000e+00 0.000000e+00 -1.000000e+00
    outer loop
      vertex   2.656644e+01 -2.168233e+01 -1.090000e+01
      vertex   2.732377e+01 -2.196519e+01 -1.090000e+01
      vertex   2.659635e+01 -2.176242e+01 -1.090000e+01
    endloop
  endfacet
  facet normal 0.000000e+00 0.000000e+00 -1.000000e+00
    outer loop
      vertex   2.659635e+01 -2.176242e+01 -1.090000e+01
      vertex   2.732377e+01 -2.196519e+01 -1.090000e+01
      vertex   2.663946e+01 -2.183623e+01 -1.090000e+01
    endloop
  endfacet
  facet normal 0.000000e+00 0.000000e+00 -1.000000e+00
    outer loop
      vertex   2.663946e+01 -2.183623e+01 -1.090000e+01
      vertex   2.732377e+01 -2.196519e+01 -1.090000e+01
      vertex   2.669452e+01 -2.190163e+01 -1.090000e+01
    endloop
  endfacet
  facet normal 0.000000e+00 0.000000e+00 -1.000000e+00
    outer loop
      vertex   2.669452e+01 -2.190163e+01 -1.090000e+01
      vertex   2.732377e+01 -2.196519e+01 -1.090000e+01
      vertex   2.675991e+01 -2.195669e+01 -1.090000e+01
    endloop
  endfacet
  facet normal 0.000000e+00 0.000000e+00 -1.000000e+00
    outer loop
      vertex   2.675991e+01 -2.195669e+01 -1.090000e+01
      vertex   2.732377e+01 -2.196519e+01 -1.090000e+01
      vertex   2.683373e+01 -2.199980e+01 -1.090000e+01
    endloop
  endfacet
  facet normal 0.000000e+00 0.000000e+00 -1.000000e+00
    outer loop
      vertex   2.683373e+01 -2.199980e+01 -1.090000e+01
      vertex   2.732377e+01 -2.196519e+01 -1.090000e+01
      vertex   2.724869e+01 -2.200606e+01 -1.090000e+01
    endloop
  endfacet
  facet normal 0.000000e+00 0.000000e+00 -1.000000e+00
    outer loop
      vertex   2.683373e+01 -2.199980e+01 -1.090000e+01
      vertex   2.724869e+01 -2.200606e+01 -1.090000e+01
      vertex   2.691381e+01 -2.202971e+01 -1.090000e+01
    endloop
  endfacet
  facet normal 0.000000e+00 0.000000e+00 -1.000000e+00
    outer loop
      vertex   2.691381e+01 -2.202971e+01 -1.090000e+01
      vertex   2.724869e+01 -2.200606e+01 -1.090000e+01
      vertex   2.716774e+01 -2.203354e+01 -1.090000e+01
    endloop
  endfacet
  facet normal 0.000000e+00 0.000000e+00 -1.000000e+00
    outer loop
      vertex   2.691381e+01 -2.202971e+01 -1.090000e+01
      vertex   2.716774e+01 -2.203354e+01 -1.090000e+01
      vertex   2.699782e+01 -2.204554e+01 -1.090000e+01
    endloop
  endfacet
  facet normal 0.000000e+00 0.000000e+00 -1.000000e+00
    outer loop
      vertex   2.699782e+01 -2.204554e+01 -1.090000e+01
      vertex   2.716774e+01 -2.203354e+01 -1.090000e+01
      vertex   2.708329e+01 -2.204683e+01 -1.090000e+01
    endloop
  endfacet
  facet normal 0.000000e+00 -0.000000e+00 -1.000000e+00
    outer loop
      vertex   -2.663095e+01 -2.127237e+01 -1.090000e+01
      vertex   -2.659009e+01 -2.134746e+01 -1.090000e+01
      vertex   -2.732377e+01 -2.196519e+01 -1.090000e+01
    endloop
  endfacet
  facet normal 0.000000e+00 0.000000e+00 -1.000000e+00
    outer loop
      vertex   -2.732377e+01 -2.196519e+01 -1.090000e+01
      vertex   -2.659009e+01 -2.134746e+01 -1.090000e+01
      vertex   -2.656261e+01 -2.142841e+01 -1.090000e+01
    endloop
  endfacet
  facet normal 0.000000e+00 0.000000e+00 -1.000000e+00
    outer loop
      vertex   -2.732377e+01 -2.196519e+01 -1.090000e+01
      vertex   -2.656261e+01 -2.142841e+01 -1.090000e+01
      vertex   -2.654932e+01 -2.151285e+01 -1.090000e+01
    endloop
  endfacet
  facet normal 0.000000e+00 0.000000e+00 -1.000000e+00
    outer loop
      vertex   -2.654932e+01 -2.151285e+01 -1.090000e+01
      vertex   -2.655061e+01 -2.159833e+01 -1.090000e+01
      vertex   -2.732377e+01 -2.196519e+01 -1.090000e+01
    endloop
  endfacet
  facet normal 0.000000e+00 0.000000e+00 -1.000000e+00
    outer loop
      vertex   -2.732377e+01 -2.196519e+01 -1.090000e+01
      vertex   -2.655061e+01 -2.159833e+01 -1.090000e+01
      vertex   -2.656644e+01 -2.168233e+01 -1.090000e+01
    endloop
  endfacet
  facet normal 0.000000e+00 0.000000e+00 -1.000000e+00
    outer loop
      vertex   -2.732377e+01 -2.196519e+01 -1.090000e+01
      vertex   -2.656644e+01 -2.168233e+01 -1.090000e+01
      vertex   -2.659635e+01 -2.176242e+01 -1.090000e+01
    endloop
  endfacet
  facet normal 0.000000e+00 0.000000e+00 -1.000000e+00
    outer loop
      vertex   -2.659635e+01 -2.176242e+01 -1.090000e+01
      vertex   -2.663946e+01 -2.183623e+01 -1.090000e+01
      vertex   -2.732377e+01 -2.196519e+01 -1.090000e+01
    endloop
  endfacet
  facet normal 0.000000e+00 0.000000e+00 -1.000000e+00
    outer loop
      vertex   -2.732377e+01 -2.196519e+01 -1.090000e+01
      vertex   -2.663946e+01 -2.183623e+01 -1.090000e+01
      vertex   -2.669452e+01 -2.190163e+01 -1.090000e+01
    endloop
  endfacet
  facet normal 0.000000e+00 0.000000e+00 -1.000000e+00
    outer loop
      vertex   -2.732377e+01 -2.196519e+01 -1.090000e+01
      vertex   -2.669452e+01 -2.190163e+01 -1.090000e+01
      vertex   -2.675991e+01 -2.195669e+01 -1.090000e+01
    endloop
  endfacet
  facet normal 0.000000e+00 0.000000e+00 -1.000000e+00
    outer loop
      vertex   -2.675991e+01 -2.195669e+01 -1.090000e+01
      vertex   -2.683373e+01 -2.199980e+01 -1.090000e+01
      vertex   -2.732377e+01 -2.196519e+01 -1.090000e+01
    endloop
  endfacet
  facet normal 0.000000e+00 0.000000e+00 -1.000000e+00
    outer loop
      vertex   -2.732377e+01 -2.196519e+01 -1.090000e+01
      vertex   -2.683373e+01 -2.199980e+01 -1.090000e+01
      vertex   -2.724869e+01 -2.200606e+01 -1.090000e+01
    endloop
  endfacet
  facet normal 0.000000e+00 0.000000e+00 -1.000000e+00
    outer loop
      vertex   -2.724869e+01 -2.200606e+01 -1.090000e+01
      vertex   -2.683373e+01 -2.199980e+01 -1.090000e+01
      vertex   -2.691381e+01 -2.202971e+01 -1.090000e+01
    endloop
  endfacet
  facet normal 0.000000e+00 0.000000e+00 -1.000000e+00
    outer loop
      vertex   -2.724869e+01 -2.200606e+01 -1.090000e+01
      vertex   -2.691381e+01 -2.202971e+01 -1.090000e+01
      vertex   -2.716774e+01 -2.203354e+01 -1.090000e+01
    endloop
  endfacet
  facet normal 0.000000e+00 0.000000e+00 -1.000000e+00
    outer loop
      vertex   -2.716774e+01 -2.203354e+01 -1.090000e+01
      vertex   -2.691381e+01 -2.202971e+01 -1.090000e+01
      vertex   -2.699782e+01 -2.204554e+01 -1.090000e+01
    endloop
  endfacet
  facet normal 0.000000e+00 0.000000e+00 -1.000000e+00
    outer loop
      vertex   -2.716774e+01 -2.203354e+01 -1.090000e+01
      vertex   -2.699782e+01 -2.204554e+01 -1.090000e+01
      vertex   -2.708329e+01 -2.204683e+01 -1.090000e+01
    endloop
  endfacet
  facet normal -8.783245e-01 -4.780650e-01 -3.785369e-15
    outer loop
      vertex   -2.663095e+01 -2.127237e+01 -1.090000e+01
      vertex   -2.663095e+01 -2.127237e+01 -1.210000e+01
      vertex   -2.659009e+01 -2.134746e+01 -1.090000e+01
    endloop
  endfacet
  facet normal -8.783245e-01 -4.780650e-01 1.415357e-15
    outer loop
      vertex   -2.659009e+01 -2.134746e+01 -1.090000e+01
      vertex   -2.663095e+01 -2.127237e+01 -1.210000e+01
      vertex   -2.659009e+01 -2.134746e+01 -1.210000e+01
    endloop
  endfacet
  facet normal -9.469233e-01 -3.214596e-01 9.517117e-16
    outer loop
      vertex   -2.659009e+01 -2.134746e+01 -1.090000e+01
      vertex   -2.659009e+01 -2.134746e+01 -1.210000e+01
      vertex   -2.656261e+01 -2.142841e+01 -1.090000e+01
    endloop
  endfacet
  facet normal -9.469233e-01 -3.214596e-01 -1.851744e-15
    outer loop
      vertex   -2.656261e+01 -2.142841e+01 -1.090000e+01
      vertex   -2.659009e+01 -2.134746e+01 -1.210000e+01
      vertex   -2.656261e+01 -2.142841e+01 -1.210000e+01
    endloop
  endfacet
  facet normal -9.878426e-01 -1.554577e-01 -2.464354e-15
    outer loop
      vertex   -2.656261e+01 -2.142841e+01 -1.090000e+01
      vertex   -2.656261e+01 -2.142841e+01 -1.210000e+01
      vertex   -2.654932e+01 -2.151285e+01 -1.090000e+01
    endloop
  endfacet
  facet normal -9.878426e-01 -1.554577e-01 4.602472e-16
    outer loop
      vertex   -2.654932e+01 -2.151285e+01 -1.090000e+01
      vertex   -2.656261e+01 -2.142841e+01 -1.210000e+01
      vertex   -2.654932e+01 -2.151285e+01 -1.210000e+01
    endloop
  endfacet
  facet normal -9.998862e-01 1.508849e-02 -4.467090e-17
    outer loop
      vertex   -2.654932e+01 -2.151285e+01 -1.090000e+01
      vertex   -2.654932e+01 -2.151285e+01 -1.210000e+01
      vertex   -2.655061e+01 -2.159833e+01 -1.090000e+01
    endloop
  endfacet
  facet normal -9.998862e-01 1.508849e-02 5.831174e-15
    outer loop
      vertex   -2.655061e+01 -2.159833e+01 -1.090000e+01
      vertex   -2.654932e+01 -2.151285e+01 -1.210000e+01
      vertex   -2.655061e+01 -2.159833e+01 -1.210000e+01
    endloop
  endfacet
  facet normal -9.827021e-01 1.851936e-01 4.722199e-15
    outer loop
      vertex   -2.655061e+01 -2.159833e+01 -1.090000e+01
      vertex   -2.655061e+01 -2.159833e+01 -1.210000e+01
      vertex   -2.656644e+01 -2.168233e+01 -1.090000e+01
    endloop
  endfacet
  facet normal -9.827021e-01 1.851936e-01 2.909383e-15
    outer loop
      vertex   -2.656644e+01 -2.168233e+01 -1.090000e+01
      vertex   -2.655061e+01 -2.159833e+01 -1.210000e+01
      vertex   -2.656644e+01 -2.168233e+01 -1.210000e+01
    endloop
  endfacet
  facet normal -9.367925e-01 3.498853e-01 2.773463e-15
    outer loop
      vertex   -2.656644e+01 -2.168233e+01 -1.090000e+01
      vertex   -2.656644e+01 -2.168233e+01 -1.210000e+01
      vertex   -2.659635e+01 -2.176242e+01 -1.090000e+01
    endloop
  endfacet
  facet normal -9.367925e-01 3.498853e-01 -1.035869e-15
    outer loop
      vertex   -2.659635e+01 -2.176242e+01 -1.090000e+01
      vertex   -2.656644e+01 -2.168233e+01 -1.210000e+01
      vertex   -2.659635e+01 -2.176242e+01 -1.210000e+01
    endloop
  endfacet
  facet normal -8.634996e-01 5.043495e-01 -1.493174e-15
    outer loop
      vertex   -2.659635e+01 -2.176242e+01 -1.090000e+01
      vertex   -2.659635e+01 -2.176242e+01 -1.210000e+01
      vertex   -2.663946e+01 -2.183623e+01 -1.090000e+01
    endloop
  endfacet
  facet normal -8.634996e-01 5.043495e-01 0.000000e+00
    outer loop
      vertex   -2.663946e+01 -2.183623e+01 -1.090000e+01
      vertex   -2.659635e+01 -2.176242e+01 -1.210000e+01
      vertex   -2.663946e+01 -2.183623e+01 -1.210000e+01
    endloop
  endfacet
  facet normal -7.649657e-01 6.440710e-01 0.000000e+00
    outer loop
      vertex   -2.663946e+01 -2.183623e+01 -1.090000e+01
      vertex   -2.663946e+01 -2.183623e+01 -1.210000e+01
      vertex   -2.669452e+01 -2.190163e+01 -1.090000e+01
    endloop
  endfacet
  facet normal -7.649657e-01 6.440710e-01 2.264753e-15
    outer loop
      vertex   -2.669452e+01 -2.190163e+01 -1.090000e+01
      vertex   -2.663946e+01 -2.183623e+01 -1.210000e+01
      vertex   -2.669452e+01 -2.190163e+01 -1.210000e+01
    endloop
  endfacet
  facet normal -6.440710e-01 7.649657e-01 1.906833e-15
    outer loop
      vertex   -2.669452e+01 -2.190163e+01 -1.090000e+01
      vertex   -2.669452e+01 -2.190163e+01 -1.210000e+01
      vertex   -2.675991e+01 -2.195669e+01 -1.090000e+01
    endloop
  endfacet
  facet normal -6.440710e-01 7.649657e-01 0.000000e+00
    outer loop
      vertex   -2.675991e+01 -2.195669e+01 -1.090000e+01
      vertex   -2.669452e+01 -2.190163e+01 -1.210000e+01
      vertex   -2.675991e+01 -2.195669e+01 -1.210000e+01
    endloop
  endfacet
  facet normal -5.043495e-01 8.634996e-01 0.000000e+00
    outer loop
      vertex   -2.675991e+01 -2.195669e+01 -1.090000e+01
      vertex   -2.675991e+01 -2.195669e+01 -1.210000e+01
      vertex   -2.683373e+01 -2.199980e+01 -1.090000e+01
    endloop
  endfacet
  facet normal -5.043495e-01 8.634996e-01 0.000000e+00
    outer loop
      vertex   -2.683373e+01 -2.199980e+01 -1.090000e+01
      vertex   -2.675991e+01 -2.195669e+01 -1.210000e+01
      vertex   -2.683373e+01 -2.199980e+01 -1.210000e+01
    endloop
  endfacet
  facet normal -3.498853e-01 9.367925e-01 0.000000e+00
    outer loop
      vertex   -2.683373e+01 -2.199980e+01 -1.090000e+01
      vertex   -2.683373e+01 -2.199980e+01 -1.210000e+01
      vertex   -2.691381e+01 -2.202971e+01 -1.090000e+01
    endloop
  endfacet
  facet normal -3.498853e-01 9.367925e-01 0.000000e+00
    outer loop
      vertex   -2.691381e+01 -2.202971e+01 -1.090000e+01
      vertex   -2.683373e+01 -2.199980e+01 -1.210000e+01
      vertex   -2.691381e+01 -2.202971e+01 -1.210000e+01
    endloop
  endfacet
  facet normal -1.851936e-01 9.827021e-01 0.000000e+00
    outer loop
      vertex   -2.691381e+01 -2.202971e+01 -1.090000e+01
      vertex   -2.691381e+01 -2.202971e+01 -1.210000e+01
      vertex   -2.699782e+01 -2.204554e+01 -1.090000e+01
    endloop
  endfacet
  facet normal -1.851936e-01 9.827021e-01 0.000000e+00
    outer loop
      vertex   -2.699782e+01 -2.204554e+01 -1.090000e+01
      vertex   -2.691381e+01 -2.202971e+01 -1.210000e+01
      vertex   -2.699782e+01 -2.204554e+01 -1.210000e+01
    endloop
  endfacet
  facet normal -1.508849e-02 9.998862e-01 0.000000e+00
    outer loop
      vertex   -2.699782e+01 -2.204554e+01 -1.090000e+01
      vertex   -2.699782e+01 -2.204554e+01 -1.210000e+01
      vertex   -2.708329e+01 -2.204683e+01 -1.090000e+01
    endloop
  endfacet
  facet normal -1.508849e-02 9.998862e-01 0.000000e+00
    outer loop
      vertex   -2.708329e+01 -2.204683e+01 -1.090000e+01
      vertex   -2.699782e+01 -2.204554e+01 -1.210000e+01
      vertex   -2.708329e+01 -2.204683e+01 -1.210000e+01
    endloop
  endfacet
  facet normal 1.554577e-01 9.878426e-01 0.000000e+00
    outer loop
      vertex   -2.708329e+01 -2.204683e+01 -1.090000e+01
      vertex   -2.708329e+01 -2.204683e+01 -1.210000e+01
      vertex   -2.716774e+01 -2.203354e+01 -1.090000e+01
    endloop
  endfacet
  facet normal 1.554577e-01 9.878426e-01 0.000000e+00
    outer loop
      vertex   -2.716774e+01 -2.203354e+01 -1.090000e+01
      vertex   -2.708329e+01 -2.204683e+01 -1.210000e+01
      vertex   -2.716774e+01 -2.203354e+01 -1.210000e+01
    endloop
  endfacet
  facet normal 3.214596e-01 9.469233e-01 0.000000e+00
    outer loop
      vertex   -2.716774e+01 -2.203354e+01 -1.090000e+01
      vertex   -2.716774e+01 -2.203354e+01 -1.210000e+01
      vertex   -2.724869e+01 -2.200606e+01 -1.090000e+01
    endloop
  endfacet
  facet normal 3.214596e-01 9.469233e-01 0.000000e+00
    outer loop
      vertex   -2.724869e+01 -2.200606e+01 -1.090000e+01
      vertex   -2.716774e+01 -2.203354e+01 -1.210000e+01
      vertex   -2.724869e+01 -2.200606e+01 -1.210000e+01
    endloop
  endfacet
  facet normal 4.780650e-01 8.783245e-01 0.000000e+00
    outer loop
      vertex   -2.724869e+01 -2.200606e+01 -1.090000e+01
      vertex   -2.724869e+01 -2.200606e+01 -1.210000e+01
      vertex   -2.732377e+01 -2.196519e+01 -1.090000e+01
    endloop
  endfacet
  facet normal 4.780650e-01 8.783245e-01 -2.600363e-15
    outer loop
      vertex   -2.732377e+01 -2.196519e+01 -1.090000e+01
      vertex   -2.724869e+01 -2.200606e+01 -1.210000e+01
      vertex   -2.732377e+01 -2.196519e+01 -1.210000e+01
    endloop
  endfacet
  facet normal 0.000000e+00 0.000000e+00 1.000000e+00
    outer loop
      vertex   -2.663095e+01 -2.127237e+01 -1.210000e+01
      vertex   -2.732377e+01 -2.196519e+01 -1.210000e+01
      vertex   -2.659009e+01 -2.134746e+01 -1.210000e+01
    endloop
  endfacet
  facet normal 0.000000e+00 0.000000e+00 1.000000e+00
    outer loop
      vertex   -2.659009e+01 -2.134746e+01 -1.210000e+01
      vertex   -2.732377e+01 -2.196519e+01 -1.210000e+01
      vertex   -2.656261e+01 -2.142841e+01 -1.210000e+01
    endloop
  endfacet
  facet normal 0.000000e+00 0.000000e+00 1.000000e+00
    outer loop
      vertex   -2.656261e+01 -2.142841e+01 -1.210000e+01
      vertex   -2.732377e+01 -2.196519e+01 -1.210000e+01
      vertex   -2.654932e+01 -2.151285e+01 -1.210000e+01
    endloop
  endfacet
  facet normal 0.000000e+00 0.000000e+00 1.000000e+00
    outer loop
      vertex   -2.654932e+01 -2.151285e+01 -1.210000e+01
      vertex   -2.732377e+01 -2.196519e+01 -1.210000e+01
      vertex   -2.655061e+01 -2.159833e+01 -1.210000e+01
    endloop
  endfacet
  facet normal 0.000000e+00 0.000000e+00 1.000000e+00
    outer loop
      vertex   -2.655061e+01 -2.159833e+01 -1.210000e+01
      vertex   -2.732377e+01 -2.196519e+01 -1.210000e+01
      vertex   -2.656644e+01 -2.168233e+01 -1.210000e+01
    endloop
  endfacet
  facet normal 0.000000e+00 0.000000e+00 1.000000e+00
    outer loop
      vertex   -2.656644e+01 -2.168233e+01 -1.210000e+01
      vertex   -2.732377e+01 -2.196519e+01 -1.210000e+01
      vertex   -2.659635e+01 -2.176242e+01 -1.210000e+01
    endloop
  endfacet
  facet normal 0.000000e+00 0.000000e+00 1.000000e+00
    outer loop
      vertex   -2.659635e+01 -2.176242e+01 -1.210000e+01
      vertex   -2.732377e+01 -2.196519e+01 -1.210000e+01
      vertex   -2.663946e+01 -2.183623e+01 -1.210000e+01
    endloop
  endfacet
  facet normal 0.000000e+00 0.000000e+00 1.000000e+00
    outer loop
      vertex   -2.663946e+01 -2.183623e+01 -1.210000e+01
      vertex   -2.732377e+01 -2.196519e+01 -1.210000e+01
      vertex   -2.669452e+01 -2.190163e+01 -1.210000e+01
    endloop
  endfacet
  facet normal 0.000000e+00 0.000000e+00 1.000000e+00
    outer loop
      vertex   -2.669452e+01 -2.190163e+01 -1.210000e+01
      vertex   -2.732377e+01 -2.196519e+01 -1.210000e+01
      vertex   -2.675991e+01 -2.195669e+01 -1.210000e+01
    endloop
  endfacet
  facet normal 0.000000e+00 0.000000e+00 1.000000e+00
    outer loop
      vertex   -2.675991e+01 -2.195669e+01 -1.210000e+01
      vertex   -2.732377e+01 -2.196519e+01 -1.210000e+01
      vertex   -2.683373e+01 -2.199980e+01 -1.210000e+01
    endloop
  endfacet
  facet normal 0.000000e+00 0.000000e+00 1.000000e+00
    outer loop
      vertex   -2.683373e+01 -2.199980e+01 -1.210000e+01
      vertex   -2.732377e+01 -2.196519e+01 -1.210000e+01
      vertex   -2.724869e+01 -2.200606e+01 -1.210000e+01
    endloop
  endfacet
  facet normal 0.000000e+00 0.000000e+00 1.000000e+00
    outer loop
      vertex   -2.683373e+01 -2.199980e+01 -1.210000e+01
      vertex   -2.724869e+01 -2.200606e+01 -1.210000e+01
      vertex   -2.691381e+01 -2.202971e+01 -1.210000e+01
    endloop
  endfacet
  facet normal 0.000000e+00 0.000000e+00 1.000000e+00
    outer loop
      vertex   -2.691381e+01 -2.202971e+01 -1.210000e+01
      vertex   -2.724869e+01 -2.200606e+01 -1.210000e+01
      vertex   -2.716774e+01 -2.203354e+01 -1.210000e+01
    endloop
  endfacet
  facet normal 0.000000e+00 0.000000e+00 1.000000e+00
    outer loop
      vertex   -2.691381e+01 -2.202971e+01 -1.210000e+01
      vertex   -2.716774e+01 -2.203354e+01 -1.210000e+01
      vertex   -2.699782e+01 -2.204554e+01 -1.210000e+01
    endloop
  endfacet
  facet normal 0.000000e+00 0.000000e+00 1.000000e+00
    outer loop
      vertex   -2.699782e+01 -2.204554e+01 -1.210000e+01
      vertex   -2.716774e+01 -2.203354e+01 -1.210000e+01
      vertex   -2.708329e+01 -2.204683e+01 -1.210000e+01
    endloop
  endfacet
  facet normal -7.071068e-01 -7.071068e-01 0.000000e+00
    outer loop
      vertex   -2.775858e+01 -1.977157e+01 -1.500000e+01
      vertex   -2.644437e+01 -2.108579e+01 -1.500000e+01
      vertex   -2.775858e+01 -1.977157e+01 0.000000e+00
    endloop
  endfacet
  facet normal -7.071068e-01 -7.071068e-01 0.000000e+00
    outer loop
      vertex   -2.775858e+01 -1.977157e+01 0.000000e+00
      vertex   -2.644437e+01 -2.108579e+01 -1.500000e+01
      vertex   -2.644437e+01 -2.108579e+01 0.000000e+00
    endloop
  endfacet
  facet normal -7.071068e-01 7.071068e-01 -2.093457e-15
    outer loop
      vertex   -2.732377e+01 -2.196519e+01 -1.210000e+01
      vertex   -2.785858e+01 -2.250000e+01 -1.500000e+01
      vertex   -2.732377e+01 -2.196519e+01 -1.090000e+01
    endloop
  endfacet
  facet normal -7.071068e-01 7.071068e-01 0.000000e+00
    outer loop
      vertex   -2.732377e+01 -2.196519e+01 -1.090000e+01
      vertex   -2.785858e+01 -2.250000e+01 -1.500000e+01
      vertex   -2.785858e+01 -2.250000e+01 0.000000e+00
    endloop
  endfacet
  facet normal -7.071068e-01 7.071068e-01 0.000000e+00
    outer loop
      vertex   -2.732377e+01 -2.196519e+01 -1.090000e+01
      vertex   -2.785858e+01 -2.250000e+01 0.000000e+00
      vertex   -2.644437e+01 -2.108579e+01 0.000000e+00
    endloop
  endfacet
  facet normal -7.071068e-01 7.071068e-01 8.805217e-16
    outer loop
      vertex   -2.785858e+01 -2.250000e+01 -1.500000e+01
      vertex   -2.732377e+01 -2.196519e+01 -1.210000e+01
      vertex   -2.644437e+01 -2.108579e+01 -1.500000e+01
    endloop
  endfacet
  facet normal -7.071068e-01 7.071068e-01 8.693740e-16
    outer loop
      vertex   -2.644437e+01 -2.108579e+01 -1.500000e+01
      vertex   -2.732377e+01 -2.196519e+01 -1.210000e+01
      vertex   -2.663095e+01 -2.127237e+01 -1.210000e+01
    endloop
  endfacet
  facet normal -7.071068e-01 7.071068e-01 -6.289161e-15
    outer loop
      vertex   -2.644437e+01 -2.108579e+01 -1.500000e+01
      vertex   -2.663095e+01 -2.127237e+01 -1.210000e+01
      vertex   -2.663095e+01 -2.127237e+01 -1.090000e+01
    endloop
  endfacet
  facet normal -7.071068e-01 7.071068e-01 0.000000e+00
    outer loop
      vertex   -2.644437e+01 -2.108579e+01 -1.500000e+01
      vertex   -2.663095e+01 -2.127237e+01 -1.090000e+01
      vertex   -2.644437e+01 -2.108579e+01 0.000000e+00
    endloop
  endfacet
  facet normal -7.071068e-01 7.071068e-01 5.873494e-16
    outer loop
      vertex   -2.644437e+01 -2.108579e+01 0.000000e+00
      vertex   -2.663095e+01 -2.127237e+01 -1.090000e+01
      vertex   -2.732377e+01 -2.196519e+01 -1.090000e+01
    endloop
  endfacet
  facet normal 6.376337e-17 -1.000000e+00 0.000000e+00
    outer loop
      vertex   -2.785858e+01 -2.250000e+01 -1.500000e+01
      vertex   2.785858e+01 -2.250000e+01 -1.500000e+01
      vertex   -2.785858e+01 -2.250000e+01 0.000000e+00
    endloop
  endfacet
  facet normal 6.376337e-17 -1.000000e+00 0.000000e+00
    outer loop
      vertex   -2.785858e+01 -2.250000e+01 0.000000e+00
      vertex   2.785858e+01 -2.250000e+01 -1.500000e+01
      vertex   2.785858e+01 -2.250000e+01 0.000000e+00
    endloop
  endfacet
  facet normal 7.071068e-01 7.071068e-01 -2.093457e-15
    outer loop
      vertex   2.732377e+01 -2.196519e+01 -1.090000e+01
      vertex   2.785858e+01 -2.250000e+01 -1.500000e+01
      vertex   2.732377e+01 -2.196519e+01 -1.210000e+01
    endloop
  endfacet
  facet normal 7.071068e-01 7.071068e-01 8.613799e-16
    outer loop
      vertex   2.732377e+01 -2.196519e+01 -1.210000e+01
      vertex   2.785858e+01 -2.250000e+01 -1.500000e+01
      vertex   2.644437e+01 -2.108579e+01 -1.500000e+01
    endloop
  endfacet
  facet normal 7.071068e-01 7.071068e-01 8.596057e-16
    outer loop
      vertex   2.732377e+01 -2.196519e+01 -1.210000e+01
      vertex   2.644437e+01 -2.108579e+01 -1.500000e+01
      vertex   2.663095e+01 -2.127237e+01 -1.210000e+01
    endloop
  endfacet
  facet normal 7.071068e-01 7.071068e-01 -2.093457e-15
    outer loop
      vertex   2.663095e+01 -2.127237e+01 -1.210000e+01
      vertex   2.644437e+01 -2.108579e+01 -1.500000e+01
      vertex   2.663095e+01 -2.127237e+01 -1.090000e+01
    endloop
  endfacet
  facet normal 7.071068e-01 7.071068e-01 0.000000e+00
    outer loop
      vertex   2.663095e+01 -2.127237e+01 -1.090000e+01
      vertex   2.644437e+01 -2.108579e+01 -1.500000e+01
      vertex   2.644437e+01 -2.108579e+01 0.000000e+00
    endloop
  endfacet
  facet normal 7.071068e-01 7.071068e-01 0.000000e+00
    outer loop
      vertex   2.663095e+01 -2.127237e+01 -1.090000e+01
      vertex   2.644437e+01 -2.108579e+01 0.000000e+00
      vertex   2.732377e+01 -2.196519e+01 -1.090000e+01
    endloop
  endfacet
  facet normal 7.071068e-01 7.071068e-01 0.000000e+00
    outer loop
      vertex   2.732377e+01 -2.196519e+01 -1.090000e+01
      vertex   2.644437e+01 -2.108579e+01 0.000000e+00
      vertex   2.785858e+01 -2.250000e+01 0.000000e+00
    endloop
  endfacet
  facet normal 7.071068e-01 7.071068e-01 0.000000e+00
    outer loop
      vertex   2.732377e+01 -2.196519e+01 -1.090000e+01
      vertex   2.785858e+01 -2.250000e+01 0.000000e+00
      vertex   2.785858e+01 -2.250000e+01 -1.500000e+01
    endloop
  endfacet
  facet normal 7.071068e-01 -7.071068e-01 0.000000e+00
    outer loop
      vertex   2.644437e+01 -2.108579e+01 -1.500000e+01
      vertex   2.775858e+01 -1.977157e+01 -1.500000e+01
      vertex   2.644437e+01 -2.108579e+01 0.000000e+00
    endloop
  endfacet
  facet normal 7.071068e-01 -7.071068e-01 0.000000e+00
    outer loop
      vertex   2.644437e+01 -2.108579e+01 0.000000e+00
      vertex   2.775858e+01 -1.977157e+01 -1.500000e+01
      vertex   2.775858e+01 -1.977157e+01 0.000000e+00
    endloop
  endfacet
  facet normal 0.000000e+00 1.000000e+00 -0.000000e+00
    outer loop
      vertex   2.775858e+01 -1.977157e+01 -1.500000e+01
      vertex   -2.775858e+01 -1.977157e+01 -1.500000e+01
      vertex   2.775858e+01 -1.977157e+01 0.000000e+00
    endloop
  endfacet
  facet normal 0.000000e+00 1.000000e+00 0.000000e+00
    outer loop
      vertex   2.775858e+01 -1.977157e+01 0.000000e+00
      vertex   -2.775858e+01 -1.977157e+01 -1.500000e+01
      vertex   -2.775858e+01 -1.977157e+01 0.000000e+00
    endloop
  endfacet
  facet normal 0.000000e+00 0.000000e+00 1.000000e+00
    outer loop
      vertex   -2.785858e+01 -2.250000e+01 0.000000e+00
      vertex   2.785858e+01 -2.250000e+01 0.000000e+00
      vertex   -2.644437e+01 -2.108579e+01 0.000000e+00
    endloop
  endfacet
  facet normal -0.000000e+00 0.000000e+00 1.000000e+00
    outer loop
      vertex   -2.644437e+01 -2.108579e+01 0.000000e+00
      vertex   2.785858e+01 -2.250000e+01 0.000000e+00
      vertex   2.644437e+01 -2.108579e+01 0.000000e+00
    endloop
  endfacet
  facet normal 0.000000e+00 -0.000000e+00 1.000000e+00
    outer loop
      vertex   -2.644437e+01 -2.108579e+01 0.000000e+00
      vertex   2.644437e+01 -2.108579e+01 0.000000e+00
      vertex   -2.775858e+01 -1.977157e+01 0.000000e+00
    endloop
  endfacet
  facet normal -0.000000e+00 0.000000e+00 1.000000e+00
    outer loop
      vertex   -2.775858e+01 -1.977157e+01 0.000000e+00
      vertex   2.644437e+01 -2.108579e+01 0.000000e+00
      vertex   2.775858e+01 -1.977157e+01 0.000000e+00
    endloop
  endfacet
  facet normal -0.000000e+00 0.000000e+00 -1.000000e+00
    outer loop
      vertex   2.785858e+01 -2.250000e+01 -1.500000e+01
      vertex   -2.785858e+01 -2.250000e+01 -1.500000e+01
      vertex   2.644437e+01 -2.108579e+01 -1.500000e+01
    endloop
  endfacet
  facet normal -0.000000e+00 0.000000e+00 -1.000000e+00
    outer loop
      vertex   2.644437e+01 -2.108579e+01 -1.500000e+01
      vertex   -2.785858e+01 -2.250000e+01 -1.500000e+01
      vertex   -2.644437e+01 -2.108579e+01 -1.500000e+01
    endloop
  endfacet
  facet normal 0.000000e+00 0.000000e+00 -1.000000e+00
    outer loop
      vertex   2.644437e+01 -2.108579e+01 -1.500000e+01
      vertex   -2.644437e+01 -2.108579e+01 -1.500000e+01
      vertex   2.775858e+01 -1.977157e+01 -1.500000e+01
    endloop
  endfacet
  facet normal -0.000000e+00 0.000000e+00 -1.000000e+00
    outer loop
      vertex   2.775858e+01 -1.977157e+01 -1.500000e+01
      vertex   -2.644437e+01 -2.108579e+01 -1.500000e+01
      vertex   -2.775858e+01 -1.977157e+01 -1.500000e+01
    endloop
  endfacet
endsolid
